<svg width="55" height="50" viewBox="0 0 55 50" fill="none" xmlns="http://www.w3.org/2000/svg">
<g clip-path="url(#clip0)">
<path d="M30.9067 49.8509C44.0816 49.8509 54.7619 39.2419 54.7619 26.155C54.7619 13.068 44.0816 2.45898 30.9067 2.45898C17.7318 2.45898 7.05151 13.068 7.05151 26.155C7.05151 39.2419 17.7318 49.8509 30.9067 49.8509Z" fill="#FEDB8F"/>
<path d="M40.8089 34.6499C38.4084 34.6499 36.0829 33.7557 34.2825 32.1163C32.4071 30.4025 31.2819 28.018 31.1318 25.4844L33.9825 25.3354C34.0575 27.1983 34.8827 28.8377 36.2329 30.1044C37.5082 31.2967 39.2336 31.9673 41.034 31.8928C42.8344 31.8183 44.4847 31.0731 45.685 29.8064C46.7352 28.6886 47.4104 26.8257 47.4854 25.0374L50.336 25.1119C50.261 27.6454 49.2858 30.1044 47.7855 31.7438C46.0601 33.6067 43.6596 34.6499 41.109 34.7244C41.034 34.6499 40.884 34.6499 40.8089 34.6499Z" fill="white"/>
<path d="M25.0554 34.3518C23.33 34.3518 21.8297 33.9792 20.4794 33.1595C19.1291 32.3399 18.0039 31.2966 17.2537 29.9554C16.4285 28.6141 16.0535 27.0492 16.0535 25.3354C16.0535 23.6215 16.4285 22.0567 17.1787 20.7154C17.9289 19.3741 18.9041 18.2564 20.1794 17.5112C21.4546 16.6916 22.8799 16.319 24.4553 16.319C25.7306 16.319 26.9308 16.6171 28.0561 17.1387C29.1813 17.6603 30.0815 18.4054 30.8317 19.2996V10.5068C30.8317 9.98517 30.9817 9.61259 31.2818 9.31453C31.5818 9.01646 32.0319 8.86743 32.482 8.86743C33.0071 8.86743 33.3822 9.01646 33.6823 9.31453C33.9824 9.61259 34.1324 9.98517 34.1324 10.5068V25.3354C34.1324 27.0492 33.7573 28.6141 32.9321 29.9554C32.107 31.2966 31.0567 32.4144 29.7064 33.1595C28.2811 33.9792 26.7058 34.3518 25.0554 34.3518ZM25.0554 31.4457C26.1807 31.4457 27.1559 31.1476 28.0561 30.626C28.9563 30.1044 29.6314 29.3592 30.0815 28.465C30.6066 27.4963 30.8317 26.5276 30.8317 25.3354C30.8317 24.1431 30.6066 23.0999 30.0815 22.2057C29.5564 21.3115 28.8813 20.5664 28.0561 20.0448C27.1559 19.5232 26.1807 19.2251 25.0554 19.2251C23.9302 19.2251 22.955 19.5232 22.1298 20.0448C21.2296 20.5664 20.5544 21.3115 20.0293 22.2057C19.5042 23.0999 19.2792 24.1431 19.2792 25.3354C19.2792 26.4531 19.5042 27.4963 20.0293 28.465C20.5544 29.4338 21.2296 30.1044 22.1298 30.626C22.955 31.1476 23.9302 31.4457 25.0554 31.4457Z" fill="white"/>
<path d="M25.1305 50C11.2524 50 0 38.7481 0 24.9627C0 11.1773 11.2524 0 25.1305 0C39.0085 0 50.2609 11.1773 50.2609 24.9627C50.2609 25.7079 49.6608 26.3785 48.8356 26.3785C48.0855 26.3785 47.4103 25.7824 47.4103 24.9627C47.4853 12.7422 37.5082 2.83159 25.1305 2.83159C12.7528 2.83159 2.85062 12.7422 2.85062 24.9627C2.85062 37.1833 12.9028 47.1684 25.2055 47.1684C30.4566 47.1684 35.4827 45.38 39.4586 42.0268C40.0587 41.5052 40.9589 41.5797 41.484 42.1759C42.0091 42.772 41.9341 43.6662 41.334 44.1878C36.758 47.9136 31.0568 50 25.1305 50Z" fill="white"/>
</g>
<defs>
<clipPath id="clip0">
<rect width="54.7619" height="50" fill="white"/>
</clipPath>
</defs>
</svg>
