<svg width="54" height="50" viewBox="0 0 54 50" fill="none" xmlns="http://www.w3.org/2000/svg">
<g clip-path="url(#clip0)">
<path d="M30.0109 49.8509C42.8039 49.8509 53.1746 39.2419 53.1746 26.155C53.1746 13.068 42.8039 2.45898 30.0109 2.45898C17.2179 2.45898 6.84717 13.068 6.84717 26.155C6.84717 39.2419 17.2179 49.8509 30.0109 49.8509Z" fill="#B3C1F4"/>
<path d="M24.8393 34.3516C23.1639 34.3516 21.6342 33.9791 20.3231 33.1594C19.0119 32.3397 17.9921 31.2965 17.1909 29.9552C16.4624 28.6139 16.0254 27.0491 16.0254 25.3352C16.0254 23.5469 16.3896 21.982 17.118 20.6408C17.8464 19.2995 18.8662 18.1817 20.1774 17.4366C21.4885 16.6914 22.9454 16.3188 24.6207 16.3188C25.859 16.3188 27.0245 16.5424 28.0443 17.064C29.0641 17.5856 30.011 18.2563 30.8123 19.225C31.1037 19.5975 31.2493 19.8956 31.1037 20.2682C31.0308 20.6408 30.8123 20.9388 30.3752 21.2369C30.0839 21.4604 29.7197 21.5349 29.3555 21.4604C28.9912 21.3859 28.6999 21.1624 28.3357 20.8643C27.3159 19.7466 26.0047 19.1504 24.4751 19.1504C23.3824 19.1504 22.4355 19.374 21.6342 19.8956C20.833 20.4172 20.1774 21.0879 19.6675 22.0566C19.2304 22.9507 18.9391 24.0685 18.9391 25.2607C18.9391 26.453 19.1576 27.4962 19.6675 28.3904C20.1774 29.2846 20.833 30.0297 21.6342 30.5513C22.4355 31.0729 23.4553 31.371 24.6207 31.371C25.3492 31.371 26.0047 31.2965 26.5875 31.0729C27.1702 30.9239 27.6801 30.6259 28.1171 30.1788C28.4814 29.8807 28.7727 29.7317 29.1369 29.7317C29.5011 29.7317 29.7925 29.8062 30.0839 30.0297C30.4481 30.3278 30.6666 30.7004 30.6666 31.0729C30.7395 31.4455 30.5938 31.8181 30.3024 32.1162C28.9912 33.6065 27.0974 34.3516 24.8393 34.3516Z" fill="#071146"/>
<path d="M24.402 50C10.9263 50 0 38.7481 0 24.9627C0 11.1773 10.9263 0 24.402 0C37.8778 0 48.8769 11.1773 48.8769 24.9627C48.8769 25.7079 48.2942 26.3785 47.4929 26.3785C46.7645 26.3785 46.1089 25.7824 46.1089 24.9627C46.1089 12.7422 36.421 2.83159 24.402 2.83159C12.456 2.83159 2.76799 12.7422 2.76799 24.9627C2.76799 37.1833 12.5288 47.1684 24.4749 47.1684C29.5738 47.1684 34.4542 45.38 38.3148 42.0268C38.8976 41.5052 39.7717 41.5797 40.2816 42.1759C40.7915 42.772 40.7186 43.6662 40.1359 44.1878C35.6925 47.9136 30.1566 50 24.402 50Z" fill="#071146"/>
<path d="M38.8247 45.1565L37.2221 42.8465C38.4605 41.9523 40.5 40.0149 40.5 37.1088C40.5 33.6065 37.732 30.775 34.3085 30.775C32.8516 30.775 31.3948 31.2966 30.3022 32.2653L28.554 30.1043C30.1565 28.6885 32.2689 27.9434 34.3813 27.9434C39.3346 27.9434 43.3409 32.0417 43.3409 37.1088C43.3409 40.2384 41.7383 43.07 38.8247 45.1565Z" fill="#071146"/>
</g>
<defs>
<clipPath id="clip0">
<rect width="53.1746" height="50" fill="white"/>
</clipPath>
</defs>
</svg>
