<svg width="55" height="50" viewBox="0 0 55 50" fill="none" xmlns="http://www.w3.org/2000/svg">
<g clip-path="url(#clip0)">
<path d="M30.9067 49.8509C44.0816 49.8509 54.7619 39.2419 54.7619 26.155C54.7619 13.068 44.0816 2.45898 30.9067 2.45898C17.7318 2.45898 7.05151 13.068 7.05151 26.155C7.05151 39.2419 17.7318 49.8509 30.9067 49.8509Z" fill="#95E196"/>
<path d="M25.8805 34.3516C24.0801 34.3516 22.4297 33.9791 21.0794 33.2339C19.6541 32.4887 18.6039 31.371 17.7787 30.0297C16.9535 28.6884 16.5034 27.1236 16.5034 25.3352C16.5034 23.5469 16.8785 21.982 17.6287 20.6408C18.3788 19.2995 19.4291 18.2563 20.7793 17.4366C22.1296 16.6914 23.63 16.3188 25.3553 16.3188C27.0807 16.3188 28.506 16.6914 29.7063 17.4366C30.9065 18.1817 31.8818 19.225 32.4819 20.4917C33.157 21.833 33.4571 23.3233 33.4571 25.0372C33.4571 25.4843 33.3071 25.7823 33.007 26.0804C32.7069 26.3785 32.3319 26.453 31.9568 26.453H18.8289V23.8449H31.9568L30.6065 24.7391C30.6065 23.6214 30.3814 22.6527 29.9313 21.833C29.4812 21.0133 28.9561 20.2682 28.1309 19.8211C27.3808 19.2995 26.4056 19.0759 25.3553 19.0759C24.0801 19.0759 23.0298 19.374 22.1296 19.8956C21.2294 20.4172 20.5543 21.1624 20.1042 22.1311C19.7291 23.0998 19.5041 24.143 19.5041 25.3352C19.5041 26.5275 19.8041 27.5707 20.3292 28.5394C20.8544 29.5081 21.6045 30.1788 22.5797 30.7749C23.5549 31.2965 24.6052 31.5946 25.8805 31.5946C26.5556 31.5946 27.2307 31.4455 27.9809 31.222C28.6561 30.9984 29.2562 30.7004 29.7063 30.3278C30.0063 30.1042 30.3814 29.9552 30.7565 29.9552C31.1316 29.9552 31.5067 30.0297 31.7317 30.3278C32.1068 30.6259 32.3319 30.9984 32.3319 31.371C32.3319 31.7436 32.1818 32.1162 31.8067 32.4142C31.0566 33.0104 30.1564 33.4574 29.0311 33.83C27.9059 34.1281 26.8557 34.3516 25.8805 34.3516Z" fill="white"/>
<path d="M25.1305 50C11.2524 50 0 38.7481 0 24.9627C0 11.1773 11.2524 0 25.1305 0C39.0085 0 50.3359 11.1773 50.3359 24.9627C50.3359 25.7079 49.7358 26.3785 48.9106 26.3785C48.1605 26.3785 47.4853 25.7824 47.4853 24.9627C47.4853 12.7422 37.5082 2.83159 25.1305 2.83159C12.8278 2.83159 2.85062 12.7422 2.85062 24.9627C2.85062 37.1833 12.9028 47.1684 25.2055 47.1684C30.4566 47.1684 35.4827 45.38 39.4586 42.0268C40.0587 41.5052 40.9589 41.5797 41.484 42.1759C42.0091 42.772 41.9341 43.6662 41.334 44.1878C36.758 47.9136 31.0568 50 25.1305 50Z" fill="white"/>
<path d="M40.0584 45.1565L38.408 42.8465C39.6833 41.9523 41.7087 40.0894 41.7087 37.2578C41.7087 33.8301 38.9331 31.073 35.4824 31.073C33.982 31.073 32.5567 31.5947 31.4315 32.5634L29.6311 30.4024C31.2815 28.9866 33.3819 28.2415 35.4824 28.2415C40.5085 28.2415 44.5593 32.2653 44.5593 37.2578C44.5593 40.313 42.984 43.0701 40.0584 45.1565Z" fill="white"/>
</g>
<defs>
<clipPath id="clip0">
<rect width="54.7619" height="50" fill="white"/>
</clipPath>
</defs>
</svg>
