<svg width="56" height="50" viewBox="0 0 56 50" fill="none" xmlns="http://www.w3.org/2000/svg">
<path d="M31.7856 49.8509C45.0141 49.8509 55.7378 39.2419 55.7378 26.155C55.7378 13.068 45.0141 2.45898 31.7856 2.45898C18.5572 2.45898 7.8335 13.068 7.8335 26.155C7.8335 39.2419 18.5572 49.8509 31.7856 49.8509Z" fill="#B6E2D8"/>
<path d="M25.2326 50C11.2982 50 0 38.7481 0 24.9627C0 21.8331 0.60257 18.7779 1.73239 15.8718C2.03367 15.1267 2.86221 14.8286 3.5401 15.0522C4.29331 15.3502 4.66992 16.1699 4.36863 16.8405C3.38946 19.3741 2.86221 22.1311 2.86221 24.8882C2.86221 37.1088 12.9552 47.0939 25.3079 47.0939C37.6606 47.0939 47.6783 37.2578 47.6783 24.9627C47.6783 12.6677 37.6606 2.83159 25.2326 2.83159C22.0691 2.83159 18.9809 3.50224 16.1187 4.769C15.3655 5.06706 14.537 4.769 14.2357 4.02385C13.9344 3.27869 14.2357 2.45902 14.9889 2.16095C18.2277 0.745157 21.6925 0 25.2326 0C39.167 0 50.5405 11.1773 50.5405 24.9627C50.5405 38.7481 39.167 50 25.2326 50Z" fill="#071146"/>
<path d="M14.9889 34.2774C14.5369 34.2774 14.085 34.1283 13.7837 33.8303C13.4824 33.5322 13.3318 33.0851 13.3318 32.638V18.1075C13.3318 17.5859 13.4824 17.2133 13.7837 16.9152C14.085 16.6172 14.5369 16.4681 14.9889 16.4681C15.5161 16.4681 15.8927 16.6172 16.194 16.9152C16.4953 17.2133 16.6459 17.5859 16.6459 18.1075V32.5635C16.6459 33.0106 16.4953 33.4577 16.194 33.7558C15.8927 34.1283 15.5161 34.2774 14.9889 34.2774ZM25.9858 34.2774C25.5338 34.2774 25.0819 34.1283 24.7806 33.8303C24.4793 33.5322 24.3287 33.0851 24.3287 32.638V23.3236C24.3287 21.9823 23.9521 20.9391 23.2742 20.2684C22.5963 19.5978 21.6924 19.2997 20.6379 19.2997C19.5081 19.2997 18.529 19.6723 17.7757 20.492C17.0225 21.2371 16.6459 22.2803 16.6459 23.4726H14.6122C14.6122 22.0568 14.9135 20.79 15.4408 19.7468C16.0434 18.7036 16.7966 17.8094 17.7757 17.2133C18.7549 16.6172 19.9601 16.3191 21.2405 16.3191C22.521 16.3191 23.5755 16.6172 24.5546 17.1388C25.5338 17.6604 26.287 18.48 26.8143 19.5233C27.3415 20.5665 27.6428 21.8333 27.6428 23.3236V32.638C27.6428 33.0851 27.4922 33.5322 27.1909 33.8303C26.8896 34.1283 26.4377 34.2774 25.9858 34.2774ZM36.9073 34.2774C36.4554 34.2774 36.0035 34.1283 35.7022 33.8303C35.4009 33.5322 35.2503 33.0851 35.2503 32.638V23.3236C35.2503 21.9823 34.8737 20.9391 34.1958 20.2684C33.5179 19.5978 32.614 19.2997 31.5595 19.2997C30.4297 19.2997 29.4505 19.6723 28.7726 20.492C28.0194 21.2371 27.6428 22.2803 27.6428 23.4726H24.9313C24.9313 22.0568 25.2325 20.79 25.8351 19.7468C26.4377 18.7036 27.3415 17.8094 28.396 17.2133C29.5259 16.6172 30.731 16.3191 32.1621 16.3191C33.4426 16.3191 34.4971 16.6172 35.4762 17.1388C36.4554 17.6604 37.2086 18.48 37.7359 19.5233C38.2631 20.5665 38.5644 21.8333 38.5644 23.3236V32.638C38.5644 33.0851 38.4138 33.5322 38.1125 33.8303C37.8112 34.1283 37.4346 34.2774 36.9073 34.2774Z" fill="#071146"/>
<path d="M15.0642 19.8957C14.2357 19.8957 13.4072 19.2996 13.3319 18.4799C13.0306 16.0209 10.8463 14.2325 8.36066 14.5306C6.47763 14.7541 4.89588 15.7228 4.29331 17.2877C3.99203 18.1073 3.31414 18.629 2.4856 18.3309C1.65707 18.0328 1.28046 17.1386 1.65707 16.319C2.71157 13.6364 5.12185 11.699 7.98405 11.3264C10.093 11.1029 12.1267 11.6245 13.7838 12.9658C15.4409 14.2325 16.4954 16.0954 16.7213 18.1819C16.7966 19.076 16.1941 19.8957 15.2902 19.9702C15.1396 19.8957 15.0642 19.8957 15.0642 19.8957Z" fill="#071146"/>
</svg>
