<svg width="57" height="50" viewBox="0 0 57 50" fill="none" xmlns="http://www.w3.org/2000/svg">
<g clip-path="url(#clip0)">
<path d="M31.6148 49.629C45.0915 49.629 56.0164 39.0672 56.0164 26.0385C56.0164 13.0098 45.0915 2.448 31.6148 2.448C18.1381 2.448 7.21313 13.0098 7.21313 26.0385C7.21313 39.0672 18.1381 49.629 31.6148 49.629Z" fill="#FCAA90"/>
<path d="M25.4761 34.1989C23.788 34.1989 22.33 33.8279 21.0255 33.0861C19.721 32.3443 18.7235 31.2315 17.9561 29.8962C17.1888 28.5609 16.8818 27.003 16.8818 25.2226C16.8818 23.4422 17.2655 21.8843 18.0329 20.549C18.8002 19.2137 19.9512 18.1751 21.3325 17.3591C22.7137 16.6173 24.3251 16.2463 26.09 16.2463C27.8549 16.2463 29.4663 16.6173 30.8476 17.3591C32.2288 18.1009 33.3031 19.2137 34.1472 20.549C34.9145 21.8843 35.3749 23.4422 35.3749 25.2226H33.3798C33.3798 27.003 33.0729 28.4867 32.3823 29.8962C31.6916 31.2315 30.7708 32.2701 29.6198 33.0861C28.392 33.8279 27.0108 34.1989 25.4761 34.1989ZM26.09 41.3947C24.4786 41.3947 23.0206 41.098 21.6394 40.5045C20.2582 39.911 19.1071 39.0208 18.1096 37.8339C17.8027 37.463 17.7259 37.092 17.8027 36.7211C17.8794 36.3502 18.1096 36.0535 18.4933 35.7567C18.8769 35.5342 19.3373 35.3858 19.721 35.5342C20.1814 35.6084 20.4884 35.8309 20.7953 36.2018C21.4092 36.9437 22.1765 37.5371 23.0974 37.9081C24.0182 38.3532 25.0157 38.5015 26.2435 38.5015C27.3178 38.5015 28.3153 38.279 29.2361 37.7597C30.1569 37.2404 30.8476 36.4986 31.3847 35.5342C31.9219 34.5698 32.1521 33.3828 32.1521 31.9733V27.3739L33.2263 24.5549L35.3749 25.2226V32.1959C35.3749 33.9021 34.9912 35.46 34.2239 36.8695C33.4565 38.279 32.3823 39.3917 30.9243 40.2078C29.5431 41.0238 27.9316 41.3947 26.09 41.3947ZM26.1667 31.3057C27.3178 31.3057 28.392 31.0831 29.2361 30.5638C30.1569 30.0446 30.8476 29.3027 31.308 28.4125C31.8451 27.5223 32.0753 26.4837 32.0753 25.2968C32.0753 24.1098 31.8451 23.0713 31.308 22.1069C30.7708 21.2167 30.0802 20.4748 29.2361 19.9555C28.3153 19.4362 27.3178 19.2137 26.1667 19.2137C25.0157 19.2137 23.9414 19.5104 23.0974 19.9555C22.1765 20.4748 21.4859 21.2167 21.0255 22.1069C20.4884 22.9971 20.2582 24.1098 20.2582 25.2968C20.2582 26.4837 20.4884 27.5223 21.0255 28.4125C21.5627 29.3027 22.2533 30.0446 23.0974 30.5638C23.9414 31.009 25.0157 31.3057 26.1667 31.3057Z" fill="white"/>
<path d="M25.8596 50C11.587 50 0 38.7982 0 25C0 11.2018 11.587 0 25.8596 0C29.4662 0 32.9192 0.667656 36.2188 2.07715C36.9862 2.37389 37.2931 3.18991 36.9862 3.93175C36.6792 4.67359 35.8351 4.97033 35.0678 4.67359C32.1519 3.48665 29.0825 2.81899 25.8596 2.81899C13.1984 2.81899 2.91592 12.7596 2.91592 25C2.91592 37.2404 13.1984 47.181 25.8596 47.181C38.5209 47.181 48.8033 37.2404 48.8033 25C48.8033 23.5163 48.6499 21.9585 48.3429 20.549C48.1894 19.8071 48.6499 19.0653 49.4939 18.9169C50.2613 18.7685 51.0286 19.2878 51.1821 20.0297C51.5658 21.6617 51.7192 23.368 51.7192 25.0742C51.7192 38.7982 40.0556 50 25.8596 50Z" fill="white"/>
<path d="M35.298 21.3649L32.3821 21.2907C32.3821 20.3263 32.5355 19.4361 32.9192 18.5459L35.6817 19.4361C35.4515 20.1038 35.3747 20.7714 35.298 21.3649Z" fill="white"/>
<path d="M48.3429 20.549C48.0359 18.9169 47.1151 17.4332 45.7339 16.3947C44.3527 15.4303 42.5878 14.9852 40.8996 15.2819C38.5208 15.6528 36.5257 17.2849 35.7584 19.5104L32.9192 18.546C34.0702 15.3561 36.9094 13.0564 40.3625 12.4629C45.5037 11.6469 50.338 15.0593 51.1821 20.0297L48.3429 20.549Z" fill="white"/>
<path d="M35.3747 20.9199H32.4587V28.19H35.3747V20.9199Z" fill="white"/>
</g>
<defs>
<clipPath id="clip0">
<rect width="56.0164" height="50" fill="white"/>
</clipPath>
</defs>
</svg>
