<svg width="55" height="50" viewBox="0 0 55 50" fill="none" xmlns="http://www.w3.org/2000/svg">
<path d="M31.0412 49.7028C44.2733 49.7028 55.0001 39.1252 55.0001 26.0772C55.0001 13.0292 44.2733 2.45166 31.0412 2.45166C17.809 2.45166 7.08228 13.0292 7.08228 26.0772C7.08228 39.1252 17.809 49.7028 31.0412 49.7028Z" fill="#B1DEF5"/>
<path d="M21.2465 22.4368C20.7944 22.4368 20.4177 22.2882 20.1164 22.0653C19.815 21.7681 19.6643 21.471 19.6643 21.0995C19.6643 20.6537 19.815 20.3565 20.1164 20.0594C20.4177 19.7622 20.7944 19.6879 21.2465 19.6879H29.3835C29.8355 19.6879 30.2123 19.8365 30.5136 20.0594C30.815 20.2822 30.9657 20.6537 30.9657 21.0995C30.9657 21.471 30.815 21.8424 30.5136 22.0653C30.2123 22.2882 29.8355 22.4368 29.3835 22.4368H21.2465ZM24.3355 36.7013C23.8835 36.7013 23.5821 36.5527 23.2054 36.2555C22.904 35.9583 22.678 35.5868 22.678 35.0668V19.0935C22.678 17.5334 22.9794 16.1961 23.5821 15.0074C24.1849 13.8929 25.089 13.0014 26.2191 12.3328C27.3492 11.6641 28.6301 11.3669 30.0616 11.3669C30.5136 11.3669 30.9657 11.5155 31.267 11.8127C31.5684 12.1099 31.7191 12.4814 31.7191 12.8528C31.7191 13.2986 31.5684 13.5958 31.267 13.8929C30.9657 14.1901 30.5136 14.3387 30.0616 14.3387C29.2328 14.3387 28.5547 14.4873 27.952 14.8588C27.3492 15.2302 26.8972 15.7503 26.5205 16.4189C26.1438 17.0876 25.9931 17.8305 25.9931 18.7221V35.0668C25.9931 35.5868 25.8424 35.9583 25.541 36.2555C25.315 36.5527 24.8629 36.7013 24.3355 36.7013Z" fill="#071146"/>
<path d="M24.3356 50C10.6986 49.4799 0 38.4844 0 25.0371C0 11.2184 11.3767 0 25.3904 0C39.4041 0 50.7808 11.2184 50.7808 25.0371C50.7808 34.1753 45.7329 42.6449 37.5205 47.0282C36.8425 47.3997 35.9384 47.1768 35.5616 46.4339C35.1849 45.7652 35.411 44.8737 36.1644 44.5022C43.3973 40.5646 47.9178 33.1352 47.9178 24.9629C47.9178 12.7043 37.8219 2.74889 25.3904 2.74889C12.9589 2.82318 2.86301 12.7786 2.86301 25.0371C2.86301 36.9985 12.3562 46.7311 24.411 47.2511C25.1644 47.2511 25.8425 47.9198 25.7671 48.737C25.7671 49.4056 25.089 50 24.3356 50Z" fill="#071146"/>
<path d="M24.3358 50C23.4316 50 22.6782 49.257 22.6782 48.3655V35.0668C22.6782 34.1753 23.4316 33.4324 24.3358 33.4324C25.2399 33.4324 25.9933 34.1753 25.9933 35.0668V48.2912C26.0686 49.257 25.3152 50 24.3358 50Z" fill="#071146"/>
</svg>
