<svg width="92" height="95" viewBox="0 0 92 95" fill="none" xmlns="http://www.w3.org/2000/svg">
<g clip-path="url(#clip0)">
<path d="M81.4 72.9H10.7C5.4 72.9 1 68.5 1 63.2V10.7C1 5.4 5.4 1 10.7 1H81.4C86.7 1 91.1 5.4 91.1 10.7V63.3C91 68.6 86.7 72.9 81.4 72.9Z" stroke="#071146" stroke-width="2" stroke-miterlimit="10" stroke-linecap="round" stroke-linejoin="round"/>
<path d="M25.8999 93.9H66.9999" stroke="#071146" stroke-width="2" stroke-miterlimit="10" stroke-linecap="round" stroke-linejoin="round"/>
<path d="M1 13.5H91" stroke="#071146" stroke-width="2" stroke-miterlimit="10" stroke-linecap="round" stroke-linejoin="round"/>
<path d="M12.7999 9.50001C13.8492 9.50001 14.6999 8.64935 14.6999 7.60001C14.6999 6.55067 13.8492 5.70001 12.7999 5.70001C11.7506 5.70001 10.8999 6.55067 10.8999 7.60001C10.8999 8.64935 11.7506 9.50001 12.7999 9.50001Z" stroke="#071146" stroke-width="2" stroke-miterlimit="10" stroke-linecap="round" stroke-linejoin="round"/>
<path d="M22.2001 9.50001C23.2494 9.50001 24.1 8.64935 24.1 7.60001C24.1 6.55067 23.2494 5.70001 22.2001 5.70001C21.1507 5.70001 20.3 6.55067 20.3 7.60001C20.3 8.64935 21.1507 9.50001 22.2001 9.50001Z" stroke="#071146" stroke-width="2" stroke-miterlimit="10" stroke-linecap="round" stroke-linejoin="round"/>
<path d="M31.6 9.50001C32.6493 9.50001 33.5 8.64935 33.5 7.60001C33.5 6.55067 32.6493 5.70001 31.6 5.70001C30.5506 5.70001 29.7 6.55067 29.7 7.60001C29.7 8.64935 30.5506 9.50001 31.6 9.50001Z" stroke="#071146" stroke-width="2" stroke-miterlimit="10" stroke-linecap="round" stroke-linejoin="round"/>
<path d="M35 58.6C44.2783 58.6 51.7999 51.0784 51.7999 41.8C51.7999 32.5216 44.2783 25 35 25C25.7216 25 18.2 32.5216 18.2 41.8C18.2 51.0784 25.7216 58.6 35 58.6Z" stroke="#071146" stroke-width="2" stroke-miterlimit="10" stroke-linecap="round" stroke-linejoin="round"/>
<path d="M48.8 32.1C51.2 30.7 54 30 57 30C66.3 30 73.8001 37.5 73.8001 46.8C73.8001 56.1 66.3 63.5 57 63.5C51.3 63.5 46.3 60.7 43.3 56.4" stroke="#071146" stroke-width="2" stroke-miterlimit="10" stroke-linecap="round" stroke-linejoin="round"/>
<path d="M27 47.8C28.2151 47.8 29.2001 46.815 29.2001 45.6C29.2001 44.385 28.2151 43.4 27 43.4C25.785 43.4 24.8 44.385 24.8 45.6C24.8 46.815 25.785 47.8 27 47.8Z" stroke="#071146" stroke-width="2" stroke-miterlimit="10" stroke-linecap="round" stroke-linejoin="round"/>
<path d="M78.6 32.3C79.4837 32.3 80.2 31.5836 80.2 30.7C80.2 29.8163 79.4837 29.1 78.6 29.1C77.7163 29.1 77 29.8163 77 30.7C77 31.5836 77.7163 32.3 78.6 32.3Z" stroke="#071146" stroke-width="2" stroke-miterlimit="10" stroke-linecap="round" stroke-linejoin="round"/>
<path d="M40.7999 66.7C41.6836 66.7 42.4 65.9837 42.4 65.1C42.4 64.2163 41.6836 63.5 40.7999 63.5C39.9163 63.5 39.2 64.2163 39.2 65.1C39.2 65.9837 39.9163 66.7 40.7999 66.7Z" stroke="#071146" stroke-width="2" stroke-miterlimit="10" stroke-linecap="round" stroke-linejoin="round"/>
<path d="M12.8 28.2C13.6836 28.2 14.4 27.4837 14.4 26.6C14.4 25.7163 13.6836 25 12.8 25C11.9163 25 11.2 25.7163 11.2 26.6C11.2 27.4837 11.9163 28.2 12.8 28.2Z" stroke="#071146" stroke-width="2" stroke-miterlimit="10" stroke-linecap="round" stroke-linejoin="round"/>
<path d="M58.9 57.5C60.115 57.5 61.0999 56.515 61.0999 55.3C61.0999 54.0849 60.115 53.1 58.9 53.1C57.6849 53.1 56.7 54.0849 56.7 55.3C56.7 56.515 57.6849 57.5 58.9 57.5Z" stroke="#071146" stroke-width="2" stroke-miterlimit="10" stroke-linecap="round" stroke-linejoin="round"/>
<path d="M65.4 49C66.615 49 67.5999 48.015 67.5999 46.8C67.5999 45.5849 66.615 44.6 65.4 44.6C64.1849 44.6 63.2 45.5849 63.2 46.8C63.2 48.015 64.1849 49 65.4 49Z" stroke="#071146" stroke-width="2" stroke-miterlimit="10" stroke-linecap="round" stroke-linejoin="round"/>
<path d="M58.9 40.7C60.115 40.7 61.0999 39.715 61.0999 38.5C61.0999 37.285 60.115 36.3 58.9 36.3C57.6849 36.3 56.7 37.285 56.7 38.5C56.7 39.715 57.6849 40.7 58.9 40.7Z" stroke="#071146" stroke-width="2" stroke-miterlimit="10" stroke-linecap="round" stroke-linejoin="round"/>
<path d="M38.5999 36.3C39.8149 36.3 40.7999 35.315 40.7999 34.1C40.7999 32.885 39.8149 31.9 38.5999 31.9C37.3849 31.9 36.3999 32.885 36.3999 34.1C36.3999 35.315 37.3849 36.3 38.5999 36.3Z" stroke="#071146" stroke-width="2" stroke-miterlimit="10" stroke-linecap="round" stroke-linejoin="round"/>
<path d="M41.0999 47.9C42.3149 47.9 43.2999 46.915 43.2999 45.7C43.2999 44.485 42.3149 43.5 41.0999 43.5C39.8849 43.5 38.8999 44.485 38.8999 45.7C38.8999 46.915 39.8849 47.9 41.0999 47.9Z" stroke="#071146" stroke-width="2" stroke-miterlimit="10" stroke-linecap="round" stroke-linejoin="round"/>
</g>
<defs>
<clipPath id="clip0">
<rect width="92" height="94.9" fill="white"/>
</clipPath>
</defs>
</svg>
