<svg width="126" height="119" viewBox="0 0 126 119" fill="none" xmlns="http://www.w3.org/2000/svg">
<g clip-path="url(#clip0)">
<path d="M91 56.7L95.8 61.5L123.8 33.5C124.5 32.8 124.5 31.8 123.8 31.1L121.4 28.7C120.7 28 119.7 28 119 28.7L91 56.7Z" stroke="#071146" stroke-width="2" stroke-miterlimit="10" stroke-linecap="round" stroke-linejoin="round"/>
<path d="M88.6002 61.4L91.2002 64C91.8002 64.6 92.8002 64.6 93.4002 64L95.9002 61.5L91.0002 56.7L88.5002 59.2C87.9002 59.8 87.9002 60.8 88.6002 61.4Z" stroke="#071146" stroke-width="2" stroke-miterlimit="10" stroke-linecap="round" stroke-linejoin="round"/>
<path d="M91.1 63.9L85 67.5L88.6 61.4" stroke="#071146" stroke-width="2" stroke-miterlimit="10" stroke-linecap="round" stroke-linejoin="round"/>
<path d="M78.1001 5.20001H86.4001" stroke="#071146" stroke-width="2" stroke-miterlimit="10" stroke-linecap="round" stroke-linejoin="round"/>
<path d="M82.3003 1V9.3" stroke="#071146" stroke-width="2" stroke-miterlimit="10" stroke-linecap="round" stroke-linejoin="round"/>
<path d="M40 22.1H48.4" stroke="#071146" stroke-width="2" stroke-miterlimit="10" stroke-linecap="round" stroke-linejoin="round"/>
<path d="M44.2002 18V26.3" stroke="#071146" stroke-width="2" stroke-miterlimit="10" stroke-linecap="round" stroke-linejoin="round"/>
<path d="M55 31.2H63.4" stroke="#071146" stroke-width="2" stroke-miterlimit="10" stroke-linecap="round" stroke-linejoin="round"/>
<path d="M59.2002 27V35.3" stroke="#071146" stroke-width="2" stroke-miterlimit="10" stroke-linecap="round" stroke-linejoin="round"/>
<path d="M30.6942 59.1425C29.9013 62.627 26.9651 64.5963 24.0515 63.4512C21.1379 62.3062 19.5136 58.7367 20.2068 55.2611C20.9996 51.7767 23.9359 49.8073 26.8495 50.9524C29.763 52.0975 31.487 55.6581 30.6942 59.1425Z" stroke="#071146" stroke-width="2" stroke-miterlimit="10" stroke-linecap="round" stroke-linejoin="round"/>
<path d="M102.3 45.4V28.5L51.9 48.6L1 28.5V87.6L51.7 108.8L102.3 88.7V55.4" stroke="#071146" stroke-width="2" stroke-miterlimit="10" stroke-linecap="round" stroke-linejoin="round"/>
<path d="M29.7002 108.8L51.7002 118L73.5002 109.3" stroke="#071146" stroke-width="2" stroke-miterlimit="10" stroke-linecap="round" stroke-linejoin="round"/>
<path d="M16.1001 67.3L33.9001 74.7" stroke="#071146" stroke-width="2" stroke-miterlimit="10" stroke-linecap="round" stroke-linejoin="round"/>
<path d="M84.1001 58.3L60.6001 67.7" stroke="#071146" stroke-width="2" stroke-miterlimit="10" stroke-linecap="round" stroke-linejoin="round"/>
<path d="M78.9001 69.3L60.6001 76.5" stroke="#071146" stroke-width="2" stroke-miterlimit="10" stroke-linecap="round" stroke-linejoin="round"/>
<path d="M93.4001 72.3L60.6001 85.4" stroke="#071146" stroke-width="2" stroke-miterlimit="10" stroke-linecap="round" stroke-linejoin="round"/>
<path d="M1 28.5L51.9 7.70001L102.3 28.5" stroke="#071146" stroke-width="2" stroke-miterlimit="10" stroke-linecap="round" stroke-linejoin="round"/>
<path d="M51.8999 48.6V108.8" stroke="#071146" stroke-width="2" stroke-miterlimit="10" stroke-linecap="round" stroke-linejoin="round"/>
<path d="M16.1001 67.3V72.3C16.1001 78.1 19.5001 83.4 24.8001 85.7C24.9001 85.7 24.9001 85.7 25.0001 85.8H25.1001C29.4001 87.5 34.0001 84.2 34.0001 79.6V74.8" stroke="#071146" stroke-width="2" stroke-miterlimit="10" stroke-linecap="round" stroke-linejoin="round"/>
</g>
<defs>
<clipPath id="clip0">
<rect width="125.3" height="119" fill="white"/>
</clipPath>
</defs>
</svg>
