<svg width="88" height="87" viewBox="0 0 88 87" fill="none" xmlns="http://www.w3.org/2000/svg">
<g clip-path="url(#clip0)">
<path d="M60.3165 58.7149C68.99 49.7394 68.7452 35.432 59.7696 26.7585C50.7941 18.085 36.4867 18.3299 27.8132 27.3054C19.1397 36.281 19.3846 50.5884 28.3602 59.2618C37.3357 67.9353 51.6431 67.6905 60.3165 58.7149Z" fill="#B6E2DF"/>
<path d="M43.9 52.2C43.5 52.2 43 52 42.7 51.7L33.6 42.2C32.9 41.5 33 40.4 33.7 39.7C34.4 39 35.5 39.1 36.2 39.8L43.9 47.9L54.6 34.7C55.2 33.9 56.3 33.8 57.1 34.4C57.9 35 58 36.1 57.4 36.9L45.4 51.5C45.1 51.9 44.6 52.1 44.1 52.2C44 52.2 43.9 52.2 43.9 52.2Z" fill="white"/>
<path d="M63 5C77 12 86.5 26.4 86.5 43C86.5 59.4 77.2 73.7 63.5 80.8" stroke="#071146" stroke-width="3" stroke-linecap="round" stroke-linejoin="round"/>
<path d="M65.7 64.9L68.6 65.8L64.3 80L78.8 83.1L78.1 86.1L60.5 82.2L65.7 64.9Z" fill="#071146"/>
<path d="M27.5 82.2C12.2 75.8 1.5 60.6 1.5 43C1.5 26.6 10.8 12.3 24.5 5.20001" stroke="#071146" stroke-width="3" stroke-linecap="round" stroke-linejoin="round"/>
<path d="M22.3 21.1L19.4 20.3L23.7 6.1L9.20001 2.9L9.90001 0L27.5 3.9L22.3 21.1Z" fill="#071146"/>
</g>
<defs>
<clipPath id="clip0">
<rect width="88" height="86.1" fill="white"/>
</clipPath>
</defs>
</svg>
