<svg width="31" height="31" viewBox="0 0 31 31" fill="none" xmlns="http://www.w3.org/2000/svg">
<path d="M15.5122 20.3964C15.2195 20.3964 14.9675 20.2941 14.7561 20.0895C14.561 19.8679 14.4634 19.6036 14.4634 19.2967V6.12532C14.4634 5.81841 14.561 5.55413 14.7561 5.33248C14.9675 5.11083 15.2195 5 15.5122 5C15.8049 5 16.0488 5.11083 16.2439 5.33248C16.4553 5.55413 16.561 5.81841 16.561 6.12532V19.2967C16.561 19.6036 16.4472 19.8679 16.2195 20.0895C16.0081 20.2941 15.7724 20.3964 15.5122 20.3964ZM15.5122 25C15.0894 25 14.7317 24.8465 14.439 24.5396C14.1463 24.2327 14 23.8576 14 23.4143C14 22.971 14.1463 22.5959 14.439 22.289C14.7317 21.9821 15.0894 21.8286 15.5122 21.8286C15.9187 21.8286 16.2683 21.9906 16.561 22.3146C16.8537 22.6215 17 22.9881 17 23.4143C17 23.8576 16.8537 24.2327 16.561 24.5396C16.2683 24.8465 15.9187 25 15.5122 25Z" fill="#FCAA90"/>
<circle cx="15.5" cy="15.5" r="14.5" stroke="#FCAA90" stroke-width="2"/>
</svg>
