<svg width="38" height="38" viewBox="0 0 38 38" fill="none" xmlns="http://www.w3.org/2000/svg">
<path d="M21.4542 36.3375C30.5922 36.3375 38 28.9297 38 19.7917C38 10.6537 30.5922 3.24585 21.4542 3.24585C12.3161 3.24585 4.90833 10.6537 4.90833 19.7917C4.90833 28.9297 12.3161 36.3375 21.4542 36.3375Z" fill="#FCAA90"/>
<path d="M17.2583 25.4917C16.15 25.4917 15.1208 25.2542 14.25 24.7C13.3791 24.1458 12.6666 23.4333 12.1916 22.4833C11.7166 21.5333 11.4791 20.425 11.4791 19.2375C11.4791 17.9708 11.7166 16.9417 12.2708 15.9917C12.825 15.0417 13.5375 14.3292 14.4875 13.775C15.4375 13.2208 16.5458 12.9833 17.7333 12.9833C18.9208 12.9833 20.0291 13.2208 20.9791 13.775C21.9291 14.3292 22.6416 15.0417 23.1958 15.9917C23.75 16.9417 23.9875 18.05 23.9875 19.2375H22.6416C22.6416 20.425 22.4041 21.5333 21.9291 22.4833C21.4541 23.4333 20.8208 24.1458 20.0291 24.7C19.2375 25.2542 18.2875 25.4917 17.2583 25.4917ZM17.6541 30.5583C16.5458 30.5583 15.5958 30.3208 14.6458 29.925C13.6958 29.5292 12.9041 28.8958 12.2708 28.025C12.1125 27.7875 12.0333 27.4708 12.0333 27.2333C12.1125 26.9958 12.2708 26.7583 12.5083 26.6C12.7458 26.4417 13.0625 26.3625 13.3791 26.4417C13.6958 26.5208 13.9333 26.6792 14.0916 26.9167C14.4875 27.4708 15.0416 27.8667 15.675 28.1042C16.3083 28.4208 17.0208 28.5 17.8125 28.5C18.525 28.5 19.2375 28.3417 19.7916 27.9458C20.425 27.6292 20.9 27.075 21.2166 26.3625C21.6125 25.65 21.7708 24.8583 21.7708 23.8292V20.5833L22.4833 18.6042L23.9875 19.0792V23.9875C23.9875 25.175 23.75 26.2833 23.1958 27.2333C22.6416 28.1833 21.9291 28.975 20.9791 29.5292C20.0291 30.2417 18.9208 30.5583 17.6541 30.5583ZM17.7333 23.4333C18.525 23.4333 19.2375 23.275 19.7916 22.8792C20.425 22.4833 20.9 22.0083 21.2166 21.375C21.5333 20.7417 21.6916 20.0292 21.6916 19.1583C21.6916 18.2875 21.5333 17.575 21.2166 16.9417C20.9 16.3083 20.425 15.8333 19.7916 15.4375C19.1583 15.0417 18.525 14.8833 17.7333 14.8833C16.9416 14.8833 16.2291 15.0417 15.675 15.4375C15.0416 15.8333 14.5666 16.3083 14.25 16.9417C13.9333 17.575 13.6958 18.2875 13.6958 19.1583C13.6958 20.0292 13.8541 20.7417 14.25 21.375C14.5666 22.0083 15.0416 22.4833 15.675 22.8792C16.2291 23.275 16.9416 23.4333 17.7333 23.4333Z" fill="#0052CC"/>
<path d="M17.4958 36.575C7.8375 36.575 0 28.6583 0 19C0 9.34165 7.8375 1.50415 17.4958 1.50415C19.95 1.50415 22.325 1.97915 24.5417 2.92915C25.0167 3.16665 25.2542 3.72082 25.0167 4.19582C24.8583 4.74998 24.225 4.98748 23.75 4.74998C21.7708 3.87915 19.7125 3.48332 17.4958 3.48332C8.94583 3.48332 1.97917 10.45 1.97917 19C1.97917 27.55 8.94583 34.5958 17.575 34.5958C26.125 34.5958 33.1708 27.6292 33.1708 19C33.1708 17.9708 33.0917 16.8625 32.8542 15.8333C32.775 15.2792 33.0917 14.8042 33.6458 14.6458C34.2 14.5667 34.675 14.8833 34.8333 15.4375C35.0708 16.625 35.15 17.8125 35.15 19C35.0708 28.6583 27.1542 36.575 17.4958 36.575Z" fill="#0052CC"/>
<path d="M23.9875 16.5458L22.0083 16.4667C22.0083 15.8333 22.1666 15.2 22.325 14.5667L24.1458 15.2C24.0666 15.5958 23.9875 16.0708 23.9875 16.5458Z" fill="#0052CC"/>
<path d="M32.775 15.9125C32.6167 14.725 31.9833 13.6958 31.0333 12.9833C30.0833 12.2708 28.8958 12.0333 27.7083 12.1917C26.0458 12.4292 24.7792 13.6167 24.225 15.1208L22.4042 14.4875C23.1958 12.2708 25.0958 10.6083 27.4708 10.2125C30.9542 9.65834 34.2 12.0333 34.7542 15.5167L32.775 15.9125Z" fill="#0052CC"/>
<path d="M23.9875 16.15H22.0083V21.2167H23.9875V16.15Z" fill="#0052CC"/>
</svg>
