<svg width="37" height="38" viewBox="0 0 37 38" fill="none" xmlns="http://www.w3.org/2000/svg">
<path d="M20.8896 36.3375C29.7871 36.3375 37 28.9297 37 19.7917C37 10.6536 29.7871 3.24582 20.8896 3.24582C11.9921 3.24582 4.77917 10.6536 4.77917 19.7917C4.77917 28.9297 11.9921 36.3375 20.8896 36.3375Z" fill="#95E196"/>
<path d="M17.4979 25.4916C16.2646 25.4916 15.1854 25.2541 14.2604 24.7C13.3354 24.1458 12.5646 23.4333 12.025 22.4833C11.4854 21.5333 11.2542 20.425 11.2542 19.2375C11.2542 17.9708 11.4854 16.9416 12.025 15.9916C12.5646 15.0416 13.2583 14.3291 14.1062 13.775C15.0312 13.2208 16.0333 12.9833 17.1896 12.9833C18.3458 12.9833 19.3479 13.2208 20.1187 13.775C20.9667 14.3291 21.5833 15.0416 22.0458 15.9125C22.5083 16.8625 22.6625 17.8916 22.6625 19.0791C22.6625 19.3958 22.5854 19.6333 22.3541 19.7916C22.2 19.95 21.8917 20.1083 21.6604 20.1083H12.7187V18.2083H21.5833L20.6583 18.8416C20.6583 18.05 20.5042 17.4166 20.1958 16.7833C19.8875 16.15 19.5021 15.675 19.0396 15.3583C18.5 15.0416 17.8833 14.8041 17.1896 14.8041C16.3416 14.8041 15.6479 14.9625 15.0312 15.3583C14.4146 15.7541 13.9521 16.2291 13.6437 16.9416C13.3354 17.575 13.1812 18.3666 13.1812 19.1583C13.1812 19.95 13.3354 20.7416 13.7208 21.375C14.1062 22.0083 14.5687 22.5625 15.2625 22.9583C15.8791 23.3541 16.65 23.5125 17.4979 23.5125C17.9604 23.5125 18.4229 23.4333 18.8854 23.275C19.3479 23.1166 19.7333 22.8791 20.0416 22.6416C20.2729 22.4833 20.5041 22.4041 20.7354 22.4041C20.9667 22.4041 21.1979 22.4833 21.4291 22.6416C21.6604 22.8791 21.8146 23.1166 21.8146 23.3541C21.8146 23.5916 21.7375 23.8291 21.4291 24.0666C20.8896 24.4625 20.2729 24.7791 19.5791 25.0958C18.8854 25.4125 18.1146 25.4916 17.4979 25.4916Z" fill="#0052CC"/>
<path d="M17.0354 36.4166C7.63125 36.4166 0 28.6583 0 19C0 9.34165 7.63125 1.58331 17.0354 1.58331C26.4396 1.58331 33.9937 9.42081 33.9937 19C33.9937 19.5541 33.5312 19.95 33.0687 19.95C32.5292 19.95 32.1437 19.475 32.1437 19C32.1437 10.45 25.3604 3.48331 17.0354 3.48331C8.71042 3.48331 1.92708 10.45 1.92708 19C1.92708 27.55 8.71042 34.5166 17.0354 34.5166C20.5812 34.5166 23.9729 33.25 26.6708 30.9541C27.0562 30.6375 27.6729 30.6375 27.9812 31.1125C28.2896 31.5083 28.2896 32.1416 27.8271 32.4583C24.8208 34.9916 20.9667 36.4166 17.0354 36.4166Z" fill="#0052CC"/>
<path d="M27.0562 33.0916L25.977 31.5083C26.825 30.875 28.2125 29.6083 28.2125 27.6291C28.2125 25.2541 26.2854 23.275 23.9729 23.275C22.9708 23.275 21.9687 23.6708 21.275 24.3041L20.0416 22.8C21.1208 21.85 22.5854 21.2958 23.9729 21.2958C27.3645 21.2958 30.0625 24.1458 30.0625 27.55C30.1395 29.6875 28.9833 31.6666 27.0562 33.0916Z" fill="#0052CC"/>
</svg>
