<svg width="21" height="21" viewBox="0 0 21 21" fill="none" xmlns="http://www.w3.org/2000/svg">
<path d="M10.3998 16.1063C10.1884 16.1063 10.0096 16.0413 9.86323 15.9112C9.73317 15.7649 9.66814 15.5861 9.66814 15.3747V11.1558H5.47356C5.2622 11.1558 5.08336 11.0907 4.93704 10.9607C4.80698 10.8143 4.74194 10.6355 4.74194 10.4241C4.74194 10.2128 4.80698 10.0421 4.93704 9.91201C5.08336 9.76569 5.2622 9.69252 5.47356 9.69252H9.66814V5.47356C9.66814 5.2622 9.73317 5.09149 9.86323 4.96143C10.0096 4.8151 10.1884 4.74194 10.3998 4.74194C10.6274 4.74194 10.8062 4.8151 10.9363 4.96143C11.0826 5.09149 11.1558 5.2622 11.1558 5.47356V9.69252H15.3503C15.5617 9.69252 15.7324 9.76569 15.8625 9.91201C16.0088 10.0421 16.0819 10.2128 16.0819 10.4241C16.0819 10.6355 16.0088 10.8143 15.8625 10.9607C15.7324 11.0907 15.5617 11.1558 15.3503 11.1558H11.1558V15.3747C11.1558 15.5861 11.0826 15.7649 10.9363 15.9112C10.8062 16.0413 10.6274 16.1063 10.3998 16.1063Z" fill="#B3C1F4"/>
<circle cx="10.5" cy="10.5" r="9.5" stroke="#B3C1F4" stroke-width="2"/>
</svg>
