<svg width="36" height="33" viewBox="0 0 36 33" fill="none" xmlns="http://www.w3.org/2000/svg">
<g clip-path="url(#clip0)">
<path d="M19.8073 32.9016C28.2507 32.9016 35.0954 25.8997 35.0954 17.2623C35.0954 8.62491 28.2507 1.62294 19.8073 1.62294C11.3639 1.62294 4.51923 8.62491 4.51923 17.2623C4.51923 25.8997 11.3639 32.9016 19.8073 32.9016Z" fill="#B3C1F4"/>
<path d="M16.3938 22.6722C15.2881 22.6722 14.2785 22.4263 13.4131 21.8853C12.5478 21.3443 11.8747 20.6558 11.3459 19.7705C10.8651 18.8853 10.5767 17.8525 10.5767 16.7213C10.5767 15.541 10.817 14.5082 11.2978 13.623C11.7786 12.7377 12.4516 12 13.317 11.5082C14.1823 11.0164 15.1438 10.7705 16.2496 10.7705C17.0669 10.7705 17.8361 10.918 18.5091 11.2623C19.1822 11.6066 19.8072 12.0492 20.336 12.6885C20.5283 12.9344 20.6245 13.1312 20.5283 13.3771C20.4802 13.623 20.336 13.8197 20.0476 14.0164C19.8553 14.164 19.6149 14.2131 19.3745 14.164C19.1341 14.1148 18.9418 13.9672 18.7014 13.7705C18.0284 13.0328 17.163 12.6394 16.1534 12.6394C15.4323 12.6394 14.8073 12.7869 14.2785 13.1312C13.7497 13.4754 13.317 13.9181 12.9804 14.5574C12.692 15.1476 12.4997 15.8853 12.4997 16.6722C12.4997 17.459 12.6439 18.1476 12.9804 18.7377C13.317 19.3279 13.7497 19.8197 14.2785 20.164C14.8073 20.5082 15.4804 20.7049 16.2496 20.7049C16.7303 20.7049 17.163 20.6558 17.5476 20.5082C17.9322 20.4099 18.2688 20.2131 18.5572 19.9181C18.7976 19.7213 18.9899 19.623 19.2303 19.623C19.4707 19.623 19.663 19.6722 19.8553 19.8197C20.0956 20.0164 20.2399 20.2623 20.2399 20.5082C20.2879 20.7541 20.1918 21 19.9995 21.1967C19.1341 22.1803 17.8842 22.6722 16.3938 22.6722Z" fill="#0052CC"/>
<path d="M16.1053 33C7.21135 33 0 25.5738 0 16.4754C0 7.37705 7.21135 0 16.1053 0C24.9993 0 32.2588 7.37705 32.2588 16.4754C32.2588 16.9672 31.8742 17.4098 31.3453 17.4098C30.8646 17.4098 30.4319 17.0164 30.4319 16.4754C30.4319 8.40984 24.0378 1.86885 16.1053 1.86885C8.22094 1.86885 1.82688 8.40984 1.82688 16.4754C1.82688 24.541 8.26901 31.1311 16.1534 31.1311C19.5187 31.1311 22.7398 29.9508 25.2878 27.7377C25.6724 27.3934 26.2493 27.4426 26.5858 27.8361C26.9224 28.2295 26.8743 28.8197 26.4897 29.1639C23.5571 31.623 19.9033 33 16.1053 33Z" fill="#0052CC"/>
<path d="M25.6244 29.8033L24.5667 28.2787C25.384 27.6885 26.7301 26.4098 26.7301 24.4918C26.7301 22.1803 24.9032 20.3115 22.6437 20.3115C21.6822 20.3115 20.7207 20.6557 19.9995 21.2951L18.8457 19.8688C19.9034 18.9344 21.2976 18.4426 22.6918 18.4426C25.9609 18.4426 28.6051 21.1475 28.6051 24.4918C28.6051 26.5574 27.5474 28.4262 25.6244 29.8033Z" fill="#0052CC"/>
</g>
<defs>
<clipPath id="clip0">
<rect width="35.0952" height="33" fill="white"/>
</clipPath>
</defs>
</svg>
