<svg width="38" height="37" viewBox="0 0 38 37" fill="none" xmlns="http://www.w3.org/2000/svg">
<path d="M21.4542 35.15C30.5922 35.15 38 27.9371 38 19.0396C38 10.142 30.5922 2.92917 21.4542 2.92917C12.3161 2.92917 4.90833 10.142 4.90833 19.0396C4.90833 27.9371 12.3161 35.15 21.4542 35.15Z" fill="#FEDB8F"/>
<path d="M28.2625 24.8209C26.6792 24.8209 25.0167 24.2813 23.75 23.125C22.4834 21.9688 21.6917 20.35 21.6125 18.5771L23.5917 18.5C23.6709 19.7334 24.225 20.8896 25.0959 21.7375C26.9959 23.4334 29.925 23.3563 31.6667 21.5063C32.3792 20.7354 32.8542 19.5021 32.9334 18.2688L34.9125 18.3459C34.8334 20.0417 34.2 21.7375 33.0917 22.8167C31.825 24.1271 30.0834 24.8209 28.2625 24.8209Z" fill="#0052CC"/>
<path d="M17.3375 24.5896C16.15 24.5896 15.1208 24.3583 14.1708 23.8188C13.2208 23.2792 12.5083 22.5854 11.9541 21.5833C11.4 20.6583 11.1625 19.5792 11.1625 18.4229C11.1625 17.2667 11.4 16.1875 11.9541 15.2625C12.4291 14.3375 13.1416 13.6438 14.0125 13.1042C14.8833 12.5646 15.9125 12.3333 17.0208 12.3333C17.8916 12.3333 18.7625 12.4875 19.475 12.8729C20.1875 13.2584 20.9 13.7208 21.375 14.3375V8.4021C21.375 8.09377 21.4541 7.78543 21.6916 7.55418C21.9291 7.32293 22.1666 7.24585 22.4833 7.24585C22.8 7.24585 23.1166 7.32293 23.3541 7.55418C23.5916 7.78543 23.6708 8.01668 23.6708 8.4021V18.5C23.6708 19.6563 23.4333 20.7354 22.8791 21.6604C22.325 22.5854 21.6125 23.3563 20.6625 23.8958C19.6333 24.3583 18.525 24.5896 17.3375 24.5896ZM17.3375 22.5854C18.1291 22.5854 18.7625 22.4313 19.3958 22.0458C20.0291 21.6604 20.5041 21.1979 20.8208 20.5813C21.1375 19.9646 21.375 19.2708 21.375 18.4229C21.375 17.6521 21.2166 16.8813 20.8208 16.2646C20.5041 15.6479 20.0291 15.1854 19.3958 14.8C18.7625 14.4146 18.1291 14.2604 17.3375 14.2604C16.5458 14.2604 15.9125 14.4146 15.2791 14.8C14.6458 15.1854 14.1708 15.6479 13.8541 16.2646C13.5375 16.8813 13.3 17.575 13.3 18.4229C13.3 19.1938 13.4583 19.8875 13.8541 20.5813C14.1708 21.1979 14.725 21.7375 15.2791 22.0458C15.9125 22.4313 16.625 22.5854 17.3375 22.5854Z" fill="#0052CC"/>
<path d="M17.4958 35.2271C7.8375 35.2271 0 27.5958 0 18.2688C0 8.86459 7.8375 1.31042 17.4958 1.31042C27.1542 1.31042 34.9125 8.94167 34.9125 18.2688C34.9125 18.8083 34.4375 19.1938 33.9625 19.1938C33.4083 19.1938 33.0125 18.7313 33.0125 18.2688C33.0125 9.94376 26.0458 3.16042 17.4958 3.16042C8.94583 3.16042 1.97917 9.94376 1.97917 18.2688C1.97917 26.5938 8.94583 33.3771 17.4958 33.3771C21.1375 33.3771 24.6208 32.1438 27.3917 29.9083C27.7875 29.6 28.4208 29.6 28.7375 30.0625C29.0542 30.4479 29.0542 31.0646 28.5792 31.3729C25.4917 33.8396 21.5333 35.2271 17.4958 35.2271Z" fill="#0052CC"/>
</svg>
