<svg width="37" height="38" viewBox="0 0 37 38" fill="none" xmlns="http://www.w3.org/2000/svg">
<path d="M21.1208 36.1792C29.8906 36.1792 37 28.8777 37 19.8708C37 10.864 29.8906 3.5625 21.1208 3.5625C12.351 3.5625 5.24164 10.864 5.24164 19.8708C5.24164 28.8777 12.351 36.1792 21.1208 36.1792Z" fill="#B6E2DF"/>
<path d="M16.8042 36.2583C7.55417 36.2583 0 28.5 0 19C0 16.8625 0.385417 14.725 1.15625 12.7458C1.31042 12.2708 1.92708 12.0333 2.38958 12.1916C2.85208 12.35 3.08333 12.9833 2.92917 13.4583C2.23542 15.2 1.92708 17.1 1.92708 19C1.92708 27.3916 8.63333 34.2791 16.8042 34.2791C24.975 34.2791 31.6812 27.4708 31.6812 19C31.6812 10.5291 24.975 3.7208 16.8042 3.7208C14.7229 3.7208 12.6417 4.1958 10.7917 5.06663C10.3292 5.30413 9.78958 5.06663 9.55833 4.59163C9.32708 4.11663 9.55833 3.56247 10.0208 3.32497C12.1792 2.37497 14.4917 1.8208 16.8042 1.8208C26.0542 1.8208 33.6083 9.57913 33.6083 19.0791C33.5312 28.5 26.0542 36.2583 16.8042 36.2583Z" fill="#0052CC"/>
<path d="M9.94373 25.4125C9.6354 25.4125 9.32706 25.3333 9.1729 25.0958C8.94165 24.8583 8.86456 24.6208 8.86456 24.3042V14.3292C8.86456 14.0125 8.94165 13.6958 9.1729 13.5375C9.40415 13.3 9.6354 13.2208 9.94373 13.2208C10.2521 13.2208 10.5604 13.3 10.7146 13.5375C10.9458 13.775 11.0229 14.0125 11.0229 14.3292V24.3042C11.0229 24.6208 10.9458 24.9375 10.7146 25.0958C10.5604 25.3333 10.2521 25.4125 9.94373 25.4125ZM17.2666 25.4125C16.9583 25.4125 16.65 25.3333 16.4958 25.0958C16.2646 24.8583 16.1875 24.6208 16.1875 24.3042V17.8917C16.1875 16.9417 15.9562 16.2292 15.4937 15.8333C15.0312 15.4375 14.4146 15.0417 13.6437 15.0417C12.8729 15.0417 12.2562 15.2792 11.7937 15.8333C11.3312 16.3875 11.0229 17.0208 11.0229 17.8917H9.6354C9.6354 16.9417 9.78956 16.0708 10.175 15.3583C10.5604 14.6458 11.1 14.0125 11.7166 13.6167C12.4104 13.2208 13.1812 12.9833 14.0291 12.9833C14.8771 12.9833 15.5708 13.1417 16.2646 13.5375C16.8812 13.9333 17.4208 14.4875 17.7291 15.2C18.1146 15.9125 18.2687 16.7833 18.2687 17.8125V24.225C18.2687 24.5417 18.1916 24.8583 17.9604 25.0167C17.8062 25.3333 17.575 25.4125 17.2666 25.4125ZM24.5125 25.4125C24.2041 25.4125 23.8958 25.3333 23.7416 25.0958C23.5104 24.8583 23.4333 24.6208 23.4333 24.3042V17.8917C23.4333 16.9417 23.2021 16.2292 22.7396 15.8333C22.2771 15.4375 21.6604 15.0417 20.9666 15.0417C20.1958 15.0417 19.5791 15.2792 19.1166 15.8333C18.6541 16.3875 18.4229 17.0208 18.4229 17.8917H16.65C16.65 16.9417 16.8812 16.0708 17.2666 15.3583C17.6521 14.6458 18.2687 14.0125 18.9625 13.6167C19.7333 13.2208 20.5041 12.9833 21.5062 12.9833C22.3541 12.9833 23.0479 13.1417 23.7416 13.5375C24.3583 13.9333 24.8979 14.4875 25.2062 15.2C25.5916 15.9125 25.7458 16.7833 25.7458 17.8125V24.225C25.7458 24.5417 25.6687 24.8583 25.4375 25.0167C25.1291 25.3333 24.8208 25.4125 24.5125 25.4125Z" fill="#0052CC"/>
<path d="M9.94374 15.5166C9.40416 15.5166 8.86458 15.1208 8.78749 14.5666C8.55624 12.825 7.16874 11.6375 5.47291 11.7958C4.23958 11.9541 3.16041 12.5875 2.77499 13.6958C2.54374 14.25 2.15833 14.6458 1.61874 14.4083C1.07916 14.1708 0.84791 13.5375 1.07916 12.9833C1.77291 11.1625 3.39166 9.81665 5.31874 9.57915C6.70624 9.42081 8.09374 9.81665 9.17291 10.6875C10.2521 11.5583 10.9458 12.825 11.1 14.25C11.1771 14.8833 10.7146 15.4375 10.175 15.5166C10.0979 15.5166 10.0208 15.5166 9.94374 15.5166Z" fill="#0052CC"/>
</svg>
