<svg width="82" height="68" viewBox="0 0 82 68" fill="none" xmlns="http://www.w3.org/2000/svg">
<path d="M41.0006 67.0909C40.4217 67.0909 39.8429 66.8976 39.3606 66.6075C38.5888 66.0275 38.1064 65.1575 38.1064 64.1907V2.90018C38.1064 1.25675 39.3606 0 41.0006 0C42.6406 0 43.8947 1.25675 43.8947 2.90018V59.8405L46.7888 58.6804C48.2359 58.1003 49.9723 58.7771 50.5512 60.3238C51.13 61.8706 50.4547 63.514 48.9112 64.0941L41.9653 66.8976C41.6759 66.9942 41.29 67.0909 41.0006 67.0909Z" fill="#00A6FF"/>
<path d="M41.0005 67.0909C40.6146 67.0909 40.2287 66.9942 39.9393 66.8976L32.9935 64.0941C31.5464 63.514 30.7746 61.7739 31.3535 60.3238C31.9323 58.8737 33.6687 58.1003 35.1158 58.6804L42.0617 61.4839C43.5087 62.0639 44.2805 63.804 43.7017 65.2541C43.2193 66.4142 42.1582 67.0909 41.0005 67.0909Z" fill="#00A6FF"/>
<path d="M79.1059 15.371C77.4659 15.371 76.2118 14.1142 76.2118 12.4708V5.80037H5.78824V12.4708C5.78824 14.1142 4.53412 15.371 2.89412 15.371C1.25412 15.371 0 14.1142 0 12.4708V2.90018C0 1.25675 1.25412 0 2.89412 0H79.1059C80.7459 0 82 1.25675 82 2.90018V12.4708C82 14.1142 80.7459 15.371 79.1059 15.371Z" fill="#00A6FF"/>
</svg>
