<svg width="82" height="82" viewBox="0 0 82 82" fill="none" xmlns="http://www.w3.org/2000/svg">
<g clip-path="url(#clip0)">
<path d="M56.9651 56.3689C65.6386 47.3933 65.3938 33.086 56.4182 24.4125C47.4427 15.739 33.1353 15.9839 24.4618 24.9594C15.7883 33.935 16.0332 48.2423 25.0087 56.9158C33.9843 65.5893 48.2916 65.3444 56.9651 56.3689Z" fill="#FEDB8F"/>
<path d="M40.7 48C40.4 48 40.2 47.9 40 47.7C39.8 47.5 39.7 47.3 39.7 47C39.7 46.1 39.9 45.2 40.3 44.2C40.7 43.2 41.2 42.4 41.9 41.7C42.6 41 43.3 40.3 44 39.7C44.7 39.1 45.2 38.4 45.6 37.6C46 36.8 46.2 35.9 46.2 34.7C46.2 33.7 46 32.9 45.5 32.1C45 31.3 44.4 30.8 43.5 30.3C42.7 29.9 41.7 29.6 40.6 29.6C39.5 29.6 38.6 29.8 37.7 30.3C36.9 30.8 36.2 31.4 35.7 32.3C35.2 33.1 35 34.1 35 35.2C35 35.5 34.9 35.7 34.7 35.9C34.5 36.1 34.3 36.2 34 36.2C33.7 36.2 33.5 36.1 33.3 35.9C33.1 35.7 33 35.5 33 35.2C33 33.7 33.3 32.4 34 31.3C34.6 30.2 35.5 29.3 36.7 28.7C37.8 28.1 39.1 27.7 40.6 27.7C42.1 27.7 43.4 28 44.5 28.6C45.6 29.2 46.5 30.1 47.2 31.2C47.8 32.3 48.2 33.5 48.2 34.9C48.2 36.1 48 37.1 47.5 37.9C47.1 38.7 46.5 39.5 45.7 40.2C45 40.9 44.2 41.7 43.3 42.5C42.6 43.2 42.1 44 41.9 44.7C41.7 45.5 41.6 46.2 41.6 46.9C41.6 47.2 41.5 47.4 41.3 47.6C41.2 47.9 41 48 40.7 48ZM40.7 53.5C40.2 53.5 39.8 53.3 39.5 53C39.2 52.7 39 52.3 39 51.8C39 51.3 39.2 51 39.5 50.7C39.8 50.4 40.2 50.2 40.7 50.2C41.2 50.2 41.5 50.4 41.9 50.7C42.2 51 42.4 51.4 42.4 51.9C42.4 52.4 42.2 52.8 41.9 53.1C41.5 53.4 41.1 53.5 40.7 53.5Z" fill="#071146"/>
<path d="M79.8 79.8H40.7C19.2 79.8 1.5 62.2 1.5 40.6C1.5 19.1 19.1 1.4 40.7 1.4C62.2 1.4 79.9 19 79.9 40.6V79.8H79.8Z" stroke="#071146" stroke-width="3" stroke-miterlimit="10" stroke-linecap="round" stroke-linejoin="round"/>
</g>
<defs>
<clipPath id="clip0">
<rect width="81.3" height="81.3" fill="white"/>
</clipPath>
</defs>
</svg>
