<svg width="88" height="88" viewBox="0 0 88 88" fill="none" xmlns="http://www.w3.org/2000/svg">
<circle cx="40" cy="44" r="25" fill="#F6F8FD"/>
<path d="M41.2464 84.79C40.8953 84.79 40.5443 84.7033 40.1933 84.6166L32.7338 81.6684C31.2419 81.0614 30.5399 79.4139 31.1542 77.9398C31.7685 76.4658 33.4359 75.7721 34.9278 76.379L38.3503 77.7664V38.7465L5.8798 25.4798V64.6731L10.18 66.4073C11.6718 67.0143 12.3739 68.6618 11.7596 70.1359C11.1453 71.61 9.47789 72.3036 7.986 71.6967L1.84292 69.2688C0.702066 68.8352 0 67.7947 0 66.5807V21.231C0 20.2771 0.526549 19.41 1.31637 18.803C2.1062 18.2828 3.1593 18.1961 4.03688 18.5429L42.2995 34.1509C43.3526 34.5844 44.1424 35.625 44.1424 36.8389V81.9285C44.1424 82.8824 43.7036 83.7495 42.826 84.2697C42.2995 84.6166 41.7729 84.79 41.2464 84.79Z" fill="#0052CC"/>
<path d="M41.2477 84.79C40.6334 84.79 40.1068 84.6166 39.5803 84.2697C38.7905 83.7495 38.2639 82.8824 38.2639 81.9285V36.8389C38.2639 35.7117 38.966 34.5844 40.1068 34.1509L78.3694 18.5429C79.247 18.1961 80.3001 18.2828 81.0899 18.803C81.8797 19.3233 82.4063 20.1904 82.4063 21.231V66.6674C82.4063 67.8814 81.7042 68.9219 80.5634 69.3555L74.0693 71.9568C72.5774 72.5638 70.91 71.8701 70.2957 70.396C69.6814 68.9219 70.3834 67.2744 71.8753 66.6674L76.6143 64.7598V25.4798L44.1437 38.7465V77.6797L47.1275 76.4658C48.6194 75.8588 50.2868 76.5525 50.9011 78.0266C51.5154 79.5006 50.8133 81.1481 49.3215 81.7551L42.3008 84.5299C41.9498 84.7033 41.5987 84.79 41.2477 84.79Z" fill="#0052CC"/>
<path d="M27.6436 14.2074C26.5028 14.2074 25.3619 13.5137 24.9231 12.3864C24.3088 10.9124 25.0109 9.26486 26.5028 8.65788L40.1053 3.1951C40.8074 2.93497 41.5972 2.93497 42.2993 3.1951L55.6385 8.48446C57.1304 9.09144 57.8325 10.7389 57.2182 12.213C56.6038 13.6871 54.9364 14.3808 53.4446 13.7738L41.2462 9.00473L28.7845 14.034C28.3457 14.1207 27.9947 14.2074 27.6436 14.2074Z" fill="#0052CC"/>
</svg>
