<svg width="167" height="108" viewBox="0 0 167 108" fill="none" xmlns="http://www.w3.org/2000/svg">
<g clip-path="url(#clip0)">
<path d="M129.2 49.66H79.77C77.3298 49.6679 74.9918 50.6408 73.2663 52.3663C71.5408 54.0918 70.5679 56.4298 70.56 58.87V85.17C70.5679 87.6102 71.5408 89.9482 73.2663 91.6737C74.9918 93.3992 77.3298 94.3721 79.77 94.38H113.51L127.51 107.87L127.6 94.38H129.15C131.59 94.3721 133.928 93.3992 135.654 91.6737C137.379 89.9482 138.352 87.6102 138.36 85.17V58.87C138.352 56.4384 137.386 54.1079 135.671 52.3838C133.957 50.6597 131.632 49.681 129.2 49.66ZM126.2 83.57H81.9C81.3383 83.5322 80.8119 83.2825 80.4273 82.8712C80.0428 82.46 79.8289 81.918 79.8289 81.355C79.8289 80.792 80.0428 80.25 80.4273 79.8388C80.8119 79.4275 81.3383 79.1778 81.9 79.14H126.17C126.473 79.1196 126.778 79.1617 127.064 79.2638C127.351 79.3659 127.613 79.5257 127.835 79.7334C128.057 79.9411 128.234 80.1922 128.355 80.4711C128.476 80.7501 128.539 81.0509 128.539 81.355C128.539 81.6591 128.476 81.9599 128.355 82.2388C128.234 82.5178 128.057 82.7689 127.835 82.9766C127.613 83.1842 127.351 83.3441 127.064 83.4462C126.778 83.5482 126.473 83.5904 126.17 83.57H126.2ZM126.2 74.68H81.9C81.3112 74.68 80.7466 74.4461 80.3302 74.0298C79.9139 73.6134 79.68 73.0488 79.68 72.46C79.68 71.8712 79.9139 71.3065 80.3302 70.8902C80.7466 70.4739 81.3112 70.24 81.9 70.24H126.17C126.759 70.24 127.323 70.4739 127.74 70.8902C128.156 71.3065 128.39 71.8712 128.39 72.46C128.39 73.0488 128.156 73.6134 127.74 74.0298C127.323 74.4461 126.759 74.68 126.17 74.68H126.2ZM126.2 65.79H81.9C81.3112 65.79 80.7466 65.5561 80.3302 65.1398C79.9139 64.7234 79.68 64.1588 79.68 63.57C79.68 62.9812 79.9139 62.4165 80.3302 62.0002C80.7466 61.5839 81.3112 61.35 81.9 61.35H126.17C126.759 61.35 127.323 61.5839 127.74 62.0002C128.156 62.4165 128.39 62.9812 128.39 63.57C128.39 64.1588 128.156 64.7234 127.74 65.1398C127.323 65.5561 126.759 65.79 126.17 65.79H126.2Z" fill="#B3C1F4"/>
<path d="M49.91 54.88H51.46L51.55 68.37L65.55 54.88H99.35C101.79 54.8721 104.128 53.8992 105.854 52.1737C107.579 50.4482 108.552 48.1102 108.56 45.67V19.37C108.552 16.9298 107.579 14.5918 105.854 12.8663C104.128 11.1408 101.79 10.1679 99.35 10.16H49.91C47.4698 10.1679 45.1318 11.1408 43.4063 12.8663C41.6808 14.5918 40.7079 16.9298 40.7 19.37V45.67C40.7079 48.1102 41.6808 50.4482 43.4063 52.1737C45.1318 53.8992 47.4698 54.8721 49.91 54.88V54.88Z" stroke="#071146" stroke-width="2" stroke-linecap="round" stroke-linejoin="round"/>
<path d="M58.89 36.92C61.309 36.92 63.27 34.959 63.27 32.54C63.27 30.121 61.309 28.16 58.89 28.16C56.471 28.16 54.51 30.121 54.51 32.54C54.51 34.959 56.471 36.92 58.89 36.92Z" fill="white"/>
<path d="M74.63 36.92C77.049 36.92 79.01 34.959 79.01 32.54C79.01 30.121 77.049 28.16 74.63 28.16C72.211 28.16 70.25 30.121 70.25 32.54C70.25 34.959 72.211 36.92 74.63 36.92Z" fill="white"/>
<path d="M90.37 36.92C92.789 36.92 94.75 34.959 94.75 32.54C94.75 30.121 92.789 28.16 90.37 28.16C87.951 28.16 85.99 30.121 85.99 32.54C85.99 34.959 87.951 36.92 90.37 36.92Z" fill="white"/>
<path d="M59.98 37.63C62.399 37.63 64.36 35.669 64.36 33.25C64.36 30.831 62.399 28.87 59.98 28.87C57.561 28.87 55.6 30.831 55.6 33.25C55.6 35.669 57.561 37.63 59.98 37.63Z" stroke="#071146" stroke-width="2" stroke-linecap="round" stroke-linejoin="round"/>
<path d="M75.72 37.63C78.139 37.63 80.1 35.669 80.1 33.25C80.1 30.831 78.139 28.87 75.72 28.87C73.301 28.87 71.34 30.831 71.34 33.25C71.34 35.669 73.301 37.63 75.72 37.63Z" stroke="#071146" stroke-width="2" stroke-linecap="round" stroke-linejoin="round"/>
<path d="M91.47 37.63C93.889 37.63 95.85 35.669 95.85 33.25C95.85 30.831 93.889 28.87 91.47 28.87C89.051 28.87 87.09 30.831 87.09 33.25C87.09 35.669 89.051 37.63 91.47 37.63Z" stroke="#071146" stroke-width="2" stroke-linecap="round" stroke-linejoin="round"/>
<path d="M146.42 7.93C146.311 6.33466 146.574 4.73579 147.19 3.26C147.503 2.52706 147.97 1.87048 148.56 1.33536C149.151 0.800236 149.85 0.399266 150.61 0.159996C151.956 -0.144523 153.365 0.014029 154.61 0.609996C155.649 1.02674 156.554 1.71807 157.23 2.61C157.566 3.04959 157.795 3.56115 157.899 4.10433C158.003 4.64751 157.979 5.20745 157.83 5.74C159.065 5.16424 160.459 5.02181 161.785 5.33572C163.112 5.64963 164.294 6.40155 165.14 7.47C165.929 8.58082 166.321 9.92515 166.252 11.286C166.183 12.6467 165.657 13.9446 164.76 14.97C163.902 15.8006 162.908 16.4772 161.82 16.97C159.63 18.1054 157.349 19.0554 155 19.81C152.5 20.62 148.7 20.81 148.08 17.54C147.46 14.27 146.54 11.14 146.42 7.93Z" fill="#FCAA90"/>
<path d="M34.09 82.75C34.09 81.3 32.56 80.13 30.67 80.13C32.56 80.13 34.09 78.95 34.09 77.51C34.09 76.07 32.56 74.89 30.67 74.89H23C23 74.89 28.47 62.89 25.35 61.56C21.81 60 16.22 73.92 16.22 73.92L11.89 74.92V93.92C11.89 93.92 18.49 96.15 22.99 96.15C27.24 96.15 30.68 95.92 30.68 95.92C32.57 95.92 34.1 94.74 34.1 93.3C34.1 91.86 32.57 90.68 30.68 90.68C32.57 90.68 34.1 89.5 34.1 88.06C34.1 86.62 32.57 85.44 30.68 85.44C32.56 85.38 34.09 84.2 34.09 82.75Z" fill="#B1DEF5"/>
<path d="M1.22 74.88V93.88H10.22V74.88H1.22ZM5.72 80.46C5.38533 80.462 5.05761 80.3645 4.77838 80.1801C4.49915 79.9956 4.28098 79.7323 4.15153 79.4237C4.02209 79.1151 3.98719 78.7749 4.05126 78.4465C4.11534 78.118 4.2755 77.8159 4.51145 77.5786C4.7474 77.3412 5.04851 77.1793 5.3766 77.1132C5.7047 77.0472 6.04502 77.0801 6.35441 77.2077C6.6638 77.3353 6.92833 77.5519 7.11448 77.83C7.30062 78.1082 7.4 78.4353 7.4 78.77C7.40001 79.2165 7.22333 79.6448 6.90855 79.9615C6.59378 80.2781 6.16648 80.4573 5.72 80.46Z" fill="#B1DEF5"/>
<path d="M15.83 44.73C15.83 44.73 13.23 40 12.1 38.85C10.97 37.7 6.51999 35.42 6.51999 35.42C6.51999 35.42 11.04 33.08 12.19 31.92C13.34 30.76 15.83 26.11 15.83 26.11C15.83 26.11 17.83 30.73 18.93 31.85C20.03 32.97 25.14 35.42 25.14 35.42C25.14 35.42 20.44 37.76 19.41 38.79C18.12 40.09 15.83 44.73 15.83 44.73Z" stroke="#FEDB8F" stroke-width="2" stroke-linecap="round" stroke-linejoin="round"/>
<path d="M5.72 18.36C5.1689 17.3124 4.53699 16.3094 3.83 15.36C2.94177 14.7034 1.99435 14.131 1 13.65C2.00645 13.1448 2.96677 12.5526 3.87 11.88C4.56815 10.9502 5.18699 9.96338 5.72 8.92999C6.13724 9.95359 6.66362 10.9292 7.29 11.84C8.2766 12.542 9.32805 13.1481 10.43 13.65C9.41699 14.1375 8.44689 14.7095 7.53 15.36C6.82958 16.2981 6.22332 17.303 5.72 18.36V18.36Z" stroke="#FEDB8F" stroke-width="2" stroke-linecap="round" stroke-linejoin="round"/>
<path d="M127.61 35.54C127.059 34.4924 126.427 33.4894 125.72 32.54C124.833 31.8765 123.885 31.2973 122.89 30.81C123.896 30.3048 124.857 29.7126 125.76 29.04C126.454 28.113 127.07 27.1296 127.6 26.1C128.021 27.1206 128.551 28.0928 129.18 29C130.167 29.702 131.218 30.3081 132.32 30.81C131.307 31.2975 130.337 31.8695 129.42 32.52C128.718 33.4644 128.112 34.4761 127.61 35.54V35.54Z" stroke="#FEDB8F" stroke-width="2" stroke-linecap="round" stroke-linejoin="round"/>
<path d="M156.31 49.45C155.759 48.4024 155.127 47.3994 154.42 46.45C153.533 45.7865 152.585 45.2073 151.59 44.72C152.598 44.2313 153.562 43.6558 154.47 43C155.167 42.0539 155.783 41.0503 156.31 40C156.727 41.0236 157.254 41.9992 157.88 42.91C158.86 43.6144 159.905 44.2238 161 44.73C159.987 45.2175 159.017 45.7895 158.1 46.44C157.406 47.3821 156.806 48.3903 156.31 49.45V49.45Z" stroke="#FEDB8F" stroke-width="2" stroke-linecap="round" stroke-linejoin="round"/>
</g>
<defs>
<clipPath id="clip0">
<rect width="166.22" height="107.88" fill="white"/>
</clipPath>
</defs>
</svg>
