<svg width="165" height="108" viewBox="0 0 165 108" fill="none" xmlns="http://www.w3.org/2000/svg">
<g clip-path="url(#clip0)">
<path d="M14.51 29.05C12.5142 29.0751 10.532 28.7187 8.67 28C6.94351 27.328 5.37551 26.3045 4.06549 24.9945C2.75546 23.6845 1.73199 22.1165 1.06 20.39C0.336358 18.5256 -0.0234583 16.5398 8.19098e-07 14.54C-0.0240406 12.5336 0.335752 10.5412 1.06 8.66999C1.73146 6.94319 2.75474 5.37492 4.06483 4.06483C5.37493 2.75473 6.9432 1.73145 8.67 1.05999C10.5314 0.337845 12.5136 -0.0219411 14.51 -6.20959e-06C16.5163 -0.0238015 18.5087 0.335983 20.38 1.05999C22.109 1.72975 23.6795 2.75232 24.9914 4.06254C26.3033 5.37277 27.328 6.94191 28 8.66999C28.7242 10.5412 29.084 12.5336 29.06 14.54C29.0859 16.0911 28.8527 17.6357 28.37 19.11C28.0008 20.2924 27.3486 21.3668 26.47 22.24C25.7168 22.9765 24.7034 23.3862 23.65 23.38C23.2307 23.4015 22.8115 23.3348 22.4195 23.1841C22.0276 23.0335 21.6716 22.8022 21.3747 22.5053C21.0778 22.2084 20.8465 21.8524 20.6959 21.4605C20.5452 21.0685 20.4785 20.6493 20.5 20.23V19.31C20.0996 19.9005 19.5905 20.4096 19 20.81C18.3472 21.2473 17.6326 21.5844 16.88 21.81C16.1174 22.0555 15.3211 22.1803 14.52 22.18C13.1219 22.2047 11.742 21.8597 10.52 21.18C9.38824 20.5573 8.44781 19.6376 7.8 18.52C7.1229 17.2969 6.77811 15.9178 6.8 14.52C6.77811 13.1222 7.1229 11.7431 7.8 10.52C8.44183 9.37898 9.38664 8.43763 10.53 7.79999C11.7518 7.1198 13.1318 6.77481 14.53 6.79999C15.9283 6.77385 17.3085 7.11891 18.53 7.79999C19.671 8.44182 20.6124 9.38663 21.25 10.53C21.9271 11.7531 22.2719 13.1322 22.25 14.53V19.65C22.1987 20.1975 22.3402 20.7457 22.65 21.2C22.7733 21.3446 22.9267 21.4607 23.0993 21.5401C23.272 21.6196 23.4599 21.6605 23.65 21.66C24.0178 21.6561 24.3802 21.5716 24.7119 21.4127C25.0436 21.2538 25.3365 21.0242 25.57 20.74C26.1863 20.0078 26.6305 19.1466 26.87 18.22C27.2014 17.0186 27.3597 15.7761 27.34 14.53C27.3587 12.7681 27.0361 11.0193 26.39 9.37999C25.7933 7.85614 24.8885 6.47187 23.7322 5.31383C22.5759 4.1558 21.193 3.24893 19.67 2.64999C18.0299 2.00781 16.2812 1.68862 14.52 1.70999C12.7588 1.68862 11.0101 2.00781 9.37 2.64999C7.84161 3.2514 6.45295 4.16015 5.29 5.31999C4.13987 6.48099 3.2412 7.86644 2.65 9.38999C2.01625 11.0322 1.70064 12.7799 1.72 14.54C1.7004 16.3001 2.01602 18.0479 2.65 19.69C3.2399 21.2138 4.14141 22.5977 5.29684 23.7532C6.45227 24.9086 7.83617 25.8101 9.36 26.4C11.0022 27.0337 12.7499 27.3494 14.51 27.33C15.459 27.3193 16.4042 27.2087 17.33 27C18.173 26.8361 18.9948 26.5778 19.78 26.23C19.9179 26.1415 20.0734 26.084 20.2357 26.0615C20.398 26.0391 20.5633 26.0522 20.72 26.1C20.97 26.2 21.09 26.45 21.09 26.83C21.09 27.21 20.81 27.46 20.25 27.83C19.5247 28.2347 18.7426 28.528 17.93 28.7C16.8078 28.9511 15.6598 29.0686 14.51 29.05ZM14.51 20.52C15.59 20.5415 16.6563 20.2757 17.6 19.75C18.4853 19.2479 19.2179 18.5153 19.72 17.63C20.2457 16.6863 20.5115 15.62 20.49 14.54C20.5139 13.4502 20.2482 12.3735 19.72 11.42C19.2179 10.5347 18.4853 9.80205 17.6 9.29999C16.6565 8.77381 15.5901 8.50805 14.51 8.52999C13.4299 8.50757 12.3633 8.77336 11.42 9.29999C10.5356 9.80325 9.80326 10.5356 9.3 11.42C8.7718 12.3735 8.50609 13.4502 8.53 14.54C8.50806 15.6201 8.77382 16.6865 9.3 17.63C9.80286 18.5147 10.5353 19.2471 11.42 19.75C12.3637 20.2757 13.43 20.5415 14.51 20.52Z" fill="#FCAA90"/>
<path d="M26.86 82.42C21.82 78 18.54 71 20 64.36C21.46 57.72 28.53 52.47 34.9 54.47C32.2 44.94 36.36 33.84 44.6 28.56C48.779 25.9991 53.6667 24.8401 58.5506 25.2521C63.4345 25.664 68.059 27.6253 71.75 30.85C72.3908 31.5627 73.1982 32.1056 74.1 32.43C75.57 32.78 77 31.79 78.22 30.87C86.22 24.87 95.22 19.69 105.06 18.55C114.9 17.41 125.76 21 131.24 29.44C134.24 34.03 135.41 39.61 135.93 45.09C142.14 43.718 148.635 44.5821 154.27 47.53C157.075 49.0528 159.486 51.2087 161.313 53.8264C163.139 56.4442 164.329 59.4516 164.79 62.61C165.162 66.7706 164.438 70.956 162.69 74.75C160.643 79.4591 157.565 83.6487 153.683 87.0098C149.801 90.3709 145.214 92.8178 140.26 94.17C135.665 95.2043 130.97 95.7308 126.26 95.74C107.88 96.41 89.41 96.64 71.09 94.64C57.33 93.15 37.92 92.13 26.86 82.42Z" fill="#B3C1F4"/>
<path d="M114.31 50.02H58.13C53.9437 50.02 50.55 53.4137 50.55 57.6V98.22C50.55 102.406 53.9437 105.8 58.13 105.8H114.31C118.496 105.8 121.89 102.406 121.89 98.22V57.6C121.89 53.4137 118.496 50.02 114.31 50.02Z" fill="white"/>
<path d="M42.9 60.42L76.26 79.37C78.1615 80.4416 80.3073 81.0045 82.49 81.0045C84.6727 81.0045 86.8185 80.4416 88.72 79.37L122.2 60.69" stroke="#071146" stroke-width="2" stroke-linecap="round" stroke-linejoin="round"/>
<path d="M122.09 92.88L94 76.93" stroke="#071146" stroke-width="2" stroke-linecap="round" stroke-linejoin="round"/>
<path d="M70.99 76.85L42.8 92.62" stroke="#071146" stroke-width="2" stroke-linecap="round" stroke-linejoin="round"/>
<path d="M113.861 44.697L51.3518 44.4897C46.7182 44.4743 42.9494 48.2182 42.934 52.8518L42.7858 97.5415C42.7705 102.175 46.5143 105.944 51.148 105.959L113.658 106.167C118.291 106.182 122.06 102.438 122.075 97.8045L122.224 53.1147C122.239 48.4811 118.495 44.7123 113.861 44.697Z" stroke="#071146" stroke-width="2" stroke-linecap="round" stroke-linejoin="round"/>
<path d="M134.41 15.15L137.76 17.2C137.837 17.2366 137.905 17.291 137.957 17.3588C138.009 17.4266 138.044 17.5059 138.06 17.59L140.69 31.09C140.707 31.2003 140.758 31.3026 140.835 31.3828C140.913 31.4631 141.013 31.5174 141.123 31.5382C141.233 31.559 141.346 31.5454 141.447 31.4991C141.549 31.4529 141.634 31.3763 141.69 31.28L144.69 26.42C144.734 26.3515 144.792 26.2936 144.861 26.2508C144.93 26.208 145.008 26.1812 145.088 26.1726C145.169 26.1639 145.251 26.1736 145.327 26.2008C145.404 26.2281 145.473 26.2722 145.53 26.33L152.66 33.84C152.722 33.9031 152.798 33.95 152.882 33.9768C152.966 34.0036 153.056 34.0093 153.142 33.9935C153.229 33.9777 153.311 33.9409 153.38 33.8862C153.45 33.8316 153.504 33.7608 153.54 33.68L163.54 2.15999C163.578 2.06373 163.588 1.95842 163.569 1.85666C163.549 1.7549 163.5 1.66097 163.429 1.58611C163.357 1.51124 163.265 1.45859 163.164 1.43446C163.063 1.41032 162.958 1.41571 162.86 1.44999L134.45 14.17C134.355 14.2093 134.272 14.2752 134.213 14.3598C134.154 14.4443 134.121 14.5441 134.116 14.6472C134.112 14.7503 134.138 14.8525 134.19 14.9416C134.242 15.0307 134.318 15.103 134.41 15.15Z" fill="white"/>
<path d="M132.33 13.78L137.65 16.3C137.727 16.3366 137.795 16.391 137.847 16.4588C137.899 16.5267 137.934 16.6059 137.95 16.69L139.63 25.89C139.647 26.0003 139.698 26.1026 139.775 26.1828C139.853 26.2631 139.953 26.3174 140.063 26.3382C140.173 26.359 140.286 26.3454 140.387 26.2991C140.489 26.2529 140.574 26.1764 140.63 26.08L143.63 21.22C143.674 21.1515 143.732 21.0936 143.801 21.0508C143.87 21.008 143.948 20.9812 144.028 20.9726C144.109 20.9639 144.191 20.9736 144.267 21.0008C144.344 21.0281 144.413 21.0722 144.47 21.13L151.6 28.64C151.662 28.7031 151.738 28.75 151.822 28.7768C151.906 28.8036 151.996 28.8093 152.082 28.7935C152.169 28.7777 152.251 28.7409 152.32 28.6862C152.39 28.6316 152.444 28.5608 152.48 28.48L163.81 1.92C163.848 1.82374 163.858 1.71843 163.839 1.61667C163.819 1.51491 163.77 1.42098 163.699 1.34612C163.627 1.27125 163.535 1.2186 163.434 1.19447C163.333 1.17033 163.228 1.17572 163.13 1.21L132.38 12.79C132.281 12.8269 132.196 12.8919 132.133 12.9769C132.071 13.0619 132.035 13.1633 132.03 13.2686C132.024 13.3738 132.05 13.4783 132.103 13.5692C132.157 13.6601 132.236 13.7333 132.33 13.78V13.78Z" stroke="#071146" stroke-width="2" stroke-linecap="round" stroke-linejoin="round"/>
<path d="M144 20.63L161.13 3.87999C161.214 3.78592 161.263 3.66532 161.267 3.53916C161.272 3.413 161.232 3.28925 161.155 3.1894C161.077 3.08956 160.968 3.01994 160.844 2.99265C160.721 2.96535 160.592 2.9821 160.48 3.03999L137.9 16.42" stroke="#071146" stroke-width="2" stroke-linecap="round" stroke-linejoin="round"/>
<path d="M14.53 98.12C17.424 98.12 19.77 95.774 19.77 92.88C19.77 89.986 17.424 87.64 14.53 87.64C11.636 87.64 9.29 89.986 9.29 92.88C9.29 95.774 11.636 98.12 14.53 98.12Z" stroke="#B1DEF5" stroke-width="3" stroke-miterlimit="10"/>
<path d="M73.22 18.01C75.142 18.01 76.7 16.4519 76.7 14.53C76.7 12.608 75.142 11.05 73.22 11.05C71.2981 11.05 69.74 12.608 69.74 14.53C69.74 16.4519 71.2981 18.01 73.22 18.01Z" stroke="#B1DEF5" stroke-width="3" stroke-miterlimit="10"/>
<path d="M155.17 101.67C157.092 101.67 158.65 100.112 158.65 98.19C158.65 96.268 157.092 94.71 155.17 94.71C153.248 94.71 151.69 96.268 151.69 98.19C151.69 100.112 153.248 101.67 155.17 101.67Z" stroke="#B1DEF5" stroke-width="3" stroke-miterlimit="10"/>
<path d="M135.36 30.16C131.43 35.05 125.13 37.71 118.86 37.95C112.567 38.0181 106.381 36.3242 101 33.06C96.54 30.52 92.56 27.24 88 25C83.44 22.76 78 21.5 73.27 23.43C68.27 25.49 65.16 30.57 60.5 33.33C55.84 36.09 49.87 36.23 44.36 35.73C38.85 35.23 33.29 34.22 27.83 35.12C22.37 36.02 16.83 39.37 15.37 44.69C14.02 49.49 16.21 54.61 19.23 58.57C22.25 62.53 26.12 65.81 28.93 69.93C32.9196 75.8248 34.4682 83.037 33.25 90.05C32.7242 93.4253 31.5178 96.6585 29.7043 99.5533C27.8907 102.448 25.5077 104.944 22.7 106.89" stroke="#FEDB8F" stroke-linecap="round" stroke-linejoin="round" stroke-dasharray="6 6"/>
</g>
<defs>
<clipPath id="clip0">
<rect width="164.92" height="107.39" fill="white"/>
</clipPath>
</defs>
</svg>
