<svg width="167" height="109" viewBox="0 0 167 109" fill="none" xmlns="http://www.w3.org/2000/svg">
<g clip-path="url(#clip0)">
<path d="M69.1 16.81C70.8121 16.81 72.2 15.4221 72.2 13.71C72.2 11.9979 70.8121 10.61 69.1 10.61C67.3879 10.61 66 11.9979 66 13.71C66 15.4221 67.3879 16.81 69.1 16.81Z" stroke="#B3C1F4" stroke-width="2" stroke-miterlimit="10"/>
<path d="M81.69 13.45C83.4021 13.45 84.79 12.0621 84.79 10.35C84.79 8.63792 83.4021 7.25 81.69 7.25C79.9779 7.25 78.59 8.63792 78.59 10.35C78.59 12.0621 79.9779 13.45 81.69 13.45Z" stroke="#B3C1F4" stroke-width="2" stroke-miterlimit="10"/>
<path d="M91.42 21.23C93.1321 21.23 94.52 19.8421 94.52 18.13C94.52 16.4179 93.1321 15.03 91.42 15.03C89.7079 15.03 88.32 16.4179 88.32 18.13C88.32 19.8421 89.7079 21.23 91.42 21.23Z" stroke="#B3C1F4" stroke-width="2" stroke-miterlimit="10"/>
<path d="M48.34 41.14C51.7334 36.0423 53.2014 29.903 52.4809 23.8217C51.7605 17.7403 48.8987 12.114 44.4081 7.95025C39.9175 3.78652 34.0914 1.35733 27.973 1.09769C21.8546 0.838049 15.8436 2.76491 11.0164 6.53323C6.18914 10.3015 2.86102 15.6652 1.62796 21.6637C0.394904 27.6621 1.33745 33.9037 4.28682 39.2706C7.23619 44.6374 11.9997 48.7791 17.7244 50.954C23.4491 53.1288 29.7611 53.1948 35.53 51.14L51.06 54L48.34 41.14Z" stroke="#071146" stroke-width="2" stroke-linecap="round" stroke-linejoin="round"/>
<path d="M146.33 37.21C147.329 41.2165 147.76 45.3436 147.61 49.47C147.61 65.53 139.12 78.54 128.61 78.54C118.1 78.54 109.61 65.54 109.61 49.47C109.606 46.415 109.924 43.3682 110.56 40.38" stroke="#071146" stroke-width="2" stroke-miterlimit="10"/>
<path d="M119.87 53.5C123.272 53.5 126.03 50.7421 126.03 47.34C126.03 43.9379 123.272 41.18 119.87 41.18C116.468 41.18 113.71 43.9379 113.71 47.34C113.71 50.7421 116.468 53.5 119.87 53.5Z" stroke="#071146" stroke-width="2" stroke-miterlimit="10"/>
<path d="M137.44 53.5C140.842 53.5 143.6 50.7421 143.6 47.34C143.6 43.9379 140.842 41.18 137.44 41.18C134.038 41.18 131.28 43.9379 131.28 47.34C131.28 50.7421 134.038 53.5 137.44 53.5Z" stroke="#071146" stroke-width="2" stroke-miterlimit="10"/>
<path d="M125.72 47.55C125.944 47.4251 126.155 47.2776 126.35 47.11C126.988 46.7066 127.725 46.4885 128.48 46.48C129.002 46.4313 129.528 46.4651 130.04 46.58C130.552 46.6961 131.013 46.9771 131.35 47.38" stroke="#071146" stroke-width="2" stroke-miterlimit="10"/>
<path d="M143.69 46.26C144.156 45.6877 144.686 45.171 145.27 44.72C145.71 44.3408 146.24 44.0823 146.81 43.97C147.372 43.9295 147.93 44.0949 148.379 44.4353C148.828 44.7757 149.137 45.2679 149.25 45.82C149.334 46.3782 149.255 46.9489 149.023 47.4633C148.791 47.9778 148.415 48.4142 147.94 48.72" stroke="#071146" stroke-width="2" stroke-miterlimit="10"/>
<path d="M113.8 45.93C112.674 45.2388 111.405 44.8146 110.09 44.69C109.895 44.653 109.695 44.653 109.5 44.69C109.209 44.8001 108.962 45.0042 108.8 45.27C108.38 45.8275 108.197 46.5282 108.29 47.22C108.343 47.5624 108.492 47.8826 108.721 48.143C108.949 48.4034 109.247 48.5932 109.58 48.69" stroke="#071146" stroke-width="2" stroke-miterlimit="10"/>
<path d="M133.37 66.61C133.386 66.5982 133.4 66.5833 133.41 66.5661C133.42 66.5489 133.427 66.5298 133.43 66.51C133.428 66.4853 133.416 66.4623 133.397 66.4457C133.379 66.429 133.355 66.4199 133.33 66.42C133.284 66.409 133.236 66.409 133.19 66.42C132.488 66.791 131.767 67.1248 131.03 67.42C129.58 67.9406 128.011 68.0343 126.51 67.69L125.87 67.52C125.59 67.44 124.47 67.03 124.36 66.96C124.25 66.8903 124.118 66.8653 123.99 66.89C123.928 66.9065 123.875 66.9452 123.84 66.9987C123.805 67.0522 123.79 67.1168 123.8 67.18C123.828 67.2526 123.876 67.3153 123.94 67.36C124.676 68.15 125.476 68.8791 126.33 69.54C126.753 69.873 127.239 70.1173 127.758 70.2581C128.277 70.399 128.82 70.4336 129.353 70.3598C129.886 70.2861 130.399 70.1055 130.861 69.8289C131.322 69.5522 131.723 69.1853 132.04 68.75C132.599 68.0408 133.085 67.2769 133.49 66.47L133.37 66.61Z" fill="#071146"/>
<path d="M135.45 28.28C135.52 30.16 137 31.76 138.63 32.93C141.57 35.0095 145.035 36.2222 148.63 36.43C149.42 34.82 152.68 18.95 136.52 21C136.088 21.0933 135.642 21.0933 135.21 21C134.85 20.8499 134.529 20.621 134.27 20.33C132.613 18.9102 130.598 17.9728 128.445 17.6201C126.292 17.2674 124.083 17.513 122.06 18.33C119.74 19.33 111.01 27.88 108.89 38.25C108.25 41.37 109.89 39.67 112.53 39.33C118.13 38.6095 123.52 36.7368 128.36 33.83C129.72 33 135.48 28.94 135.45 28.28Z" fill="#B1DEF5"/>
<path d="M110.67 40.29C111.916 40.0309 113.145 39.697 114.35 39.29C118.087 38.0623 121.66 36.3833 124.99 34.29C125.6 33.91 131.27 29.51 133.63 27.29C133.789 27.992 134.134 28.638 134.63 29.16C137.807 32.7463 141.818 35.494 146.31 37.16C147.767 34.1048 148.202 30.6616 147.55 27.34C146.82 22.76 141.55 19.88 136.98 19.5C135.942 19.3513 134.884 19.5593 133.98 20.09C131.05 18.88 127.76 17.5 124.61 17.09C123.036 16.8355 121.427 16.9029 119.88 17.2879C118.334 17.6729 116.881 18.3676 115.61 19.33C114.591 20.237 113.715 21.2922 113.01 22.46C109.47 27.98 108.01 34.21 106.43 40.57C107.853 40.6166 109.276 40.4957 110.67 40.21" stroke="#071146" stroke-width="2" stroke-miterlimit="10"/>
<path d="M113.8 68.94C101.8 79.34 94.66 92.85 91.05 107.2" stroke="#071146" stroke-width="2" stroke-linecap="round" stroke-linejoin="round"/>
<path d="M142.72 68.94C154.72 79.38 161.92 92.94 165.52 107.38" stroke="#071146" stroke-width="2" stroke-linecap="round" stroke-linejoin="round"/>
<path d="M104.68 83C104.39 84.7813 104.269 86.586 104.32 88.39" stroke="#B1DEF5" stroke-linecap="round" stroke-linejoin="round"/>
<path d="M109.89 83C109.6 84.7813 109.479 86.586 109.53 88.39" stroke="#B1DEF5" stroke-linecap="round" stroke-linejoin="round"/>
<path d="M115.1 83C114.81 84.7813 114.689 86.586 114.74 88.39" stroke="#B1DEF5" stroke-linecap="round" stroke-linejoin="round"/>
<path d="M120 85.47C119.927 86.4415 119.903 87.4161 119.93 88.39" stroke="#B1DEF5" stroke-linecap="round" stroke-linejoin="round"/>
<path d="M125.19 85.92C125.143 86.7467 125.143 87.57 125.19 88.39" stroke="#B1DEF5" stroke-linecap="round" stroke-linejoin="round"/>
<path d="M130.37 86.41C130.334 87.0762 130.334 87.7438 130.37 88.41" stroke="#B1DEF5" stroke-linecap="round" stroke-linejoin="round"/>
<path d="M135.62 85.7C135.56 86.6 135.543 87.5 135.57 88.4" stroke="#B1DEF5" stroke-linecap="round" stroke-linejoin="round"/>
<path d="M141.13 83C140.84 84.7813 140.719 86.586 140.77 88.39" stroke="#B1DEF5" stroke-linecap="round" stroke-linejoin="round"/>
<path d="M146.34 83C146.056 84.7852 145.942 86.5933 146 88.4" stroke="#B1DEF5" stroke-linecap="round" stroke-linejoin="round"/>
<path d="M151.55 83C151.26 84.7813 151.139 86.586 151.19 88.39" stroke="#B1DEF5" stroke-linecap="round" stroke-linejoin="round"/>
<path d="M101.53 94.19C101.24 95.9713 101.119 97.776 101.17 99.58" stroke="#B1DEF5" stroke-linecap="round" stroke-linejoin="round"/>
<path d="M106.74 94.19C106.45 95.9713 106.329 97.776 106.38 99.58" stroke="#B1DEF5" stroke-linecap="round" stroke-linejoin="round"/>
<path d="M111.95 94.19C111.66 95.9713 111.539 97.776 111.59 99.58" stroke="#B1DEF5" stroke-linecap="round" stroke-linejoin="round"/>
<path d="M117.15 94.19C116.86 95.9713 116.739 97.776 116.79 99.58" stroke="#B1DEF5" stroke-linecap="round" stroke-linejoin="round"/>
<path d="M122.36 94.19C122.07 95.9713 121.949 97.776 122 99.58" stroke="#B1DEF5" stroke-linecap="round" stroke-linejoin="round"/>
<path d="M127.57 94.19C127.28 95.9713 127.159 97.776 127.21 99.58" stroke="#B1DEF5" stroke-linecap="round" stroke-linejoin="round"/>
<path d="M132.78 94.19C132.49 95.9713 132.369 97.776 132.42 99.58" stroke="#B1DEF5" stroke-linecap="round" stroke-linejoin="round"/>
<path d="M138 94.19C137.71 95.9713 137.589 97.776 137.64 99.58" stroke="#B1DEF5" stroke-linecap="round" stroke-linejoin="round"/>
<path d="M143.19 94.19C142.9 95.9713 142.779 97.776 142.83 99.58" stroke="#B1DEF5" stroke-linecap="round" stroke-linejoin="round"/>
<path d="M148.4 94.19C148.11 95.9713 147.989 97.776 148.04 99.58" stroke="#B1DEF5" stroke-linecap="round" stroke-linejoin="round"/>
<path d="M153.68 94.19C153.39 95.9713 153.269 97.776 153.32 99.58" stroke="#B1DEF5" stroke-linecap="round" stroke-linejoin="round"/>
<path d="M104.68 105.37C104.58 105.977 104.5 106.587 104.44 107.2" stroke="#B1DEF5" stroke-linecap="round" stroke-linejoin="round"/>
<path d="M109.89 105.37C109.79 105.977 109.71 106.587 109.65 107.2" stroke="#B1DEF5" stroke-linecap="round" stroke-linejoin="round"/>
<path d="M93.95 105.37C93.8633 105.89 93.7933 106.41 93.74 106.93" stroke="#B1DEF5" stroke-linecap="round" stroke-linejoin="round"/>
<path d="M99.16 105.37C99.06 105.977 98.98 106.587 98.92 107.2" stroke="#B1DEF5" stroke-linecap="round" stroke-linejoin="round"/>
<path d="M156.28 105.37C156.187 105.93 156.113 106.49 156.06 107.05" stroke="#B1DEF5" stroke-linecap="round" stroke-linejoin="round"/>
<path d="M115.1 105.37C115.013 105.883 114.943 106.4 114.89 106.92" stroke="#B1DEF5" stroke-linecap="round" stroke-linejoin="round"/>
<path d="M120.3 105.37C120.213 105.883 120.143 106.4 120.09 106.92" stroke="#B1DEF5" stroke-linecap="round" stroke-linejoin="round"/>
<path d="M125.51 105.37C125.423 105.883 125.353 106.4 125.3 106.92" stroke="#B1DEF5" stroke-linecap="round" stroke-linejoin="round"/>
<path d="M130.72 105.37C130.633 105.883 130.563 106.4 130.51 106.92" stroke="#B1DEF5" stroke-linecap="round" stroke-linejoin="round"/>
<path d="M135.93 105.37C135.843 105.883 135.773 106.4 135.72 106.92" stroke="#B1DEF5" stroke-linecap="round" stroke-linejoin="round"/>
<path d="M141.13 105.37C141.037 105.93 140.963 106.49 140.91 107.05" stroke="#B1DEF5" stroke-linecap="round" stroke-linejoin="round"/>
<path d="M146.34 105.37C146.24 105.99 146.16 106.617 146.1 107.25" stroke="#B1DEF5" stroke-linecap="round" stroke-linejoin="round"/>
<path d="M151.55 105.37C151.457 105.93 151.383 106.49 151.33 107.05" stroke="#B1DEF5" stroke-linecap="round" stroke-linejoin="round"/>
<path d="M106.42 46.67C106.42 45.3777 105.372 44.33 104.08 44.33C102.788 44.33 101.74 45.3777 101.74 46.67V56.25C101.74 57.5423 102.788 58.59 104.08 58.59C105.372 58.59 106.42 57.5423 106.42 56.25V46.67Z" stroke="#071146" stroke-width="2" stroke-linecap="round" stroke-linejoin="round"/>
<path d="M155.58 46.67C155.58 45.3777 154.532 44.33 153.24 44.33C151.948 44.33 150.9 45.3777 150.9 46.67V56.25C150.9 57.5423 151.948 58.59 153.24 58.59C154.532 58.59 155.58 57.5423 155.58 56.25V46.67Z" stroke="#071146" stroke-width="2" stroke-linecap="round" stroke-linejoin="round"/>
<path d="M140.76 66.39H136.93C136.378 66.39 135.93 66.8377 135.93 67.39V67.4C135.93 67.9523 136.378 68.4 136.93 68.4H140.76C141.312 68.4 141.76 67.9523 141.76 67.4V67.39C141.76 66.8377 141.312 66.39 140.76 66.39Z" fill="#071146"/>
<path d="M104.08 44.33V39.88C104.098 33.3083 106.717 27.0111 111.364 22.3642C116.011 17.7173 122.308 15.0985 128.88 15.08V15.08C135.452 15.0985 141.749 17.7173 146.396 22.3642C151.043 27.0111 153.662 33.3083 153.68 39.88V44.38" stroke="#071146" stroke-width="2" stroke-miterlimit="10"/>
<path d="M141.53 67.4H145.2C149.74 67.4 153.35 63.75 153.35 58.6" stroke="#071146" stroke-width="2" stroke-miterlimit="10"/>
<path d="M147.3 102.75L144.9 98V102.66C144.9 102.75 144.864 102.837 144.8 102.9C144.737 102.964 144.65 103 144.56 103C144.47 103 144.383 102.964 144.32 102.9C144.256 102.837 144.22 102.75 144.22 102.66V96.53C144.22 96.4398 144.256 96.3534 144.32 96.2896C144.383 96.2258 144.47 96.19 144.56 96.19C144.622 96.1877 144.683 96.2034 144.737 96.2354C144.79 96.2673 144.833 96.3141 144.86 96.37L147.6 101.86L150.34 96.37C150.367 96.3141 150.41 96.2673 150.463 96.2354C150.516 96.2034 150.578 96.1877 150.64 96.19C150.73 96.19 150.817 96.2258 150.88 96.2896C150.944 96.3534 150.98 96.4398 150.98 96.53V102.62C150.98 102.71 150.944 102.797 150.88 102.86C150.817 102.924 150.73 102.96 150.64 102.96C150.55 102.96 150.463 102.924 150.4 102.86C150.336 102.797 150.3 102.71 150.3 102.62V98L147.89 102.83C147.862 102.881 147.819 102.924 147.768 102.952C147.717 102.98 147.659 102.993 147.6 102.99C147.531 102.986 147.465 102.961 147.411 102.918C147.358 102.875 147.319 102.816 147.3 102.75Z" fill="#071146"/>
<path d="M145.37 77.24C143.776 80.2936 141.375 82.8521 138.429 84.6374C135.484 86.4227 132.105 87.3666 128.66 87.3666C125.215 87.3666 121.836 86.4227 118.891 84.6374C115.945 82.8521 113.544 80.2936 111.95 77.24" stroke="#B1DEF5" stroke-linecap="round" stroke-linejoin="round"/>
<path d="M145.37 76.12C143.776 79.1736 141.375 81.732 138.429 83.5173C135.484 85.3026 132.105 86.2466 128.66 86.2466C125.215 86.2466 121.836 85.3026 118.891 83.5173C115.945 81.732 113.544 79.1736 111.95 76.12" stroke="#071146" stroke-width="2" stroke-linecap="round" stroke-linejoin="round"/>
<path d="M79.73 37.41C80.73 48.61 84.38 59.41 89.31 69.56C92.16 75.4 95.49 81.08 100.03 85.72" stroke="#071146" stroke-width="2" stroke-linecap="round" stroke-linejoin="round"/>
<path d="M76 27.8C78.3774 30.0833 79.8058 33.1795 80 36.47C80 36.53 80 36.6 80 36.63C80 36.66 79.8 36.82 79.86 36.83C80.0923 36.8235 80.319 36.7576 80.5186 36.6385C80.7182 36.5195 80.8839 36.3513 81 36.15C81.2261 35.7508 81.3626 35.3072 81.4 34.85C81.8026 32.0296 81.5807 29.1552 80.75 26.43" stroke="#071146" stroke-width="2" stroke-linecap="round" stroke-linejoin="round"/>
<path d="M72.67 30.43L72.57 30.17C75.27 31.99 78.09 33.94 79.57 36.86" stroke="#071146" stroke-width="2" stroke-linecap="round" stroke-linejoin="round"/>
<path d="M19.92 20.74C19.9398 20.5802 20.0173 20.4332 20.1379 20.3266C20.2585 20.2199 20.414 20.1611 20.575 20.1611C20.736 20.1611 20.8914 20.2199 21.0121 20.3266C21.1327 20.4332 21.2102 20.5802 21.23 20.74V26H27.79V20.74C27.8098 20.5802 27.8873 20.4332 28.0079 20.3266C28.1286 20.2199 28.284 20.1611 28.445 20.1611C28.606 20.1611 28.7614 20.2199 28.8821 20.3266C29.0027 20.4332 29.0802 20.5802 29.1 20.74V32.55C29.0802 32.7098 29.0027 32.8568 28.8821 32.9634C28.7614 33.0701 28.606 33.1289 28.445 33.1289C28.284 33.1289 28.1286 33.0701 28.0079 32.9634C27.8873 32.8568 27.8098 32.7098 27.79 32.55V27.3H21.23V32.55C21.2102 32.7098 21.1327 32.8568 21.0121 32.9634C20.8914 33.0701 20.736 33.1289 20.575 33.1289C20.414 33.1289 20.2585 33.0701 20.1379 32.9634C20.0173 32.8568 19.9398 32.7098 19.92 32.55V20.74Z" fill="#071146"/>
<path d="M32.55 22.05C32.5509 22.2424 32.4849 22.4291 32.3634 22.5782C32.2418 22.7273 32.0722 22.8296 31.8836 22.8675C31.695 22.9054 31.4991 22.8767 31.3294 22.7861C31.1596 22.6956 31.0266 22.5489 30.9531 22.3711C30.8795 22.1934 30.87 21.9956 30.9261 21.8116C30.9823 21.6276 31.1006 21.4688 31.2608 21.3624C31.4211 21.2559 31.6133 21.2085 31.8047 21.2281C31.9961 21.2478 32.1747 21.3332 32.31 21.47C32.3875 21.5451 32.4488 21.6354 32.4901 21.7351C32.5313 21.8349 32.5517 21.9421 32.55 22.05ZM31.07 24.68C31.0898 24.5202 31.1673 24.3732 31.2879 24.2666C31.4085 24.1599 31.564 24.1011 31.725 24.1011C31.886 24.1011 32.0414 24.1599 32.1621 24.2666C32.2827 24.3732 32.3602 24.5202 32.38 24.68V32.56C32.3602 32.7198 32.2827 32.8668 32.1621 32.9734C32.0414 33.0801 31.886 33.1389 31.725 33.1389C31.564 33.1389 31.4085 33.0801 31.2879 32.9734C31.1673 32.8668 31.0898 32.7198 31.07 32.56V24.68Z" fill="#071146"/>
<path d="M25.61 77.1598L25.1221 76.7612C23.6081 75.5242 21.378 75.7488 20.141 77.2628L17.724 80.2209C16.4871 81.735 16.7116 83.9651 18.2256 85.2021L18.7135 85.6007C20.2275 86.8377 22.4576 86.6131 23.6946 85.0991L26.1115 82.1409C27.3485 80.6269 27.124 78.3968 25.61 77.1598Z" stroke="#FEDB8F" stroke-width="2" stroke-linecap="round" stroke-linejoin="round"/>
<path d="M33.8913 67.024L33.4034 66.6254C31.8894 65.3884 29.6593 65.613 28.4223 67.127L26.0053 70.0852C24.7683 71.5992 24.9929 73.8293 26.5069 75.0663L26.9948 75.4649C28.5088 76.7019 30.7389 76.4773 31.9759 74.9633L34.3928 72.0051C35.6298 70.4911 35.4053 68.261 33.8913 67.024Z" stroke="#FEDB8F" stroke-width="2" stroke-linecap="round" stroke-linejoin="round"/>
<path d="M22.3 80.72L29.95 71.35" stroke="#FEDB8F" stroke-width="2" stroke-linecap="round" stroke-linejoin="round"/>
<path d="M60.27 87.24C60.274 86.6034 60.4173 85.9753 60.69 85.4C61.0661 84.7023 61.494 84.0338 61.97 83.4C62.3767 82.8694 62.6385 82.2423 62.73 81.58C62.7888 80.9433 62.7069 80.3015 62.49 79.7C62.3499 79.1867 62.1088 78.7065 61.7809 78.2875C61.4529 77.8686 61.0446 77.5192 60.58 77.26C60.1319 77.034 59.6412 76.9047 59.1399 76.8806C58.6386 76.8565 58.1378 76.9381 57.67 77.12C56.8162 77.3703 56.0702 77.8981 55.55 78.62C55.0761 79.3192 54.8507 80.1574 54.91 81H53C53.0323 79.7753 53.4216 78.5866 54.12 77.58C54.8513 76.5372 55.9056 75.764 57.12 75.38C58.0457 75.06 59.0403 74.9944 60 75.19C60.9698 75.3787 61.8752 75.8125 62.63 76.45C63.3734 77.1071 63.9398 77.9404 64.277 78.8735C64.6142 79.8066 64.7115 80.8095 64.56 81.79C64.3139 82.6803 63.9183 83.5223 63.39 84.28C62.9633 84.9467 62.63 85.4667 62.39 85.84C62.1664 86.2861 62.0338 86.7722 62 87.27C61.9601 87.9331 62.0589 88.5972 62.29 89.22L60.67 89.77C60.3926 88.9559 60.2573 88.1 60.27 87.24V87.24ZM62.66 96.18C62.4702 96.0967 62.3 95.9744 62.1605 95.8211C62.0209 95.6677 61.9151 95.4868 61.85 95.29C61.7817 95.0928 61.7545 94.8838 61.7699 94.6757C61.7854 94.4676 61.8433 94.2649 61.94 94.08C62.0233 93.8947 62.1433 93.7282 62.2929 93.5907C62.4424 93.4532 62.6184 93.3475 62.81 93.28C63.208 93.1603 63.6367 93.1971 64.0085 93.383C64.3803 93.5689 64.667 93.8898 64.81 94.28C64.8739 94.4758 64.8962 94.6828 64.8756 94.8877C64.8549 95.0926 64.7917 95.2909 64.69 95.47C64.6036 95.6579 64.4803 95.8264 64.3274 95.9655C64.1745 96.1047 63.9951 96.2117 63.8 96.28C63.4215 96.3965 63.0125 96.3606 62.66 96.18V96.18Z" stroke="#B1DEF5" stroke-width="2" stroke-miterlimit="10"/>
</g>
<defs>
<clipPath id="clip0">
<rect width="166.52" height="108.38" fill="white"/>
</clipPath>
</defs>
</svg>
