<svg width="586" height="274" viewBox="0 0 586 274" fill="none" xmlns="http://www.w3.org/2000/svg">
<g clip-path="url(#clip0)">
<path d="M0 61H580.009C581.332 61 582.602 61.4106 583.538 62.1414C584.474 62.8723 585 63.8635 585 64.8971V269.103C585 270.137 584.474 271.128 583.538 271.859C582.602 272.589 581.332 273 580.009 273H0V61Z" fill="#FEDB8F"/>
<path d="M77.03 269.84C95.3272 269.84 110.16 255.007 110.16 236.71C110.16 218.413 95.3272 203.58 77.03 203.58C58.7328 203.58 43.9 218.413 43.9 236.71C43.9 255.007 58.7328 269.84 77.03 269.84Z" fill="white"/>
<path d="M72.59 264.03C90.8872 264.03 105.72 249.197 105.72 230.9C105.72 212.603 90.8872 197.77 72.59 197.77C54.2928 197.77 39.46 212.603 39.46 230.9C39.46 249.197 54.2928 264.03 72.59 264.03Z" stroke="#071146" stroke-width="2" stroke-linecap="round" stroke-linejoin="round"/>
<path d="M69.57 212.25V232.42H88.9" stroke="#071146" stroke-width="2" stroke-linecap="round" stroke-linejoin="round"/>
<path d="M41.15 269.83L53.23 257.76" stroke="#071146" stroke-width="2" stroke-linecap="round" stroke-linejoin="round"/>
<path d="M104.27 269.83L92.19 257.76" stroke="#071146" stroke-width="2" stroke-linecap="round" stroke-linejoin="round"/>
<path d="M45.29 212.13C44.3515 211.338 43.5957 210.353 43.0745 209.241C42.5533 208.129 42.2792 206.918 42.271 205.69C42.2627 204.462 42.5206 203.247 43.0268 202.129C43.533 201.01 44.2755 200.014 45.2033 199.21C46.1311 198.406 47.2221 197.812 48.4012 197.47C49.5803 197.128 50.8196 197.045 52.0338 197.227C53.248 197.41 54.4083 197.853 55.4347 198.527C56.4612 199.201 57.3296 200.089 57.98 201.13" stroke="#071146" stroke-width="2" stroke-linecap="round" stroke-linejoin="round"/>
<path d="M100 212.13C100.938 211.338 101.694 210.353 102.215 209.241C102.737 208.129 103.011 206.918 103.019 205.69C103.027 204.462 102.769 203.247 102.263 202.129C101.757 201.01 101.015 200.014 100.087 199.21C99.159 198.406 98.068 197.812 96.8888 197.47C95.7097 197.128 94.4704 197.045 93.2562 197.227C92.042 197.41 90.8817 197.853 89.8553 198.527C88.8288 199.201 87.9604 200.089 87.31 201.13" stroke="#071146" stroke-width="2" stroke-linecap="round" stroke-linejoin="round"/>
<path d="M348.83 220.33H493.4V207.33C493.454 204.216 492.274 201.206 490.118 198.958C487.961 196.71 485.004 195.406 481.89 195.33H358.64C355.526 195.406 352.568 196.71 350.412 198.958C348.256 201.206 347.076 204.216 347.13 207.33V220.33H348.83Z" fill="white"/>
<path d="M340.9 271.58V207.33C340.9 204.147 342.164 201.095 344.415 198.845C346.665 196.594 349.717 195.33 352.9 195.33H481.4C484.583 195.33 487.635 196.594 489.885 198.845C492.136 201.095 493.4 204.147 493.4 207.33V271.58" stroke="#071146" stroke-width="2" stroke-linecap="round" stroke-linejoin="round"/>
<path d="M340.9 220.33H493.4" stroke="#071146" stroke-width="2" stroke-linecap="round" stroke-linejoin="round"/>
<path d="M373.82 270.75C373.82 271.087 373.686 271.41 373.448 271.648C373.21 271.886 372.887 272.02 372.55 272.02C372.213 272.02 371.89 271.886 371.652 271.648C371.414 271.41 371.28 271.087 371.28 270.75V249.7L369.28 250.38C369.125 250.444 368.958 250.478 368.79 250.48C368.453 250.48 368.13 250.346 367.892 250.108C367.654 249.87 367.52 249.547 367.52 249.21C367.518 249.042 367.551 248.875 367.617 248.721C367.682 248.566 367.779 248.426 367.9 248.31C368.022 248.185 368.168 248.086 368.33 248.02L372.13 246.75C372.277 246.695 372.433 246.668 372.59 246.67C372.927 246.67 373.25 246.804 373.488 247.042C373.726 247.28 373.86 247.603 373.86 247.94L373.82 270.75Z" fill="#0052CC"/>
<path d="M379.95 257.94C379.79 257.8 379.633 257.653 379.48 257.5C378.598 256.611 377.999 255.482 377.758 254.253C377.518 253.025 377.646 251.752 378.127 250.597C378.608 249.441 379.421 248.454 380.463 247.759C381.504 247.065 382.728 246.694 383.98 246.694C385.232 246.694 386.456 247.065 387.497 247.759C388.539 248.454 389.352 249.441 389.833 250.597C390.314 251.752 390.442 253.025 390.202 254.253C389.961 255.482 389.362 256.611 388.48 257.5C388.32 257.66 388.163 257.807 388.01 257.94C388.507 258.254 388.969 258.619 389.39 259.03C390.455 260.094 391.18 261.45 391.474 262.926C391.767 264.403 391.617 265.933 391.041 267.324C390.465 268.714 389.49 269.903 388.238 270.739C386.987 271.576 385.515 272.022 384.01 272.022C382.505 272.022 381.033 271.576 379.782 270.739C378.53 269.903 377.555 268.714 376.979 267.324C376.403 265.933 376.253 264.403 376.546 262.926C376.84 261.45 377.565 260.094 378.63 259.03C379.029 258.62 379.472 258.254 379.95 257.94ZM383.95 259.35C382.78 259.353 381.647 259.762 380.744 260.507C379.842 261.251 379.225 262.286 378.999 263.434C378.773 264.582 378.953 265.773 379.506 266.804C380.06 267.835 380.954 268.642 382.035 269.088C383.117 269.534 384.32 269.591 385.44 269.25C386.559 268.909 387.525 268.19 388.174 267.216C388.823 266.243 389.115 265.074 388.999 263.91C388.884 262.745 388.368 261.657 387.54 260.83C387.08 260.357 386.53 259.983 385.921 259.728C385.313 259.474 384.659 259.345 384 259.35H383.95ZM383.95 249.21C383.068 249.208 382.213 249.512 381.531 250.07C380.848 250.628 380.38 251.405 380.207 252.269C380.033 253.134 380.164 254.031 380.578 254.81C380.992 255.588 381.664 256.198 382.477 256.537C383.291 256.876 384.197 256.922 385.041 256.668C385.885 256.413 386.615 255.874 387.106 255.142C387.597 254.41 387.819 253.53 387.734 252.653C387.649 251.775 387.262 250.954 386.64 250.33C386.298 249.975 385.888 249.693 385.434 249.501C384.981 249.308 384.493 249.209 384 249.21H383.95Z" fill="#0052CC"/>
<path d="M406.14 270.75C406.112 271.066 405.966 271.36 405.732 271.574C405.498 271.789 405.192 271.907 404.875 271.907C404.558 271.907 404.252 271.789 404.018 271.574C403.784 271.36 403.638 271.066 403.61 270.75V255.55C403.638 255.234 403.784 254.94 404.018 254.726C404.252 254.511 404.558 254.393 404.875 254.393C405.192 254.393 405.498 254.511 405.732 254.726C405.966 254.94 406.112 255.234 406.14 255.55V255.88C407.374 254.821 408.954 254.252 410.58 254.28C411.495 254.26 412.404 254.427 413.252 254.77C414.099 255.114 414.868 255.628 415.51 256.28C415.793 256.56 416.053 256.861 416.29 257.18C416.526 256.86 416.787 256.559 417.07 256.28C418.05 255.319 419.291 254.667 420.639 254.406C421.987 254.145 423.381 254.286 424.65 254.812C425.918 255.337 427.003 256.224 427.772 257.361C428.54 258.499 428.957 259.837 428.97 261.21V270.71C428.942 271.026 428.796 271.32 428.562 271.534C428.328 271.749 428.022 271.867 427.705 271.867C427.388 271.867 427.082 271.749 426.848 271.534C426.614 271.32 426.468 271.026 426.44 270.71V261.21C426.386 260.07 425.895 258.995 425.069 258.207C424.243 257.42 423.146 256.981 422.005 256.981C420.864 256.981 419.767 257.42 418.941 258.207C418.115 258.995 417.624 260.07 417.57 261.21V270.71C417.542 271.026 417.396 271.32 417.162 271.534C416.928 271.749 416.622 271.867 416.305 271.867C415.988 271.867 415.682 271.749 415.448 271.534C415.214 271.32 415.068 271.026 415.04 270.71V261.21C414.986 260.07 414.495 258.995 413.669 258.207C412.843 257.42 411.746 256.981 410.605 256.981C409.464 256.981 408.367 257.42 407.541 258.207C406.715 258.995 406.224 260.07 406.17 261.21L406.14 270.75Z" fill="#0052CC"/>
<path d="M446.69 269.36C445.871 270.213 444.886 270.89 443.796 271.347C442.705 271.805 441.532 272.034 440.35 272.02C438.596 272.02 436.881 271.5 435.422 270.525C433.963 269.551 432.827 268.165 432.155 266.544C431.484 264.924 431.308 263.14 431.65 261.42C431.993 259.699 432.837 258.118 434.078 256.878C435.318 255.637 436.899 254.793 438.62 254.45C440.34 254.108 442.124 254.284 443.744 254.955C445.365 255.627 446.75 256.763 447.725 258.222C448.7 259.681 449.22 261.396 449.22 263.15V270.75C449.22 271.087 449.086 271.41 448.848 271.648C448.61 271.886 448.287 272.02 447.95 272.02C447.613 272.02 447.29 271.886 447.052 271.648C446.814 271.41 446.68 271.087 446.68 270.75L446.69 269.36ZM440.35 256.81C438.886 256.812 437.467 257.321 436.336 258.252C435.205 259.182 434.432 260.476 434.148 261.912C433.864 263.349 434.087 264.84 434.779 266.13C435.471 267.421 436.588 268.432 437.942 268.991C439.295 269.55 440.801 269.622 442.202 269.196C443.603 268.769 444.812 267.87 445.625 266.652C446.437 265.433 446.802 263.971 446.657 262.514C446.512 261.056 445.866 259.695 444.83 258.66C444.25 258.064 443.555 257.592 442.786 257.274C442.017 256.956 441.192 256.798 440.36 256.81H440.35Z" fill="#0052CC"/>
<path d="M456.51 272L457.03 270.76L450.95 256.15C450.851 255.956 450.803 255.74 450.811 255.523C450.819 255.306 450.883 255.094 450.996 254.908C451.109 254.722 451.269 254.569 451.459 254.462C451.648 254.356 451.862 254.3 452.08 254.3C452.246 254.298 452.412 254.328 452.566 254.39C452.72 254.452 452.861 254.544 452.98 254.66C453.111 254.798 453.213 254.962 453.28 255.14L458.41 267.45L463.54 255.14C463.611 254.959 463.72 254.795 463.86 254.66C463.976 254.542 464.115 254.45 464.268 254.388C464.421 254.326 464.585 254.296 464.75 254.3C465.087 254.3 465.41 254.434 465.648 254.672C465.886 254.91 466.02 255.233 466.02 255.57C466.023 255.775 465.975 255.978 465.88 256.16L459.25 272" fill="#0052CC"/>
<path d="M378.08 208C375.384 208 372.749 207.201 370.508 205.703C368.266 204.205 366.519 202.077 365.488 199.586C364.456 197.095 364.186 194.355 364.712 191.711C365.238 189.067 366.536 186.638 368.442 184.732C370.348 182.826 372.777 181.528 375.421 181.002C378.065 180.476 380.805 180.746 383.296 181.778C385.787 182.809 387.915 184.556 389.413 186.798C390.911 189.039 391.71 191.674 391.71 194.37" stroke="#0052CC" stroke-width="2" stroke-miterlimit="10"/>
<path d="M417 208C414.304 208 411.669 207.201 409.428 205.703C407.186 204.205 405.439 202.077 404.408 199.586C403.376 197.095 403.106 194.355 403.632 191.711C404.158 189.067 405.456 186.638 407.362 184.732C409.268 182.826 411.697 181.528 414.341 181.002C416.985 180.476 419.725 180.746 422.216 181.778C424.707 182.809 426.835 184.556 428.333 186.798C429.831 189.039 430.63 191.674 430.63 194.37" stroke="#0052CC" stroke-width="2" stroke-miterlimit="10"/>
<path d="M456.22 208C453.524 208 450.889 207.201 448.648 205.703C446.406 204.205 444.659 202.077 443.628 199.586C442.596 197.095 442.326 194.355 442.852 191.711C443.378 189.067 444.676 186.638 446.582 184.732C448.488 182.826 450.917 181.528 453.561 181.002C456.205 180.476 458.945 180.746 461.436 181.778C463.927 182.809 466.055 184.556 467.553 186.798C469.051 189.039 469.85 191.674 469.85 194.37" stroke="#0052CC" stroke-width="2" stroke-miterlimit="10"/>
<path d="M205.68 167.809C205.31 160.209 206.39 151.809 212.06 146.699C213.16 145.89 214.131 144.919 214.94 143.819C215.662 142.31 215.969 140.636 215.83 138.969L215.92 115.169C215.836 113.814 216.02 112.454 216.46 111.169C217.087 110.038 217.802 108.958 218.6 107.939C219.91 105.839 220.3 103.299 220.66 100.849C223.66 80.7494 228.11 59.5994 242.01 44.7694C244.42 42.1994 247.53 39.6994 251.01 40.0294C254.49 40.3594 257.37 43.7594 258.14 47.3094C258.91 50.8594 258.14 54.5494 257.37 58.0994C254.51 70.9394 251.23 83.6761 247.53 96.3094C245.95 101.699 244.2 107.239 240.53 111.449C239.754 112.223 239.082 113.093 238.53 114.039C237.66 115.789 237.94 117.859 238.18 119.799C239.1 127.139 239.287 134.552 238.74 141.929C238.48 145.359 237.59 149.419 234.38 150.629C233.48 150.969 232.38 151.069 231.79 151.779C230.73 152.989 231.58 155.079 230.62 156.359C229.9 157.359 228.52 157.359 227.38 157.779C224.3 158.779 222.76 162.429 222.96 165.669C223.16 168.909 224.7 171.889 226.02 174.849C231.094 186.249 233.436 198.675 232.86 211.139C232.75 213.389 232.49 215.779 231.07 217.529C225.62 224.229 215.48 202.879 213.57 198.879C208.912 189.146 206.23 178.586 205.68 167.809Z" fill="#95E196"/>
<path d="M189.41 166.439C187.8 162.699 186.17 158.909 185.62 154.869H189.7L172.4 105.819C171.4 102.949 170.4 99.7594 171.52 96.9394C172.64 94.1194 177.08 92.7094 178.75 95.2594C176.165 90.1285 174.41 84.6201 173.55 78.9394C173.14 76.1994 173.46 72.5894 176.11 71.7994C177.95 71.2494 179.85 72.5094 181.11 73.9294C185.02 78.1794 186.42 84.0894 187.65 89.7294C190.17 101.289 192.573 112.876 194.86 124.489C192.69 123.139 195.5 119.489 197.93 120.249C200.36 121.009 201.4 123.829 202.12 126.249L207.42 144.169L221.89 193.059C223.35 197.989 224.81 203.279 223.29 208.189C222.06 212.189 217.65 216.109 213.29 215.189C208.45 214.189 207.37 209.189 205.91 205.239C201 192.149 195 179.339 189.41 166.439Z" fill="#95E196"/>
<path d="M237.07 175.109C237.144 174.765 237.286 174.438 237.487 174.148C237.687 173.858 237.943 173.61 238.24 173.419C238.778 173.261 239.342 173.207 239.9 173.259C243.07 173.089 244.31 169.139 244.9 166.019C246.746 156.628 250.346 147.668 255.51 139.609C256.022 138.62 256.825 137.81 257.81 137.289C258.058 137.177 258.327 137.117 258.6 137.113C258.872 137.109 259.143 137.16 259.394 137.264C259.646 137.368 259.874 137.522 260.064 137.718C260.255 137.913 260.403 138.145 260.5 138.399L266.67 131.559C267.85 130.249 269.67 128.829 271.17 129.759C271.518 130.027 271.807 130.363 272.02 130.746C272.234 131.13 272.366 131.553 272.41 131.989C273.19 136.109 271.26 140.219 269.33 143.989C266.663 149.116 263.897 154.186 261.03 159.199C262.342 158.107 263.959 157.447 265.66 157.309C267 160.599 264.9 164.189 262.9 167.109L252.08 182.899L254.98 183.149C251.71 192.239 247.344 200.896 241.98 208.929C240.46 211.199 236.44 215.929 233.4 212.929C231.51 211.109 232.4 204.809 232.4 202.519C232.442 193.188 234.019 183.928 237.07 175.109Z" fill="#95E196"/>
<path d="M241.38 208.959H211.55C204.923 208.959 199.55 214.332 199.55 220.959V258.959C199.55 265.587 204.923 270.959 211.55 270.959H241.38C248.007 270.959 253.38 265.587 253.38 258.959V220.959C253.38 214.332 248.007 208.959 241.38 208.959Z" fill="#FCAA90"/>
<path d="M237.4 208.959H207.57C200.943 208.959 195.57 214.332 195.57 220.959V258.959C195.57 265.587 200.943 270.959 207.57 270.959H237.4C244.027 270.959 249.4 265.587 249.4 258.959V220.959C249.4 214.332 244.027 208.959 237.4 208.959Z" stroke="#071146" stroke-width="2" stroke-linecap="round" stroke-linejoin="round"/>
<path d="M233.38 232.399H211.59C207.415 232.399 204.03 235.784 204.03 239.959V239.969C204.03 244.145 207.415 247.529 211.59 247.529H233.38C237.555 247.529 240.94 244.145 240.94 239.969V239.959C240.94 235.784 237.555 232.399 233.38 232.399Z" stroke="white" stroke-width="2" stroke-linecap="round" stroke-linejoin="round"/>
<path d="M2.57001 76C15.41 65 28.43 53.8 43.57 46.35C58.71 38.9 76.57 35.44 92.72 40.56C108.87 45.68 122.34 60.75 122.29 77.72C122.29 91.35 114.13 103.4 107.29 115.18C100.45 126.96 94.53 141.05 99.12 153.87C105.02 170.34 125.38 176.52 142.78 175.59C159.54 174.7 175.78 169.44 191.5 163.59C220.132 152.979 247.961 140.316 274.77 125.7C301.27 111.25 326.98 94.81 355.52 85.04C363.43 82.33 373.42 80.64 379.08 86.81C383.81 91.97 382.94 100.12 380.65 106.74C378.36 113.36 375 120 375.51 127C376.4 139.1 389.38 147.35 401.51 147.39C413.64 147.43 424.81 141.53 435.45 135.78L495.45 103.33C506.01 97.62 516.92 91.8 528.85 90.55C540.78 89.3 554.13 93.72 559.95 104.26C565.77 114.8 562.58 128.17 556.6 138.59C550.62 149.01 542.11 157.83 536.4 168.41C533.75 173.33 531.69 178.89 532.48 184.41C533.94 194.67 544.94 201.32 555.25 201.5C565.56 201.68 575.25 197.02 584.55 192.5" stroke="white" stroke-width="2" stroke-linecap="round" stroke-linejoin="round" stroke-dasharray="6 6"/>
<path d="M155.334 104.205L115.071 121.371C112.068 122.651 110.672 126.123 111.952 129.125L124.364 158.24C125.644 161.242 129.116 162.639 132.119 161.359L172.382 144.193C175.385 142.913 176.781 139.441 175.501 136.439L163.089 107.324C161.808 104.322 158.337 102.925 155.334 104.205Z" fill="white"/>
<path d="M107.43 133.32L137.14 136.61C138.83 136.796 140.54 136.544 142.105 135.876C143.669 135.209 145.035 134.149 146.07 132.8L164.27 109.08" stroke="#071146" stroke-width="2" stroke-linecap="round" stroke-linejoin="round"/>
<path d="M174.11 132.17L149.09 129.4" stroke="#071146" stroke-width="2" stroke-linecap="round" stroke-linejoin="round"/>
<path d="M132.6 136.43L117.27 156.4" stroke="#071146" stroke-width="2" stroke-linecap="round" stroke-linejoin="round"/>
<path d="M153.381 100.221L108.573 119.324C105.25 120.74 103.705 124.582 105.121 127.905L118.777 159.935C120.194 163.258 124.035 164.803 127.358 163.386L172.166 144.284C175.488 142.867 177.034 139.025 175.617 135.703L161.961 103.672C160.545 100.349 156.703 98.8043 153.381 100.221Z" stroke="#071146" stroke-width="2" stroke-linecap="round" stroke-linejoin="round"/>
<path d="M430.834 66.0026L387.654 58.8387C384.434 58.3045 381.391 60.4818 380.856 63.7018L375.676 94.925C375.142 98.145 377.319 101.188 380.539 101.723L423.719 108.886C426.939 109.421 429.982 107.243 430.517 104.023L435.697 72.8002C436.231 69.5802 434.054 66.5368 430.834 66.0026Z" fill="white"/>
<path d="M374.79 64.83L398.08 83.57C399.405 84.6366 400.983 85.3433 402.661 85.6218C404.34 85.9003 406.061 85.7413 407.66 85.16L435.75 74.94" stroke="#071146" stroke-width="2" stroke-linecap="round" stroke-linejoin="round"/>
<path d="M431.64 99.69L412.03 83.91" stroke="#071146" stroke-width="2" stroke-linecap="round" stroke-linejoin="round"/>
<path d="M394.34 80.97L370.68 89.58" stroke="#071146" stroke-width="2" stroke-linecap="round" stroke-linejoin="round"/>
<path d="M431.334 61.5956L383.28 53.6233C379.717 53.0321 376.349 55.4414 375.758 59.0047L370.059 93.3551C369.468 96.9184 371.877 100.286 375.441 100.877L423.494 108.85C427.057 109.441 430.425 107.032 431.016 103.468L436.715 69.1179C437.306 65.5546 434.897 62.1868 431.334 61.5956Z" stroke="#071146" stroke-width="2" stroke-linecap="round" stroke-linejoin="round"/>
<path d="M295.659 72.3398L251.889 72.1946C248.625 72.1838 245.97 74.821 245.959 78.085L245.854 109.735C245.844 112.999 248.481 115.654 251.745 115.664L295.514 115.81C298.778 115.82 301.433 113.183 301.444 109.919L301.549 78.2694C301.56 75.0054 298.923 72.3506 295.659 72.3398Z" fill="white"/>
<path d="M240.15 80.18L266.15 94.95C267.632 95.785 269.304 96.2237 271.005 96.2237C272.706 96.2237 274.378 95.785 275.86 94.95L301.95 80.36" stroke="#071146" stroke-width="2" stroke-linecap="round" stroke-linejoin="round"/>
<path d="M301.85 105.47L279.96 93.04" stroke="#071146" stroke-width="2" stroke-linecap="round" stroke-linejoin="round"/>
<path d="M262.03 92.98L240.06 105.26" stroke="#071146" stroke-width="2" stroke-linecap="round" stroke-linejoin="round"/>
<path d="M295.443 67.9091L246.734 67.7476C243.122 67.7356 240.184 70.6539 240.172 74.2659L240.057 109.086C240.045 112.698 242.963 115.635 246.575 115.647L295.285 115.809C298.896 115.821 301.834 112.902 301.846 109.291L301.962 74.4708C301.974 70.8588 299.055 67.9211 295.443 67.9091Z" stroke="#071146" stroke-width="2" stroke-linecap="round" stroke-linejoin="round"/>
</g>
<defs>
<clipPath id="clip0">
<rect width="586" height="273.02" fill="white"/>
</clipPath>
</defs>
</svg>
