<svg width="82" height="96" viewBox="0 0 82 96" fill="none" xmlns="http://www.w3.org/2000/svg">
<g clip-path="url(#clip0)">
<path d="M75.0358 40.4961L13.4762 40.292C10.7755 40.283 8.57939 42.323 8.57102 44.8485L8.42366 89.285C8.41529 91.8104 10.5978 93.8649 13.2985 93.8739L74.8581 94.078C77.5588 94.087 79.7549 92.047 79.7633 89.5215L79.9106 45.085C79.919 42.5596 77.7365 40.5051 75.0358 40.4961Z" fill="#B3C1F4"/>
<path d="M76.4449 4.46206L11.8653 4.2479C9.99856 4.24171 8.48086 5.57132 8.47541 7.21766L8.41519 25.3768C8.40973 27.0232 9.91857 28.3628 11.7853 28.369L76.3649 28.5832C78.2316 28.5894 79.7493 27.2598 79.7548 25.6134L79.815 7.45423C79.8205 5.80789 78.3116 4.46825 76.4449 4.46206Z" fill="#FCAA90"/>
<path d="M72.358 36.7694L9.26835 36.5602C4.79487 36.5454 1.15637 40.1598 1.14154 44.6333L1.00524 85.7331C0.990408 90.2065 4.60486 93.845 9.07834 93.8599L72.168 94.0691C76.6415 94.0839 80.28 90.4695 80.2948 85.996L80.4311 44.8962C80.4459 40.4227 76.8315 36.7842 72.358 36.7694Z" stroke="#071146" stroke-width="2" stroke-linecap="round" stroke-linejoin="round"/>
<path d="M74.7959 1.22782L6.74625 1.00216C3.64243 0.991864 1.11794 3.49967 1.10765 6.60349L1.05356 22.9134C1.04327 26.0172 3.55107 28.5417 6.65489 28.552L74.7045 28.7777C77.8083 28.788 80.3328 26.2802 80.3431 23.1763L80.3972 6.86642C80.4075 3.7626 77.8997 1.23811 74.7959 1.22782Z" stroke="#071146" stroke-width="2" stroke-linecap="round" stroke-linejoin="round"/>
<path d="M29.29 48.6899H20.53C18.2491 48.6899 16.4 50.539 16.4 52.8199V61.5799C16.4 63.8609 18.2491 65.7099 20.53 65.7099H29.29C31.571 65.7099 33.42 63.8609 33.42 61.5799V52.8199C33.42 50.539 31.571 48.6899 29.29 48.6899Z" stroke="#071146" stroke-width="2" stroke-linecap="round" stroke-linejoin="round"/>
<path d="M60.99 48.6899H52.23C49.9491 48.6899 48.1 50.539 48.1 52.8199V61.5799C48.1 63.8609 49.9491 65.7099 52.23 65.7099H60.99C63.271 65.7099 65.12 63.8609 65.12 61.5799V52.8199C65.12 50.539 63.271 48.6899 60.99 48.6899Z" stroke="#071146" stroke-width="2" stroke-linecap="round" stroke-linejoin="round"/>
<path d="M16.4 75.1299H65.12" stroke="#071146" stroke-width="2" stroke-linecap="round" stroke-linejoin="round"/>
<path d="M16.4 83.75H65.12" stroke="#071146" stroke-width="2" stroke-linecap="round" stroke-linejoin="round"/>
<path d="M16.4 10.58H65.12" stroke="#071146" stroke-width="2" stroke-linecap="round" stroke-linejoin="round"/>
<path d="M16.4 19.2H65.12" stroke="#071146" stroke-width="2" stroke-linecap="round" stroke-linejoin="round"/>
</g>
<defs>
<clipPath id="clip0">
<rect width="81.43" height="95.08" fill="white"/>
</clipPath>
</defs>
</svg>
