<svg width="586" height="273" viewBox="0 0 586 273" fill="none" xmlns="http://www.w3.org/2000/svg">
<g clip-path="url(#clip0)">
<path d="M0 76H581C582.326 76 583.598 76.3796 584.536 77.0553C585.473 77.731 586 78.6474 586 79.6029V268.397C586 269.353 585.473 270.269 584.536 270.945C583.598 271.62 582.326 272 581 272H0V76Z" fill="#B3C1F4"/>
<path d="M528.383 37.3618L497.933 37.2608C495.664 37.2533 493.817 39.0873 493.81 41.3572L493.737 63.3771C493.729 65.6469 495.563 67.4931 497.833 67.5007L528.283 67.6016C530.553 67.6092 532.399 65.7752 532.407 63.5053L532.48 41.4854C532.487 39.2155 530.653 37.3693 528.383 37.3618Z" fill="white"/>
<path d="M489.77 42.84L507.85 53.11C508.88 53.69 510.043 53.9947 511.225 53.9947C512.407 53.9947 513.57 53.69 514.6 53.11L532.75 43" stroke="#071146" stroke-width="2" stroke-linecap="round" stroke-linejoin="round"/>
<path d="M532.69 60.43L517.46 51.78" stroke="#071146" stroke-width="2" stroke-linecap="round" stroke-linejoin="round"/>
<path d="M504.99 51.74L489.71 60.29" stroke="#071146" stroke-width="2" stroke-linecap="round" stroke-linejoin="round"/>
<path d="M528.233 34.2813L494.354 34.1689C491.841 34.1606 489.797 36.1909 489.789 38.7038L489.708 62.9237C489.7 65.4366 491.73 67.4804 494.243 67.4887L528.123 67.6011C530.636 67.6094 532.68 65.5791 532.688 63.0662L532.768 38.8463C532.777 36.3335 530.746 34.2896 528.233 34.2813Z" stroke="#071146" stroke-width="2" stroke-linecap="round" stroke-linejoin="round"/>
<path d="M418.937 78.6386L388.487 78.5376C386.217 78.5301 384.371 80.3641 384.364 82.634L384.291 104.654C384.283 106.924 386.117 108.77 388.387 108.777L418.837 108.878C421.107 108.886 422.953 107.052 422.96 104.782L423.033 82.7622C423.041 80.4924 421.207 78.6461 418.937 78.6386Z" fill="white"/>
<path d="M380.31 84.11L398.39 94.38C399.42 94.96 400.583 95.2647 401.765 95.2647C402.947 95.2647 404.11 94.96 405.14 94.38L423.3 84.25" stroke="#071146" stroke-width="2" stroke-linecap="round" stroke-linejoin="round"/>
<path d="M423.24 101.7L408.01 93.05" stroke="#071146" stroke-width="2" stroke-linecap="round" stroke-linejoin="round"/>
<path d="M395.54 93.01L380.26 101.56" stroke="#071146" stroke-width="2" stroke-linecap="round" stroke-linejoin="round"/>
<path d="M418.777 75.5581L384.897 75.4458C382.385 75.4374 380.341 77.4678 380.332 79.9806L380.252 104.201C380.244 106.713 382.274 108.757 384.787 108.766L418.667 108.878C421.18 108.886 423.223 106.856 423.232 104.343L423.312 80.1232C423.32 77.6103 421.29 75.5664 418.777 75.5581Z" stroke="#071146" stroke-width="2" stroke-linecap="round" stroke-linejoin="round"/>
<path d="M528.39 119.911L497.94 119.81C495.67 119.803 493.824 121.637 493.816 123.907L493.743 145.927C493.736 148.196 495.57 150.043 497.839 150.05L528.289 150.151C530.559 150.159 532.405 148.325 532.413 146.055L532.486 124.035C532.493 121.765 530.659 119.919 528.39 119.911Z" fill="white"/>
<path d="M489.77 125.38L507.85 135.65C508.88 136.23 510.043 136.535 511.225 136.535C512.407 136.535 513.57 136.23 514.6 135.65L532.75 125.5" stroke="#071146" stroke-width="2" stroke-linecap="round" stroke-linejoin="round"/>
<path d="M532.69 142.98L517.46 134.33" stroke="#071146" stroke-width="2" stroke-linecap="round" stroke-linejoin="round"/>
<path d="M504.99 134.28L489.71 142.83" stroke="#071146" stroke-width="2" stroke-linecap="round" stroke-linejoin="round"/>
<path d="M528.24 116.821L494.36 116.708C491.847 116.7 489.803 118.73 489.795 121.243L489.715 145.463C489.706 147.976 491.737 150.02 494.249 150.028L528.129 150.141C530.642 150.149 532.686 148.119 532.694 145.606L532.775 121.386C532.783 118.873 530.753 116.829 528.24 116.821Z" stroke="#071146" stroke-width="2" stroke-linecap="round" stroke-linejoin="round"/>
<path d="M418.943 161.188L388.493 161.087C386.224 161.08 384.377 162.914 384.37 165.184L384.297 187.203C384.289 189.473 386.123 191.319 388.393 191.327L418.843 191.428C421.113 191.436 422.959 189.602 422.967 187.332L423.04 165.312C423.047 163.042 421.213 161.196 418.943 161.188Z" fill="white"/>
<path d="M380.31 166.65L398.39 176.92C399.42 177.5 400.583 177.805 401.765 177.805C402.947 177.805 404.11 177.5 405.14 176.92L423.3 166.8" stroke="#071146" stroke-width="2" stroke-linecap="round" stroke-linejoin="round"/>
<path d="M423.24 184.25L408.01 175.6" stroke="#071146" stroke-width="2" stroke-linecap="round" stroke-linejoin="round"/>
<path d="M395.54 175.56L380.26 184.1" stroke="#071146" stroke-width="2" stroke-linecap="round" stroke-linejoin="round"/>
<path d="M418.783 158.108L384.904 157.995C382.391 157.987 380.347 160.017 380.339 162.53L380.258 186.75C380.25 189.263 382.28 191.307 384.793 191.315L418.673 191.427C421.186 191.436 423.23 189.405 423.238 186.893L423.318 162.673C423.327 160.16 421.296 158.116 418.783 158.108Z" stroke="#071146" stroke-width="2" stroke-linecap="round" stroke-linejoin="round"/>
<path d="M528.396 202.451L497.946 202.35C495.676 202.342 493.83 204.176 493.822 206.446L493.749 228.466C493.742 230.736 495.576 232.582 497.846 232.59L528.296 232.691C530.565 232.698 532.412 230.864 532.419 228.594L532.492 206.574C532.5 204.305 530.666 202.458 528.396 202.451Z" fill="white"/>
<path d="M489.77 207.92L507.85 218.19C508.88 218.77 510.043 219.075 511.225 219.075C512.407 219.075 513.57 218.77 514.6 218.19L532.75 208.04" stroke="#071146" stroke-width="2" stroke-linecap="round" stroke-linejoin="round"/>
<path d="M532.69 225.52L517.46 216.87" stroke="#071146" stroke-width="2" stroke-linecap="round" stroke-linejoin="round"/>
<path d="M504.99 216.83L489.71 225.37" stroke="#071146" stroke-width="2" stroke-linecap="round" stroke-linejoin="round"/>
<path d="M528.236 199.37L494.356 199.258C491.843 199.25 489.799 201.28 489.791 203.793L489.711 228.013C489.703 230.526 491.733 232.57 494.246 232.578L528.126 232.69C530.638 232.699 532.682 230.668 532.691 228.155L532.771 203.935C532.779 201.423 530.749 199.379 528.236 199.37Z" stroke="#071146" stroke-width="2" stroke-linecap="round" stroke-linejoin="round"/>
<path d="M316.454 37.379L286.005 37.278C283.735 37.2705 281.888 39.1045 281.881 41.3744L281.808 63.3943C281.8 65.6641 283.634 67.5103 285.904 67.5179L316.354 67.6188C318.624 67.6264 320.47 65.7924 320.478 63.5225L320.551 41.5026C320.558 39.2327 318.724 37.3865 316.454 37.379Z" fill="white"/>
<path d="M277.84 42.84L295.92 53.11C296.95 53.69 298.113 53.9947 299.295 53.9947C300.477 53.9947 301.64 53.69 302.67 53.11L320.82 43" stroke="#071146" stroke-width="2" stroke-linecap="round" stroke-linejoin="round"/>
<path d="M320.76 60.43L305.53 51.78" stroke="#071146" stroke-width="2" stroke-linecap="round" stroke-linejoin="round"/>
<path d="M293.06 51.74L277.78 60.29" stroke="#071146" stroke-width="2" stroke-linecap="round" stroke-linejoin="round"/>
<path d="M316.295 34.2985L282.415 34.1861C279.902 34.1778 277.858 36.2081 277.85 38.721L277.769 62.9409C277.761 65.4538 279.791 67.4976 282.304 67.506L316.184 67.6183C318.697 67.6266 320.741 65.5963 320.749 63.0834L320.83 38.8636C320.838 36.3507 318.808 34.3068 316.295 34.2985Z" stroke="#071146" stroke-width="2" stroke-linecap="round" stroke-linejoin="round"/>
<path d="M316.461 119.929L286.011 119.828C283.741 119.82 281.895 121.654 281.887 123.924L281.814 145.944C281.807 148.214 283.641 150.06 285.911 150.067L316.36 150.168C318.63 150.176 320.476 148.342 320.484 146.072L320.557 124.052C320.565 121.782 318.731 119.936 316.461 119.929Z" fill="white"/>
<path d="M277.84 125.38L295.92 135.65C296.95 136.23 298.113 136.535 299.295 136.535C300.477 136.535 301.64 136.23 302.67 135.65L320.82 125.5" stroke="#071146" stroke-width="2" stroke-linecap="round" stroke-linejoin="round"/>
<path d="M320.76 142.98L305.53 134.33" stroke="#071146" stroke-width="2" stroke-linecap="round" stroke-linejoin="round"/>
<path d="M293.06 134.28L277.78 142.83" stroke="#071146" stroke-width="2" stroke-linecap="round" stroke-linejoin="round"/>
<path d="M316.301 116.838L282.421 116.726C279.908 116.717 277.864 118.748 277.856 121.261L277.776 145.48C277.767 147.993 279.798 150.037 282.311 150.045L316.19 150.158C318.703 150.166 320.747 148.136 320.756 145.623L320.836 121.403C320.844 118.89 318.814 116.846 316.301 116.838Z" stroke="#071146" stroke-width="2" stroke-linecap="round" stroke-linejoin="round"/>
<path d="M316.467 202.468L286.017 202.367C283.747 202.36 281.901 204.194 281.894 206.463L281.82 228.483C281.813 230.753 283.647 232.599 285.917 232.607L316.367 232.708C318.637 232.715 320.483 230.881 320.49 228.612L320.563 206.592C320.571 204.322 318.737 202.476 316.467 202.468Z" fill="white"/>
<path d="M277.84 207.92L295.92 218.19C296.95 218.77 298.113 219.075 299.295 219.075C300.477 219.075 301.64 218.77 302.67 218.19L320.82 208.04" stroke="#071146" stroke-width="2" stroke-linecap="round" stroke-linejoin="round"/>
<path d="M320.76 225.52L305.53 216.87" stroke="#071146" stroke-width="2" stroke-linecap="round" stroke-linejoin="round"/>
<path d="M293.06 216.83L277.78 225.37" stroke="#071146" stroke-width="2" stroke-linecap="round" stroke-linejoin="round"/>
<path d="M316.307 199.388L282.427 199.275C279.914 199.267 277.871 201.297 277.862 203.81L277.782 228.03C277.774 230.543 279.804 232.587 282.317 232.595L316.197 232.707C318.71 232.716 320.753 230.685 320.762 228.173L320.842 203.953C320.85 201.44 318.82 199.396 316.307 199.388Z" stroke="#071146" stroke-width="2" stroke-linecap="round" stroke-linejoin="round"/>
<path d="M180.85 41.99H58.51C52.7718 41.99 48.12 46.6418 48.12 52.38V230.12C48.12 235.858 52.7718 240.51 58.51 240.51H180.85C186.588 240.51 191.24 235.858 191.24 230.12V52.38C191.24 46.6418 186.588 41.99 180.85 41.99Z" fill="white"/>
<path d="M173.63 34.2H51.29C45.5518 34.2 40.9 38.8517 40.9 44.59V222.33C40.9 228.068 45.5518 232.72 51.29 232.72H173.63C179.368 232.72 184.02 228.068 184.02 222.33V44.59C184.02 38.8517 179.368 34.2 173.63 34.2Z" stroke="#071146" stroke-width="2" stroke-linecap="round" stroke-linejoin="round"/>
<path d="M40.9 60.25H184.02" stroke="#071146" stroke-width="2" stroke-linecap="round" stroke-linejoin="round"/>
<path d="M40.9 206.47H184.02" stroke="#071146" stroke-width="2" stroke-linecap="round" stroke-linejoin="round"/>
<path d="M112.46 226.38C116.044 226.38 118.95 223.474 118.95 219.89C118.95 216.306 116.044 213.4 112.46 213.4C108.876 213.4 105.97 216.306 105.97 219.89C105.97 223.474 108.876 226.38 112.46 226.38Z" stroke="#071146" stroke-width="2" stroke-linecap="round" stroke-linejoin="round"/>
<path d="M86.81 50.97C88.3067 50.97 89.52 49.7567 89.52 48.26C89.52 46.7633 88.3067 45.55 86.81 45.55C85.3133 45.55 84.1 46.7633 84.1 48.26C84.1 49.7567 85.3133 50.97 86.81 50.97Z" stroke="#071146" stroke-width="2" stroke-linecap="round" stroke-linejoin="round"/>
<path d="M145.96 46.18H103.42C102.199 46.18 101.21 47.1694 101.21 48.39V48.4C101.21 49.6205 102.199 50.61 103.42 50.61H145.96C147.181 50.61 148.17 49.6205 148.17 48.4V48.39C148.17 47.1694 147.181 46.18 145.96 46.18Z" stroke="#071146" stroke-width="2" stroke-linecap="round" stroke-linejoin="round"/>
<path d="M479.07 42.84H388.65" stroke="#071146" stroke-width="2" stroke-linecap="round" stroke-linejoin="round"/>
<path d="M93.47 83.06H60.62" stroke="#FCAA90" stroke-width="2" stroke-linecap="round" stroke-linejoin="round"/>
<path d="M164.08 83.06H131.22" stroke="#FCAA90" stroke-width="2" stroke-linecap="round" stroke-linejoin="round"/>
<path d="M479.07 51.74H388.65" stroke="#071146" stroke-width="2" stroke-linecap="round" stroke-linejoin="round"/>
<path d="M479.07 60.43H388.65" stroke="#071146" stroke-width="2" stroke-linecap="round" stroke-linejoin="round"/>
<path d="M479.07 124.4H388.65" stroke="#071146" stroke-width="2" stroke-linecap="round" stroke-linejoin="round"/>
<path d="M479.07 133.31H388.65" stroke="#071146" stroke-width="2" stroke-linecap="round" stroke-linejoin="round"/>
<path d="M479.07 142H388.65" stroke="#071146" stroke-width="2" stroke-linecap="round" stroke-linejoin="round"/>
<path d="M369.7 88.07H279.29" stroke="white" stroke-width="2" stroke-linecap="round" stroke-linejoin="round"/>
<path d="M369.7 96.76H279.29" stroke="white" stroke-width="2" stroke-linecap="round" stroke-linejoin="round"/>
<path d="M369.7 171.94H279.29" stroke="white" stroke-width="2" stroke-linecap="round" stroke-linejoin="round"/>
<path d="M369.7 180.63H279.29" stroke="white" stroke-width="2" stroke-linecap="round" stroke-linejoin="round"/>
<path d="M479.07 208.49H388.65" stroke="#071146" stroke-width="2" stroke-linecap="round" stroke-linejoin="round"/>
<path d="M479.07 217.39H388.65" stroke="#071146" stroke-width="2" stroke-linecap="round" stroke-linejoin="round"/>
<path d="M479.07 226.09H388.65" stroke="#071146" stroke-width="2" stroke-linecap="round" stroke-linejoin="round"/>
<path d="M112.45 92.22C111.192 92.233 109.943 92.0056 108.77 91.55C107.681 91.1263 106.692 90.4808 105.865 89.6545C105.039 88.8282 104.394 87.8391 103.97 86.75C103.082 84.3702 103.082 81.7498 103.97 79.37C104.393 78.2806 105.038 77.2912 105.865 76.4648C106.691 75.6384 107.681 74.9931 108.77 74.57C111.15 73.6806 113.77 73.6806 116.15 74.57C117.239 74.9931 118.229 75.6384 119.055 76.4648C119.882 77.2912 120.527 78.2806 120.95 79.37C121.407 80.5494 121.634 81.8052 121.62 83.07C121.638 84.0472 121.492 85.0206 121.19 85.95C120.961 86.7052 120.548 87.3921 119.99 87.95C119.515 88.4155 118.875 88.6743 118.21 88.67C117.944 88.6813 117.679 88.6373 117.431 88.5408C117.184 88.4443 116.959 88.2974 116.771 88.1094C116.583 87.9213 116.436 87.6963 116.339 87.4485C116.243 87.2008 116.199 86.9356 116.21 86.67V86.09C115.957 86.4642 115.634 86.7867 115.26 87.04C114.849 87.3258 114.397 87.5483 113.92 87.7C113.438 87.8538 112.936 87.9315 112.43 87.93C111.553 87.947 110.688 87.7331 109.92 87.31C109.199 86.9062 108.604 86.311 108.2 85.59C107.797 84.8183 107.586 83.9606 107.586 83.09C107.586 82.2194 107.797 81.3617 108.2 80.59C108.604 79.869 109.199 79.2737 109.92 78.87C110.691 78.4653 111.549 78.2538 112.42 78.2538C113.291 78.2538 114.149 78.4653 114.92 78.87C115.637 79.2752 116.229 79.8703 116.63 80.59C117.057 81.3637 117.27 82.2367 117.25 83.12V86.3C117.212 86.6525 117.3 87.007 117.5 87.3C117.58 87.3941 117.679 87.469 117.792 87.5192C117.904 87.5694 118.027 87.5936 118.15 87.59C118.382 87.5873 118.61 87.5341 118.819 87.4339C119.028 87.3337 119.213 87.189 119.36 87.01C119.75 86.5487 120.03 86.0051 120.18 85.42C120.39 84.6616 120.492 83.877 120.48 83.09C120.492 81.9781 120.288 80.8744 119.88 79.84C119.503 78.8796 118.932 78.0074 118.202 77.2778C117.473 76.5483 116.6 75.9771 115.64 75.6C113.546 74.8054 111.234 74.8054 109.14 75.6C108.181 75.9803 107.31 76.5519 106.58 77.28C105.888 78.012 105.351 78.8758 105 79.82C104.218 81.9161 104.218 84.2238 105 86.32C105.372 87.2803 105.941 88.1525 106.669 88.8808C107.397 89.6091 108.27 90.1776 109.23 90.55C110.266 90.9512 111.369 91.1514 112.48 91.14C113.079 91.136 113.675 91.069 114.26 90.94C114.79 90.8349 115.307 90.6705 115.8 90.45C115.887 90.3947 115.984 90.359 116.086 90.3452C116.188 90.3313 116.292 90.3398 116.39 90.37C116.55 90.44 116.63 90.59 116.63 90.83C116.63 91.07 116.45 91.23 116.1 91.44C115.644 91.6954 115.151 91.8808 114.64 91.99C113.922 92.1541 113.187 92.2314 112.45 92.22ZM112.45 86.84C113.132 86.8523 113.805 86.6832 114.4 86.35C114.961 86.0303 115.424 85.5635 115.74 85C116.074 84.405 116.243 83.732 116.23 83.05C116.25 82.3514 116.08 81.6604 115.74 81.05C115.423 80.4902 114.96 80.027 114.4 79.71C113.8 79.3896 113.13 79.222 112.45 79.222C111.77 79.222 111.1 79.3896 110.5 79.71C109.941 80.0278 109.478 80.4908 109.16 81.05C108.82 81.6604 108.65 82.3514 108.67 83.05C108.657 83.732 108.826 84.405 109.16 85C109.477 85.5595 109.94 86.0226 110.5 86.34C111.094 86.6771 111.767 86.8497 112.45 86.84Z" fill="#FCAA90"/>
<path d="M93.47 108.66H60.62" stroke="#B6E2DF" stroke-width="2" stroke-linecap="round" stroke-linejoin="round"/>
<path d="M164.08 108.66H131.22" stroke="#B6E2DF" stroke-width="2" stroke-linecap="round" stroke-linejoin="round"/>
<path d="M112.45 117.82C111.192 117.833 109.943 117.606 108.77 117.15C107.681 116.726 106.692 116.081 105.865 115.254C105.039 114.428 104.394 113.439 103.97 112.35C103.082 109.97 103.082 107.35 103.97 104.97C104.393 103.881 105.038 102.891 105.865 102.065C106.691 101.238 107.681 100.593 108.77 100.17C111.15 99.2806 113.77 99.2806 116.15 100.17C117.252 100.591 118.252 101.238 119.088 102.07C119.923 102.902 120.575 103.9 121 105C121.457 106.179 121.684 107.435 121.67 108.7C121.688 109.677 121.542 110.651 121.24 111.58C121.011 112.335 120.598 113.022 120.04 113.58C119.565 114.045 118.925 114.304 118.26 114.3C117.994 114.311 117.729 114.267 117.481 114.171C117.234 114.074 117.009 113.927 116.821 113.739C116.633 113.551 116.486 113.326 116.389 113.079C116.293 112.831 116.249 112.566 116.26 112.3V111.72C116.007 112.094 115.684 112.417 115.31 112.67C114.899 112.956 114.447 113.178 113.97 113.33C113.488 113.484 112.986 113.561 112.48 113.56C111.603 113.577 110.738 113.363 109.97 112.94C109.249 112.536 108.654 111.941 108.25 111.22C107.847 110.448 107.636 109.591 107.636 108.72C107.636 107.849 107.847 106.992 108.25 106.22C108.654 105.499 109.249 104.904 109.97 104.5C110.741 104.095 111.599 103.884 112.47 103.884C113.341 103.884 114.199 104.095 114.97 104.5C115.687 104.905 116.279 105.5 116.68 106.22C117.107 106.994 117.32 107.867 117.3 108.75V111.98C117.262 112.332 117.35 112.687 117.55 112.98C117.63 113.074 117.729 113.149 117.842 113.199C117.954 113.249 118.077 113.274 118.2 113.27C118.432 113.267 118.66 113.214 118.869 113.114C119.078 113.014 119.263 112.869 119.41 112.69C119.8 112.229 120.08 111.685 120.23 111.1C120.44 110.342 120.542 109.557 120.53 108.77C120.542 107.658 120.338 106.554 119.93 105.52C119.553 104.56 118.982 103.687 118.252 102.958C117.523 102.228 116.65 101.657 115.69 101.28C113.596 100.485 111.284 100.485 109.19 101.28C108.231 101.66 107.36 102.232 106.63 102.96C105.903 103.69 105.335 104.561 104.96 105.52C104.178 107.616 104.178 109.924 104.96 112.02C105.332 112.98 105.901 113.852 106.629 114.581C107.357 115.309 108.23 115.878 109.19 116.25C110.226 116.651 111.329 116.851 112.44 116.84C113.039 116.836 113.635 116.769 114.22 116.64C114.75 116.535 115.267 116.371 115.76 116.15C115.847 116.095 115.944 116.059 116.046 116.045C116.148 116.031 116.252 116.04 116.35 116.07C116.51 116.14 116.59 116.29 116.59 116.53C116.59 116.77 116.41 116.93 116.06 117.14C115.604 117.395 115.111 117.581 114.6 117.69C113.891 117.817 113.169 117.861 112.45 117.82ZM112.45 112.44C113.132 112.452 113.805 112.283 114.4 111.95C114.96 111.633 115.423 111.17 115.74 110.61C116.074 110.015 116.243 109.342 116.23 108.66C116.25 107.961 116.08 107.27 115.74 106.66C115.423 106.1 114.96 105.637 114.4 105.32C113.8 105 113.13 104.832 112.45 104.832C111.77 104.832 111.1 105 110.5 105.32C109.941 105.638 109.478 106.101 109.16 106.66C108.82 107.27 108.65 107.961 108.67 108.66C108.657 109.342 108.826 110.015 109.16 110.61C109.47 111.188 109.934 111.669 110.5 112C111.1 112.316 111.773 112.468 112.45 112.44Z" fill="#B6E2DF"/>
<path d="M93.47 134.26H60.62" stroke="#FCAA90" stroke-width="2" stroke-linecap="round" stroke-linejoin="round"/>
<path d="M164.08 134.26H131.22" stroke="#FCAA90" stroke-width="2" stroke-linecap="round" stroke-linejoin="round"/>
<path d="M112.45 143.42C111.192 143.433 109.943 143.206 108.77 142.75C107.691 142.328 106.711 141.689 105.89 140.872C105.07 140.055 104.426 139.077 104 138C103.112 135.62 103.112 133 104 130.62C104.423 129.531 105.068 128.541 105.895 127.715C106.721 126.888 107.711 126.243 108.8 125.82C111.18 124.931 113.8 124.931 116.18 125.82C117.269 126.243 118.259 126.888 119.085 127.715C119.912 128.541 120.557 129.531 120.98 130.62C121.437 131.799 121.664 133.055 121.65 134.32C121.668 135.297 121.522 136.271 121.22 137.2C120.991 137.955 120.578 138.642 120.02 139.2C119.545 139.665 118.905 139.924 118.24 139.92C117.974 139.931 117.709 139.887 117.461 139.791C117.214 139.694 116.989 139.547 116.801 139.359C116.613 139.171 116.466 138.946 116.369 138.699C116.273 138.451 116.229 138.186 116.24 137.92V137.34C115.987 137.714 115.664 138.037 115.29 138.29C114.879 138.576 114.427 138.798 113.95 138.95C113.468 139.104 112.966 139.181 112.46 139.18C111.583 139.197 110.718 138.983 109.95 138.56C109.229 138.156 108.634 137.561 108.23 136.84C107.827 136.068 107.616 135.211 107.616 134.34C107.616 133.469 107.827 132.612 108.23 131.84C108.634 131.119 109.229 130.524 109.95 130.12C110.721 129.715 111.579 129.504 112.45 129.504C113.321 129.504 114.179 129.715 114.95 130.12C115.667 130.525 116.259 131.12 116.66 131.84C117.087 132.614 117.3 133.487 117.28 134.37V137.6C117.242 137.952 117.33 138.307 117.53 138.6C117.61 138.694 117.709 138.769 117.822 138.819C117.934 138.869 118.057 138.894 118.18 138.89C118.412 138.887 118.64 138.834 118.849 138.734C119.058 138.634 119.243 138.489 119.39 138.31C119.78 137.849 120.06 137.305 120.21 136.72C120.42 135.962 120.522 135.177 120.51 134.39C120.522 133.278 120.318 132.174 119.91 131.14C119.533 130.18 118.962 129.307 118.232 128.578C117.503 127.848 116.63 127.277 115.67 126.9C113.576 126.105 111.264 126.105 109.17 126.9C108.211 127.28 107.34 127.852 106.61 128.58C105.921 129.274 105.374 130.096 105 131C104.218 133.096 104.218 135.404 105 137.5C105.372 138.46 105.941 139.333 106.669 140.061C107.397 140.789 108.27 141.358 109.23 141.73C110.266 142.131 111.369 142.331 112.48 142.32C113.079 142.316 113.675 142.249 114.26 142.12C114.79 142.015 115.307 141.851 115.8 141.63C115.887 141.575 115.984 141.539 116.086 141.525C116.188 141.511 116.292 141.52 116.39 141.55C116.55 141.62 116.63 141.77 116.63 142.01C116.63 142.25 116.45 142.41 116.1 142.62C115.644 142.875 115.151 143.061 114.64 143.17C113.923 143.341 113.187 143.425 112.45 143.42ZM112.45 138.04C113.132 138.052 113.805 137.883 114.4 137.55C114.96 137.233 115.423 136.77 115.74 136.21C116.074 135.615 116.243 134.942 116.23 134.26C116.25 133.561 116.08 132.87 115.74 132.26C115.412 131.73 114.95 131.295 114.4 131C113.8 130.68 113.13 130.512 112.45 130.512C111.77 130.512 111.1 130.68 110.5 131C109.941 131.318 109.478 131.781 109.16 132.34C108.82 132.95 108.65 133.641 108.67 134.34C108.657 135.022 108.826 135.695 109.16 136.29C109.477 136.85 109.94 137.313 110.5 137.63C111.106 137.922 111.779 138.05 112.45 138V138.04Z" fill="#FCAA90"/>
<path d="M93.47 159.86H60.62" stroke="#B6E2DF" stroke-width="2" stroke-linecap="round" stroke-linejoin="round"/>
<path d="M164.08 159.86H131.22" stroke="#B6E2DF" stroke-width="2" stroke-linecap="round" stroke-linejoin="round"/>
<path d="M112.45 169C111.192 169.013 109.943 168.786 108.77 168.33C107.681 167.906 106.692 167.261 105.865 166.434C105.039 165.608 104.394 164.619 103.97 163.53C103.082 161.15 103.082 158.53 103.97 156.15C104.393 155.061 105.038 154.071 105.865 153.245C106.691 152.418 107.681 151.773 108.77 151.35C111.15 150.461 113.77 150.461 116.15 151.35C117.239 151.773 118.229 152.418 119.055 153.245C119.882 154.071 120.527 155.061 120.95 156.15C121.407 157.329 121.634 158.585 121.62 159.85C121.638 160.827 121.492 161.801 121.19 162.73C120.961 163.485 120.548 164.172 119.99 164.73C119.515 165.195 118.875 165.454 118.21 165.45C117.944 165.461 117.679 165.417 117.431 165.321C117.184 165.224 116.959 165.077 116.771 164.889C116.583 164.701 116.436 164.476 116.339 164.229C116.243 163.981 116.199 163.716 116.21 163.45V162.87C115.957 163.244 115.634 163.567 115.26 163.82C114.849 164.106 114.397 164.328 113.92 164.48C113.438 164.634 112.936 164.711 112.43 164.71C111.553 164.727 110.688 164.513 109.92 164.09C109.199 163.686 108.604 163.091 108.2 162.37C107.797 161.598 107.586 160.741 107.586 159.87C107.586 158.999 107.797 158.142 108.2 157.37C108.604 156.649 109.199 156.054 109.92 155.65C110.691 155.245 111.549 155.034 112.42 155.034C113.291 155.034 114.149 155.245 114.92 155.65C115.637 156.055 116.229 156.65 116.63 157.37C117.057 158.144 117.27 159.017 117.25 159.9V163.13C117.212 163.482 117.3 163.837 117.5 164.13C117.58 164.224 117.679 164.299 117.792 164.349C117.904 164.399 118.027 164.424 118.15 164.42C118.382 164.417 118.61 164.364 118.819 164.264C119.028 164.164 119.213 164.019 119.36 163.84C119.75 163.379 120.03 162.835 120.18 162.25C120.39 161.492 120.492 160.707 120.48 159.92C120.492 158.808 120.288 157.704 119.88 156.67C119.503 155.71 118.932 154.837 118.202 154.108C117.473 153.378 116.6 152.807 115.64 152.43C113.546 151.635 111.234 151.635 109.14 152.43C108.181 152.81 107.31 153.382 106.58 154.11C105.854 154.84 105.285 155.711 104.91 156.67C104.128 158.766 104.128 161.074 104.91 163.17C105.282 164.13 105.851 165.002 106.579 165.731C107.307 166.459 108.18 167.028 109.14 167.4C110.176 167.801 111.279 168.001 112.39 167.99C112.989 167.986 113.585 167.919 114.17 167.79C114.7 167.685 115.217 167.521 115.71 167.3C115.797 167.245 115.894 167.209 115.996 167.195C116.098 167.181 116.202 167.19 116.3 167.22C116.46 167.29 116.54 167.44 116.54 167.68C116.54 167.92 116.36 168.08 116.01 168.29C115.554 168.545 115.061 168.731 114.55 168.84C113.858 168.974 113.154 169.027 112.45 169ZM112.45 163.62C113.132 163.632 113.805 163.463 114.4 163.13C114.96 162.813 115.423 162.35 115.74 161.79C116.074 161.195 116.243 160.522 116.23 159.84C116.25 159.141 116.08 158.45 115.74 157.84C115.423 157.28 114.96 156.817 114.4 156.5C113.8 156.18 113.13 156.012 112.45 156.012C111.77 156.012 111.1 156.18 110.5 156.5C109.941 156.818 109.478 157.281 109.16 157.84C108.82 158.45 108.65 159.141 108.67 159.84C108.657 160.522 108.826 161.195 109.16 161.79C109.477 162.35 109.94 162.813 110.5 163.13C111.093 163.471 111.766 163.647 112.45 163.64V163.62Z" fill="#B6E2DF"/>
<path d="M93.47 185.47H60.62" stroke="#B6E2DF" stroke-width="2" stroke-linecap="round" stroke-linejoin="round"/>
<path d="M164.08 185.47H131.22" stroke="#B6E2DF" stroke-width="2" stroke-linecap="round" stroke-linejoin="round"/>
<path d="M112.45 194.63C111.192 194.643 109.943 194.416 108.77 193.96C107.681 193.536 106.692 192.891 105.865 192.064C105.039 191.238 104.394 190.249 103.97 189.16C103.082 186.78 103.082 184.16 103.97 181.78C104.393 180.691 105.038 179.701 105.865 178.875C106.691 178.048 107.681 177.403 108.77 176.98C111.15 176.091 113.77 176.091 116.15 176.98C117.239 177.403 118.229 178.048 119.055 178.875C119.882 179.701 120.527 180.691 120.95 181.78C121.407 182.959 121.634 184.215 121.62 185.48C121.638 186.457 121.492 187.431 121.19 188.36C120.961 189.115 120.548 189.802 119.99 190.36C119.515 190.825 118.875 191.084 118.21 191.08C117.944 191.091 117.679 191.047 117.431 190.951C117.184 190.854 116.959 190.707 116.771 190.519C116.583 190.331 116.436 190.106 116.339 189.859C116.243 189.611 116.199 189.346 116.21 189.08V188.5C115.957 188.874 115.634 189.197 115.26 189.45C114.849 189.736 114.397 189.958 113.92 190.11C113.438 190.264 112.936 190.341 112.43 190.34C111.553 190.357 110.688 190.143 109.92 189.72C109.199 189.316 108.604 188.721 108.2 188C107.797 187.228 107.586 186.371 107.586 185.5C107.586 184.629 107.797 183.772 108.2 183C108.604 182.279 109.199 181.684 109.92 181.28C110.691 180.875 111.549 180.664 112.42 180.664C113.291 180.664 114.149 180.875 114.92 181.28C115.637 181.685 116.229 182.28 116.63 183C117.057 183.774 117.27 184.647 117.25 185.53V188.76C117.212 189.112 117.3 189.467 117.5 189.76C117.58 189.854 117.679 189.929 117.792 189.979C117.904 190.029 118.027 190.054 118.15 190.05C118.382 190.047 118.61 189.994 118.819 189.894C119.028 189.794 119.213 189.649 119.36 189.47C119.75 189.009 120.03 188.465 120.18 187.88C120.39 187.122 120.492 186.337 120.48 185.55C120.492 184.438 120.288 183.334 119.88 182.3C119.517 181.334 118.958 180.454 118.238 179.714C117.519 178.974 116.655 178.391 115.7 178C113.606 177.205 111.294 177.205 109.2 178C108.241 178.38 107.37 178.952 106.64 179.68C105.913 180.41 105.345 181.281 104.97 182.24C104.188 184.336 104.188 186.644 104.97 188.74C105.339 189.706 105.906 190.584 106.634 191.318C107.363 192.051 108.237 192.624 109.2 193C110.236 193.401 111.339 193.601 112.45 193.59C113.049 193.586 113.645 193.519 114.23 193.39C114.76 193.285 115.277 193.121 115.77 192.9C115.857 192.845 115.954 192.809 116.056 192.795C116.158 192.781 116.262 192.79 116.36 192.82C116.52 192.89 116.6 193.04 116.6 193.28C116.6 193.52 116.42 193.68 116.07 193.89C115.614 194.145 115.121 194.331 114.61 194.44C113.9 194.588 113.175 194.652 112.45 194.63ZM112.45 189.25C113.132 189.262 113.805 189.093 114.4 188.76C114.96 188.443 115.423 187.98 115.74 187.42C116.074 186.825 116.243 186.152 116.23 185.47C116.25 184.771 116.08 184.08 115.74 183.47C115.423 182.91 114.96 182.447 114.4 182.13C113.8 181.81 113.13 181.642 112.45 181.642C111.77 181.642 111.1 181.81 110.5 182.13C109.941 182.448 109.478 182.911 109.16 183.47C108.82 184.08 108.65 184.771 108.67 185.47C108.657 186.152 108.826 186.825 109.16 187.42C109.477 187.98 109.94 188.443 110.5 188.76C111.095 189.094 111.768 189.263 112.45 189.25Z" fill="#B6E2DF"/>
<path d="M205.671 191.223C238.137 177.093 253.001 139.321 238.871 106.855C224.741 74.3897 186.968 59.5258 154.503 73.6557C122.037 87.7855 107.173 125.558 121.303 158.024C135.433 190.489 173.206 205.353 205.671 191.223Z" fill="white"/>
<path d="M240.85 118.86L249.85 114.94L248.05 110.81L250.05 109.88L321.33 78.88C322.709 78.2806 323.794 77.1579 324.345 75.7589C324.896 74.3599 324.869 72.7991 324.27 71.42C323.671 70.0409 322.548 68.9564 321.149 68.405C319.75 67.8537 318.189 67.8806 316.81 68.48L245.53 99.48L243.53 100.29L241.39 95.37L232.39 99.29L240.85 118.86Z" fill="#FEDB8F"/>
<path d="M202.173 190.482C234.638 176.352 249.502 138.58 235.372 106.114C221.242 73.6488 183.47 58.7849 151.004 72.9147C118.539 87.0445 103.675 124.817 117.805 157.283C131.935 189.748 169.707 204.612 202.173 190.482Z" stroke="#071146" stroke-width="2" stroke-linecap="round" stroke-linejoin="round"/>
<path d="M199.747 183.671C228.317 171.249 241.408 138.018 228.986 109.448C216.564 80.877 183.333 67.786 154.763 80.208C126.192 92.63 113.101 125.861 125.523 154.432C137.945 183.002 171.176 196.093 199.747 183.671Z" stroke="#071146" stroke-width="2.00639" stroke-linecap="round" stroke-linejoin="round"/>
<path d="M230.74 97.38L239.76 93.45L248.27 113.01L239.26 116.94" stroke="#071146" stroke-width="2" stroke-linecap="round" stroke-linejoin="round"/>
<path d="M241.957 98.5056L315.228 66.616C316.607 66.0159 318.168 65.9881 319.567 66.5387C320.966 67.0894 322.09 68.1733 322.69 69.5522C322.987 70.2349 323.147 70.9695 323.16 71.714C323.173 72.4584 323.04 73.1983 322.767 73.8911C322.494 74.584 322.088 75.2164 321.571 75.7522C321.054 76.288 320.436 76.7167 319.753 77.0138L246.482 108.903L241.957 98.5056Z" stroke="#071146" stroke-width="2" stroke-linecap="round" stroke-linejoin="round"/>
<path d="M146.57 156.17C143.558 156.203 140.568 155.66 137.76 154.57C135.156 153.556 132.79 152.012 130.814 150.036C128.838 148.06 127.294 145.694 126.28 143.09C124.152 137.396 124.152 131.124 126.28 125.43C127.293 122.825 128.836 120.459 130.813 118.483C132.789 116.506 135.155 114.963 137.76 113.95C143.454 111.821 149.726 111.821 155.42 113.95C158.026 114.962 160.392 116.505 162.369 118.481C164.345 120.458 165.888 122.824 166.9 125.43C167.992 128.251 168.535 131.255 168.5 134.28C168.552 136.616 168.214 138.945 167.5 141.17C166.943 142.957 165.958 144.581 164.63 145.9C163.499 147.017 161.97 147.639 160.38 147.63C159.75 147.654 159.121 147.547 158.534 147.317C157.947 147.087 157.414 146.738 156.968 146.292C156.522 145.846 156.173 145.313 155.943 144.726C155.713 144.139 155.606 143.51 155.63 142.88V141.5C155.025 142.394 154.254 143.165 153.36 143.77C152.382 144.454 151.307 144.987 150.17 145.35C149.02 145.721 147.819 145.91 146.61 145.91C144.514 145.946 142.446 145.432 140.61 144.42C138.882 143.454 137.456 142.028 136.49 140.3C135.519 138.449 135.012 136.39 135.012 134.3C135.012 132.21 135.519 130.151 136.49 128.3C137.456 126.572 138.882 125.146 140.61 124.18C142.46 123.205 144.519 122.696 146.61 122.696C148.701 122.696 150.76 123.205 152.61 124.18C154.33 125.149 155.749 126.575 156.71 128.3C157.722 130.136 158.236 132.204 158.2 134.3V142C158.123 142.823 158.335 143.647 158.8 144.33C158.993 144.553 159.233 144.73 159.503 144.85C159.772 144.969 160.065 145.027 160.36 145.02C160.913 145.014 161.458 144.888 161.957 144.649C162.457 144.411 162.898 144.067 163.25 143.64C164.194 142.54 164.877 141.241 165.25 139.84C165.751 138.027 165.99 136.151 165.96 134.27C165.989 131.612 165.504 128.973 164.53 126.5C163.628 124.203 162.262 122.118 160.517 120.373C158.772 118.628 156.687 117.262 154.39 116.36C149.384 114.461 143.856 114.461 138.85 116.36C136.556 117.263 134.471 118.624 132.72 120.36C130.98 122.107 129.618 124.193 128.72 126.49C126.851 131.501 126.851 137.019 128.72 142.03C129.611 144.329 130.972 146.417 132.717 148.159C134.461 149.902 136.55 151.261 138.85 152.15C141.328 153.105 143.965 153.58 146.62 153.55C148.05 153.539 149.474 153.379 150.87 153.07C152.14 152.823 153.377 152.434 154.56 151.91C154.769 151.778 155.004 151.692 155.249 151.659C155.494 151.626 155.744 151.647 155.98 151.72C156.36 151.88 156.54 152.25 156.54 152.82C156.54 153.39 156.11 153.82 155.27 154.29C154.176 154.903 152.996 155.348 151.77 155.61C150.065 156.003 148.319 156.191 146.57 156.17ZM146.57 143.31C148.2 143.34 149.808 142.936 151.23 142.14C152.563 141.381 153.665 140.275 154.42 138.94C155.216 137.518 155.62 135.91 155.59 134.28C155.624 132.634 155.22 131.009 154.42 129.57C153.663 128.239 152.561 127.137 151.23 126.38C149.796 125.615 148.195 125.215 146.57 125.215C144.945 125.215 143.344 125.615 141.91 126.38C140.576 127.136 139.471 128.238 138.71 129.57C137.913 131.01 137.513 132.635 137.55 134.28C137.517 135.909 137.917 137.517 138.71 138.94C139.469 140.276 140.574 141.381 141.91 142.14C143.332 142.936 144.94 143.34 146.57 143.31Z" fill="#FCAA90"/>
<path d="M180.68 133L186.4 129.28C186.508 129.213 186.633 129.179 186.76 129.18C186.94 129.18 187.113 129.252 187.241 129.379C187.368 129.507 187.44 129.68 187.44 129.86C187.442 129.947 187.426 130.034 187.394 130.115C187.361 130.195 187.312 130.269 187.25 130.33L187.16 130.41L183.23 133L187.23 137.53C187.352 137.656 187.42 137.825 187.42 138C187.42 138.18 187.348 138.353 187.221 138.481C187.093 138.608 186.92 138.68 186.74 138.68C186.649 138.681 186.559 138.664 186.475 138.63C186.391 138.595 186.314 138.544 186.25 138.48L182.05 133.75L180.66 134.65V138C180.64 138.165 180.56 138.317 180.436 138.427C180.311 138.537 180.151 138.598 179.985 138.598C179.819 138.598 179.659 138.537 179.534 138.427C179.41 138.317 179.33 138.165 179.31 138V125.81C179.33 125.645 179.41 125.493 179.534 125.383C179.659 125.273 179.819 125.212 179.985 125.212C180.151 125.212 180.311 125.273 180.436 125.383C180.56 125.493 180.64 125.645 180.66 125.81L180.68 133Z" fill="#071146"/>
<path d="M190.14 138C190.12 138.165 190.04 138.317 189.916 138.427C189.791 138.537 189.631 138.598 189.465 138.598C189.299 138.598 189.139 138.537 189.014 138.427C188.89 138.317 188.81 138.165 188.79 138V129.89C188.81 129.725 188.89 129.573 189.014 129.463C189.139 129.353 189.299 129.292 189.465 129.292C189.631 129.292 189.791 129.353 189.916 129.463C190.04 129.573 190.12 129.725 190.14 129.89V130C190.799 129.436 191.643 129.133 192.51 129.15C193 129.142 193.486 129.235 193.938 129.422C194.39 129.61 194.799 129.888 195.14 130.24C195.289 130.389 195.426 130.55 195.55 130.72C195.674 130.55 195.811 130.389 195.96 130.24C196.481 129.723 197.143 129.372 197.862 129.231C198.582 129.089 199.328 129.164 200.005 129.445C200.683 129.726 201.262 130.201 201.671 130.81C202.079 131.42 202.298 132.136 202.3 132.87V138C202.28 138.165 202.2 138.317 202.076 138.427C201.951 138.537 201.791 138.598 201.625 138.598C201.459 138.598 201.299 138.537 201.174 138.427C201.05 138.317 200.97 138.165 200.95 138V132.93C200.971 132.606 200.925 132.282 200.816 131.977C200.707 131.672 200.536 131.392 200.314 131.156C200.093 130.919 199.825 130.73 199.527 130.602C199.23 130.473 198.909 130.406 198.585 130.406C198.261 130.406 197.94 130.473 197.643 130.602C197.345 130.73 197.077 130.919 196.856 131.156C196.634 131.392 196.463 131.672 196.354 131.977C196.244 132.282 196.199 132.606 196.22 132.93V138C196.2 138.165 196.12 138.317 195.996 138.427C195.871 138.537 195.711 138.598 195.545 138.598C195.379 138.598 195.219 138.537 195.094 138.427C194.97 138.317 194.89 138.165 194.87 138V132.93C194.891 132.606 194.845 132.282 194.736 131.977C194.627 131.672 194.456 131.392 194.234 131.156C194.013 130.919 193.745 130.73 193.447 130.602C193.15 130.473 192.829 130.406 192.505 130.406C192.181 130.406 191.86 130.473 191.563 130.602C191.265 130.73 190.997 130.919 190.776 131.156C190.554 131.392 190.383 131.672 190.274 131.977C190.164 132.282 190.119 132.606 190.14 132.93V138Z" fill="#071146"/>
<path d="M211.77 137.23C211.334 137.685 210.809 138.046 210.227 138.29C209.646 138.535 209.021 138.657 208.39 138.65C207.454 138.65 206.54 138.373 205.762 137.853C204.984 137.333 204.378 136.594 204.02 135.73C203.662 134.866 203.568 133.915 203.751 132.997C203.933 132.08 204.384 131.237 205.045 130.575C205.707 129.914 206.55 129.463 207.467 129.281C208.385 129.098 209.336 129.192 210.2 129.55C211.064 129.908 211.803 130.514 212.323 131.292C212.843 132.07 213.12 132.984 213.12 133.92V138C213.1 138.165 213.02 138.317 212.896 138.427C212.771 138.537 212.611 138.598 212.445 138.598C212.279 138.598 212.119 138.537 211.994 138.427C211.87 138.317 211.79 138.165 211.77 138V137.23ZM208.39 130.54C207.611 130.539 206.855 130.807 206.252 131.3C205.649 131.793 205.235 132.48 205.081 133.244C204.927 134.008 205.042 134.801 205.407 135.489C205.772 136.178 206.365 136.718 207.083 137.019C207.802 137.32 208.603 137.362 209.349 137.139C210.096 136.916 210.742 136.441 211.178 135.795C211.614 135.149 211.812 134.372 211.74 133.596C211.667 132.821 211.328 132.094 210.78 131.54C210.471 131.219 210.1 130.964 209.689 130.792C209.278 130.62 208.836 130.534 208.39 130.54Z" fill="#071146"/>
<path d="M216.67 127.16C216.67 127.357 216.603 127.547 216.478 127.7C216.354 127.852 216.181 127.957 215.988 127.995C215.795 128.034 215.595 128.005 215.421 127.913C215.247 127.82 215.111 127.671 215.035 127.489C214.96 127.307 214.949 127.105 215.006 126.917C215.063 126.729 215.183 126.566 215.346 126.456C215.51 126.347 215.706 126.297 215.902 126.316C216.098 126.335 216.281 126.421 216.42 126.56C216.501 126.637 216.565 126.731 216.608 126.834C216.651 126.937 216.672 127.048 216.67 127.16ZM215.15 129.86C215.17 129.695 215.25 129.543 215.374 129.433C215.499 129.323 215.659 129.262 215.825 129.262C215.991 129.262 216.151 129.323 216.276 129.433C216.4 129.543 216.48 129.695 216.5 129.86V138C216.48 138.165 216.4 138.317 216.276 138.427C216.151 138.537 215.991 138.598 215.825 138.598C215.659 138.598 215.499 138.537 215.374 138.427C215.25 138.317 215.17 138.165 215.15 138V129.86Z" fill="#071146"/>
<path d="M218.52 125.81C218.54 125.645 218.62 125.493 218.744 125.383C218.869 125.273 219.029 125.212 219.195 125.212C219.361 125.212 219.521 125.273 219.646 125.383C219.77 125.493 219.85 125.645 219.87 125.81V137.3H220.55C220.715 137.32 220.867 137.4 220.977 137.524C221.087 137.649 221.148 137.809 221.148 137.975C221.148 138.141 221.087 138.301 220.977 138.426C220.867 138.55 220.715 138.63 220.55 138.65H219.2C219.02 138.65 218.847 138.578 218.719 138.451C218.592 138.323 218.52 138.15 218.52 137.97V125.81Z" fill="#071146"/>
<path d="M163.73 102.12L180.25 85.59" stroke="#B3C1F4" stroke-linecap="round" stroke-linejoin="round"/>
<path d="M171.49 102.12L188.02 85.59" stroke="#B3C1F4" stroke-linecap="round" stroke-linejoin="round"/>
<path d="M179.58 102.29L196.46 85.42" stroke="#B3C1F4" stroke-linecap="round" stroke-linejoin="round"/>
<path d="M166.14 176.56L182.66 160.04" stroke="#B3C1F4" stroke-linecap="round" stroke-linejoin="round"/>
<path d="M173.9 176.56L190.43 160.04" stroke="#B3C1F4" stroke-linecap="round" stroke-linejoin="round"/>
<path d="M181.99 176.74L198.87 159.86" stroke="#B3C1F4" stroke-linecap="round" stroke-linejoin="round"/>
</g>
<defs>
<clipPath id="clip0">
<rect width="586" height="272.02" fill="white"/>
</clipPath>
</defs>
</svg>
