<svg width="556" height="218" viewBox="0 0 556 218" fill="none" xmlns="http://www.w3.org/2000/svg">
<g clip-path="url(#clip0)">
<path d="M307.9 99.6C301 116.1 288.9 127.1 275.2 127.1C261.5 127.1 249.4 116.1 242.5 99.6C242.5 99.6 238.3 90.6 235.9 77.6C233.2 63.2 233.5 49.3 233.5 49.3L285.4 22.1L311.4 42.3C311.4 42.3 315.7 57.5 314.5 72.5C313.2 88.1 307.9 99.6 307.9 99.6Z" fill="white"/>
<path d="M354.3 211C353.7 211.2 353 211.5 352.4 211.7C335.6 216.6 314.9 200.5 297.7 203.2C286.8 204.9 278.3 214.3 267.4 216.3C255.3 218.6 245.8 212.4 234.2 208.1C223.8 204.2 214.5 200.6 203.4 201.4L201.5 201.6L204.9 185.9C212.1 157.1 224.7 131.6 248.3 110.7L249.7 112.6C256.5 124.4 264.6 127.2 275.6 127.1C286.3 127.1 296.1 120.3 302.9 109L304.1 107.7C327.7 128.6 345.4 156.8 351.5 185.9C352.8 192 355.9 210.4 355.9 210.4L354.3 211Z" fill="#FEDB8F"/>
<path d="M244.3 99.6C257.997 99.6 269.1 88.4967 269.1 74.8C269.1 61.1033 257.997 50 244.3 50C230.603 50 219.5 61.1033 219.5 74.8C219.5 88.4967 230.603 99.6 244.3 99.6Z" stroke="#071146" stroke-width="2" stroke-miterlimit="10"/>
<path d="M244.3 95.9C255.953 95.9 265.4 86.4532 265.4 74.8C265.4 63.1468 255.953 53.7 244.3 53.7C232.647 53.7 223.2 63.1468 223.2 74.8C223.2 86.4532 232.647 95.9 244.3 95.9Z" fill="white" stroke="#071146" stroke-width="2" stroke-miterlimit="10"/>
<path d="M306 95.9C317.653 95.9 327.1 86.4532 327.1 74.8C327.1 63.1468 317.653 53.7 306 53.7C294.347 53.7 284.9 63.1468 284.9 74.8C284.9 86.4532 294.347 95.9 306 95.9Z" fill="white" stroke="#071146" stroke-width="2" stroke-miterlimit="10"/>
<path d="M306 99.6C319.697 99.6 330.8 88.4967 330.8 74.8C330.8 61.1033 319.697 50 306 50C292.303 50 281.2 61.1033 281.2 74.8C281.2 88.4967 292.303 99.6 306 99.6Z" stroke="#071146" stroke-width="2" stroke-miterlimit="10"/>
<path d="M246.3 93.5C256.296 93.5 264.4 85.1725 264.4 74.9C264.4 64.6275 256.296 56.3 246.3 56.3C236.304 56.3 228.2 64.6275 228.2 74.9C228.2 85.1725 236.304 93.5 246.3 93.5Z" fill="#B3C1F4"/>
<path d="M307.7 93.5C317.862 93.5 326.1 85.1725 326.1 74.9C326.1 64.6275 317.862 56.3 307.7 56.3C297.538 56.3 289.3 64.6275 289.3 74.9C289.3 85.1725 297.538 93.5 307.7 93.5Z" fill="#B3C1F4"/>
<path d="M306 99.6C319.697 99.6 330.8 88.4967 330.8 74.8C330.8 61.1033 319.697 50 306 50C292.303 50 281.2 61.1033 281.2 74.8C281.2 88.4967 292.303 99.6 306 99.6Z" stroke="#071146" stroke-width="2" stroke-miterlimit="10"/>
<path d="M267.8 64.7H282.5" stroke="#071146" stroke-width="2" stroke-miterlimit="10"/>
<path d="M268.4 68.6H281.7" stroke="#071146" stroke-width="2" stroke-miterlimit="10" stroke-linecap="round" stroke-linejoin="round"/>
<path d="M307.9 99.6C301 116.1 288.9 127.1 275.2 127.1C261.5 127.1 249.4 116.1 242.5 99.6" stroke="#071146" stroke-width="2" stroke-miterlimit="10"/>
<path d="M311.4 42.3C312.1 44.7 312.7 47.3 313 50" stroke="#071146" stroke-width="2" stroke-miterlimit="10"/>
<path d="M289.1 24C289.3 27.8 292.3 31.1 295.6 33.5C301.4 37.7 308.7 40.2 316.1 40.7C317.7 37.4 324.4 4.90001 291.3 9.10001C290.4 9.20001 289.5 9.40001 288.6 9.20001C287.8 9.00001 287.2 8.40001 286.7 7.80001C280.4 1.90001 269.9 0.200009 261.7 3.60001C256.9 5.60001 239 23.2 234.7 44.4C233.4 50.8 236.8 47.3 242.2 46.6C253.8 45.1 265 41.2 274.7 35.3C277.3 33.7 289.1 25.4 289.1 24Z" fill="#B1DEF5"/>
<path d="M238.3 48.6C240.9 48.1 243.4 47.4 245.8 46.6C253.5 44.1 260.8 40.7 267.6 36.4C268.8 35.6 280.5 26.6 285.3 22.1C285.7 23.7 286.3 24.7 287.4 25.9C293.9 33.2 302.2 38.9 311.3 42.2C314.5 36 314.9 29 313.8 22.1C312.3 12.7 301.6 6.79998 292.1 5.99998C289.9 5.79998 287.6 5.99998 285.9 7.19998C279.9 4.69998 273.1 1.89998 266.7 1.09998C260.2 0.299978 253.3 1.49998 248.3 5.69998C246.2 7.49998 244.5 9.79998 243 12.1C235.7 23.4 232.8 36.2 229.5 49.2C232.5 49.5 235.4 49.2 238.3 48.6Z" stroke="#071146" stroke-width="2" stroke-miterlimit="10"/>
<path d="M244.7 107.4C220.1 128.7 205.5 156.4 198 185.9L194.4 201.9" stroke="#071146" stroke-width="2" stroke-miterlimit="10" stroke-linecap="round" stroke-linejoin="round"/>
<path d="M304 107.4C328.7 128.8 344.3 156.4 350.7 186.2C352 192.4 355.3 211.3 355.3 211.3" stroke="#071146" stroke-width="2" stroke-miterlimit="10" stroke-linecap="round" stroke-linejoin="round"/>
<path d="M265.5 109.6C267.4 107.9 270.2 107.2 272.6 108C274.2 108.5 275.6 109.5 277.1 109.9C278.8 110.4 280.6 110.2 282.2 109.5" stroke="#071146" stroke-width="2" stroke-miterlimit="10" stroke-linecap="round" stroke-linejoin="round"/>
<path d="M217.1 186.4C217 186.5 216.9 186.5 216.8 186.5C216.7 186.5 216.6 186.4 216.6 186.3C216.4 186 216.3 185.7 216.2 185.3C216.1 184.9 216.1 184.5 216.1 184.2C216.2 183.8 216.2 183.5 216.3 183.2C216.4 182.9 216.4 182.5 216.4 182.2C216.4 181.9 216.2 181.5 216 181.2C215.8 180.9 215.5 180.7 215.2 180.6C214.9 180.5 214.6 180.4 214.2 180.5C213.9 180.5 213.5 180.7 213.2 180.9C212.9 181.1 212.6 181.4 212.5 181.7C212.3 182 212.3 182.4 212.3 182.7C212.3 183.1 212.5 183.4 212.7 183.7C212.8 183.8 212.8 183.9 212.8 184C212.8 184.1 212.7 184.2 212.6 184.2C212.5 184.3 212.4 184.3 212.3 184.3C212.2 184.3 212.1 184.2 212.1 184.2C211.8 183.8 211.6 183.3 211.6 182.8C211.6 182.3 211.6 181.9 211.8 181.4C212 181 212.3 180.6 212.8 180.3C213.2 180 213.7 179.8 214.2 179.7C214.7 179.6 215.1 179.7 215.6 179.9C216 180.1 216.4 180.4 216.7 180.8C217 181.2 217.1 181.5 217.2 181.9C217.2 182.2 217.2 182.6 217.2 183C217.1 183.4 217.1 183.8 217 184.2C216.9 184.6 217 184.9 217.1 185.2C217.2 185.5 217.3 185.7 217.5 185.9C217.6 186 217.6 186.1 217.6 186.2C217.3 186.2 217.2 186.3 217.1 186.4ZM218.3 188C218.2 188.1 218 188.1 217.8 188.1C217.6 188.1 217.5 188 217.4 187.8C217.3 187.7 217.3 187.5 217.3 187.4C217.3 187.2 217.4 187.1 217.6 187C217.7 186.9 217.9 186.9 218 186.9C218.2 186.9 218.3 187 218.4 187.1C218.5 187.2 218.5 187.4 218.5 187.6C218.5 187.8 218.5 187.9 218.3 188Z" fill="white"/>
<path d="M292.7 190.4C292.8 190.5 292.8 190.5 292.8 190.6C292.8 190.7 292.8 190.8 292.7 190.9C292.5 191.2 292.2 191.4 291.9 191.6C291.6 191.8 291.2 191.9 290.9 191.9C290.5 191.9 290.2 192 289.8 192C289.5 192 289.1 192.1 288.8 192.2C288.5 192.3 288.2 192.5 287.9 192.9C287.7 193.2 287.5 193.5 287.5 193.8C287.5 194.1 287.5 194.5 287.6 194.8C287.7 195.1 288 195.4 288.3 195.7C288.6 196 288.9 196.1 289.3 196.2C289.7 196.3 290 196.2 290.3 196.1C290.6 196 290.9 195.7 291.2 195.4C291.3 195.3 291.3 195.3 291.4 195.3C291.5 195.3 291.6 195.3 291.7 195.4C291.8 195.5 291.8 195.5 291.8 195.6C291.8 195.7 291.8 195.8 291.7 195.9C291.4 196.3 291 196.6 290.5 196.8C290 197 289.6 197 289.1 196.9C288.6 196.8 288.2 196.6 287.8 196.3C287.4 196 287.1 195.6 286.9 195.1C286.7 194.7 286.7 194.2 286.7 193.7C286.8 193.2 287 192.8 287.3 192.4C287.6 192.1 287.9 191.8 288.2 191.7C288.5 191.6 288.9 191.5 289.2 191.5C289.6 191.5 290 191.4 290.4 191.4C290.8 191.4 291.1 191.3 291.3 191.1C291.5 190.9 291.8 190.7 291.9 190.5C292 190.4 292 190.4 292.1 190.4C292.5 190.3 292.6 190.3 292.7 190.4ZM294 188.8C294.1 188.9 294.2 189 294.2 189.2C294.2 189.4 294.2 189.5 294.1 189.6C294 189.7 293.9 189.8 293.7 189.8C293.5 189.8 293.4 189.8 293.3 189.7C293.2 189.6 293.1 189.5 293.1 189.3C293.1 189.1 293.1 189 293.2 188.9C293.3 188.8 293.4 188.7 293.6 188.7C293.7 188.6 293.8 188.7 294 188.8Z" fill="white"/>
<path d="M246.7 122.9C246.8 123 246.8 123.1 246.8 123.2C246.8 123.3 246.8 123.4 246.7 123.5C246.5 123.7 246.2 123.9 245.8 124.1C245.4 124.2 245.1 124.3 244.7 124.3C244.3 124.3 244 124.3 243.6 124.3C243.3 124.3 242.9 124.3 242.6 124.4C242.3 124.5 242 124.7 241.7 125C241.4 125.3 241.3 125.5 241.2 125.9C241.1 126.2 241.1 126.6 241.2 126.9C241.3 127.2 241.5 127.6 241.8 127.8C242.1 128.1 242.4 128.3 242.7 128.4C243 128.5 243.4 128.5 243.7 128.4C244 128.3 244.4 128.1 244.7 127.8C244.8 127.7 244.9 127.7 244.9 127.7C245 127.7 245.1 127.7 245.2 127.8C245.3 127.9 245.3 128 245.3 128.1C245.3 128.2 245.3 128.3 245.2 128.4C244.8 128.8 244.4 129 243.9 129.2C243.4 129.3 243 129.3 242.5 129.2C242 129.1 241.6 128.8 241.2 128.4C240.8 128 240.6 127.6 240.4 127.1C240.3 126.6 240.3 126.2 240.4 125.7C240.5 125.2 240.8 124.8 241.1 124.5C241.4 124.2 241.7 124 242.1 123.9C242.4 123.8 242.8 123.8 243.2 123.8C243.6 123.8 244 123.8 244.4 123.8C244.8 123.8 245.1 123.7 245.4 123.6C245.7 123.5 245.9 123.3 246.1 123.1C246.2 123 246.3 123 246.4 123C246.5 122.8 246.6 122.8 246.7 122.9ZM248.2 121.4C248.3 121.5 248.4 121.7 248.4 121.8C248.4 122 248.3 122.1 248.2 122.2C248.1 122.3 247.9 122.4 247.8 122.4C247.6 122.4 247.5 122.3 247.4 122.2C247.3 122.1 247.2 121.9 247.2 121.8C247.2 121.6 247.3 121.5 247.4 121.4C247.5 121.3 247.7 121.2 247.8 121.2C247.9 121.3 248.1 121.3 248.2 121.4Z" fill="white"/>
<path d="M301.9 133.7C301.8 133.8 301.7 133.8 301.6 133.8C301.5 133.8 301.4 133.7 301.4 133.6C301.2 133.3 301.1 133 301 132.6C300.9 132.2 300.9 131.8 300.9 131.5C301 131.1 301 130.8 301.1 130.5C301.2 130.2 301.2 129.8 301.2 129.5C301.2 129.2 301 128.8 300.8 128.5C300.6 128.2 300.3 128 300 127.9C299.7 127.8 299.4 127.7 299 127.8C298.7 127.8 298.3 128 298 128.2C297.7 128.4 297.4 128.7 297.3 129C297.1 129.3 297.1 129.7 297.1 130C297.1 130.4 297.3 130.7 297.5 131C297.6 131.1 297.6 131.2 297.6 131.3C297.6 131.4 297.5 131.5 297.4 131.5C297.3 131.6 297.2 131.6 297.1 131.6C297 131.6 296.9 131.5 296.9 131.5C296.6 131.1 296.4 130.6 296.4 130.1C296.4 129.6 296.4 129.2 296.6 128.7C296.8 128.3 297.1 127.9 297.6 127.6C298 127.3 298.5 127.1 299 127C299.5 126.9 299.9 127 300.4 127.2C300.8 127.4 301.2 127.7 301.5 128.1C301.8 128.5 301.9 128.8 302 129.2C302 129.5 302 129.9 302 130.3C301.9 130.7 301.9 131.1 301.8 131.5C301.7 131.9 301.8 132.2 301.9 132.5C302 132.8 302.1 133 302.3 133.2C302.4 133.3 302.4 133.4 302.4 133.5C302 133.6 302 133.7 301.9 133.7ZM303.1 135.4C303 135.5 302.8 135.5 302.6 135.5C302.4 135.5 302.3 135.4 302.2 135.2C302.1 135.1 302.1 134.9 302.1 134.8C302.1 134.6 302.2 134.5 302.4 134.4C302.5 134.3 302.7 134.3 302.8 134.3C303 134.3 303.1 134.4 303.2 134.5C303.3 134.6 303.3 134.8 303.3 135C303.3 135.2 303.2 135.3 303.1 135.4Z" fill="white"/>
<path d="M338.5 199C338.4 199.1 338.3 199.1 338.2 199.1C338.1 199.1 338 199 338 198.9C337.8 198.6 337.7 198.3 337.6 197.9C337.5 197.5 337.5 197.1 337.5 196.8C337.6 196.4 337.6 196.1 337.7 195.8C337.8 195.5 337.8 195.1 337.8 194.8C337.8 194.5 337.6 194.1 337.4 193.8C337.2 193.5 336.9 193.3 336.6 193.2C336.3 193.1 336 193 335.6 193.1C335.3 193.1 334.9 193.3 334.6 193.5C334.3 193.7 334 194 333.9 194.3C333.7 194.6 333.7 195 333.7 195.3C333.7 195.7 333.9 196 334.1 196.3C334.2 196.4 334.2 196.5 334.2 196.6C334.2 196.7 334.1 196.8 334 196.8C333.9 196.9 333.8 196.9 333.7 196.9C333.6 196.9 333.5 196.8 333.5 196.8C333.2 196.4 333 195.9 333 195.4C333 194.9 333 194.5 333.2 194C333.4 193.6 333.7 193.2 334.2 192.9C334.6 192.6 335.1 192.4 335.6 192.3C336.1 192.2 336.5 192.3 337 192.5C337.4 192.7 337.8 193 338.1 193.4C338.4 193.8 338.5 194.1 338.6 194.5C338.6 194.8 338.6 195.2 338.6 195.6C338.5 196 338.5 196.4 338.4 196.8C338.3 197.2 338.4 197.5 338.5 197.8C338.6 198.1 338.7 198.3 338.9 198.5C339 198.6 339 198.7 339 198.8C338.6 198.8 338.6 198.9 338.5 199ZM339.7 200.6C339.6 200.7 339.4 200.7 339.2 200.7C339 200.7 338.9 200.6 338.8 200.4C338.7 200.3 338.7 200.1 338.7 200C338.7 199.8 338.8 199.7 339 199.6C339.1 199.5 339.3 199.5 339.4 199.5C339.6 199.5 339.7 199.6 339.8 199.7C339.9 199.8 339.9 200 339.9 200.2C339.9 200.4 339.8 200.5 339.7 200.6Z" fill="white"/>
<path d="M269.8 145.4C269.7 145.5 269.6 145.5 269.5 145.5C269.4 145.5 269.3 145.4 269.3 145.3C269.1 145 269 144.7 268.9 144.3C268.8 143.9 268.8 143.5 268.8 143.2C268.9 142.8 268.9 142.5 269 142.2C269.1 141.9 269.1 141.5 269.1 141.2C269.1 140.9 268.9 140.5 268.7 140.2C268.5 139.9 268.2 139.7 267.9 139.6C267.6 139.5 267.3 139.4 266.9 139.5C266.6 139.5 266.2 139.7 265.9 139.9C265.6 140.1 265.3 140.4 265.2 140.7C265 141 265 141.4 265 141.7C265 142.1 265.2 142.4 265.4 142.7C265.5 142.8 265.5 142.9 265.5 143C265.5 143.1 265.4 143.2 265.3 143.2C265.2 143.3 265.1 143.3 265 143.3C264.9 143.3 264.8 143.2 264.8 143.2C264.5 142.8 264.3 142.3 264.3 141.8C264.3 141.3 264.3 140.9 264.5 140.4C264.7 140 265 139.6 265.5 139.3C266 139 266.4 138.8 266.9 138.7C267.4 138.6 267.8 138.7 268.3 138.9C268.7 139.1 269.1 139.4 269.4 139.8C269.7 140.2 269.8 140.5 269.9 140.9C269.9 141.2 269.9 141.6 269.9 142C269.8 142.4 269.8 142.8 269.7 143.2C269.6 143.6 269.7 143.9 269.8 144.2C269.9 144.5 270 144.7 270.2 144.9C270.3 145 270.3 145.1 270.3 145.2C270 145.3 269.9 145.4 269.8 145.4ZM271 147.1C270.9 147.2 270.7 147.2 270.5 147.2C270.3 147.2 270.2 147.1 270.1 146.9C270 146.8 270 146.6 270 146.5C270 146.3 270.1 146.2 270.3 146.1C270.4 146 270.6 146 270.7 146C270.9 146 271 146.1 271.1 146.2C271.2 146.3 271.2 146.5 271.2 146.7C271.2 146.9 271.2 147 271 147.1Z" fill="white"/>
<path d="M231.4 170.9C231.5 170.8 231.5 170.8 231.6 170.8C231.7 170.8 231.8 170.8 231.9 170.9C232.2 171.1 232.4 171.4 232.6 171.7C232.8 172.1 232.9 172.4 232.9 172.7C232.9 173.1 233 173.4 233 173.8C233 174.1 233.1 174.5 233.2 174.8C233.3 175.1 233.5 175.4 233.9 175.7C234.2 175.9 234.5 176.1 234.8 176.1C235.1 176.1 235.5 176.1 235.8 176C236.1 175.9 236.4 175.6 236.7 175.3C237 175 237.1 174.7 237.2 174.3C237.3 173.9 237.2 173.6 237.1 173.3C237 173 236.8 172.7 236.4 172.4C236.3 172.3 236.3 172.3 236.3 172.2C236.3 172.1 236.3 172 236.4 171.9C236.5 171.8 236.5 171.8 236.6 171.8C236.7 171.8 236.8 171.8 236.9 171.9C237.3 172.2 237.6 172.6 237.8 173.1C238 173.6 238 174 237.9 174.5C237.8 175 237.6 175.4 237.2 175.8C236.9 176.2 236.5 176.5 236 176.7C235.6 176.9 235.1 176.9 234.6 176.9C234.1 176.8 233.7 176.6 233.3 176.3C233 176 232.7 175.7 232.6 175.4C232.5 175.1 232.4 174.7 232.4 174.4C232.4 174 232.3 173.6 232.3 173.2C232.3 172.8 232.2 172.5 232 172.3C231.8 172.1 231.6 171.8 231.5 171.7C231.4 171.6 231.4 171.6 231.4 171.5C231.3 171.1 231.4 171 231.4 170.9ZM229.9 169.6C230 169.5 230.2 169.4 230.3 169.4C230.5 169.4 230.6 169.4 230.7 169.5C230.8 169.6 230.9 169.7 230.9 169.9C230.9 170.1 230.9 170.2 230.8 170.3C230.7 170.4 230.6 170.5 230.4 170.5C230.2 170.5 230.1 170.5 230 170.4C229.9 170.3 229.8 170.1 229.8 170C229.7 169.9 229.7 169.7 229.9 169.6Z" fill="white"/>
<path d="M325.4 176.2C325.3 176.1 325.3 176.1 325.2 176C325.2 175.9 325.2 175.8 325.3 175.7C325.5 175.4 325.7 175.2 326 174.9C326.3 174.7 326.6 174.5 327 174.4C327.4 174.3 327.7 174.2 328 174.2C328.3 174.1 328.6 174 328.9 173.9C329.2 173.7 329.4 173.5 329.7 173.1C329.9 172.8 330 172.5 330 172.1C330 171.8 329.9 171.5 329.7 171.2C329.5 170.9 329.3 170.6 328.9 170.4C328.6 170.2 328.2 170.1 327.9 170.1C327.5 170.1 327.2 170.2 326.9 170.3C326.6 170.5 326.3 170.7 326.1 171.1C326 171.2 326 171.2 325.9 171.3C325.8 171.3 325.7 171.3 325.6 171.2C325.5 171.1 325.5 171.1 325.4 171C325.4 170.9 325.4 170.8 325.4 170.7C325.7 170.2 326 169.9 326.5 169.7C326.9 169.5 327.4 169.4 327.9 169.4C328.4 169.4 328.9 169.6 329.3 169.9C329.7 170.2 330.1 170.5 330.4 171C330.6 171.4 330.8 171.9 330.7 172.3C330.7 172.8 330.6 173.2 330.3 173.7C330.1 174.1 329.8 174.4 329.5 174.5C329.2 174.7 328.9 174.8 328.5 174.9C328.1 175 327.7 175.1 327.3 175.2C326.9 175.3 326.6 175.4 326.4 175.6C326.2 175.8 326 176 325.9 176.2C325.8 176.3 325.8 176.3 325.7 176.4C325.6 176.2 325.5 176.2 325.4 176.2ZM324.3 177.9C324.1 177.8 324.1 177.7 324 177.5C324 177.3 324 177.2 324.1 177C324.2 176.9 324.3 176.8 324.5 176.7C324.7 176.7 324.8 176.7 325 176.8C325.1 176.9 325.2 177 325.3 177.2C325.3 177.4 325.3 177.5 325.2 177.7C325.1 177.9 325 177.9 324.8 178C324.6 178 324.5 178 324.3 177.9Z" fill="white"/>
<path d="M274.1 180.5C274 180.4 274 180.4 273.9 180.3C273.9 180.2 273.9 180.1 274 180C274.2 179.7 274.4 179.5 274.7 179.2C275 179 275.3 178.8 275.7 178.7C276.1 178.6 276.4 178.5 276.7 178.5C277 178.4 277.3 178.3 277.6 178.2C277.9 178 278.1 177.8 278.4 177.4C278.6 177.1 278.7 176.8 278.7 176.4C278.7 176.1 278.6 175.8 278.4 175.5C278.2 175.2 278 174.9 277.6 174.7C277.3 174.5 276.9 174.4 276.6 174.4C276.2 174.4 275.9 174.5 275.6 174.6C275.3 174.8 275 175 274.8 175.4C274.7 175.5 274.7 175.5 274.6 175.6C274.5 175.6 274.4 175.6 274.3 175.5C274.2 175.4 274.2 175.4 274.1 175.3C274.1 175.2 274.1 175.1 274.1 175C274.4 174.5 274.7 174.2 275.2 174C275.6 173.8 276.1 173.7 276.6 173.7C277.1 173.7 277.6 173.9 278 174.2C278.4 174.5 278.8 174.8 279.1 175.3C279.4 175.8 279.5 176.2 279.4 176.6C279.4 177.1 279.3 177.5 279 178C278.8 178.4 278.5 178.7 278.2 178.8C277.9 179 277.6 179.1 277.2 179.2C276.8 179.3 276.4 179.4 276 179.5C275.6 179.6 275.3 179.7 275.1 179.9C274.9 180.1 274.7 180.3 274.6 180.5C274.5 180.6 274.5 180.6 274.4 180.7C274.3 180.6 274.2 180.6 274.1 180.5ZM273 182.3C272.8 182.2 272.8 182.1 272.7 181.9C272.7 181.7 272.7 181.6 272.8 181.4C272.9 181.3 273 181.2 273.2 181.1C273.4 181.1 273.5 181.1 273.7 181.2C273.8 181.3 273.9 181.4 274 181.6C274 181.8 274 181.9 273.9 182.1C273.8 182.3 273.7 182.3 273.5 182.4C273.3 182.4 273.2 182.4 273 182.3Z" fill="white"/>
<path d="M223.5 157.4C223.4 157.4 223.3 157.4 223.2 157.3C223.1 157.2 223.1 157.1 223.1 157C223.1 156.7 223.1 156.3 223.3 155.9C223.4 155.5 223.6 155.2 223.8 154.9C224 154.6 224.3 154.4 224.5 154.1C224.7 153.9 224.9 153.6 225.1 153.3C225.2 153 225.3 152.6 225.3 152.2C225.3 151.8 225.2 151.5 225 151.3C224.8 151 224.5 150.8 224.2 150.7C223.9 150.6 223.5 150.5 223.1 150.5C222.7 150.5 222.4 150.6 222.1 150.8C221.8 151 221.6 151.3 221.4 151.6C221.2 151.9 221.2 152.3 221.2 152.7C221.2 152.8 221.2 152.9 221.1 153C221 153.1 221 153.1 220.8 153.1C220.7 153.1 220.6 153.1 220.5 153C220.4 152.9 220.4 152.9 220.4 152.8C220.4 152.3 220.5 151.8 220.7 151.3C220.9 150.9 221.2 150.5 221.6 150.3C222 150 222.5 149.9 223 149.9C223.5 149.9 224 149.9 224.5 150.2C224.9 150.4 225.3 150.7 225.5 151.1C225.8 151.5 225.9 151.9 225.9 152.4C225.9 152.8 225.9 153.2 225.7 153.5C225.6 153.8 225.4 154.1 225.1 154.4C224.8 154.7 224.6 155 224.3 155.3C224.1 155.6 223.9 155.9 223.8 156.2C223.7 156.5 223.7 156.8 223.7 157C223.7 157.1 223.7 157.2 223.6 157.3C223.7 157.3 223.6 157.4 223.5 157.4ZM223.6 159.5C223.4 159.5 223.3 159.5 223.2 159.3C223.1 159.2 223 159 223 158.9C223 158.7 223 158.6 223.1 158.5C223.2 158.4 223.3 158.3 223.5 158.3C223.7 158.3 223.8 158.3 223.9 158.4C224 158.5 224.1 158.6 224.1 158.8C224.1 159 224.1 159.1 223.9 159.2C223.9 159.4 223.8 159.4 223.6 159.5Z" fill="white"/>
<path d="M258.6 166.9C258.5 166.9 258.4 166.9 258.3 166.8C258.2 166.7 258.2 166.6 258.2 166.5C258.2 166.2 258.2 165.8 258.4 165.4C258.5 165 258.7 164.7 258.9 164.4C259.1 164.1 259.4 163.9 259.6 163.6C259.8 163.4 260 163.1 260.2 162.8C260.3 162.5 260.4 162.1 260.4 161.7C260.4 161.3 260.3 161 260.1 160.8C259.9 160.5 259.6 160.3 259.3 160.2C259 160.1 258.6 160 258.2 160C257.8 160 257.5 160.1 257.2 160.3C256.9 160.5 256.7 160.8 256.5 161.1C256.3 161.4 256.3 161.8 256.3 162.2C256.3 162.3 256.3 162.4 256.2 162.5C256.1 162.6 256.1 162.6 255.9 162.6C255.8 162.6 255.7 162.6 255.6 162.5C255.5 162.4 255.5 162.4 255.5 162.3C255.5 161.8 255.6 161.3 255.8 160.8C256 160.4 256.3 160 256.7 159.8C257.1 159.5 257.6 159.4 258.1 159.4C258.6 159.4 259.1 159.4 259.6 159.7C260 159.9 260.4 160.2 260.6 160.6C260.9 161 261 161.4 261 161.9C261 162.3 261 162.7 260.8 163C260.7 163.3 260.5 163.6 260.2 163.9C259.9 164.2 259.7 164.5 259.4 164.8C259.2 165.1 259 165.4 258.9 165.7C258.8 166 258.8 166.3 258.8 166.5C258.8 166.6 258.8 166.7 258.7 166.8C258.8 166.9 258.7 166.9 258.6 166.9ZM258.8 169C258.6 169 258.5 169 258.4 168.8C258.3 168.7 258.2 168.5 258.2 168.4C258.2 168.2 258.2 168.1 258.3 168C258.4 167.9 258.5 167.8 258.7 167.8C258.9 167.8 259 167.8 259.1 167.9C259.2 168 259.3 168.1 259.3 168.3C259.3 168.5 259.3 168.6 259.1 168.7C259.1 168.9 258.9 169 258.8 169Z" fill="white"/>
<path d="M248.7 196.5C248.6 196.5 248.5 196.5 248.4 196.4C248.3 196.3 248.3 196.2 248.3 196.1C248.3 195.8 248.3 195.4 248.5 195C248.6 194.6 248.8 194.3 249 194C249.2 193.7 249.5 193.5 249.7 193.2C249.9 193 250.1 192.7 250.3 192.4C250.4 192.1 250.5 191.7 250.5 191.3C250.5 190.9 250.4 190.6 250.2 190.4C250 190.1 249.7 189.9 249.4 189.8C249.1 189.7 248.7 189.6 248.3 189.6C247.9 189.6 247.6 189.7 247.3 189.9C247 190.1 246.8 190.4 246.6 190.7C246.4 191 246.4 191.4 246.4 191.8C246.4 191.9 246.4 192 246.3 192.1C246.2 192.2 246.2 192.2 246 192.2C245.9 192.2 245.8 192.2 245.7 192.1C245.6 192 245.6 192 245.6 191.9C245.6 191.4 245.7 190.9 245.9 190.4C246.1 190 246.4 189.6 246.8 189.4C247.2 189.1 247.7 189 248.2 189C248.7 189 249.2 189 249.7 189.3C250.1 189.5 250.5 189.8 250.7 190.2C251 190.6 251.1 191 251.1 191.5C251.1 191.9 251.1 192.3 250.9 192.6C250.8 192.9 250.6 193.2 250.3 193.5C250 193.8 249.8 194.1 249.5 194.4C249.3 194.7 249.1 195 249 195.3C248.9 195.6 248.9 195.9 248.9 196.1C248.9 196.2 248.9 196.3 248.8 196.4C248.9 196.5 248.8 196.5 248.7 196.5ZM248.8 198.6C248.6 198.6 248.5 198.6 248.4 198.4C248.3 198.3 248.2 198.1 248.2 198C248.2 197.8 248.2 197.7 248.3 197.6C248.4 197.5 248.5 197.4 248.7 197.4C248.9 197.4 249 197.4 249.1 197.5C249.2 197.6 249.3 197.7 249.3 197.9C249.3 198.1 249.3 198.2 249.1 198.3C249.1 198.5 249 198.6 248.8 198.6Z" fill="white"/>
<path d="M303.6 171.1C303.5 171.1 303.4 171.1 303.3 171C303.2 170.9 303.2 170.8 303.2 170.7C303.2 170.4 303.2 170 303.4 169.6C303.5 169.2 303.7 168.9 303.9 168.6C304.1 168.3 304.4 168.1 304.6 167.8C304.8 167.6 305 167.3 305.2 167C305.3 166.7 305.4 166.3 305.4 165.9C305.4 165.5 305.3 165.2 305.1 165C304.9 164.7 304.6 164.5 304.3 164.4C304 164.3 303.6 164.2 303.2 164.2C302.8 164.2 302.5 164.3 302.2 164.5C301.9 164.7 301.7 165 301.5 165.3C301.3 165.6 301.3 166 301.3 166.4C301.3 166.5 301.3 166.6 301.2 166.7C301.1 166.8 301.1 166.8 300.9 166.8C300.8 166.8 300.7 166.8 300.6 166.7C300.5 166.6 300.5 166.6 300.5 166.5C300.5 166 300.6 165.5 300.8 165C301 164.6 301.3 164.2 301.7 164C302.1 163.7 302.6 163.6 303.1 163.6C303.6 163.6 304.1 163.6 304.6 163.9C305 164.1 305.4 164.4 305.6 164.8C305.9 165.2 306 165.6 306 166.1C306 166.5 306 166.9 305.8 167.2C305.7 167.5 305.5 167.8 305.2 168.1C304.9 168.4 304.7 168.7 304.4 169C304.2 169.3 304 169.6 303.9 169.9C303.8 170.2 303.8 170.5 303.8 170.7C303.8 170.8 303.8 170.9 303.7 171C303.8 171.1 303.7 171.1 303.6 171.1ZM303.8 173.2C303.6 173.2 303.5 173.2 303.4 173C303.3 172.9 303.2 172.7 303.2 172.6C303.2 172.5 303.2 172.3 303.3 172.2C303.4 172.1 303.5 172 303.7 172C303.9 172 304 172 304.1 172.1C304.2 172.2 304.3 172.3 304.3 172.5C304.3 172.7 304.3 172.8 304.1 172.9C304.1 173.1 303.9 173.2 303.8 173.2Z" fill="white"/>
<path d="M240 149.6C239.9 149.5 239.9 149.5 239.9 149.4C239.9 149.3 239.9 149.2 240 149.1C240.2 148.8 240.5 148.6 240.8 148.4C241.1 148.2 241.5 148.1 241.8 148C242.2 147.9 242.5 147.9 242.9 147.9C243.2 147.9 243.6 147.8 243.8 147.6C244.1 147.5 244.4 147.2 244.6 146.9C244.8 146.6 244.9 146.3 245 146C245 145.7 245 145.3 244.8 145C244.6 144.7 244.4 144.4 244.1 144.2C243.8 144 243.4 143.8 243.1 143.8C242.7 143.8 242.4 143.8 242.1 143.9C241.8 144 241.5 144.3 241.2 144.6C241.1 144.7 241.1 144.7 241 144.7C240.9 144.7 240.8 144.7 240.7 144.6C240.6 144.5 240.6 144.5 240.5 144.4C240.5 144.3 240.5 144.2 240.6 144.1C240.9 143.7 241.3 143.3 241.8 143.2C242.2 143 242.7 142.9 243.2 143C243.7 143.1 244.1 143.3 244.6 143.6C245 143.9 245.4 144.3 245.6 144.7C245.8 145.1 245.9 145.6 245.8 146.1C245.8 146.6 245.6 147 245.3 147.4C245 147.8 244.7 148 244.4 148.2C244.1 148.3 243.7 148.4 243.4 148.5C243 148.5 242.6 148.6 242.2 148.7C241.8 148.8 241.5 148.9 241.3 149.1C241.1 149.3 240.9 149.5 240.7 149.7C240.6 149.8 240.6 149.8 240.5 149.9C240.2 149.7 240.1 149.7 240 149.6ZM238.8 151.3C238.7 151.2 238.6 151.1 238.6 150.9C238.6 150.7 238.6 150.6 238.7 150.5C238.8 150.4 238.9 150.3 239.1 150.3C239.3 150.3 239.4 150.3 239.6 150.4C239.7 150.5 239.8 150.6 239.8 150.8C239.8 151 239.8 151.1 239.7 151.3C239.6 151.4 239.5 151.5 239.3 151.5C239 151.4 238.9 151.4 238.8 151.3Z" fill="white"/>
<path d="M315.4 144.9C315.5 144.8 315.6 144.8 315.7 144.8C315.8 144.8 315.9 144.8 316 144.9C316.2 145.1 316.4 145.4 316.6 145.8C316.7 146.2 316.8 146.5 316.8 146.9C316.8 147.3 316.8 147.6 316.8 148C316.8 148.3 316.8 148.7 316.9 149C317 149.3 317.2 149.6 317.5 149.9C317.8 150.2 318 150.3 318.4 150.4C318.7 150.5 319.1 150.5 319.4 150.4C319.7 150.3 320.1 150.1 320.3 149.8C320.6 149.5 320.8 149.2 320.9 148.9C321 148.6 321 148.2 320.9 147.9C320.8 147.6 320.6 147.2 320.3 146.9C320.2 146.8 320.2 146.7 320.2 146.7C320.2 146.6 320.2 146.5 320.3 146.4C320.4 146.3 320.5 146.3 320.6 146.3C320.7 146.3 320.8 146.3 320.9 146.4C321.3 146.8 321.5 147.2 321.7 147.7C321.8 148.2 321.8 148.6 321.7 149.1C321.6 149.6 321.3 150 320.9 150.4C320.5 150.8 320.1 151 319.6 151.2C319.1 151.4 318.7 151.3 318.2 151.2C317.7 151.1 317.3 150.8 317 150.5C316.7 150.2 316.5 149.9 316.4 149.5C316.3 149.2 316.3 148.8 316.3 148.4C316.3 148 316.3 147.6 316.3 147.2C316.3 146.8 316.2 146.5 316.1 146.2C316 145.9 315.8 145.7 315.6 145.5C315.5 145.4 315.5 145.3 315.5 145.2C315.3 145.1 315.3 145 315.4 144.9ZM314 143.4C314.1 143.3 314.3 143.2 314.4 143.2C314.6 143.2 314.7 143.3 314.8 143.4C314.9 143.5 315 143.7 315 143.8C315 144 314.9 144.1 314.8 144.2C314.7 144.3 314.5 144.4 314.4 144.4C314.2 144.4 314.1 144.3 314 144.2C313.9 144.1 313.8 143.9 313.8 143.8C313.8 143.7 313.8 143.6 314 143.4Z" fill="white"/>
<path d="M290.6 152.1C290.5 152 290.5 152 290.5 151.9C290.5 151.8 290.5 151.7 290.6 151.6C290.8 151.3 291.1 151.1 291.4 150.9C291.7 150.7 292.1 150.6 292.4 150.5C292.8 150.4 293.1 150.4 293.5 150.4C293.8 150.4 294.2 150.3 294.4 150.1C294.7 150 295 149.7 295.2 149.4C295.4 149.1 295.5 148.8 295.6 148.5C295.6 148.2 295.6 147.8 295.4 147.5C295.2 147.2 295 146.9 294.7 146.7C294.4 146.5 294 146.3 293.7 146.3C293.3 146.3 293 146.3 292.7 146.4C292.4 146.5 292.1 146.8 291.8 147.1C291.7 147.2 291.7 147.2 291.6 147.2C291.5 147.2 291.4 147.2 291.3 147.1C291.2 147 291.2 147 291.1 146.9C291 146.8 291.1 146.7 291.2 146.6C291.5 146.2 291.9 145.8 292.4 145.7C292.8 145.5 293.3 145.4 293.8 145.5C294.3 145.6 294.7 145.8 295.2 146.1C295.7 146.4 296 146.8 296.2 147.2C296.4 147.6 296.5 148.1 296.4 148.6C296.4 149.1 296.2 149.5 295.9 149.9C295.6 150.3 295.3 150.5 295 150.7C294.7 150.8 294.3 150.9 294 151C293.6 151 293.2 151.1 292.8 151.2C292.4 151.3 292.1 151.4 291.9 151.6C291.7 151.8 291.5 152 291.3 152.2C291.2 152.3 291.2 152.3 291.1 152.4C290.8 152.2 290.7 152.2 290.6 152.1ZM289.4 153.8C289.3 153.7 289.2 153.6 289.2 153.4C289.2 153.2 289.2 153.1 289.3 153C289.4 152.9 289.5 152.8 289.7 152.8C289.9 152.8 290 152.8 290.2 152.9C290.3 153 290.4 153.1 290.4 153.3C290.4 153.5 290.4 153.6 290.3 153.8C290.2 153.9 290.1 154 289.9 154C289.7 153.9 289.5 153.9 289.4 153.8Z" fill="white"/>
<path d="M319.4 122.9C327.3 132.4 338.4 139.6 350.6 140.9C362.8 142.2 376.1 136.8 382.3 126.2C386.9 118.4 387.4 108.5 384.5 99.9C381.6 91.3 375.6 83.9 368.1 78.8C353.5 68.8 338.7 62.5 338.7 62.5" stroke="#071146" stroke-width="2" stroke-miterlimit="10" stroke-linecap="round" stroke-linejoin="round"/>
<path d="M324.3 57.6C329.5 57.9 334.2 60.2 338.9 62.5C336.6 62.5 334.3 62.5 331.9 62.5C330.6 62.5 329.2 62.5 328 63.1" stroke="#071146" stroke-width="2" stroke-miterlimit="10" stroke-linecap="round" stroke-linejoin="round"/>
<path d="M229.4 122.9C221.5 132.4 210.4 139.6 198.2 140.9C186 142.2 172.7 136.8 166.5 126.2C161.9 118.4 161.4 108.5 164.3 99.9C167.2 91.3 173.2 83.9 180.7 78.8C195.3 68.8 210.1 62.5 210.1 62.5" stroke="#071146" stroke-width="2" stroke-miterlimit="10" stroke-linecap="round" stroke-linejoin="round"/>
<path d="M224.6 57.6C219.4 57.9 214.7 60.2 210 62.5C212.3 62.5 214.6 62.5 217 62.5C218.3 62.5 219.7 62.5 220.9 63.1" stroke="#071146" stroke-width="2" stroke-miterlimit="10" stroke-linecap="round" stroke-linejoin="round"/>
<path d="M124.2 205.6C133.5 207.3 142.3 212 151.8 212.1C160.6 212.1 168.9 208 177.3 205.3C194.6 199.8 213.7 200.3 230.7 206.6C242.7 211.1 254.8 218.5 267.4 216.2C278.7 214.2 287.6 204.6 299 202.9C317 200.1 334.3 217.6 351.8 212.6C359.4 210.4 365.7 204.2 373.6 203.9C381.7 203.6 388.5 209.6 396 212.9C405.4 217.1 416.8 216.8 426 212.1C430.9 209.6 435.1 206 440.2 204" stroke="#071146" stroke-width="2" stroke-miterlimit="10" stroke-linecap="round" stroke-linejoin="round"/>
<path d="M244.3 99.6C257.997 99.6 269.1 88.4967 269.1 74.8C269.1 61.1033 257.997 50 244.3 50C230.603 50 219.5 61.1033 219.5 74.8C219.5 88.4967 230.603 99.6 244.3 99.6Z" stroke="#071146" stroke-width="2" stroke-miterlimit="10"/>
<path d="M246.1 90.6C237.2 90.6 230.1 83.4 230.1 74.6" stroke="#071146" stroke-width="2" stroke-miterlimit="10" stroke-linecap="round" stroke-linejoin="round"/>
<path d="M305.8 90.6C296.9 90.6 289.8 83.4 289.8 74.6" stroke="#071146" stroke-width="2" stroke-miterlimit="10" stroke-linecap="round" stroke-linejoin="round"/>
<path d="M395.1 190C400.6 193 406.4 196.1 412.7 196.1C419.3 196.1 425.3 192.8 431.2 190C440.6 185.5 451 182.1 461.3 184C470.2 185.6 477.9 191 486.4 194.4C495.3 198 505.7 199.2 514.5 195.1C521 192.1 526.1 186.5 532.9 184C540.1 181.4 548.8 183 554.5 188.2" stroke="#071146" stroke-width="2" stroke-miterlimit="10" stroke-linecap="round" stroke-linejoin="round"/>
<path d="M172.5 190C166.6 193 160.3 196.1 153.6 196.1C146.5 196.1 140 192.8 133.6 190C123.5 185.5 112.2 182.1 101.2 184C91.5999 185.6 83.2999 191 74.1999 194.4C64.5999 198 53.3999 199.2 43.9999 195.1C36.9999 192.1 31.4999 186.5 24.1999 184C16.3999 181.4 7.0999 183 0.899902 188.2" stroke="#071146" stroke-width="2" stroke-miterlimit="10" stroke-linecap="round" stroke-linejoin="round"/>
<path d="M32.7 51.6C37.3 46.4 45.9 46.1 51.9 49.5C57.9 52.9 61.8999 59.3 64.0999 65.9C63.8999 62.8 63.6 59.8 63.4 56.7C63.2 54.3 63 51.8 63.4 49.4C64.6 42.5 71.7999 37.1 78.6999 38.3" stroke="#071146" stroke-width="2" stroke-miterlimit="10" stroke-linecap="round" stroke-linejoin="round"/>
<path d="M435 88.8C440.9 85 449.4 87.3 454.1 92.7C458.7 98.1 460 105.6 459.7 112.6C461.3 106.9 463.6 101.3 467.7 97.1C471.8 92.9 477.9 90.2 483.7 91.4" stroke="#071146" stroke-width="2" stroke-miterlimit="10" stroke-linecap="round" stroke-linejoin="round"/>
<path d="M102.6 109.8C106.4 108.7 110.6 110.1 113.5 112.7C116.4 115.3 118.3 118.9 119.7 122.6C119.5 118.7 119.8 114.7 121.5 111.3C123.2 107.8 126.3 104.9 130.1 104.1" stroke="#071146" stroke-width="2" stroke-miterlimit="10" stroke-linecap="round" stroke-linejoin="round"/>
</g>
<defs>
<clipPath id="clip0">
<rect width="555.4" height="217.6" fill="white"/>
</clipPath>
</defs>
</svg>
