<svg width="405" height="178" viewBox="0 0 405 178" fill="none" xmlns="http://www.w3.org/2000/svg">
<g clip-path="url(#clip0)">
<path d="M254.147 95.2961L250.195 92.893L246.659 90.8905L224.818 78.4747L212.13 71.2655C206.826 68.2617 200.377 68.2617 195.073 71.1654L155.448 93.3937L152.848 95.2961C150.664 97.3988 149.208 100.403 149.208 103.707V113.72V113.92L149 165.085C149 171.393 154.096 176.7 160.44 176.7L246.243 177C252.587 177 257.787 171.793 257.787 165.485L257.995 103.907C258.099 100.503 256.539 97.3988 254.147 95.2961Z" fill="white"/>
<path d="M150.6 58.7H149V72.2L135 58.7H110.7C105.6 58.7 101.5 54.6 101.5 49.5V23.2C101.5 18.1 105.6 14 110.7 14H150.7C155.8 14 159.9 18.1 159.9 23.2V49.5C159.8 54.6 155.7 58.7 150.6 58.7Z" stroke="white" stroke-width="2" stroke-miterlimit="10" stroke-linecap="round" stroke-linejoin="round"/>
<path d="M199.2 2.09997C200.2 2.59997 201.2 3.19997 202.2 3.89997C202.6 4.19997 202.8 4.69997 202.6 5.19997L201.9 7.49997C201.6 8.59997 202.1 9.69997 203.1 10.1C203.4 10.2 203.7 10.3 204 10.3H206.4C206.9 10.3 207.3 10.6 207.5 11.1C208.3 13.3 208.5 15.6 208.2 17.9C208.1 18.4 207.8 18.8 207.3 18.9L204.9 19.4C204.2 19.5 203.7 20 203.4 20.6C203.1 21.2 203.2 22 203.5 22.6L204.7 24.7C204.9 25.1 204.9 25.7 204.6 26.1C203.1 27.8 201.2 29.2 199 30.1C198.5 30.3 198 30.2 197.7 29.8L196.1 28C195.6 27.5 195 27.2 194.3 27.3C193.6 27.4 193 27.8 192.7 28.4L191.5 30.5C191.2 30.9 190.8 31.2 190.3 31.1C188 30.7 185.8 29.7 184 28.3C183.6 28 183.4 27.5 183.6 27L184.3 24.7C184.5 24 184.4 23.3 184 22.8C183.6 22.2 183 21.9 182.3 21.9H179.9C179.4 21.9 179 21.6 178.8 21.1C178 18.9 177.8 16.6 178.1 14.2C178.2 13.7 178.5 13.3 179 13.2L181.4 12.7C182.1 12.6 182.6 12.1 182.9 11.5C183.2 10.9 183.1 10.1 182.8 9.49997L181.6 7.39997C181.4 6.99997 181.4 6.39997 181.7 5.99997C183.2 4.29997 185.1 2.89997 187.3 1.99997C187.8 1.79997 188.3 1.89997 188.6 2.29997L190.2 4.09997C190.7 4.59997 191.3 4.89997 192 4.79997C192.7 4.69997 193.3 4.29997 193.6 3.69997L194.8 1.59997C195.1 1.19997 195.6 0.899972 196.1 0.999972C197 1.29997 198.1 1.59997 199.2 2.09997ZM195.3 10.7C198.3 12 199.6 15.5 198.3 18.5C197 21.5 193.5 22.8 190.5 21.5C187.5 20.2 186.2 16.7 187.5 13.7C188.8 10.7 192.3 9.29997 195.3 10.7Z" stroke="#071146" stroke-width="2" stroke-miterlimit="10" stroke-linecap="round" stroke-linejoin="round"/>
<path d="M307.7 113.5H320.8" stroke="#B5C0E3" stroke-width="2" stroke-miterlimit="10" stroke-linecap="round" stroke-linejoin="round"/>
<path d="M314.2 106.9V120" stroke="#B5C0E3" stroke-width="2" stroke-miterlimit="10" stroke-linecap="round" stroke-linejoin="round"/>
<path d="M69.1 90.6H82.2" stroke="#B5C0E3" stroke-width="2" stroke-miterlimit="10" stroke-linecap="round" stroke-linejoin="round"/>
<path d="M75.7 84.1V97.2" stroke="#B5C0E3" stroke-width="2" stroke-miterlimit="10" stroke-linecap="round" stroke-linejoin="round"/>
<path d="M328 51.6H341.1" stroke="#B5C0E3" stroke-width="2" stroke-miterlimit="10" stroke-linecap="round" stroke-linejoin="round"/>
<path d="M334.5 45V58.1" stroke="#B5C0E3" stroke-width="2" stroke-miterlimit="10" stroke-linecap="round" stroke-linejoin="round"/>
<path d="M287.7 64.8C295.929 64.8 302.6 58.129 302.6 49.9C302.6 41.671 295.929 35 287.7 35C279.471 35 272.8 41.671 272.8 49.9C272.8 58.129 279.471 64.8 287.7 64.8Z" fill="#B1DEF5"/>
<path d="M287.7 48.3C289.743 48.3 291.4 46.6435 291.4 44.6C291.4 42.5566 289.743 40.9 287.7 40.9C285.656 40.9 284 42.5566 284 44.6C284 46.6435 285.656 48.3 287.7 48.3Z" stroke="#071146" stroke-width="2" stroke-miterlimit="10" stroke-linecap="round" stroke-linejoin="round"/>
<path d="M287.6 58.3C290.7 58.3 293.3 55.8 293.3 52.6V51.7C293.3 51.1 292.8 50.7 292.3 50.7H283C282.4 50.7 282 51.2 282 51.7V52.6C282 55.8 284.5 58.3 287.6 58.3Z" stroke="#071146" stroke-width="2" stroke-miterlimit="10" stroke-linecap="round" stroke-linejoin="round"/>
<path d="M90.5 160C98.729 160 105.4 153.329 105.4 145.1C105.4 136.871 98.729 130.2 90.5 130.2C82.2709 130.2 75.6 136.871 75.6 145.1C75.6 153.329 82.2709 160 90.5 160Z" fill="#B3C1F4"/>
<path d="M90.5 143.5C92.5435 143.5 94.2 141.843 94.2 139.8C94.2 137.757 92.5435 136.1 90.5 136.1C88.4566 136.1 86.8 137.757 86.8 139.8C86.8 141.843 88.4566 143.5 90.5 143.5Z" stroke="#071146" stroke-width="2" stroke-miterlimit="10" stroke-linecap="round" stroke-linejoin="round"/>
<path d="M90.5 153.6C93.6 153.6 96.2 151.1 96.2 147.9V147C96.2 146.4 95.7 146 95.2 146H85.9C85.3 146 84.9 146.5 84.9 147V147.9C84.8 151 87.3 153.5 90.5 153.6Z" stroke="#071146" stroke-width="2" stroke-miterlimit="10" stroke-linecap="round" stroke-linejoin="round"/>
<path d="M241.8 38.9C243.899 38.9 245.6 37.1987 245.6 35.1C245.6 33.0013 243.899 31.3 241.8 31.3C239.701 31.3 238 33.0013 238 35.1C238 37.1987 239.701 38.9 241.8 38.9Z" stroke="white" stroke-width="2" stroke-miterlimit="10" stroke-linecap="round" stroke-linejoin="round"/>
<path d="M123.1 117.3C125.199 117.3 126.9 115.599 126.9 113.5C126.9 111.401 125.199 109.7 123.1 109.7C121.001 109.7 119.3 111.401 119.3 113.5C119.3 115.599 121.001 117.3 123.1 117.3Z" stroke="#0052CC" stroke-width="2" stroke-miterlimit="10" stroke-linecap="round" stroke-linejoin="round"/>
<path d="M298.8 160.8C300.899 160.8 302.6 159.099 302.6 157C302.6 154.901 300.899 153.2 298.8 153.2C296.701 153.2 295 154.901 295 157C295 159.099 296.701 160.8 298.8 160.8Z" stroke="#0052CC" stroke-width="2" stroke-miterlimit="10" stroke-linecap="round" stroke-linejoin="round"/>
<path d="M44.6 52.2C52.1111 52.2 58.2 46.1111 58.2 38.6C58.2 31.0889 52.1111 25 44.6 25C37.0889 25 31 31.0889 31 38.6C31 46.1111 37.0889 52.2 44.6 52.2Z" fill="#95E196"/>
<path d="M44.4 44.1C44.1 44.1 43.9 44 43.7 43.8L38.2 38.1C37.8 37.7 37.8 37 38.2 36.6C38.6 36.2 39.3 36.2 39.7 36.6L44.3 41.4L50.7 33.5C51.1 33 51.7 33 52.2 33.3C52.7 33.7 52.7 34.3 52.4 34.8L45.2 43.7C45.1 43.9 44.8 44.1 44.4 44.1C44.5 44.1 44.5 44.1 44.4 44.1Z" fill="white"/>
<path d="M219.3 136L250.7 118.5" stroke="#0052CC" stroke-width="2" stroke-miterlimit="10" stroke-linecap="round" stroke-linejoin="round"/>
<path d="M155.6 117.2L188.3 135.8" stroke="#0052CC" stroke-width="2" stroke-miterlimit="10" stroke-linecap="round" stroke-linejoin="round"/>
<path d="M247.1 90.6L250.7 92.6L254.7 95C257.1 97.1 258.6 100.2 258.6 103.7L258.4 165.2C258.4 171.5 253.2 176.7 246.8 176.7L160.8 176.4C154.5 176.4 149.3 171.2 149.3 164.8L149.5 113.7" stroke="#071146" stroke-width="2" stroke-miterlimit="10" stroke-linecap="round" stroke-linejoin="round"/>
<path d="M149.4 113.5V103.5C149.4 100.2 150.8 97.2 153 95.1L155.6 93.2L195.4 71C200.7 68 207.2 68 212.5 71.1L225.2 78.3" stroke="#071146" stroke-width="2" stroke-miterlimit="10" stroke-linecap="round" stroke-linejoin="round"/>
<path d="M250.7 154.2L212.5 132.5C207.2 129.5 200.7 129.5 195.4 132.4L155.6 154.6" stroke="#0052CC" stroke-width="2" stroke-miterlimit="10" stroke-linecap="round" stroke-linejoin="round"/>
<path d="M203.9 167.3C202.1 167.3 200.4 167 198.9 166.4C197.4 165.8 196 164.9 194.9 163.8C193.8 162.7 192.9 161.4 192.3 159.8C191.7 158.3 191.4 156.6 191.4 154.8C191.4 153 191.7 151.3 192.3 149.7C192.9 148.2 193.8 146.8 194.9 145.7C196 144.6 197.3 143.7 198.9 143.1C200.4 142.5 202.1 142.2 203.9 142.2C205.7 142.2 207.4 142.5 209 143.1C210.5 143.7 211.9 144.6 213 145.7C214.1 146.8 215 148.1 215.6 149.7C216.2 151.2 216.5 152.9 216.5 154.8C216.5 156.3 216.3 157.6 215.9 158.7C215.5 159.8 215 160.7 214.3 161.4C213.6 162.1 212.8 162.4 211.9 162.4C211.1 162.4 210.5 162.1 209.9 161.6C209.4 161.1 209.1 160.4 209.1 159.6V158.8C208.8 159.3 208.4 159.7 207.8 160.1C207.2 160.5 206.6 160.8 206 161C205.3 161.2 204.7 161.3 204 161.3C202.7 161.3 201.6 161 200.6 160.4C199.6 159.8 198.8 159 198.2 158C197.6 157 197.3 155.8 197.3 154.6C197.3 153.3 197.6 152.1 198.2 151.1C198.8 150.1 199.6 149.3 200.6 148.7C201.6 148.1 202.8 147.8 204 147.8C205.3 147.8 206.5 148.1 207.4 148.7C208.4 149.3 209.2 150.1 209.7 151.1C210.3 152.1 210.6 153.3 210.6 154.6V159C210.6 159.6 210.7 160.1 210.9 160.3C211.1 160.6 211.4 160.7 211.8 160.7C212.4 160.7 213 160.4 213.5 159.9C214 159.4 214.4 158.6 214.6 157.7C214.9 156.8 215 155.7 215 154.5C215 152.9 214.7 151.4 214.2 150C213.7 148.6 212.9 147.5 211.9 146.5C210.9 145.5 209.7 144.7 208.4 144.2C207 143.7 205.6 143.4 203.9 143.4C202.3 143.4 200.8 143.7 199.4 144.2C198 144.7 196.9 145.5 195.9 146.5C194.9 147.5 194.1 148.7 193.6 150C193.1 151.4 192.8 152.8 192.8 154.5C192.8 156.1 193.1 157.6 193.6 159C194.1 160.4 194.9 161.5 195.9 162.5C196.9 163.5 198.1 164.3 199.4 164.8C200.8 165.3 202.2 165.6 203.9 165.6C204.7 165.6 205.5 165.5 206.3 165.3C207.1 165.1 207.9 164.9 208.4 164.6C208.7 164.4 209 164.4 209.2 164.5C209.4 164.6 209.5 164.8 209.5 165.1C209.5 165.4 209.3 165.6 208.8 165.9C208.3 166.2 207.6 166.4 206.8 166.7C206 167.2 205 167.3 203.9 167.3ZM203.9 159.9C204.9 159.9 205.8 159.7 206.6 159.2C207.4 158.7 208 158.1 208.4 157.4C208.8 156.6 209.1 155.7 209.1 154.7C209.1 153.7 208.9 152.8 208.4 152C208 151.2 207.3 150.6 206.6 150.2C205.8 149.8 204.9 149.5 203.9 149.5C202.9 149.5 202 149.7 201.2 150.2C200.4 150.6 199.8 151.3 199.4 152C199 152.8 198.7 153.7 198.7 154.7C198.7 155.7 198.9 156.6 199.4 157.4C199.8 158.2 200.5 158.8 201.2 159.2C202 159.7 202.9 159.9 203.9 159.9Z" fill="#FCAA90" stroke="#FCAA90" stroke-width="0.5" stroke-miterlimit="10"/>
<path d="M245.3 92.5L231.6 106.2C228.1 109.7 222.5 109.7 219 106.2C215.5 102.7 215.5 97.1 219 93.6L232.7 79.9C236.2 76.4 241.8 76.4 245.3 79.9C248.8 83.4 248.8 89 245.3 92.5ZM220.5 95C217.8 97.7 217.8 102.1 220.5 104.7C223.2 107.3 227.6 107.4 230.2 104.7L243.9 91C246.6 88.3 246.6 83.9 243.9 81.3C241.2 78.6 236.8 78.6 234.2 81.3L220.5 95Z" fill="#071146"/>
<path d="M253.2 74.4L246.3 81.3C246.3 81.3 245.9 80.7 245.7 80.6C245.5 80.4 245 79.8 245 79.8L251.8 73C254.5 70.3 254.5 65.9 251.8 63.3C249.1 60.7 244.7 60.6 242.1 63.3L228.4 77C225.7 79.7 225.7 84.1 228.4 86.7C231.1 89.3 235.5 89.4 238.1 86.7L243.6 81.2C243.6 81.2 244 81.6 244.4 82C244.7 82.4 244.9 82.8 244.9 82.8L239.6 88.1C236.1 91.6 230.5 91.6 227 88.1C223.5 84.6 223.5 79 227 75.5L240.7 61.8C244.2 58.3 249.8 58.3 253.3 61.8C256.7 65.3 256.7 70.9 253.2 74.4Z" fill="#FEDB8F"/>
<path d="M187.5 106.1C192.912 106.1 197.3 101.712 197.3 96.3C197.3 90.8876 192.912 86.5 187.5 86.5C182.088 86.5 177.7 90.8876 177.7 96.3C177.7 101.712 182.088 106.1 187.5 106.1Z" stroke="#071146" stroke-width="2" stroke-miterlimit="10" stroke-linecap="round" stroke-linejoin="round"/>
<path d="M193.9 103.7L215.3 128.8L222.7 122.5" stroke="#071146" stroke-width="2" stroke-miterlimit="10" stroke-linecap="round" stroke-linejoin="round"/>
<path d="M211.1 123.9L218.6 117.6" stroke="#071146" stroke-width="2" stroke-miterlimit="10" stroke-linecap="round" stroke-linejoin="round"/>
<path d="M111.9 29H149.4" stroke="white" stroke-width="2" stroke-miterlimit="10" stroke-linecap="round" stroke-linejoin="round"/>
<path d="M111.9 37.2H149.4" stroke="white" stroke-width="2" stroke-miterlimit="10" stroke-linecap="round" stroke-linejoin="round"/>
<path d="M111.9 45.4H149.4" stroke="white" stroke-width="2" stroke-miterlimit="10" stroke-linecap="round" stroke-linejoin="round"/>
<path d="M1 112C1 112.5 1.1 112.9 1.3 113.4L7.6 129L1.4 144.3C0.6 146.2 1.5 148.3 3.4 149C5.3 149.8 7.4 148.9 8.1 147L14.8 130.4C15.2 129.5 15.2 128.5 14.8 127.7L7.9 110.7C7.1 108.8 5 107.9 3.2 108.7C1.9 109.2 1 110.6 1 112Z" stroke="#FEDB8F" stroke-width="2" stroke-miterlimit="10"/>
<path d="M15.9 112C15.9 112.5 16 112.9 16.2 113.4L22.5 129L16.3 144.3C15.5 146.2 16.4 148.3 18.3 149C20.2 149.8 22.3 148.9 23 147L29.7 130.4C30.1 129.5 30.1 128.5 29.7 127.7L22.8 110.7C22 108.8 19.9 107.9 18.1 108.7C16.8 109.2 15.9 110.6 15.9 112Z" stroke="#FEDB8F" stroke-width="2" stroke-miterlimit="10"/>
<path d="M30.8 112C30.8 112.5 30.9 112.9 31.1 113.4L37.4001 129L31.2001 144.3C30.4001 146.2 31.3001 148.3 33.2001 149C35.1001 149.8 37.2001 148.9 37.9001 147L44.6 130.4C45 129.5 45 128.5 44.6 127.7L37.7001 110.7C36.9001 108.8 34.8 107.9 33 108.7C31.7 109.2 30.8 110.6 30.8 112Z" stroke="#FEDB8F" stroke-width="2" stroke-miterlimit="10"/>
<path d="M370.8 105L404 105.1" stroke="#B6E2DF" stroke-width="2" stroke-linecap="round" stroke-linejoin="round"/>
<path d="M374.7 108.4L371.4 105L374.8 101.7H371.9L368.5 105L371.9 108.4H374.7Z" fill="#B6E2DF"/>
<path d="M358.8 119.8L404 119.9" stroke="#B6E2DF" stroke-width="2" stroke-linecap="round" stroke-linejoin="round"/>
<path d="M362.8 123.2L359.4 119.8L362.8 116.4H360L356.6 119.8L359.9 123.2H362.8Z" fill="#B6E2DF"/>
<path d="M370.7 134.6H404" stroke="#B6E2DF" stroke-width="2" stroke-linecap="round" stroke-linejoin="round"/>
<path d="M374.7 138L371.3 134.6L374.7 131.2H371.8L368.4 134.6L371.8 138H374.7Z" fill="#B6E2DF"/>
</g>
<defs>
<clipPath id="clip0">
<rect width="405" height="177.7" fill="white"/>
</clipPath>
</defs>
</svg>
