<svg width="459" height="924" viewBox="0 0 459 924" fill="none" xmlns="http://www.w3.org/2000/svg">
<path d="M444.652 178.383C443.456 177.425 442.021 176.707 440.587 176.228L439.391 175.749C438.673 175.51 437.956 175.031 437.239 174.791L160.319 62.7333C160.08 62.7333 160.08 62.7333 160.08 62.4939L11.5764 2.39436C3.68491 -0.718366 -4.92401 -0.718366 -12.8155 2.39436L-123.775 47.4091L-124.492 47.6486L-164.189 63.6911L-439.913 175.51C-442.065 176.228 -443.739 177.186 -445.652 178.383C-454.5 184.369 -460 194.425 -460 205.44V224.355V642.658V718.8C-460 731.969 -451.869 743.941 -439.673 748.969L-423.651 755.434C-421.26 756.392 -207.233 843.069 -95.5566 888.084L-36.49 912.028C-36.2508 912.028 -36.0117 912.267 -36.0117 912.267L-34.3377 912.986C-33.6203 913.225 -32.9029 913.465 -32.4247 913.704L-31.7072 913.943C-30.9898 914.183 -30.5116 914.422 -30.0333 914.662L-29.555 914.901C-29.3159 914.901 -29.3159 914.901 -29.3159 914.901L-12.5764 921.605C-12.5764 921.605 -12.5764 921.605 -12.3372 921.605C-11.3807 921.845 -10.4241 922.324 -9.70673 922.563C-9.46759 922.563 -9.46759 922.563 -9.22845 922.563C-8.51105 922.803 -7.79364 923.042 -6.8371 923.042C-6.59796 923.042 -6.35883 923.042 -5.88055 923.282C-5.16315 923.282 -4.44574 923.521 -3.96747 923.521C-3.72833 923.521 -3.4892 923.521 -3.25006 923.521C-2.29352 923.521 -1.33698 923.76 -0.380432 923.76C0.576111 923.76 1.53265 923.76 2.4892 923.521C2.72833 923.521 2.96747 923.521 3.2066 923.521C3.92401 923.521 4.64145 923.282 5.11972 923.282C5.35886 923.282 5.59796 923.282 6.07623 923.042C6.79364 922.803 7.75018 922.803 8.46759 922.563C8.70673 922.563 8.70676 922.563 8.94589 922.563C9.90244 922.324 10.859 922.084 11.5764 921.605C11.5764 921.605 11.5764 921.605 11.8155 921.605L21.1418 917.774L25.4463 916.098L89.0565 890.478L428.869 753.04L438.673 748.969C450.869 743.941 459 732.208 459 718.8V700.123V238.004V205.44C459 194.425 453.5 184.369 444.652 178.383Z" fill="#0052CC"/>
<g clip-path="url(#clip0)">
<path d="M285.8 504.6C267.2 525.9 196.3 528 159.6 523.3C151.9 522.3 142.9 520.3 135.9 516.8V517.8C132.2 545.6 127.8 573.4 122.6 600.9C136.3 608.1 153 604.9 167.5 599.7C182.1 594.5 196.5 587.6 211.9 587.7C220.3 587.8 228.6 590 236.5 593C244.9 596.2 253.3 600.4 262.3 600.6C275.5 600.8 287.3 592.4 300.3 589.9C298.1 583 289 516.6 286 504.5H285.8V504.6Z" fill="#B1DEF5"/>
<path d="M180.9 340.2C183.2 339.7 185.6 339.1 187.8 338.4C194.8 336.1 201.6 333 207.9 329C209 328.3 219.7 320 224.2 315.8C224.5 317.2 225.1 318.2 226.1 319.3C232.1 326 239.7 331.2 248.1 334.3C251.1 328.6 252.4 321.9 250.4 315.8C240 282.1 193.3 294 185.4 306.7C178.8 317.3 176 328.9 172.9 340.9C175.6 341 178.3 340.7 180.9 340.2Z" fill="#FEDB8F"/>
<path d="M243.8 334.4C245.9 341.3 246.2 349.4 246.2 357.5C246.2 387.8 230.2 412.3 210.5 412.3C190.8 412.3 174.8 387.8 174.8 357.5C174.8 351.5 175.4 345.7 176.6 340.4" stroke="white" stroke-width="2" stroke-miterlimit="10" stroke-linecap="round" stroke-linejoin="round"/>
<path d="M193.9 376.3C200.307 376.3 205.5 371.106 205.5 364.7C205.5 358.293 200.307 353.1 193.9 353.1C187.494 353.1 182.3 358.293 182.3 364.7C182.3 371.106 187.494 376.3 193.9 376.3Z" stroke="white" stroke-width="2" stroke-miterlimit="10" stroke-linecap="round" stroke-linejoin="round"/>
<path d="M227 376.3C233.406 376.3 238.6 371.106 238.6 364.7C238.6 358.293 233.406 353.1 227 353.1C220.593 353.1 215.4 358.293 215.4 364.7C215.4 371.106 220.593 376.3 227 376.3Z" stroke="white" stroke-width="2" stroke-miterlimit="10" stroke-linecap="round" stroke-linejoin="round"/>
<path d="M204.9 365.1C205.3 364.9 205.7 364.6 206.1 364.3C207.2 363.5 208.7 363.2 210.1 363.1C211.1 363 212.1 363 213 363.3C214 363.5 214.9 364 215.5 364.8" stroke="white" stroke-width="2" stroke-miterlimit="10" stroke-linecap="round" stroke-linejoin="round"/>
<path d="M238.8 362.6C239.7 361.5 240.7 360.5 241.8 359.7C242.7 359 243.6 358.4 244.7 358.3C246.8 358 248.9 359.7 249.3 361.8C249.7 363.9 248.6 366.1 246.8 367.3" stroke="white" stroke-width="2" stroke-miterlimit="10" stroke-linecap="round" stroke-linejoin="round"/>
<path d="M182.4 362C180.3 360.7 177.9 359.9 175.4 359.7C175 359.7 174.6 359.6 174.3 359.7C173.7 359.9 173.3 360.3 173 360.8C172.2 361.9 171.8 363.2 172 364.5C172.2 365.8 173.2 367 174.4 367.3" stroke="white" stroke-width="2" stroke-miterlimit="10" stroke-linecap="round" stroke-linejoin="round"/>
<path d="M176.5 340.2C178.8 339.7 181.2 339.1 183.4 338.4C190.4 336.1 197.2 333 203.5 329C204.6 328.3 215.3 320 219.8 315.8C220.1 317.2 220.7 318.2 221.7 319.3C227.7 326 235.3 331.2 243.7 334.3C246.7 328.6 248 321.9 246 315.8C235.6 282.1 188.8 294 180.9 306.7C174.4 317.2 171.5 328.9 168.5 340.8C171.2 341 173.9 340.7 176.5 340.2Z" stroke="white" stroke-width="2" stroke-miterlimit="10" stroke-linecap="round" stroke-linejoin="round"/>
<path d="M285.3 504.9C283.7 464.4 270.1 423 237 394.3" stroke="white" stroke-width="2" stroke-miterlimit="10" stroke-linecap="round" stroke-linejoin="round"/>
<path d="M263.2 600.2C263.7 601.6 264.2 603 264.6 604.4C269.3 618.7 272.9 633.5 280.1 646.8C281 648.5 282.8 650.4 284.5 649.4C285.1 649.1 285.4 648.5 285.7 647.9C288.9 642 288.7 634.9 288.4 628.1C287.9 616.6 287.6 605.3 287.4 594" stroke="white" stroke-width="2" stroke-miterlimit="10" stroke-linecap="round" stroke-linejoin="round"/>
<path d="M150.7 603.7C155 617.3 159.9 630.6 165.6 643.7C166.8 646.5 169.8 649.9 172.3 648.1C173.6 647.2 173.8 645.5 173.9 644C175.1 627.4 173 610.3 177.3 594.3" stroke="white" stroke-width="2" stroke-miterlimit="10" stroke-linecap="round" stroke-linejoin="round"/>
<path d="M182.4 394.2C146.6 425.3 131.9 474.3 132.1 517.8" stroke="white" stroke-width="2" stroke-miterlimit="10" stroke-linecap="round" stroke-linejoin="round"/>
<path d="M163.2 369.6C131 364.6 108.4 380.8 103.7 402.3C102 410 101.6 417.9 102.3 425.7C104.8 451.3 128.5 464 143.7 439.1" stroke="white" stroke-width="2" stroke-miterlimit="10" stroke-linecap="round" stroke-linejoin="round"/>
<path d="M172.9 356.8C170.9 357.3 168.8 358 167.3 359.3C164.6 361.7 164.1 365.7 163.8 369.3C164.5 367.3 165.5 365.3 167.1 363.9C168.7 362.5 171 361.8 173 362.5" stroke="white" stroke-width="2" stroke-miterlimit="10" stroke-linecap="round" stroke-linejoin="round"/>
<path opacity="0.5" d="M228.2 659.3C275.034 659.3 313 654.957 313 649.6C313 644.243 275.034 639.9 228.2 639.9C181.366 639.9 143.4 644.243 143.4 649.6C143.4 654.957 181.366 659.3 228.2 659.3Z" fill="#B1DEF5"/>
<path d="M217.8 346.3C220.4 343.3 223.6 340.9 227.1 339.1" stroke="white" stroke-width="2" stroke-miterlimit="10" stroke-linecap="round" stroke-linejoin="round"/>
<path d="M184.5 344.8C186.1 343.7 188 342.9 189.9 342.5C191.2 342.3 192.5 342.2 193.8 342.1C195.8 342 198 342 199.4 343.3" stroke="white" stroke-width="2" stroke-miterlimit="10" stroke-linecap="round" stroke-linejoin="round"/>
<path d="M220.9 293.8C228.742 293.8 235.1 287.442 235.1 279.6C235.1 271.758 228.742 265.4 220.9 265.4C213.058 265.4 206.7 271.758 206.7 279.6C206.7 287.442 213.058 293.8 220.9 293.8Z" fill="#FEDB8F"/>
<path d="M217.8 294.4C225.643 294.4 232 288.042 232 280.2C232 272.358 225.643 266 217.8 266C209.958 266 203.6 272.358 203.6 280.2C203.6 288.042 209.958 294.4 217.8 294.4Z" stroke="white" stroke-width="2" stroke-miterlimit="10" stroke-linecap="round" stroke-linejoin="round"/>
<path d="M182.6 325.2C185.2 317.5 190.1 310.7 196.3 305.4C202.5 300.1 209.8 296.3 217.4 293.5C210.6 300.4 204.5 308 199.1 316" stroke="white" stroke-width="2" stroke-miterlimit="10" stroke-linecap="round" stroke-linejoin="round"/>
<path d="M231.6 276.2C231.2 274.7 229.9 273.6 228.5 272.8C226.7 271.8 224.7 271 222.6 271C219 271 215.5 273.5 214.6 276.9C213.7 280.3 215.6 284.4 219 285.6C220.3 286.1 221.8 286.1 223.1 285.6C224.4 285.1 225.4 283.8 225.5 282.4C225.6 281 224.7 279.5 223.4 279.1" stroke="white" stroke-width="2" stroke-miterlimit="10" stroke-linecap="round" stroke-linejoin="round"/>
<path d="M163.2 415L133.9 430.3L147.5 442.6" stroke="white" stroke-width="2" stroke-miterlimit="10" stroke-linecap="round" stroke-linejoin="round"/>
<path d="M255.8 415L285 430.3L271.5 442.6" stroke="white" stroke-width="2" stroke-miterlimit="10" stroke-linecap="round" stroke-linejoin="round"/>
<path d="M132.2 516.8C139.3 520.3 148.6 522.3 156.4 523.3C194 528 266.5 525.9 285.5 504.6" stroke="white" stroke-width="2" stroke-miterlimit="10" stroke-linecap="round" stroke-linejoin="round"/>
<path d="M132.2 517.9C128.5 545.7 123.9 573.5 118.6 601C132.6 608.2 149.7 605 164.5 599.8C179.4 594.6 194.2 587.7 209.9 587.8C218.5 587.9 227 590.1 235.1 593.1C243.7 596.3 252.3 600.5 261.5 600.7C275 600.9 287.1 592.5 300.4 590C298.2 583.1 288.9 516.7 285.8 504.6" stroke="white" stroke-width="2" stroke-miterlimit="10" stroke-linecap="round" stroke-linejoin="round"/>
<path d="M188.2 400.4L168.5 418.3L203.6 412.3" stroke="white" stroke-width="2" stroke-miterlimit="10" stroke-linecap="round" stroke-linejoin="round"/>
<path d="M233.3 400.4L252.9 418.3L217.8 412.3" stroke="white" stroke-width="2" stroke-miterlimit="10" stroke-linecap="round" stroke-linejoin="round"/>
<path d="M210.2 413C208.5 422.4 208.9 432 209.3 441.6C210.5 469.8 211.7 497.9 213.5 526.1" stroke="white" stroke-width="2" stroke-miterlimit="10" stroke-linecap="round" stroke-linejoin="round"/>
<path d="M200.1 441.7C201.536 441.7 202.7 440.536 202.7 439.1C202.7 437.664 201.536 436.5 200.1 436.5C198.664 436.5 197.5 437.664 197.5 439.1C197.5 440.536 198.664 441.7 200.1 441.7Z" stroke="white" stroke-width="2" stroke-miterlimit="10" stroke-linecap="round" stroke-linejoin="round"/>
<path d="M200.1 470.3C201.536 470.3 202.7 469.136 202.7 467.7C202.7 466.264 201.536 465.1 200.1 465.1C198.664 465.1 197.5 466.264 197.5 467.7C197.5 469.136 198.664 470.3 200.1 470.3Z" stroke="white" stroke-width="2" stroke-miterlimit="10" stroke-linecap="round" stroke-linejoin="round"/>
<path d="M200.1 498.9C201.536 498.9 202.7 497.736 202.7 496.3C202.7 494.864 201.536 493.7 200.1 493.7C198.664 493.7 197.5 494.864 197.5 496.3C197.5 497.736 198.664 498.9 200.1 498.9Z" stroke="white" stroke-width="2" stroke-miterlimit="10" stroke-linecap="round" stroke-linejoin="round"/>
<path d="M277.6 436.6C286.1 451.3 297.8 465.2 313.9 470.5C330 475.9 350.7 469.7 356.8 453.9C358.8 448.9 359.2 443.4 359.5 438C359.9 430.5 360.1 422.7 357.7 415.6C353.7 403.7 343.4 395.2 336 385.1C333.6 381.9 331.5 378.3 331.1 374.3C330.7 370.8 331.7 367.2 330.6 363.9C329.5 360.6 324.6 358.4 322.6 361.3" stroke="white" stroke-width="2" stroke-miterlimit="10" stroke-linecap="round" stroke-linejoin="round"/>
<path d="M291.5 415C292.5 414.3 367.8 302 367.8 302" stroke="white" stroke-width="2" stroke-miterlimit="10" stroke-linecap="round" stroke-linejoin="round"/>
<path d="M200.3 391.2C202.6 393.2 205.6 394.5 208.6 394.7C211.7 394.9 214.8 393.9 217.1 391.9C217.3 391.7 217.5 391.6 217.7 391.7C217.9 391.8 217.5 392.1 217.5 391.9" stroke="white" stroke-width="2" stroke-miterlimit="10" stroke-linecap="round" stroke-linejoin="round"/>
<path d="M204.2 389.7C204.7 389 205.3 388.4 206.2 388.2C207 388 208 388.5 208.2 389.3C208.2 388.3 209.2 387.7 210.2 387.5C211.7 387.3 213.1 388.1 214 389.3C214.9 390.5 215.2 392 215.3 393.5C215.3 395.5 214.6 397.8 212.9 398.8C211.9 399.3 210.8 399.4 209.7 399.4C208.6 399.4 207.4 399.3 206.4 398.8C203 397.3 202.3 392.5 204.2 389.7Z" stroke="white" stroke-width="2" stroke-miterlimit="10" stroke-linecap="round" stroke-linejoin="round"/>
</g>
<defs>
<clipPath id="clip0">
<rect width="267.8" height="394.2" fill="white" transform="translate(101 265)"/>
</clipPath>
</defs>
</svg>
