<svg width="555" height="217" viewBox="0 0 555 217" fill="none" xmlns="http://www.w3.org/2000/svg">
<g clip-path="url(#clip0)">
<path d="M202.992 166C193.175 158.779 185.619 148.088 183.006 136.124C180.393 124.159 182.865 110.991 190.492 101.363C198.119 91.7345 210.76 86.2124 222.836 88.0531C227.286 88.7611 231.735 90.4602 234.842 93.7168C237.949 96.9734 239.574 101.929 238.02 106.177C235.407 113.398 224.602 114.956 218.952 109.788C213.302 104.619 213.02 95.2743 216.763 88.5487C220.506 81.823 227.427 77.5044 234.63 74.8142C238.938 73.1858 243.458 72.1239 248.048 72.0531C260.054 71.8407 271.848 79.2743 276.932 90.2478C279.616 96.1239 280.181 102.991 283.5 108.513C300.944 137.611 336.254 130.035 349.814 121.823C359.277 116.159 363.726 104.407 366.622 93.7168C369.517 83.0265 369.446 71.4159 374.814 61.7168C379.192 53.7876 387.172 47.9115 396 46" stroke="white" stroke-miterlimit="10" stroke-linecap="round" stroke-linejoin="round" stroke-dasharray="6 6"/>
<path d="M401.2 32.8001L404.6 34.9001C404.8 35.0001 404.9 35.1001 404.9 35.3001L407.6 49.0001C407.7 49.5001 408.3 49.6001 408.6 49.2001L411.7 44.3001C411.9 44.0001 412.3 44.0001 412.6 44.2001L419.8 51.8001C420.1 52.1001 420.5 52.0001 420.7 51.6001L430.9 19.7001C431.1 19.3001 430.7 18.8001 430.2 19.0001L401.4 31.9001C400.8 32.0001 400.7 32.6001 401.2 32.8001Z" fill="white"/>
<path d="M399.1 31.4001L404.5 34.0001C404.7 34.1001 404.8 34.2001 404.8 34.4001L406.5 43.7001C406.6 44.2001 407.2 44.3001 407.5 43.9001L410.6 39.0001C410.8 38.7001 411.2 38.7001 411.5 38.9001L418.7 46.5001C419 46.8001 419.4 46.7001 419.6 46.3001L431 19.4001C431.2 19.0001 430.8 18.5001 430.3 18.7001L399.2 30.4001C398.7 30.6001 398.6 31.2001 399.1 31.4001Z" stroke="#071146" stroke-width="2" stroke-miterlimit="10" stroke-linecap="round" stroke-linejoin="round"/>
<path d="M410.9 38.4L428.2 21.5C428.7 21.1 428.1 20.3 427.5 20.6L404.7 34.1" stroke="#071146" stroke-width="2" stroke-miterlimit="10" stroke-linecap="round" stroke-linejoin="round"/>
<path d="M74.2 55.4H87.4" stroke="white" stroke-width="2" stroke-miterlimit="10" stroke-linecap="round" stroke-linejoin="round"/>
<path d="M80.7999 48.8V62" stroke="white" stroke-width="2" stroke-miterlimit="10" stroke-linecap="round" stroke-linejoin="round"/>
<path d="M87 135.5H100.1" stroke="#B5C0E3" stroke-width="2" stroke-miterlimit="10" stroke-linecap="round" stroke-linejoin="round"/>
<path d="M93.6 129V142.1" stroke="#B5C0E3" stroke-width="2" stroke-miterlimit="10" stroke-linecap="round" stroke-linejoin="round"/>
<path d="M244 46.4H257.1" stroke="#B5C0E3" stroke-width="2" stroke-miterlimit="10" stroke-linecap="round" stroke-linejoin="round"/>
<path d="M250.5 39.9V53" stroke="#B5C0E3" stroke-width="2" stroke-miterlimit="10" stroke-linecap="round" stroke-linejoin="round"/>
<path d="M392.2 190.6H405.3" stroke="#B5C0E3" stroke-width="2" stroke-miterlimit="10" stroke-linecap="round" stroke-linejoin="round"/>
<path d="M398.8 184.1V197.2" stroke="#B5C0E3" stroke-width="2" stroke-miterlimit="10" stroke-linecap="round" stroke-linejoin="round"/>
<path d="M458.7 42.2999H471.8" stroke="#B5C0E3" stroke-width="2" stroke-miterlimit="10" stroke-linecap="round" stroke-linejoin="round"/>
<path d="M465.3 35.7V48.7999" stroke="#B5C0E3" stroke-width="2" stroke-miterlimit="10" stroke-linecap="round" stroke-linejoin="round"/>
<path d="M540.6 158.2H553.7" stroke="white" stroke-width="2" stroke-miterlimit="10" stroke-linecap="round" stroke-linejoin="round"/>
<path d="M547.1 151.6V164.7" stroke="white" stroke-width="2" stroke-miterlimit="10" stroke-linecap="round" stroke-linejoin="round"/>
<path d="M527 94H536.9" stroke="white" stroke-width="2" stroke-miterlimit="10" stroke-linecap="round" stroke-linejoin="round"/>
<path d="M531.9 89V98.9" stroke="white" stroke-width="2" stroke-miterlimit="10" stroke-linecap="round" stroke-linejoin="round"/>
<path d="M206.9 162C208.999 162 210.7 160.299 210.7 158.2C210.7 156.101 208.999 154.4 206.9 154.4C204.801 154.4 203.1 156.101 203.1 158.2C203.1 160.299 204.801 162 206.9 162Z" stroke="#071146" stroke-width="2" stroke-miterlimit="10" stroke-linecap="round" stroke-linejoin="round"/>
<path d="M309.7 38.1C311.799 38.1 313.5 36.3987 313.5 34.3C313.5 32.2013 311.799 30.5 309.7 30.5C307.601 30.5 305.9 32.2013 305.9 34.3C305.9 36.3987 307.601 38.1 309.7 38.1Z" stroke="#071146" stroke-width="2" stroke-miterlimit="10" stroke-linecap="round" stroke-linejoin="round"/>
<path d="M434 81.7C436.099 81.7 437.8 79.9987 437.8 77.9C437.8 75.8013 436.099 74.1 434 74.1C431.901 74.1 430.2 75.8013 430.2 77.9C430.2 79.9987 431.901 81.7 434 81.7Z" stroke="#071146" stroke-width="2" stroke-miterlimit="10" stroke-linecap="round" stroke-linejoin="round"/>
<path d="M508.5 194.8C510.599 194.8 512.3 193.099 512.3 191C512.3 188.901 510.599 187.2 508.5 187.2C506.401 187.2 504.7 188.901 504.7 191C504.7 193.099 506.401 194.8 508.5 194.8Z" stroke="#071146" stroke-width="2" stroke-miterlimit="10" stroke-linecap="round" stroke-linejoin="round"/>
<path d="M89.1 198.6C91.1987 198.6 92.9 196.899 92.9 194.8C92.9 192.701 91.1987 191 89.1 191C87.0014 191 85.3 192.701 85.3 194.8C85.3 196.899 87.0014 198.6 89.1 198.6Z" stroke="#071146" stroke-width="2" stroke-miterlimit="10" stroke-linecap="round" stroke-linejoin="round"/>
<path d="M133.8 129.4C135.899 129.4 137.6 127.699 137.6 125.6C137.6 123.501 135.899 121.8 133.8 121.8C131.701 121.8 130 123.501 130 125.6C130 127.699 131.701 129.4 133.8 129.4Z" stroke="#071146" stroke-width="2" stroke-miterlimit="10" stroke-linecap="round" stroke-linejoin="round"/>
<path d="M4.8 65.9C6.89868 65.9 8.6 64.1987 8.6 62.1C8.6 60.0014 6.89868 58.3 4.8 58.3C2.70132 58.3 1 60.0014 1 62.1C1 64.1987 2.70132 65.9 4.8 65.9Z" stroke="#071146" stroke-width="2" stroke-miterlimit="10" stroke-linecap="round" stroke-linejoin="round"/>
<path d="M176 190.9L151.2 200.2C149.4 200.9 147.3 200 146.6 198.1L139.9 180.2C139.2 178.4 140.1 176.3 142 175.6L166.8 166.3C168.6 165.6 170.7 166.5 171.4 168.4L178.1 186.3C178.7 188.2 177.8 190.2 176 190.9Z" fill="white"/>
<path d="M137 182.7L154.9 185.5C157 185.8 159.1 185 160.4 183.4L172 169.5" stroke="#071146" stroke-width="2" stroke-miterlimit="10" stroke-linecap="round" stroke-linejoin="round"/>
<path d="M177.3 183.7L162.3 181.4" stroke="#071146" stroke-width="2" stroke-miterlimit="10" stroke-linecap="round" stroke-linejoin="round"/>
<path d="M152.1 185.2L142.3 196.9" stroke="#071146" stroke-width="2" stroke-miterlimit="10" stroke-linecap="round" stroke-linejoin="round"/>
<path d="M175.8 191L148.2 201.4C146.2 202.2 143.9 201.1 143.1 199.1L135.7 179.4C134.9 177.4 136 175.1 138 174.3L165.6 163.9C167.6 163.1 169.9 164.2 170.7 166.2L178.1 185.9C178.9 187.9 177.9 190.2 175.8 191Z" stroke="#071146" stroke-width="2" stroke-miterlimit="10" stroke-linecap="round" stroke-linejoin="round"/>
<path d="M218.2 28.3L193.4 37.6C191.6 38.3 189.5 37.4 188.8 35.5L182 17.6C181.3 15.8 182.2 13.7 184.1 13L208.9 3.70001C210.7 3.00001 212.8 3.90001 213.5 5.80001L220.2 23.7C220.9 25.6 220 27.6 218.2 28.3Z" fill="white"/>
<path d="M179.2 20.0999L197.1 22.8999C199.2 23.1999 201.3 22.3999 202.6 20.7999L214.2 6.8999" stroke="#071146" stroke-width="2" stroke-miterlimit="10" stroke-linecap="round" stroke-linejoin="round"/>
<path d="M219.5 21.1L204.5 18.8" stroke="#071146" stroke-width="2" stroke-miterlimit="10" stroke-linecap="round" stroke-linejoin="round"/>
<path d="M194.3 22.5999L184.5 34.2999" stroke="#071146" stroke-width="2" stroke-miterlimit="10" stroke-linecap="round" stroke-linejoin="round"/>
<path d="M218 28.3999L190.4 38.7999C188.4 39.5999 186.1 38.4999 185.3 36.4999L177.9 16.7999C177.1 14.7999 178.2 12.4999 180.2 11.6999L207.8 1.29995C209.8 0.499946 212.1 1.59995 212.9 3.59995L220.3 23.2999C221.1 25.2999 220.1 27.5999 218 28.3999Z" stroke="#071146" stroke-width="2" stroke-miterlimit="10" stroke-linecap="round" stroke-linejoin="round"/>
<path d="M499.678 142.478L476.678 129.278C474.978 128.278 474.378 126.078 475.378 124.378L484.878 107.778C485.878 106.078 488.078 105.478 489.778 106.478L512.778 119.678C514.478 120.678 515.078 122.878 514.078 124.578L504.578 141.178C503.578 142.878 501.378 143.478 499.678 142.478Z" fill="white"/>
<path d="M481.178 107.178L490.478 122.678C491.578 124.478 493.478 125.578 495.578 125.578L513.678 125.678" stroke="#071146" stroke-width="2" stroke-miterlimit="10" stroke-linecap="round" stroke-linejoin="round"/>
<path d="M506.078 138.978L498.278 125.878" stroke="#071146" stroke-width="2" stroke-miterlimit="10" stroke-linecap="round" stroke-linejoin="round"/>
<path d="M488.878 120.478L473.678 120.378" stroke="#071146" stroke-width="2" stroke-miterlimit="10" stroke-linecap="round" stroke-linejoin="round"/>
<path d="M499.578 142.378L473.978 127.678C472.078 126.578 471.478 124.178 472.478 122.278L482.978 103.978C484.078 102.078 486.478 101.478 488.378 102.478L513.978 117.178C515.878 118.278 516.478 120.678 515.478 122.578L504.978 140.878C503.878 142.878 501.478 143.478 499.578 142.378Z" stroke="#071146" stroke-width="2" stroke-miterlimit="10" stroke-linecap="round" stroke-linejoin="round"/>
<path d="M446.158 163.64C451.377 158.238 451.23 149.629 445.829 144.409C440.427 139.19 431.818 139.337 426.598 144.738C421.379 150.14 421.526 158.749 426.927 163.969C432.328 169.188 440.938 169.041 446.158 163.64Z" fill="#95E196" stroke="#071146" stroke-width="2" stroke-miterlimit="10" stroke-linecap="round" stroke-linejoin="round"/>
<path d="M436.3 159.7C436 159.7 435.8 159.6 435.6 159.4L430.1 153.7C429.7 153.3 429.7 152.6 430.1 152.2C430.5 151.8 431.2 151.8 431.6 152.2L436.2 157L442.6 149.1C443 148.6 443.6 148.6 444.1 148.9C444.6 149.3 444.6 149.9 444.3 150.4L437.1 159.3C437 159.6 436.7 159.7 436.3 159.7Z" fill="white"/>
<path d="M137 72.3C135.1 72.3 133.4 72 131.8 71.4C130.2 70.8 128.9 69.9 127.7 68.7C126.5 67.5 125.7 66.2 125 64.6C124.4 63 124.1 61.3 124.1 59.4C124.1 57.5 124.4 55.8 125 54.2C125.6 52.6 126.5 51.3 127.7 50.1C128.8 49 130.2 48.1 131.8 47.4C133.4 46.7 135.1 46.5 137 46.5C138.9 46.5 140.6 46.8 142.2 47.4C143.8 48 145.1 48.9 146.3 50.1C147.4 51.2 148.3 52.6 149 54.2C149.6 55.8 149.9 57.5 149.9 59.4C149.9 60.9 149.7 62.3 149.3 63.4C148.9 64.6 148.3 65.5 147.6 66.2C146.9 66.9 146.1 67.2 145.1 67.2C144.3 67.2 143.6 66.9 143.1 66.4C142.6 65.9 142.3 65.2 142.3 64.4V63.6C142 64.1 141.5 64.5 141 64.9C140.4 65.3 139.8 65.6 139.1 65.8C138.4 66 137.7 66.1 137 66.1C135.7 66.1 134.5 65.8 133.5 65.2C132.5 64.6 131.7 63.8 131.1 62.8C130.5 61.8 130.2 60.6 130.2 59.3C130.2 58 130.5 56.8 131.1 55.8C131.7 54.8 132.5 54 133.5 53.4C134.5 52.8 135.7 52.5 137 52.5C138.3 52.5 139.5 52.8 140.5 53.4C141.5 54 142.3 54.8 142.9 55.8C143.5 56.8 143.8 58 143.8 59.3V64C143.8 64.6 143.9 65.1 144.2 65.4C144.4 65.7 144.7 65.8 145.1 65.8C145.7 65.8 146.3 65.5 146.8 65C147.3 64.5 147.7 63.7 148 62.8C148.3 61.9 148.4 60.8 148.4 59.5C148.4 57.8 148.1 56.3 147.6 54.9C147 53.5 146.3 52.3 145.2 51.3C144.2 50.3 143 49.5 141.6 48.9C140.2 48.3 138.7 48.1 137 48.1C135.3 48.1 133.8 48.4 132.4 48.9C131 49.5 129.8 50.2 128.8 51.3C127.8 52.3 127 53.5 126.5 54.9C126 56.3 125.7 57.8 125.7 59.5C125.7 61.2 126 62.7 126.5 64.1C127.1 65.5 127.8 66.7 128.8 67.7C129.8 68.7 131 69.5 132.4 70C133.8 70.5 135.3 70.8 137 70.8C137.8 70.8 138.6 70.7 139.5 70.5C140.4 70.3 141.1 70.1 141.7 69.8C142 69.6 142.3 69.6 142.5 69.7C142.7 69.8 142.8 70 142.8 70.3C142.8 70.6 142.6 70.9 142.1 71.2C141.6 71.5 140.9 71.8 140 72C139.1 72.2 138.1 72.3 137 72.3ZM137 64.8C138 64.8 138.9 64.6 139.7 64.1C140.5 63.6 141.1 63 141.6 62.2C142.1 61.4 142.3 60.5 142.3 59.5C142.3 58.5 142.1 57.5 141.6 56.7C141.1 55.9 140.5 55.3 139.7 54.8C138.9 54.3 138 54.1 137 54.1C136 54.1 135.1 54.3 134.3 54.8C133.5 55.3 132.9 55.9 132.4 56.7C131.9 57.5 131.7 58.4 131.7 59.5C131.7 60.5 131.9 61.4 132.4 62.2C132.9 63 133.5 63.6 134.3 64.1C135 64.6 135.9 64.8 137 64.8Z" fill="#FCAA90"/>
<path d="M39.9 168.2C38.7 168.2 37.5 168 36.5 167.6C35.5 167.2 34.6 166.6 33.8 165.8C33 165 32.5 164.1 32 163.1C31.6 162.1 31.4 160.9 31.4 159.7C31.4 158.4 31.6 157.3 32 156.3C32.4 155.3 33 154.4 33.8 153.6C34.6 152.8 35.5 152.3 36.5 151.8C37.5 151.4 38.7 151.2 39.9 151.2C41.2 151.2 42.3 151.4 43.3 151.8C44.3 152.2 45.2 152.8 46 153.6C46.8 154.4 47.3 155.3 47.8 156.3C48.2 157.3 48.4 158.5 48.4 159.7C48.4 160.7 48.3 161.6 48 162.4C47.7 163.2 47.4 163.8 46.9 164.2C46.4 164.6 45.9 164.9 45.3 164.9C44.8 164.9 44.3 164.7 44 164.4C43.7 164.1 43.5 163.6 43.5 163.1V162.6C43.3 162.9 43 163.2 42.6 163.5C42.2 163.8 41.8 164 41.4 164.1C40.9 164.2 40.5 164.3 40 164.3C39.1 164.3 38.4 164.1 37.7 163.7C37 163.3 36.5 162.8 36.1 162.1C35.7 161.4 35.5 160.6 35.5 159.8C35.5 158.9 35.7 158.1 36.1 157.5C36.5 156.8 37 156.3 37.7 155.9C38.4 155.5 39.2 155.3 40 155.3C40.9 155.3 41.7 155.5 42.3 155.9C43 156.3 43.5 156.8 43.9 157.5C44.3 158.2 44.5 159 44.5 159.8V162.8C44.5 163.2 44.6 163.5 44.7 163.7C44.9 163.9 45.1 164 45.3 164C45.7 164 46.1 163.8 46.4 163.5C46.7 163.1 47 162.7 47.2 162C47.4 161.4 47.5 160.7 47.5 159.8C47.5 158.7 47.3 157.7 46.9 156.8C46.5 155.9 46 155.1 45.3 154.4C44.6 153.7 43.8 153.2 42.9 152.8C42 152.4 41 152.2 39.9 152.2C38.8 152.2 37.8 152.4 36.9 152.8C36 153.2 35.2 153.7 34.5 154.4C33.8 155.1 33.3 155.9 32.9 156.8C32.5 157.7 32.4 158.7 32.4 159.8C32.4 160.9 32.6 161.9 32.9 162.8C33.3 163.7 33.8 164.5 34.5 165.2C35.2 165.9 36 166.4 36.9 166.7C37.8 167.1 38.8 167.2 39.9 167.2C40.4 167.2 41 167.1 41.5 167C42.1 166.9 42.6 166.7 42.9 166.5C43.1 166.4 43.3 166.4 43.5 166.4C43.6 166.5 43.7 166.6 43.7 166.8C43.7 167 43.5 167.2 43.2 167.4C42.9 167.6 42.4 167.8 41.8 167.9C41.3 168.1 40.6 168.2 39.9 168.2ZM39.9 163.2C40.6 163.2 41.2 163 41.7 162.7C42.2 162.4 42.6 162 42.9 161.5C43.2 161 43.4 160.4 43.4 159.7C43.4 159 43.2 158.4 42.9 157.9C42.6 157.4 42.2 157 41.7 156.7C41.2 156.4 40.6 156.2 39.9 156.2C39.2 156.2 38.6 156.4 38.1 156.7C37.6 157 37.2 157.4 36.9 157.9C36.6 158.4 36.4 159 36.4 159.7C36.4 160.4 36.5 161 36.9 161.5C37.2 162 37.6 162.4 38.1 162.7C38.6 163 39.2 163.2 39.9 163.2Z" fill="#FCAA90"/>
<path d="M521.3 64.8C519.4 64.8 517.7 64.5 516.1 63.9C514.5 63.3 513.2 62.4 512 61.2C510.9 60.1 510 58.7 509.3 57.1C508.7 55.5 508.4 53.8 508.4 51.9C508.4 50 508.7 48.3 509.3 46.7C509.9 45.1 510.8 43.8 512 42.6C513.1 41.5 514.5 40.6 516.1 39.9C517.7 39.3 519.4 39 521.3 39C523.2 39 524.9 39.3 526.5 39.9C528.1 40.5 529.4 41.4 530.6 42.6C531.7 43.7 532.6 45.1 533.3 46.7C533.9 48.3 534.2 50 534.2 51.9C534.2 53.4 534 54.8 533.6 55.9C533.2 57.1 532.6 58 531.9 58.7C531.2 59.4 530.4 59.7 529.4 59.7C528.6 59.7 527.9 59.4 527.4 58.9C526.9 58.4 526.6 57.7 526.6 56.9V56.1C526.3 56.6 525.8 57 525.3 57.4C524.7 57.8 524.1 58.1 523.4 58.3C522.7 58.5 522 58.6 521.3 58.6C520 58.6 518.8 58.3 517.8 57.7C516.8 57.1 516 56.3 515.4 55.3C514.8 54.3 514.5 53.1 514.5 51.8C514.5 50.5 514.8 49.3 515.4 48.3C516 47.3 516.8 46.5 517.8 45.9C518.8 45.3 520 45 521.3 45C522.6 45 523.8 45.3 524.8 45.9C525.8 46.5 526.6 47.3 527.2 48.3C527.8 49.3 528.1 50.5 528.1 51.8V56.3C528.1 56.9 528.2 57.4 528.5 57.7C528.7 58 529 58.1 529.4 58.1C530 58.1 530.6 57.8 531.1 57.3C531.6 56.8 532 56 532.3 55.1C532.6 54.2 532.7 53.1 532.7 51.8C532.7 50.1 532.4 48.6 531.9 47.2C531.3 45.8 530.6 44.6 529.5 43.6C528.5 42.6 527.3 41.8 525.9 41.2C524.5 40.6 523 40.4 521.3 40.4C519.6 40.4 518.1 40.7 516.7 41.2C515.3 41.8 514.1 42.5 513.1 43.6C512.1 44.6 511.3 45.8 510.8 47.2C510.3 48.6 510 50.1 510 51.8C510 53.5 510.3 55 510.8 56.4C511.4 57.8 512.1 59 513.1 60C514.1 61 515.3 61.8 516.7 62.3C518.1 62.8 519.6 63.1 521.3 63.1C522.1 63.1 522.9 63 523.8 62.8C524.7 62.6 525.4 62.4 526 62.1C526.3 61.9 526.6 61.9 526.8 62C527 62.1 527.1 62.3 527.1 62.6C527.1 62.9 526.9 63.2 526.4 63.5C525.9 63.8 525.2 64.1 524.3 64.3C523.4 64.5 522.4 64.8 521.3 64.8ZM521.3 57.2C522.3 57.2 523.2 57 524 56.5C524.8 56 525.4 55.4 525.9 54.6C526.4 53.8 526.6 52.9 526.6 51.9C526.6 50.9 526.4 49.9 525.9 49.1C525.4 48.3 524.8 47.7 524 47.2C523.2 46.7 522.3 46.5 521.3 46.5C520.3 46.5 519.4 46.7 518.6 47.2C517.8 47.7 517.2 48.3 516.7 49.1C516.2 49.9 516 50.8 516 51.9C516 52.9 516.2 53.8 516.7 54.6C517.2 55.4 517.8 56 518.6 56.5C519.4 57 520.3 57.2 521.3 57.2Z" fill="#FCAA90"/>
<path d="M278.9 134.9H276C273.8 134.9 272.1 136.7 272.1 138.8V211.8C272.1 214 273.9 215.7 276 215.7H278.9C281.1 215.7 282.8 213.9 282.8 211.8V138.8C282.9 136.7 281.1 134.9 278.9 134.9Z" stroke="#071146" stroke-width="2" stroke-miterlimit="10" stroke-linecap="round" stroke-linejoin="round"/>
<path d="M371.1 146.7H259.1C252.5 146.7 247.1 141.3 247.1 134.7V89.4C247.1 82.8 252.5 77.4 259.1 77.4H371.1C377.7 77.4 383.1 82.8 383.1 89.4V134.7C383.1 141.3 377.7 146.7 371.1 146.7Z" fill="#B3C1F4"/>
<path d="M377.6 142.3H241.6V85.1C241.6 78.5 247 73.1 253.6 73.1H365.6C372.2 73.1 377.6 78.5 377.6 85.1V142.3Z" stroke="#071146" stroke-width="2" stroke-miterlimit="10" stroke-linecap="round" stroke-linejoin="round"/>
<path d="M377.6 142.3H322V85.1C322 78.5 327.4 73.1 334 73.1H366.9" stroke="#071146" stroke-width="2" stroke-miterlimit="10" stroke-linecap="round" stroke-linejoin="round"/>
<path d="M364.9 185.1H333.9C327.3 185.1 321.9 179.7 321.9 173.1V142.1" stroke="#071146" stroke-width="2" stroke-miterlimit="10" stroke-linecap="round" stroke-linejoin="round"/>
<path d="M365.6 185.1H332.7" stroke="#071146" stroke-width="2" stroke-miterlimit="10" stroke-linecap="round" stroke-linejoin="round"/>
<path d="M321.9 142.3H377.5V173.1C377.5 179.7 372.1 185.1 365.5 185.1" stroke="#071146" stroke-width="2" stroke-miterlimit="10" stroke-linecap="round" stroke-linejoin="round"/>
<path d="M382.7 121.2L356.2 121.1C354.2 121.1 352.6 119.5 352.6 117.5L352.7 98.3999C352.7 96.3999 354.3 94.7999 356.3 94.7999L382.8 94.8999C384.8 94.8999 386.4 96.4999 386.4 98.4999L386.3 117.6C386.3 119.6 384.7 121.2 382.7 121.2Z" fill="white"/>
<path d="M349.2 99.6L364.9 108.5C366.7 109.5 368.9 109.5 370.8 108.5L386.6 99.7" stroke="#071146" stroke-width="2" stroke-miterlimit="10" stroke-linecap="round" stroke-linejoin="round"/>
<path d="M386.5 114.9L373.3 107.4" stroke="#071146" stroke-width="2" stroke-miterlimit="10" stroke-linecap="round" stroke-linejoin="round"/>
<path d="M362.4 107.4L349.1 114.8" stroke="#071146" stroke-width="2" stroke-miterlimit="10" stroke-linecap="round" stroke-linejoin="round"/>
<path d="M382.6 121.2L353.1 121.1C350.9 121.1 349.2 119.3 349.2 117.1L349.3 96C349.3 93.8 351.1 92.1 353.3 92.1L382.8 92.2C385 92.2 386.7 94 386.7 96.2L386.6 117.3C386.5 119.4 384.7 121.2 382.6 121.2Z" stroke="#071146" stroke-width="2" stroke-miterlimit="10" stroke-linecap="round" stroke-linejoin="round"/>
<path d="M284.3 123.4C282.2 123.4 280.4 123.1 278.6 122.4C276.9 121.7 275.4 120.7 274.1 119.5C272.8 118.3 271.9 116.8 271.2 115C270.5 113.3 270.2 111.4 270.2 109.3C270.2 107.2 270.5 105.3 271.2 103.6C271.9 101.9 272.9 100.4 274.1 99.1C275.4 97.8 276.8 96.9 278.6 96.2C280.3 95.5 282.2 95.2 284.3 95.2C286.4 95.2 288.3 95.5 290 96.2C291.7 96.9 293.2 97.9 294.5 99.1C295.8 100.4 296.7 101.8 297.4 103.6C298.1 105.3 298.4 107.2 298.4 109.3C298.4 111 298.2 112.4 297.7 113.7C297.3 115 296.6 116 295.9 116.7C295.1 117.4 294.2 117.8 293.2 117.8C292.3 117.8 291.6 117.5 291 116.9C290.4 116.3 290.1 115.6 290.1 114.7V114C289.7 114.5 289.3 115 288.6 115.5C288 115.9 287.3 116.3 286.5 116.5C285.8 116.7 285 116.9 284.2 116.9C282.8 116.9 281.5 116.6 280.3 115.9C279.2 115.3 278.3 114.4 277.7 113.3C277.1 112.2 276.7 110.9 276.7 109.4C276.7 107.9 277 106.6 277.7 105.5C278.3 104.4 279.2 103.5 280.3 102.9C281.4 102.3 282.7 101.9 284.2 101.9C285.7 101.9 286.9 102.2 288.1 102.9C289.2 103.5 290.1 104.4 290.7 105.5C291.3 106.6 291.7 107.9 291.7 109.4V114.4C291.7 115.1 291.8 115.6 292.1 115.9C292.4 116.2 292.7 116.3 293.1 116.3C293.8 116.3 294.4 116 295 115.4C295.5 114.8 296 114 296.3 113C296.6 112 296.8 110.8 296.8 109.4C296.8 107.6 296.5 105.9 295.9 104.4C295.3 102.9 294.4 101.6 293.3 100.5C292.2 99.4 290.9 98.5 289.4 97.9C287.9 97.3 286.2 97 284.4 97C282.6 97 280.9 97.3 279.4 97.9C277.9 98.5 276.6 99.4 275.5 100.5C274.4 101.6 273.5 102.9 272.9 104.4C272.3 105.9 272 107.6 272 109.4C272 111.2 272.3 112.9 272.9 114.4C273.5 115.9 274.4 117.2 275.5 118.3C276.6 119.4 277.9 120.3 279.4 120.9C280.9 121.5 282.6 121.8 284.4 121.8C285.3 121.8 286.2 121.7 287.1 121.5C288.1 121.3 288.8 121 289.5 120.8C289.9 120.6 290.2 120.6 290.4 120.7C290.6 120.8 290.8 121 290.8 121.4C290.8 121.7 290.5 122 290 122.3C289.5 122.6 288.7 122.9 287.8 123.1C286.7 123.3 285.6 123.4 284.3 123.4ZM284.3 115.1C285.4 115.1 286.4 114.8 287.3 114.4C288.2 114 288.9 113.2 289.4 112.3C289.9 111.4 290.1 110.4 290.1 109.3C290.1 108.2 289.8 107.1 289.4 106.3C288.9 105.4 288.2 104.7 287.3 104.2C286.4 103.7 285.4 103.5 284.3 103.5C283.2 103.5 282.2 103.7 281.3 104.2C280.4 104.7 279.7 105.4 279.2 106.3C278.7 107.2 278.5 108.2 278.5 109.3C278.5 110.4 278.7 111.4 279.2 112.3C279.7 113.2 280.4 113.9 281.3 114.4C282.2 114.9 283.2 115.1 284.3 115.1Z" fill="white"/>
<path d="M241.6 215.8H303.9" stroke="#071146" stroke-width="2" stroke-miterlimit="10" stroke-linecap="round" stroke-linejoin="round"/>
<path d="M314.2 215.8H349.1" stroke="#071146" stroke-width="2" stroke-miterlimit="10" stroke-linecap="round" stroke-linejoin="round"/>
<path d="M271.9 215.4C268.4 212.5 265.9 208.3 265.1 203.9C264.3 199.5 265 194.7 267.1 190.6C266.7 192.6 267.4 194.7 268.4 196.4C269.4 198.1 270.8 199.7 271.9 201.4C274.4 205.5 275.1 210.6 273.8 215.2C273.4 207.1 273.2 198.2 278 191.6C278.3 192.6 278.7 193.6 279 194.6C279.9 197.4 280.9 200.2 281.1 203.2C281.4 207.4 280.1 211.5 278.6 215.4C278.5 206.6 281.2 197.8 286.3 190.5C286.4 195.8 286.5 201.1 286.5 206.5C286.5 209.5 286.5 212.6 285.1 215.2L271.9 215.4Z" fill="#95E196" stroke="#071146" stroke-width="2" stroke-miterlimit="10" stroke-linecap="round" stroke-linejoin="round"/>
<path d="M292.6 213.9C291.4 211.1 291.5 207.8 292.9 205.1C293.5 203.9 294.4 202.8 295.2 201.8C296.2 200.6 297.1 199.4 298.1 198.2C298.3 198.5 298.4 198.9 298.5 199.3C299.2 202.6 299.9 206.1 298.7 209.3C298.1 211 297 212.4 295.8 213.7C294.3 215.4 293.7 216.2 292.6 213.9Z" fill="#95E196" stroke="#071146" stroke-width="2" stroke-miterlimit="10" stroke-linecap="round" stroke-linejoin="round"/>
<path d="M256.5 210.1C256.5 209.3 256.5 208.5 256.4 207.7C256.3 206.8 256 205.9 255.7 205C254.7 202 253.8 199 252.8 196C251.6 198.8 250.3 201.8 250.5 204.9C250.7 208.6 253 211.8 255.2 214.8C255.4 215.1 255.7 215.4 256.1 215.5C257 214.3 256.5 211.5 256.5 210.1Z" fill="#95E196" stroke="#071146" stroke-width="2" stroke-miterlimit="10" stroke-linecap="round" stroke-linejoin="round"/>
</g>
<defs>
<clipPath id="clip0">
<rect width="554.7" height="216.8" fill="white"/>
</clipPath>
</defs>
</svg>
