<svg width="459" height="924" viewBox="0 0 459 924" fill="none" xmlns="http://www.w3.org/2000/svg">
<path d="M444.652 178.383C443.456 177.425 442.021 176.707 440.587 176.228L439.391 175.749C438.673 175.51 437.956 175.031 437.239 174.791L160.319 62.7333C160.08 62.7333 160.08 62.7333 160.08 62.4939L11.5764 2.39436C3.68489 -0.718366 -4.924 -0.718366 -12.8155 2.39436L-123.775 47.4091L-124.492 47.6486L-164.189 63.6911L-439.913 175.51C-442.065 176.228 -443.739 177.186 -445.652 178.383C-454.5 184.369 -460 194.425 -460 205.44V224.355V642.658V718.8C-460 731.969 -451.869 743.941 -439.673 748.969L-423.651 755.434C-421.26 756.392 -207.233 843.069 -95.5566 888.084L-36.49 912.028C-36.2508 912.028 -36.0117 912.267 -36.0117 912.267L-34.3377 912.986C-33.6203 913.225 -32.9029 913.465 -32.4247 913.704L-31.7072 913.943C-30.9898 914.183 -30.5116 914.422 -30.0333 914.662L-29.555 914.901C-29.3159 914.901 -29.3159 914.901 -29.3159 914.901L-12.5764 921.605C-12.5764 921.605 -12.5764 921.605 -12.3372 921.605C-11.3807 921.845 -10.4241 922.324 -9.70673 922.563C-9.46759 922.563 -9.46759 922.563 -9.22845 922.563C-8.51105 922.803 -7.79364 923.042 -6.8371 923.042C-6.59796 923.042 -6.35883 923.042 -5.88055 923.282C-5.16315 923.282 -4.44574 923.521 -3.96747 923.521C-3.72833 923.521 -3.4892 923.521 -3.25006 923.521C-2.29352 923.521 -1.33698 923.76 -0.380432 923.76C0.576112 923.76 1.53265 923.76 2.4892 923.521C2.72833 923.521 2.96747 923.521 3.2066 923.521C3.92401 923.521 4.64145 923.282 5.11972 923.282C5.35886 923.282 5.59796 923.282 6.07623 923.042C6.79364 922.803 7.75018 922.803 8.46759 922.563C8.70673 922.563 8.70676 922.563 8.94589 922.563C9.90244 922.324 10.859 922.084 11.5764 921.605C11.5764 921.605 11.5764 921.605 11.8155 921.605L21.1418 917.774L25.4463 916.098L89.0565 890.478L428.869 753.04L438.673 748.969C450.869 743.941 459 732.208 459 718.8V700.123V238.004V205.44C459 194.425 453.5 184.369 444.652 178.383Z" fill="#0052CC"/>
<path d="M225.268 495.798C224.9 495.798 224.531 495.707 224.163 495.616L216.338 492.524C214.773 491.887 214.037 490.159 214.681 488.613C215.325 487.066 217.074 486.339 218.639 486.975L222.23 488.431V447.498L188.168 433.582V474.696L192.679 476.515C194.244 477.152 194.98 478.88 194.336 480.426C193.691 481.972 191.942 482.7 190.377 482.063L183.933 479.517C182.736 479.062 182 477.97 182 476.697V429.124C182 428.124 182.552 427.214 183.381 426.578C184.209 426.032 185.314 425.941 186.235 426.305L226.372 442.678C227.477 443.132 228.306 444.224 228.306 445.497V492.797C228.306 493.797 227.845 494.707 226.925 495.253C226.372 495.616 225.82 495.798 225.268 495.798Z" fill="white"/>
<path d="M225.268 495.798C224.623 495.798 224.071 495.616 223.519 495.253C222.69 494.707 222.138 493.797 222.138 492.797V445.497C222.138 444.315 222.874 443.132 224.071 442.678L264.209 426.305C265.129 425.941 266.234 426.032 267.062 426.578C267.891 427.123 268.443 428.033 268.443 429.124V476.788C268.443 478.061 267.707 479.153 266.51 479.607L259.698 482.336C258.133 482.973 256.384 482.245 255.739 480.699C255.095 479.153 255.831 477.424 257.396 476.788L262.367 474.787V433.582L228.306 447.498V488.34L231.436 487.066C233.001 486.429 234.75 487.157 235.394 488.703C236.039 490.25 235.302 491.978 233.737 492.615L226.372 495.526C226.004 495.707 225.636 495.798 225.268 495.798Z" fill="white"/>
<path d="M210.999 421.757C209.802 421.757 208.605 421.029 208.145 419.846C207.5 418.3 208.237 416.572 209.802 415.935L224.071 410.205C224.807 409.932 225.636 409.932 226.372 410.205L240.365 415.753C241.93 416.39 242.667 418.118 242.023 419.665C241.378 421.211 239.629 421.939 238.064 421.302L225.268 416.299L212.195 421.575C211.735 421.666 211.367 421.757 210.999 421.757Z" fill="white"/>
<circle cx="223.068" cy="449.987" r="136.568" stroke="#B3C1F4" stroke-dasharray="3 3"/>
<g clip-path="url(#clip0)">
<path d="M225.319 331.261C232.852 331.261 238.959 325.154 238.959 317.62C238.959 310.087 232.852 303.98 225.319 303.98C217.785 303.98 211.678 310.087 211.678 317.62C211.678 325.154 217.785 331.261 225.319 331.261Z" fill="#B6E2DF"/>
<path d="M221.611 331.327C213.665 331.327 207.176 324.838 207.176 316.892C207.176 315.104 207.507 313.316 208.169 311.661C208.301 311.263 208.831 311.065 209.228 311.197C209.626 311.33 209.824 311.859 209.692 312.257C209.096 313.713 208.831 315.303 208.831 316.892C208.831 323.911 214.592 329.672 221.611 329.672C228.63 329.672 234.391 323.977 234.391 316.892C234.391 309.807 228.63 304.112 221.611 304.112C219.823 304.112 218.035 304.509 216.446 305.238C216.049 305.436 215.585 305.238 215.386 304.841C215.188 304.443 215.386 303.98 215.784 303.781C217.638 302.986 219.624 302.523 221.611 302.523C229.557 302.523 236.046 309.012 236.046 316.958C235.98 324.838 229.557 331.327 221.611 331.327Z" fill="white"/>
<path d="M215.718 322.255C215.453 322.255 215.188 322.189 215.055 321.991C214.857 321.792 214.791 321.593 214.791 321.328V312.985C214.791 312.72 214.857 312.455 215.055 312.323C215.254 312.124 215.453 312.058 215.718 312.058C215.982 312.058 216.247 312.124 216.38 312.323C216.578 312.522 216.645 312.72 216.645 312.985V321.328C216.645 321.593 216.578 321.858 216.38 321.991C216.247 322.189 215.982 322.255 215.718 322.255ZM222.008 322.255C221.743 322.255 221.478 322.189 221.346 321.991C221.147 321.792 221.081 321.593 221.081 321.328V315.965C221.081 315.17 220.882 314.574 220.485 314.243C220.088 313.912 219.558 313.581 218.896 313.581C218.234 313.581 217.704 313.78 217.307 314.243C216.909 314.707 216.645 315.237 216.645 315.965H215.453C215.453 315.17 215.585 314.442 215.916 313.846C216.247 313.25 216.711 312.72 217.241 312.389C217.836 312.058 218.499 311.859 219.227 311.859C219.955 311.859 220.551 311.992 221.147 312.323C221.677 312.654 222.141 313.118 222.405 313.714C222.736 314.309 222.869 315.038 222.869 315.899V321.262C222.869 321.527 222.803 321.792 222.604 321.924C222.472 322.189 222.273 322.255 222.008 322.255ZM228.232 322.255C227.968 322.255 227.703 322.189 227.57 321.991C227.372 321.792 227.305 321.593 227.305 321.328V315.965C227.305 315.17 227.107 314.574 226.709 314.243C226.312 313.912 225.782 313.581 225.186 313.581C224.524 313.581 223.995 313.78 223.597 314.243C223.2 314.707 223.001 315.237 223.001 315.965H221.478C221.478 315.17 221.677 314.442 222.008 313.846C222.339 313.25 222.869 312.72 223.465 312.389C224.127 312.058 224.789 311.859 225.65 311.859C226.378 311.859 226.974 311.992 227.57 312.323C228.1 312.654 228.564 313.118 228.828 313.714C229.159 314.309 229.292 315.038 229.292 315.899V321.262C229.292 321.527 229.226 321.792 229.027 321.924C228.762 322.189 228.497 322.255 228.232 322.255Z" fill="white"/>
<path d="M215.718 313.978C215.254 313.978 214.791 313.647 214.724 313.184C214.526 311.727 213.334 310.734 211.877 310.866C210.818 310.999 209.891 311.528 209.559 312.455C209.361 312.919 209.03 313.25 208.566 313.051C208.103 312.853 207.904 312.323 208.103 311.859C208.699 310.336 210.089 309.211 211.745 309.012C212.936 308.88 214.128 309.211 215.055 309.939C215.982 310.667 216.578 311.727 216.711 312.919C216.777 313.449 216.38 313.912 215.916 313.978C215.85 313.978 215.784 313.978 215.718 313.978Z" fill="white"/>
</g>
<g clip-path="url(#clip1)">
<path d="M342.323 527.393C349.966 527.393 356.162 521.197 356.162 513.554C356.162 505.911 349.966 499.715 342.323 499.715C334.68 499.715 328.484 505.911 328.484 513.554C328.484 521.197 334.68 527.393 342.323 527.393Z" fill="#B3C1F4"/>
<path d="M339.211 518.322C338.218 518.322 337.291 518.123 336.496 517.659C335.701 517.196 335.105 516.6 334.642 515.805C334.178 515.011 333.98 514.15 333.98 513.091C333.98 512.097 334.178 511.17 334.642 510.376C335.105 509.581 335.701 508.985 336.496 508.522C337.291 508.058 338.151 507.859 339.145 507.859C339.873 507.859 340.601 507.992 341.197 508.257C341.793 508.522 342.389 508.985 342.853 509.515C343.051 509.714 343.118 509.912 343.051 510.111C342.985 510.309 342.853 510.508 342.654 510.707C342.455 510.839 342.257 510.905 342.058 510.839C341.859 510.773 341.661 510.707 341.462 510.508C340.866 509.846 340.072 509.515 339.145 509.515C338.482 509.515 337.953 509.647 337.423 509.978C336.959 510.243 336.562 510.707 336.297 511.237C336.032 511.766 335.9 512.428 335.9 513.091C335.9 513.753 336.032 514.349 336.297 514.945C336.562 515.541 336.959 515.872 337.489 516.203C338.019 516.534 338.615 516.666 339.277 516.666C339.741 516.666 340.138 516.6 340.469 516.534C340.8 516.401 341.131 516.269 341.396 516.004C341.595 515.872 341.793 515.739 341.992 515.739C342.191 515.739 342.389 515.805 342.588 515.938C342.786 516.137 342.919 516.335 342.919 516.534C342.919 516.732 342.853 516.931 342.72 517.13C341.727 517.924 340.601 518.322 339.211 518.322Z" fill="white"/>
<path d="M338.946 527.459C330.934 527.459 324.378 520.97 324.378 512.892C324.378 504.814 330.934 498.324 338.946 498.324C346.958 498.324 353.513 504.88 353.513 512.892C353.513 513.355 353.116 513.687 352.719 513.687C352.322 513.687 351.924 513.289 351.924 512.892C351.924 505.741 346.097 499.914 338.946 499.914C331.795 499.914 326.034 505.741 326.034 512.892C326.034 520.043 331.861 525.87 338.946 525.87C341.992 525.87 344.905 524.811 347.223 522.891C347.554 522.626 348.084 522.626 348.349 523.023C348.613 523.354 348.613 523.884 348.216 524.149C345.7 526.268 342.389 527.459 338.946 527.459Z" fill="white"/>
<path d="M347.554 524.678L346.627 523.354C347.355 522.824 348.614 521.699 348.614 519.977C348.614 517.924 346.958 516.269 344.905 516.269C344.045 516.269 343.184 516.6 342.522 517.13L341.462 515.872C342.455 515.077 343.647 514.614 344.905 514.614C347.885 514.614 350.269 516.997 350.269 519.977C350.269 521.765 349.276 523.486 347.554 524.678Z" fill="white"/>
</g>
<g clip-path="url(#clip2)">
<path d="M115.201 387.015C122.845 387.015 129.041 380.819 129.041 373.176C129.041 365.532 122.845 359.336 115.201 359.336C107.558 359.336 101.362 365.532 101.362 373.176C101.362 380.819 107.558 387.015 115.201 387.015Z" fill="#B1DEF5"/>
<path d="M109.573 370.99C109.308 370.99 109.109 370.924 108.911 370.792C108.778 370.659 108.646 370.461 108.646 370.196C108.646 369.931 108.712 369.732 108.911 369.6C109.043 369.468 109.308 369.401 109.573 369.401H114.274C114.539 369.401 114.738 369.468 114.936 369.6C115.069 369.732 115.201 369.931 115.201 370.196C115.201 370.395 115.135 370.593 114.936 370.792C114.804 370.924 114.539 370.99 114.274 370.99H109.573ZM111.295 379.4C111.03 379.4 110.831 379.334 110.632 379.135C110.434 378.936 110.368 378.738 110.368 378.407V369.07C110.368 368.143 110.566 367.349 110.897 366.686C111.228 366.024 111.758 365.495 112.42 365.097C113.082 364.7 113.811 364.568 114.672 364.568C114.936 364.568 115.201 364.634 115.334 364.832C115.532 364.965 115.599 365.23 115.599 365.428C115.599 365.693 115.532 365.892 115.334 366.024C115.135 366.223 114.936 366.289 114.672 366.289C114.208 366.289 113.811 366.422 113.414 366.62C113.082 366.819 112.751 367.15 112.619 367.481C112.486 367.812 112.354 368.342 112.354 368.805V378.34C112.354 378.605 112.288 378.87 112.089 379.069C111.891 379.268 111.626 379.4 111.295 379.4Z" fill="white"/>
<path d="M111.361 387.147C111.295 387.147 111.295 387.147 111.361 387.147C103.415 386.816 97.2568 380.393 97.2568 372.513C97.2568 364.435 103.812 357.88 111.891 357.88C119.969 357.88 126.591 364.435 126.591 372.513C126.591 377.877 123.677 382.843 118.909 385.359C118.512 385.558 117.982 385.426 117.784 385.028C117.585 384.631 117.718 384.101 118.115 383.903C122.286 381.585 124.935 377.215 124.935 372.447C124.935 365.296 119.108 359.403 111.891 359.403C104.673 359.403 98.9122 365.362 98.9122 372.513C98.9122 379.532 104.408 385.227 111.361 385.492C111.824 385.492 112.155 385.889 112.155 386.353C112.155 386.816 111.758 387.147 111.361 387.147Z" fill="white"/>
<path d="M111.361 387.147C110.831 387.147 110.368 386.684 110.368 386.154V378.407C110.368 377.877 110.831 377.413 111.361 377.413C111.891 377.413 112.354 377.877 112.354 378.407V386.154C112.288 386.684 111.891 387.147 111.361 387.147Z" fill="white"/>
</g>
<g clip-path="url(#clip3)">
<path d="M111.228 526.069C118.872 526.069 125.068 519.873 125.068 512.23C125.068 504.587 118.872 498.391 111.228 498.391C103.585 498.391 97.3892 504.587 97.3892 512.23C97.3892 519.873 103.585 526.069 111.228 526.069Z" fill="#FCAA90"/>
<path d="M107.719 516.997C106.792 516.997 105.931 516.799 105.203 516.335C104.474 515.872 103.878 515.276 103.481 514.481C103.084 513.687 102.885 512.759 102.885 511.766C102.885 510.707 103.084 509.846 103.547 509.051C104.011 508.257 104.607 507.661 105.401 507.197C106.196 506.734 107.123 506.535 108.116 506.535C109.109 506.535 110.036 506.734 110.831 507.197C111.626 507.661 112.222 508.257 112.685 509.051C113.149 509.846 113.347 510.773 113.347 511.766H112.222C112.222 512.759 112.023 513.687 111.626 514.481C111.228 515.276 110.699 515.872 110.036 516.335C109.374 516.799 108.58 516.997 107.719 516.997ZM108.05 521.235C107.123 521.235 106.328 521.037 105.534 520.705C104.739 520.374 104.077 519.845 103.547 519.116C103.415 518.918 103.349 518.653 103.349 518.454C103.415 518.255 103.547 518.057 103.746 517.924C103.945 517.792 104.209 517.726 104.474 517.792C104.739 517.858 104.938 517.991 105.07 518.189C105.401 518.653 105.865 518.984 106.395 519.182C106.924 519.447 107.52 519.514 108.182 519.514C108.778 519.514 109.374 519.381 109.838 519.05C110.368 518.785 110.765 518.322 111.03 517.726C111.361 517.13 111.493 516.468 111.493 515.607V512.892L112.089 511.237L113.347 511.634V515.739C113.347 516.732 113.149 517.659 112.685 518.454C112.222 519.249 111.626 519.911 110.831 520.374C110.036 520.97 109.109 521.235 108.05 521.235ZM108.116 515.276C108.778 515.276 109.374 515.143 109.838 514.812C110.368 514.481 110.765 514.084 111.03 513.554C111.295 513.024 111.427 512.428 111.427 511.7C111.427 510.972 111.295 510.376 111.03 509.846C110.765 509.316 110.368 508.919 109.838 508.588C109.308 508.257 108.778 508.124 108.116 508.124C107.454 508.124 106.858 508.257 106.395 508.588C105.865 508.919 105.468 509.316 105.203 509.846C104.938 510.376 104.739 510.972 104.739 511.7C104.739 512.428 104.872 513.024 105.203 513.554C105.468 514.084 105.865 514.481 106.395 514.812C106.858 515.143 107.454 515.276 108.116 515.276Z" fill="white"/>
<path d="M107.918 526.267C99.8392 526.267 93.2838 519.646 93.2838 511.567C93.2838 503.489 99.8392 496.934 107.918 496.934C109.97 496.934 111.957 497.331 113.811 498.126C114.208 498.324 114.407 498.788 114.208 499.185C114.076 499.649 113.546 499.847 113.149 499.649C111.493 498.92 109.772 498.589 107.918 498.589C100.766 498.589 94.9392 504.416 94.9392 511.567C94.9392 518.719 100.766 524.612 107.984 524.612C115.135 524.612 121.028 518.785 121.028 511.567C121.028 510.707 120.962 509.78 120.764 508.919C120.697 508.455 120.962 508.058 121.426 507.926C121.889 507.859 122.286 508.124 122.419 508.588C122.618 509.581 122.684 510.574 122.684 511.567C122.618 519.646 115.996 526.267 107.918 526.267Z" fill="white"/>
<path d="M113.347 509.515L111.692 509.449C111.692 508.919 111.824 508.389 111.957 507.859L113.48 508.389C113.414 508.72 113.347 509.117 113.347 509.515Z" fill="white"/>
<path d="M120.697 508.985C120.565 507.992 120.035 507.131 119.241 506.535C118.446 505.939 117.453 505.74 116.459 505.873C115.069 506.072 114.009 507.065 113.546 508.323L112.023 507.793C112.685 505.939 114.274 504.549 116.261 504.218C119.174 503.754 121.889 505.74 122.353 508.654L120.697 508.985Z" fill="white"/>
<path d="M113.347 509.184H111.692V513.422H113.347V509.184Z" fill="white"/>
</g>
<g clip-path="url(#clip4)">
<path d="M329.08 385.492C336.723 385.492 342.919 379.296 342.919 371.653C342.919 364.009 336.723 357.813 329.08 357.813C321.437 357.813 315.241 364.009 315.241 371.653C315.241 379.296 321.437 385.492 329.08 385.492Z" fill="#FEDB8F"/>
<path d="M334.774 376.619C333.45 376.619 332.059 376.155 331 375.162C329.941 374.169 329.278 372.778 329.212 371.255L330.868 371.189C330.934 372.249 331.397 373.242 332.126 373.97C333.715 375.427 336.165 375.361 337.622 373.772C338.218 373.109 338.615 372.05 338.681 370.99L340.336 371.057C340.27 372.513 339.741 373.97 338.814 374.897C337.754 376.023 336.297 376.619 334.774 376.619Z" fill="white"/>
<path d="M325.636 376.42C324.643 376.42 323.782 376.222 322.988 375.758C322.193 375.295 321.597 374.699 321.134 373.838C320.67 373.043 320.472 372.116 320.472 371.123C320.472 370.13 320.67 369.203 321.134 368.408C321.531 367.613 322.127 367.018 322.855 366.554C323.584 366.091 324.445 365.892 325.372 365.892C326.1 365.892 326.828 366.024 327.424 366.355C328.02 366.686 328.616 367.084 329.014 367.613V362.515C329.014 362.25 329.08 361.985 329.278 361.786C329.477 361.588 329.676 361.522 329.941 361.522C330.205 361.522 330.47 361.588 330.669 361.786C330.868 361.985 330.934 362.184 330.934 362.515V371.189C330.934 372.182 330.735 373.109 330.272 373.904C329.808 374.699 329.212 375.361 328.418 375.824C327.557 376.222 326.63 376.42 325.636 376.42ZM325.636 374.699C326.299 374.699 326.828 374.566 327.358 374.235C327.888 373.904 328.285 373.507 328.55 372.977C328.815 372.447 329.014 371.851 329.014 371.123C329.014 370.461 328.881 369.799 328.55 369.269C328.285 368.739 327.888 368.342 327.358 368.011C326.828 367.68 326.299 367.547 325.636 367.547C324.974 367.547 324.445 367.68 323.915 368.011C323.385 368.342 322.988 368.739 322.723 369.269C322.458 369.799 322.259 370.395 322.259 371.123C322.259 371.785 322.392 372.381 322.723 372.977C322.988 373.507 323.451 373.97 323.915 374.235C324.445 374.566 325.041 374.699 325.636 374.699Z" fill="white"/>
<path d="M325.769 385.558C317.691 385.558 311.135 379.003 311.135 370.991C311.135 362.912 317.691 356.423 325.769 356.423C333.847 356.423 340.336 362.978 340.336 370.991C340.336 371.454 339.939 371.785 339.542 371.785C339.078 371.785 338.747 371.388 338.747 370.991C338.747 363.839 332.92 358.012 325.769 358.012C318.618 358.012 312.791 363.839 312.791 370.991C312.791 378.142 318.618 383.969 325.769 383.969C328.815 383.969 331.728 382.909 334.046 380.989C334.377 380.724 334.907 380.724 335.172 381.122C335.436 381.453 335.436 381.982 335.039 382.247C332.457 384.366 329.146 385.558 325.769 385.558Z" fill="white"/>
</g>
<g clip-path="url(#clip5)">
<path d="M231.08 593.609C238.723 593.609 244.919 587.413 244.919 579.77C244.919 572.127 238.723 565.931 231.08 565.931C223.437 565.931 217.241 572.127 217.241 579.77C217.241 587.413 223.437 593.609 231.08 593.609Z" fill="#95E196"/>
<path d="M228.166 584.538C227.107 584.538 226.18 584.339 225.385 583.876C224.591 583.412 223.928 582.816 223.465 582.022C223.001 581.227 222.803 580.3 222.803 579.307C222.803 578.247 223.001 577.386 223.465 576.592C223.928 575.797 224.524 575.201 225.253 574.738C226.047 574.274 226.908 574.076 227.901 574.076C228.895 574.076 229.755 574.274 230.418 574.738C231.146 575.201 231.676 575.797 232.073 576.526C232.47 577.32 232.603 578.181 232.603 579.174C232.603 579.439 232.536 579.638 232.338 579.77C232.205 579.903 231.941 580.035 231.742 580.035H224.061V578.446H231.676L230.881 578.976C230.881 578.314 230.749 577.784 230.484 577.254C230.219 576.724 229.888 576.327 229.491 576.062C229.027 575.797 228.497 575.599 227.901 575.599C227.173 575.599 226.577 575.731 226.047 576.062C225.518 576.393 225.12 576.791 224.855 577.386C224.591 577.916 224.458 578.578 224.458 579.241C224.458 579.903 224.591 580.565 224.922 581.095C225.253 581.624 225.65 582.088 226.246 582.419C226.776 582.75 227.438 582.882 228.166 582.882C228.564 582.882 228.961 582.816 229.358 582.684C229.755 582.551 230.086 582.353 230.351 582.154C230.55 582.022 230.749 581.955 230.947 581.955C231.146 581.955 231.345 582.022 231.543 582.154C231.742 582.353 231.874 582.551 231.874 582.75C231.874 582.949 231.808 583.147 231.543 583.346C231.08 583.677 230.55 583.942 229.954 584.207C229.358 584.472 228.696 584.538 228.166 584.538Z" fill="white"/>
<path d="M227.769 593.676C219.691 593.676 213.135 587.186 213.135 579.108C213.135 571.03 219.691 564.541 227.769 564.541C235.847 564.541 242.336 571.096 242.336 579.108C242.336 579.572 241.939 579.903 241.542 579.903C241.078 579.903 240.747 579.505 240.747 579.108C240.747 571.957 234.92 566.13 227.769 566.13C220.618 566.13 214.791 571.957 214.791 579.108C214.791 586.259 220.618 592.086 227.769 592.086C230.815 592.086 233.728 591.027 236.046 589.107C236.377 588.842 236.907 588.842 237.172 589.239C237.436 589.57 237.436 590.1 237.039 590.365C234.457 592.484 231.146 593.676 227.769 593.676Z" fill="white"/>
<path d="M236.377 590.895L235.45 589.57C236.178 589.04 237.37 587.981 237.37 586.326C237.37 584.339 235.715 582.684 233.728 582.684C232.868 582.684 232.007 583.015 231.411 583.545L230.351 582.286C231.278 581.492 232.536 581.028 233.728 581.028C236.642 581.028 238.959 583.412 238.959 586.259C239.026 588.047 238.032 589.703 236.377 590.895Z" fill="white"/>
</g>
<defs>
<clipPath id="clip0">
<rect width="31.7838" height="31.7838" fill="white" transform="translate(207.176 301)"/>
</clipPath>
<clipPath id="clip1">
<rect width="31.7838" height="31.7838" fill="white" transform="translate(324.378 497)"/>
</clipPath>
<clipPath id="clip2">
<rect width="31.7838" height="31.7838" fill="white" transform="translate(97.2568 356.622)"/>
</clipPath>
<clipPath id="clip3">
<rect width="31.7838" height="31.7838" fill="white" transform="translate(93.2838 495.676)"/>
</clipPath>
<clipPath id="clip4">
<rect width="31.7838" height="31.7838" fill="white" transform="translate(311.135 355.297)"/>
</clipPath>
<clipPath id="clip5">
<rect width="31.7838" height="31.7838" fill="white" transform="translate(213.135 563.216)"/>
</clipPath>
</defs>
</svg>
