<svg width="459" height="924" viewBox="0 0 459 924" fill="none" xmlns="http://www.w3.org/2000/svg">
<path d="M444.652 178.383C443.456 177.425 442.021 176.707 440.587 176.228L439.391 175.749C438.673 175.51 437.956 175.031 437.239 174.791L160.319 62.7332C160.08 62.7332 160.08 62.7332 160.08 62.4937L11.5764 2.39423C3.68491 -0.718488 -4.92401 -0.718488 -12.8155 2.39423L-123.775 47.409L-124.492 47.6484L-164.189 63.6909L-439.913 175.51C-442.065 176.228 -443.739 177.186 -445.652 178.383C-454.5 184.369 -460 194.425 -460 205.44V224.355V642.657V718.799C-460 731.969 -451.869 743.941 -439.673 748.969L-423.651 755.434C-421.26 756.392 -207.233 843.069 -95.5566 888.084L-36.49 912.028C-36.2508 912.028 -36.0117 912.267 -36.0117 912.267L-34.3377 912.985C-33.6203 913.225 -32.9029 913.464 -32.4247 913.704L-31.7072 913.943C-30.9898 914.183 -30.5116 914.422 -30.0333 914.662L-29.555 914.901C-29.3159 914.901 -29.3159 914.901 -29.3159 914.901L-12.5764 921.605C-12.5764 921.605 -12.5764 921.605 -12.3372 921.605C-11.3807 921.845 -10.4241 922.324 -9.70673 922.563C-9.46759 922.563 -9.46759 922.563 -9.22845 922.563C-8.51105 922.803 -7.79364 923.042 -6.8371 923.042C-6.59796 923.042 -6.35883 923.042 -5.88055 923.281C-5.16315 923.281 -4.44574 923.521 -3.96747 923.521C-3.72833 923.521 -3.4892 923.521 -3.25006 923.521C-2.29352 923.521 -1.33698 923.76 -0.380432 923.76C0.576111 923.76 1.53265 923.76 2.4892 923.521C2.72833 923.521 2.96747 923.521 3.2066 923.521C3.92401 923.521 4.64145 923.281 5.11972 923.281C5.35886 923.281 5.59796 923.281 6.07623 923.042C6.79364 922.803 7.75018 922.803 8.46759 922.563C8.70673 922.563 8.70676 922.563 8.94589 922.563C9.90244 922.324 10.859 922.084 11.5764 921.605C11.5764 921.605 11.5764 921.605 11.8155 921.605L21.1418 917.774L25.4463 916.098L89.0565 890.478L428.869 753.039L438.673 748.969C450.869 743.941 459 732.208 459 718.799V700.123V238.003V205.44C459 194.425 453.5 184.369 444.652 178.383Z" fill="#0052CC"/>
<g clip-path="url(#clip0)">
<path d="M296.2 286.8C297.3 285.8 298.4 285.2 299.6 284.9C300.8 284.6 302.4 284.3 304.5 284C306.1 283.8 307.4 283.3 308.3 282.6C309.3 281.9 310.1 280.9 310.8 279.6C312 277.3 312.4 275.2 311.8 273.2C311.3 271.2 310 269.7 307.9 268.5C306.1 267.5 304.3 267.1 302.6 267.4C300.9 267.6 299.4 268.4 298.1 269.8L295.4 266.9C297.4 265.2 299.7 264.2 302.2 263.8C304.8 263.4 307.3 264 309.8 265.3C311.6 266.3 313 267.7 314.1 269.4C315.2 271.2 315.8 273.1 315.9 275.2C316 277.3 315.5 279.2 314.5 281.1C313.3 283.4 311.9 284.9 310.4 285.7C308.9 286.5 307.1 287.1 304.9 287.4C303.3 287.7 302.1 287.9 301.2 288.1C300.3 288.3 299.4 288.8 298.5 289.5C297.6 290.2 296.7 291.3 295.9 292.7L292.8 291C294 289.2 295.1 287.8 296.2 286.8ZM287.1 300.1C286.8 299.2 286.9 298.4 287.3 297.6C287.7 296.8 288.4 296.3 289.3 296C290.2 295.7 291 295.8 291.8 296.2C292.6 296.6 293.1 297.3 293.4 298.2C293.7 299.1 293.6 299.9 293.2 300.7C292.8 301.4 292.1 301.9 291.2 302.2C290.3 302.5 289.5 302.4 288.7 302C287.9 301.6 287.4 301 287.1 300.1Z" stroke="#FEDB8F" stroke-width="2" stroke-miterlimit="10" stroke-linecap="round" stroke-linejoin="round"/>
<path d="M267.6 270.3C267.9 269.2 268.3 268.3 268.9 267.6C269.5 266.9 270.4 266 271.6 264.9C272.5 264.1 273.1 263.3 273.4 262.4C273.7 261.5 273.8 260.5 273.7 259.4C273.5 257.5 272.8 256 271.6 255C270.4 254 268.9 253.6 267.2 253.8C265.6 254 264.4 254.5 263.4 255.4C262.5 256.3 261.9 257.4 261.6 258.8L258.6 258.2C259.1 256.3 260 254.7 261.5 253.3C262.9 252 264.7 251.2 266.9 250.9C268.4 250.7 269.9 251 271.4 251.6C272.8 252.2 274.1 253.2 275 254.4C276 255.7 276.5 257.1 276.7 258.6C276.9 260.5 276.7 262.1 276.2 263.2C275.6 264.3 274.7 265.5 273.6 266.6C272.7 267.5 272.1 268.2 271.6 268.7C271.2 269.2 270.8 269.9 270.5 270.8C270.2 271.7 270.2 272.7 270.3 273.9L267.6 274.2C267.3 272.8 267.4 271.4 267.6 270.3ZM267.8 282.5C267.2 282.1 266.9 281.5 266.9 280.9C266.8 280.2 267 279.6 267.5 279.1C268 278.6 268.5 278.2 269.1 278.2C269.8 278.1 270.4 278.3 270.9 278.8C271.5 279.2 271.8 279.8 271.8 280.5C271.9 281.1 271.7 281.7 271.2 282.3C270.7 282.9 270.2 283.2 269.6 283.2C269 283.1 268.4 282.9 267.8 282.5Z" stroke="#B1DEF5" stroke-width="2" stroke-miterlimit="10" stroke-linecap="round" stroke-linejoin="round"/>
<path d="M224.8 310.6C226.9 317.5 227.2 325.6 227.2 333.7C227.2 364 211.2 388.5 191.5 388.5C171.8 388.5 155.7 364 155.7 333.7C155.7 327.7 156.3 321.9 157.5 316.6" stroke="white" stroke-width="2" stroke-miterlimit="10" stroke-linecap="round" stroke-linejoin="round"/>
<path d="M174.9 341.3C181.307 341.3 186.5 336.106 186.5 329.7C186.5 323.293 181.307 318.1 174.9 318.1C168.493 318.1 163.3 323.293 163.3 329.7C163.3 336.106 168.493 341.3 174.9 341.3Z" stroke="white" stroke-width="2" stroke-miterlimit="10" stroke-linecap="round" stroke-linejoin="round"/>
<path d="M208 341.3C214.406 341.3 219.6 336.106 219.6 329.7C219.6 323.293 214.406 318.1 208 318.1C201.593 318.1 196.4 323.293 196.4 329.7C196.4 336.106 201.593 341.3 208 341.3Z" stroke="white" stroke-width="2" stroke-miterlimit="10" stroke-linecap="round" stroke-linejoin="round"/>
<path d="M185.9 330.1C186.3 329.9 186.7 329.6 187.1 329.3C188.2 328.5 189.7 328.2 191.1 328.1C192.1 328 193.1 328 194 328.3C195 328.5 195.9 329 196.5 329.8" stroke="white" stroke-width="2" stroke-miterlimit="10" stroke-linecap="round" stroke-linejoin="round"/>
<path d="M219.8 327.7C220.7 326.6 221.7 325.6 222.8 324.8C223.7 324.1 224.6 323.5 225.7 323.4C227.8 323.1 229.9 324.8 230.3 326.9C230.7 329 229.6 331.2 227.8 332.4" stroke="white" stroke-width="2" stroke-miterlimit="10" stroke-linecap="round" stroke-linejoin="round"/>
<path d="M163.4 327C161.3 325.7 158.9 324.9 156.4 324.7C156 324.7 155.6 324.6 155.3 324.7C154.7 324.9 154.3 325.3 154 325.8C153.2 326.9 152.8 328.2 153 329.5C153.2 330.8 154.2 332 155.4 332.3" stroke="white" stroke-width="2" stroke-miterlimit="10" stroke-linecap="round" stroke-linejoin="round"/>
<path d="M204.3 293.8C204.4 297.3 207.2 300.4 210.3 302.6C215.7 306.5 222.3 308.8 229.2 309.2C230.7 306.2 236.8 276.2 206.4 280.1C205.6 280.2 204.7 280.4 203.9 280.2C203.2 280 202.7 279.4 202.1 278.9C196.3 273.5 186.6 271.9 179.1 275.1C174.7 276.9 158.3 293.1 154.3 312.7C153.1 318.6 156.2 315.4 161.2 314.7C171.9 313.3 182.1 309.7 191.1 304.3C193.4 302.7 204.3 295 204.3 293.8Z" fill="#B1DEF5"/>
<path d="M157.5 316.4C159.8 315.9 162.2 315.3 164.4 314.6C171.4 312.3 178.2 309.2 184.5 305.2C185.6 304.5 196.3 296.2 200.8 292C201.1 293.4 201.7 294.4 202.7 295.5C208.7 302.2 216.3 307.4 224.7 310.5C227.7 304.8 228.1 298.3 227 292C225.6 283.4 215.8 277.9 207.1 277.2C205.1 277 203 277.2 201.4 278.3C195.9 276 189.7 273.4 183.7 272.7C177.8 272 171.3 273.1 166.8 276.9C164.8 278.6 163.3 280.6 161.9 282.8C155.2 293.2 152.5 305 149.5 316.9C152.2 317.2 154.9 316.9 157.5 316.4Z" stroke="white" stroke-width="2" stroke-miterlimit="10" stroke-linecap="round" stroke-linejoin="round"/>
<path d="M163.4 370.4C127.6 401.5 114.7 447.2 114.9 490.8C114.9 490.8 115.6 506.1 116.3 511.2C121.4 548.5 131.5 585.3 146.5 619.9C147.7 622.7 150.7 626.1 153.2 624.3C154.5 623.4 154.7 621.7 154.8 620.2C156.1 602.4 153.6 584.1 159.2 567.1C161.1 561.3 164 555.8 167.2 550.7C170.9 544.8 175.3 539.2 181.3 535.7C194.2 528 211.7 532.1 223.1 542C234.5 551.9 240.9 566.2 245.6 580.5C250.3 594.8 253.9 609.6 261.1 622.9C262 624.6 263.8 626.5 265.5 625.5C266.1 625.2 266.4 624.6 266.7 624C269.9 618.1 269.7 611 269.4 604.2C267.9 566.5 267.9 530.5 266.4 492.8V490.7C266.6 447.2 253.7 401.4 217.9 370.3" stroke="white" stroke-width="2" stroke-miterlimit="10" stroke-linecap="round" stroke-linejoin="round"/>
<path d="M141.1 314.1C108.6 316.1 90 336.6 90 358.7C90 366.6 91 374.5 93.6 381.9C99.2 397.6 113.7 409.9 130.2 412.8" stroke="white" stroke-width="2" stroke-miterlimit="10" stroke-linecap="round" stroke-linejoin="round"/>
<path d="M147.9 299.5C146.1 300.5 144.2 301.5 142.9 303.2C140.8 306.1 141.1 310.1 141.6 313.7C141.8 311.6 142.4 309.5 143.7 307.8C145 306.1 147 304.9 149.2 305.1" stroke="white" stroke-width="2" stroke-miterlimit="10" stroke-linecap="round" stroke-linejoin="round"/>
<path d="M178.1 371C178.9 370.2 179.5 369.3 180 368.3C180.1 368.1 180.2 367.9 180.1 367.7C180 367.6 179.9 367.5 179.8 367.4C178.9 366.8 173.7 363.8 173.2 364.8C172.5 366 178.5 370.6 178.1 371Z" fill="white"/>
<path d="M324.612 451.829C336.216 446.016 340.911 431.896 335.098 420.292C329.284 408.688 315.165 403.993 303.561 409.806C291.956 415.62 287.262 429.739 293.075 441.343C298.888 452.948 313.008 457.642 324.612 451.829Z" stroke="#FEDB8F" stroke-width="2" stroke-miterlimit="10" stroke-linecap="round" stroke-linejoin="round"/>
<path d="M317.4 453.9C316.7 451.4 313.8 449.8 311.4 450.4C310.8 450.6 310.2 450.8 309.6 451.2C307 452.8 305.2 455.8 305.6 458.9C305.9 461.9 308.5 464.7 311.5 464.8C314.5 465 317.5 462.2 317.3 459.2" stroke="#FEDB8F" stroke-width="2" stroke-miterlimit="10" stroke-linecap="round" stroke-linejoin="round"/>
<path d="M326.3 449.9C326 448.3 324.1 447.3 322.5 447.6C320.9 447.9 319.6 449.3 319.1 450.9C318.6 452.5 318.7 454.2 319.1 455.8C319.5 457.4 320.2 459.1 321.4 460.2C322.6 461.3 324.4 462 326 461.5C327.6 461 328.7 459.1 328.2 457.5" stroke="#FEDB8F" stroke-width="2" stroke-miterlimit="10" stroke-linecap="round" stroke-linejoin="round"/>
<path d="M333.7 442.4C332.8 440.7 330.1 440.6 328.7 442C327.3 443.4 327.2 445.7 328.1 447.4C329 449.1 330.6 450.4 332.4 451.2C334.2 452.1 336.4 452.6 338.2 451.7C340 450.8 340.9 448.1 339.4 446.7" stroke="#FEDB8F" stroke-width="2" stroke-miterlimit="10" stroke-linecap="round" stroke-linejoin="round"/>
<path d="M311.2 492C310 486.4 309.7 480.5 310.3 474.8C308.4 474.7 306.3 474.5 305.2 473C304.3 471.8 304.5 470.1 305.2 468.8C305.9 467.5 307.2 466.6 308.4 465.8C309.1 465.3 309.9 464.9 310.8 465C312 465.2 312.8 466.4 313.4 467.4C314 468.5 314.7 469.9 314.1 471.1C313.9 471.6 313.5 471.9 313.1 472.3C312.1 473.2 311.1 474.1 310.1 475" stroke="#FEDB8F" stroke-width="2" stroke-miterlimit="10" stroke-linecap="round" stroke-linejoin="round"/>
<path d="M310.1 492.1C312.6 491.4 315.2 491 317.8 490.9C317.6 490.4 317.5 489.9 317.3 489.4" stroke="#FEDB8F" stroke-width="2" stroke-miterlimit="10" stroke-linecap="round" stroke-linejoin="round"/>
<path d="M310.3 484.4C312.5 484.3 314.7 484.1 316.9 484" stroke="#FEDB8F" stroke-width="2" stroke-miterlimit="10" stroke-linecap="round" stroke-linejoin="round"/>
<path d="M326.9 461.6C324.5 461.8 322.4 463.9 322.3 466.4C322.2 467.8 322.8 469.2 323.4 470.5C324.4 472.3 326.2 474.2 328.2 473.8C328.5 473.7 328.8 473.7 329.1 473.8C329.4 473.9 329.6 474.3 329.7 474.7C331.1 478.4 333.3 481.9 335.9 484.8C336.1 485 336.2 485.2 336.5 485.2C337.4 485.5 337.9 484.2 338.2 483.2C338.4 482.6 338.7 482.1 338.9 481.5C339 480.9 339 480.2 338.5 479.9C338 479.5 337.1 479.8 337.2 480.4C336.5 479.3 336.7 477.8 337.5 476.8C336.7 476.7 335.8 476.9 335.1 477.3C334.4 475.6 333.4 473.9 332.3 472.4C334.4 468.4 332.4 461.2 326.9 461.6Z" stroke="#FEDB8F" stroke-width="2" stroke-miterlimit="10" stroke-linecap="round" stroke-linejoin="round"/>
<path d="M326.6 469.5C327.6 470.3 329.4 469.8 329.7 468.5C330 467.2 328.8 465.9 327.5 466C326.2 466.1 325.4 467.8 326.1 469" stroke="#FEDB8F" stroke-width="2" stroke-miterlimit="10" stroke-linecap="round" stroke-linejoin="round"/>
<path d="M346.2 449.6C344.8 449 343.3 448.5 341.8 448.9C339.7 449.4 338.5 451.6 337.6 453.5C337.1 454.6 336.6 455.8 337.1 456.9C337.5 457.8 338.6 458.2 339.5 458.6C341.6 459.4 343.8 460.2 345.9 461C346.8 461.3 347.8 461.7 348.8 461.6C351.2 461.3 352.3 458.6 352.9 456.3C354.3 451.3 350 451.1 346.2 449.6Z" stroke="#FEDB8F" stroke-width="2" stroke-miterlimit="10" stroke-linecap="round" stroke-linejoin="round"/>
<path d="M351.8 458.3C356.2 460.1 360.5 461.9 364.9 463.8" stroke="#FEDB8F" stroke-width="2" stroke-miterlimit="10" stroke-linecap="round" stroke-linejoin="round"/>
<path d="M358.5 466.1C359.1 463.5 360.2 461 361.8 458.8" stroke="#FEDB8F" stroke-width="2" stroke-miterlimit="10" stroke-linecap="round" stroke-linejoin="round"/>
<path d="M338.5 452.7C340.4 454.2 342.7 455.1 345.1 455.4" stroke="#FEDB8F" stroke-width="2" stroke-miterlimit="10" stroke-linecap="round" stroke-linejoin="round"/>
<path d="M247 405.6C254.8 394 264.3 383.4 275.8 375.3C287.3 367.2 300.7 361.8 314.7 360.7C319.1 360.4 323.6 360.5 327.7 362C337.8 365.9 342.8 378 341.6 388.8C340.4 399.6 334.3 409.1 327.8 417.8C325.9 420.3 323.3 423 320.2 422.4C319.7 421.3 319.6 420 319.8 418.8" stroke="white" stroke-width="2" stroke-miterlimit="10" stroke-linecap="round" stroke-linejoin="round"/>
<path d="M321.5 425.5C321.5 426.6 322.8 427.3 323.9 427.3C326.7 427.3 329.1 425 330 422.3C330.9 419.7 330.7 416.8 330.4 414" stroke="white" stroke-width="2" stroke-miterlimit="10" stroke-linecap="round" stroke-linejoin="round"/>
<path d="M323.1 404.5C323.4 402.8 325.9 402.3 327.3 403.3C328.7 404.3 329.2 406.2 329.3 407.9C329.4 409.6 329.3 411.4 329.8 413" stroke="white" stroke-width="2" stroke-miterlimit="10" stroke-linecap="round" stroke-linejoin="round"/>
<path d="M126.2 506.4C131.3 512.5 138.5 516.9 146.3 518.5" stroke="#B1DEF5" stroke-width="2" stroke-miterlimit="10" stroke-linecap="round" stroke-linejoin="round"/>
<path d="M229.8 515.8C234.3 515.1 238.6 513.1 242.3 510.4C245.1 508.4 247.7 506 249.9 503.4" stroke="#B1DEF5" stroke-width="2" stroke-miterlimit="10" stroke-linecap="round" stroke-linejoin="round"/>
<path d="M114.5 480C115.3 481.1 116.4 481.8 117.6 482.5C138.3 494.1 163.3 496.4 186.8 493.1C210.3 489.8 232.7 481.2 254.7 472.1" stroke="#B1DEF5" stroke-width="2" stroke-miterlimit="10" stroke-linecap="round" stroke-linejoin="round"/>
<path d="M182.6 493.5C182.8 498.6 183.4 503.7 184.3 508.7C184.6 510.3 184.9 511.9 185.3 513.5C185.5 514.2 185.7 514.9 186.1 515.5C187.4 517.2 190.1 517 192.2 516.6" stroke="#B1DEF5" stroke-width="2" stroke-miterlimit="10" stroke-linecap="round" stroke-linejoin="round"/>
<path d="M181.4 390.9C181.6 394 179.8 397.3 181.2 400.1C181.8 401.3 183 402.1 184.1 402.8C184.9 403.2 185.7 403.6 186.6 403.9C189.7 404.8 193.2 403.6 195.1 401C197 398.4 197.1 394.7 195.4 392" stroke="#FEDB8F" stroke-width="2" stroke-miterlimit="10" stroke-linecap="round" stroke-linejoin="round"/>
<path d="M183.6 402.4L178.1 461.7L189.3 474.3L200.4 460.8L194.3 401.9" stroke="#FEDB8F" stroke-width="2" stroke-miterlimit="10" stroke-linecap="round" stroke-linejoin="round"/>
<path d="M161.4 381.8C157.9 385.2 155 389.2 152.9 393.5C154.2 394 155.7 393.9 157.1 393.7C162.3 393.1 167.6 392.4 172.8 391.8" stroke="#B1DEF5" stroke-width="2" stroke-miterlimit="10" stroke-linecap="round" stroke-linejoin="round"/>
<path d="M204.7 391.2C209.8 392 214.1 395 219 396.7C220.1 397.1 221.2 397.4 222.3 397.7C222.7 396.2 222.2 394.6 221.6 393.2C220.1 389.5 218.6 385.8 217.1 382.2" stroke="#B1DEF5" stroke-width="2" stroke-miterlimit="10" stroke-linecap="round" stroke-linejoin="round"/>
<path opacity="0.5" d="M209.2 635.5C256.034 635.5 294 631.157 294 625.8C294 620.443 256.034 616.1 209.2 616.1C162.366 616.1 124.4 620.443 124.4 625.8C124.4 631.157 162.366 635.5 209.2 635.5Z" fill="#B1DEF5"/>
</g>
<defs>
<clipPath id="clip0">
<rect width="276.9" height="385.4" fill="white" transform="translate(89 250)"/>
</clipPath>
</defs>
</svg>
