<svg width="15" height="16" viewBox="0 0 15 16" fill="none" xmlns="http://www.w3.org/2000/svg">
<g clip-path="url(#clip0)">
<path d="M9.99954 0C11.5259 0 12.8943 0.956811 13.4732 2.33887C14.0522 3.72093 13.7364 5.31561 12.6311 6.43189C10.6311 8.45183 8.63112 10.5249 6.57849 12.5449C5.84164 13.289 4.68375 13.3953 3.84164 12.7575C2.94691 12.1196 2.57849 11.0033 2.99954 9.99335C3.1048 9.72757 3.31533 9.46179 3.52585 9.24917C5.31533 7.3887 7.1048 5.5814 8.94691 3.72093C9.31533 3.29568 9.84164 3.29568 10.1574 3.61462C10.5259 3.98671 10.5259 4.46512 10.1048 4.89037C8.31533 6.69767 6.52585 8.50498 4.73638 10.3123C4.47322 10.5781 4.31533 10.8439 4.57849 11.1628C4.84164 11.5349 5.21007 11.5349 5.57849 11.1628C7.05217 9.62126 8.57849 8.13289 10.0522 6.59136C10.5259 6.11296 10.9995 5.63455 11.4732 5.15615C12.3153 4.25249 12.3153 3.08306 11.4732 2.23256C10.6311 1.38206 9.42059 1.38206 8.57849 2.23256C6.63112 4.19934 4.63112 6.16611 2.68375 8.18605C1.73638 9.14286 1.42059 10.3654 1.84164 11.6412C2.2627 12.9701 3.21006 13.7674 4.57849 14.0864C5.73638 14.3522 6.73638 14.0332 7.57849 13.1827C9.52585 11.1628 11.5259 9.19601 13.4732 7.22924C13.6837 7.06977 13.9469 6.85714 14.1574 6.85714C14.4206 6.85714 14.6837 7.06977 14.8943 7.22924C15.1048 7.49502 15.0522 7.81395 14.8416 8.07973C14.7364 8.18605 14.6311 8.29236 14.5259 8.39867C12.5785 10.3654 10.6837 12.3322 8.73638 14.2458C7.15743 15.8405 5.15743 16.2658 3.21006 15.4153C1.21006 14.5648 -0.105725 12.5449 -0.000461718 10.4186C0.0521699 9.14286 0.525854 7.97342 1.42059 7.06977C3.42059 5.15615 5.47322 3.08306 7.47322 1.06312C8.15743 0.318937 8.99954 0 9.99954 0Z" fill="#0052CC"/>
</g>
<defs>
<clipPath id="clip0">
<rect width="15" height="16" fill="white"/>
</clipPath>
</defs>
</svg>
