<svg width="33" height="33" viewBox="0 0 33 33" fill="none" xmlns="http://www.w3.org/2000/svg">
<circle cx="16.5" cy="16.5" r="16.5" fill="#B1DEF5"/>
<path d="M15.744 21.264C15.744 20.4 15.84 19.696 16.032 19.152C16.24 18.608 16.512 18.168 16.848 17.832C17.2 17.48 17.72 17.056 18.408 16.56C18.92 16.192 19.28 15.784 19.488 15.336C19.696 14.888 19.8 14.376 19.8 13.8C19.8 12.776 19.512 11.968 18.936 11.376C18.376 10.784 17.632 10.488 16.704 10.488C15.872 10.488 15.184 10.696 14.64 11.112C14.096 11.512 13.72 12.072 13.512 12.792L12 12.312C12.368 11.336 12.96 10.544 13.776 9.936C14.608 9.312 15.6 9 16.752 9C17.568 9 18.336 9.208 19.056 9.624C19.776 10.04 20.352 10.608 20.784 11.328C21.216 12.032 21.432 12.8 21.432 13.632C21.432 14.656 21.248 15.456 20.88 16.032C20.512 16.592 19.984 17.136 19.296 17.664C18.784 18.064 18.392 18.392 18.12 18.648C17.864 18.888 17.64 19.224 17.448 19.656C17.256 20.088 17.16 20.624 17.16 21.264H15.744ZM16.32 25.92C15.984 25.92 15.68 25.792 15.408 25.536C15.152 25.28 15.024 24.976 15.024 24.624C15.024 24.272 15.152 23.968 15.408 23.712C15.68 23.44 15.984 23.304 16.32 23.304C16.672 23.304 16.976 23.44 17.232 23.712C17.504 23.968 17.64 24.272 17.64 24.624C17.64 24.96 17.504 25.264 17.232 25.536C16.96 25.792 16.656 25.92 16.32 25.92Z" fill="white"/>
</svg>
