<svg width="1109" height="381" viewBox="0 0 1109 381" fill="none" xmlns="http://www.w3.org/2000/svg">
<g clip-path="url(#clip0)">
<path d="M1 247.6C1.56 246.773 2.13 245.953 2.71 245.14" stroke="white" stroke-width="2" stroke-linecap="round" stroke-linejoin="round"/>
<path d="M6.29004 240.32C45.46 189.91 117.4 167.11 178.2 186.95C193.02 191.79 207.5 199.16 217.6 211.06C227.7 222.96 232.72 240 227.42 254.69C224.88 261.69 219.76 268.17 212.72 270.69C205.68 273.21 196.78 270.98 192.96 264.53C188.81 257.53 191.96 247.87 198.18 242.64C204.4 237.41 212.97 235.82 221.12 235.64C227.75 235.51 234.53 236.24 240.58 238.96C261.37 248.3 265.52 275.28 275.85 295.63C285.3 314.25 301.35 328.63 317.96 341.23C331.26 351.34 345.45 360.78 361.45 365.52C377.45 370.26 395.65 369.8 409.83 360.98C424.01 352.16 432.76 333.9 427.66 317.98C421.59 311.71 410.31 312.98 404.66 319.23" stroke="white" stroke-width="2" stroke-linecap="round" stroke-linejoin="round" stroke-dasharray="6 6"/>
<path d="M402.86 321.68C402.36 322.547 401.964 323.47 401.68 324.43C402.232 323.591 402.597 322.643 402.75 321.65" stroke="white" stroke-width="2" stroke-linecap="round" stroke-linejoin="round"/>
<path d="M401.4 315.84C399.14 312.15 394.55 309.47 390.19 310.5C382.68 312.27 378.66 321.28 380.05 328.88C381.44 336.48 386.81 342.72 392.56 347.88C404.011 357.984 417.588 365.383 432.287 369.527C446.985 373.671 462.427 374.455 477.47 371.82C507.42 366.34 519.78 337.7 548.47 319.33C584.54 296.22 627.75 311.18 642.79 317.66" stroke="white" stroke-width="2" stroke-linecap="round" stroke-linejoin="round" stroke-dasharray="6.09 6.09"/>
<path d="M645.54 318.9C647.29 319.71 648.23 320.21 648.23 320.21" stroke="white" stroke-width="2" stroke-linecap="round" stroke-linejoin="round"/>
<path d="M937.63 98.1399C940.47 107.68 940.95 118.8 940.95 129.97C940.95 171.65 918.95 205.45 891.74 205.45C864.53 205.45 842.54 171.66 842.54 130C842.525 122.055 843.35 114.131 845 106.36" stroke="#071146" stroke-width="2" stroke-miterlimit="10"/>
<path d="M868.93 140.45C877.766 140.45 884.93 133.287 884.93 124.45C884.93 115.613 877.766 108.45 868.93 108.45C860.093 108.45 852.93 115.613 852.93 124.45C852.93 133.287 860.093 140.45 868.93 140.45Z" stroke="#071146" stroke-width="2" stroke-miterlimit="10"/>
<path d="M914.56 140.45C923.397 140.45 930.56 133.287 930.56 124.45C930.56 115.613 923.397 108.45 914.56 108.45C905.724 108.45 898.56 115.613 898.56 124.45C898.56 133.287 905.724 140.45 914.56 140.45Z" stroke="#071146" stroke-width="2" stroke-miterlimit="10"/>
<path d="M884.13 125C884.717 124.677 885.27 124.295 885.78 123.86C887.434 122.817 889.345 122.252 891.3 122.23C892.638 122.104 893.988 122.188 895.3 122.48C896.635 122.784 897.833 123.518 898.71 124.57" stroke="#071146" stroke-width="2" stroke-miterlimit="10"/>
<path d="M930.77 121.64C931.982 120.153 933.361 118.811 934.88 117.64C936.023 116.658 937.401 115.989 938.88 115.7C940.342 115.589 941.794 116.016 942.962 116.903C944.13 117.789 944.933 119.072 945.22 120.51C945.441 121.961 945.237 123.444 944.634 124.782C944.031 126.12 943.053 127.255 941.82 128.05" stroke="#071146" stroke-width="2" stroke-miterlimit="10"/>
<path d="M853.17 120.78C850.246 118.981 846.948 117.876 843.53 117.55C843.017 117.476 842.494 117.5 841.99 117.62C841.231 117.899 840.587 118.423 840.16 119.11C839.074 120.558 838.603 122.377 838.85 124.17C838.986 125.061 839.374 125.894 839.968 126.573C840.561 127.251 841.335 127.746 842.2 128" stroke="#071146" stroke-width="2" stroke-miterlimit="10"/>
<path d="M904 174.48L904.07 174.41C904.156 174.348 904.213 174.254 904.23 174.15C904.223 174.084 904.191 174.022 904.141 173.978C904.091 173.934 904.027 173.91 903.96 173.91C903.829 173.915 903.702 173.953 903.59 174.02C901.765 175.005 899.889 175.893 897.97 176.68C894.21 178.028 890.143 178.271 886.25 177.38C885.69 177.25 885.14 177.1 884.59 176.95C883.86 176.75 880.96 175.67 880.66 175.51C880.365 175.316 880.005 175.248 879.66 175.32C879.496 175.36 879.354 175.461 879.261 175.602C879.168 175.743 879.132 175.914 879.16 176.08C879.234 176.267 879.363 176.427 879.53 176.54C879.67 176.66 883.53 180.75 885.73 182.19C886.828 183.051 888.087 183.683 889.433 184.049C890.779 184.415 892.185 184.507 893.567 184.321C894.95 184.134 896.281 183.673 897.482 182.963C898.683 182.254 899.729 181.311 900.56 180.19C902.016 178.349 903.283 176.366 904.34 174.27L904 174.48Z" fill="#071146"/>
<path d="M909.39 75C909.58 79.87 913.39 84 917.65 87.07C925.295 92.4744 934.303 95.6239 943.65 96.16C945.65 91.97 954.18 50.78 912.2 56.1C911.085 56.3648 909.925 56.3887 908.8 56.17C907.864 55.7846 907.026 55.1933 906.35 54.44C898.35 47.03 885.03 44.81 874.64 49.18C868.64 51.71 845.95 73.97 840.44 100.89C838.78 109 843.05 104.57 849.9 103.69C864.441 101.813 878.435 96.9443 891 89.39C894.52 87.28 909.46 76.67 909.39 75Z" fill="#B1DEF5"/>
<path d="M845 106.14C848.232 105.482 851.421 104.631 854.55 103.59C864.249 100.435 873.528 96.1098 882.18 90.7099C883.75 89.7099 898.49 78.2999 904.61 72.5999C905.031 74.4323 905.948 76.1136 907.26 77.4599C915.515 86.7322 925.924 93.8309 937.57 98.1299C941.64 90.2599 942.19 81.3799 940.8 72.6299C939 60.7599 925.4 53.2599 913.41 52.2899C910.68 52.0699 907.75 52.2899 905.51 53.8199C897.89 50.6799 889.36 47.0899 881.18 46.1199C873 45.1499 864.18 46.6299 857.87 51.9399C855.229 54.2937 852.957 57.0309 851.13 60.0599C841.93 74.3999 838.22 90.5699 834.04 107.06C837.731 107.178 841.423 106.863 845.04 106.12" stroke="#071146" stroke-width="2" stroke-miterlimit="10"/>
<path d="M853.17 180.51C803.86 223.28 786.06 286.33 786.4 346.27" stroke="#071146" stroke-width="2" stroke-linecap="round" stroke-linejoin="round"/>
<path d="M928.27 180.51C977.58 223.28 995.38 286.33 995.04 346.27" stroke="#071146" stroke-width="2" stroke-linecap="round" stroke-linejoin="round"/>
<path d="M759.9 109.06C753.67 126.71 751.62 145.64 752.06 164.36C752.31 175.17 753.4 186.08 757.06 196.26C761.088 207.093 767.839 216.706 776.664 224.17C785.489 231.633 796.089 236.696 807.44 238.87" stroke="#071146" stroke-width="2" stroke-linecap="round" stroke-linejoin="round"/>
<path d="M760.47 108.24C760.829 108.407 761.226 108.478 761.62 108.445C762.015 108.411 762.394 108.275 762.72 108.05C763.336 107.602 763.848 107.025 764.22 106.36C766.785 102.375 768.444 97.8759 769.08 93.1799" stroke="#071146" stroke-width="2" stroke-linecap="round" stroke-linejoin="round"/>
<path d="M829.49 217.06C828.738 221.687 828.427 226.374 828.56 231.06" stroke="#B1DEF5" stroke-width="2" stroke-linecap="round" stroke-linejoin="round"/>
<path d="M843 217.06C842.248 221.687 841.937 226.374 842.07 231.06" stroke="#B1DEF5" stroke-width="2" stroke-linecap="round" stroke-linejoin="round"/>
<path d="M856.53 217.06C855.778 221.687 855.467 226.374 855.6 231.06" stroke="#B1DEF5" stroke-width="2" stroke-linecap="round" stroke-linejoin="round"/>
<path d="M870.05 217.06C869.298 221.687 868.987 226.374 869.12 231.06" stroke="#B1DEF5" stroke-width="2" stroke-linecap="round" stroke-linejoin="round"/>
<path d="M883.57 217.06C882.818 221.687 882.507 226.374 882.64 231.06" stroke="#B1DEF5" stroke-width="2" stroke-linecap="round" stroke-linejoin="round"/>
<path d="M897.09 217.06C896.338 221.687 896.027 226.374 896.16 231.06" stroke="#B1DEF5" stroke-width="2" stroke-linecap="round" stroke-linejoin="round"/>
<path d="M910.61 217.06C909.858 221.687 909.547 226.374 909.68 231.06" stroke="#B1DEF5" stroke-width="2" stroke-linecap="round" stroke-linejoin="round"/>
<path d="M924.13 217.06C923.378 221.687 923.067 226.374 923.2 231.06" stroke="#B1DEF5" stroke-width="2" stroke-linecap="round" stroke-linejoin="round"/>
<path d="M937.65 217.06C936.898 221.687 936.587 226.374 936.72 231.06" stroke="#B1DEF5" stroke-width="2" stroke-linecap="round" stroke-linejoin="round"/>
<path d="M951.17 217.06C950.418 221.687 950.107 226.374 950.24 231.06" stroke="#B1DEF5" stroke-width="2" stroke-linecap="round" stroke-linejoin="round"/>
<path d="M821.32 246.08C820.568 250.707 820.257 255.394 820.39 260.08" stroke="#B1DEF5" stroke-width="2" stroke-linecap="round" stroke-linejoin="round"/>
<path d="M834.84 246.08C834.088 250.707 833.777 255.394 833.91 260.08" stroke="#B1DEF5" stroke-width="2" stroke-linecap="round" stroke-linejoin="round"/>
<path d="M848.36 246.08C847.608 250.707 847.297 255.394 847.43 260.08" stroke="#B1DEF5" stroke-width="2" stroke-linecap="round" stroke-linejoin="round"/>
<path d="M861.88 246.08C861.128 250.707 860.817 255.394 860.95 260.08" stroke="#B1DEF5" stroke-width="2" stroke-linecap="round" stroke-linejoin="round"/>
<path d="M875.4 246.08C874.648 250.707 874.337 255.394 874.47 260.08" stroke="#B1DEF5" stroke-width="2" stroke-linecap="round" stroke-linejoin="round"/>
<path d="M888.92 246.08C888.168 250.707 887.857 255.394 887.99 260.08" stroke="#B1DEF5" stroke-width="2" stroke-linecap="round" stroke-linejoin="round"/>
<path d="M902.44 246.08C901.688 250.707 901.377 255.394 901.51 260.08" stroke="#B1DEF5" stroke-width="2" stroke-linecap="round" stroke-linejoin="round"/>
<path d="M916 246.08C915.248 250.707 914.937 255.394 915.07 260.08" stroke="#B1DEF5" stroke-width="2" stroke-linecap="round" stroke-linejoin="round"/>
<path d="M929.48 246.08C928.728 250.707 928.417 255.394 928.55 260.08" stroke="#B1DEF5" stroke-width="2" stroke-linecap="round" stroke-linejoin="round"/>
<path d="M943 246.08C942.248 250.707 941.937 255.394 942.07 260.08" stroke="#B1DEF5" stroke-width="2" stroke-linecap="round" stroke-linejoin="round"/>
<path d="M956.71 246.08C955.958 250.707 955.647 255.394 955.78 260.08" stroke="#B1DEF5" stroke-width="2" stroke-linecap="round" stroke-linejoin="round"/>
<path d="M821.32 304.13C820.568 308.757 820.257 313.444 820.39 318.13" stroke="#B1DEF5" stroke-width="2" stroke-linecap="round" stroke-linejoin="round"/>
<path d="M807.91 304.13C807.158 308.757 806.847 313.444 806.98 318.13" stroke="#B1DEF5" stroke-width="2" stroke-linecap="round" stroke-linejoin="round"/>
<path d="M834.84 304.13C834.088 308.757 833.777 313.444 833.91 318.13" stroke="#B1DEF5" stroke-width="2" stroke-linecap="round" stroke-linejoin="round"/>
<path d="M848.36 304.13C847.608 308.757 847.297 313.444 847.43 318.13" stroke="#B1DEF5" stroke-width="2" stroke-linecap="round" stroke-linejoin="round"/>
<path d="M861.88 304.13C861.128 308.757 860.817 313.444 860.95 318.13" stroke="#B1DEF5" stroke-width="2" stroke-linecap="round" stroke-linejoin="round"/>
<path d="M875.4 304.13C874.648 308.757 874.337 313.444 874.47 318.13" stroke="#B1DEF5" stroke-width="2" stroke-linecap="round" stroke-linejoin="round"/>
<path d="M888.92 304.13C888.168 308.757 887.857 313.444 887.99 318.13" stroke="#B1DEF5" stroke-width="2" stroke-linecap="round" stroke-linejoin="round"/>
<path d="M902.44 304.13C901.688 308.757 901.377 313.444 901.51 318.13" stroke="#B1DEF5" stroke-width="2" stroke-linecap="round" stroke-linejoin="round"/>
<path d="M916 304.13C915.248 308.757 914.937 313.444 915.07 318.13" stroke="#B1DEF5" stroke-width="2" stroke-linecap="round" stroke-linejoin="round"/>
<path d="M929.48 304.13C928.728 308.757 928.417 313.444 928.55 318.13" stroke="#B1DEF5" stroke-width="2" stroke-linecap="round" stroke-linejoin="round"/>
<path d="M943 304.13C942.248 308.757 941.937 313.444 942.07 318.13" stroke="#B1DEF5" stroke-width="2" stroke-linecap="round" stroke-linejoin="round"/>
<path d="M956.71 304.13C955.958 308.757 955.647 313.444 955.78 318.13" stroke="#B1DEF5" stroke-width="2" stroke-linecap="round" stroke-linejoin="round"/>
<path d="M970.21 304.13C969.458 308.757 969.147 313.444 969.28 318.13" stroke="#B1DEF5" stroke-width="2" stroke-linecap="round" stroke-linejoin="round"/>
<path d="M829.49 275.1C828.738 279.727 828.427 284.415 828.56 289.1" stroke="#B1DEF5" stroke-width="2" stroke-linecap="round" stroke-linejoin="round"/>
<path d="M843 275.1C842.248 279.727 841.937 284.415 842.07 289.1" stroke="#B1DEF5" stroke-width="2" stroke-linecap="round" stroke-linejoin="round"/>
<path d="M801.63 275.1C800.878 279.727 800.567 284.415 800.7 289.1" stroke="#B1DEF5" stroke-width="2" stroke-linecap="round" stroke-linejoin="round"/>
<path d="M815.15 275.1C814.398 279.727 814.087 284.415 814.22 289.1" stroke="#B1DEF5" stroke-width="2" stroke-linecap="round" stroke-linejoin="round"/>
<path d="M963.45 275.1C962.698 279.727 962.387 284.415 962.52 289.1" stroke="#B1DEF5" stroke-width="2" stroke-linecap="round" stroke-linejoin="round"/>
<path d="M977 275.1C976.248 279.727 975.937 284.415 976.07 289.1" stroke="#B1DEF5" stroke-width="2" stroke-linecap="round" stroke-linejoin="round"/>
<path d="M856.53 275.1C855.778 279.727 855.467 284.415 855.6 289.1" stroke="#B1DEF5" stroke-width="2" stroke-linecap="round" stroke-linejoin="round"/>
<path d="M870.05 275.1C869.298 279.727 868.987 284.415 869.12 289.1" stroke="#B1DEF5" stroke-width="2" stroke-linecap="round" stroke-linejoin="round"/>
<path d="M883.57 275.1C882.818 279.727 882.507 284.415 882.64 289.1" stroke="#B1DEF5" stroke-width="2" stroke-linecap="round" stroke-linejoin="round"/>
<path d="M897.09 275.1C896.338 279.727 896.027 284.415 896.16 289.1" stroke="#B1DEF5" stroke-width="2" stroke-linecap="round" stroke-linejoin="round"/>
<path d="M910.61 275.1C909.858 279.727 909.547 284.415 909.68 289.1" stroke="#B1DEF5" stroke-width="2" stroke-linecap="round" stroke-linejoin="round"/>
<path d="M924.13 275.1C923.378 279.727 923.067 284.415 923.2 289.1" stroke="#B1DEF5" stroke-width="2" stroke-linecap="round" stroke-linejoin="round"/>
<path d="M937.65 275.1C936.898 279.727 936.587 284.415 936.72 289.1" stroke="#B1DEF5" stroke-width="2" stroke-linecap="round" stroke-linejoin="round"/>
<path d="M951.17 275.1C950.418 279.727 950.107 284.415 950.24 289.1" stroke="#B1DEF5" stroke-width="2" stroke-linecap="round" stroke-linejoin="round"/>
<path d="M841.49 211.62C851.086 223.106 862.803 232.639 876 239.7C879.727 233.629 884.461 228.239 890 223.76L898.91 236.76C899.325 237.493 899.929 238.101 900.66 238.52C902.03 239.15 903.61 238.35 904.89 237.52C915.172 231.178 924.781 223.807 933.57 215.52" stroke="#B1DEF5" stroke-width="2" stroke-linecap="round" stroke-linejoin="round"/>
<path d="M841.49 208.24C851.086 219.726 862.803 229.259 876 236.32C879.727 230.249 884.461 224.859 890 220.38L898.91 233.38C899.325 234.113 899.929 234.721 900.66 235.14C902.03 235.77 903.61 234.97 904.89 234.14C915.172 227.799 924.781 220.427 933.57 212.14" stroke="#071146" stroke-width="2" stroke-linecap="round" stroke-linejoin="round"/>
<path d="M920.2 260.93C930.206 264.594 941.253 264.159 950.94 259.72" stroke="#071146" stroke-width="2" stroke-linecap="round" stroke-linejoin="round"/>
<path d="M935.91 275.53C937.374 275.53 938.56 274.344 938.56 272.88C938.56 271.416 937.374 270.23 935.91 270.23C934.446 270.23 933.26 271.416 933.26 272.88C933.26 274.344 934.446 275.53 935.91 275.53Z" stroke="#071146" stroke-width="2" stroke-linecap="round" stroke-linejoin="round"/>
<path d="M967.8 229.6C972.86 244.15 974.53 265.25 969.88 282.84C964.88 301.69 951.55 317.47 935.88 329.05C920.21 340.63 898.78 336.36 891.77 326.05" stroke="#071146" stroke-width="2" stroke-linecap="round" stroke-linejoin="round"/>
<path d="M880.14 317.29C879.79 316.97 880.29 316.44 880.72 316.29C882.315 315.484 884.083 315.079 885.87 315.11C886.763 315.139 887.632 315.404 888.39 315.878C889.147 316.352 889.765 317.019 890.18 317.81C890.86 319.33 890.51 321.08 890.6 322.74C890.701 323.867 890.909 324.982 891.22 326.07C890.941 324.81 890.324 323.651 889.434 322.717C888.544 321.782 887.416 321.109 886.171 320.769C884.927 320.43 883.613 320.436 882.372 320.789C881.131 321.142 880.01 321.827 879.13 322.77" stroke="#071146" stroke-width="2" stroke-linecap="round" stroke-linejoin="round"/>
<path d="M879.81 329.83C880.407 329.671 880.934 329.319 881.31 328.83C882.486 327.679 883.936 326.847 885.523 326.413C887.11 325.979 888.782 325.957 890.38 326.35C890.76 326.45 891.21 326.67 891.21 327.06" stroke="#071146" stroke-width="2" stroke-linecap="round" stroke-linejoin="round"/>
<path d="M980.58 1.87998L983.34 7.47998C983.452 7.70819 983.618 7.9057 983.824 8.0555C984.029 8.20531 984.268 8.30294 984.52 8.33998L990.7 9.23998C990.99 9.28183 991.263 9.40418 991.487 9.59315C991.712 9.78213 991.879 10.0302 991.969 10.3092C992.06 10.5881 992.07 10.8869 992 11.1716C991.929 11.4563 991.78 11.7156 991.57 11.92L987.1 16.28C986.918 16.4578 986.782 16.6773 986.703 16.9194C986.625 17.1616 986.607 17.4192 986.65 17.67L987.71 23.82C987.761 24.1094 987.729 24.4072 987.619 24.6797C987.509 24.9521 987.325 25.1883 987.088 25.3612C986.85 25.5342 986.569 25.637 986.276 25.658C985.983 25.679 985.69 25.6173 985.43 25.48L979.9 22.57C979.675 22.4517 979.424 22.3899 979.17 22.3899C978.916 22.3899 978.665 22.4517 978.44 22.57L972.91 25.48C972.65 25.6173 972.357 25.679 972.064 25.658C971.771 25.637 971.49 25.5342 971.252 25.3612C971.015 25.1883 970.83 24.9521 970.72 24.6797C970.61 24.4072 970.579 24.1094 970.63 23.82L971.69 17.67C971.733 17.4192 971.715 17.1616 971.636 16.9194C971.558 16.6773 971.422 16.4578 971.24 16.28L966.77 11.92C966.56 11.7156 966.411 11.4563 966.34 11.1716C966.269 10.8869 966.28 10.5881 966.371 10.3092C966.461 10.0302 966.628 9.78213 966.852 9.59315C967.077 9.40418 967.35 9.28183 967.64 9.23998L973.82 8.33998C974.072 8.30294 974.31 8.20531 974.516 8.0555C974.722 7.9057 974.888 7.70819 975 7.47998L977.76 1.87998C977.889 1.61615 978.09 1.39386 978.339 1.23839C978.588 1.08291 978.876 1.00049 979.17 1.00049C979.464 1.00049 979.752 1.08291 980.001 1.23839C980.25 1.39386 980.451 1.61615 980.58 1.87998Z" fill="#FEDB8F" stroke="white" stroke-width="2" stroke-miterlimit="10"/>
<path d="M1016.33 66.5699L1019.09 72.1699C1019.2 72.3981 1019.37 72.5956 1019.57 72.7454C1019.78 72.8952 1020.02 72.9929 1020.27 73.0299L1026.45 73.9299C1026.74 73.9718 1027.01 74.0941 1027.24 74.2831C1027.46 74.4721 1027.63 74.7201 1027.72 74.9991C1027.81 75.2781 1027.82 75.5769 1027.75 75.8616C1027.68 76.1463 1027.53 76.4055 1027.32 76.6099L1022.85 80.9999C1022.67 81.1778 1022.53 81.3972 1022.45 81.6394C1022.37 81.8815 1022.36 82.1391 1022.4 82.3899L1023.46 88.5399C1023.51 88.8293 1023.48 89.1271 1023.37 89.3996C1023.26 89.6721 1023.08 89.9082 1022.84 90.0812C1022.6 90.2541 1022.32 90.3569 1022.03 90.3779C1021.73 90.3989 1021.44 90.3372 1021.18 90.1999L1015.65 87.2899C1015.42 87.1717 1015.17 87.1099 1014.92 87.1099C1014.67 87.1099 1014.42 87.1717 1014.19 87.2899L1008.66 90.1999C1008.4 90.3372 1008.11 90.3989 1007.81 90.3779C1007.52 90.3569 1007.24 90.2541 1007 90.0812C1006.76 89.9082 1006.58 89.6721 1006.47 89.3996C1006.36 89.1271 1006.33 88.8293 1006.38 88.5399L1007.44 82.3899C1007.48 82.1399 1007.47 81.8828 1007.39 81.6407C1007.31 81.3986 1007.18 81.1787 1007 80.9999L1002.53 76.6399C1002.32 76.4355 1002.17 76.1763 1002.1 75.8916C1002.03 75.6069 1002.04 75.3081 1002.13 75.0291C1002.22 74.7501 1002.39 74.5021 1002.61 74.3131C1002.84 74.1241 1003.11 74.0018 1003.4 73.9599L1009.58 73.0599C1009.83 73.0229 1010.07 72.9252 1010.28 72.7754C1010.48 72.6256 1010.65 72.4281 1010.76 72.1999L1013.52 66.5999C1013.65 66.3373 1013.85 66.1154 1014.09 65.9592C1014.34 65.803 1014.62 65.7185 1014.92 65.7154C1015.21 65.7123 1015.49 65.7906 1015.74 65.9416C1015.99 66.0925 1016.2 66.3101 1016.33 66.5699Z" fill="#FEDB8F" stroke="white" stroke-width="2" stroke-miterlimit="10"/>
<path d="M1077.15 38.87L1079.91 44.47C1080.02 44.6982 1080.19 44.8957 1080.39 45.0455C1080.6 45.1953 1080.84 45.2929 1081.09 45.33L1087.27 46.23C1087.56 46.2718 1087.83 46.3942 1088.06 46.5831C1088.28 46.7721 1088.45 47.0202 1088.54 47.2991C1088.63 47.5781 1088.64 47.8769 1088.57 48.1616C1088.5 48.4463 1088.35 48.7056 1088.14 48.91L1083.67 53.27C1083.49 53.4478 1083.35 53.6673 1083.27 53.9094C1083.2 54.1516 1083.18 54.4092 1083.22 54.66L1084.28 60.81C1084.33 61.0994 1084.3 61.3972 1084.19 61.6697C1084.08 61.9421 1083.9 62.1783 1083.66 62.3512C1083.42 62.5242 1083.14 62.627 1082.85 62.648C1082.55 62.669 1082.26 62.6073 1082 62.47L1076.47 59.56C1076.24 59.4417 1075.99 59.3799 1075.74 59.3799C1075.49 59.3799 1075.24 59.4417 1075.01 59.56L1069.48 62.47C1069.22 62.6073 1068.93 62.669 1068.63 62.648C1068.34 62.627 1068.06 62.5242 1067.82 62.3512C1067.58 62.1783 1067.4 61.9421 1067.29 61.6697C1067.18 61.3972 1067.15 61.0994 1067.2 60.81L1068.26 54.66C1068.3 54.4092 1068.28 54.1516 1068.21 53.9094C1068.13 53.6673 1067.99 53.4478 1067.81 53.27L1063.34 48.91C1063.13 48.7056 1062.98 48.4463 1062.91 48.1616C1062.84 47.8769 1062.85 47.5781 1062.94 47.2991C1063.03 47.0202 1063.2 46.7721 1063.42 46.5831C1063.65 46.3942 1063.92 46.2718 1064.21 46.23L1070.39 45.33C1070.64 45.2929 1070.88 45.1953 1071.09 45.0455C1071.29 44.8957 1071.46 44.6982 1071.57 44.47L1074.33 38.87C1074.46 38.6061 1074.66 38.3839 1074.91 38.2284C1075.16 38.0729 1075.45 37.9905 1075.74 37.9905C1076.03 37.9905 1076.32 38.0729 1076.57 38.2284C1076.82 38.3839 1077.02 38.6061 1077.15 38.87Z" fill="#FEDB8F" stroke="white" stroke-width="2" stroke-miterlimit="10"/>
<path d="M197.6 364.35H195.77L195.66 380.27L179.09 364.35H139.27C136.389 364.342 133.629 363.194 131.592 361.157C129.556 359.121 128.408 356.36 128.4 353.48V322.48C128.408 319.599 129.556 316.839 131.592 314.802C133.629 312.766 136.389 311.618 139.27 311.61H197.6C200.48 311.618 203.241 312.766 205.277 314.802C207.314 316.839 208.462 319.599 208.47 322.48V353.48C208.462 356.36 207.314 359.121 205.277 361.157C203.241 363.194 200.48 364.342 197.6 364.35Z" fill="#95E196"/>
<path d="M194.01 325.37H141.78C140.333 325.37 139.16 326.541 139.16 327.985C139.16 329.429 140.333 330.6 141.78 330.6H194.01C195.457 330.6 196.63 329.429 196.63 327.985C196.63 326.541 195.457 325.37 194.01 325.37Z" fill="white"/>
<path d="M194.01 335.86H141.78C140.333 335.86 139.16 337.031 139.16 338.475C139.16 339.919 140.333 341.09 141.78 341.09H194.01C195.457 341.09 196.63 339.919 196.63 338.475C196.63 337.031 195.457 335.86 194.01 335.86Z" fill="white"/>
<path d="M194.01 346.35H141.78C140.333 346.35 139.16 347.521 139.16 348.965C139.16 350.409 140.333 351.58 141.78 351.58H194.01C195.457 351.58 196.63 350.409 196.63 348.965C196.63 347.521 195.457 346.35 194.01 346.35Z" fill="white"/>
<path d="M104 317.73H105.83L105.94 333.65L122.51 317.73H162.33C165.21 317.722 167.971 316.574 170.007 314.538C172.044 312.501 173.192 309.74 173.2 306.86V275.86C173.189 272.988 172.046 270.236 170.018 268.203C167.99 266.169 165.242 265.018 162.37 265H104C101.119 265.008 98.3592 266.156 96.3224 268.193C94.2856 270.229 93.1378 272.99 93.1299 275.87V306.87C93.1404 309.749 94.2894 312.506 96.3259 314.541C98.3624 316.576 101.121 317.722 104 317.73V317.73Z" stroke="#071146" stroke-width="2" stroke-linecap="round" stroke-linejoin="round"/>
<path d="M114.63 296.55C117.485 296.55 119.8 294.235 119.8 291.38C119.8 288.525 117.485 286.21 114.63 286.21C111.775 286.21 109.46 288.525 109.46 291.38C109.46 294.235 111.775 296.55 114.63 296.55Z" fill="white"/>
<path d="M133.2 296.55C136.055 296.55 138.37 294.235 138.37 291.38C138.37 288.525 136.055 286.21 133.2 286.21C130.345 286.21 128.03 288.525 128.03 291.38C128.03 294.235 130.345 296.55 133.2 296.55Z" fill="white"/>
<path d="M151.78 296.55C154.635 296.55 156.95 294.235 156.95 291.38C156.95 288.525 154.635 286.21 151.78 286.21C148.925 286.21 146.61 288.525 146.61 291.38C146.61 294.235 148.925 296.55 151.78 296.55Z" fill="white"/>
<path d="M115.92 297.38C118.775 297.38 121.09 295.065 121.09 292.21C121.09 289.355 118.775 287.04 115.92 287.04C113.065 287.04 110.75 289.355 110.75 292.21C110.75 295.065 113.065 297.38 115.92 297.38Z" stroke="#071146" stroke-width="2" stroke-linecap="round" stroke-linejoin="round"/>
<path d="M134.49 297.38C137.345 297.38 139.66 295.065 139.66 292.21C139.66 289.355 137.345 287.04 134.49 287.04C131.635 287.04 129.32 289.355 129.32 292.21C129.32 295.065 131.635 297.38 134.49 297.38Z" stroke="#071146" stroke-width="2" stroke-linecap="round" stroke-linejoin="round"/>
<path d="M153.07 297.38C155.925 297.38 158.24 295.065 158.24 292.21C158.24 289.355 155.925 287.04 153.07 287.04C150.215 287.04 147.9 289.355 147.9 292.21C147.9 295.065 150.215 297.38 153.07 297.38Z" stroke="#071146" stroke-width="2" stroke-linecap="round" stroke-linejoin="round"/>
<path d="M1007.77 192.39H1009.6L1009.71 208.31L1026.28 192.39H1053.43C1056.31 192.382 1059.07 191.234 1061.11 189.197C1063.14 187.161 1064.29 184.4 1064.3 181.52V150.52C1064.29 147.639 1063.14 144.879 1061.11 142.842C1059.07 140.806 1056.31 139.658 1053.43 139.65H1007.77C1004.89 139.658 1002.13 140.806 1000.09 142.842C998.056 144.879 996.908 147.639 996.9 150.52V181.52C996.908 184.4 998.056 187.161 1000.09 189.197C1002.13 191.234 1004.89 192.382 1007.77 192.39Z" fill="#FCAA90"/>
<path d="M1101.97 346.28H646.86C643.944 346.28 641.58 348.644 641.58 351.56V351.6C641.58 354.516 643.944 356.88 646.86 356.88H1101.97C1104.89 356.88 1107.25 354.516 1107.25 351.6V351.56C1107.25 348.644 1104.89 346.28 1101.97 346.28Z" stroke="#071146" stroke-width="2" stroke-linecap="round" stroke-linejoin="round"/>
<path d="M164.89 15.8799H75.8899C74.233 15.8799 72.8899 17.223 72.8899 18.8799V153.46C72.8899 155.117 74.233 156.46 75.8899 156.46H164.89C166.547 156.46 167.89 155.117 167.89 153.46V18.8799C167.89 17.223 166.547 15.8799 164.89 15.8799Z" fill="white"/>
<path d="M157.89 9.37988H68.8899C67.233 9.37988 65.8899 10.723 65.8899 12.3799V146.96C65.8899 148.617 67.233 149.96 68.8899 149.96H157.89C159.547 149.96 160.89 148.617 160.89 146.96V12.3799C160.89 10.723 159.547 9.37988 157.89 9.37988Z" stroke="#071146" stroke-width="2" stroke-linecap="round" stroke-linejoin="round"/>
<path d="M85.1399 52.54H145.89" stroke="#071146" stroke-width="2" stroke-linecap="round" stroke-linejoin="round"/>
<path d="M85.1399 62.79H145.89" stroke="#071146" stroke-width="2" stroke-linecap="round" stroke-linejoin="round"/>
<path d="M85.1399 73.04H145.89" stroke="#071146" stroke-width="2" stroke-linecap="round" stroke-linejoin="round"/>
<path d="M85.1399 83.29H145.89" stroke="#071146" stroke-width="2" stroke-linecap="round" stroke-linejoin="round"/>
<path d="M85.1399 93.54H145.89" stroke="#071146" stroke-width="2" stroke-linecap="round" stroke-linejoin="round"/>
<path d="M85.1399 103.79H145.89" stroke="#071146" stroke-width="2" stroke-linecap="round" stroke-linejoin="round"/>
<path d="M85.1399 114.04H145.89" stroke="#071146" stroke-width="2" stroke-linecap="round" stroke-linejoin="round"/>
<path d="M85.1399 124.29H145.89" stroke="#071146" stroke-width="2" stroke-linecap="round" stroke-linejoin="round"/>
<path d="M143.89 30.1299H87.1399C86.0353 30.1299 85.1399 31.0253 85.1399 32.1299V36.9599C85.1399 38.0645 86.0353 38.9599 87.1399 38.9599H143.89C144.994 38.9599 145.89 38.0645 145.89 36.9599V32.1299C145.89 31.0253 144.994 30.1299 143.89 30.1299Z" fill="#B3C1F4"/>
<path d="M88.1301 135.45L88.8201 136.86C88.8485 136.918 88.8907 136.969 88.943 137.007C88.9952 137.045 89.056 137.07 89.1201 137.08L90.6701 137.31C90.7414 137.322 90.8079 137.354 90.8626 137.402C90.9173 137.449 90.9581 137.51 90.9807 137.579C91.0033 137.648 91.0068 137.721 90.9908 137.792C90.9749 137.863 90.9401 137.928 90.8901 137.98L89.7701 139.08C89.7252 139.125 89.6917 139.181 89.6726 139.242C89.6535 139.302 89.6492 139.367 89.6601 139.43L89.9301 140.98C89.941 141.052 89.9321 141.126 89.9042 141.193C89.8763 141.26 89.8306 141.319 89.7719 141.362C89.7132 141.405 89.6439 141.432 89.5713 141.438C89.4987 141.445 89.4257 141.432 89.3601 141.4L88.0001 140.65C87.943 140.62 87.8795 140.605 87.8151 140.605C87.7507 140.605 87.6872 140.62 87.6301 140.65L86.2401 141.38C86.1745 141.412 86.1015 141.425 86.0289 141.418C85.9563 141.412 85.887 141.385 85.8283 141.342C85.7696 141.299 85.7239 141.24 85.696 141.173C85.6681 141.106 85.6591 141.032 85.6701 140.96L85.9401 139.41C85.951 139.347 85.9467 139.282 85.9276 139.222C85.9085 139.161 85.875 139.105 85.8301 139.06L84.6501 138C84.6002 137.948 84.5653 137.883 84.5494 137.812C84.5334 137.741 84.5369 137.668 84.5595 137.599C84.5821 137.53 84.6229 137.469 84.6776 137.422C84.7323 137.374 84.7988 137.342 84.8701 137.33L86.4201 137.1C86.4842 137.09 86.545 137.065 86.5972 137.027C86.6495 136.989 86.6917 136.938 86.7201 136.88L87.4101 135.47C87.4409 135.401 87.4905 135.343 87.553 135.301C87.6156 135.259 87.6887 135.236 87.7638 135.234C87.839 135.232 87.9132 135.251 87.978 135.289C88.0428 135.327 88.0955 135.383 88.1301 135.45Z" fill="#FEDB8F"/>
<path d="M97.8801 135.45L98.5701 136.86C98.5985 136.918 98.6407 136.969 98.693 137.007C98.7452 137.045 98.806 137.07 98.8701 137.08L100.42 137.31C100.491 137.322 100.558 137.354 100.613 137.402C100.667 137.449 100.708 137.51 100.731 137.579C100.753 137.648 100.757 137.721 100.741 137.792C100.725 137.863 100.69 137.928 100.64 137.98L99.5201 139.08C99.4752 139.125 99.4417 139.181 99.4226 139.242C99.4035 139.302 99.3992 139.367 99.4101 139.43L99.6801 140.98C99.691 141.052 99.6821 141.126 99.6542 141.193C99.6263 141.26 99.5806 141.319 99.5219 141.362C99.4632 141.405 99.3939 141.432 99.3213 141.438C99.2487 141.445 99.1757 141.432 99.1101 141.4L97.7201 140.67C97.663 140.64 97.5995 140.625 97.5351 140.625C97.4707 140.625 97.4072 140.64 97.3501 140.67L95.9601 141.4C95.8945 141.432 95.8215 141.445 95.7489 141.438C95.6763 141.432 95.607 141.405 95.5483 141.362C95.4896 141.319 95.4439 141.26 95.416 141.193C95.3881 141.126 95.3792 141.052 95.3901 140.98L95.6601 139.43C95.671 139.367 95.6667 139.302 95.6476 139.242C95.6285 139.181 95.595 139.125 95.5501 139.08L94.4001 138C94.3502 137.948 94.3153 137.883 94.2994 137.812C94.2834 137.741 94.2869 137.668 94.3095 137.599C94.3321 137.53 94.3729 137.469 94.4276 137.422C94.4823 137.374 94.5488 137.342 94.6201 137.33L96.1701 137.1C96.2342 137.09 96.295 137.065 96.3472 137.027C96.3995 136.989 96.4417 136.938 96.4701 136.88L97.1601 135.47C97.1909 135.401 97.2405 135.343 97.303 135.301C97.3656 135.259 97.4387 135.236 97.5138 135.234C97.589 135.232 97.6632 135.251 97.728 135.289C97.7928 135.327 97.8455 135.383 97.8801 135.45Z" fill="#FEDB8F"/>
<path d="M107.63 135.45L108.32 136.86C108.348 136.918 108.39 136.969 108.443 137.007C108.495 137.045 108.556 137.07 108.62 137.08L110.17 137.31C110.241 137.323 110.308 137.354 110.362 137.402C110.417 137.449 110.458 137.51 110.48 137.579C110.503 137.648 110.507 137.722 110.491 137.792C110.475 137.863 110.44 137.928 110.39 137.98L109.27 139.08C109.225 139.125 109.192 139.181 109.172 139.242C109.153 139.303 109.149 139.367 109.16 139.43L109.43 140.98C109.441 141.052 109.432 141.126 109.404 141.193C109.376 141.26 109.33 141.319 109.272 141.362C109.213 141.405 109.144 141.432 109.071 141.438C108.998 141.445 108.925 141.432 108.86 141.4L107.47 140.67C107.413 140.64 107.349 140.625 107.285 140.625C107.22 140.625 107.157 140.64 107.1 140.67L105.71 141.4C105.644 141.432 105.571 141.445 105.499 141.438C105.426 141.432 105.357 141.405 105.298 141.362C105.239 141.319 105.194 141.26 105.166 141.193C105.138 141.126 105.129 141.052 105.14 140.98L105.41 139.43C105.421 139.367 105.417 139.303 105.397 139.242C105.378 139.181 105.345 139.125 105.3 139.08L104.18 137.98C104.13 137.928 104.095 137.863 104.079 137.792C104.063 137.722 104.067 137.648 104.089 137.579C104.112 137.51 104.153 137.449 104.207 137.402C104.262 137.354 104.329 137.323 104.4 137.31L105.95 137.08C106.014 137.07 106.075 137.045 106.127 137.007C106.179 136.969 106.221 136.918 106.25 136.86L106.94 135.45C106.975 135.39 107.026 135.34 107.086 135.305C107.147 135.271 107.215 135.252 107.285 135.252C107.355 135.252 107.423 135.271 107.484 135.305C107.544 135.34 107.595 135.39 107.63 135.45Z" fill="#FEDB8F"/>
<path d="M117.38 135.45L118.07 136.86C118.099 136.918 118.141 136.969 118.193 137.007C118.245 137.045 118.306 137.07 118.37 137.08L119.92 137.31C119.991 137.322 120.058 137.354 120.113 137.402C120.167 137.449 120.208 137.51 120.231 137.579C120.253 137.648 120.257 137.721 120.241 137.792C120.225 137.863 120.19 137.928 120.14 137.98L119.02 139.08C118.975 139.125 118.942 139.181 118.923 139.242C118.903 139.302 118.899 139.367 118.91 139.43L119.18 140.98C119.191 141.052 119.182 141.126 119.154 141.193C119.126 141.26 119.081 141.319 119.022 141.362C118.963 141.405 118.894 141.432 118.821 141.438C118.749 141.445 118.676 141.432 118.61 141.4L117.22 140.67C117.163 140.64 117.1 140.625 117.035 140.625C116.971 140.625 116.907 140.64 116.85 140.67L115.46 141.4C115.395 141.432 115.321 141.445 115.249 141.438C115.176 141.432 115.107 141.405 115.048 141.362C114.99 141.319 114.944 141.26 114.916 141.193C114.888 141.126 114.879 141.052 114.89 140.98L115.16 139.43C115.171 139.367 115.167 139.302 115.148 139.242C115.128 139.181 115.095 139.125 115.05 139.08L113.9 138C113.85 137.948 113.815 137.883 113.799 137.812C113.783 137.741 113.787 137.668 113.81 137.599C113.832 137.53 113.873 137.469 113.928 137.422C113.982 137.374 114.049 137.342 114.12 137.33L115.67 137.1C115.734 137.09 115.795 137.065 115.847 137.027C115.899 136.989 115.942 136.938 115.97 136.88L116.66 135.47C116.691 135.401 116.74 135.343 116.803 135.301C116.866 135.259 116.939 135.236 117.014 135.234C117.089 135.232 117.163 135.251 117.228 135.289C117.293 135.327 117.346 135.383 117.38 135.45Z" fill="#FEDB8F"/>
<path d="M127.13 135.45L127.82 136.86C127.848 136.918 127.89 136.969 127.943 137.007C127.995 137.045 128.056 137.07 128.12 137.08L129.67 137.31C129.741 137.323 129.808 137.354 129.862 137.402C129.917 137.449 129.958 137.51 129.98 137.579C130.003 137.648 130.007 137.722 129.991 137.792C129.975 137.863 129.94 137.928 129.89 137.98L128.77 139.08C128.725 139.125 128.692 139.181 128.672 139.242C128.653 139.303 128.649 139.367 128.66 139.43L128.93 140.98C128.941 141.052 128.932 141.126 128.904 141.193C128.876 141.26 128.83 141.319 128.772 141.362C128.713 141.405 128.644 141.432 128.571 141.438C128.498 141.445 128.425 141.432 128.36 141.4L126.97 140.67C126.913 140.64 126.849 140.625 126.785 140.625C126.72 140.625 126.657 140.64 126.6 140.67L125.21 141.4C125.144 141.432 125.071 141.445 124.999 141.438C124.926 141.432 124.857 141.405 124.798 141.362C124.739 141.319 124.694 141.26 124.666 141.193C124.638 141.126 124.629 141.052 124.64 140.98L124.91 139.43C124.921 139.367 124.917 139.303 124.897 139.242C124.878 139.181 124.845 139.125 124.8 139.08L123.68 137.98C123.63 137.928 123.595 137.863 123.579 137.792C123.563 137.722 123.567 137.648 123.589 137.579C123.612 137.51 123.653 137.449 123.707 137.402C123.762 137.354 123.829 137.323 123.9 137.31L125.45 137.08C125.514 137.07 125.575 137.045 125.627 137.007C125.679 136.969 125.721 136.918 125.75 136.86L126.44 135.45C126.475 135.39 126.526 135.34 126.586 135.305C126.647 135.271 126.715 135.252 126.785 135.252C126.855 135.252 126.923 135.271 126.984 135.305C127.044 135.34 127.095 135.39 127.13 135.45Z" fill="#FEDB8F"/>
<path d="M300.022 56.2877L218.723 92.5015C217.209 93.1756 216.529 94.9491 217.203 96.4626L271.963 219.398C272.637 220.911 274.411 221.592 275.924 220.918L357.224 184.704C358.737 184.03 359.417 182.256 358.743 180.743L303.983 57.8075C303.309 56.294 301.536 55.6136 300.022 56.2877Z" fill="white"/>
<path d="M290.977 53.2035L209.678 89.4173C208.164 90.0914 207.484 91.8649 208.158 93.3784L262.918 216.314C263.592 217.827 265.366 218.508 266.879 217.833L348.178 181.62C349.692 180.946 350.372 179.172 349.698 177.659L294.938 54.7232C294.264 53.2097 292.49 52.5293 290.977 53.2035Z" stroke="#071146" stroke-width="2" stroke-linecap="round" stroke-linejoin="round"/>
<path d="M242.09 122.23L297.58 97.51" stroke="#071146" stroke-width="2" stroke-linecap="round" stroke-linejoin="round"/>
<path d="M246.26 131.59L301.75 106.87" stroke="#071146" stroke-width="2" stroke-linecap="round" stroke-linejoin="round"/>
<path d="M250.43 140.96L305.92 116.24" stroke="#071146" stroke-width="2" stroke-linecap="round" stroke-linejoin="round"/>
<path d="M254.6 150.32L310.09 125.6" stroke="#071146" stroke-width="2" stroke-linecap="round" stroke-linejoin="round"/>
<path d="M258.77 159.68L314.26 134.96" stroke="#071146" stroke-width="2" stroke-linecap="round" stroke-linejoin="round"/>
<path d="M262.94 169.05L318.44 144.33" stroke="#071146" stroke-width="2" stroke-linecap="round" stroke-linejoin="round"/>
<path d="M267.11 178.41L322.61 153.69" stroke="#071146" stroke-width="2" stroke-linecap="round" stroke-linejoin="round"/>
<path d="M271.28 187.77L326.78 163.05" stroke="#071146" stroke-width="2" stroke-linecap="round" stroke-linejoin="round"/>
<path d="M286.638 77.8363L234.799 100.928C233.79 101.377 233.336 102.559 233.785 103.568L235.751 107.98C236.2 108.989 237.383 109.443 238.392 108.994L290.231 85.9023C291.24 85.4528 291.694 84.2705 291.244 83.2615L289.279 78.8495C288.83 77.8405 287.647 77.3869 286.638 77.8363Z" fill="#B3C1F4"/>
<path d="M278.55 196.74L279.76 197.74C279.809 197.781 279.868 197.81 279.93 197.824C279.993 197.838 280.058 197.836 280.12 197.82L281.63 197.39C281.701 197.372 281.775 197.375 281.845 197.396C281.914 197.418 281.977 197.458 282.025 197.513C282.074 197.567 282.106 197.634 282.119 197.706C282.133 197.778 282.126 197.852 282.1 197.92L281.52 199.38C281.49 199.437 281.475 199.5 281.475 199.565C281.475 199.629 281.49 199.693 281.52 199.75L282.39 201.06C282.428 201.121 282.449 201.192 282.45 201.264C282.451 201.336 282.433 201.407 282.397 201.469C282.361 201.532 282.309 201.583 282.246 201.619C282.183 201.654 282.112 201.672 282.04 201.67L280.47 201.57C280.406 201.566 280.341 201.577 280.282 201.603C280.222 201.629 280.17 201.669 280.13 201.72L279.13 202.95C279.083 203.005 279.022 203.047 278.953 203.07C278.885 203.093 278.811 203.097 278.74 203.082C278.669 203.067 278.604 203.032 278.551 202.983C278.498 202.933 278.46 202.87 278.44 202.8L278.05 201.28C278.033 201.218 278.001 201.161 277.958 201.114C277.914 201.067 277.86 201.032 277.8 201.01L276.33 200.47C276.261 200.443 276.201 200.398 276.157 200.339C276.112 200.28 276.084 200.21 276.077 200.136C276.07 200.063 276.083 199.989 276.115 199.922C276.148 199.856 276.198 199.8 276.26 199.76L277.59 198.92C277.643 198.885 277.688 198.837 277.719 198.782C277.75 198.726 277.768 198.664 277.77 198.6L277.83 197.03C277.818 196.942 277.835 196.852 277.88 196.774C277.925 196.697 277.994 196.637 278.077 196.604C278.16 196.57 278.251 196.566 278.337 196.59C278.423 196.615 278.498 196.668 278.55 196.74Z" fill="#FEDB8F"/>
<path d="M287.46 192.78L288.67 193.78C288.719 193.821 288.778 193.85 288.84 193.864C288.903 193.878 288.968 193.876 289.03 193.86L290.54 193.43C290.611 193.412 290.685 193.415 290.755 193.436C290.824 193.458 290.887 193.498 290.935 193.553C290.984 193.607 291.016 193.674 291.029 193.746C291.043 193.818 291.036 193.892 291.01 193.96L290.43 195.42C290.4 195.477 290.385 195.541 290.385 195.605C290.385 195.669 290.4 195.733 290.43 195.79L291.3 197.1C291.338 197.161 291.358 197.232 291.36 197.304C291.361 197.376 291.342 197.447 291.307 197.509C291.271 197.572 291.219 197.623 291.156 197.659C291.093 197.694 291.022 197.712 290.95 197.71L289.38 197.61C289.315 197.606 289.251 197.617 289.192 197.643C289.132 197.669 289.08 197.709 289.04 197.76L288.04 198.99C287.993 199.045 287.932 199.087 287.863 199.11C287.795 199.133 287.721 199.137 287.65 199.122C287.579 199.107 287.514 199.072 287.461 199.023C287.408 198.973 287.37 198.91 287.35 198.84L286.96 197.32C286.943 197.258 286.911 197.201 286.868 197.154C286.824 197.107 286.77 197.072 286.71 197.05L285.24 196.51C285.171 196.483 285.111 196.438 285.066 196.379C285.022 196.32 284.994 196.25 284.987 196.176C284.98 196.103 284.993 196.029 285.025 195.962C285.058 195.896 285.108 195.84 285.17 195.8L286.5 194.96C286.553 194.925 286.598 194.877 286.629 194.822C286.66 194.766 286.678 194.704 286.68 194.64L286.74 193.07C286.728 192.982 286.745 192.892 286.79 192.814C286.835 192.737 286.904 192.677 286.987 192.644C287.07 192.61 287.161 192.606 287.247 192.63C287.333 192.655 287.408 192.708 287.46 192.78Z" fill="#FEDB8F"/>
<path d="M296.36 188.81L297.57 189.81C297.619 189.851 297.678 189.88 297.74 189.894C297.803 189.908 297.868 189.907 297.93 189.89L299.44 189.46C299.511 189.443 299.585 189.445 299.655 189.466C299.724 189.488 299.787 189.528 299.835 189.583C299.884 189.638 299.916 189.704 299.929 189.776C299.943 189.848 299.936 189.922 299.91 189.99L299.33 191.45C299.3 191.507 299.285 191.571 299.285 191.635C299.285 191.699 299.3 191.763 299.33 191.82L300.2 193.13C300.238 193.191 300.258 193.262 300.26 193.334C300.261 193.406 300.242 193.477 300.207 193.539C300.171 193.602 300.119 193.653 300.056 193.689C299.993 193.724 299.922 193.742 299.85 193.74L298.28 193.64C298.215 193.636 298.151 193.647 298.091 193.673C298.032 193.699 297.98 193.739 297.94 193.79L297 195C296.953 195.055 296.892 195.097 296.823 195.12C296.755 195.143 296.681 195.148 296.61 195.132C296.539 195.117 296.474 195.082 296.421 195.033C296.368 194.983 296.33 194.92 296.31 194.85L295.92 193.33C295.903 193.268 295.871 193.212 295.828 193.165C295.784 193.118 295.73 193.082 295.67 193.06L294.2 192.52C294.131 192.493 294.071 192.448 294.026 192.389C293.982 192.33 293.954 192.26 293.947 192.187C293.94 192.113 293.953 192.039 293.985 191.972C294.018 191.906 294.068 191.85 294.13 191.81L295.46 190.97C295.513 190.935 295.558 190.888 295.589 190.832C295.62 190.776 295.638 190.714 295.64 190.65L295.7 189.08C295.706 189.006 295.732 188.936 295.776 188.876C295.82 188.817 295.879 188.771 295.947 188.743C296.016 188.715 296.09 188.706 296.163 188.718C296.236 188.73 296.304 188.762 296.36 188.81Z" fill="#FEDB8F"/>
<path d="M305.27 184.84L306.48 185.84C306.529 185.881 306.588 185.91 306.65 185.924C306.713 185.938 306.778 185.937 306.84 185.92L308.35 185.49C308.421 185.473 308.495 185.475 308.565 185.496C308.634 185.518 308.697 185.558 308.745 185.613C308.794 185.668 308.826 185.734 308.839 185.806C308.853 185.878 308.846 185.952 308.82 186.02L308.24 187.48C308.21 187.537 308.195 187.601 308.195 187.665C308.195 187.729 308.21 187.793 308.24 187.85L309.11 189.16C309.148 189.221 309.168 189.292 309.17 189.364C309.171 189.436 309.152 189.507 309.117 189.569C309.081 189.632 309.029 189.683 308.966 189.719C308.903 189.754 308.832 189.772 308.76 189.77L307.19 189.67C307.125 189.666 307.061 189.677 307.002 189.703C306.942 189.729 306.89 189.769 306.85 189.82L305.85 191.05C305.803 191.105 305.742 191.147 305.673 191.17C305.605 191.193 305.531 191.198 305.46 191.182C305.389 191.167 305.324 191.132 305.271 191.083C305.218 191.033 305.18 190.97 305.16 190.9L304.77 189.38C304.753 189.318 304.721 189.262 304.678 189.215C304.634 189.168 304.58 189.132 304.52 189.11L303.05 188.57C302.981 188.543 302.921 188.498 302.876 188.439C302.832 188.38 302.804 188.31 302.797 188.236C302.79 188.163 302.803 188.089 302.835 188.022C302.868 187.956 302.918 187.9 302.98 187.86L304.31 187.02C304.363 186.985 304.408 186.938 304.439 186.882C304.47 186.826 304.488 186.764 304.49 186.7L304.55 185.13C304.538 185.042 304.555 184.952 304.6 184.874C304.645 184.797 304.714 184.737 304.797 184.704C304.88 184.67 304.971 184.666 305.057 184.69C305.143 184.715 305.218 184.768 305.27 184.84Z" fill="#FEDB8F"/>
<path d="M314.18 180.88L315.39 181.88C315.439 181.921 315.498 181.95 315.56 181.964C315.623 181.978 315.688 181.977 315.75 181.96L317.26 181.53C317.331 181.513 317.405 181.515 317.475 181.536C317.544 181.558 317.607 181.598 317.655 181.653C317.704 181.708 317.736 181.774 317.749 181.846C317.763 181.918 317.756 181.992 317.73 182.06L317.15 183.52C317.12 183.577 317.105 183.641 317.105 183.705C317.105 183.769 317.12 183.833 317.15 183.89L318.02 185.2C318.058 185.261 318.078 185.332 318.08 185.404C318.081 185.476 318.062 185.547 318.027 185.609C317.991 185.672 317.939 185.723 317.876 185.759C317.813 185.794 317.742 185.812 317.67 185.81L316.1 185.71C316.035 185.706 315.971 185.717 315.912 185.743C315.852 185.769 315.8 185.809 315.76 185.86L314.76 187.09C314.713 187.145 314.652 187.187 314.583 187.21C314.515 187.233 314.441 187.238 314.37 187.222C314.299 187.207 314.234 187.172 314.181 187.123C314.128 187.073 314.09 187.01 314.07 186.94L313.68 185.42C313.663 185.358 313.631 185.302 313.588 185.255C313.544 185.208 313.49 185.172 313.43 185.15L312 184.6C311.931 184.573 311.871 184.528 311.826 184.469C311.782 184.41 311.754 184.34 311.747 184.266C311.74 184.193 311.753 184.119 311.785 184.052C311.818 183.986 311.868 183.93 311.93 183.89L313.26 183.05C313.313 183.015 313.358 182.968 313.389 182.912C313.42 182.856 313.438 182.794 313.44 182.73L313.5 181.16C313.501 181.082 313.525 181.005 313.569 180.941C313.613 180.876 313.675 180.826 313.748 180.796C313.82 180.766 313.9 180.758 313.976 180.773C314.053 180.788 314.124 180.825 314.18 180.88Z" fill="#FEDB8F"/>
<path d="M376.562 103.085L295.263 139.298C293.749 139.973 293.069 141.746 293.743 143.259L348.503 266.195C349.177 267.708 350.951 268.389 352.464 267.715L433.764 231.501C435.277 230.827 435.957 229.053 435.283 227.54L380.523 104.604C379.849 103.091 378.076 102.41 376.562 103.085Z" fill="white"/>
<path d="M367.517 100L286.218 136.214C284.704 136.888 284.024 138.662 284.698 140.175L339.458 263.111C340.132 264.624 341.906 265.305 343.419 264.63L424.718 228.417C426.232 227.742 426.912 225.969 426.238 224.456L371.478 101.52C370.804 100.007 369.03 99.3262 367.517 100Z" stroke="#071146" stroke-width="2" stroke-linecap="round" stroke-linejoin="round"/>
<path d="M318.63 169.02L374.12 144.31" stroke="#071146" stroke-width="2" stroke-linecap="round" stroke-linejoin="round"/>
<path d="M322.8 178.39L378.29 153.67" stroke="#071146" stroke-width="2" stroke-linecap="round" stroke-linejoin="round"/>
<path d="M326.97 187.75L382.46 163.03" stroke="#071146" stroke-width="2" stroke-linecap="round" stroke-linejoin="round"/>
<path d="M331.14 197.11L386.63 172.4" stroke="#071146" stroke-width="2" stroke-linecap="round" stroke-linejoin="round"/>
<path d="M335.31 206.48L390.8 181.76" stroke="#071146" stroke-width="2" stroke-linecap="round" stroke-linejoin="round"/>
<path d="M339.48 215.84L394.97 191.12" stroke="#071146" stroke-width="2" stroke-linecap="round" stroke-linejoin="round"/>
<path d="M343.65 225.2L399.14 200.49" stroke="#071146" stroke-width="2" stroke-linecap="round" stroke-linejoin="round"/>
<path d="M347.82 234.57L403.31 209.85" stroke="#071146" stroke-width="2" stroke-linecap="round" stroke-linejoin="round"/>
<path d="M363.169 124.637L311.33 147.728C310.321 148.178 309.867 149.36 310.316 150.369L312.282 154.781C312.731 155.79 313.914 156.244 314.923 155.794L366.762 132.703C367.771 132.254 368.225 131.071 367.775 130.062L365.81 125.65C365.361 124.641 364.178 124.188 363.169 124.637Z" fill="#B3C1F4"/>
<path d="M355.09 243.54L356.3 244.54C356.349 244.581 356.408 244.61 356.47 244.624C356.533 244.638 356.598 244.636 356.66 244.62L358.17 244.19C358.241 244.172 358.315 244.175 358.385 244.196C358.455 244.218 358.517 244.258 358.565 244.313C358.614 244.367 358.646 244.434 358.659 244.506C358.673 244.578 358.666 244.652 358.64 244.72L358.06 246.18C358.03 246.237 358.015 246.301 358.015 246.365C358.015 246.429 358.03 246.493 358.06 246.55L358.93 247.86C358.968 247.921 358.989 247.992 358.99 248.064C358.991 248.136 358.973 248.207 358.937 248.269C358.901 248.332 358.849 248.383 358.786 248.419C358.723 248.454 358.652 248.472 358.58 248.47L357.01 248.37C356.946 248.366 356.881 248.377 356.822 248.403C356.762 248.429 356.71 248.469 356.67 248.52L355.67 249.75C355.623 249.805 355.562 249.847 355.493 249.87C355.425 249.893 355.351 249.897 355.28 249.882C355.209 249.867 355.144 249.832 355.091 249.783C355.038 249.733 355 249.67 354.98 249.6L354.59 248.08C354.573 248.018 354.542 247.961 354.498 247.914C354.455 247.868 354.4 247.832 354.34 247.81L352.87 247.27C352.801 247.243 352.741 247.198 352.697 247.139C352.652 247.08 352.624 247.01 352.617 246.936C352.61 246.863 352.623 246.789 352.655 246.722C352.688 246.656 352.738 246.6 352.8 246.56L354.13 245.72C354.184 245.685 354.228 245.637 354.259 245.582C354.29 245.526 354.308 245.464 354.31 245.4L354.37 243.83C354.358 243.742 354.375 243.652 354.42 243.574C354.465 243.497 354.534 243.437 354.617 243.404C354.7 243.37 354.791 243.366 354.877 243.39C354.963 243.415 355.038 243.468 355.09 243.54Z" fill="#FEDB8F"/>
<path d="M364 239.57L365.21 240.57C365.259 240.611 365.318 240.64 365.38 240.654C365.443 240.668 365.508 240.666 365.57 240.65L367.08 240.22C367.151 240.202 367.225 240.205 367.295 240.226C367.364 240.248 367.427 240.288 367.475 240.343C367.524 240.397 367.556 240.464 367.569 240.536C367.583 240.608 367.576 240.682 367.55 240.75L366.97 242.21C366.94 242.267 366.925 242.331 366.925 242.395C366.925 242.459 366.94 242.523 366.97 242.58L367.84 243.89C367.878 243.951 367.898 244.022 367.9 244.094C367.901 244.166 367.882 244.237 367.847 244.299C367.811 244.362 367.759 244.413 367.696 244.449C367.633 244.484 367.562 244.502 367.49 244.5L365.92 244.4C365.855 244.396 365.791 244.407 365.732 244.433C365.672 244.459 365.62 244.499 365.58 244.55L364.58 245.78C364.533 245.835 364.472 245.877 364.403 245.9C364.335 245.923 364.261 245.928 364.19 245.912C364.119 245.897 364.054 245.862 364.001 245.813C363.948 245.763 363.91 245.7 363.89 245.63L363.5 244.11C363.483 244.048 363.451 243.992 363.408 243.945C363.364 243.898 363.31 243.862 363.25 243.84L361.78 243.3C361.711 243.273 361.651 243.228 361.606 243.169C361.562 243.11 361.534 243.04 361.527 242.966C361.52 242.893 361.533 242.819 361.565 242.752C361.598 242.686 361.648 242.63 361.71 242.59L363.04 241.75C363.093 241.715 363.138 241.668 363.169 241.612C363.2 241.556 363.218 241.494 363.22 241.43L363.28 239.86C363.268 239.772 363.285 239.682 363.33 239.604C363.375 239.527 363.444 239.467 363.527 239.434C363.61 239.4 363.701 239.396 363.787 239.42C363.873 239.445 363.948 239.498 364 239.57Z" fill="#FEDB8F"/>
<path d="M372.9 235.61L374.11 236.61C374.159 236.651 374.218 236.68 374.28 236.694C374.343 236.708 374.408 236.707 374.47 236.69L375.98 236.26C376.051 236.243 376.125 236.245 376.195 236.266C376.264 236.288 376.327 236.328 376.375 236.383C376.424 236.438 376.456 236.504 376.469 236.576C376.482 236.648 376.476 236.722 376.45 236.79L375.87 238.25C375.84 238.307 375.825 238.371 375.825 238.435C375.825 238.499 375.84 238.563 375.87 238.62L376.74 239.93C376.778 239.991 376.798 240.062 376.8 240.134C376.801 240.206 376.782 240.277 376.747 240.339C376.711 240.402 376.659 240.453 376.596 240.489C376.533 240.524 376.462 240.542 376.39 240.54L374.82 240.44C374.755 240.436 374.691 240.447 374.631 240.473C374.572 240.499 374.52 240.539 374.48 240.59L373.48 241.82C373.433 241.875 373.372 241.917 373.303 241.94C373.235 241.963 373.161 241.968 373.09 241.952C373.019 241.937 372.954 241.902 372.901 241.853C372.848 241.803 372.81 241.74 372.79 241.67L372.4 240.15C372.383 240.088 372.351 240.032 372.308 239.985C372.264 239.938 372.21 239.902 372.15 239.88L370.68 239.34C370.611 239.313 370.551 239.268 370.506 239.209C370.462 239.15 370.434 239.08 370.427 239.006C370.42 238.933 370.433 238.859 370.465 238.792C370.498 238.726 370.548 238.67 370.61 238.63L371.94 237.79C371.993 237.755 372.038 237.708 372.069 237.652C372.1 237.596 372.118 237.534 372.12 237.47L372.18 235.9C372.168 235.812 372.185 235.722 372.23 235.644C372.275 235.567 372.344 235.507 372.427 235.474C372.509 235.44 372.601 235.436 372.687 235.46C372.773 235.485 372.848 235.538 372.9 235.61Z" fill="#FEDB8F"/>
<path d="M381.81 231.64L383.02 232.64C383.069 232.681 383.128 232.71 383.19 232.724C383.253 232.738 383.318 232.737 383.38 232.72L384.89 232.29C384.961 232.273 385.035 232.275 385.105 232.296C385.174 232.318 385.237 232.358 385.285 232.413C385.334 232.468 385.366 232.534 385.379 232.606C385.393 232.678 385.386 232.752 385.36 232.82L384.78 234.28C384.75 234.337 384.735 234.401 384.735 234.465C384.735 234.529 384.75 234.593 384.78 234.65L385.65 235.96C385.688 236.021 385.709 236.092 385.71 236.164C385.711 236.236 385.693 236.307 385.657 236.369C385.621 236.432 385.569 236.483 385.506 236.519C385.443 236.554 385.372 236.572 385.3 236.57L383.73 236.47C383.666 236.466 383.601 236.477 383.542 236.503C383.482 236.529 383.43 236.569 383.39 236.62L382.39 237.85C382.343 237.905 382.282 237.947 382.213 237.97C382.145 237.993 382.071 237.998 382 237.982C381.929 237.967 381.864 237.932 381.811 237.883C381.758 237.833 381.72 237.77 381.7 237.7L381.31 236.18C381.293 236.118 381.261 236.062 381.218 236.015C381.174 235.968 381.12 235.932 381.06 235.91L379.59 235.37C379.521 235.343 379.461 235.298 379.417 235.239C379.372 235.18 379.344 235.11 379.337 235.037C379.33 234.963 379.343 234.889 379.375 234.822C379.408 234.756 379.458 234.7 379.52 234.66L380.85 233.82C380.903 233.785 380.948 233.738 380.979 233.682C381.01 233.626 381.028 233.564 381.03 233.5L381.09 231.93C381.078 231.842 381.095 231.752 381.14 231.674C381.185 231.597 381.254 231.537 381.337 231.504C381.42 231.47 381.511 231.466 381.597 231.49C381.683 231.515 381.758 231.568 381.81 231.64Z" fill="#FEDB8F"/>
<path d="M390.71 227.67L391.92 228.67C391.969 228.711 392.028 228.74 392.09 228.754C392.153 228.768 392.218 228.767 392.28 228.75L393.79 228.32C393.861 228.303 393.935 228.305 394.005 228.326C394.074 228.348 394.137 228.388 394.185 228.443C394.234 228.498 394.266 228.564 394.279 228.636C394.293 228.708 394.286 228.782 394.26 228.85L393.68 230.31C393.65 230.367 393.635 230.431 393.635 230.495C393.635 230.559 393.65 230.623 393.68 230.68L394.55 231.99C394.588 232.051 394.608 232.122 394.61 232.194C394.611 232.266 394.592 232.337 394.557 232.399C394.521 232.462 394.469 232.513 394.406 232.549C394.343 232.584 394.272 232.602 394.2 232.6L392.63 232.5C392.565 232.496 392.501 232.507 392.442 232.533C392.382 232.559 392.33 232.599 392.29 232.65L391.29 233.88C391.243 233.935 391.182 233.977 391.113 234C391.045 234.023 390.971 234.028 390.9 234.012C390.829 233.997 390.764 233.962 390.711 233.913C390.658 233.863 390.62 233.8 390.6 233.73L390.21 232.21C390.193 232.148 390.161 232.092 390.118 232.045C390.074 231.998 390.02 231.962 389.96 231.94L388.49 231.4C388.421 231.373 388.361 231.328 388.316 231.269C388.272 231.21 388.244 231.14 388.237 231.067C388.23 230.993 388.243 230.919 388.275 230.852C388.308 230.786 388.358 230.73 388.42 230.69L389.75 229.85C389.803 229.815 389.848 229.768 389.879 229.712C389.91 229.656 389.928 229.594 389.93 229.53L389.99 227.96C389.978 227.872 389.995 227.782 390.04 227.704C390.085 227.627 390.154 227.567 390.237 227.534C390.32 227.501 390.411 227.496 390.497 227.52C390.583 227.545 390.658 227.598 390.71 227.67Z" fill="#FEDB8F"/>
<path d="M592.277 187.787L505.625 167.478C504.012 167.1 502.398 168.102 502.02 169.715L471.311 300.744C470.933 302.358 471.935 303.972 473.548 304.35L560.2 324.658C561.813 325.036 563.427 324.035 563.805 322.422L594.514 191.392C594.892 189.779 593.891 188.165 592.277 187.787Z" fill="white"/>
<path d="M586.945 179.869L500.293 159.561C498.68 159.183 497.066 160.184 496.688 161.798L465.979 292.827C465.601 294.44 466.602 296.055 468.215 296.433L554.868 316.741C556.481 317.119 558.095 316.118 558.473 314.504L589.182 183.475C589.56 181.862 588.558 180.247 586.945 179.869Z" stroke="#071146" stroke-width="2" stroke-linecap="round" stroke-linejoin="round"/>
<path d="M506.27 205.28L565.42 219.14" stroke="#071146" stroke-width="2" stroke-linecap="round" stroke-linejoin="round"/>
<path d="M503.93 215.26L563.08 229.12" stroke="#071146" stroke-width="2" stroke-linecap="round" stroke-linejoin="round"/>
<path d="M501.59 225.24L560.74 239.1" stroke="#071146" stroke-width="2" stroke-linecap="round" stroke-linejoin="round"/>
<path d="M499.25 235.22L558.4 249.08" stroke="#071146" stroke-width="2" stroke-linecap="round" stroke-linejoin="round"/>
<path d="M496.91 245.2L556.06 259.06" stroke="#071146" stroke-width="2" stroke-linecap="round" stroke-linejoin="round"/>
<path d="M494.57 255.18L553.72 269.04" stroke="#071146" stroke-width="2" stroke-linecap="round" stroke-linejoin="round"/>
<path d="M492.24 265.16L551.38 279.02" stroke="#071146" stroke-width="2" stroke-linecap="round" stroke-linejoin="round"/>
<path d="M489.9 275.14L549.04 289" stroke="#071146" stroke-width="2" stroke-linecap="round" stroke-linejoin="round"/>
<path d="M568.581 196.86L513.328 183.911C512.253 183.659 511.177 184.326 510.924 185.402L509.822 190.104C509.57 191.18 510.238 192.256 511.313 192.508L566.566 205.457C567.642 205.709 568.718 205.042 568.97 203.966L570.072 199.264C570.324 198.188 569.656 197.112 568.581 196.86Z" fill="#B3C1F4"/>
<path d="M490.26 286.68L490.62 288.21C490.635 288.273 490.664 288.331 490.706 288.379C490.748 288.428 490.8 288.466 490.86 288.49L492.32 289.06C492.388 289.088 492.448 289.134 492.491 289.194C492.535 289.253 492.561 289.323 492.567 289.397C492.574 289.47 492.559 289.544 492.526 289.61C492.493 289.676 492.443 289.731 492.38 289.77L491.04 290.58C490.986 290.613 490.941 290.658 490.908 290.712C490.875 290.766 490.855 290.827 490.85 290.89L490.76 292.46C490.753 292.532 490.726 292.6 490.683 292.658C490.64 292.716 490.582 292.761 490.516 292.789C490.449 292.817 490.376 292.826 490.305 292.815C490.233 292.805 490.166 292.776 490.11 292.73L488.92 291.73C488.871 291.689 488.812 291.66 488.75 291.646C488.687 291.632 488.622 291.634 488.56 291.65L487 292C486.929 292.016 486.854 292.013 486.785 291.99C486.716 291.967 486.654 291.925 486.606 291.87C486.559 291.814 486.528 291.746 486.516 291.674C486.504 291.602 486.513 291.528 486.54 291.46L487.15 290.01C487.18 289.953 487.195 289.89 487.195 289.825C487.195 289.761 487.18 289.697 487.15 289.64L486.31 288.32C486.271 288.257 486.25 288.185 486.25 288.111C486.249 288.037 486.269 287.965 486.308 287.901C486.346 287.838 486.401 287.787 486.467 287.753C486.533 287.719 486.606 287.704 486.68 287.71L488.24 287.84C488.304 287.846 488.368 287.836 488.427 287.811C488.486 287.787 488.539 287.749 488.58 287.7L489.58 286.49C489.63 286.438 489.693 286.4 489.763 286.381C489.833 286.361 489.907 286.361 489.977 286.381C490.047 286.4 490.11 286.439 490.16 286.491C490.21 286.544 490.244 286.609 490.26 286.68Z" fill="#FEDB8F"/>
<path d="M499.75 288.91L500.11 290.44C500.125 290.503 500.154 290.561 500.196 290.609C500.238 290.658 500.291 290.696 500.35 290.72L501.81 291.29C501.878 291.318 501.938 291.364 501.981 291.423C502.025 291.483 502.051 291.553 502.057 291.627C502.064 291.7 502.049 291.774 502.016 291.84C501.983 291.906 501.933 291.961 501.87 292L500.53 292.81C500.476 292.843 500.431 292.888 500.398 292.942C500.365 292.996 500.345 293.057 500.34 293.12L500.25 294.69C500.243 294.762 500.216 294.83 500.173 294.888C500.13 294.946 500.072 294.991 500.006 295.019C499.939 295.046 499.866 295.056 499.795 295.045C499.723 295.035 499.656 295.005 499.6 294.96L498.41 293.96C498.361 293.919 498.303 293.89 498.24 293.876C498.177 293.862 498.112 293.864 498.05 293.88L496.53 294.27C496.459 294.286 496.384 294.283 496.315 294.26C496.246 294.237 496.184 294.195 496.136 294.139C496.089 294.084 496.058 294.016 496.046 293.944C496.034 293.872 496.043 293.798 496.07 293.73L496.68 292.28C496.71 292.223 496.725 292.159 496.725 292.095C496.725 292.031 496.71 291.967 496.68 291.91L495.84 290.59C495.801 290.527 495.78 290.455 495.78 290.381C495.779 290.307 495.799 290.235 495.838 290.171C495.876 290.108 495.931 290.057 495.997 290.023C496.063 289.989 496.136 289.974 496.21 289.98L497.77 290.11C497.834 290.116 497.898 290.106 497.957 290.081C498.016 290.057 498.069 290.019 498.11 289.97L499.11 288.76C499.158 288.717 499.216 288.686 499.278 288.67C499.341 288.654 499.406 288.653 499.469 288.668C499.532 288.682 499.591 288.712 499.64 288.754C499.688 288.796 499.726 288.85 499.75 288.91Z" fill="#FEDB8F"/>
<path d="M509.25 291.13L509.61 292.66C509.625 292.722 509.654 292.78 509.696 292.829C509.738 292.878 509.791 292.916 509.85 292.94L511.31 293.51C511.378 293.538 511.437 293.584 511.481 293.643C511.525 293.703 511.551 293.773 511.557 293.847C511.564 293.92 511.549 293.994 511.516 294.06C511.483 294.126 511.433 294.181 511.37 294.22L510 295C509.946 295.033 509.901 295.078 509.868 295.132C509.835 295.186 509.815 295.247 509.81 295.31L509.72 296.88C509.713 296.952 509.686 297.02 509.643 297.078C509.6 297.136 509.542 297.181 509.476 297.209C509.409 297.236 509.336 297.246 509.265 297.235C509.193 297.225 509.126 297.195 509.07 297.15L507.88 296.15C507.831 296.109 507.772 296.08 507.71 296.066C507.647 296.052 507.582 296.053 507.52 296.07L506 296.46C505.929 296.476 505.854 296.473 505.785 296.45C505.716 296.427 505.654 296.385 505.606 296.329C505.559 296.274 505.528 296.206 505.516 296.134C505.504 296.062 505.513 295.988 505.54 295.92L506.15 294.47C506.18 294.413 506.195 294.349 506.195 294.285C506.195 294.22 506.18 294.157 506.15 294.1L505.31 292.78C505.271 292.717 505.25 292.645 505.25 292.571C505.249 292.497 505.269 292.425 505.308 292.361C505.346 292.298 505.401 292.247 505.467 292.213C505.533 292.179 505.606 292.164 505.68 292.17L507.24 292.3C507.304 292.305 507.368 292.296 507.427 292.271C507.486 292.247 507.539 292.209 507.58 292.16L508.58 290.95C508.63 290.9 508.692 290.864 508.76 290.846C508.828 290.828 508.899 290.828 508.967 290.846C509.035 290.864 509.097 290.9 509.147 290.95C509.196 291 509.232 291.062 509.25 291.13Z" fill="#FEDB8F"/>
<path d="M518.74 293.36L519.1 294.89C519.115 294.952 519.144 295.011 519.186 295.059C519.228 295.108 519.281 295.146 519.34 295.17L520.8 295.74C520.868 295.768 520.928 295.814 520.971 295.873C521.015 295.933 521.041 296.003 521.047 296.077C521.054 296.15 521.039 296.224 521.006 296.29C520.973 296.356 520.923 296.411 520.86 296.45L519.52 297.26C519.466 297.293 519.421 297.338 519.388 297.392C519.355 297.446 519.335 297.507 519.33 297.57L519.24 299.14C519.233 299.212 519.206 299.28 519.163 299.338C519.12 299.396 519.062 299.441 518.996 299.469C518.929 299.496 518.856 299.506 518.785 299.495C518.713 299.485 518.646 299.455 518.59 299.41L517.4 298.41C517.351 298.369 517.293 298.34 517.23 298.326C517.167 298.312 517.102 298.313 517.04 298.33L515.52 298.72C515.449 298.736 515.374 298.733 515.305 298.71C515.236 298.687 515.174 298.645 515.126 298.589C515.079 298.534 515.048 298.466 515.036 298.394C515.024 298.322 515.033 298.248 515.06 298.18L515.67 296.73C515.7 296.673 515.715 296.609 515.715 296.545C515.715 296.481 515.7 296.417 515.67 296.36L514.83 295.04C514.791 294.977 514.77 294.905 514.77 294.831C514.769 294.757 514.789 294.685 514.828 294.621C514.866 294.558 514.921 294.507 514.987 294.473C515.053 294.439 515.126 294.424 515.2 294.43L516.76 294.56C516.824 294.566 516.888 294.556 516.947 294.531C517.006 294.507 517.059 294.469 517.1 294.42L518.1 293.21C518.148 293.167 518.206 293.136 518.268 293.12C518.331 293.103 518.396 293.103 518.459 293.117C518.522 293.132 518.581 293.162 518.63 293.204C518.678 293.246 518.716 293.3 518.74 293.36Z" fill="#FEDB8F"/>
<path d="M528.23 295.58L528.59 297.11C528.605 297.172 528.634 297.23 528.676 297.279C528.718 297.328 528.77 297.366 528.83 297.39L530.29 297.96C530.358 297.988 530.417 298.034 530.461 298.093C530.505 298.153 530.531 298.223 530.537 298.297C530.544 298.37 530.529 298.444 530.496 298.51C530.463 298.576 530.413 298.631 530.35 298.67L529.01 299.48C528.956 299.513 528.911 299.558 528.878 299.612C528.845 299.666 528.825 299.727 528.82 299.79L528.73 301.36C528.723 301.432 528.696 301.5 528.653 301.558C528.61 301.616 528.552 301.661 528.486 301.689C528.419 301.716 528.346 301.726 528.275 301.715C528.203 301.705 528.136 301.675 528.08 301.63L526.89 300.63C526.841 300.589 526.782 300.56 526.72 300.546C526.657 300.532 526.592 300.533 526.53 300.55L525.01 300.94C524.939 300.956 524.864 300.953 524.795 300.93C524.726 300.907 524.664 300.865 524.616 300.809C524.569 300.754 524.538 300.686 524.526 300.614C524.514 300.542 524.523 300.468 524.55 300.4L525.16 298.95C525.19 298.893 525.205 298.829 525.205 298.765C525.205 298.701 525.19 298.637 525.16 298.58L524.32 297.26C524.281 297.197 524.26 297.125 524.26 297.051C524.259 296.977 524.279 296.905 524.318 296.841C524.356 296.778 524.411 296.727 524.477 296.693C524.543 296.659 524.616 296.644 524.69 296.65L526.25 296.78C526.314 296.785 526.378 296.776 526.437 296.751C526.496 296.727 526.549 296.689 526.59 296.64L527.59 295.43C527.638 295.387 527.696 295.356 527.758 295.34C527.821 295.323 527.886 295.323 527.949 295.337C528.012 295.352 528.071 295.382 528.119 295.424C528.168 295.466 528.206 295.52 528.23 295.58Z" fill="#FEDB8F"/>
<path d="M822.84 225.66H665.58C658.953 225.66 653.58 231.032 653.58 237.66V334.28C653.58 340.907 658.953 346.28 665.58 346.28H822.84C829.467 346.28 834.84 340.907 834.84 334.28V237.66C834.84 231.032 829.467 225.66 822.84 225.66Z" fill="#A1C5D1"/>
<path d="M886.03 335.98H713.89C712.294 335.98 711 337.274 711 338.87V340.21C711 341.806 712.294 343.1 713.89 343.1H886.03C887.626 343.1 888.92 341.806 888.92 340.21V338.87C888.92 337.274 887.626 335.98 886.03 335.98Z" fill="#A1C5D1"/>
<path d="M817.5 221.79H660.24C653.613 221.79 648.24 227.163 648.24 233.79V330.41C648.24 337.037 653.613 342.41 660.24 342.41H817.5C824.127 342.41 829.5 337.037 829.5 330.41V233.79C829.5 227.163 824.127 221.79 817.5 221.79Z" stroke="#071146" stroke-width="2" stroke-linecap="round" stroke-linejoin="round"/>
<path d="M815.15 342.41H886.15C886.884 342.407 887.587 342.115 888.106 341.596C888.625 341.077 888.917 340.374 888.92 339.64V338.75C888.917 338.016 888.625 337.313 888.106 336.794C887.587 336.275 886.884 335.983 886.15 335.98H828.15" stroke="#071146" stroke-width="2" stroke-linecap="round" stroke-linejoin="round"/>
<path d="M1029.97 346.62H1065.95L1073.92 291.56H1021.71L1029.97 346.62Z" fill="#B3C1F4"/>
<path d="M1072.63 304.47H1077.74C1079.33 304.47 1080.86 305.102 1081.98 306.227C1083.11 307.353 1083.74 308.879 1083.74 310.47V328.39C1083.74 329.981 1083.11 331.507 1081.98 332.633C1080.86 333.758 1079.33 334.39 1077.74 334.39H1067.74L1068.57 329.34H1075.57C1076.29 329.337 1076.99 329.049 1077.5 328.537C1078.01 328.026 1078.3 327.333 1078.3 326.61V312.25C1078.3 311.527 1078.01 310.834 1077.5 310.322C1076.99 309.811 1076.29 309.523 1075.57 309.52H1071.77L1072.63 304.47Z" fill="#B3C1F4"/>
<path d="M1024.25 346.28H1064.92L1073.92 291.21H1014.92L1024.25 346.28Z" stroke="#071146" stroke-width="2" stroke-linecap="round" stroke-linejoin="round"/>
<path d="M1071.81 304.13H1076.92C1078.51 304.13 1080.04 304.762 1081.16 305.887C1082.29 307.012 1082.92 308.539 1082.92 310.13V328C1082.92 329.591 1082.29 331.117 1081.16 332.243C1080.04 333.368 1078.51 334 1076.92 334H1066.92L1067.75 328.95H1074.75C1075.47 328.947 1076.17 328.659 1076.68 328.147C1077.19 327.636 1077.48 326.943 1077.48 326.22V311.91C1077.48 311.187 1077.19 310.494 1076.68 309.982C1076.17 309.471 1075.47 309.183 1074.75 309.18H1071L1071.81 304.13Z" stroke="#071146" stroke-width="2" stroke-linecap="round" stroke-linejoin="round"/>
<path d="M1035.71 307.88C1037.71 307.88 1039.34 306.255 1039.34 304.25C1039.34 302.245 1037.71 300.62 1035.71 300.62C1033.71 300.62 1032.08 302.245 1032.08 304.25C1032.08 306.255 1033.71 307.88 1035.71 307.88Z" stroke="#071146" stroke-width="2" stroke-linecap="round" stroke-linejoin="round"/>
<path d="M1054.96 318.38C1056.96 318.38 1058.59 316.755 1058.59 314.75C1058.59 312.745 1056.96 311.12 1054.96 311.12C1052.96 311.12 1051.33 312.745 1051.33 314.75C1051.33 316.755 1052.96 318.38 1054.96 318.38Z" stroke="#071146" stroke-width="2" stroke-linecap="round" stroke-linejoin="round"/>
<path d="M1040.79 332.63C1042.79 332.63 1044.42 331.005 1044.42 329C1044.42 326.995 1042.79 325.37 1040.79 325.37C1038.79 325.37 1037.16 326.995 1037.16 329C1037.16 331.005 1038.79 332.63 1040.79 332.63Z" stroke="#071146" stroke-width="2" stroke-linecap="round" stroke-linejoin="round"/>
<path d="M1033.94 279.95C1033.16 279.389 1032.53 278.632 1032.14 277.754C1031.74 276.876 1031.58 275.909 1031.67 274.95C1032.06 272.77 1034.09 271.35 1035.85 270.01C1038.02 268.37 1040.21 266.01 1039.85 263.36C1039.48 260.36 1036.29 258.69 1034.36 256.36C1033.37 255.134 1032.69 253.681 1032.4 252.131C1032.11 250.581 1032.21 248.983 1032.69 247.48C1032.49 248.054 1032.44 248.67 1032.56 249.268C1032.67 249.865 1032.94 250.421 1033.34 250.88C1034.15 251.786 1035.08 252.574 1036.11 253.22C1039.08 255.192 1041.4 258 1042.78 261.29C1044 264.61 1043.65 268.66 1041.26 271.29C1040.14 272.276 1039.07 273.324 1038.06 274.43C1036.16 277.06 1038.06 279.23 1037.59 281.76C1036.25 281.447 1035 280.827 1033.94 279.95Z" fill="white"/>
<path d="M1047.67 283.7C1046.89 283.139 1046.26 282.382 1045.87 281.504C1045.47 280.626 1045.31 279.659 1045.4 278.7C1045.79 276.52 1047.82 275.1 1049.58 273.76C1051.75 272.12 1053.94 269.76 1053.58 267.11C1053.21 264.11 1050.02 262.44 1048.09 260.11C1047.1 258.884 1046.42 257.431 1046.13 255.881C1045.84 254.331 1045.94 252.733 1046.42 251.23C1046.22 251.804 1046.17 252.42 1046.29 253.018C1046.4 253.615 1046.67 254.171 1047.07 254.63C1047.88 255.536 1048.81 256.324 1049.84 256.97C1052.81 258.942 1055.13 261.75 1056.51 265.04C1057.73 268.36 1057.38 272.41 1054.99 275.04C1053.87 276.026 1052.8 277.074 1051.79 278.18C1049.89 280.81 1051.79 282.98 1051.32 285.51C1049.98 285.197 1048.73 284.577 1047.67 283.7Z" fill="white"/>
<path d="M747 280.33C746.919 280.274 746.825 280.239 746.728 280.229C746.63 280.218 746.531 280.232 746.44 280.27L738.83 283.41L731.22 280.27C731.13 280.232 731.031 280.217 730.934 280.226C730.836 280.235 730.743 280.269 730.661 280.323C730.58 280.378 730.513 280.452 730.468 280.538C730.422 280.625 730.399 280.722 730.4 280.82V290.23C730.399 290.348 730.434 290.464 730.5 290.562C730.566 290.66 730.66 290.736 730.77 290.78L732.03 291.29C732.102 291.319 732.18 291.334 732.258 291.334C732.336 291.334 732.413 291.318 732.485 291.288C732.557 291.258 732.622 291.214 732.677 291.158C732.732 291.103 732.775 291.037 732.805 290.965C732.834 290.893 732.85 290.815 732.849 290.737C732.849 290.659 732.833 290.582 732.803 290.51C732.773 290.438 732.729 290.373 732.673 290.318C732.618 290.263 732.552 290.219 732.48 290.19L731.59 289.83V281.71L738.24 284.45V292.51L737.54 292.23C737.468 292.2 737.39 292.185 737.312 292.186C737.234 292.186 737.157 292.202 737.085 292.232C737.013 292.262 736.948 292.306 736.893 292.361C736.838 292.417 736.794 292.483 736.765 292.555C736.735 292.627 736.72 292.704 736.721 292.782C736.721 292.86 736.737 292.938 736.767 293.01C736.797 293.082 736.841 293.147 736.897 293.202C736.952 293.257 737.018 293.3 737.09 293.33L738.61 293.94H738.68H739H739.07L740.49 293.37C740.562 293.34 740.628 293.297 740.683 293.242C740.739 293.187 740.783 293.122 740.813 293.05C740.843 292.978 740.859 292.9 740.859 292.822C740.86 292.744 740.844 292.667 740.815 292.595C740.785 292.523 740.742 292.457 740.687 292.401C740.632 292.346 740.567 292.302 740.495 292.272C740.423 292.242 740.346 292.226 740.267 292.226C740.189 292.225 740.112 292.24 740.04 292.27L739.44 292.51V284.45L746.09 281.71V289.83L745.09 290.22C745.018 290.249 744.952 290.293 744.897 290.348C744.841 290.403 744.797 290.468 744.767 290.54C744.737 290.612 744.721 290.689 744.721 290.767C744.72 290.845 744.735 290.923 744.765 290.995C744.794 291.067 744.838 291.133 744.893 291.188C744.948 291.244 745.013 291.288 745.085 291.318C745.157 291.348 745.234 291.364 745.312 291.364C745.39 291.364 745.468 291.349 745.54 291.32L746.87 290.78C746.98 290.736 747.073 290.66 747.139 290.562C747.205 290.464 747.24 290.348 747.24 290.23V280.82C747.242 280.725 747.222 280.631 747.18 280.545C747.138 280.46 747.076 280.386 747 280.33Z" fill="white"/>
<path d="M736.09 279.38C736.163 279.394 736.237 279.394 736.31 279.38L738.87 278.38L741.37 279.38C741.516 279.44 741.679 279.439 741.825 279.378C741.97 279.317 742.085 279.201 742.145 279.055C742.205 278.909 742.204 278.746 742.143 278.6C742.082 278.455 741.966 278.34 741.82 278.28L739.1 277.18C738.956 277.122 738.794 277.122 738.65 277.18L735.87 278.3C735.733 278.344 735.617 278.437 735.544 278.561C735.471 278.685 735.445 278.831 735.472 278.972C735.499 279.113 735.577 279.24 735.691 279.328C735.805 279.416 735.946 279.459 736.09 279.45V279.38Z" fill="white"/>
<path d="M1002.92 189.2H1004.75L1004.86 205.12L1021.43 189.2H1048.58C1051.46 189.192 1054.22 188.044 1056.26 186.007C1058.29 183.971 1059.44 181.21 1059.45 178.33V147.33C1059.44 144.449 1058.29 141.689 1056.26 139.652C1054.22 137.616 1051.46 136.468 1048.58 136.46H1002.92C1000.04 136.468 997.279 137.616 995.243 139.652C993.206 141.689 992.058 144.449 992.05 147.33V178.33C992.058 181.21 993.206 183.971 995.243 186.007C997.279 188.044 1000.04 189.192 1002.92 189.2V189.2Z" stroke="#071146" stroke-width="2" stroke-linecap="round" stroke-linejoin="round"/>
<path d="M1019.38 164.69C1018.42 163.417 1017.76 161.938 1017.47 160.37C1017.33 159.585 1017.36 158.778 1017.56 158.007C1017.77 157.235 1018.13 156.516 1018.64 155.9C1019.54 155.059 1020.64 154.471 1021.84 154.193C1023.04 153.916 1024.29 153.96 1025.47 154.32C1025.99 154.505 1026.46 154.808 1026.84 155.205C1027.23 155.602 1027.51 156.083 1027.68 156.61C1028.38 155.43 1029.46 154.53 1030.75 154.066C1032.04 153.603 1033.45 153.604 1034.74 154.071C1036.02 154.537 1037.11 155.439 1037.8 156.62C1038.49 157.802 1038.75 159.188 1038.53 160.54C1038.28 161.716 1037.83 162.839 1037.19 163.86C1035.99 165.997 1034.61 168.031 1033.07 169.94C1031.42 171.94 1028.35 174.23 1026.07 171.82C1023.79 169.41 1021.24 167.32 1019.38 164.69Z" fill="white"/>
<path d="M750.19 104.51C749.796 103.64 749.53 102.717 749.4 101.77C749.321 101.472 749.321 101.158 749.4 100.86C749.513 100.632 749.691 100.442 749.912 100.314C750.132 100.186 750.385 100.125 750.64 100.14C751.149 100.178 751.643 100.336 752.08 100.6C753.7 101.386 755.142 102.494 756.32 103.855C757.497 105.217 758.386 106.804 758.93 108.52C759.19 106.72 759.38 104.917 759.5 103.11C759.704 101.039 759.623 98.9493 759.26 96.9C759.231 96.4792 759.102 96.0715 758.883 95.7113C758.663 95.351 758.361 95.0487 758 94.83C757.601 94.7287 757.18 94.7531 756.795 94.8999C756.41 95.0466 756.08 95.3086 755.85 95.65C755.397 96.3611 755.107 97.1636 755 98L754.84 98.83" stroke="#071146" stroke-width="2" stroke-linecap="round" stroke-linejoin="round"/>
</g>
<defs>
<clipPath id="clip0">
<rect width="1108.25" height="380.26" fill="white"/>
</clipPath>
</defs>
</svg>
