<svg width="67" height="65" viewBox="0 0 67 65" fill="none" xmlns="http://www.w3.org/2000/svg">
<path d="M22.3027 0C24.1384 0 25.6986 0.826271 26.9836 2.47881C28.4521 3.94773 28.8192 5.78389 28.0849 7.98728C25.8822 13.863 24.5055 18.8206 23.9548 22.8602C23.4041 26.8997 23.2205 30.4802 23.4041 33.6017C23.7712 36.7232 24.2301 39.661 24.7808 42.4153C25.3315 45.1695 25.6068 48.1991 25.6068 51.5042C25.6068 55.911 24.4137 59.3079 22.0274 61.6949C19.6411 63.8983 16.7041 65 13.2164 65C9.17808 65 5.96575 63.2556 3.57945 59.767C1.19315 56.2783 0 51.3206 0 44.8941C0 41.2218 0.734246 36.9068 2.20274 31.9492C3.67123 26.8079 5.50685 21.8503 7.70959 17.0763C10.0959 12.1186 12.574 8.07909 15.1438 4.95763C17.7137 1.65254 20.1 0 22.3027 0ZM60.8507 0C62.6863 0 64.2466 0.826271 65.5315 2.47881C67 3.94773 67.3671 5.78389 66.6329 7.98728C64.4301 13.863 63.0534 18.8206 62.5027 22.8602C61.952 26.8997 61.7685 30.4802 61.9521 33.6017C62.3192 36.7232 62.7781 39.661 63.3288 42.4153C63.8794 45.1695 64.1548 48.1991 64.1548 51.5042C64.1548 55.911 62.9616 59.3079 60.5753 61.6949C58.189 63.8983 55.2521 65 51.7644 65C47.726 65 44.5137 63.2556 42.1274 59.767C39.7411 56.2783 38.5479 51.3206 38.5479 44.8941C38.5479 41.2218 39.2822 36.9068 40.7507 31.9492C42.2192 26.8079 44.0548 21.8503 46.2575 17.0763C48.6438 12.1186 51.1219 8.07909 53.6918 4.95763C56.2616 1.65254 58.6479 0 60.8507 0Z" fill="#B6E2DF"/>
</svg>
