<svg width="22" height="20" viewBox="0 0 22 20" fill="none" xmlns="http://www.w3.org/2000/svg">
<path d="M9.57341 2.00861C10.0224 0.626645 11.9776 0.626646 12.4266 2.00861L13.4432 5.13729C13.7778 6.16734 14.7377 6.86475 15.8208 6.86475H19.1105C20.5636 6.86475 21.1677 8.72417 19.9922 9.57827L17.3307 11.5119C16.4545 12.1485 16.0879 13.2769 16.4226 14.307L17.4391 17.4357C17.8882 18.8176 16.3064 19.9668 15.1309 19.1127L12.4695 17.1791C11.5932 16.5425 10.4068 16.5425 9.53054 17.1791L6.86913 19.1127C5.69355 19.9668 4.11183 18.8176 4.56086 17.4357L5.57743 14.307C5.91212 13.2769 5.54547 12.1485 4.66925 11.5119L2.00784 9.57827C0.832272 8.72417 1.43644 6.86475 2.88952 6.86475H6.1792C7.26227 6.86475 8.22216 6.16735 8.55685 5.13729L9.57341 2.00861Z" stroke="#FBBF36"/>
</svg>
