<svg width="1004" height="289" viewBox="0 0 1004 289" fill="none" xmlns="http://www.w3.org/2000/svg">
<g clip-path="url(#clip0)">
<path d="M183 184.4C186.3 177.5 188.2 169.3 188.2 160.4C188.2 136.2 173.9 116.5 156.3 116.5C138.7 116.5 124.4 136.1 124.4 160.4C124.4 169.3 126.3 177.5 129.6 184.4C102 200.5 82.5 240.9 82.5 288.2H230C230.1 240.9 210.5 200.6 183 184.4Z" fill="white"/>
<path d="M194.9 194.9C194.9 194.9 187.8 197.3 183.4 200C177.7 203.6 172.3 209.2 172.3 209.2C170 213.9 159.7 225.8 159.7 225.8C159.7 225.8 145.4 212.3 137.5 207.8C137.5 207.8 128.1 202.8 124.5 201.7C118.7 199.8 111.8 199.3 111.8 199.3C96.4 218.2 82.7 240.9 82.7 288.1H228.7C223.3 243.9 217.8 218.2 194.9 194.9Z" fill="#FEDB8F"/>
<path d="M153.7 203.2C171.318 203.2 185.6 183.545 185.6 159.3C185.6 135.055 171.318 115.4 153.7 115.4C136.082 115.4 121.8 135.055 121.8 159.3C121.8 183.545 136.082 203.2 153.7 203.2Z" stroke="#071146" stroke-width="2" stroke-miterlimit="10"/>
<path d="M79.9 287C79.9 239.7 99.4 199.4 127 183.2" stroke="#071146" stroke-width="2" stroke-miterlimit="10" stroke-linecap="round" stroke-linejoin="round"/>
<path d="M136.6 142C132.1 144.3 129.3 148.9 125.9 152.6C118.2 161.3 106.4 166.1 94.8 165.5C87 165 79.3 162.1 73.8 156.6C68.3 151.1 65.3 143 66.6 135.3C68 127.6 74.1 120.8 81.8 119.4C88.1 118.2 94.7 120.5 100.8 118.5C106.6 116.6 110.5 111.3 114.8 106.9C126.6 94.8 145.8 88.9 161.1 96C173.7 101.8 191.5 121.2 184.4 136.5C175.5 156.1 150.5 135 136.6 142Z" fill="#FCAA90"/>
<path d="M136.6 138.4C132.1 140.7 129.3 145.3 125.9 149C118.2 157.7 106.4 162.5 94.8 161.9C87 161.4 79.3 158.5 73.8 153C68.3 147.5 65.3 139.4 66.6 131.7C68 124 74.1 117.2 81.8 115.8C88.1 114.6 94.7 116.9 100.8 114.9C106.6 113 110.5 107.7 114.8 103.3C126.6 91.2 145.8 85.3 161.1 92.4C173.7 98.2 191.5 117.6 184.4 132.9C175.5 152.6 150.5 131.4 136.6 138.4Z" stroke="#071146" stroke-width="2" stroke-miterlimit="10"/>
<path d="M143.9 187C146.4 189.6 150 191 153.6 190.8C157.2 190.6 160.7 188.8 162.8 185.9" stroke="#071146" stroke-width="2" stroke-miterlimit="10"/>
<path d="M194.9 194.9C202.2 196.5 209.4 198.1 216.7 199.7C216.9 206.9 215.8 214.1 213.5 220.9" fill="#FEDB8F"/>
<path d="M216.4 210C226.9 215.2 240.3 213 249.2 205.5C258.1 198 262.6 185.8 261.5 174.1C260.3 161 253 149.4 246.6 137.9C240.2 126.4 234.4 113.5 236.8 100.5" stroke="#071146" stroke-width="2" stroke-miterlimit="10" stroke-linecap="round" stroke-linejoin="round"/>
<path d="M283.6 84L289.5 95.9C290 96.9 290.9 97.6 292 97.7L305.2 99.6C308 100 309 103.4 307.1 105.3L297.6 114.6C296.8 115.4 296.4 116.5 296.6 117.6L298.9 130.7C299.4 133.4 296.5 135.5 294 134.2L282.2 128C281.2 127.5 280.1 127.5 279.1 128L267.3 134.2C264.8 135.5 262 133.4 262.4 130.7L264.7 117.6C264.9 116.5 264.5 115.4 263.7 114.6L254.2 105.3C252.2 103.4 253.3 100 256.1 99.6L269.3 97.7C270.4 97.5 271.3 96.9 271.8 95.9L277.7 84C278.8 81.5 282.4 81.5 283.6 84Z" fill="#FEDB8F"/>
<path d="M281.2 80L287.1 91.9C287.6 92.9 288.5 93.6 289.6 93.7L302.8 95.6C305.6 96 306.6 99.4 304.7 101.3L295.2 110.6C294.4 111.4 294 112.5 294.2 113.6L296.5 126.7C297 129.4 294.1 131.5 291.6 130.2L279.8 124C278.8 123.5 277.7 123.5 276.7 124L264.9 130.2C262.4 131.5 259.6 129.4 260 126.7L262.3 113.6C262.5 112.5 262.1 111.4 261.3 110.6L251.8 101.3C249.8 99.4 250.9 96 253.7 95.6L266.9 93.7C268 93.5 268.9 92.9 269.4 91.9L275.3 80C276.4 77.5 279.9 77.5 281.2 80Z" stroke="#071146" stroke-width="2" stroke-miterlimit="10"/>
<path d="M241.6 58C244.6 62.3 247.8 66.4 251.1 70.5" stroke="white" stroke-width="2" stroke-miterlimit="10" stroke-linecap="round" stroke-linejoin="round"/>
<path d="M261 49.6C263.1 54.2 265.2 58.8 267.3 63.5" stroke="white" stroke-width="2" stroke-miterlimit="10" stroke-linecap="round" stroke-linejoin="round"/>
<path d="M280.3 61.8C281.4 57.3 282 52.8 282.2 48.2" stroke="white" stroke-width="2" stroke-miterlimit="10" stroke-linecap="round" stroke-linejoin="round"/>
<path d="M292 65.7C296 61.5 299.8 57.1 303.4 52.4" stroke="white" stroke-width="2" stroke-miterlimit="10" stroke-linecap="round" stroke-linejoin="round"/>
<path d="M300.2 74.7C304.7 72.5 308.9 69.8 312.7 66.5" stroke="white" stroke-width="2" stroke-miterlimit="10" stroke-linecap="round" stroke-linejoin="round"/>
<path d="M109.4 225.6C115.8 224 121.7 220.8 126.6 216.4" stroke="#FEDB8F" stroke-width="2" stroke-miterlimit="10" stroke-linecap="round" stroke-linejoin="round"/>
<path d="M116.1 223.6C122.3 230.2 128.4 236.9 134.6 243.5C140 249.3 145.4 255.1 151.9 259.5C161.3 265.8 172.9 268.8 184.2 267.5C195.5 266.2 206.2 260.4 213.1 251.5" stroke="#FEDB8F" stroke-width="2" stroke-miterlimit="10" stroke-linecap="round" stroke-linejoin="round"/>
<path d="M137.4 207.9C140.6 209.3 143.2 211.7 145.8 214C149.9 217.7 153.9 221.4 158 225.1C158.5 225.5 159 225.9 159.6 225.9C160.1 225.8 160.5 225.3 160.8 224.9C164.6 219.7 168.4 214.5 172.2 209.3" stroke="#071146" stroke-width="2" stroke-miterlimit="10" stroke-linecap="round" stroke-linejoin="round"/>
<path d="M137.4 211.2C140.6 212.6 143.2 215 145.8 217.3C149.9 221 153.9 224.7 158 228.4C158.5 228.8 159 229.2 159.6 229.2C160.1 229.1 160.5 228.6 160.8 228.2C164.6 223 168.4 217.8 172.2 212.6" stroke="#FEDB8F" stroke-width="2" stroke-miterlimit="10" stroke-linecap="round" stroke-linejoin="round"/>
<path d="M69.2 124.5C75 131.1 85.4 133 93.2 128.9C97.5 126.6 100.9 122.8 105.5 121C111.9 118.4 119.8 120.2 125.3 116.1C128.5 113.7 130.1 109.8 132.7 106.8C136.3 102.5 141.8 99.9 147.4 99.8" stroke="#071146" stroke-width="2" stroke-miterlimit="10" stroke-linecap="round" stroke-linejoin="round"/>
<path d="M67.9 143.7C72 147.8 78.7 148.9 83.9 146.5C89.5 143.8 93 137.7 98.8 135.6C104.6 133.6 111.1 136.1 117 134.4C123.6 132.5 127.5 125.8 133 121.7C140.5 116.1 151.5 115.7 159.4 120.7C162.1 122.4 164.4 124.6 167.1 126.3C169.8 128 173 129.2 176.1 128.4" stroke="#071146" stroke-width="2" stroke-miterlimit="10" stroke-linecap="round" stroke-linejoin="round"/>
<path d="M516.7 57H518.5L518.6 72.9L535.2 57H562.4C568.4 57 573.3 52.1 573.3 46.1V15.1C573.3 9.10001 568.4 4.20001 562.4 4.20001H516.7C510.7 4.20001 505.8 9.10001 505.8 15.1V46.1C505.8 52.1 510.7 57 516.7 57Z" fill="#FCAA90"/>
<path d="M511.8 53.8H513.6L513.7 69.7L530.3 53.8H557.5C563.5 53.8 568.4 48.9 568.4 42.9V11.9C568.4 5.9 563.5 1 557.5 1H511.8C505.8 1 500.9 5.9 500.9 11.9V42.9C500.9 48.9 505.8 53.8 511.8 53.8Z" stroke="#071146" stroke-width="2" stroke-miterlimit="10" stroke-linecap="round" stroke-linejoin="round"/>
<path d="M796.4 122.3H792.4L792.2 156.8L756.3 122.3H676.4C663.4 122.3 652.8 111.7 652.8 98.7V31.4C652.8 18.4 663.4 7.79999 676.4 7.79999H796.4C809.4 7.79999 820 18.4 820 31.4V98.7C820 111.6 809.4 122.3 796.4 122.3Z" fill="white"/>
<path d="M528.3 29.3C527.4 28 526.6 26.5 526.4 25C526.2 23.4 526.5 21.7 527.6 20.5C528.5 19.5 529.8 18.9 531.2 18.7C532.3 18.5 533.4 18.5 534.5 18.9C535.5 19.3 536.4 20.1 536.7 21.2C538.1 18.9 541.2 17.7 543.8 18.7C546.4 19.7 548 22.5 547.6 25.2C547.4 26.4 546.8 27.5 546.3 28.5C545.1 30.6 543.7 32.7 542.2 34.6C540.6 36.6 537.5 38.9 535.2 36.5C532.7 34.1 530.1 31.9 528.3 29.3Z" fill="white"/>
<path d="M194.9 194.8C202.2 196.4 209.4 198 216.7 199.6C216.9 206.8 215.8 214 213.5 220.8" stroke="#071146" stroke-width="2" stroke-miterlimit="10"/>
<path d="M180.4 183.3C207.9 199.4 227.5 239.8 227.5 287.1" stroke="#071146" stroke-width="2" stroke-miterlimit="10" stroke-linecap="round" stroke-linejoin="round"/>
<path d="M108.9 223.6C115.3 222 121.2 218.8 126.1 214.4" stroke="#071146" stroke-width="2" stroke-miterlimit="10" stroke-linecap="round" stroke-linejoin="round"/>
<path d="M116.1 221C122.2 227.6 128.3 234.3 134.4 240.9C139.7 246.7 145.1 252.5 151.6 256.9C160.9 263.2 172.5 266.2 183.6 264.9C194.7 263.6 205.4 257.8 212.2 248.9C215.4 244.7 217.8 239.9 221.2 235.8C226.5 229.4 234.2 225.1 242.5 223.9" stroke="#071146" stroke-width="2" stroke-miterlimit="10" stroke-linecap="round" stroke-linejoin="round"/>
<path d="M665.9 40C706.8 39 747.7 36.1 788.6 38.2C790.9 38.3 793.3 38.5 795.5 39.1" stroke="#071146" stroke-width="2" stroke-miterlimit="10" stroke-linecap="round" stroke-linejoin="round"/>
<path d="M665.9 57.1C696.1 55.6 726.3 54.5 756.5 53.7C770.3 53.3 784.2 53.1 797.8 55.2C796.4 55.1 795 54.9 793.5 54.8" stroke="#071146" stroke-width="2" stroke-miterlimit="10" stroke-linecap="round" stroke-linejoin="round"/>
<path d="M668.4 71.7C712.6 72.1 756.8 71.2 800.9 69.2" stroke="#071146" stroke-width="2" stroke-miterlimit="10" stroke-linecap="round" stroke-linejoin="round"/>
<path d="M668.2 88.3C696.6 86.6 725.1 86.8 753.5 88.9" stroke="#071146" stroke-width="2" stroke-miterlimit="10" stroke-linecap="round" stroke-linejoin="round"/>
<path d="M790.9 115.4H786.9L786.7 149.9L750.8 115.4H670.9C657.9 115.4 647.3 104.8 647.3 91.8V24.6C647.3 11.6 657.9 1 670.9 1H790.9C803.9 1 814.5 11.6 814.5 24.6V91.9C814.4 104.8 803.8 115.4 790.9 115.4Z" stroke="#071146" stroke-width="2" stroke-miterlimit="10" stroke-linecap="round" stroke-linejoin="round"/>
<path d="M940.5 256.9C939.1 241.8 937.4 226.6 933.1 212C928.8 197.4 921.8 183.4 911.1 172.7L910.1 172.6C916 166.6 920.9 158.3 923.6 148.6C930.2 125.1 921.8 102.2 904.8 97.4C887.8 92.6 868.8 107.7 862.2 131.2C858.1 145.8 859.8 160.1 865.7 170L863.5 169.9C846.5 183.6 833.7 202.5 827.2 223.4C820.7 244.3 820.5 267.1 826.6 288.1L942.2 288.2C941.7 277.3 941.5 267.9 940.5 256.9Z" fill="white"/>
<path d="M783.9 242.5L777 239.6L802.8 176.8L809.9 169.5L809.7 179.7L783.9 242.5Z" stroke="#071146" stroke-width="2" stroke-miterlimit="10" stroke-linecap="round" stroke-linejoin="round"/>
<path d="M792.4 198.6C790.7 199 789.2 200.4 788.6 202.1C788 203.8 788.4 205.8 789.5 207.1C789.9 207.7 790.5 208.1 791 208.6C792.7 210.1 794.2 212 795.3 213.9" stroke="#071146" stroke-width="2" stroke-miterlimit="10" stroke-linecap="round" stroke-linejoin="round"/>
<path d="M920.468 148.389C927.051 125.056 918.642 102.262 901.687 97.4792C884.731 92.696 865.65 107.734 859.067 131.068C852.485 154.401 860.894 177.195 877.849 181.978C894.804 186.761 913.886 171.723 920.468 148.389Z" stroke="#071146" stroke-width="2" stroke-miterlimit="10"/>
<path d="M797 92.1C811 94.8 820.4 108.7 823.5 122.6C826.6 136.5 825 151 825.7 165.2C826.2 175.7 828.7 187.3 837.4 193.2C837.2 192.5 837.1 191.9 836.9 191.2" stroke="#071146" stroke-width="2" stroke-miterlimit="10" stroke-linecap="round" stroke-linejoin="round"/>
<path d="M823.5 287C817.3 266.1 817.5 243.4 824.1 222.6C830.7 201.8 843.4 183.1 860.4 169.4" stroke="#071146" stroke-width="2" stroke-miterlimit="10" stroke-linecap="round" stroke-linejoin="round"/>
<path d="M864.1 163C867.3 164.8 871.6 164.3 874.2 161.8" stroke="#071146" stroke-width="2" stroke-miterlimit="10" stroke-linecap="round" stroke-linejoin="round"/>
<path d="M942.6 288.2C942 277.3 941.4 266.8 940.4 255.9C939 240.9 937.3 225.8 933 211.3C930.7 203.7 927.7 196.2 923.8 189.2L920.5 185.6C907.7 185 894.8 191.3 887.2 201.6C881 210.1 878.4 220.8 876.7 231.2C873.4 250.2 872.4 270.7 881.1 287.9L942.6 288.2Z" fill="#B1DEF5"/>
<path d="M862.4 98.2C862.1 102.7 862.8 107.6 865.7 111C869.6 115.6 876.5 116.3 882.5 115.2C885.3 114.7 888.2 113.9 890.9 114.5C894.7 115.4 897.4 119.1 898.7 122.8C900.1 126.5 900.6 130.5 902.2 134.1C905.6 142 914 147.5 922.6 147.3C923.6 147.3 924.7 147.2 925.6 146.6C926.8 145.8 927.2 144.3 927.5 142.9C928.3 139.1 929.1 135.3 929.7 131.4C930.8 124.9 931.5 118.3 930.4 111.8C929.2 105.3 925.9 99 920.4 95.5C914.8 92 906.9 92 902.2 96.5C900.9 88.2 892.3 81.8 884 82.9C880.2 83.4 876.7 85.3 872.9 86.3C870 87 866.1 85.7 864.1 87.9C862.3 89.7 862.6 95.9 862.4 98.2Z" fill="#FEDB8F"/>
<path d="M863 94.8C862.7 99.3 863.4 104.2 866.3 107.6C870.2 112.2 877.1 112.9 883.1 111.8C885.9 111.3 888.8 110.5 891.5 111.1C895.3 112 898 115.7 899.3 119.4C900.7 123.1 901.2 127.1 902.8 130.7C906.2 138.6 914.6 144.1 923.2 143.9C924.2 143.9 925.3 143.8 926.2 143.2C927.4 142.4 927.8 140.9 928.1 139.5C928.9 135.7 929.7 131.9 930.3 128C931.4 121.5 932.1 114.9 931 108.4C929.8 101.9 926.5 95.6 921 92.1C915.4 88.6 907.5 88.6 902.8 93.1C901.5 84.8 892.9 78.4 884.6 79.5C880.8 80 877.3 81.9 873.5 82.9C870.6 83.6 866.7 82.3 864.7 84.5C862.9 86.3 863.1 92.5 863 94.8Z" stroke="#071146" stroke-width="2" stroke-miterlimit="10" stroke-linecap="round" stroke-linejoin="round"/>
<path d="M907.9 172.2C918.6 182.7 925.6 196.5 929.9 210.7C934.2 224.9 935.9 239.9 937.3 254.7C938.3 265.5 939.1 276.2 939.7 287" stroke="#071146" stroke-width="2" stroke-miterlimit="10" stroke-linecap="round" stroke-linejoin="round"/>
<path d="M796 214.4C813.9 238.9 845 253.3 875.3 251.1C878.4 250.9 881.5 250.5 884.4 249.3C887.1 248.2 889.6 246.5 891.7 244.5C902.5 234.5 906.1 217.4 900.1 203.9" stroke="#071146" stroke-width="2" stroke-miterlimit="10" stroke-linecap="round" stroke-linejoin="round"/>
<path d="M889.4 205.9C895.6 204.4 901.7 202.9 907.9 201.4" stroke="#071146" stroke-width="2" stroke-miterlimit="10" stroke-linecap="round" stroke-linejoin="round"/>
<path d="M417.4 211.4C417.9 208.7 419.8 206.5 421.6 204.5C423.3 202.7 425.2 200.8 427.5 200C431.4 198.7 435.7 200.6 439 203.1C442.3 205.6 445.1 208.8 448.9 210.7C451 211.8 453.4 212.4 455.8 212.8C461.2 213.8 466.8 213.9 472.1 212.4C477.4 210.9 482.3 207.6 485 202.8C486.6 200.1 487.4 197 488.5 194C489.6 191 491.2 188.1 493.8 186.3C496.4 184.5 500.3 184.3 502.5 186.5C502.5 186.5 524.5 201.8 535.9 223.7C547.8 246.5 554 288.1 554 288.1H407.6C407.6 288.1 402.6 271.3 405.5 244C407.6 224.7 417.4 211.4 417.4 211.4Z" fill="white"/>
<path d="M485.6 178.8C487.5 171.4 488.4 162.8 486.7 154.1C482.1 130.3 466.9 114.3 449.6 117.6C432.3 120.9 422 142.9 426.6 166.7C428.3 175.4 430.9 185.5 435.4 191.6L436 192.3C454.9 214 480.2 202.4 485.6 178.8Z" fill="white"/>
<path d="M463.203 203.418C480.506 200.096 490.825 178.099 486.253 154.288C481.68 130.477 463.947 113.867 446.644 117.19C429.342 120.513 419.022 142.509 423.595 166.321C428.167 190.132 445.901 206.741 463.203 203.418Z" stroke="#071146" stroke-width="2" stroke-miterlimit="10"/>
<path d="M404.5 285.8C400.1 244.8 411.6 207.8 433.2 188.8" stroke="#071146" stroke-width="2" stroke-miterlimit="10" stroke-linecap="round" stroke-linejoin="round"/>
<path d="M434.2 145.5C433.7 146.4 433.6 147.4 433.5 148.4C432.7 158.4 432.8 168.5 433.9 178.5C428.2 179.8 422.2 180 416.4 179.2C415.8 179.1 415.3 179 414.8 178.7C414.2 178.3 413.8 177.7 413.5 177.1C404.7 161.9 406.2 142.1 414.3 126.5C419.1 117.3 426.1 109.1 435.2 104.2C444.3 99.3 455.6 98 465.2 102.1C476.5 106.9 483.8 118.1 488.3 129.5C492.8 140.9 495.2 153.2 500.4 164.3C493.5 165.4 486.6 166.5 479.6 167.6C478.1 158.3 476.3 149.1 474.2 139.9C471.1 139.2 453.3 141.3 451 141.3C450.6 141.2 435.8 142.5 434.2 145.5Z" fill="#95E196"/>
<path d="M432.2 142.3C431.7 143.2 431.6 144.2 431.5 145.2C430.7 155.2 430.8 165.3 431.9 175.3C426.2 176.6 420.2 176.8 414.4 176C413.8 175.9 413.3 175.8 412.8 175.5C412.2 175.1 411.8 174.5 411.5 173.9C402.7 158.7 404.2 138.9 412.3 123.3C417.1 114.1 424.1 105.9 433.2 101C442.3 96.1 453.6 94.8 463.2 98.9C474.5 103.7 481.8 114.9 486.3 126.3C490.8 137.7 493.2 150 498.4 161.1C491.5 162.2 484.6 163.3 477.6 164.4C476.1 155.1 474.3 145.9 472.2 136.7C469.1 136 451.3 138.1 449 138.1C448.6 138.1 433.8 139.4 432.2 142.3Z" stroke="#071146" stroke-width="2" stroke-miterlimit="10"/>
<path d="M459 185.4C459.8 184.7 460.6 184 461.5 183.3C461.8 183.1 462.1 182.9 462.4 182.9C463.2 182.8 463.8 183.9 463.6 184.7C463.4 185.5 462.7 186.1 462.1 186.6C462.9 186.4 463.8 186.2 464.6 186.5C465.4 186.8 465.9 187.9 465.4 188.5C465.1 188.9 464.6 189 464 189.1C462.7 189.3 461.4 189.2 460.1 189" stroke="#071146" stroke-width="2" stroke-miterlimit="10" stroke-linecap="round" stroke-linejoin="round"/>
<path d="M421.4 216.1C425 216.3 428.6 214.8 430.9 212C433.2 209.2 434.1 205.4 433.2 201.9" stroke="#071146" stroke-width="2" stroke-miterlimit="10" stroke-linecap="round" stroke-linejoin="round"/>
<path d="M486.7 187.9C486.5 192.2 489.1 196.5 493 198.3C496.9 200.1 501.9 199.2 505 196.2" stroke="#071146" stroke-width="2" stroke-miterlimit="10" stroke-linecap="round" stroke-linejoin="round"/>
<path d="M442.2 207.5C449.1 211 456.5 214.5 464.2 213.9C472.4 213.3 480.1 207.7 483.1 200" stroke="#071146" stroke-width="2" stroke-miterlimit="10" stroke-linecap="round" stroke-linejoin="round"/>
<path d="M534 263.8C537.8 261.2 541.5 258.5 545.8 256.8C546.3 256.6 546.9 256.4 547.5 256.5C548.5 256.7 549.1 257.9 549.4 258.9C551.1 264.1 551.5 269.5 551.9 275C552.2 278.9 556 288.2 552.1 288.2C548.6 288.2 497.9 288.4 494 288.1C491 287.9 498.2 282.8 504.7 279.9C511.3 277 517.7 273.8 523.9 270.2C527.3 268.2 530.7 266.1 534 263.8Z" fill="#FCAA90"/>
<path d="M857 179.3C860 183.5 863.7 187.1 867.9 190C871.6 192.6 875.8 194.6 879.9 196.4C881.9 197.3 883.8 198.1 886 198.4" stroke="#B1DEF5" stroke-width="2" stroke-miterlimit="10" stroke-linecap="round" stroke-linejoin="round"/>
<path d="M850.4 189.1C854.1 193.8 859.1 197.4 864.4 200.2C869.7 203 875.3 205.1 881 207.1" stroke="#B1DEF5" stroke-width="2" stroke-miterlimit="10" stroke-linecap="round" stroke-linejoin="round"/>
<path d="M842.8 199.4C851.5 209 863.7 215.3 876.5 216.8" stroke="#B1DEF5" stroke-width="2" stroke-miterlimit="10" stroke-linecap="round" stroke-linejoin="round"/>
<path d="M836.2 211.3C847.4 219.2 860.9 223.8 874.5 224.5" stroke="#B1DEF5" stroke-width="2" stroke-miterlimit="10" stroke-linecap="round" stroke-linejoin="round"/>
<path d="M829.4 226.8C835.3 231.5 858.6 239.9 872 237.9" stroke="#B1DEF5" stroke-width="2" stroke-miterlimit="10" stroke-linecap="round" stroke-linejoin="round"/>
<path d="M824.6 254.8C838.8 261.2 854.8 263.7 870.3 262" stroke="#B1DEF5" stroke-width="2" stroke-miterlimit="10" stroke-linecap="round" stroke-linejoin="round"/>
<path d="M827 270.2C841.9 272.7 857.1 273.5 872.2 272.7" stroke="#B1DEF5" stroke-width="2" stroke-miterlimit="10" stroke-linecap="round" stroke-linejoin="round"/>
<path d="M917.4 185.6C904.6 185.1 891.7 191.2 884.1 201.5C877.9 210 875.3 220.5 873.6 230.8C870.3 249.7 869.3 270 878 287.1" stroke="#071146" stroke-width="2" stroke-miterlimit="10" stroke-linecap="round" stroke-linejoin="round"/>
<path d="M722.9 263.8C730.024 263.8 735.8 258.024 735.8 250.9C735.8 243.776 730.024 238 722.9 238C715.776 238 710 243.776 710 250.9C710 258.024 715.776 263.8 722.9 263.8Z" fill="#FEDB8F"/>
<path d="M726.058 246.283C726.064 244.516 724.636 243.078 722.868 243.073C721.101 243.067 719.664 244.495 719.658 246.262C719.652 248.03 721.08 249.467 722.848 249.473C724.615 249.478 726.052 248.05 726.058 246.283Z" stroke="#071146" stroke-width="2" stroke-miterlimit="10" stroke-linecap="round" stroke-linejoin="round"/>
<path d="M722.8 258.2C725.5 258.2 727.7 256 727.7 253.3V252.5C727.7 252 727.3 251.6 726.8 251.6H718.8C718.3 251.6 717.9 252 717.9 252.5V253.3C717.9 256 720.1 258.2 722.8 258.2Z" stroke="#071146" stroke-width="2" stroke-miterlimit="10" stroke-linecap="round" stroke-linejoin="round"/>
<path d="M340.2 255.5L311.2 266.4C309 267.2 306.6 266.1 305.8 264L297.9 243C297.1 240.8 298.2 238.4 300.3 237.6L329.3 226.7C331.5 225.9 333.9 227 334.7 229.1L342.6 250.1C343.4 252.2 342.3 254.7 340.2 255.5Z" fill="white"/>
<path d="M294.5 245.8L315.4 249C317.8 249.4 320.3 248.5 321.8 246.6L335.4 230.4" stroke="#071146" stroke-width="2" stroke-miterlimit="10" stroke-linecap="round" stroke-linejoin="round"/>
<path d="M341.8 247L324.1 244.3" stroke="#071146" stroke-width="2" stroke-miterlimit="10" stroke-linecap="round" stroke-linejoin="round"/>
<path d="M312.3 248.8L300.8 262.4" stroke="#071146" stroke-width="2" stroke-miterlimit="10" stroke-linecap="round" stroke-linejoin="round"/>
<path d="M340 255.5L307.7 267.7C305.3 268.6 302.6 267.4 301.7 265L293 241.9C292.1 239.5 293.3 236.8 295.7 235.9L328 223.7C330.4 222.8 333.1 224 334 226.4L342.7 249.5C343.6 252 342.4 254.6 340 255.5Z" stroke="#071146" stroke-width="2" stroke-miterlimit="10" stroke-linecap="round" stroke-linejoin="round"/>
<path d="M633.7 271.1C636.13 271.1 638.1 269.13 638.1 266.7C638.1 264.27 636.13 262.3 633.7 262.3C631.27 262.3 629.3 264.27 629.3 266.7C629.3 269.13 631.27 271.1 633.7 271.1Z" stroke="white" stroke-width="2" stroke-miterlimit="10" stroke-linecap="round" stroke-linejoin="round"/>
<path d="M668.289 237.805C674.391 231.491 674.219 221.425 667.904 215.323C661.589 209.221 651.524 209.393 645.421 215.708C639.319 222.022 639.492 232.088 645.806 238.19C652.121 244.292 662.187 244.12 668.289 237.805Z" fill="#95E196" stroke="#071146" stroke-width="2" stroke-miterlimit="10" stroke-linecap="round" stroke-linejoin="round"/>
<path d="M656.7 233.3C656.4 233.3 656.1 233.1 655.9 232.9L649.5 226.2C649 225.7 649 224.9 649.5 224.4C650 223.9 650.8 223.9 651.3 224.4L656.7 230.1L664.2 220.8C664.6 220.3 665.4 220.2 665.9 220.6C666.4 221 666.5 221.8 666.1 222.3L657.7 232.7C657.5 233 657.1 233.1 656.8 233.2C656.8 233.3 656.7 233.3 656.7 233.3Z" fill="white"/>
<path d="M731.8 190.1C729.6 190.1 727.6 189.7 725.7 189C723.8 188.3 722.3 187.2 720.9 185.9C719.6 184.6 718.5 183 717.8 181.1C717.1 179.3 716.7 177.2 716.7 175C716.7 172.8 717.1 170.8 717.8 168.9C718.5 167.1 719.6 165.5 720.9 164.1C722.2 162.8 723.8 161.7 725.7 161C727.6 160.3 729.6 159.9 731.8 159.9C734 159.9 736 160.3 737.9 161C739.8 161.7 741.3 162.8 742.7 164.1C744 165.4 745.1 167 745.8 168.9C746.5 170.7 746.9 172.8 746.9 175C746.9 176.8 746.7 178.4 746.2 179.7C745.7 181.1 745.1 182.2 744.2 182.9C743.4 183.7 742.4 184.1 741.3 184.1C740.3 184.1 739.6 183.8 739 183.2C738.4 182.6 738.1 181.8 738.1 180.9V180C737.7 180.6 737.2 181.1 736.5 181.6C735.8 182.1 735.1 182.4 734.3 182.7C733.5 183 732.7 183.1 731.9 183.1C730.4 183.1 729 182.8 727.8 182.1C726.6 181.4 725.6 180.5 725 179.3C724.3 178.1 724 176.7 724 175.2C724 173.6 724.3 172.3 725 171C725.7 169.8 726.6 168.8 727.8 168.2C729 167.5 730.4 167.2 731.9 167.2C733.5 167.2 734.8 167.5 736 168.2C737.2 168.9 738.1 169.8 738.8 171C739.5 172.2 739.8 173.6 739.8 175.2V180.5C739.8 181.3 739.9 181.8 740.2 182.1C740.5 182.4 740.8 182.6 741.3 182.6C742.1 182.6 742.7 182.3 743.3 181.7C743.9 181.1 744.3 180.2 744.6 179.1C744.9 178 745.1 176.7 745.1 175.3C745.1 173.4 744.8 171.6 744.1 170C743.4 168.4 742.5 167 741.3 165.8C740.1 164.6 738.7 163.7 737.1 163C735.5 162.3 733.7 162 731.8 162C729.9 162 728.1 162.3 726.5 163C724.9 163.7 723.5 164.6 722.3 165.8C721.1 167 720.2 168.4 719.6 170C719 171.6 718.6 173.4 718.6 175.3C718.6 177.2 718.9 179 719.6 180.6C720.2 182.2 721.2 183.6 722.3 184.8C723.5 186 724.9 186.9 726.5 187.5C728.1 188.1 729.9 188.5 731.8 188.5C732.7 188.5 733.7 188.4 734.7 188.2C735.7 188 736.6 187.7 737.2 187.4C737.6 187.2 737.9 187.2 738.2 187.3C738.5 187.4 738.6 187.7 738.6 188.1C738.6 188.4 738.3 188.8 737.7 189.1C737.1 189.5 736.3 189.8 735.3 190C734.4 189.9 733.2 190.1 731.8 190.1ZM731.8 181.2C733 181.2 734.1 180.9 735 180.4C735.9 179.9 736.7 179.1 737.2 178.2C737.7 177.3 738 176.2 738 175C738 173.8 737.7 172.7 737.2 171.8C736.7 170.9 735.9 170.1 735 169.6C734.1 169.1 733 168.8 731.8 168.8C730.6 168.8 729.5 169.1 728.6 169.6C727.7 170.1 726.9 170.9 726.4 171.8C725.9 172.7 725.6 173.8 725.6 175C725.6 176.2 725.9 177.3 726.4 178.2C726.9 179.1 727.7 179.9 728.6 180.4C729.6 181 730.6 181.2 731.8 181.2Z" fill="#FCAA90"/>
<path d="M585.9 132.3C583.7 132.3 581.7 131.9 579.8 131.2C578 130.5 576.4 129.4 575 128.1C573.7 126.8 572.6 125.2 571.9 123.3C571.2 121.5 570.8 119.4 570.8 117.2C570.8 115 571.2 113 571.9 111.1C572.6 109.3 573.7 107.7 575 106.3C576.3 105 577.9 103.9 579.8 103.2C581.6 102.5 583.7 102.1 585.9 102.1C588.1 102.1 590.1 102.5 592 103.2C593.8 103.9 595.4 105 596.8 106.3C598.1 107.6 599.2 109.2 599.9 111.1C600.6 112.9 601 115 601 117.2C601 119 600.8 120.6 600.3 121.9C599.8 123.3 599.2 124.4 598.3 125.1C597.5 125.9 596.5 126.3 595.4 126.3C594.4 126.3 593.7 126 593.1 125.4C592.5 124.8 592.2 124 592.2 123.1V122.2C591.8 122.8 591.3 123.3 590.6 123.8C589.9 124.3 589.2 124.6 588.4 124.9C587.6 125.2 586.8 125.3 586 125.3C584.5 125.3 583.1 125 581.9 124.3C580.7 123.6 579.7 122.7 579.1 121.5C578.4 120.3 578.1 118.9 578.1 117.4C578.1 115.8 578.4 114.5 579.1 113.2C579.8 112 580.7 111 581.9 110.4C583.1 109.7 584.5 109.4 586 109.4C587.6 109.4 588.9 109.7 590.1 110.4C591.3 111.1 592.2 112 592.9 113.2C593.6 114.4 593.9 115.8 593.9 117.4V122.7C593.9 123.5 594 124 594.3 124.3C594.6 124.6 594.9 124.8 595.4 124.8C596.2 124.8 596.8 124.5 597.4 123.9C598 123.3 598.4 122.4 598.7 121.3C599 120.2 599.2 118.9 599.2 117.5C599.2 115.6 598.9 113.8 598.2 112.2C597.5 110.6 596.6 109.2 595.4 108C594.2 106.8 592.8 105.9 591.2 105.2C589.6 104.5 587.8 104.2 585.9 104.2C584 104.2 582.2 104.5 580.6 105.2C579 105.9 577.6 106.8 576.4 108C575.2 109.2 574.3 110.6 573.7 112.2C573.1 113.8 572.7 115.6 572.7 117.5C572.7 119.4 573 121.2 573.7 122.8C574.3 124.4 575.3 125.8 576.4 127C577.6 128.2 579 129.1 580.6 129.7C582.2 130.3 584 130.7 585.9 130.7C586.8 130.7 587.8 130.6 588.8 130.4C589.8 130.2 590.7 129.9 591.3 129.6C591.7 129.4 592 129.4 592.3 129.5C592.6 129.6 592.7 129.9 592.7 130.3C592.7 130.6 592.4 131 591.8 131.3C591.2 131.7 590.4 132 589.4 132.2C588.5 132.1 587.3 132.3 585.9 132.3ZM585.9 123.4C587.1 123.4 588.2 123.1 589.1 122.6C590 122.1 590.8 121.3 591.3 120.4C591.8 119.5 592.1 118.4 592.1 117.2C592.1 116 591.8 114.9 591.3 114C590.8 113.1 590 112.3 589.1 111.8C588.2 111.3 587.1 111 585.9 111C584.7 111 583.6 111.3 582.7 111.8C581.8 112.3 581 113.1 580.5 114C580 114.9 579.7 116 579.7 117.2C579.7 118.4 580 119.5 580.5 120.4C581 121.3 581.8 122.1 582.7 122.6C583.7 123.2 584.7 123.4 585.9 123.4Z" fill="#FCAA90"/>
<path d="M603.458 195.95C605.465 194.58 605.981 191.842 604.611 189.835C603.24 187.829 600.503 187.313 598.496 188.683C596.489 190.053 595.973 192.791 597.344 194.798C598.714 196.804 601.452 197.32 603.458 195.95Z" stroke="white" stroke-width="2" stroke-miterlimit="10" stroke-linecap="round" stroke-linejoin="round"/>
<path d="M670.444 186.424C672.451 185.054 672.967 182.316 671.597 180.309C670.226 178.303 667.489 177.787 665.482 179.157C663.475 180.527 662.959 183.265 664.329 185.272C665.7 187.279 668.437 187.794 670.444 186.424Z" stroke="white" stroke-width="2" stroke-miterlimit="10" stroke-linecap="round" stroke-linejoin="round"/>
<path d="M372.87 119.047C374.877 117.677 375.393 114.939 374.023 112.932C372.652 110.925 369.915 110.41 367.908 111.78C365.901 113.15 365.385 115.888 366.756 117.895C368.126 119.901 370.864 120.417 372.87 119.047Z" stroke="white" stroke-width="2" stroke-miterlimit="10" stroke-linecap="round" stroke-linejoin="round"/>
<path d="M313.477 173.599C315.484 172.228 316 169.491 314.63 167.484C313.259 165.477 310.522 164.961 308.515 166.332C306.508 167.702 305.992 170.44 307.363 172.446C308.733 174.453 311.47 174.969 313.477 173.599Z" stroke="white" stroke-width="2" stroke-miterlimit="10" stroke-linecap="round" stroke-linejoin="round"/>
<path d="M368.458 210.624C370.464 209.254 370.98 206.516 369.61 204.509C368.24 202.503 365.502 201.987 363.495 203.357C361.489 204.727 360.973 207.465 362.343 209.472C363.713 211.479 366.451 211.994 368.458 210.624Z" stroke="white" stroke-width="2" stroke-miterlimit="10" stroke-linecap="round" stroke-linejoin="round"/>
<path d="M714.9 193.2L727.4 205.7" stroke="#B1DEF5" stroke-width="2" stroke-miterlimit="10" stroke-linecap="round" stroke-linejoin="round"/>
<path d="M727.4 193.2L714.9 205.7" stroke="#B1DEF5" stroke-width="2" stroke-miterlimit="10" stroke-linecap="round" stroke-linejoin="round"/>
<path d="M1 216.9L19.7 223.6L15.4 204.2L10.3 213L1 216.9Z" stroke="#071146" stroke-width="2" stroke-miterlimit="10" stroke-linecap="round" stroke-linejoin="round"/>
<path d="M10.3 213L14 217.4" stroke="#071146" stroke-width="2" stroke-miterlimit="10" stroke-linecap="round" stroke-linejoin="round"/>
<path d="M414.4 48.4L395.1 43.9L401.6 62.7L405.6 53.3L414.4 48.4Z" stroke="#071146" stroke-width="2" stroke-miterlimit="10" stroke-linecap="round" stroke-linejoin="round"/>
<path d="M405.6 53.3L401.4 49.3" stroke="#071146" stroke-width="2" stroke-miterlimit="10" stroke-linecap="round" stroke-linejoin="round"/>
<path d="M989.7 169.2L983.7 188.2L1003 183.1L993.9 178.4L989.7 169.2Z" stroke="#071146" stroke-width="2" stroke-miterlimit="10" stroke-linecap="round" stroke-linejoin="round"/>
<path d="M993.9 178.4L989.7 182.2" stroke="#071146" stroke-width="2" stroke-miterlimit="10" stroke-linecap="round" stroke-linejoin="round"/>
<path d="M409.9 288C409.8 287.3 409.7 286.5 409.7 285.8C409.7 278.4 415.7 272.4 423.1 272.4C430.5 272.4 436.5 278.4 436.5 285.8C436.5 286.5 436.4 287.3 436.3 288" fill="#B6E2DF"/>
<path d="M468.3 281.2C475.701 281.2 481.7 275.201 481.7 267.8C481.7 260.399 475.701 254.4 468.3 254.4C460.899 254.4 454.9 260.399 454.9 267.8C454.9 275.201 460.899 281.2 468.3 281.2Z" fill="#B6E2DF"/>
<path d="M503 237C510.401 237 516.4 231.001 516.4 223.6C516.4 216.199 510.401 210.2 503 210.2C495.599 210.2 489.6 216.199 489.6 223.6C489.6 231.001 495.599 237 503 237Z" fill="#B6E2DF"/>
<path d="M430.3 253.1C437.701 253.1 443.7 247.101 443.7 239.7C443.7 232.299 437.701 226.3 430.3 226.3C422.899 226.3 416.9 232.299 416.9 239.7C416.9 247.101 422.899 253.1 430.3 253.1Z" fill="#B6E2DF"/>
<path d="M526.6 272.4C524.8 270.1 523.7 267.2 523.7 264C523.7 256.6 529.7 250.6 537.1 250.6C541.7 250.6 545.8 252.9 548.2 256.5" fill="#B6E2DF"/>
<path d="M421.8 201.3C416.4 195.9 406.9 195.1 400.7 199.6C394.7 203.9 392.2 212.1 393.6 219.3C395 226.5 399.7 232.9 405.5 237.4C427.5 254.7 464.8 249.4 474.2 245.7C474.2 243.2 472.2 241.2 470.2 239.7C468.2 238.2 465.8 237 464.6 234.8C463.4 232.6 464 229.2 466.5 228.6C469.2 228 471.9 230.7 472.9 233.3C473.6 230.4 477.2 228.5 480 229.5C482.9 230.5 484.4 234.2 483.2 236.9C481.9 239.7 478.2 241.6 478.6 244.7C482.5 244.2 486.1 242.3 489.5 240.4C502.1 233.2 513.8 224.3 524.1 214.2C528.8 209.6 533.4 204.5 535.6 198.3C537.8 192.1 537.1 184.4 532.3 179.9C529.4 177.1 525.3 175.8 521.2 175.4C512.3 174.5 502.4 178.6 498.6 186.7" stroke="#071146" stroke-width="2" stroke-miterlimit="10" stroke-linecap="round" stroke-linejoin="round"/>
<path d="M486.4 286.3C508.7 280 532 272.9 548.1 256.2" stroke="#071146" stroke-width="2" stroke-miterlimit="10" stroke-linecap="round" stroke-linejoin="round"/>
<path d="M485.6 178.8C524.6 193.7 547.1 228.5 554.1 287" stroke="#071146" stroke-width="2" stroke-miterlimit="10" stroke-linecap="round" stroke-linejoin="round"/>
</g>
<defs>
<clipPath id="clip0">
<rect width="1004" height="288.3" fill="white"/>
</clipPath>
</defs>
</svg>
