<svg width="82" height="96" viewBox="0 0 82 96" fill="none" xmlns="http://www.w3.org/2000/svg">
<g clip-path="url(#clip0)">
<path d="M70.4 94.1L17.8 93.9C12.7 93.9 8.5 89.7 8.5 84.5L8.7 18.2C8.7 13.1 12.9 8.90002 18.1 8.90002L70.7 9.00002C75.8 9.00002 80 13.2 80 18.4L79.8 84.7C79.8 89.9 75.5 94.1 70.4 94.1Z" fill="#FEDB8F"/>
<path d="M69.9 94.1L11.2 93.9C5.6 93.9 1 89.2 1 83.5L1.2 11.2C1.3 5.6 5.9 1 11.6 1L70.3 1.2C76 1.2 80.6 5.9 80.6 11.5L80.4 83.8C80.3 89.5 75.6 94.1 69.9 94.1Z" stroke="#071146" stroke-width="2" stroke-miterlimit="10" stroke-linecap="round" stroke-linejoin="round"/>
<path d="M26.0999 59.9C22.6999 59.9 19.8999 57.1 19.8999 53.7C19.8999 50.3 22.6999 47.5 26.0999 47.5C29.4999 47.5 32.2999 50.3 32.2999 53.7C32.1999 57.1 29.3999 59.9 26.0999 59.9Z" fill="white" stroke="#071146" stroke-width="2" stroke-miterlimit="10" stroke-linecap="round" stroke-linejoin="round"/>
<path d="M26.0999 81.2C22.6999 81.2 19.8999 78.4 19.8999 75C19.8999 71.6 22.6999 68.8 26.0999 68.8C29.4999 68.8 32.2999 71.6 32.2999 75C32.1999 78.5 29.3999 81.2 26.0999 81.2Z" fill="white" stroke="#071146" stroke-width="2" stroke-miterlimit="10" stroke-linecap="round" stroke-linejoin="round"/>
<path d="M42.3999 75.1H68.6999" stroke="#071146" stroke-width="2" stroke-miterlimit="10" stroke-linecap="round" stroke-linejoin="round"/>
<path d="M42.3999 53.7H68.6999" stroke="#071146" stroke-width="2" stroke-miterlimit="10" stroke-linecap="round" stroke-linejoin="round"/>
<path d="M53.8002 13.6C54.8002 13.6 55.8002 13.7 56.8002 14C57.2002 14.1 57.6002 14.5 57.6002 14.9L57.8002 17C57.9002 18 58.7002 18.7 59.7002 18.7C60.0002 18.7 60.2002 18.6 60.5002 18.5L62.4002 17.6C62.8002 17.4 63.3002 17.5 63.6002 17.8C65.0002 19.3 66.0002 21.1 66.7002 23.1C66.8002 23.5 66.7002 24 66.3002 24.2L64.6002 25.5C64.1002 25.9 63.8002 26.4 63.8002 27C63.8002 27.6 64.1002 28.2 64.6002 28.5L66.3002 29.8C66.7002 30.1 66.8002 30.5 66.7002 30.9C66.1002 32.9 65.0002 34.7 63.6002 36.2C63.3002 36.5 62.8002 36.6 62.4002 36.4L60.4002 35.5C59.8002 35.3 59.2002 35.3 58.7002 35.6C58.2002 35.9 57.8002 36.4 57.8002 37L57.6002 39.1C57.6002 39.5 57.2002 39.9 56.8002 40C54.8002 40.5 52.7002 40.5 50.7002 40C50.3002 39.9 50.0002 39.5 49.9002 39.1L49.7002 37C49.6002 36.4 49.3002 35.9 48.8002 35.6C48.3002 35.3 47.6002 35.3 47.1002 35.5L45.1002 36.4C44.7002 36.6 44.2002 36.5 43.9002 36.2C42.5002 34.7 41.5002 32.9 40.8002 30.9C40.7002 30.5 40.8002 30 41.2002 29.8L42.9002 28.5C43.4002 28.1 43.7002 27.6 43.7002 27C43.7002 26.4 43.4002 25.8 42.9002 25.5L41.2002 24.2C40.8002 23.9 40.7002 23.5 40.8002 23.1C41.4002 21.1 42.5002 19.3 43.9002 17.8C44.2002 17.5 44.7002 17.4 45.1002 17.6L47.0002 18.5C47.6002 18.7 48.2002 18.7 48.7002 18.4C49.2002 18.1 49.6002 17.6 49.6002 17L49.8002 14.9C49.8002 14.5 50.2002 14.1 50.6002 14C51.7002 13.8 52.7002 13.6 53.8002 13.6ZM53.7002 22C56.6002 22 58.9002 24.3 58.9002 27.2C58.9002 30.1 56.6002 32.4 53.7002 32.4C50.8002 32.4 48.5002 30.1 48.5002 27.2C48.5002 24.3 50.9002 22 53.7002 22Z" fill="#B6E2DF" stroke="#071146" stroke-width="2" stroke-miterlimit="10" stroke-linecap="round" stroke-linejoin="round"/>
<path d="M30.925 14.8375C31.525 15.2375 32.025 15.6375 32.525 16.0375C32.725 16.2375 32.825 16.5375 32.725 16.8375L32.125 18.1375C31.825 18.7375 32.125 19.4375 32.625 19.8375C32.825 19.9375 32.925 19.9375 33.125 20.0375L34.525 20.2375C34.825 20.2375 35.025 20.5375 35.125 20.7375C35.425 22.1375 35.425 23.5375 35.125 24.8375C35.025 25.1375 34.825 25.3375 34.525 25.3375L33.125 25.5375C32.725 25.5375 32.325 25.8375 32.125 26.1375C31.925 26.5375 31.925 26.9375 32.025 27.3375L32.625 28.6375C32.725 28.9375 32.625 29.2375 32.425 29.4375C31.425 30.3375 30.125 31.0375 28.825 31.4375C28.525 31.5375 28.225 31.4375 28.025 31.1375L27.325 30.0375C27.125 29.7375 26.725 29.5375 26.325 29.5375C25.925 29.5375 25.525 29.7375 25.325 30.0375L24.325 31.1375C24.125 31.3375 23.825 31.4375 23.525 31.4375C22.225 31.0375 20.925 30.3375 19.925 29.3375C19.725 29.1375 19.625 28.8375 19.725 28.5375L20.325 27.2375C20.525 26.8375 20.425 26.4375 20.225 26.0375C20.025 25.6375 19.625 25.4375 19.225 25.4375L17.825 25.2375C17.525 25.2375 17.325 24.9375 17.225 24.7375C16.925 23.3375 16.925 21.9375 17.225 20.6375C17.325 20.3375 17.525 20.1375 17.825 20.1375L19.225 19.9375C19.625 19.9375 20.025 19.6375 20.225 19.3375C20.425 18.9375 20.425 18.5375 20.325 18.1375L19.725 16.8375C19.625 16.5375 19.725 16.2375 19.925 16.0375C20.925 15.1375 22.225 14.4375 23.525 14.0375C23.825 13.9375 24.125 14.0375 24.325 14.3375L25.125 15.5375C25.325 15.8375 25.725 16.0375 26.125 16.0375C26.525 16.0375 26.925 15.8375 27.125 15.5375L28.025 14.3375C28.225 14.1375 28.525 14.0375 28.825 14.1375C29.725 14.1375 30.325 14.4375 30.925 14.8375ZM28.125 19.6375C29.825 20.6375 30.325 22.7375 29.425 24.4375C28.425 26.1375 26.325 26.6375 24.625 25.7375C22.925 24.7375 22.425 22.6375 23.325 20.9375C24.225 19.2375 26.425 18.6375 28.125 19.6375Z" fill="#B6E2DF" stroke="#071146" stroke-width="2" stroke-miterlimit="10" stroke-linecap="round" stroke-linejoin="round"/>
</g>
<defs>
<clipPath id="clip0">
<rect width="81.5" height="95.1" fill="white"/>
</clipPath>
</defs>
</svg>
