<svg width="92" height="96" viewBox="0 0 92 96" fill="none" xmlns="http://www.w3.org/2000/svg">
<g clip-path="url(#clip0)">
<path d="M33.6 1L24 73.6L23 81.4C22.1 88 27.3 93.9 33.9 93.9L69.8 94C75.4 94 80.1 89.9 80.8 84.4L82 75.1L91.8 1.2L33.6 1Z" fill="white"/>
<path d="M78.8005 75.1L77.6005 84.4C76.9005 89.9 72.1005 94 66.6005 94L30.7005 93.9C24.0005 93.9 18.9005 88 19.8005 81.4L20.8005 73.6" stroke="#071146" stroke-width="2" stroke-miterlimit="10" stroke-linecap="round" stroke-linejoin="round"/>
<path d="M66.8996 94.1C60.1996 94.1 55.0996 88.2 55.9996 81.6L56.9996 73.8H2.09961L1.09961 81.6C0.199609 88.1 5.39961 94 11.9996 94.1H66.3996H66.8996Z" fill="#B6E2DF" stroke="#071146" stroke-width="2" stroke-miterlimit="10" stroke-linecap="round" stroke-linejoin="round"/>
<path d="M20.7002 73.6L30.4002 1L88.6002 1.2L78.8002 75.1" stroke="#071146" stroke-width="2" stroke-miterlimit="10" stroke-linecap="round" stroke-linejoin="round"/>
<path d="M42.3006 18.4C40.0006 18.4 38.1006 16.5 38.1006 14.2C38.1006 11.9 40.0006 10 42.3006 10C44.6006 10 46.5006 11.9 46.5006 14.2C46.4006 16.5 44.6006 18.4 42.3006 18.4Z" stroke="#071146" stroke-width="3" stroke-miterlimit="10" stroke-linecap="round" stroke-linejoin="round"/>
<path d="M40.1004 32.7001C37.8004 32.7001 35.9004 30.8 35.9004 28.5C35.9004 26.2 37.8004 24.3 40.1004 24.3C42.4004 24.3 44.3004 26.2 44.3004 28.5C44.3004 30.8 42.4004 32.7001 40.1004 32.7001Z" stroke="#071146" stroke-width="3" stroke-miterlimit="10" stroke-linecap="round" stroke-linejoin="round"/>
<path d="M51.1006 28.6H74.6006" stroke="#071146" stroke-width="3" stroke-miterlimit="10" stroke-linecap="round" stroke-linejoin="round"/>
<path d="M54 14.2H77.5" stroke="#071146" stroke-width="3" stroke-miterlimit="10" stroke-linecap="round" stroke-linejoin="round"/>
<path d="M38.8006 47.4C36.5006 47.4 34.6006 45.5 34.6006 43.2C34.6006 40.9 36.5006 39 38.8006 39C41.1006 39 43.0006 40.9 43.0006 43.2C42.9006 45.5 41.1006 47.4 38.8006 47.4Z" stroke="#071146" stroke-width="3" stroke-miterlimit="10" stroke-linecap="round" stroke-linejoin="round"/>
<path d="M36.6004 61.7001C34.3004 61.7001 32.4004 59.8 32.4004 57.5C32.4004 55.2 34.3004 53.3 36.6004 53.3C38.9004 53.3 40.8004 55.2 40.8004 57.5C40.8004 59.8 38.9004 61.7001 36.6004 61.7001Z" stroke="#071146" stroke-width="3" stroke-miterlimit="10" stroke-linecap="round" stroke-linejoin="round"/>
<path d="M47.6006 57.6H71.1006" stroke="#071146" stroke-width="3" stroke-miterlimit="10" stroke-linecap="round" stroke-linejoin="round"/>
<path d="M50.5 43.2H74" stroke="#071146" stroke-width="3" stroke-miterlimit="10" stroke-linecap="round" stroke-linejoin="round"/>
</g>
<defs>
<clipPath id="clip0">
<rect width="91.8" height="95.1" fill="white"/>
</clipPath>
</defs>
</svg>
