<svg width="586" height="272" viewBox="0 0 586 272" fill="none" xmlns="http://www.w3.org/2000/svg">
<g clip-path="url(#clip0)">
<path d="M581.6 59.9H0V272H581.6C584 272 586 270 586 267.6V64.3C586 61.9 584 59.9 581.6 59.9Z" fill="#95E196"/>
<path d="M177 90.5H196.7" stroke="#B6E2DF" stroke-width="2" stroke-miterlimit="10"/>
<path d="M186.8 80.7V100.4" stroke="#B6E2DF" stroke-width="2" stroke-miterlimit="10"/>
<path d="M371.4 215.2H391.1" stroke="#B6E2DF" stroke-width="2" stroke-miterlimit="10"/>
<path d="M381.3 205.3V225.1" stroke="#B6E2DF" stroke-width="2" stroke-miterlimit="10"/>
<path d="M471.3 224.7L485.3 238.6" stroke="#FCAA90" stroke-width="2" stroke-miterlimit="10"/>
<path d="M485.3 224.7L471.3 238.6" stroke="#FCAA90" stroke-width="2" stroke-miterlimit="10"/>
<path d="M461.7 21.1L475.6 35" stroke="#FCAA90" stroke-width="2" stroke-miterlimit="10"/>
<path d="M475.6 21.1L461.7 35" stroke="#FCAA90" stroke-width="2" stroke-miterlimit="10"/>
<path d="M26.6001 173.4L40.5001 187.4" stroke="#FCAA90" stroke-width="2" stroke-miterlimit="10"/>
<path d="M40.5001 173.4L26.6001 187.4" stroke="#FCAA90" stroke-width="2" stroke-miterlimit="10"/>
<path d="M285.6 95.2L299.6 109.2" stroke="#FCAA90" stroke-width="2" stroke-miterlimit="10"/>
<path d="M299.6 95.2L285.6 109.2" stroke="#FCAA90" stroke-width="2" stroke-miterlimit="10"/>
<path d="M414 117H433.7" stroke="#B6E2DF" stroke-width="2" stroke-miterlimit="10"/>
<path d="M423.8 107.2V126.9" stroke="#B6E2DF" stroke-width="2" stroke-miterlimit="10"/>
<path d="M280.9 150.4H278.4C277.3 150.4 276.4 149.5 276.4 148.4V146C276.4 144.9 277.3 144 278.4 144H280.9C282 144 282.9 144.9 282.9 146V148.5C282.9 149.5 282 150.4 280.9 150.4Z" stroke="#071146" stroke-width="2" stroke-miterlimit="10" stroke-linecap="round" stroke-linejoin="round"/>
<path d="M287.3 147.2H304.6" stroke="#071146" stroke-width="2" stroke-miterlimit="10" stroke-linecap="round" stroke-linejoin="round"/>
<path d="M280.9 161.7H278.4C277.3 161.7 276.4 160.8 276.4 159.7V157.2C276.4 156.1 277.3 155.2 278.4 155.2H280.9C282 155.2 282.9 156.1 282.9 157.2V159.7C282.9 160.8 282 161.7 280.9 161.7Z" stroke="#071146" stroke-width="2" stroke-miterlimit="10" stroke-linecap="round" stroke-linejoin="round"/>
<path d="M287.3 158.5H304.6" stroke="#071146" stroke-width="2" stroke-miterlimit="10" stroke-linecap="round" stroke-linejoin="round"/>
<path d="M280.9 173H278.4C277.3 173 276.4 172.1 276.4 171V168.5C276.4 167.4 277.3 166.5 278.4 166.5H280.9C282 166.5 282.9 167.4 282.9 168.5V171C282.9 172.1 282 173 280.9 173Z" stroke="#071146" stroke-width="2" stroke-miterlimit="10" stroke-linecap="round" stroke-linejoin="round"/>
<path d="M287.3 169.8H304.6" stroke="#071146" stroke-width="2" stroke-miterlimit="10" stroke-linecap="round" stroke-linejoin="round"/>
<path d="M320.8 150.4H318.3C317.2 150.4 316.3 149.5 316.3 148.4V146C316.3 144.9 317.2 144 318.3 144H320.8C321.9 144 322.8 144.9 322.8 146V148.5C322.8 149.5 321.9 150.4 320.8 150.4Z" stroke="#071146" stroke-width="2" stroke-miterlimit="10" stroke-linecap="round" stroke-linejoin="round"/>
<path d="M327.2 147.2H344.5" stroke="#071146" stroke-width="2" stroke-miterlimit="10" stroke-linecap="round" stroke-linejoin="round"/>
<path d="M320.8 161.7H318.3C317.2 161.7 316.3 160.8 316.3 159.7V157.2C316.3 156.1 317.2 155.2 318.3 155.2H320.8C321.9 155.2 322.8 156.1 322.8 157.2V159.7C322.8 160.8 321.9 161.7 320.8 161.7Z" stroke="#071146" stroke-width="2" stroke-miterlimit="10" stroke-linecap="round" stroke-linejoin="round"/>
<path d="M327.2 158.5H344.5" stroke="#071146" stroke-width="2" stroke-miterlimit="10" stroke-linecap="round" stroke-linejoin="round"/>
<path d="M320.8 173H318.3C317.2 173 316.3 172.1 316.3 171V168.5C316.3 167.4 317.2 166.5 318.3 166.5H320.8C321.9 166.5 322.8 167.4 322.8 168.5V171C322.8 172.1 321.9 173 320.8 173Z" stroke="#071146" stroke-width="2" stroke-miterlimit="10" stroke-linecap="round" stroke-linejoin="round"/>
<path d="M327.2 169.8H344.5" stroke="#071146" stroke-width="2" stroke-miterlimit="10" stroke-linecap="round" stroke-linejoin="round"/>
<path d="M63.2002 221.9H60.7002C59.6002 221.9 58.7002 221 58.7002 219.9V217.4C58.7002 216.3 59.6002 215.4 60.7002 215.4H63.2002C64.3002 215.4 65.2002 216.3 65.2002 217.4V219.9C65.2002 221 64.3002 221.9 63.2002 221.9Z" stroke="#071146" stroke-width="2" stroke-miterlimit="10" stroke-linecap="round" stroke-linejoin="round"/>
<path d="M69.7002 218.7H86.9002" stroke="#071146" stroke-width="2" stroke-miterlimit="10" stroke-linecap="round" stroke-linejoin="round"/>
<path d="M63.2002 233.2H60.7002C59.6002 233.2 58.7002 232.3 58.7002 231.2V228.7C58.7002 227.6 59.6002 226.7 60.7002 226.7H63.2002C64.3002 226.7 65.2002 227.6 65.2002 228.7V231.2C65.2002 232.3 64.3002 233.2 63.2002 233.2Z" stroke="#071146" stroke-width="2" stroke-miterlimit="10" stroke-linecap="round" stroke-linejoin="round"/>
<path d="M69.7002 230H86.9002" stroke="#071146" stroke-width="2" stroke-miterlimit="10" stroke-linecap="round" stroke-linejoin="round"/>
<path d="M63.2002 244.5H60.7002C59.6002 244.5 58.7002 243.6 58.7002 242.5V240C58.7002 238.9 59.6002 238 60.7002 238H63.2002C64.3002 238 65.2002 238.9 65.2002 240V242.5C65.2002 243.6 64.3002 244.5 63.2002 244.5Z" stroke="#071146" stroke-width="2" stroke-miterlimit="10" stroke-linecap="round" stroke-linejoin="round"/>
<path d="M69.7002 241.3H86.9002" stroke="#071146" stroke-width="2" stroke-miterlimit="10" stroke-linecap="round" stroke-linejoin="round"/>
<path d="M103.1 221.9H100.6C99.5001 221.9 98.6001 221 98.6001 219.9V217.4C98.6001 216.3 99.5001 215.4 100.6 215.4H103.1C104.2 215.4 105.1 216.3 105.1 217.4V219.9C105.1 221 104.2 221.9 103.1 221.9Z" stroke="#071146" stroke-width="2" stroke-miterlimit="10" stroke-linecap="round" stroke-linejoin="round"/>
<path d="M109.5 218.7H126.8" stroke="#071146" stroke-width="2" stroke-miterlimit="10" stroke-linecap="round" stroke-linejoin="round"/>
<path d="M103.1 233.2H100.6C99.5001 233.2 98.6001 232.3 98.6001 231.2V228.7C98.6001 227.6 99.5001 226.7 100.6 226.7H103.1C104.2 226.7 105.1 227.6 105.1 228.7V231.2C105.1 232.3 104.2 233.2 103.1 233.2Z" stroke="#071146" stroke-width="2" stroke-miterlimit="10" stroke-linecap="round" stroke-linejoin="round"/>
<path d="M109.5 230H126.8" stroke="#071146" stroke-width="2" stroke-miterlimit="10" stroke-linecap="round" stroke-linejoin="round"/>
<path d="M103.1 244.5H100.6C99.5001 244.5 98.6001 243.6 98.6001 242.5V240C98.6001 238.9 99.5001 238 100.6 238H103.1C104.2 238 105.1 238.9 105.1 240V242.5C105.1 243.6 104.2 244.5 103.1 244.5Z" stroke="#071146" stroke-width="2" stroke-miterlimit="10" stroke-linecap="round" stroke-linejoin="round"/>
<path d="M109.5 241.3H126.8" stroke="#071146" stroke-width="2" stroke-miterlimit="10" stroke-linecap="round" stroke-linejoin="round"/>
<path d="M61.7997 73.4H29.1997C26.3997 73.4 24.1997 71.1 24.1997 68.4V28.4C24.1997 25.6 26.4997 23.4 29.1997 23.4H63.9997C66.6997 23.4 68.9997 25.7 68.9997 28.4V66C68.9997 66.7 68.6997 67.4 68.1997 67.9L63.4997 72.7C62.9997 73.2 62.3997 73.4 61.7997 73.4Z" fill="white"/>
<path d="M37.2647 33.7296C37.2702 32.0175 35.8868 30.6251 34.1747 30.6195C32.4627 30.614 31.0702 31.9974 31.0647 33.7095C31.0592 35.4216 32.4426 36.814 34.1547 36.8195C35.8668 36.8251 37.2592 35.4416 37.2647 33.7296Z" stroke="#071146" stroke-width="2" stroke-miterlimit="10" stroke-linecap="round" stroke-linejoin="round"/>
<path d="M34.0998 45.0999C36.6998 45.0999 38.7998 42.9999 38.7998 40.3999V39.6999C38.7998 39.1999 38.3998 38.7999 37.8998 38.7999H30.1998C29.6998 38.7999 29.2998 39.1999 29.2998 39.6999V40.3999C29.4998 42.8999 31.4998 45.0999 34.0998 45.0999Z" stroke="#071146" stroke-width="2" stroke-miterlimit="10" stroke-linecap="round" stroke-linejoin="round"/>
<path d="M66.9998 66.6V26.6C66.9998 23.8 64.6998 21.6 61.9998 21.6H27.2998C24.4998 21.6 22.2998 23.9 22.2998 26.6V66.6C22.2998 69.4 24.5998 71.6 27.2998 71.6H61.9998V66.6H66.9998Z" stroke="#071146" stroke-width="2" stroke-miterlimit="10" stroke-linecap="round" stroke-linejoin="round"/>
<path d="M42.8999 33.7H59.2999" stroke="#071146" stroke-width="2" stroke-miterlimit="10" stroke-linecap="round" stroke-linejoin="round"/>
<path d="M42.8999 38.5H59.2999" stroke="#071146" stroke-width="2" stroke-miterlimit="10" stroke-linecap="round" stroke-linejoin="round"/>
<path d="M37.3409 52.5539C37.3464 50.8418 35.963 49.4494 34.2509 49.4439C32.5388 49.4383 31.1464 50.8218 31.1409 52.5338C31.1353 54.2459 32.5188 55.6383 34.2309 55.6439C35.9429 55.6494 37.3353 54.266 37.3409 52.5539Z" stroke="#071146" stroke-width="2" stroke-miterlimit="10" stroke-linecap="round" stroke-linejoin="round"/>
<path d="M34.0998 63.9C36.6998 63.9 38.7998 61.8 38.7998 59.2V58.5C38.7998 58 38.3998 57.6 37.8998 57.6H30.1998C29.6998 57.6 29.2998 58 29.2998 58.5V59.2C29.4998 61.8 31.4998 63.9 34.0998 63.9Z" stroke="#071146" stroke-width="2" stroke-miterlimit="10" stroke-linecap="round" stroke-linejoin="round"/>
<path d="M42.8999 52.6H59.2999" stroke="#071146" stroke-width="2" stroke-miterlimit="10" stroke-linecap="round" stroke-linejoin="round"/>
<path d="M42.8999 57.3H59.2999" stroke="#071146" stroke-width="2" stroke-miterlimit="10" stroke-linecap="round" stroke-linejoin="round"/>
<path d="M62 71.6L67 66.6" stroke="#071146" stroke-width="2" stroke-miterlimit="10" stroke-linecap="round" stroke-linejoin="round"/>
<path d="M166.4 171.8H133.9C131.1 171.8 128.9 169.5 128.9 166.8V126.8C128.9 124 131.2 121.8 133.9 121.8H168.6C171.4 121.8 173.6 124.1 173.6 126.8V164.4C173.6 165.1 173.3 165.8 172.8 166.3L168.1 171.1C167.6 171.6 167 171.8 166.4 171.8Z" fill="white"/>
<path d="M141.917 132.183C141.923 130.471 140.539 129.078 138.827 129.073C137.115 129.067 135.723 130.451 135.717 132.163C135.712 133.875 137.095 135.267 138.807 135.273C140.519 135.278 141.912 133.895 141.917 132.183Z" stroke="#071146" stroke-width="2" stroke-miterlimit="10" stroke-linecap="round" stroke-linejoin="round"/>
<path d="M138.8 143.5C141.4 143.5 143.5 141.4 143.5 138.8V138.1C143.5 137.6 143.1 137.2 142.6 137.2H134.9C134.4 137.2 134 137.6 134 138.1V138.8C134.1 141.3 136.2 143.5 138.8 143.5Z" stroke="#071146" stroke-width="2" stroke-miterlimit="10" stroke-linecap="round" stroke-linejoin="round"/>
<path d="M171.6 165V125C171.6 122.2 169.3 120 166.6 120H131.9C129.1 120 126.9 122.3 126.9 125V165C126.9 167.8 129.2 170 131.9 170H166.6V165H171.6Z" stroke="#071146" stroke-width="2" stroke-miterlimit="10" stroke-linecap="round" stroke-linejoin="round"/>
<path d="M147.6 132.1H163.9" stroke="#071146" stroke-width="2" stroke-miterlimit="10" stroke-linecap="round" stroke-linejoin="round"/>
<path d="M147.6 136.9H163.9" stroke="#071146" stroke-width="2" stroke-miterlimit="10" stroke-linecap="round" stroke-linejoin="round"/>
<path d="M141.993 151.007C141.999 149.295 140.615 147.903 138.903 147.897C137.191 147.891 135.799 149.275 135.793 150.987C135.788 152.699 137.171 154.091 138.883 154.097C140.595 154.103 141.988 152.719 141.993 151.007Z" stroke="#071146" stroke-width="2" stroke-miterlimit="10" stroke-linecap="round" stroke-linejoin="round"/>
<path d="M138.8 162.3C141.4 162.3 143.5 160.2 143.5 157.6V156.9C143.5 156.4 143.1 156 142.6 156H134.9C134.4 156 134 156.4 134 156.9V157.6C134.1 160.2 136.2 162.3 138.8 162.3Z" stroke="#071146" stroke-width="2" stroke-miterlimit="10" stroke-linecap="round" stroke-linejoin="round"/>
<path d="M147.6 151H163.9" stroke="#071146" stroke-width="2" stroke-miterlimit="10" stroke-linecap="round" stroke-linejoin="round"/>
<path d="M147.6 155.7H163.9" stroke="#071146" stroke-width="2" stroke-miterlimit="10" stroke-linecap="round" stroke-linejoin="round"/>
<path d="M166.6 170L171.6 165" stroke="#071146" stroke-width="2" stroke-miterlimit="10" stroke-linecap="round" stroke-linejoin="round"/>
<path d="M265.6 246.2H233.1C230.3 246.2 228.1 243.9 228.1 241.2V201.2C228.1 198.4 230.4 196.2 233.1 196.2H267.8C270.6 196.2 272.8 198.5 272.8 201.2V238.8C272.8 239.5 272.5 240.2 272 240.7L267.3 245.5C266.8 246 266.2 246.2 265.6 246.2Z" fill="white"/>
<path d="M241.095 206.578C241.101 204.866 239.717 203.474 238.005 203.468C236.293 203.462 234.901 204.846 234.895 206.558C234.89 208.27 236.273 209.663 237.985 209.668C239.697 209.674 241.09 208.29 241.095 206.578Z" stroke="#071146" stroke-width="2" stroke-miterlimit="10" stroke-linecap="round" stroke-linejoin="round"/>
<path d="M238 217.9C240.6 217.9 242.7 215.8 242.7 213.2V212.5C242.7 212 242.3 211.6 241.8 211.6H234.1C233.6 211.6 233.2 212 233.2 212.5V213.2C233.3 215.8 235.4 217.9 238 217.9Z" stroke="#071146" stroke-width="2" stroke-miterlimit="10" stroke-linecap="round" stroke-linejoin="round"/>
<path d="M270.8 239.4V199.4C270.8 196.6 268.5 194.4 265.8 194.4H231.1C228.3 194.4 226.1 196.7 226.1 199.4V239.4C226.1 242.2 228.4 244.4 231.1 244.4H265.8V239.4H270.8Z" stroke="#071146" stroke-width="2" stroke-miterlimit="10" stroke-linecap="round" stroke-linejoin="round"/>
<path d="M246.8 206.5H263.1" stroke="#071146" stroke-width="2" stroke-miterlimit="10" stroke-linecap="round" stroke-linejoin="round"/>
<path d="M246.8 211.3H263.1" stroke="#071146" stroke-width="2" stroke-miterlimit="10" stroke-linecap="round" stroke-linejoin="round"/>
<path d="M241.171 225.402C241.176 223.69 239.793 222.298 238.081 222.292C236.369 222.287 234.976 223.67 234.971 225.382C234.965 227.094 236.349 228.487 238.061 228.492C239.773 228.498 241.165 227.114 241.171 225.402Z" stroke="#071146" stroke-width="2" stroke-miterlimit="10" stroke-linecap="round" stroke-linejoin="round"/>
<path d="M238 236.7C240.6 236.7 242.7 234.6 242.7 232V231.3C242.7 230.8 242.3 230.4 241.8 230.4H234.1C233.6 230.4 233.2 230.8 233.2 231.3V232C233.3 234.6 235.4 236.7 238 236.7Z" stroke="#071146" stroke-width="2" stroke-miterlimit="10" stroke-linecap="round" stroke-linejoin="round"/>
<path d="M246.8 225.4H263.1" stroke="#071146" stroke-width="2" stroke-miterlimit="10" stroke-linecap="round" stroke-linejoin="round"/>
<path d="M246.8 230.1H263.1" stroke="#071146" stroke-width="2" stroke-miterlimit="10" stroke-linecap="round" stroke-linejoin="round"/>
<path d="M265.8 244.4L270.8 239.4" stroke="#071146" stroke-width="2" stroke-miterlimit="10" stroke-linecap="round" stroke-linejoin="round"/>
<path d="M303.3 52.8H270.8C268 52.8 265.8 50.5 265.8 47.8V7.79999C265.8 4.99999 268.1 2.79999 270.8 2.79999H305.5C308.3 2.79999 310.5 5.09999 310.5 7.79999V45.4C310.5 46.1 310.2 46.8 309.7 47.3L305 52.1C304.5 52.6 303.9 52.8 303.3 52.8Z" fill="white"/>
<path d="M278.767 13.127C278.772 11.4149 277.389 10.0225 275.677 10.017C273.965 10.0114 272.572 11.3948 272.567 13.1069C272.561 14.819 273.945 16.2114 275.657 16.2169C277.369 16.2225 278.761 14.839 278.767 13.127Z" stroke="#071146" stroke-width="2" stroke-miterlimit="10" stroke-linecap="round" stroke-linejoin="round"/>
<path d="M275.6 24.5C278.2 24.5 280.3 22.4 280.3 19.8V19.1C280.3 18.6 279.9 18.2 279.4 18.2H271.7C271.2 18.2 270.8 18.6 270.8 19.1V19.8C271 22.3 273 24.5 275.6 24.5Z" stroke="#071146" stroke-width="2" stroke-miterlimit="10" stroke-linecap="round" stroke-linejoin="round"/>
<path d="M308.5 46V6C308.5 3.2 306.2 1 303.5 1H268.8C266 1 263.8 3.3 263.8 6V46C263.8 48.8 266.1 51 268.8 51H303.5V46H308.5Z" stroke="#071146" stroke-width="2" stroke-miterlimit="10" stroke-linecap="round" stroke-linejoin="round"/>
<path d="M284.4 13.1H300.8" stroke="#071146" stroke-width="2" stroke-miterlimit="10" stroke-linecap="round" stroke-linejoin="round"/>
<path d="M284.4 17.9H300.8" stroke="#071146" stroke-width="2" stroke-miterlimit="10" stroke-linecap="round" stroke-linejoin="round"/>
<path d="M278.743 31.9509C278.748 30.2388 277.365 28.8465 275.653 28.8409C273.941 28.8354 272.548 30.2188 272.543 31.9309C272.537 33.643 273.921 35.0354 275.633 35.0409C277.345 35.0464 278.737 33.663 278.743 31.9509Z" stroke="#071146" stroke-width="2" stroke-miterlimit="10" stroke-linecap="round" stroke-linejoin="round"/>
<path d="M275.6 43.3C278.2 43.3 280.3 41.2 280.3 38.6V37.9C280.3 37.4 279.9 37 279.4 37H271.7C271.2 37 270.8 37.4 270.8 37.9V38.6C271 41.2 273 43.3 275.6 43.3Z" stroke="#071146" stroke-width="2" stroke-miterlimit="10" stroke-linecap="round" stroke-linejoin="round"/>
<path d="M284.4 31.9H300.8" stroke="#071146" stroke-width="2" stroke-miterlimit="10" stroke-linecap="round" stroke-linejoin="round"/>
<path d="M284.4 36.7H300.8" stroke="#071146" stroke-width="2" stroke-miterlimit="10" stroke-linecap="round" stroke-linejoin="round"/>
<path d="M303.5 51L308.5 46" stroke="#071146" stroke-width="2" stroke-miterlimit="10" stroke-linecap="round" stroke-linejoin="round"/>
<path d="M459.2 201.3H426.7C423.9 201.3 421.7 199 421.7 196.3V156.3C421.7 153.5 424 151.3 426.7 151.3H461.4C464.2 151.3 466.4 153.6 466.4 156.3V193.9C466.4 194.6 466.1 195.3 465.6 195.8L460.9 200.6C460.4 201 459.8 201.3 459.2 201.3Z" fill="white"/>
<path d="M434.718 161.589C434.723 159.877 433.34 158.485 431.628 158.479C429.916 158.474 428.523 159.857 428.518 161.569C428.512 163.281 429.896 164.674 431.608 164.679C433.32 164.685 434.712 163.301 434.718 161.589Z" stroke="#071146" stroke-width="2" stroke-miterlimit="10" stroke-linecap="round" stroke-linejoin="round"/>
<path d="M431.5 172.9C434.1 172.9 436.2 170.8 436.2 168.2V167.5C436.2 167 435.8 166.6 435.3 166.6H427.6C427.1 166.6 426.7 167 426.7 167.5V168.2C426.9 170.8 429 172.9 431.5 172.9Z" stroke="#071146" stroke-width="2" stroke-miterlimit="10" stroke-linecap="round" stroke-linejoin="round"/>
<path d="M464.4 194.4V154.4C464.4 151.6 462.1 149.4 459.4 149.4H424.7C421.9 149.4 419.7 151.7 419.7 154.4V194.4C419.7 197.2 422 199.4 424.7 199.4H459.4V194.4H464.4Z" stroke="#071146" stroke-width="2" stroke-miterlimit="10" stroke-linecap="round" stroke-linejoin="round"/>
<path d="M440.3 161.6H456.7" stroke="#071146" stroke-width="2" stroke-miterlimit="10" stroke-linecap="round" stroke-linejoin="round"/>
<path d="M440.3 166.3H456.7" stroke="#071146" stroke-width="2" stroke-miterlimit="10" stroke-linecap="round" stroke-linejoin="round"/>
<path d="M434.693 180.413C434.699 178.701 433.316 177.309 431.603 177.303C429.891 177.298 428.499 178.681 428.493 180.393C428.488 182.105 429.871 183.498 431.583 183.503C433.295 183.509 434.688 182.125 434.693 180.413Z" stroke="#071146" stroke-width="2" stroke-miterlimit="10" stroke-linecap="round" stroke-linejoin="round"/>
<path d="M431.5 191.7C434.1 191.7 436.2 189.6 436.2 187V186.3C436.2 185.8 435.8 185.4 435.3 185.4H427.6C427.1 185.4 426.7 185.8 426.7 186.3V187C426.9 189.6 429 191.7 431.5 191.7Z" stroke="#071146" stroke-width="2" stroke-miterlimit="10" stroke-linecap="round" stroke-linejoin="round"/>
<path d="M440.3 180.4H456.7" stroke="#071146" stroke-width="2" stroke-miterlimit="10" stroke-linecap="round" stroke-linejoin="round"/>
<path d="M440.3 185.1H456.7" stroke="#071146" stroke-width="2" stroke-miterlimit="10" stroke-linecap="round" stroke-linejoin="round"/>
<path d="M459.4 199.4L464.4 194.4" stroke="#071146" stroke-width="2" stroke-miterlimit="10" stroke-linecap="round" stroke-linejoin="round"/>
<path d="M553.2 120H520.7C517.9 120 515.7 117.7 515.7 115V75C515.7 72.2 518 70 520.7 70H555.4C558.2 70 560.4 72.3 560.4 75V112.6C560.4 113.3 560.1 114 559.6 114.5L554.9 119.3C554.4 119.7 553.8 120 553.2 120Z" fill="white"/>
<path d="M528.741 80.3178C528.747 78.6057 527.363 77.2133 525.651 77.2077C523.939 77.2022 522.547 78.5856 522.541 80.2977C522.536 82.0098 523.919 83.4022 525.631 83.4077C527.343 83.4133 528.736 82.0299 528.741 80.3178Z" stroke="#071146" stroke-width="2" stroke-miterlimit="10" stroke-linecap="round" stroke-linejoin="round"/>
<path d="M525.6 91.6C528.2 91.6 530.3 89.5 530.3 86.9V86.2C530.3 85.7 529.9 85.3 529.4 85.3H521.7C521.2 85.3 520.8 85.7 520.8 86.2V86.9C520.9 89.5 523 91.6 525.6 91.6Z" stroke="#071146" stroke-width="2" stroke-miterlimit="10" stroke-linecap="round" stroke-linejoin="round"/>
<path d="M558.4 113.1V73.1C558.4 70.3 556.1 68.1 553.4 68.1H518.7C515.9 68.1 513.7 70.4 513.7 73.1V113.1C513.7 115.9 516 118.1 518.7 118.1H553.4V113.1H558.4Z" stroke="#071146" stroke-width="2" stroke-miterlimit="10" stroke-linecap="round" stroke-linejoin="round"/>
<path d="M534.4 80.3H550.7" stroke="#071146" stroke-width="2" stroke-miterlimit="10" stroke-linecap="round" stroke-linejoin="round"/>
<path d="M534.4 85H550.7" stroke="#071146" stroke-width="2" stroke-miterlimit="10" stroke-linecap="round" stroke-linejoin="round"/>
<path d="M528.717 99.1418C528.723 97.4297 527.339 96.0372 525.627 96.0317C523.915 96.0262 522.523 97.4096 522.517 99.1217C522.512 100.834 523.895 102.226 525.607 102.232C527.319 102.237 528.712 100.854 528.717 99.1418Z" stroke="#071146" stroke-width="2" stroke-miterlimit="10" stroke-linecap="round" stroke-linejoin="round"/>
<path d="M525.6 110.4C528.2 110.4 530.3 108.3 530.3 105.7V105C530.3 104.5 529.9 104.1 529.4 104.1H521.7C521.2 104.1 520.8 104.5 520.8 105V105.7C520.9 108.3 523 110.4 525.6 110.4Z" stroke="#071146" stroke-width="2" stroke-miterlimit="10" stroke-linecap="round" stroke-linejoin="round"/>
<path d="M534.4 99.1H550.7" stroke="#071146" stroke-width="2" stroke-miterlimit="10" stroke-linecap="round" stroke-linejoin="round"/>
<path d="M534.4 103.8H550.7" stroke="#071146" stroke-width="2" stroke-miterlimit="10" stroke-linecap="round" stroke-linejoin="round"/>
<path d="M553.4 118.1L558.4 113.1" stroke="#071146" stroke-width="2" stroke-miterlimit="10" stroke-linecap="round" stroke-linejoin="round"/>
<path d="M72.678 112.777C72.6851 110.568 70.9 108.771 68.6909 108.764C66.4818 108.757 64.6851 110.542 64.678 112.751C64.6708 114.96 66.4559 116.757 68.665 116.764C70.8742 116.771 72.6708 114.986 72.678 112.777Z" stroke="white" stroke-width="2" stroke-miterlimit="10" stroke-linecap="round" stroke-linejoin="round"/>
<path d="M68.6 127.6C72 127.6 74.7 124.9 74.7 121.5V120.6C74.7 120 74.2 119.5 73.6 119.5H63.6C63 119.5 62.5 120 62.5 120.6V121.5C62.5 124.8 65.2 127.6 68.6 127.6Z" stroke="white" stroke-width="2" stroke-miterlimit="10" stroke-linecap="round" stroke-linejoin="round"/>
<path d="M58.6667 105.722C58.6739 103.513 56.8888 101.716 54.6797 101.709C52.4705 101.702 50.6739 103.487 50.6667 105.696C50.6596 107.905 52.4447 109.702 54.6538 109.709C56.8629 109.716 58.6596 107.931 58.6667 105.722Z" stroke="white" stroke-width="2" stroke-miterlimit="10" stroke-linecap="round" stroke-linejoin="round"/>
<path d="M54.6002 120.5C58.0002 120.5 60.7002 117.8 60.7002 114.4V113.5C60.7002 112.9 60.2002 112.4 59.6002 112.4H49.6002C49.0002 112.4 48.5002 112.9 48.5002 113.5V114.4C48.4002 117.7 51.2002 120.5 54.6002 120.5Z" stroke="white" stroke-width="2" stroke-miterlimit="10" stroke-linecap="round" stroke-linejoin="round"/>
<path d="M40.5 131.9V95.7" stroke="white" stroke-width="2" stroke-miterlimit="10" stroke-linecap="round" stroke-linejoin="round" stroke-dasharray="6 6"/>
<path d="M79.7003 135.3H44.3003" stroke="white" stroke-width="2" stroke-miterlimit="10" stroke-linecap="round" stroke-linejoin="round" stroke-dasharray="6 6"/>
<path d="M83.4004 96.2V131.2" stroke="white" stroke-width="2" stroke-miterlimit="10" stroke-linecap="round" stroke-linejoin="round" stroke-dasharray="6 6"/>
<path d="M44.3003 92.4H79.7003" stroke="white" stroke-width="2" stroke-miterlimit="10" stroke-linecap="round" stroke-linejoin="round" stroke-dasharray="6 6"/>
<path d="M43.9002 89H37.2002V95.7H43.9002V89Z" stroke="white" stroke-width="2" stroke-miterlimit="10" stroke-linecap="round" stroke-linejoin="round"/>
<path d="M86.8001 89H80.1001V95.7H86.8001V89Z" stroke="white" stroke-width="2" stroke-miterlimit="10" stroke-linecap="round" stroke-linejoin="round"/>
<path d="M43.9002 131.9H37.2002V138.6H43.9002V131.9Z" stroke="white" stroke-width="2" stroke-miterlimit="10" stroke-linecap="round" stroke-linejoin="round"/>
<path d="M86.8001 131.9H80.1001V138.6H86.8001V131.9Z" stroke="white" stroke-width="2" stroke-miterlimit="10" stroke-linecap="round" stroke-linejoin="round"/>
<path d="M186.842 229.964C186.849 227.754 185.064 225.958 182.854 225.951C180.645 225.944 178.849 227.729 178.842 229.938C178.834 232.147 180.619 233.944 182.829 233.951C185.038 233.958 186.834 232.173 186.842 229.964Z" stroke="white" stroke-width="2" stroke-miterlimit="10" stroke-linecap="round" stroke-linejoin="round"/>
<path d="M182.7 244.8C186.1 244.8 188.8 242.1 188.8 238.7V237.8C188.8 237.2 188.3 236.7 187.7 236.7H177.7C177.1 236.7 176.6 237.2 176.6 237.8V238.7C176.6 242 179.3 244.8 182.7 244.8Z" stroke="white" stroke-width="2" stroke-miterlimit="10" stroke-linecap="round" stroke-linejoin="round"/>
<path d="M172.731 222.808C172.738 220.599 170.953 218.802 168.744 218.795C166.535 218.788 164.738 220.573 164.731 222.782C164.724 224.991 166.509 226.788 168.718 226.795C170.927 226.802 172.724 225.017 172.731 222.808Z" stroke="white" stroke-width="2" stroke-miterlimit="10" stroke-linecap="round" stroke-linejoin="round"/>
<path d="M168.7 237.6C172.1 237.6 174.8 234.9 174.8 231.5V230.6C174.8 230 174.3 229.5 173.7 229.5H163.7C163.1 229.5 162.6 230 162.6 230.6V231.5C162.6 234.9 165.3 237.6 168.7 237.6Z" stroke="white" stroke-width="2" stroke-miterlimit="10" stroke-linecap="round" stroke-linejoin="round"/>
<path d="M154.7 249.1V212.9" stroke="white" stroke-width="2" stroke-miterlimit="10" stroke-linecap="round" stroke-linejoin="round" stroke-dasharray="6 6"/>
<path d="M193.8 252.4H158.4" stroke="white" stroke-width="2" stroke-miterlimit="10" stroke-linecap="round" stroke-linejoin="round" stroke-dasharray="6 6"/>
<path d="M197.6 213.3V248.3" stroke="white" stroke-width="2" stroke-miterlimit="10" stroke-linecap="round" stroke-linejoin="round" stroke-dasharray="6 6"/>
<path d="M158.4 209.5H193.8" stroke="white" stroke-width="2" stroke-miterlimit="10" stroke-linecap="round" stroke-linejoin="round" stroke-dasharray="6 6"/>
<path d="M158 206.2H151.3V212.9H158V206.2Z" stroke="white" stroke-width="2" stroke-miterlimit="10" stroke-linecap="round" stroke-linejoin="round"/>
<path d="M200.9 206.2H194.2V212.9H200.9V206.2Z" stroke="white" stroke-width="2" stroke-miterlimit="10" stroke-linecap="round" stroke-linejoin="round"/>
<path d="M158 249.1H151.3V255.8H158V249.1Z" stroke="white" stroke-width="2" stroke-miterlimit="10" stroke-linecap="round" stroke-linejoin="round"/>
<path d="M200.9 249.1H194.2V255.8H200.9V249.1Z" stroke="white" stroke-width="2" stroke-miterlimit="10" stroke-linecap="round" stroke-linejoin="round"/>
<path d="M374.241 96.5038C374.248 94.2947 372.463 92.498 370.254 92.4909C368.045 92.4838 366.248 94.2688 366.241 96.478C366.234 98.6871 368.019 100.484 370.228 100.491C372.437 100.498 374.234 98.713 374.241 96.5038Z" stroke="white" stroke-width="2" stroke-miterlimit="10" stroke-linecap="round" stroke-linejoin="round"/>
<path d="M370.2 111.3C373.6 111.3 376.3 108.6 376.3 105.2V104.3C376.3 103.7 375.8 103.2 375.2 103.2H365.2C364.6 103.2 364.1 103.7 364.1 104.3V105.2C364.1 108.6 366.8 111.3 370.2 111.3Z" stroke="white" stroke-width="2" stroke-miterlimit="10" stroke-linecap="round" stroke-linejoin="round"/>
<path d="M360.229 89.4484C360.236 87.2392 358.451 85.4426 356.242 85.4354C354.033 85.4283 352.236 87.2133 352.229 89.4225C352.222 91.6316 354.007 93.4283 356.216 93.4354C358.425 93.4426 360.222 91.6575 360.229 89.4484Z" stroke="white" stroke-width="2" stroke-miterlimit="10" stroke-linecap="round" stroke-linejoin="round"/>
<path d="M356.2 104.2C359.6 104.2 362.3 101.5 362.3 98.1V97.2C362.3 96.6 361.8 96.1 361.2 96.1H351.2C350.6 96.1 350.1 96.6 350.1 97.2V98.1C350 101.5 352.8 104.2 356.2 104.2Z" stroke="white" stroke-width="2" stroke-miterlimit="10" stroke-linecap="round" stroke-linejoin="round"/>
<path d="M342.1 115.7V79.5" stroke="white" stroke-width="2" stroke-miterlimit="10" stroke-linecap="round" stroke-linejoin="round" stroke-dasharray="6 6"/>
<path d="M381.3 119H345.9" stroke="white" stroke-width="2" stroke-miterlimit="10" stroke-linecap="round" stroke-linejoin="round" stroke-dasharray="6 6"/>
<path d="M385 79.9V114.9" stroke="white" stroke-width="2" stroke-miterlimit="10" stroke-linecap="round" stroke-linejoin="round" stroke-dasharray="6 6"/>
<path d="M345.9 76.1H381.3" stroke="white" stroke-width="2" stroke-miterlimit="10" stroke-linecap="round" stroke-linejoin="round" stroke-dasharray="6 6"/>
<path d="M345.5 72.8H338.8V79.5H345.5V72.8Z" stroke="white" stroke-width="2" stroke-miterlimit="10" stroke-linecap="round" stroke-linejoin="round"/>
<path d="M388.4 72.8H381.7V79.5H388.4V72.8Z" stroke="white" stroke-width="2" stroke-miterlimit="10" stroke-linecap="round" stroke-linejoin="round"/>
<path d="M345.5 115.7H338.8V122.4H345.5V115.7Z" stroke="white" stroke-width="2" stroke-miterlimit="10" stroke-linecap="round" stroke-linejoin="round"/>
<path d="M388.4 115.7H381.7V122.4H388.4V115.7Z" stroke="white" stroke-width="2" stroke-miterlimit="10" stroke-linecap="round" stroke-linejoin="round"/>
<path d="M553.173 228.341C553.18 226.132 551.395 224.335 549.186 224.328C546.976 224.321 545.18 226.106 545.173 228.315C545.165 230.524 546.951 232.321 549.16 232.328C551.369 232.335 553.165 230.55 553.173 228.341Z" stroke="white" stroke-width="2" stroke-miterlimit="10" stroke-linecap="round" stroke-linejoin="round"/>
<path d="M549.1 243.1C552.5 243.1 555.2 240.4 555.2 237V236.1C555.2 235.5 554.7 235 554.1 235H544.1C543.5 235 543 235.5 543 236.1V237C543 240.4 545.7 243.1 549.1 243.1Z" stroke="white" stroke-width="2" stroke-miterlimit="10" stroke-linecap="round" stroke-linejoin="round"/>
<path d="M539.161 221.185C539.169 218.976 537.383 217.18 535.174 217.172C532.965 217.165 531.169 218.95 531.161 221.159C531.154 223.369 532.939 225.165 535.148 225.172C537.358 225.18 539.154 223.394 539.161 221.185Z" stroke="white" stroke-width="2" stroke-miterlimit="10" stroke-linecap="round" stroke-linejoin="round"/>
<path d="M535.1 236C538.5 236 541.2 233.3 541.2 229.9V229C541.2 228.4 540.7 227.9 540.1 227.9H530.1C529.5 227.9 529 228.4 529 229V229.9C529 233.3 531.7 236 535.1 236Z" stroke="white" stroke-width="2" stroke-miterlimit="10" stroke-linecap="round" stroke-linejoin="round"/>
<path d="M521.1 247.5V211.3" stroke="white" stroke-width="2" stroke-miterlimit="10" stroke-linecap="round" stroke-linejoin="round" stroke-dasharray="6 6"/>
<path d="M560.2 250.8H524.8" stroke="white" stroke-width="2" stroke-miterlimit="10" stroke-linecap="round" stroke-linejoin="round" stroke-dasharray="6 6"/>
<path d="M564 211.7V246.7" stroke="white" stroke-width="2" stroke-miterlimit="10" stroke-linecap="round" stroke-linejoin="round" stroke-dasharray="6 6"/>
<path d="M524.8 207.9H560.2" stroke="white" stroke-width="2" stroke-miterlimit="10" stroke-linecap="round" stroke-linejoin="round" stroke-dasharray="6 6"/>
<path d="M524.4 204.6H517.7V211.3H524.4V204.6Z" stroke="white" stroke-width="2" stroke-miterlimit="10" stroke-linecap="round" stroke-linejoin="round"/>
<path d="M567.3 204.6H560.6V211.3H567.3V204.6Z" stroke="white" stroke-width="2" stroke-miterlimit="10" stroke-linecap="round" stroke-linejoin="round"/>
<path d="M524.4 247.5H517.7V254.2H524.4V247.5Z" stroke="white" stroke-width="2" stroke-miterlimit="10" stroke-linecap="round" stroke-linejoin="round"/>
<path d="M567.3 247.5H560.6V254.2H567.3V247.5Z" stroke="white" stroke-width="2" stroke-miterlimit="10" stroke-linecap="round" stroke-linejoin="round"/>
<path d="M310.4 251.5C308.5 251.5 306.8 251.2 305.2 250.6C303.6 250 302.3 249.1 301.1 247.9C299.9 246.7 299.1 245.4 298.4 243.8C297.8 242.2 297.5 240.5 297.5 238.6C297.5 236.7 297.8 235 298.4 233.4C299 231.8 299.9 230.5 301.1 229.3C302.2 228.2 303.6 227.3 305.2 226.6C306.8 225.9 308.5 225.7 310.4 225.7C312.3 225.7 314 226 315.6 226.6C317.2 227.2 318.5 228.1 319.7 229.3C320.8 230.4 321.7 231.8 322.4 233.4C323.1 235 323.3 236.7 323.3 238.6C323.3 240.1 323.1 241.5 322.7 242.6C322.3 243.8 321.7 244.7 321 245.4C320.3 246.1 319.5 246.4 318.5 246.4C317.7 246.4 317 246.1 316.5 245.6C316 245.1 315.7 244.4 315.7 243.6V242.8C315.4 243.3 314.9 243.7 314.4 244.1C313.8 244.5 313.2 244.8 312.5 245C311.8 245.2 311.1 245.3 310.4 245.3C309.1 245.3 307.9 245 306.9 244.4C305.9 243.8 305.1 243 304.5 242C303.9 241 303.6 239.8 303.6 238.5C303.6 237.2 303.9 236 304.5 235C305.1 234 305.9 233.2 306.9 232.6C307.9 232 309.1 231.7 310.4 231.7C311.7 231.7 312.9 232 313.9 232.6C314.9 233.2 315.7 234 316.3 235C316.9 236 317.2 237.2 317.2 238.5V243C317.2 243.6 317.3 244.1 317.6 244.4C317.8 244.7 318.1 244.8 318.5 244.8C319.1 244.8 319.7 244.5 320.2 244C320.7 243.5 321.1 242.7 321.4 241.8C321.7 240.9 321.8 239.8 321.8 238.5C321.8 236.8 321.5 235.3 321 233.9C320.4 232.5 319.7 231.3 318.6 230.3C317.6 229.3 316.4 228.5 315 227.9C313.6 227.3 312.1 227.1 310.4 227.1C308.7 227.1 307.2 227.4 305.8 227.9C304.4 228.5 303.2 229.2 302.2 230.3C301.2 231.3 300.4 232.5 299.9 233.9C299.4 235.3 299.1 236.8 299.1 238.5C299.1 240.2 299.4 241.7 299.9 243.1C300.5 244.5 301.2 245.7 302.2 246.7C303.2 247.7 304.4 248.5 305.8 249C307.2 249.5 308.7 249.8 310.4 249.8C311.2 249.8 312 249.7 312.9 249.5C313.8 249.3 314.5 249.1 315.1 248.8C315.4 248.6 315.7 248.6 315.9 248.7C316.1 248.8 316.2 249 316.2 249.3C316.2 249.6 316 249.9 315.5 250.2C315 250.5 314.3 250.8 313.4 251C312.5 251.2 311.6 251.5 310.4 251.5ZM310.4 243.9C311.4 243.9 312.3 243.7 313.1 243.2C313.9 242.7 314.5 242.1 315 241.3C315.5 240.5 315.7 239.6 315.7 238.6C315.7 237.6 315.5 236.6 315 235.8C314.5 235 313.9 234.4 313.1 233.9C312.3 233.4 311.4 233.2 310.4 233.2C309.4 233.2 308.5 233.4 307.7 233.9C306.9 234.4 306.3 235 305.8 235.8C305.3 236.6 305.1 237.5 305.1 238.6C305.1 239.6 305.3 240.5 305.8 241.3C306.3 242.1 306.9 242.7 307.7 243.2C308.5 243.7 309.4 243.9 310.4 243.9Z" fill="#FEDB8F" stroke="#FEDB8F" stroke-miterlimit="10"/>
<path d="M502.8 169.4C500.9 169.4 499.2 169.1 497.6 168.5C496 167.9 494.7 167 493.5 165.8C492.4 164.7 491.5 163.3 490.8 161.7C490.2 160.1 489.9 158.4 489.9 156.5C489.9 154.6 490.2 152.9 490.8 151.3C491.4 149.7 492.3 148.4 493.5 147.2C494.6 146.1 496 145.2 497.6 144.5C499.2 143.8 500.9 143.6 502.8 143.6C504.7 143.6 506.4 143.9 508 144.5C509.6 145.1 510.9 146 512.1 147.2C513.2 148.3 514.1 149.7 514.8 151.3C515.4 152.9 515.7 154.6 515.7 156.5C515.7 158 515.5 159.4 515.1 160.5C514.7 161.7 514.1 162.6 513.4 163.3C512.7 164 511.9 164.3 510.9 164.3C510.1 164.3 509.4 164 508.9 163.5C508.4 163 508.1 162.3 508.1 161.5V160.7C507.8 161.2 507.3 161.6 506.8 162C506.2 162.4 505.6 162.7 504.9 162.9C504.2 163.1 503.5 163.2 502.8 163.2C501.5 163.2 500.3 162.9 499.3 162.3C498.3 161.7 497.5 160.9 496.9 159.9C496.3 158.9 496 157.7 496 156.4C496 155.1 496.3 153.9 496.9 152.9C497.5 151.9 498.3 151.1 499.3 150.5C500.3 149.9 501.5 149.6 502.8 149.6C504.1 149.6 505.3 149.9 506.3 150.5C507.3 151.1 508.1 151.9 508.7 152.9C509.3 153.9 509.6 155.1 509.6 156.4V160.9C509.6 161.5 509.7 162 510 162.3C510.2 162.6 510.5 162.7 510.9 162.7C511.5 162.7 512.1 162.4 512.6 161.9C513.1 161.4 513.5 160.6 513.8 159.7C514.1 158.8 514.2 157.7 514.2 156.4C514.2 154.7 513.9 153.2 513.4 151.8C512.8 150.4 512.1 149.2 511 148.2C510 147.2 508.8 146.4 507.4 145.8C506 145.2 504.5 145 502.8 145C501.1 145 499.6 145.3 498.2 145.8C496.8 146.3 495.6 147.1 494.6 148.2C493.6 149.2 492.8 150.4 492.3 151.8C491.8 153.2 491.5 154.7 491.5 156.4C491.5 158.1 491.8 159.6 492.3 161C492.9 162.4 493.6 163.6 494.6 164.6C495.6 165.6 496.8 166.4 498.2 166.9C499.6 167.4 501.1 167.7 502.8 167.7C503.6 167.7 504.4 167.6 505.3 167.4C506.2 167.2 506.9 167 507.5 166.7C507.8 166.5 508.1 166.5 508.3 166.6C508.5 166.7 508.6 166.9 508.6 167.2C508.6 167.5 508.4 167.8 507.9 168.1C507.4 168.4 506.7 168.7 505.8 168.9C504.9 169.1 503.9 169.4 502.8 169.4ZM502.8 161.9C503.8 161.9 504.7 161.7 505.5 161.2C506.3 160.7 506.9 160.1 507.4 159.3C507.9 158.5 508.1 157.6 508.1 156.6C508.1 155.6 507.9 154.6 507.4 153.8C506.9 153 506.3 152.4 505.5 151.9C504.7 151.4 503.8 151.2 502.8 151.2C501.8 151.2 500.9 151.4 500.1 151.9C499.3 152.4 498.7 153 498.2 153.8C497.7 154.6 497.5 155.5 497.5 156.6C497.5 157.6 497.7 158.5 498.2 159.3C498.7 160.1 499.3 160.7 500.1 161.2C500.9 161.7 501.8 161.9 502.8 161.9Z" fill="#FEDB8F" stroke="#FEDB8F" stroke-miterlimit="10"/>
<path d="M83.4 187.3C81.5 187.3 79.8 187 78.2 186.4C76.6 185.8 75.3 184.9 74.1 183.7C73 182.6 72.1 181.2 71.4 179.6C70.8 178 70.5 176.3 70.5 174.4C70.5 172.5 70.8 170.8 71.4 169.2C72 167.6 72.9 166.3 74.1 165.1C75.2 164 76.6 163.1 78.2 162.4C79.8 161.7 81.5 161.5 83.4 161.5C85.3 161.5 87 161.8 88.6 162.4C90.2 163 91.5 163.9 92.7 165.1C93.8 166.2 94.7 167.6 95.4 169.2C96 170.8 96.3 172.5 96.3 174.4C96.3 175.9 96.1 177.3 95.7 178.4C95.3 179.6 94.7 180.5 94 181.2C93.3 181.9 92.5 182.2 91.5 182.2C90.7 182.2 90 181.9 89.5 181.4C89 180.9 88.7 180.2 88.7 179.4V178.6C88.4 179.1 87.9 179.5 87.4 179.9C86.8 180.3 86.2 180.6 85.5 180.8C84.8 181 84.1 181.1 83.4 181.1C82.1 181.1 80.9 180.8 79.9 180.2C78.9 179.6 78.1 178.8 77.5 177.8C76.9 176.8 76.6 175.6 76.6 174.3C76.6 173 76.9 171.8 77.5 170.8C78.1 169.8 78.9 169 79.9 168.4C80.9 167.8 82.1 167.5 83.4 167.5C84.7 167.5 85.9 167.8 86.9 168.4C87.9 169 88.7 169.8 89.3 170.8C89.9 171.8 90.2 173 90.2 174.3V178.8C90.2 179.4 90.3 179.9 90.6 180.2C90.8 180.5 91.1 180.6 91.5 180.6C92.1 180.6 92.7 180.3 93.2 179.8C93.7 179.3 94.1 178.5 94.4 177.6C94.7 176.7 94.8 175.6 94.8 174.3C94.8 172.6 94.5 171.1 94 169.7C93.4 168.3 92.7 167.1 91.6 166.1C90.6 165.1 89.4 164.3 88 163.7C86.6 163.1 85.1 162.9 83.4 162.9C81.7 162.9 80.2 163.2 78.8 163.7C77.4 164.2 76.2 165 75.2 166.1C74.2 167.1 73.4 168.3 72.9 169.7C72.4 171.1 72.1 172.6 72.1 174.3C72.1 176 72.4 177.5 72.9 178.9C73.5 180.3 74.2 181.5 75.2 182.5C76.2 183.5 77.4 184.3 78.8 184.8C80.2 185.3 81.7 185.6 83.4 185.6C84.2 185.6 85 185.5 85.9 185.3C86.8 185.1 87.5 184.9 88.1 184.6C88.4 184.4 88.7 184.4 88.9 184.5C89.1 184.6 89.2 184.8 89.2 185.1C89.2 185.4 89 185.7 88.5 186C88 186.3 87.3 186.6 86.4 186.8C85.6 187.2 84.6 187.3 83.4 187.3ZM83.4 179.8C84.4 179.8 85.3 179.6 86.1 179.1C86.9 178.6 87.5 178 88 177.2C88.5 176.4 88.7 175.5 88.7 174.5C88.7 173.5 88.5 172.5 88 171.7C87.5 170.9 86.9 170.3 86.1 169.8C85.3 169.3 84.4 169.1 83.4 169.1C82.4 169.1 81.5 169.3 80.7 169.8C79.9 170.3 79.3 170.9 78.8 171.7C78.3 172.5 78.1 173.4 78.1 174.5C78.1 175.5 78.3 176.4 78.8 177.2C79.3 178 79.9 178.6 80.7 179.1C81.5 179.5 82.4 179.8 83.4 179.8Z" fill="#FEDB8F" stroke="#FEDB8F" stroke-miterlimit="10"/>
<path d="M135.7 72.8C133.8 72.8 132.1 72.5 130.5 71.9C128.9 71.3 127.6 70.4 126.4 69.2C125.2 68 124.4 66.7 123.7 65.1C123.1 63.5 122.8 61.8 122.8 59.9C122.8 58 123.1 56.3 123.7 54.7C124.3 53.1 125.2 51.8 126.4 50.6C127.5 49.5 128.9 48.6 130.5 47.9C132.1 47.3 133.8 47 135.7 47C137.6 47 139.3 47.3 140.9 47.9C142.5 48.5 143.8 49.4 145 50.6C146.1 51.7 147 53.1 147.7 54.7C148.3 56.3 148.6 58 148.6 59.9C148.6 61.4 148.4 62.8 148 63.9C147.6 65.1 147 66 146.3 66.7C145.6 67.4 144.8 67.7 143.8 67.7C143 67.7 142.3 67.4 141.8 66.9C141.3 66.4 141 65.7 141 64.9V64.1C140.7 64.6 140.2 65 139.7 65.4C139.1 65.8 138.5 66.1 137.8 66.3C137.1 66.5 136.4 66.6 135.7 66.6C134.4 66.6 133.2 66.3 132.2 65.7C131.2 65.1 130.4 64.3 129.8 63.3C129.2 62.3 128.9 61.1 128.9 59.8C128.9 58.5 129.2 57.3 129.8 56.3C130.4 55.3 131.2 54.5 132.2 53.9C133.2 53.3 134.4 53 135.7 53C137 53 138.2 53.3 139.2 53.9C140.2 54.5 141 55.3 141.6 56.3C142.2 57.3 142.5 58.5 142.5 59.8V64.3C142.5 64.9 142.6 65.4 142.9 65.7C143.1 66 143.4 66.1 143.8 66.1C144.4 66.1 145 65.8 145.5 65.3C146 64.8 146.4 64 146.7 63.1C147 62.2 147.1 61.1 147.1 59.8C147.1 58.1 146.8 56.6 146.3 55.2C145.7 53.8 145 52.6 143.9 51.6C142.9 50.6 141.7 49.8 140.3 49.2C138.9 48.6 137.4 48.4 135.7 48.4C134 48.4 132.5 48.7 131.1 49.2C129.7 49.8 128.5 50.5 127.5 51.6C126.5 52.6 125.7 53.8 125.2 55.2C124.7 56.6 124.4 58.1 124.4 59.8C124.4 61.5 124.7 63 125.2 64.4C125.8 65.8 126.5 67 127.5 68C128.5 69 129.7 69.8 131.1 70.3C132.5 70.8 134 71.1 135.7 71.1C136.5 71.1 137.3 71 138.2 70.8C139.1 70.6 139.8 70.4 140.4 70.1C140.7 69.9 141 69.9 141.2 70C141.4 70.1 141.5 70.3 141.5 70.6C141.5 70.9 141.3 71.2 140.8 71.5C140.3 71.8 139.6 72.1 138.7 72.3C137.9 72.7 136.9 72.8 135.7 72.8ZM135.7 65.2C136.7 65.2 137.6 65 138.4 64.5C139.2 64 139.8 63.4 140.3 62.6C140.8 61.8 141 60.9 141 59.9C141 58.9 140.8 57.9 140.3 57.1C139.8 56.3 139.2 55.7 138.4 55.2C137.6 54.7 136.7 54.5 135.7 54.5C134.7 54.5 133.8 54.7 133 55.2C132.2 55.7 131.6 56.3 131.1 57.1C130.6 57.9 130.4 58.8 130.4 59.9C130.4 60.9 130.6 61.8 131.1 62.6C131.6 63.4 132.2 64 133 64.5C133.8 65 134.7 65.2 135.7 65.2Z" fill="#FEDB8F" stroke="#FEDB8F" stroke-miterlimit="10"/>
<path d="M231.7 151.8C229.8 151.8 228.1 151.5 226.5 150.9C224.9 150.3 223.6 149.4 222.4 148.2C221.3 147.1 220.4 145.7 219.7 144.1C219.1 142.5 218.8 140.8 218.8 138.9C218.8 137 219.1 135.3 219.7 133.7C220.3 132.1 221.2 130.8 222.4 129.6C223.5 128.5 224.9 127.6 226.5 126.9C228.1 126.3 229.8 126 231.7 126C233.6 126 235.3 126.3 236.9 126.9C238.5 127.5 239.8 128.4 241 129.6C242.1 130.7 243 132.1 243.7 133.7C244.3 135.3 244.6 137 244.6 138.9C244.6 140.4 244.4 141.8 244 142.9C243.6 144.1 243 145 242.3 145.7C241.6 146.4 240.8 146.7 239.8 146.7C239 146.7 238.3 146.4 237.8 145.9C237.3 145.4 237 144.7 237 143.9V143.1C236.7 143.6 236.2 144 235.7 144.4C235.1 144.8 234.5 145.1 233.8 145.3C233.1 145.5 232.4 145.6 231.7 145.6C230.4 145.6 229.2 145.3 228.2 144.7C227.2 144.1 226.4 143.3 225.8 142.3C225.2 141.3 224.9 140.1 224.9 138.8C224.9 137.5 225.2 136.3 225.8 135.3C226.4 134.3 227.2 133.5 228.2 132.9C229.2 132.3 230.4 132 231.7 132C233 132 234.2 132.3 235.2 132.9C236.2 133.5 237 134.3 237.6 135.3C238.2 136.3 238.5 137.5 238.5 138.8V143.3C238.5 143.9 238.6 144.4 238.9 144.7C239.1 145 239.4 145.1 239.8 145.1C240.4 145.1 241 144.8 241.5 144.3C242 143.8 242.4 143 242.7 142.1C243 141.2 243.1 140.1 243.1 138.8C243.1 137.1 242.8 135.6 242.3 134.2C241.7 132.8 241 131.6 239.9 130.6C238.9 129.6 237.7 128.8 236.3 128.2C234.9 127.6 233.4 127.4 231.7 127.4C230 127.4 228.5 127.7 227.1 128.2C225.7 128.7 224.5 129.5 223.5 130.6C222.5 131.6 221.7 132.8 221.2 134.2C220.7 135.6 220.4 137.1 220.4 138.8C220.4 140.5 220.7 142 221.2 143.4C221.8 144.8 222.5 146 223.5 147C224.5 148 225.7 148.8 227.1 149.3C228.5 149.8 230 150.1 231.7 150.1C232.5 150.1 233.3 150 234.2 149.8C235.1 149.6 235.8 149.4 236.4 149.1C236.7 148.9 237 148.9 237.2 149C237.4 149.1 237.5 149.3 237.5 149.6C237.5 149.9 237.3 150.2 236.8 150.5C236.3 150.8 235.6 151.1 234.7 151.3C233.8 151.7 232.8 151.8 231.7 151.8ZM231.7 144.3C232.7 144.3 233.6 144.1 234.4 143.6C235.2 143.1 235.8 142.5 236.3 141.7C236.8 140.9 237 140 237 139C237 138 236.8 137 236.3 136.2C235.8 135.4 235.2 134.8 234.4 134.3C233.6 133.8 232.7 133.6 231.7 133.6C230.7 133.6 229.8 133.8 229 134.3C228.2 134.8 227.6 135.4 227.1 136.2C226.6 137 226.4 137.9 226.4 139C226.4 140 226.6 140.9 227.1 141.7C227.6 142.5 228.2 143.1 229 143.6C229.7 144.1 230.6 144.3 231.7 144.3Z" fill="#FEDB8F" stroke="#FEDB8F" stroke-miterlimit="10"/>
<path d="M238 89.4C239.988 89.4 241.6 87.7882 241.6 85.8C241.6 83.8118 239.988 82.2 238 82.2C236.012 82.2 234.4 83.8118 234.4 85.8C234.4 87.7882 236.012 89.4 238 89.4Z" stroke="#0052CC" stroke-width="2" stroke-miterlimit="10"/>
<path d="M377.9 176.6C379.888 176.6 381.5 174.988 381.5 173C381.5 171.012 379.888 169.4 377.9 169.4C375.912 169.4 374.3 171.012 374.3 173C374.3 174.988 375.912 176.6 377.9 176.6Z" stroke="#0052CC" stroke-width="2" stroke-miterlimit="10"/>
<path d="M352.2 25.7C354.188 25.7 355.8 24.0882 355.8 22.1C355.8 20.1118 354.188 18.5 352.2 18.5C350.212 18.5 348.6 20.1118 348.6 22.1C348.6 24.0882 350.212 25.7 352.2 25.7Z" stroke="#0052CC" stroke-width="2" stroke-miterlimit="10"/>
<path d="M553.2 153.4C555.188 153.4 556.8 151.788 556.8 149.8C556.8 147.812 555.188 146.2 553.2 146.2C551.212 146.2 549.6 147.812 549.6 149.8C549.6 151.788 551.212 153.4 553.2 153.4Z" stroke="#0052CC" stroke-width="2" stroke-miterlimit="10"/>
<path d="M33.4999 249.1C35.4881 249.1 37.0999 247.488 37.0999 245.5C37.0999 243.512 35.4881 241.9 33.4999 241.9C31.5117 241.9 29.8999 243.512 29.8999 245.5C29.8999 247.488 31.5117 249.1 33.4999 249.1Z" stroke="#0052CC" stroke-width="2" stroke-miterlimit="10"/>
</g>
<defs>
<clipPath id="clip0">
<rect width="586" height="272" fill="white"/>
</clipPath>
</defs>
</svg>
