<svg width="38" height="42" viewBox="0 0 38 42" fill="none" xmlns="http://www.w3.org/2000/svg">
<g clip-path="url(#clip0)">
<path d="M33.3001 31.3C29.9001 41.4 20.8001 41 18.5001 41C16.6001 41 7.9001 41.4 4.1001 31.8" stroke="#0052CC" stroke-width="2" stroke-miterlimit="10"/>
<path d="M13.0001 26.7C15.154 26.7 16.9001 24.9539 16.9001 22.8C16.9001 20.6461 15.154 18.9 13.0001 18.9C10.8462 18.9 9.1001 20.6461 9.1001 22.8C9.1001 24.9539 10.8462 26.7 13.0001 26.7Z" stroke="#0052CC" stroke-width="2" stroke-miterlimit="10"/>
<path d="M21.8 34.2C21.1 35.1 20 35.8 18.7 35.8C17.4 35.8 16.2 35.2 15.5 34.2" stroke="#0052CC" stroke-width="2" stroke-miterlimit="10" stroke-linecap="round" stroke-linejoin="round"/>
<path d="M17 23C17.4412 23 17.9706 23 18.5 23C19.0294 23 19.5588 23 20 23" stroke="#0052CC" stroke-width="2" stroke-miterlimit="10" stroke-linecap="round" stroke-linejoin="round"/>
<path d="M24.1 26.7C26.2539 26.7 28 24.9539 28 22.8C28 20.6461 26.2539 18.9 24.1 18.9C21.946 18.9 20.2 20.6461 20.2 22.8C20.2 24.9539 21.946 26.7 24.1 26.7Z" stroke="#0052CC" stroke-width="2" stroke-miterlimit="10"/>
<path d="M3 17.1C12.6 17.1 19.2 10.7 20.9 8.99999C21 8.89999 21.3 8.89999 21.4 8.99999C22.5 10.2 29.6 16.1 34.3 16.1" stroke="#0052CC" stroke-width="2" stroke-miterlimit="10" stroke-linecap="round" stroke-linejoin="round"/>
<path d="M3 31.8C1.9 31.8 1 30.9 1 29.8V21.5C1 20.4 1.9 19.5 3 19.5C4.1 19.5 5 20.4 5 21.5V29.8C5.1 30.9 4.1 31.8 3 31.8Z" stroke="#0052CC" stroke-width="2" stroke-miterlimit="10" stroke-linecap="round" stroke-linejoin="round"/>
<path d="M32.3 24.7V21.5C32.3 20.4 33.2 19.5 34.3 19.5C35.4 19.5 36.3 20.4 36.3 21.5V29.8C36.3 30.9 35.4 31.8 34.3 31.8C33.2 31.8 32.3 30.9 32.3 29.8V24.7Z" stroke="#0052CC" stroke-width="2" stroke-miterlimit="10" stroke-linecap="round" stroke-linejoin="round"/>
<path d="M27.3 34.6H24.9C24.6 34.6 24.3 34.3 24.3 34C24.3 33.7 24.6 33.4 24.9 33.4H27.3C27.6 33.4 27.9 33.7 27.9 34C27.9 34.3 27.7 34.6 27.3 34.6Z" stroke="#0052CC" stroke-width="2" stroke-miterlimit="10"/>
<path d="M3 19.4V16.6C3 8 10.1 1 18.7 1C27.3 1 34.3 8 34.3 16.6V19.4" stroke="#0052CC" stroke-width="2" stroke-miterlimit="10"/>
<path d="M26.6001 34H29.0001C30.7001 34 32.2001 33.2 33.1001 31.8" stroke="#0052CC" stroke-width="2" stroke-miterlimit="10"/>
</g>
<defs>
<clipPath id="clip0">
<rect width="37.3" height="42" fill="white"/>
</clipPath>
</defs>
</svg>
