<svg width="37" height="38" viewBox="0 0 37 38" fill="none" xmlns="http://www.w3.org/2000/svg">
<path d="M20.8897 36.3375C29.7873 36.3375 37.0001 28.9297 37.0001 19.7917C37.0001 10.6537 29.7873 3.24585 20.8897 3.24585C11.9922 3.24585 4.7793 10.6537 4.7793 19.7917C4.7793 28.9297 11.9922 36.3375 20.8897 36.3375Z" fill="#95E196"/>
<path d="M17.4979 25.4917C16.2646 25.4917 15.1854 25.2542 14.2604 24.7001C13.3354 24.1459 12.5646 23.4334 12.025 22.4834C11.4854 21.5334 11.2542 20.4251 11.2542 19.2376C11.2542 17.9709 11.4854 16.9417 12.025 15.9917C12.5646 15.0417 13.2583 14.3292 14.1062 13.7751C15.0312 13.2209 16.0333 12.9834 17.1896 12.9834C18.3458 12.9834 19.3479 13.2209 20.1187 13.7751C20.9667 14.3292 21.5833 15.0417 22.0458 15.9126C22.5083 16.8626 22.6625 17.8917 22.6625 19.0792C22.6625 19.3959 22.5854 19.6334 22.3541 19.7917C22.2 19.9501 21.8917 20.1084 21.6604 20.1084H12.7187V18.2084H21.5833L20.6583 18.8417C20.6583 18.0501 20.5042 17.4167 20.1958 16.7834C19.8875 16.1501 19.5021 15.6751 19.0396 15.3584C18.5 15.0417 17.8833 14.8042 17.1896 14.8042C16.3416 14.8042 15.6479 14.9626 15.0312 15.3584C14.4146 15.7542 13.9521 16.2292 13.6437 16.9417C13.3354 17.5751 13.1812 18.3667 13.1812 19.1584C13.1812 19.9501 13.3354 20.7417 13.7208 21.3751C14.1062 22.0084 14.5687 22.5626 15.2625 22.9584C15.8791 23.3542 16.65 23.5126 17.4979 23.5126C17.9604 23.5126 18.4229 23.4334 18.8854 23.2751C19.3479 23.1167 19.7333 22.8792 20.0416 22.6417C20.2729 22.4834 20.5041 22.4042 20.7354 22.4042C20.9667 22.4042 21.1979 22.4834 21.4291 22.6417C21.6604 22.8792 21.8146 23.1167 21.8146 23.3542C21.8146 23.5917 21.7375 23.8292 21.4291 24.0667C20.8896 24.4626 20.2729 24.7792 19.5791 25.0959C18.8854 25.4126 18.1146 25.4917 17.4979 25.4917Z" fill="#0052CC"/>
<path d="M17.0354 36.4167C7.63125 36.4167 0 28.6584 0 19C0 9.34171 7.63125 1.58337 17.0354 1.58337C26.4396 1.58337 33.9937 9.42087 33.9937 19C33.9937 19.5542 33.5312 19.95 33.0687 19.95C32.5292 19.95 32.1437 19.475 32.1437 19C32.1437 10.45 25.3604 3.48337 17.0354 3.48337C8.71042 3.48337 1.92708 10.45 1.92708 19C1.92708 27.55 8.71042 34.5167 17.0354 34.5167C20.5812 34.5167 23.9729 33.25 26.6708 30.9542C27.0562 30.6375 27.6729 30.6375 27.9812 31.1125C28.2896 31.5084 28.2896 32.1417 27.8271 32.4584C24.8208 34.9917 20.9667 36.4167 17.0354 36.4167Z" fill="#0052CC"/>
<path d="M27.0563 33.0917L25.9772 31.5084C26.8251 30.8751 28.2126 29.6084 28.2126 27.6292C28.2126 25.2542 26.2855 23.2751 23.973 23.2751C22.9709 23.2751 21.9688 23.6709 21.2751 24.3042L20.0417 22.8001C21.1209 21.8501 22.5855 21.2959 23.973 21.2959C27.3647 21.2959 30.0626 24.1459 30.0626 27.5501C30.1397 29.6876 28.9834 31.6667 27.0563 33.0917Z" fill="#0052CC"/>
</svg>
