<svg width="38" height="38" viewBox="0 0 38 38" fill="none" xmlns="http://www.w3.org/2000/svg">
<g clip-path="url(#clip0)">
<path d="M21.4543 36.3375C30.5923 36.3375 38.0001 28.9297 38.0001 19.7917C38.0001 10.6537 30.5923 3.24585 21.4543 3.24585C12.3163 3.24585 4.90845 10.6537 4.90845 19.7917C4.90845 28.9297 12.3163 36.3375 21.4543 36.3375Z" fill="#FCAA90"/>
<path d="M17.2584 25.4916C16.1501 25.4916 15.1209 25.2541 14.2501 24.6999C13.3792 24.1458 12.6667 23.4333 12.1917 22.4833C11.7167 21.5333 11.4792 20.4249 11.4792 19.2374C11.4792 17.9708 11.7167 16.9416 12.2709 15.9916C12.8251 15.0416 13.5376 14.3291 14.4876 13.7749C15.4376 13.2208 16.5459 12.9833 17.7334 12.9833C18.9209 12.9833 20.0292 13.2208 20.9792 13.7749C21.9292 14.3291 22.6417 15.0416 23.1959 15.9916C23.7501 16.9416 23.9876 18.0499 23.9876 19.2374H22.6417C22.6417 20.4249 22.4042 21.5333 21.9292 22.4833C21.4542 23.4333 20.8209 24.1458 20.0292 24.6999C19.2376 25.2541 18.2876 25.4916 17.2584 25.4916ZM17.6542 30.5583C16.5459 30.5583 15.5959 30.3208 14.6459 29.9249C13.6959 29.5291 12.9042 28.8958 12.2709 28.0249C12.1126 27.7874 12.0334 27.4708 12.0334 27.2333C12.1126 26.9958 12.2709 26.7583 12.5084 26.5999C12.7459 26.4416 13.0626 26.3624 13.3792 26.4416C13.6959 26.5208 13.9334 26.6791 14.0917 26.9166C14.4876 27.4708 15.0417 27.8666 15.6751 28.1041C16.3084 28.4208 17.0209 28.4999 17.8126 28.4999C18.5251 28.4999 19.2376 28.3416 19.7917 27.9458C20.4251 27.6291 20.9001 27.0749 21.2167 26.3624C21.6126 25.6499 21.7709 24.8583 21.7709 23.8291V20.5833L22.4834 18.6041L23.9876 19.0791V23.9874C23.9876 25.1749 23.7501 26.2833 23.1959 27.2333C22.6417 28.1833 21.9292 28.9749 20.9792 29.5291C20.0292 30.2416 18.9209 30.5583 17.6542 30.5583ZM17.7334 23.4333C18.5251 23.4333 19.2376 23.2749 19.7917 22.8791C20.4251 22.4833 20.9001 22.0083 21.2167 21.3749C21.5334 20.7416 21.6917 20.0291 21.6917 19.1583C21.6917 18.2874 21.5334 17.5749 21.2167 16.9416C20.9001 16.3083 20.4251 15.8333 19.7917 15.4374C19.1584 15.0416 18.5251 14.8833 17.7334 14.8833C16.9417 14.8833 16.2292 15.0416 15.6751 15.4374C15.0417 15.8333 14.5667 16.3083 14.2501 16.9416C13.9334 17.5749 13.6959 18.2874 13.6959 19.1583C13.6959 20.0291 13.8542 20.7416 14.2501 21.3749C14.5667 22.0083 15.0417 22.4833 15.6751 22.8791C16.2292 23.2749 16.9417 23.4333 17.7334 23.4333Z" fill="#0052CC"/>
<path d="M17.4958 36.575C7.8375 36.575 0 28.6583 0 19C0 9.34165 7.8375 1.50415 17.4958 1.50415C19.95 1.50415 22.325 1.97915 24.5417 2.92915C25.0167 3.16665 25.2542 3.72082 25.0167 4.19582C24.8583 4.74998 24.225 4.98748 23.75 4.74998C21.7708 3.87915 19.7125 3.48332 17.4958 3.48332C8.94583 3.48332 1.97917 10.45 1.97917 19C1.97917 27.55 8.94583 34.5958 17.575 34.5958C26.125 34.5958 33.1708 27.6292 33.1708 19C33.1708 17.9708 33.0917 16.8625 32.8542 15.8333C32.775 15.2792 33.0917 14.8042 33.6458 14.6458C34.2 14.5667 34.675 14.8833 34.8333 15.4375C35.0708 16.625 35.15 17.8125 35.15 19C35.0708 28.6583 27.1542 36.575 17.4958 36.575Z" fill="#0052CC"/>
<path d="M23.9875 16.5458L22.0083 16.4667C22.0083 15.8333 22.1666 15.2 22.325 14.5667L24.1458 15.2C24.0666 15.5958 23.9875 16.0708 23.9875 16.5458Z" fill="#0052CC"/>
<path d="M32.7749 15.9126C32.6166 14.7251 31.9832 13.6959 31.0332 12.9834C30.0832 12.2709 28.8957 12.0334 27.7082 12.1917C26.0457 12.4292 24.7791 13.6167 24.2249 15.1209L22.4041 14.4876C23.1957 12.2709 25.0957 10.6084 27.4707 10.2126C30.9541 9.6584 34.1999 12.0334 34.7541 15.5167L32.7749 15.9126Z" fill="#0052CC"/>
<path d="M23.9875 16.15H22.0083V21.2167H23.9875V16.15Z" fill="#0052CC"/>
</g>
<defs>
<clipPath id="clip0">
<rect width="38" height="38" fill="white"/>
</clipPath>
</defs>
</svg>
