<svg width="143" height="142" viewBox="0 0 143 142" fill="none" xmlns="http://www.w3.org/2000/svg">
<path d="M71.3407 141.81C70.7342 141.81 70.1276 141.66 69.521 141.51L56.6317 136.416C54.0538 135.367 52.8407 132.52 53.9021 129.973C54.9636 127.426 57.8448 126.227 60.4227 127.276L66.3366 129.673V62.2499L10.2299 39.326V107.049L17.6603 110.046C20.2381 111.094 21.4513 113.941 20.3898 116.488C19.3283 119.035 16.4472 120.234 13.8693 119.185L3.2545 114.99C1.28319 114.241 0.0700684 112.443 0.0700684 110.345V31.9843C0.0700684 30.3362 0.979906 28.8379 2.34466 27.7891C3.70942 26.8901 5.5291 26.7403 7.04549 27.3396L73.1604 54.309C74.9801 55.0581 76.3448 56.8561 76.3448 58.9537V136.865C76.3448 138.513 75.5866 140.012 74.0702 140.911C73.1604 141.51 72.2505 141.81 71.3407 141.81Z" fill="#0052CC"/>
<path d="M71.3403 141.81C70.2788 141.81 69.369 141.51 68.4592 140.911C67.0944 140.012 66.1846 138.513 66.1846 136.865V58.9537C66.1846 57.0059 67.3977 55.0581 69.369 54.309L135.484 27.3396C137 26.7403 138.82 26.8901 140.185 27.7891C141.549 28.688 142.459 30.1863 142.459 31.9843V110.495C142.459 112.593 141.246 114.391 139.275 115.14L128.054 119.635C125.476 120.684 122.595 119.485 121.533 116.938C120.472 114.391 121.685 111.544 124.263 110.495L132.451 107.199V39.326L76.3444 62.2499V129.524L81.5002 127.426C84.0781 126.377 86.9592 127.576 88.0207 130.123C89.0822 132.67 87.869 135.517 85.2912 136.566L73.16 141.36C72.5534 141.66 71.9469 141.81 71.3403 141.81Z" fill="#0052CC"/>
<path d="M47.8363 19.8479C45.8649 19.8479 43.8936 18.6493 43.1354 16.7015C42.074 14.1544 43.2871 11.3076 45.8649 10.2588L69.3691 0.819539C70.5822 0.370049 71.947 0.370049 73.1601 0.819539L96.2093 9.95916C98.7872 11.008 100 13.8547 98.9388 16.4018C97.8773 18.949 94.9962 20.1476 92.4183 19.0988L71.3404 10.8581L49.8076 19.5483C49.0494 19.6981 48.4428 19.8479 47.8363 19.8479Z" fill="#0052CC"/>
</svg>
