<svg width="37" height="37" viewBox="0 0 37 37" fill="none" xmlns="http://www.w3.org/2000/svg">
<g clip-path="url(#clip0)">
<path d="M20.8897 35.3812C29.7873 35.3812 37.0001 28.1684 37.0001 19.2708C37.0001 10.3733 29.7873 3.1604 20.8897 3.1604C11.9922 3.1604 4.7793 10.3733 4.7793 19.2708C4.7793 28.1684 11.9922 35.3812 20.8897 35.3812Z" fill="#B1DEF5"/>
<path d="M14.3375 16.7271C14.0291 16.7271 13.7979 16.65 13.5666 16.4958C13.4125 16.3417 13.2583 16.1104 13.2583 15.8021C13.2583 15.4938 13.3354 15.2625 13.5666 15.1083C13.7208 14.9542 14.0291 14.8771 14.3375 14.8771H19.8104C20.1187 14.8771 20.35 14.9542 20.5812 15.1083C20.7354 15.2625 20.8896 15.4938 20.8896 15.8021C20.8896 16.0333 20.8125 16.2646 20.5812 16.4958C20.4271 16.65 20.1187 16.7271 19.8104 16.7271H14.3375ZM16.3416 26.5167C16.0333 26.5167 15.8021 26.4396 15.5708 26.2083C15.3396 25.9771 15.2625 25.7458 15.2625 25.3604V14.4917C15.2625 13.4125 15.4937 12.4875 15.8791 11.7167C16.2646 10.9458 16.8812 10.3292 17.6521 9.86667C18.4229 9.40417 19.2708 9.25 20.2729 9.25C20.5812 9.25 20.8896 9.32708 21.0437 9.55833C21.275 9.7125 21.3521 10.0208 21.3521 10.2521C21.3521 10.5604 21.275 10.7917 21.0437 10.9458C20.8125 11.1771 20.5812 11.2542 20.2729 11.2542C19.7333 11.2542 19.2708 11.4083 18.8083 11.6396C18.4229 11.8708 18.0375 12.2562 17.8833 12.6417C17.7291 13.0271 17.575 13.6437 17.575 14.1833V25.2833C17.575 25.5917 17.4979 25.9 17.2666 26.1313C17.0354 26.3625 16.7271 26.5167 16.3416 26.5167Z" fill="#0052CC"/>
<path d="M16.4187 35.5354C16.3417 35.5354 16.3417 35.5354 16.4187 35.5354C7.16875 35.15 0 27.6729 0 18.5C0 9.09585 7.63125 1.4646 17.0354 1.4646C26.4396 1.4646 34.1479 9.09585 34.1479 18.5C34.1479 24.7438 30.7563 30.525 25.2062 33.4542C24.7437 33.6854 24.1271 33.5313 23.8958 33.0688C23.6646 32.6063 23.8187 31.9896 24.2812 31.7583C29.1375 29.0604 32.2208 23.9729 32.2208 18.4229C32.2208 10.0979 25.4375 3.23752 17.0354 3.23752C8.63333 3.23752 1.92708 10.175 1.92708 18.5C1.92708 26.6708 8.325 33.3 16.4187 33.6083C16.9583 33.6083 17.3438 34.0709 17.3438 34.6104C17.3438 35.15 16.8812 35.5354 16.4187 35.5354Z" fill="#0052CC"/>
<path d="M16.4187 35.5354C15.802 35.5354 15.2625 34.9958 15.2625 34.3791V25.3604C15.2625 24.7437 15.802 24.2041 16.4187 24.2041C17.0354 24.2041 17.575 24.7437 17.575 25.3604V34.3791C17.4979 34.9958 17.0354 35.5354 16.4187 35.5354Z" fill="#0052CC"/>
</g>
<defs>
<clipPath id="clip0">
<rect width="37" height="37" fill="white"/>
</clipPath>
</defs>
</svg>
