<svg width="38" height="37" viewBox="0 0 38 37" fill="none" xmlns="http://www.w3.org/2000/svg">
<g clip-path="url(#clip0)">
<path d="M21.4543 35.15C30.5923 35.15 38.0001 27.9372 38.0001 19.0396C38.0001 10.1421 30.5923 2.9292 21.4543 2.9292C12.3163 2.9292 4.90845 10.1421 4.90845 19.0396C4.90845 27.9372 12.3163 35.15 21.4543 35.15Z" fill="#FEDB8F"/>
<path d="M28.2625 24.8209C26.6792 24.8209 25.0167 24.2813 23.75 23.125C22.4834 21.9688 21.6917 20.35 21.6125 18.5771L23.5917 18.5C23.6709 19.7334 24.225 20.8896 25.0959 21.7375C26.9959 23.4334 29.925 23.3563 31.6667 21.5063C32.3792 20.7355 32.8542 19.5021 32.9334 18.2688L34.9125 18.3459C34.8334 20.0417 34.2 21.7375 33.0917 22.8167C31.825 24.1271 30.0834 24.8209 28.2625 24.8209Z" fill="#0052CC"/>
<path d="M17.3376 24.5896C16.1501 24.5896 15.1209 24.3583 14.1709 23.8188C13.2209 23.2792 12.5084 22.5854 11.9543 21.5833C11.4001 20.6583 11.1626 19.5792 11.1626 18.4229C11.1626 17.2667 11.4001 16.1875 11.9543 15.2625C12.4293 14.3375 13.1418 13.6438 14.0126 13.1042C14.8834 12.5646 15.9126 12.3333 17.0209 12.3333C17.8918 12.3333 18.7626 12.4875 19.4751 12.8729C20.1876 13.2584 20.9001 13.7208 21.3751 14.3375V8.4021C21.3751 8.09377 21.4543 7.78543 21.6918 7.55418C21.9293 7.32293 22.1668 7.24585 22.4834 7.24585C22.8001 7.24585 23.1168 7.32293 23.3543 7.55418C23.5918 7.78543 23.6709 8.01668 23.6709 8.4021V18.5C23.6709 19.6563 23.4334 20.7354 22.8793 21.6604C22.3251 22.5854 21.6126 23.3563 20.6626 23.8958C19.6334 24.3583 18.5251 24.5896 17.3376 24.5896ZM17.3376 22.5854C18.1293 22.5854 18.7626 22.4313 19.3959 22.0458C20.0293 21.6604 20.5043 21.1979 20.8209 20.5813C21.1376 19.9646 21.3751 19.2708 21.3751 18.4229C21.3751 17.6521 21.2168 16.8813 20.8209 16.2646C20.5043 15.6479 20.0293 15.1854 19.3959 14.8C18.7626 14.4146 18.1293 14.2604 17.3376 14.2604C16.5459 14.2604 15.9126 14.4146 15.2793 14.8C14.6459 15.1854 14.1709 15.6479 13.8543 16.2646C13.5376 16.8813 13.3001 17.575 13.3001 18.4229C13.3001 19.1938 13.4584 19.8875 13.8543 20.5813C14.1709 21.1979 14.7251 21.7375 15.2793 22.0458C15.9126 22.4313 16.6251 22.5854 17.3376 22.5854Z" fill="#0052CC"/>
<path d="M17.4958 35.2271C7.8375 35.2271 0 27.5958 0 18.2688C0 8.86459 7.8375 1.31042 17.4958 1.31042C27.1542 1.31042 34.9125 8.94167 34.9125 18.2688C34.9125 18.8083 34.4375 19.1938 33.9625 19.1938C33.4083 19.1938 33.0125 18.7313 33.0125 18.2688C33.0125 9.94376 26.0458 3.16042 17.4958 3.16042C8.94583 3.16042 1.97917 9.94376 1.97917 18.2688C1.97917 26.5938 8.94583 33.3771 17.4958 33.3771C21.1375 33.3771 24.6208 32.1438 27.3917 29.9083C27.7875 29.6 28.4208 29.6 28.7375 30.0625C29.0542 30.4479 29.0542 31.0646 28.5792 31.3729C25.4917 33.8396 21.5333 35.2271 17.4958 35.2271Z" fill="#0052CC"/>
</g>
<defs>
<clipPath id="clip0">
<rect width="38" height="37" fill="white"/>
</clipPath>
</defs>
</svg>
