<svg width="42" height="42" viewBox="0 0 42 42" fill="none" xmlns="http://www.w3.org/2000/svg">
<path d="M41 31V38.5C41 39.9 39.9 41 38.6 41H3.4C2.1 41 1 39.9 1 38.5V3.5C1 2.1 2.1 1 3.4 1H38.6C39.9 1 41 2.1 41 3.5V24.5V31Z" stroke="#0052CC" stroke-width="2" stroke-miterlimit="10" stroke-linecap="round" stroke-linejoin="round"/>
<path d="M14.1999 12.2V13.4C14.1999 13.6 13.9999 13.8 13.7999 13.8H8.2999C8.0999 13.8 7.8999 13.6 7.8999 13.4V7.9C7.8999 7.7 8.0999 7.5 8.2999 7.5H13.7999C13.9999 7.5 14.1999 7.7 14.1999 7.9V11.2V12.2V12.2Z" stroke="#0052CC" stroke-width="2" stroke-miterlimit="10" stroke-linecap="round" stroke-linejoin="round"/>
<path d="M14.2 22.6V23.8C14.2 24 14 24.2 13.8 24.2H8.3C8.1 24.1 8 24 8 23.7V18.2C8 18 8.2 17.8 8.4 17.8H13.9C14.1 17.8 14.3 18 14.3 18.2V21.5V22.6H14.2Z" stroke="#0052CC" stroke-width="2" stroke-miterlimit="10" stroke-linecap="round" stroke-linejoin="round"/>
<path d="M14.1999 32.9V34.1C14.1999 34.3 13.9999 34.5 13.7999 34.5H8.2999C8.0999 34.5 7.8999 34.3 7.8999 34.1V28.6C7.8999 28.4 8.0999 28.2 8.2999 28.2H13.7999C13.9999 28.2 14.1999 28.4 14.1999 28.6V31.9V32.9V32.9Z" stroke="#0052CC" stroke-width="2" stroke-miterlimit="10" stroke-linecap="round" stroke-linejoin="round"/>
<path d="M18.3 10.7H35.2001" stroke="#0052CC" stroke-width="2" stroke-miterlimit="10" stroke-linecap="round" stroke-linejoin="round"/>
<path d="M18.3 21H35.2001" stroke="#0052CC" stroke-width="2" stroke-miterlimit="10" stroke-linecap="round" stroke-linejoin="round"/>
<path d="M18.3 31.3H35.2001" stroke="#0052CC" stroke-width="2" stroke-miterlimit="10" stroke-linecap="round" stroke-linejoin="round"/>
</svg>
