<svg width="37" height="38" viewBox="0 0 37 38" fill="none" xmlns="http://www.w3.org/2000/svg">
<path d="M21.1209 36.1792C29.8907 36.1792 37 28.8777 37 19.8708C37 10.864 29.8907 3.5625 21.1209 3.5625C12.351 3.5625 5.2417 10.864 5.2417 19.8708C5.2417 28.8777 12.351 36.1792 21.1209 36.1792Z" fill="#B6E2DF"/>
<path d="M16.8042 36.2583C7.55417 36.2583 0 28.5 0 19C0 16.8625 0.385417 14.725 1.15625 12.7458C1.31042 12.2708 1.92708 12.0333 2.38958 12.1916C2.85208 12.35 3.08333 12.9833 2.92917 13.4583C2.23542 15.2 1.92708 17.1 1.92708 19C1.92708 27.3916 8.63333 34.2791 16.8042 34.2791C24.975 34.2791 31.6812 27.4708 31.6812 19C31.6812 10.5291 24.975 3.7208 16.8042 3.7208C14.7229 3.7208 12.6417 4.1958 10.7917 5.06663C10.3292 5.30413 9.78958 5.06663 9.55833 4.59163C9.32708 4.11663 9.55833 3.56247 10.0208 3.32497C12.1792 2.37497 14.4917 1.8208 16.8042 1.8208C26.0542 1.8208 33.6083 9.57913 33.6083 19.0791C33.5312 28.5 26.0542 36.2583 16.8042 36.2583Z" fill="#0052CC"/>
<path d="M9.94367 25.4124C9.63534 25.4124 9.327 25.3333 9.17284 25.0958C8.94158 24.8583 8.8645 24.6208 8.8645 24.3041V14.3291C8.8645 14.0124 8.94158 13.6958 9.17284 13.5374C9.40409 13.2999 9.63534 13.2208 9.94367 13.2208C10.252 13.2208 10.5603 13.2999 10.7145 13.5374C10.9458 13.7749 11.0228 14.0124 11.0228 14.3291V24.3041C11.0228 24.6208 10.9458 24.9374 10.7145 25.0958C10.5603 25.3333 10.252 25.4124 9.94367 25.4124ZM17.2666 25.4124C16.9583 25.4124 16.6499 25.3333 16.4958 25.0958C16.2645 24.8583 16.1874 24.6208 16.1874 24.3041V17.8916C16.1874 16.9416 15.9562 16.2291 15.4937 15.8333C15.0312 15.4374 14.4145 15.0416 13.6437 15.0416C12.8728 15.0416 12.2562 15.2791 11.7937 15.8333C11.3312 16.3874 11.0228 17.0208 11.0228 17.8916H9.63534C9.63534 16.9416 9.7895 16.0708 10.1749 15.3583C10.5603 14.6458 11.0999 14.0124 11.7166 13.6166C12.4103 13.2208 13.1812 12.9833 14.0291 12.9833C14.877 12.9833 15.5708 13.1416 16.2645 13.5374C16.8812 13.9333 17.4208 14.4874 17.7291 15.1999C18.1145 15.9124 18.2687 16.7833 18.2687 17.8124V24.2249C18.2687 24.5416 18.1916 24.8583 17.9603 25.0166C17.8062 25.3333 17.5749 25.4124 17.2666 25.4124ZM24.5124 25.4124C24.2041 25.4124 23.8958 25.3333 23.7416 25.0958C23.5103 24.8583 23.4333 24.6208 23.4333 24.3041V17.8916C23.4333 16.9416 23.202 16.2291 22.7395 15.8333C22.277 15.4374 21.6603 15.0416 20.9666 15.0416C20.1958 15.0416 19.5791 15.2791 19.1166 15.8333C18.6541 16.3874 18.4228 17.0208 18.4228 17.8916H16.6499C16.6499 16.9416 16.8812 16.0708 17.2666 15.3583C17.652 14.6458 18.2687 14.0124 18.9624 13.6166C19.7333 13.2208 20.5041 12.9833 21.5062 12.9833C22.3541 12.9833 23.0478 13.1416 23.7416 13.5374C24.3583 13.9333 24.8978 14.4874 25.2062 15.1999C25.5916 15.9124 25.7458 16.7833 25.7458 17.8124V24.2249C25.7458 24.5416 25.6687 24.8583 25.4374 25.0166C25.1291 25.3333 24.8208 25.4124 24.5124 25.4124Z" fill="#0052CC"/>
<path d="M9.94386 15.5167C9.40428 15.5167 8.8647 15.1209 8.78762 14.5667C8.55637 12.825 7.16887 11.6375 5.47303 11.7959C4.2397 11.9542 3.16053 12.5875 2.77512 13.6959C2.54387 14.25 2.15845 14.6459 1.61887 14.4084C1.07928 14.1709 0.848032 13.5375 1.07928 12.9834C1.77303 11.1625 3.39178 9.81671 5.31887 9.57921C6.70637 9.42087 8.09387 9.81671 9.17303 10.6875C10.2522 11.5584 10.9459 12.825 11.1001 14.25C11.1772 14.8834 10.7147 15.4375 10.1751 15.5167C10.098 15.5167 10.0209 15.5167 9.94386 15.5167Z" fill="#0052CC"/>
</svg>
