<svg width="38" height="37" viewBox="0 0 38 37" fill="none" xmlns="http://www.w3.org/2000/svg">
<g clip-path="url(#clip0)">
<path d="M21.4543 35.3812C30.5923 35.3812 38.0001 28.1684 38.0001 19.2708C38.0001 10.3733 30.5923 3.1604 21.4543 3.1604C12.3163 3.1604 4.90845 10.3733 4.90845 19.2708C4.90845 28.1684 12.3163 35.3812 21.4543 35.3812Z" fill="#B3C1F4"/>
<path d="M17.7334 24.8208C16.5459 24.8208 15.4376 24.5895 14.4876 24.0499C13.5376 23.5104 12.8251 22.8166 12.2709 21.8916C11.7167 20.9666 11.4792 19.9645 11.4792 18.7312C11.4792 17.5749 11.7167 16.4958 12.2709 15.5708C12.8251 14.6458 13.5376 13.952 14.4876 13.4124C15.4376 12.8729 16.4667 12.6416 17.6542 12.6416C18.5251 12.6416 19.3959 12.7958 20.1084 13.1041C20.8209 13.4124 21.5334 13.952 22.0876 14.5687C22.3251 14.7999 22.4042 15.0312 22.3251 15.2624C22.2459 15.4937 22.0876 15.7249 21.8501 15.9562C21.6126 16.1104 21.3751 16.1874 21.1376 16.1104C20.9001 16.0333 20.6626 15.9562 20.4251 15.7249C19.7126 14.9541 18.7626 14.5687 17.6542 14.5687C16.8626 14.5687 16.2292 14.7229 15.5959 15.1083C15.0417 15.4166 14.5667 15.9562 14.2501 16.5729C13.9334 17.1895 13.7751 17.9604 13.7751 18.7312C13.7751 19.502 13.9334 20.1958 14.2501 20.8895C14.5667 21.5833 15.0417 21.9687 15.6751 22.3541C16.3084 22.7395 17.0209 22.8937 17.8126 22.8937C18.3667 22.8937 18.8417 22.8166 19.2376 22.7395C19.6334 22.5854 20.0292 22.4312 20.3459 22.1229C20.5834 21.9687 20.8209 21.8145 21.0584 21.8145C21.2959 21.8145 21.5334 21.8916 21.7709 22.0458C22.0084 22.277 22.1667 22.5083 22.1667 22.7395C22.1667 22.9708 22.0876 23.202 21.9292 23.4333C20.7417 24.3583 19.3959 24.8208 17.7334 24.8208Z" fill="#0052CC"/>
<path d="M17.4167 35.4583C7.8375 35.4583 0 27.9041 0 18.5C0 9.09579 7.8375 1.54163 17.4167 1.54163C26.9958 1.54163 34.8333 9.17287 34.8333 18.5C34.8333 19.0395 34.3583 19.425 33.8833 19.425C33.4083 19.425 32.9333 18.9625 32.9333 18.5C32.9333 10.175 25.9667 3.39163 17.4167 3.39163C8.86667 3.39163 1.97917 10.175 1.97917 18.5C1.97917 26.825 8.94583 33.6083 17.4167 33.6083C21.0583 33.6083 24.5417 32.375 27.3125 30.1395C27.7083 29.8312 28.3417 29.8312 28.6583 30.2937C28.975 30.6791 28.975 31.2958 28.5 31.6041C25.4917 34.0708 21.5333 35.4583 17.4167 35.4583Z" fill="#0052CC"/>
<path d="M27.7084 32.2208L26.6 30.6792C27.4709 30.0625 28.975 28.7521 28.975 26.7479C28.975 24.3583 26.9959 22.4312 24.5417 22.4312C23.5125 22.4312 22.4834 22.8167 21.6917 23.4333L20.425 21.9687C21.6125 21.0437 23.0375 20.5042 24.5417 20.5042C28.1042 20.5042 30.9542 23.2792 30.9542 26.7479C30.9542 28.8292 29.7667 30.8333 27.7084 32.2208Z" fill="#0052CC"/>
</g>
<defs>
<clipPath id="clip0">
<rect width="38" height="37" fill="white"/>
</clipPath>
</defs>
</svg>
