<svg width="586" height="273" viewBox="0 0 586 273" fill="none" xmlns="http://www.w3.org/2000/svg">
<g clip-path="url(#clip0)">
<path d="M4.4 272.9H586V60.8H4.4C2 60.8 0 62.8 0 65.2V268.5C0 270.9 2 272.9 4.4 272.9Z" fill="#FEDB8F"/>
<path d="M543.6 242.8C543.6 242.8 556.9 218.7 556.9 184.5C556.9 165.1 541 149.2 521.6 149.2C502.2 149.2 486.3 165.1 486.3 184.5C486.3 222.8 473 242.8 473 242.8H543.6Z" fill="#FCAA90"/>
<path d="M475.799 61.1L450.999 70.4C449.199 71.1 447.099 70.2 446.399 68.3L439.699 50.4C438.999 48.6 439.899 46.5 441.799 45.8L466.599 36.5C468.399 35.8 470.499 36.7 471.199 38.6L477.899 56.5C478.599 58.4 477.699 60.5 475.799 61.1Z" fill="white"/>
<path d="M436.899 52.9L454.799 55.7C456.899 56 458.999 55.2 460.299 53.6L471.899 39.7" stroke="#071146" stroke-width="2" stroke-miterlimit="10" stroke-linecap="round" stroke-linejoin="round"/>
<path d="M477.2 53.9L462.2 51.6" stroke="#071146" stroke-width="2" stroke-miterlimit="10" stroke-linecap="round" stroke-linejoin="round"/>
<path d="M452 55.4L442.2 67.1" stroke="#071146" stroke-width="2" stroke-miterlimit="10" stroke-linecap="round" stroke-linejoin="round"/>
<path d="M475.7 61.2L448.1 71.6C446.1 72.4 443.8 71.3 443 69.3L435.6 49.6C434.8 47.6 435.9 45.3 437.9 44.5L465.5 34.1C467.5 33.3 469.8 34.4 470.6 36.4L478 56.1C478.8 58.1 477.8 60.4 475.7 61.2Z" stroke="#071146" stroke-width="2" stroke-miterlimit="10" stroke-linecap="round" stroke-linejoin="round"/>
<path d="M277.099 235.9L252.299 245.2C250.499 245.9 248.399 245 247.699 243.1L240.999 225.2C240.299 223.4 241.199 221.3 243.099 220.6L267.899 211.3C269.699 210.6 271.799 211.5 272.499 213.4L279.199 231.3C279.899 233.2 278.999 235.2 277.099 235.9Z" fill="white"/>
<path d="M238.199 227.7L256.099 230.5C258.199 230.8 260.299 230 261.599 228.4L273.199 214.5" stroke="#071146" stroke-width="2" stroke-miterlimit="10" stroke-linecap="round" stroke-linejoin="round"/>
<path d="M278.5 228.7L263.5 226.4" stroke="#071146" stroke-width="2" stroke-miterlimit="10" stroke-linecap="round" stroke-linejoin="round"/>
<path d="M253.3 230.2L243.5 241.9" stroke="#071146" stroke-width="2" stroke-miterlimit="10" stroke-linecap="round" stroke-linejoin="round"/>
<path d="M277 236L249.4 246.4C247.4 247.2 245.1 246.1 244.3 244.1L236.9 224.4C236.1 222.4 237.2 220.1 239.2 219.3L266.8 208.9C268.8 208.1 271.1 209.2 271.9 211.2L279.3 230.9C280.1 232.9 279 235.2 277 236Z" stroke="#071146" stroke-width="2" stroke-miterlimit="10" stroke-linecap="round" stroke-linejoin="round"/>
<path d="M82.7993 233L57.9993 242.4C56.1993 243.1 54.0993 242.2 53.3993 240.3L46.6993 222.4C45.9993 220.6 46.8993 218.5 48.7993 217.8L73.5993 208.5C75.3993 207.8 77.4993 208.7 78.1993 210.6L84.8993 228.5C85.5993 230.3 84.6993 232.4 82.7993 233Z" fill="white"/>
<path d="M43.8994 224.8L61.7994 227.6C63.8994 227.9 65.9994 227.1 67.2994 225.5L78.8994 211.6" stroke="#071146" stroke-width="2" stroke-miterlimit="10" stroke-linecap="round" stroke-linejoin="round"/>
<path d="M84.1996 225.8L69.0996 223.5" stroke="#071146" stroke-width="2" stroke-miterlimit="10" stroke-linecap="round" stroke-linejoin="round"/>
<path d="M59.0002 227.3L49.2002 239" stroke="#071146" stroke-width="2" stroke-miterlimit="10" stroke-linecap="round" stroke-linejoin="round"/>
<path d="M82.6997 233.1L55.0998 243.5C53.0998 244.3 50.7998 243.2 49.9998 241.2L42.5998 221.5C41.7998 219.5 42.8998 217.2 44.8998 216.4L72.4998 206C74.4998 205.2 76.7998 206.3 77.5998 208.3L84.9998 228C85.7998 230 84.6997 232.3 82.6997 233.1Z" stroke="#071146" stroke-width="2" stroke-miterlimit="10" stroke-linecap="round" stroke-linejoin="round"/>
<path d="M248.801 127.6L225.801 114.4C224.101 113.4 223.501 111.2 224.501 109.5L234.001 92.9C235.001 91.2 237.201 90.6 238.901 91.6L261.901 104.8C263.601 105.8 264.201 108 263.201 109.7L253.701 126.3C252.701 127.9 250.501 128.5 248.801 127.6Z" fill="white"/>
<path d="M230.4 92.2L239.7 107.7C240.8 109.5 242.7 110.6 244.8 110.6L262.9 110.7" stroke="#071146" stroke-width="2" stroke-miterlimit="10" stroke-linecap="round" stroke-linejoin="round"/>
<path d="M255.3 124L247.5 110.9" stroke="#071146" stroke-width="2" stroke-miterlimit="10" stroke-linecap="round" stroke-linejoin="round"/>
<path d="M238.101 105.5L222.801 105.4" stroke="#071146" stroke-width="2" stroke-miterlimit="10" stroke-linecap="round" stroke-linejoin="round"/>
<path d="M248.7 127.5L223.1 112.8C221.2 111.7 220.6 109.3 221.6 107.4L232.1 89.1C233.2 87.2 235.6 86.6 237.5 87.6L263.1 102.3C265 103.4 265.6 105.8 264.6 107.7L254.1 126C253 127.9 250.6 128.6 248.7 127.5Z" stroke="#071146" stroke-width="2" stroke-miterlimit="10" stroke-linecap="round" stroke-linejoin="round"/>
<path d="M360.2 120.4L333.7 119.5C331.7 119.4 330.2 117.8 330.3 115.8L331 96.7C331.1 94.7 332.7 93.2 334.7 93.3L361.2 94.2C363.2 94.3 364.7 95.9 364.6 97.9L363.9 117C363.9 118.9 362.2 120.5 360.2 120.4Z" fill="white"/>
<path d="M327.5 97.8L342.9 107.2C344.7 108.3 346.9 108.4 348.8 107.4L364.9 99.1" stroke="#071146" stroke-width="2" stroke-miterlimit="10" stroke-linecap="round" stroke-linejoin="round"/>
<path d="M364.3 114.3L351.3 106.3" stroke="#071146" stroke-width="2" stroke-miterlimit="10" stroke-linecap="round" stroke-linejoin="round"/>
<path d="M340.4 106L326.9 113" stroke="#071146" stroke-width="2" stroke-miterlimit="10" stroke-linecap="round" stroke-linejoin="round"/>
<path d="M360.1 120.4L330.6 119.4C328.4 119.3 326.7 117.5 326.8 115.3L327.5 94.2C327.6 92 329.4 90.3 331.6 90.4L361.1 91.4C363.3 91.5 365 93.3 364.9 95.5L364.2 116.6C364.1 118.8 362.3 120.5 360.1 120.4Z" stroke="#071146" stroke-width="2" stroke-miterlimit="10" stroke-linecap="round" stroke-linejoin="round"/>
<path d="M210.094 176.117C216.12 169.88 215.95 159.939 209.714 153.912C203.477 147.886 193.536 148.056 187.509 154.292C181.482 160.529 181.652 170.47 187.889 176.497C194.126 182.524 204.067 182.354 210.094 176.117Z" fill="#95E196" stroke="#071146" stroke-width="2" stroke-miterlimit="10" stroke-linecap="round" stroke-linejoin="round"/>
<path d="M198.662 171.594C198.384 171.594 198.036 171.455 197.828 171.247L191.505 164.646C191.018 164.159 191.088 163.395 191.574 162.908C192.061 162.422 192.825 162.492 193.311 162.978L198.662 168.606L206.096 159.434C206.513 158.878 207.278 158.809 207.834 159.226C208.389 159.643 208.459 160.407 208.042 160.963L199.773 171.247C199.565 171.525 199.218 171.663 198.87 171.733C198.731 171.594 198.731 171.594 198.662 171.594Z" fill="white"/>
<path d="M483.072 125.64C489.921 118.551 489.728 107.252 482.64 100.403C475.551 93.5528 464.252 93.7462 457.403 100.834C450.553 107.923 450.746 119.222 457.834 126.072C464.923 132.921 476.222 132.728 483.072 125.64Z" fill="#95E196" stroke="#071146" stroke-width="2" stroke-miterlimit="10" stroke-linecap="round" stroke-linejoin="round"/>
<path d="M470.059 120.438C469.743 120.438 469.349 120.28 469.112 120.043L461.925 112.54C461.372 111.987 461.451 111.119 462.004 110.566C462.557 110.013 463.426 110.092 463.978 110.645L470.059 117.042L478.509 106.617C478.983 105.986 479.852 105.907 480.484 106.38C481.116 106.854 481.195 107.723 480.721 108.355L471.244 119.964C471.007 120.28 470.612 120.438 470.217 120.517C470.138 120.438 470.138 120.438 470.059 120.438Z" fill="white"/>
<path d="M353.507 39.2863C362.18 30.3107 361.935 16.0033 352.96 7.32985C343.984 -1.34364 329.677 -1.09877 321.004 7.87678C312.33 16.8523 312.575 31.1597 321.55 39.8332C330.526 48.5066 344.833 48.2618 353.507 39.2863Z" fill="#95E196" stroke="#071146" stroke-width="2" stroke-miterlimit="10" stroke-linecap="round" stroke-linejoin="round"/>
<path d="M337.1 32.8C336.7 32.8 336.2 32.6 335.9 32.3L326.8 22.8C326.1 22.1 326.2 21 326.9 20.3C327.6 19.6 328.7 19.7 329.4 20.4L337.1 28.5L347.8 15.3C348.4 14.5 349.5 14.4 350.3 15C351.1 15.6 351.2 16.7 350.6 17.5L338.7 32.3C338.4 32.7 337.9 32.9 337.4 33C337.2 32.8 337.1 32.8 337.1 32.8Z" fill="white"/>
<path d="M219.6 49.3C217.7 49.3 216 49 214.4 48.4C212.8 47.8 211.5 46.9 210.3 45.7C209.2 44.6 208.3 43.2 207.6 41.6C207 40 206.7 38.3 206.7 36.4C206.7 34.5 207 32.8 207.6 31.2C208.2 29.6 209.1 28.3 210.3 27.1C211.4 26 212.8 25.1 214.4 24.4C216 23.7 217.7 23.5 219.6 23.5C221.5 23.5 223.2 23.8 224.8 24.4C226.4 25 227.7 25.9 228.9 27.1C230 28.2 230.9 29.6 231.6 31.2C232.2 32.8 232.5 34.5 232.5 36.4C232.5 37.9 232.3 39.3 231.9 40.4C231.5 41.6 230.9 42.5 230.2 43.2C229.5 43.9 228.7 44.2 227.7 44.2C226.9 44.2 226.2 43.9 225.7 43.4C225.2 42.9 224.9 42.2 224.9 41.4V40.6C224.6 41.1 224.1 41.5 223.6 41.9C223 42.3 222.4 42.6 221.7 42.8C221 43 220.3 43.1 219.6 43.1C218.3 43.1 217.1 42.8 216.1 42.2C215.1 41.6 214.3 40.8 213.7 39.8C213.1 38.8 212.8 37.6 212.8 36.3C212.8 35 213.1 33.8 213.7 32.8C214.3 31.8 215.1 31 216.1 30.4C217.1 29.8 218.3 29.5 219.6 29.5C220.9 29.5 222.1 29.8 223.1 30.4C224.1 31 224.9 31.8 225.5 32.8C226.1 33.8 226.4 35 226.4 36.3V41C226.4 41.6 226.5 42.1 226.8 42.4C227 42.7 227.3 42.8 227.7 42.8C228.3 42.8 228.9 42.5 229.4 42C229.9 41.5 230.3 40.7 230.6 39.8C230.9 38.9 231 37.8 231 36.5C231 34.8 230.7 33.3 230.2 31.9C229.6 30.5 228.9 29.3 227.8 28.3C226.8 27.3 225.6 26.5 224.2 25.9C222.8 25.3 221.3 25.1 219.6 25.1C217.9 25.1 216.4 25.4 215 25.9C213.6 26.5 212.4 27.2 211.4 28.3C210.4 29.3 209.6 30.5 209.1 31.9C208.6 33.3 208.3 34.8 208.3 36.5C208.3 38.2 208.6 39.7 209.1 41.1C209.7 42.5 210.4 43.7 211.4 44.7C212.4 45.7 213.6 46.5 215 47C216.4 47.5 217.9 47.8 219.6 47.8C220.4 47.8 221.2 47.7 222.1 47.5C223 47.3 223.7 47.1 224.3 46.8C224.6 46.6 224.9 46.6 225.1 46.7C225.3 46.8 225.4 47 225.4 47.3C225.4 47.6 225.2 47.9 224.7 48.2C224.2 48.5 223.5 48.8 222.6 49C221.8 49.2 220.8 49.3 219.6 49.3ZM219.6 41.8C220.6 41.8 221.5 41.6 222.3 41.1C223.1 40.6 223.7 40 224.2 39.2C224.7 38.4 224.9 37.5 224.9 36.5C224.9 35.5 224.7 34.5 224.2 33.7C223.7 32.9 223.1 32.3 222.3 31.8C221.5 31.3 220.6 31.1 219.6 31.1C218.6 31.1 217.7 31.3 216.9 31.8C216.1 32.3 215.5 32.9 215 33.7C214.5 34.5 214.3 35.4 214.3 36.5C214.3 37.5 214.5 38.4 215 39.2C215.5 40 216.1 40.6 216.9 41.1C217.7 41.6 218.6 41.8 219.6 41.8Z" fill="#FCAA90"/>
<path d="M396.7 73.8C394.8 73.8 393.1 73.5 391.5 72.9C389.9 72.3 388.6 71.4 387.4 70.2C386.2 69 385.4 67.7 384.7 66.1C384.1 64.5 383.8 62.8 383.8 60.9C383.8 59 384.1 57.3 384.7 55.7C385.3 54.1 386.2 52.8 387.4 51.6C388.5 50.5 389.9 49.6 391.5 48.9C393.1 48.2 394.8 48 396.7 48C398.6 48 400.3 48.3 401.9 48.9C403.5 49.5 404.8 50.4 406 51.6C407.1 52.7 408 54.1 408.7 55.7C409.3 57.3 409.6 59 409.6 60.9C409.6 62.4 409.4 63.8 409 64.9C408.6 66.1 408 67 407.3 67.7C406.6 68.4 405.8 68.7 404.8 68.7C404 68.7 403.3 68.4 402.8 67.9C402.3 67.4 402 66.7 402 65.9V65.1C401.7 65.6 401.2 66 400.7 66.4C400.1 66.8 399.5 67.1 398.8 67.3C398.1 67.5 397.4 67.6 396.7 67.6C395.4 67.6 394.2 67.3 393.2 66.7C392.2 66.1 391.4 65.3 390.8 64.3C390.2 63.3 389.9 62.1 389.9 60.8C389.9 59.5 390.2 58.3 390.8 57.3C391.4 56.3 392.2 55.5 393.2 54.9C394.2 54.3 395.4 54 396.7 54C398 54 399.2 54.3 400.2 54.9C401.2 55.5 402 56.3 402.6 57.3C403.2 58.3 403.5 59.5 403.5 60.8V65.3C403.5 65.9 403.6 66.4 403.9 66.7C404.1 67 404.4 67.1 404.8 67.1C405.4 67.1 406 66.8 406.5 66.3C407 65.8 407.4 65 407.7 64.1C408 63.2 408.1 62.1 408.1 60.8C408.1 59.1 407.8 57.6 407.3 56.2C406.7 54.8 406 53.6 404.9 52.6C403.9 51.6 402.7 50.8 401.3 50.2C399.9 49.6 398.4 49.4 396.7 49.4C395 49.4 393.5 49.7 392.1 50.2C390.7 50.8 389.5 51.5 388.5 52.6C387.5 53.6 386.7 54.8 386.2 56.2C385.7 57.6 385.4 59.1 385.4 60.8C385.4 62.5 385.7 64 386.2 65.4C386.8 66.8 387.5 68 388.5 69C389.5 70 390.7 70.8 392.1 71.3C393.5 71.8 395 72.1 396.7 72.1C397.5 72.1 398.3 72 399.2 71.8C400.1 71.6 400.8 71.4 401.4 71.1C401.7 70.9 402 70.9 402.2 71C402.4 71.1 402.5 71.3 402.5 71.6C402.5 71.9 402.3 72.2 401.8 72.5C401.3 72.8 400.6 73.1 399.7 73.3C398.9 73.7 397.8 73.8 396.7 73.8ZM396.7 66.3C397.7 66.3 398.6 66.1 399.4 65.6C400.2 65.1 400.8 64.5 401.3 63.7C401.8 62.9 402 62 402 61C402 60 401.8 59 401.3 58.2C400.8 57.4 400.2 56.8 399.4 56.3C398.6 55.8 397.7 55.6 396.7 55.6C395.7 55.6 394.8 55.8 394 56.3C393.2 56.8 392.6 57.4 392.1 58.2C391.6 59 391.4 59.9 391.4 61C391.4 62 391.6 62.9 392.1 63.7C392.6 64.5 393.2 65.1 394 65.6C394.8 66.1 395.7 66.3 396.7 66.3Z" fill="#FCAA90"/>
<path d="M329.6 244.7C327.7 244.7 326 244.4 324.4 243.8C322.8 243.2 321.5 242.3 320.3 241.1C319.2 240 318.3 238.6 317.6 237C317 235.4 316.7 233.7 316.7 231.8C316.7 229.9 317 228.2 317.6 226.6C318.2 225 319.1 223.7 320.3 222.5C321.4 221.4 322.8 220.5 324.4 219.8C326 219.2 327.7 218.9 329.6 218.9C331.5 218.9 333.2 219.2 334.8 219.8C336.4 220.4 337.7 221.3 338.9 222.5C340 223.6 340.9 225 341.6 226.6C342.3 228.2 342.5 229.9 342.5 231.8C342.5 233.3 342.3 234.7 341.9 235.8C341.5 237 340.9 237.9 340.2 238.6C339.5 239.3 338.7 239.6 337.7 239.6C336.9 239.6 336.2 239.3 335.7 238.8C335.2 238.3 334.9 237.6 334.9 236.8V236C334.6 236.5 334.1 236.9 333.6 237.3C333 237.7 332.4 238 331.7 238.2C331 238.4 330.3 238.5 329.6 238.5C328.3 238.5 327.1 238.2 326.1 237.6C325.1 237 324.3 236.2 323.7 235.2C323.1 234.2 322.8 233 322.8 231.7C322.8 230.4 323.1 229.2 323.7 228.2C324.3 227.2 325.1 226.4 326.1 225.8C327.1 225.2 328.3 224.9 329.6 224.9C330.9 224.9 332.1 225.2 333.1 225.8C334.1 226.4 334.9 227.2 335.5 228.2C336.1 229.2 336.4 230.4 336.4 231.7V236.2C336.4 236.8 336.5 237.3 336.8 237.6C337 237.9 337.3 238 337.7 238C338.3 238 338.9 237.7 339.4 237.2C339.9 236.7 340.3 235.9 340.6 235C340.9 234.1 341 233 341 231.7C341 230 340.7 228.5 340.2 227.1C339.6 225.7 338.9 224.5 337.8 223.5C336.8 222.5 335.6 221.7 334.2 221.1C332.8 220.5 331.3 220.3 329.6 220.3C327.9 220.3 326.4 220.6 325 221.1C323.6 221.6 322.4 222.4 321.4 223.5C320.4 224.5 319.6 225.7 319.1 227.1C318.6 228.5 318.3 230 318.3 231.7C318.3 233.4 318.6 234.9 319.1 236.3C319.7 237.7 320.4 238.9 321.4 239.9C322.4 240.9 323.6 241.7 325 242.2C326.4 242.7 327.9 243 329.6 243C330.4 243 331.2 242.9 332.1 242.7C333 242.5 333.7 242.3 334.3 242C334.6 241.8 334.9 241.8 335.1 241.9C335.3 242 335.4 242.2 335.4 242.5C335.4 242.8 335.2 243.1 334.7 243.4C334.2 243.7 333.5 244 332.6 244.2C331.8 244.6 330.7 244.7 329.6 244.7ZM329.6 237.1C330.6 237.1 331.5 236.9 332.3 236.4C333.1 235.9 333.7 235.3 334.2 234.5C334.7 233.7 334.9 232.8 334.9 231.8C334.9 230.8 334.7 229.8 334.2 229C333.7 228.2 333.1 227.6 332.3 227.1C331.5 226.6 330.6 226.4 329.6 226.4C328.6 226.4 327.7 226.6 326.9 227.1C326.1 227.6 325.5 228.2 325 229C324.5 229.8 324.3 230.7 324.3 231.8C324.3 232.8 324.5 233.7 325 234.5C325.5 235.3 326.1 235.9 326.9 236.4C327.7 236.9 328.6 237.1 329.6 237.1Z" fill="#FCAA90"/>
<path d="M130.1 212.9C128.2 212.9 126.5 212.6 124.9 212C123.3 211.4 122 210.5 120.8 209.3C119.7 208.2 118.8 206.8 118.1 205.2C117.5 203.6 117.2 201.9 117.2 200C117.2 198.1 117.5 196.4 118.1 194.8C118.7 193.2 119.6 191.9 120.8 190.7C121.9 189.6 123.3 188.7 124.9 188C126.5 187.4 128.2 187.1 130.1 187.1C132 187.1 133.7 187.4 135.3 188C136.9 188.6 138.2 189.5 139.4 190.7C140.5 191.8 141.4 193.2 142.1 194.8C142.8 196.4 143 198.1 143 200C143 201.5 142.8 202.9 142.4 204C142 205.2 141.4 206.1 140.7 206.8C140 207.5 139.2 207.8 138.2 207.8C137.4 207.8 136.7 207.5 136.2 207C135.7 206.5 135.4 205.8 135.4 205V204.2C135.1 204.7 134.6 205.1 134.1 205.5C133.5 205.9 132.9 206.2 132.2 206.4C131.5 206.6 130.8 206.7 130.1 206.7C128.8 206.7 127.6 206.4 126.6 205.8C125.6 205.2 124.8 204.4 124.2 203.4C123.6 202.4 123.3 201.2 123.3 199.9C123.3 198.6 123.6 197.4 124.2 196.4C124.8 195.4 125.6 194.6 126.6 194C127.6 193.4 128.8 193.1 130.1 193.1C131.4 193.1 132.6 193.4 133.6 194C134.6 194.6 135.4 195.4 136 196.4C136.6 197.4 136.9 198.6 136.9 199.9V204.4C136.9 205 137 205.5 137.3 205.8C137.5 206.1 137.8 206.2 138.2 206.2C138.8 206.2 139.4 205.9 139.9 205.4C140.4 204.9 140.8 204.1 141.1 203.2C141.4 202.3 141.5 201.2 141.5 199.9C141.5 198.2 141.2 196.7 140.7 195.3C140.1 193.9 139.4 192.7 138.3 191.7C137.3 190.7 136.1 189.9 134.7 189.3C133.3 188.7 131.8 188.5 130.1 188.5C128.4 188.5 126.9 188.8 125.5 189.3C124.1 189.9 122.9 190.6 121.9 191.7C120.9 192.7 120.1 193.9 119.6 195.3C119.1 196.7 118.8 198.2 118.8 199.9C118.8 201.6 119.1 203.1 119.6 204.5C120.2 205.9 120.9 207.1 121.9 208.1C122.9 209.1 124.1 209.9 125.5 210.4C126.9 210.9 128.4 211.2 130.1 211.2C130.9 211.2 131.7 211.1 132.6 210.9C133.5 210.7 134.2 210.5 134.8 210.2C135.1 210 135.4 210 135.6 210.1C135.8 210.2 135.9 210.4 135.9 210.7C135.9 211 135.7 211.3 135.2 211.6C134.7 211.9 134 212.2 133.1 212.4C132.3 212.8 131.3 212.9 130.1 212.9ZM130.1 205.4C131.1 205.4 132 205.2 132.8 204.7C133.6 204.2 134.2 203.6 134.7 202.8C135.2 202 135.4 201.1 135.4 200.1C135.4 199.1 135.2 198.1 134.7 197.3C134.2 196.5 133.6 195.9 132.8 195.4C132 194.9 131.1 194.7 130.1 194.7C129.1 194.7 128.2 194.9 127.4 195.4C126.6 195.9 126 196.5 125.5 197.3C125 198.1 124.8 199 124.8 200.1C124.8 201.1 125 202 125.5 202.8C126 203.6 126.6 204.2 127.4 204.7C128.2 205.1 129.1 205.4 130.1 205.4Z" fill="#FCAA90"/>
<path d="M189.7 251.8C187.8 251.8 186.1 251.5 184.5 250.9C182.9 250.3 181.6 249.4 180.4 248.2C179.3 247.1 178.4 245.7 177.7 244.1C177.1 242.5 176.8 240.8 176.8 238.9C176.8 237 177.1 235.3 177.7 233.7C178.3 232.1 179.2 230.8 180.4 229.6C181.5 228.5 182.9 227.6 184.5 226.9C186.1 226.2 187.8 226 189.7 226C191.6 226 193.3 226.3 194.9 226.9C196.5 227.5 197.8 228.4 199 229.6C200.1 230.7 201 232.1 201.7 233.7C202.4 235.3 202.6 237 202.6 238.9C202.6 240.4 202.4 241.8 202 242.9C201.6 244.1 201 245 200.3 245.7C199.6 246.4 198.8 246.7 197.8 246.7C197 246.7 196.3 246.4 195.8 245.9C195.3 245.4 195 244.7 195 243.9V243.1C194.7 243.6 194.2 244 193.7 244.4C193.1 244.8 192.5 245.1 191.8 245.3C191.1 245.5 190.4 245.6 189.7 245.6C188.4 245.6 187.2 245.3 186.2 244.7C185.2 244.1 184.4 243.3 183.8 242.3C183.2 241.3 182.9 240.1 182.9 238.8C182.9 237.5 183.2 236.3 183.8 235.3C184.4 234.3 185.2 233.5 186.2 232.9C187.2 232.3 188.4 232 189.7 232C191 232 192.2 232.3 193.2 232.9C194.2 233.5 195 234.3 195.6 235.3C196.2 236.3 196.5 237.5 196.5 238.8V243.3C196.5 243.9 196.6 244.4 196.9 244.7C197.1 245 197.4 245.1 197.8 245.1C198.4 245.1 199 244.8 199.5 244.3C200 243.8 200.4 243 200.7 242.1C201 241.2 201.1 240.1 201.1 238.8C201.1 237.1 200.8 235.6 200.3 234.2C199.7 232.8 199 231.6 197.9 230.6C196.9 229.6 195.7 228.8 194.3 228.2C192.9 227.6 191.4 227.4 189.7 227.4C188 227.4 186.5 227.7 185.1 228.2C183.7 228.8 182.5 229.5 181.5 230.6C180.5 231.6 179.7 232.8 179.2 234.2C178.7 235.6 178.4 237.1 178.4 238.8C178.4 240.5 178.7 242 179.2 243.4C179.8 244.8 180.5 246 181.5 247C182.5 248 183.7 248.8 185.1 249.3C186.5 249.8 188 250.1 189.7 250.1C190.5 250.1 191.3 250 192.2 249.8C193.1 249.6 193.8 249.4 194.4 249.1C194.7 248.9 195 248.9 195.2 249C195.4 249.1 195.5 249.3 195.5 249.6C195.5 249.9 195.3 250.2 194.8 250.5C194.3 250.8 193.6 251.1 192.7 251.3C191.8 251.5 190.8 251.8 189.7 251.8ZM189.7 244.3C190.7 244.3 191.6 244.1 192.4 243.6C193.2 243.1 193.8 242.5 194.3 241.7C194.8 240.9 195 240 195 239C195 238 194.8 237 194.3 236.2C193.8 235.4 193.2 234.8 192.4 234.3C191.6 233.8 190.7 233.6 189.7 233.6C188.7 233.6 187.8 233.8 187 234.3C186.2 234.8 185.6 235.4 185.1 236.2C184.6 237 184.4 237.9 184.4 239C184.4 240 184.6 240.9 185.1 241.7C185.6 242.5 186.2 243.1 187 243.6C187.7 244.1 188.7 244.3 189.7 244.3Z" fill="#FCAA90"/>
<path d="M429.2 156.9L439.9 167.6" stroke="#FCAA90" stroke-width="2" stroke-miterlimit="10" stroke-linecap="round" stroke-linejoin="round"/>
<path d="M439.9 156.9L429.2 167.6" stroke="#FCAA90" stroke-width="2" stroke-miterlimit="10" stroke-linecap="round" stroke-linejoin="round"/>
<path d="M386.6 209.2L397.3 219.9" stroke="#FCAA90" stroke-width="2" stroke-miterlimit="10" stroke-linecap="round" stroke-linejoin="round"/>
<path d="M397.3 209.2L386.6 219.9" stroke="#FCAA90" stroke-width="2" stroke-miterlimit="10" stroke-linecap="round" stroke-linejoin="round"/>
<path d="M365.5 147L376.2 157.7" stroke="#FCAA90" stroke-width="2" stroke-miterlimit="10" stroke-linecap="round" stroke-linejoin="round"/>
<path d="M376.2 147L365.5 157.7" stroke="#FCAA90" stroke-width="2" stroke-miterlimit="10" stroke-linecap="round" stroke-linejoin="round"/>
<path d="M539.5 240.3C539.5 240.3 552.8 216.2 552.8 182C552.8 162.6 536.9 146.7 517.5 146.7C498.1 146.7 482.2 162.6 482.2 182C482.2 220.3 468.9 240.3 468.9 240.3H539.5Z" stroke="#071146" stroke-width="2" stroke-miterlimit="10" stroke-linecap="round" stroke-linejoin="round"/>
<path d="M495.9 182C495.9 220.3 482.6 240.3 482.6 240.3" stroke="#071146" stroke-width="2" stroke-miterlimit="10" stroke-linecap="round" stroke-linejoin="round"/>
<path d="M510.9 182C510.9 220.3 497.6 240.3 497.6 240.3" stroke="#071146" stroke-width="2" stroke-miterlimit="10" stroke-linecap="round" stroke-linejoin="round"/>
<path d="M525.8 182C525.8 220.3 512.5 240.3 512.5 240.3" stroke="#071146" stroke-width="2" stroke-miterlimit="10" stroke-linecap="round" stroke-linejoin="round"/>
<path d="M540.7 182C540.7 220.3 527.4 240.3 527.4 240.3" stroke="#071146" stroke-width="2" stroke-miterlimit="10" stroke-linecap="round" stroke-linejoin="round"/>
<path d="M520.3 23.3C517.3 23.3 514.9 25.7 514.9 28.7V149.1C514.9 152.1 517.3 154.5 520.3 154.5C523.3 154.5 525.7 152.1 525.7 149.1V28.7C525.7 25.7 523.3 23.3 520.3 23.3Z" fill="white"/>
<path d="M518.3 21.2C515.3 21.2 512.9 23.6 512.9 26.6V147C512.9 150 515.3 152.4 518.3 152.4C521.3 152.4 523.7 150 523.7 147V26.6C523.7 23.6 521.3 21.2 518.3 21.2Z" stroke="#071146" stroke-width="2" stroke-miterlimit="10" stroke-linecap="round" stroke-linejoin="round"/>
<path d="M68.5002 98.3H65.6002C63.4002 98.3 61.7002 100.1 61.7002 102.2V175.2C61.7002 177.4 63.5002 179.1 65.6002 179.1H68.5002C70.7002 179.1 72.4002 177.3 72.4002 175.2V102.2C72.5002 100.1 70.7002 98.3 68.5002 98.3Z" fill="#B6E2DF" stroke="#071146" stroke-width="2" stroke-miterlimit="10" stroke-linecap="round" stroke-linejoin="round"/>
<path d="M421.6 197.8C423.699 197.8 425.4 196.099 425.4 194C425.4 191.901 423.699 190.2 421.6 190.2C419.501 190.2 417.8 191.901 417.8 194C417.8 196.099 419.501 197.8 421.6 197.8Z" stroke="#071146" stroke-width="2" stroke-miterlimit="10" stroke-linecap="round" stroke-linejoin="round"/>
<path d="M355.3 193.5C357.399 193.5 359.1 191.799 359.1 189.7C359.1 187.601 357.399 185.9 355.3 185.9C353.201 185.9 351.5 187.601 351.5 189.7C351.5 191.799 353.201 193.5 355.3 193.5Z" stroke="#071146" stroke-width="2" stroke-miterlimit="10" stroke-linecap="round" stroke-linejoin="round"/>
<path d="M409.8 135.6C411.899 135.6 413.6 133.899 413.6 131.8C413.6 129.701 411.899 128 409.8 128C407.701 128 406 129.701 406 131.8C406 133.899 407.701 135.6 409.8 135.6Z" stroke="#071146" stroke-width="2" stroke-miterlimit="10" stroke-linecap="round" stroke-linejoin="round"/>
<path d="M429.2 224.3C431.299 224.3 433 222.599 433 220.5C433 218.401 431.299 216.7 429.2 216.7C427.102 216.7 425.4 218.401 425.4 220.5C425.4 222.599 427.102 224.3 429.2 224.3Z" stroke="#071146" stroke-width="2" stroke-miterlimit="10" stroke-linecap="round" stroke-linejoin="round"/>
<path d="M456.8 197.3C458.899 197.3 460.6 195.599 460.6 193.5C460.6 191.401 458.899 189.7 456.8 189.7C454.701 189.7 453 191.401 453 193.5C453 195.599 454.701 197.3 456.8 197.3Z" stroke="#071146" stroke-width="2" stroke-miterlimit="10" stroke-linecap="round" stroke-linejoin="round"/>
<path d="M160.7 110.1H48.7002C42.1002 110.1 36.7002 104.7 36.7002 98.1V52.8C36.7002 46.2 42.1002 40.8 48.7002 40.8H160.7C167.3 40.8 172.7 46.2 172.7 52.8V98.1C172.7 104.7 167.3 110.1 160.7 110.1Z" fill="#B3C1F4"/>
<path d="M167.2 105.8H31.2002V48.5C31.2002 41.9 36.6002 36.5 43.2002 36.5H155.2C161.8 36.5 167.2 41.9 167.2 48.5V105.8Z" stroke="#071146" stroke-width="2" stroke-miterlimit="10" stroke-linecap="round" stroke-linejoin="round"/>
<path d="M167.2 105.8H111.6V48.5C111.6 41.9 117 36.5 123.6 36.5H156.5" stroke="#071146" stroke-width="2" stroke-miterlimit="10" stroke-linecap="round" stroke-linejoin="round"/>
<path d="M154.5 148.6H123.5C116.9 148.6 111.5 143.2 111.5 136.6V105.6" stroke="#071146" stroke-width="2" stroke-miterlimit="10" stroke-linecap="round" stroke-linejoin="round"/>
<path d="M155.2 148.6H122.3" stroke="#071146" stroke-width="2" stroke-miterlimit="10" stroke-linecap="round" stroke-linejoin="round"/>
<path d="M111.5 105.8H167.1V136.6C167.1 143.2 161.7 148.6 155.1 148.6" stroke="#071146" stroke-width="2" stroke-miterlimit="10" stroke-linecap="round" stroke-linejoin="round"/>
<path d="M172.3 84.6L145.8 84.5C143.8 84.5 142.2 82.9 142.2 80.9L142.3 61.8C142.3 59.8 143.9 58.2 145.9 58.2L172.4 58.3C174.4 58.3 176 59.9 176 61.9L175.9 81C175.9 83 174.3 84.6 172.3 84.6Z" fill="white"/>
<path d="M138.8 63L154.5 71.9C156.3 72.9 158.5 72.9 160.4 71.9L176.2 63.1" stroke="#071146" stroke-width="2" stroke-miterlimit="10" stroke-linecap="round" stroke-linejoin="round"/>
<path d="M176.1 78.4L162.9 70.8" stroke="#071146" stroke-width="2" stroke-miterlimit="10" stroke-linecap="round" stroke-linejoin="round"/>
<path d="M152 70.8L138.7 78.2" stroke="#071146" stroke-width="2" stroke-miterlimit="10" stroke-linecap="round" stroke-linejoin="round"/>
<path d="M172.2 84.6L142.7 84.5C140.5 84.5 138.8 82.7 138.8 80.5L138.9 59.4C138.9 57.2 140.7 55.5 142.9 55.5L172.4 55.6C174.6 55.6 176.3 57.4 176.3 59.6L176.2 80.7C176.1 82.9 174.3 84.6 172.2 84.6Z" stroke="#071146" stroke-width="2" stroke-miterlimit="10" stroke-linecap="round" stroke-linejoin="round"/>
<path d="M313.1 186.8L286.6 186.7C284.6 186.7 283 185.1 283 183.1L283.1 164C283.1 162 284.7 160.4 286.7 160.4L313.2 160.5C315.2 160.5 316.8 162.1 316.8 164.1L316.7 183.2C316.6 185.2 315 186.8 313.1 186.8Z" fill="white"/>
<path d="M279.6 165.2L295.3 174.1C297.1 175.1 299.3 175.1 301.2 174.1L317 165.3" stroke="#071146" stroke-width="2" stroke-miterlimit="10" stroke-linecap="round" stroke-linejoin="round"/>
<path d="M316.9 180.5L303.6 173" stroke="#071146" stroke-width="2" stroke-miterlimit="10" stroke-linecap="round" stroke-linejoin="round"/>
<path d="M292.8 172.9L279.5 180.4" stroke="#071146" stroke-width="2" stroke-miterlimit="10" stroke-linecap="round" stroke-linejoin="round"/>
<path d="M312.9 186.8L283.4 186.7C281.2 186.7 279.5 184.9 279.5 182.7L279.6 161.6C279.6 159.4 281.4 157.7 283.6 157.7L313.1 157.8C315.3 157.8 317 159.6 317 161.8L316.9 182.9C316.9 185 315.1 186.8 312.9 186.8Z" stroke="#071146" stroke-width="2" stroke-miterlimit="10" stroke-linecap="round" stroke-linejoin="round"/>
<path d="M73.1 89.2C70.4341 89.2 68.0488 88.7791 65.8039 87.9372C63.5589 87.0953 61.7349 85.8326 60.0512 84.1488C58.5078 82.6054 57.245 80.6411 56.2628 78.3961C55.4209 76.1512 55 73.7659 55 71.1C55 68.4341 55.4209 66.0488 56.2628 63.8039C57.1047 61.5589 58.3674 59.7349 60.0512 58.0512C61.5946 56.5078 63.5589 55.245 65.8039 54.2628C68.0488 53.2806 70.4341 53 73.1 53C75.7659 53 78.1512 53.4209 80.3961 54.2628C82.6411 55.1047 84.4651 56.3674 86.1488 58.0512C87.6922 59.5946 88.955 61.5589 89.9372 63.8039C90.7791 66.0488 91.2 68.4341 91.2 71.1C91.2 73.2047 90.9194 75.169 90.3581 76.7124C89.7969 78.3961 88.955 79.6589 87.9729 80.6411C86.9907 81.6233 85.8682 82.0442 84.4651 82.0442C83.3426 82.0442 82.3605 81.6233 81.6589 80.9217C80.9574 80.2202 80.5364 79.238 80.5364 78.1155V76.993C80.1155 77.6946 79.414 78.2558 78.7124 78.8171C77.8706 79.3783 77.0287 79.7992 76.0465 80.0798C75.0643 80.3605 74.0822 80.5008 73.1 80.5008C71.276 80.5008 69.5923 80.0798 68.1892 79.238C66.7861 78.3961 65.6636 77.2736 64.8217 75.8705C63.9798 74.4674 63.5589 72.7837 63.5589 70.9597C63.5589 69.1357 63.9798 67.4519 64.8217 66.0488C65.6636 64.6457 66.7861 63.5233 68.1892 62.6814C69.5923 61.8395 71.276 61.4186 73.1 61.4186C74.924 61.4186 76.6078 61.8395 78.0109 62.6814C79.414 63.5233 80.5364 64.6457 81.3783 66.0488C82.2202 67.4519 82.6411 69.1357 82.6411 70.9597V77.5543C82.6411 78.3961 82.7814 79.0977 83.2023 79.5186C83.4829 79.9395 83.9039 80.0798 84.4651 80.0798C85.307 80.0798 86.1488 79.6589 86.8504 78.9574C87.5519 78.2558 88.1132 77.1333 88.5341 75.8705C88.955 74.6077 89.0953 73.0643 89.0953 71.2403C89.0953 68.855 88.6744 66.7504 87.9729 64.786C87.131 62.8217 86.1488 61.138 84.6054 59.7349C83.2023 58.3318 81.5186 57.2093 79.5543 56.3674C77.5899 55.5256 75.4853 55.245 73.1 55.245C70.7147 55.245 68.6101 55.6659 66.6457 56.3674C64.6814 57.2093 62.9977 58.1915 61.5946 59.7349C60.1915 61.138 59.069 62.8217 58.3675 64.786C57.6659 66.7504 57.245 68.855 57.245 71.2403C57.245 73.6256 57.6659 75.7302 58.3675 77.6946C59.2093 79.6589 60.1915 81.3426 61.5946 82.7457C62.9977 84.1488 64.6814 85.2713 66.6457 85.9729C68.6101 86.6744 70.7147 87.0953 73.1 87.0953C74.2225 87.0953 75.345 86.955 76.6078 86.6744C77.8706 86.3938 78.8527 86.1132 79.6946 85.6922C80.1155 85.4116 80.5364 85.4116 80.8171 85.5519C81.0977 85.6922 81.238 85.9729 81.238 86.3938C81.238 86.8147 80.9574 87.2357 80.2558 87.6566C79.5543 88.0775 78.5721 88.4984 77.3093 88.7791C76.1868 89.0597 74.7837 89.2 73.1 89.2ZM73.1 78.6767C74.5031 78.6767 75.7659 78.3961 76.8884 77.6946C78.0109 76.993 78.8527 76.1512 79.5543 75.0287C80.2558 73.9062 80.5364 72.6434 80.5364 71.2403C80.5364 69.8372 80.2558 68.4341 79.5543 67.3116C78.8527 66.1891 78.0109 65.3473 76.8884 64.6457C75.7659 63.9442 74.5031 63.6636 73.1 63.6636C71.6969 63.6636 70.4341 63.9442 69.3116 64.6457C68.1891 65.3473 67.3473 66.1891 66.6457 67.3116C65.9442 68.4341 65.6636 69.6969 65.6636 71.2403C65.6636 72.6434 65.9442 73.9062 66.6457 75.0287C67.3473 76.1512 68.1891 76.993 69.3116 77.6946C70.4341 78.3961 71.6969 78.6767 73.1 78.6767Z" fill="white"/>
</g>
<defs>
<clipPath id="clip0">
<rect width="586" height="272.9" fill="white"/>
</clipPath>
</defs>
</svg>
