<svg width="88" height="95" viewBox="0 0 88 95" fill="none" xmlns="http://www.w3.org/2000/svg">
<g clip-path="url(#clip0)">
<path d="M77.4 93.8999L17.1 93.6999C12.6 93.6999 9 89.9999 9 85.4999L9.1 41.8999C9.1 37.3999 12.8 33.7999 17.3 33.7999L77.6 33.9999C82.1 33.9999 85.7 37.6999 85.7 42.1999L85.6 85.7999C85.5 90.1999 81.8 93.8999 77.4 93.8999Z" fill="#B6E2DF"/>
<path d="M1.09961 44.7999L36.8996 65.0999C40.9996 67.4999 46.0996 67.4999 50.2996 65.0999L86.1996 44.9999" stroke="#071146" stroke-width="2" stroke-miterlimit="10" stroke-linecap="round" stroke-linejoin="round"/>
<path d="M86.1004 79.6L55.9004 62.5" stroke="#071146" stroke-width="2" stroke-miterlimit="10" stroke-linecap="round" stroke-linejoin="round"/>
<path d="M31.3 62.3999L1 79.2999" stroke="#071146" stroke-width="2" stroke-miterlimit="10" stroke-linecap="round" stroke-linejoin="round"/>
<path d="M77 93.8999L10 93.5999C5.1 93.5999 1 89.4999 1 84.5999L1.2 36.7C1.2 31.8 5.3 27.7 10.2 27.7L77.3 27.9C82.2 27.9 86.3 32 86.3 36.9L86.1 84.8C86 89.9 82 93.8999 77 93.8999Z" stroke="#071146" stroke-width="2" stroke-miterlimit="10" stroke-linecap="round" stroke-linejoin="round"/>
<path d="M60.0147 39.2933C68.6882 30.3178 68.4433 16.0104 59.4678 7.33692C50.4922 -1.33657 36.1849 -1.09171 27.5114 7.88384C18.8379 16.8594 19.0828 31.1667 28.0583 39.8402C37.0338 48.5137 51.3412 48.2689 60.0147 39.2933Z" fill="#95E196" stroke="#071146" stroke-width="2" stroke-miterlimit="10" stroke-linecap="round" stroke-linejoin="round"/>
<path d="M43.5999 32.8C43.1999 32.8 42.6999 32.6 42.3999 32.3L33.2999 22.8C32.5999 22.1 32.6999 21 33.3999 20.3C34.0999 19.6 35.1999 19.7 35.8999 20.4L43.5999 28.5L54.2999 15.3C54.8999 14.5 55.9999 14.4 56.7999 15C57.5999 15.6 57.6999 16.7 57.0999 17.5L44.9999 32.1C44.6999 32.5 44.1999 32.7 43.6999 32.8H43.5999Z" fill="white"/>
</g>
<defs>
<clipPath id="clip0">
<rect width="87.2" height="94.9" fill="white"/>
</clipPath>
</defs>
</svg>
