<svg width="586" height="273" viewBox="0 0 586 273" fill="none" xmlns="http://www.w3.org/2000/svg">
<g clip-path="url(#clip0)">
<path d="M581.6 60.1H0V272.2H581.6C584 272.2 586 270.2 586 267.8V64.5C586 62 584 60.1 581.6 60.1Z" fill="#95E196"/>
<path d="M140.8 82.4C151.1 81.3 162 83.8 169.8 90.6C177.6 97.4 181.7 108.7 178.5 118.5C175.4 128.3 164.4 135.4 154.3 132.9C150.2 131.9 146.2 129.1 144.8 125.1C141.7 116.3 151.2 108.2 160 105C179.9 97.8 202.9 99.6 221.3 110.2C239.7 120.8 252.8 140 255.6 161C256.9 170.6 255.9 180.9 250.7 189.1C245.5 197.3 235.3 202.7 225.9 200.4C216.5 198.1 209.8 186.7 214 178C216.2 173.4 220.7 170.4 225.4 168.4C230.6 166.3 236.2 165.2 241.8 165.3C256.5 165.6 269.6 173.7 283.2 179.2C304.5 187.7 331.9 188.5 347.1 171.3C355.7 161.6 358.6 148.1 359 135.2C359.2 129.7 358.9 124.1 356.2 119.3C353.6 114.5 348 111 342.7 112.2C335.8 113.9 332.9 122.9 335.2 129.6C337.5 136.3 343.5 141.1 349.3 145.2C359.8 152.7 370.7 159.5 382.1 165.6" stroke="white" stroke-width="2" stroke-miterlimit="10" stroke-linecap="round" stroke-linejoin="round" stroke-dasharray="6 6"/>
<path d="M167.1 226H164.6C163.5 226 162.6 225.1 162.6 224V221.5C162.6 220.4 163.5 219.5 164.6 219.5H167.1C168.2 219.5 169.1 220.4 169.1 221.5V224C169.1 225.1 168.2 226 167.1 226Z" fill="white" stroke="#071146" stroke-width="2" stroke-miterlimit="10" stroke-linecap="round" stroke-linejoin="round"/>
<path d="M173.6 222.8H190.8" stroke="#071146" stroke-width="2" stroke-miterlimit="10" stroke-linecap="round" stroke-linejoin="round"/>
<path d="M167.1 237.3H164.6C163.5 237.3 162.6 236.4 162.6 235.3V232.8C162.6 231.7 163.5 230.8 164.6 230.8H167.1C168.2 230.8 169.1 231.7 169.1 232.8V235.3C169.1 236.4 168.2 237.3 167.1 237.3Z" fill="white" stroke="#071146" stroke-width="2" stroke-miterlimit="10" stroke-linecap="round" stroke-linejoin="round"/>
<path d="M173.6 234.1H190.8" stroke="#071146" stroke-width="2" stroke-miterlimit="10" stroke-linecap="round" stroke-linejoin="round"/>
<path d="M167.1 248.6H164.6C163.5 248.6 162.6 247.7 162.6 246.6V244.1C162.6 243 163.5 242.1 164.6 242.1H167.1C168.2 242.1 169.1 243 169.1 244.1V246.6C169.1 247.7 168.2 248.6 167.1 248.6Z" fill="white" stroke="#071146" stroke-width="2" stroke-miterlimit="10" stroke-linecap="round" stroke-linejoin="round"/>
<path d="M173.6 245.4H190.8" stroke="#071146" stroke-width="2" stroke-miterlimit="10" stroke-linecap="round" stroke-linejoin="round"/>
<path d="M207 226H204.5C203.4 226 202.5 225.1 202.5 224V221.5C202.5 220.4 203.4 219.5 204.5 219.5H207C208.1 219.5 209 220.4 209 221.5V224C209 225.1 208.1 226 207 226Z" fill="white" stroke="#071146" stroke-width="2" stroke-miterlimit="10" stroke-linecap="round" stroke-linejoin="round"/>
<path d="M213.4 222.8H230.7" stroke="#071146" stroke-width="2" stroke-miterlimit="10" stroke-linecap="round" stroke-linejoin="round"/>
<path d="M207 237.3H204.5C203.4 237.3 202.5 236.4 202.5 235.3V232.8C202.5 231.7 203.4 230.8 204.5 230.8H207C208.1 230.8 209 231.7 209 232.8V235.3C209 236.4 208.1 237.3 207 237.3Z" fill="white" stroke="#071146" stroke-width="2" stroke-miterlimit="10" stroke-linecap="round" stroke-linejoin="round"/>
<path d="M213.4 234.1H230.7" stroke="#071146" stroke-width="2" stroke-miterlimit="10" stroke-linecap="round" stroke-linejoin="round"/>
<path d="M207 248.6H204.5C203.4 248.6 202.5 247.7 202.5 246.6V244.1C202.5 243 203.4 242.1 204.5 242.1H207C208.1 242.1 209 243 209 244.1V246.6C209 247.7 208.1 248.6 207 248.6Z" fill="white" stroke="#071146" stroke-width="2" stroke-miterlimit="10" stroke-linecap="round" stroke-linejoin="round"/>
<path d="M213.4 245.4H230.7" stroke="#071146" stroke-width="2" stroke-miterlimit="10" stroke-linecap="round" stroke-linejoin="round"/>
<path d="M252.3 226H249.8C248.7 226 247.8 225.1 247.8 224V221.5C247.8 220.4 248.7 219.5 249.8 219.5H252.3C253.4 219.5 254.3 220.4 254.3 221.5V224C254.3 225.1 253.4 226 252.3 226Z" fill="white" stroke="#071146" stroke-width="2" stroke-miterlimit="10" stroke-linecap="round" stroke-linejoin="round"/>
<path d="M258.8 222.8H276" stroke="#071146" stroke-width="2" stroke-miterlimit="10" stroke-linecap="round" stroke-linejoin="round"/>
<path d="M252.3 237.3H249.8C248.7 237.3 247.8 236.4 247.8 235.3V232.8C247.8 231.7 248.7 230.8 249.8 230.8H252.3C253.4 230.8 254.3 231.7 254.3 232.8V235.3C254.3 236.4 253.4 237.3 252.3 237.3Z" fill="white" stroke="#071146" stroke-width="2" stroke-miterlimit="10" stroke-linecap="round" stroke-linejoin="round"/>
<path d="M258.8 234.1H276" stroke="#071146" stroke-width="2" stroke-miterlimit="10" stroke-linecap="round" stroke-linejoin="round"/>
<path d="M252.3 248.6H249.8C248.7 248.6 247.8 247.7 247.8 246.6V244.1C247.8 243 248.7 242.1 249.8 242.1H252.3C253.4 242.1 254.3 243 254.3 244.1V246.6C254.3 247.7 253.4 248.6 252.3 248.6Z" fill="white" stroke="#071146" stroke-width="2" stroke-miterlimit="10" stroke-linecap="round" stroke-linejoin="round"/>
<path d="M258.8 245.4H276" stroke="#071146" stroke-width="2" stroke-miterlimit="10" stroke-linecap="round" stroke-linejoin="round"/>
<path d="M292.199 226H289.699C288.599 226 287.699 225.1 287.699 224V221.5C287.699 220.4 288.599 219.5 289.699 219.5H292.199C293.299 219.5 294.199 220.4 294.199 221.5V224C294.199 225.1 293.299 226 292.199 226Z" fill="white" stroke="#071146" stroke-width="2" stroke-miterlimit="10" stroke-linecap="round" stroke-linejoin="round"/>
<path d="M298.6 222.8H315.9" stroke="#071146" stroke-width="2" stroke-miterlimit="10" stroke-linecap="round" stroke-linejoin="round"/>
<path d="M292.199 237.3H289.699C288.599 237.3 287.699 236.4 287.699 235.3V232.8C287.699 231.7 288.599 230.8 289.699 230.8H292.199C293.299 230.8 294.199 231.7 294.199 232.8V235.3C294.199 236.4 293.299 237.3 292.199 237.3Z" fill="white" stroke="#071146" stroke-width="2" stroke-miterlimit="10" stroke-linecap="round" stroke-linejoin="round"/>
<path d="M298.6 234.1H315.9" stroke="#071146" stroke-width="2" stroke-miterlimit="10" stroke-linecap="round" stroke-linejoin="round"/>
<path d="M292.199 248.6H289.699C288.599 248.6 287.699 247.7 287.699 246.6V244.1C287.699 243 288.599 242.1 289.699 242.1H292.199C293.299 242.1 294.199 243 294.199 244.1V246.6C294.199 247.7 293.299 248.6 292.199 248.6Z" fill="white" stroke="#071146" stroke-width="2" stroke-miterlimit="10" stroke-linecap="round" stroke-linejoin="round"/>
<path d="M298.6 245.4H315.9" stroke="#071146" stroke-width="2" stroke-miterlimit="10" stroke-linecap="round" stroke-linejoin="round"/>
<path d="M333.199 226H330.699C329.599 226 328.699 225.1 328.699 224V221.5C328.699 220.4 329.599 219.5 330.699 219.5H333.199C334.299 219.5 335.199 220.4 335.199 221.5V224C335.199 225.1 334.299 226 333.199 226Z" fill="white" stroke="#071146" stroke-width="2" stroke-miterlimit="10" stroke-linecap="round" stroke-linejoin="round"/>
<path d="M339.6 222.8H356.9" stroke="#071146" stroke-width="2" stroke-miterlimit="10" stroke-linecap="round" stroke-linejoin="round"/>
<path d="M333.199 237.3H330.699C329.599 237.3 328.699 236.4 328.699 235.3V232.8C328.699 231.7 329.599 230.8 330.699 230.8H333.199C334.299 230.8 335.199 231.7 335.199 232.8V235.3C335.199 236.4 334.299 237.3 333.199 237.3Z" fill="white" stroke="#071146" stroke-width="2" stroke-miterlimit="10" stroke-linecap="round" stroke-linejoin="round"/>
<path d="M339.6 234.1H356.9" stroke="#071146" stroke-width="2" stroke-miterlimit="10" stroke-linecap="round" stroke-linejoin="round"/>
<path d="M333.199 248.6H330.699C329.599 248.6 328.699 247.7 328.699 246.6V244.1C328.699 243 329.599 242.1 330.699 242.1H333.199C334.299 242.1 335.199 243 335.199 244.1V246.6C335.199 247.7 334.299 248.6 333.199 248.6Z" fill="white" stroke="#071146" stroke-width="2" stroke-miterlimit="10" stroke-linecap="round" stroke-linejoin="round"/>
<path d="M339.6 245.4H356.9" stroke="#071146" stroke-width="2" stroke-miterlimit="10" stroke-linecap="round" stroke-linejoin="round"/>
<path d="M307.8 30.1L281.3 30C279.3 30 277.7 28.4 277.7 26.4L277.8 7.3C277.8 5.3 279.4 3.7 281.4 3.7L307.9 3.8C309.9 3.8 311.5 5.4 311.5 7.4L311.4 26.5C311.4 28.5 309.8 30.1 307.8 30.1Z" fill="white"/>
<path d="M274.3 8.5L290 17.4C291.8 18.4 294 18.4 295.9 17.4L311.7 8.6" stroke="#071146" stroke-width="2" stroke-miterlimit="10" stroke-linecap="round" stroke-linejoin="round"/>
<path d="M311.699 23.8L298.399 16.3" stroke="#071146" stroke-width="2" stroke-miterlimit="10" stroke-linecap="round" stroke-linejoin="round"/>
<path d="M287.6 16.3L274.3 23.7" stroke="#071146" stroke-width="2" stroke-miterlimit="10" stroke-linecap="round" stroke-linejoin="round"/>
<path d="M307.7 30.1L278.2 30C276 30 274.3 28.2 274.3 26L274.4 4.9C274.4 2.7 276.2 1 278.4 1L307.9 1.1C310.1 1.1 311.8 2.9 311.8 5.1L311.7 26.2C311.6 28.3 309.9 30.1 307.7 30.1Z" stroke="#071146" stroke-width="2" stroke-miterlimit="10" stroke-linecap="round" stroke-linejoin="round"/>
<path d="M307.8 86.1L281.3 86C279.3 86 277.7 84.4 277.7 82.4L277.8 63.3C277.8 61.3 279.4 59.7 281.4 59.7L307.9 59.8C309.9 59.8 311.5 61.4 311.5 63.4L311.4 82.5C311.4 84.5 309.8 86.1 307.8 86.1Z" fill="white"/>
<path d="M274.3 64.5L290 73.4C291.8 74.4 294 74.4 295.9 73.4L311.7 64.6" stroke="#071146" stroke-width="2" stroke-miterlimit="10" stroke-linecap="round" stroke-linejoin="round"/>
<path d="M311.699 79.8L298.399 72.3" stroke="#071146" stroke-width="2" stroke-miterlimit="10" stroke-linecap="round" stroke-linejoin="round"/>
<path d="M287.6 72.2L274.3 79.7" stroke="#071146" stroke-width="2" stroke-miterlimit="10" stroke-linecap="round" stroke-linejoin="round"/>
<path d="M307.7 86.1L278.2 86C276 86 274.3 84.2 274.3 82L274.4 60.9C274.4 58.7 276.2 57 278.4 57L307.9 57.1C310.1 57.1 311.8 58.9 311.8 61.1L311.7 82.2C311.6 84.3 309.9 86.1 307.7 86.1Z" stroke="#071146" stroke-width="2" stroke-miterlimit="10" stroke-linecap="round" stroke-linejoin="round"/>
<path d="M307.8 142.1L281.3 142C279.3 142 277.7 140.4 277.7 138.4L277.8 119.3C277.8 117.3 279.4 115.7 281.4 115.7L307.9 115.8C309.9 115.8 311.5 117.4 311.5 119.4L311.4 138.5C311.4 140.5 309.8 142.1 307.8 142.1Z" fill="white"/>
<path d="M274.3 120.5L290 129.4C291.8 130.4 294 130.4 295.9 129.4L311.7 120.6" stroke="#071146" stroke-width="2" stroke-miterlimit="10" stroke-linecap="round" stroke-linejoin="round"/>
<path d="M311.699 135.8L298.399 128.3" stroke="#071146" stroke-width="2" stroke-miterlimit="10" stroke-linecap="round" stroke-linejoin="round"/>
<path d="M287.6 128.2L274.3 135.7" stroke="#071146" stroke-width="2" stroke-miterlimit="10" stroke-linecap="round" stroke-linejoin="round"/>
<path d="M307.7 142.1L278.2 142C276 142 274.3 140.2 274.3 138L274.4 116.9C274.4 114.7 276.2 113 278.4 113L307.9 113.1C310.1 113.1 311.8 114.9 311.8 117.1L311.7 138.2C311.6 140.3 309.9 142.1 307.7 142.1Z" stroke="#071146" stroke-width="2" stroke-miterlimit="10" stroke-linecap="round" stroke-linejoin="round"/>
<path d="M112.3 247.8H47.4996C41.9996 247.8 37.5996 243.3 37.5996 237.9V39.2C37.5996 33.7 42.0996 29.3 47.4996 29.3H116.6C122.1 29.3 126.5 33.8 126.5 39.2V233.2C126.5 234.6 125.9 235.9 125 236.9L115.6 246.4C114.7 247.3 113.5 247.8 112.3 247.8Z" fill="#FEDB8F"/>
<path d="M63.5361 48.8587C63.547 45.4898 60.8248 42.7499 57.4559 42.739C54.0869 42.7281 51.347 45.4503 51.3361 48.8193C51.3252 52.1882 54.0475 54.9281 57.4164 54.939C60.7853 54.9499 63.5252 52.2276 63.5361 48.8587Z" fill="white" stroke="#071146" stroke-width="2" stroke-miterlimit="10" stroke-linecap="round" stroke-linejoin="round"/>
<path d="M57.3004 71.3C62.5004 71.3 66.6004 67.2 66.7004 62V60.6C66.7004 59.7 65.9004 58.9 65.0004 58.9H49.8004C48.9004 58.9 48.1004 59.7 48.1004 60.6V62C48.0004 67.1 52.2004 71.3 57.3004 71.3Z" fill="white" stroke="#071146" stroke-width="2" stroke-miterlimit="10" stroke-linecap="round" stroke-linejoin="round"/>
<path d="M122.7 234.1V35.4C122.7 29.9 118.2 25.5 112.8 25.5H43.6002C38.1002 25.5 33.7002 30 33.7002 35.4V234.1C33.7002 239.6 38.2002 244 43.6002 244H112.7V234.1H122.7Z" stroke="#071146" stroke-width="2" stroke-miterlimit="10" stroke-linecap="round" stroke-linejoin="round"/>
<path d="M74.7998 50.2H107.3" stroke="#071146" stroke-width="2" stroke-miterlimit="10" stroke-linecap="round" stroke-linejoin="round"/>
<path d="M74.7998 59.7H107.3" stroke="#071146" stroke-width="2" stroke-miterlimit="10" stroke-linecap="round" stroke-linejoin="round"/>
<path d="M63.4922 86.3027C63.5031 82.9338 60.7808 80.1939 57.4119 80.183C54.043 80.1721 51.3031 82.8944 51.2922 86.2633C51.2813 89.6322 54.0035 92.3721 57.3725 92.383C60.7414 92.3939 63.4813 89.6717 63.4922 86.3027Z" fill="white" stroke="#071146" stroke-width="2" stroke-miterlimit="10" stroke-linecap="round" stroke-linejoin="round"/>
<path d="M57.3004 108.8C62.5004 108.8 66.6004 104.7 66.7004 99.5V98.1C66.7004 97.2 65.9004 96.4 65.0004 96.4H49.8004C48.9004 96.4 48.1004 97.2 48.1004 98.1V99.5C48.0004 104.6 52.2004 108.8 57.3004 108.8Z" fill="white" stroke="#071146" stroke-width="2" stroke-miterlimit="10" stroke-linecap="round" stroke-linejoin="round"/>
<path d="M76.2002 87.6H108.7" stroke="#071146" stroke-width="2" stroke-miterlimit="10" stroke-linecap="round" stroke-linejoin="round"/>
<path d="M76.2002 97H108.7" stroke="#071146" stroke-width="2" stroke-miterlimit="10" stroke-linecap="round" stroke-linejoin="round"/>
<path d="M63.5479 123.747C63.5587 120.378 60.8365 117.638 57.4676 117.627C54.0986 117.616 51.3587 120.339 51.3478 123.708C51.337 127.077 54.0592 129.816 57.4281 129.827C60.7971 129.838 63.537 127.116 63.5479 123.747Z" fill="white" stroke="#071146" stroke-width="2" stroke-miterlimit="10" stroke-linecap="round" stroke-linejoin="round"/>
<path d="M57.3004 146.2C62.5004 146.2 66.6004 142.1 66.7004 136.9V135.5C66.7004 134.6 65.9004 133.8 65.0004 133.8H49.8004C48.9004 133.8 48.1004 134.6 48.1004 135.5V136.9C48.0004 142 52.2004 146.2 57.3004 146.2Z" fill="white" stroke="#071146" stroke-width="2" stroke-miterlimit="10" stroke-linecap="round" stroke-linejoin="round"/>
<path d="M74.7998 125.1H107.3" stroke="#071146" stroke-width="2" stroke-miterlimit="10" stroke-linecap="round" stroke-linejoin="round"/>
<path d="M74.7998 134.5H107.3" stroke="#071146" stroke-width="2" stroke-miterlimit="10" stroke-linecap="round" stroke-linejoin="round"/>
<path d="M63.5039 161.191C63.5148 157.822 60.7926 155.082 57.4236 155.071C54.0547 155.06 51.3148 157.783 51.3039 161.152C51.293 164.521 54.0152 167.26 57.3842 167.271C60.7531 167.282 63.493 164.56 63.5039 161.191Z" fill="white" stroke="#071146" stroke-width="2" stroke-miterlimit="10" stroke-linecap="round" stroke-linejoin="round"/>
<path d="M57.3004 183.7C62.5004 183.7 66.6004 179.6 66.7004 174.4V173C66.7004 172.1 65.9004 171.3 65.0004 171.3H49.8004C48.9004 171.3 48.1004 172.1 48.1004 173V174.4C48.0004 179.5 52.2004 183.7 57.3004 183.7Z" fill="white" stroke="#071146" stroke-width="2" stroke-miterlimit="10" stroke-linecap="round" stroke-linejoin="round"/>
<path d="M74.7998 162.6H107.3" stroke="#071146" stroke-width="2" stroke-miterlimit="10" stroke-linecap="round" stroke-linejoin="round"/>
<path d="M74.7998 172H107.3" stroke="#071146" stroke-width="2" stroke-miterlimit="10" stroke-linecap="round" stroke-linejoin="round"/>
<path d="M63.5615 201.834C63.5724 198.465 60.8502 195.725 57.4813 195.714C54.1123 195.703 51.3724 198.425 51.3615 201.794C51.3506 205.163 54.0729 207.903 57.4418 207.914C60.8107 207.925 63.5506 205.202 63.5615 201.834Z" fill="white" stroke="#071146" stroke-width="2" stroke-miterlimit="10" stroke-linecap="round" stroke-linejoin="round"/>
<path d="M57.3004 224.3C62.5004 224.3 66.6004 220.2 66.7004 215V213.6C66.7004 212.7 65.9004 211.9 65.0004 211.9H49.8004C48.9004 211.9 48.1004 212.7 48.1004 213.6V215C48.0004 220.1 52.2004 224.3 57.3004 224.3Z" fill="white" stroke="#071146" stroke-width="2" stroke-miterlimit="10" stroke-linecap="round" stroke-linejoin="round"/>
<path d="M74.7998 206.5H107.3" stroke="#071146" stroke-width="2" stroke-miterlimit="10" stroke-linecap="round" stroke-linejoin="round"/>
<path d="M74.7998 215.9H107.3" stroke="#071146" stroke-width="2" stroke-miterlimit="10" stroke-linecap="round" stroke-linejoin="round"/>
<path d="M112.7 244L122.7 234.1" stroke="#071146" stroke-width="2" stroke-miterlimit="10" stroke-linecap="round" stroke-linejoin="round"/>
<path d="M407.3 81.3H544.8C547.6 81.3 549.8 79 549.8 76.3V46.3C549.8 43.5 547.5 41.3 544.8 41.3H407.3C404.5 41.3 402.3 43.6 402.3 46.3V76.3C402.3 79 404.5 81.3 407.3 81.3Z" fill="white"/>
<path d="M402.3 76H539.8C542.6 76 544.8 73.7 544.8 71V41C544.8 38.2 542.5 36 539.8 36H402.3C399.5 36 397.3 38.3 397.3 41V71C397.3 73.8 399.5 76 402.3 76Z" stroke="#071146" stroke-width="2" stroke-miterlimit="10" stroke-linecap="round" stroke-linejoin="round"/>
<path d="M409.899 50.8H450.399" stroke="#071146" stroke-width="2" stroke-miterlimit="10" stroke-linecap="round" stroke-linejoin="round"/>
<path d="M409.899 63H450.399" stroke="#071146" stroke-width="2" stroke-miterlimit="10" stroke-linecap="round" stroke-linejoin="round"/>
<path d="M503.399 46.6V65.8" stroke="#071146" stroke-width="2" stroke-miterlimit="10" stroke-linecap="round" stroke-linejoin="round"/>
<path d="M523.199 62.9C526.127 62.9 528.499 60.5271 528.499 57.6C528.499 54.6729 526.127 52.3 523.199 52.3C520.272 52.3 517.899 54.6729 517.899 57.6C517.899 60.5271 520.272 62.9 523.199 62.9Z" fill="#95E196"/>
<path d="M522 61.3C524.927 61.3 527.3 58.9271 527.3 56C527.3 53.0729 524.927 50.7 522 50.7C519.073 50.7 516.7 53.0729 516.7 56C516.7 58.9271 519.073 61.3 522 61.3Z" stroke="#071146" stroke-width="2" stroke-miterlimit="10" stroke-linecap="round" stroke-linejoin="round"/>
<path d="M397.3 89.3H544.8" stroke="#071146" stroke-width="2" stroke-miterlimit="10" stroke-linecap="round" stroke-linejoin="round"/>
<path d="M407.3 142.7H544.8C547.6 142.7 549.8 140.4 549.8 137.7V107.7C549.8 104.9 547.5 102.7 544.8 102.7H407.3C404.5 102.7 402.3 105 402.3 107.7V137.7C402.3 140.4 404.5 142.7 407.3 142.7Z" fill="#B6E2DF"/>
<path d="M402.3 137.4H539.8C542.6 137.4 544.8 135.1 544.8 132.4V102.4C544.8 99.6 542.5 97.4 539.8 97.4H402.3C399.5 97.4 397.3 99.7 397.3 102.4V132.4C397.3 135.2 399.5 137.4 402.3 137.4Z" stroke="#071146" stroke-width="2" stroke-miterlimit="10" stroke-linecap="round" stroke-linejoin="round"/>
<path d="M409.9 112.2H450.4" stroke="#071146" stroke-width="2" stroke-miterlimit="10" stroke-linecap="round" stroke-linejoin="round"/>
<path d="M409.9 124.4H450.4" stroke="#071146" stroke-width="2" stroke-miterlimit="10" stroke-linecap="round" stroke-linejoin="round"/>
<path d="M503.4 108V127.2" stroke="#071146" stroke-width="2" stroke-miterlimit="10" stroke-linecap="round" stroke-linejoin="round"/>
<path d="M523.2 124.3C526.127 124.3 528.5 121.927 528.5 119C528.5 116.073 526.127 113.7 523.2 113.7C520.273 113.7 517.9 116.073 517.9 119C517.9 121.927 520.273 124.3 523.2 124.3Z" fill="#FEDB8F"/>
<path d="M522 122.7C524.927 122.7 527.3 120.327 527.3 117.4C527.3 114.473 524.927 112.1 522 112.1C519.073 112.1 516.7 114.473 516.7 117.4C516.7 120.327 519.073 122.7 522 122.7Z" stroke="#071146" stroke-width="2" stroke-miterlimit="10" stroke-linecap="round" stroke-linejoin="round"/>
<path d="M397.3 150.8H544.8" stroke="#071146" stroke-width="2" stroke-miterlimit="10" stroke-linecap="round" stroke-linejoin="round"/>
<path d="M407.3 204.1H544.8C547.6 204.1 549.8 201.8 549.8 199.1V169.1C549.8 166.3 547.5 164.1 544.8 164.1H407.3C404.5 164.1 402.3 166.4 402.3 169.1V199.1C402.3 201.8 404.5 204.1 407.3 204.1Z" fill="white"/>
<path d="M402.3 198.8H539.8C542.6 198.8 544.8 196.5 544.8 193.8V163.8C544.8 161 542.5 158.8 539.8 158.8H402.3C399.5 158.8 397.3 161.1 397.3 163.8V193.8C397.3 196.6 399.5 198.8 402.3 198.8Z" stroke="#071146" stroke-width="2" stroke-miterlimit="10" stroke-linecap="round" stroke-linejoin="round"/>
<path d="M409.899 173.6H450.399" stroke="#071146" stroke-width="2" stroke-miterlimit="10" stroke-linecap="round" stroke-linejoin="round"/>
<path d="M409.899 185.8H450.399" stroke="#071146" stroke-width="2" stroke-miterlimit="10" stroke-linecap="round" stroke-linejoin="round"/>
<path d="M503.399 169.4V188.7" stroke="#071146" stroke-width="2" stroke-miterlimit="10" stroke-linecap="round" stroke-linejoin="round"/>
<path d="M523.199 185.7C526.127 185.7 528.499 183.327 528.499 180.4C528.499 177.473 526.127 175.1 523.199 175.1C520.272 175.1 517.899 177.473 517.899 180.4C517.899 183.327 520.272 185.7 523.199 185.7Z" fill="#B1DEF5"/>
<path d="M522 184.1C524.927 184.1 527.3 181.727 527.3 178.8C527.3 175.873 524.927 173.5 522 173.5C519.073 173.5 516.7 175.873 516.7 178.8C516.7 181.727 519.073 184.1 522 184.1Z" stroke="#071146" stroke-width="2" stroke-miterlimit="10" stroke-linecap="round" stroke-linejoin="round"/>
<path d="M397.3 240.5H544.8" stroke="#071146" stroke-width="2" stroke-miterlimit="10" stroke-linecap="round" stroke-linejoin="round"/>
<path d="M451.4 218.1H491" stroke="#071146" stroke-width="2" stroke-miterlimit="10" stroke-linecap="round" stroke-linejoin="round"/>
<path d="M471.2 249.8C476.115 249.8 480.1 245.815 480.1 240.9C480.1 235.985 476.115 232 471.2 232C466.284 232 462.3 235.985 462.3 240.9C462.3 245.815 466.284 249.8 471.2 249.8Z" fill="#FEDB8F" stroke="#071146" stroke-width="2" stroke-miterlimit="10" stroke-linecap="round" stroke-linejoin="round"/>
<path d="M267 15.5H196.4" stroke="#071146" stroke-width="2" stroke-miterlimit="10" stroke-linecap="round" stroke-linejoin="round"/>
<path d="M267 7.7H229.4" stroke="#071146" stroke-width="2" stroke-miterlimit="10" stroke-linecap="round" stroke-linejoin="round"/>
<path d="M267 73.3H196.4" stroke="#071146" stroke-width="2" stroke-miterlimit="10" stroke-linecap="round" stroke-linejoin="round"/>
<path d="M267 124H196.4" stroke="#071146" stroke-width="2" stroke-miterlimit="10" stroke-linecap="round" stroke-linejoin="round"/>
<path d="M267 65.4H229.4" stroke="#071146" stroke-width="2" stroke-miterlimit="10" stroke-linecap="round" stroke-linejoin="round"/>
<path d="M267 81.2H229.4" stroke="#071146" stroke-width="2" stroke-miterlimit="10" stroke-linecap="round" stroke-linejoin="round"/>
<path d="M267 131.1H229.4" stroke="#071146" stroke-width="2" stroke-miterlimit="10" stroke-linecap="round" stroke-linejoin="round"/>
</g>
<defs>
<clipPath id="clip0">
<rect width="586" height="272.1" fill="white"/>
</clipPath>
</defs>
</svg>
