<svg width="586" height="272" viewBox="0 0 586 272" fill="none" xmlns="http://www.w3.org/2000/svg">
<g clip-path="url(#clip0)">
<path d="M581.6 59.2H0V271.4H581.6C584 271.4 586 269.4 586 267V63.6C586 61.1 584 59.2 581.6 59.2Z" fill="#FCAA90"/>
<path d="M465 154.6C466.4 154.6 467.8 154.8 469.2 155.1C469.8 155.2 470.2 155.7 470.3 156.3L470.6 159.2C470.7 160.5 471.9 161.6 473.2 161.6C473.6 161.6 473.9 161.5 474.3 161.4L477 160.2C477.6 160 478.2 160.1 478.6 160.5C480.5 162.6 482 165 482.8 167.8C483 168.4 482.8 169 482.3 169.4L479.9 171.1C479.2 171.6 478.8 172.4 478.8 173.2C478.8 174 479.2 174.8 479.9 175.3L482.3 177.1C482.8 177.5 483 178.1 482.8 178.7C482 181.4 480.5 183.9 478.6 186C478.2 186.4 477.5 186.6 477 186.3L474.3 185.1C473.5 184.8 472.6 184.8 471.9 185.2C471.2 185.6 470.7 186.4 470.6 187.2L470.3 190.1C470.2 190.7 469.8 191.2 469.2 191.3C466.4 192 463.5 192 460.8 191.3C460.2 191.2 459.8 190.7 459.7 190.1L459.4 187.2C459.3 186.4 458.8 185.6 458.1 185.2C457.4 184.8 456.5 184.7 455.7 185.1L453 186.3C452.4 186.5 451.8 186.4 451.4 186C449.5 183.9 448 181.4 447.2 178.7C447 178.1 447.2 177.5 447.7 177.1L450.1 175.3C450.8 174.8 451.2 174 451.2 173.2C451.2 172.4 450.8 171.6 450.1 171.1L447.7 169.4C447.2 169 447 168.4 447.2 167.8C448 165.1 449.5 162.6 451.4 160.5C451.8 160.1 452.5 159.9 453 160.2L455.7 161.4C456.5 161.7 457.4 161.7 458.1 161.3C458.8 160.9 459.3 160.1 459.4 159.3L459.7 156.4C459.8 155.8 460.2 155.3 460.8 155.2C462.2 154.8 463.6 154.6 465 154.6ZM465 157.5C464.1 157.5 463.3 157.6 462.4 157.7L462.2 159.6C462 161.3 461 162.9 459.5 163.8C458 164.7 456.1 164.8 454.5 164.1L452.8 163.3C451.7 164.6 450.8 166.1 450.2 167.7L451.7 168.8C453.1 169.8 453.9 171.5 453.9 173.2C453.9 174.9 453.1 176.6 451.7 177.6L450.2 178.7C450.8 180.3 451.7 181.8 452.8 183.1L454.5 182.3C456.1 181.6 457.9 181.7 459.5 182.6C461 183.5 462 185 462.2 186.8L462.4 188.7C464.1 189 465.8 189 467.5 188.7L467.7 186.8C467.9 185.1 468.9 183.5 470.4 182.6C471.9 181.7 473.8 181.6 475.4 182.3L477.1 183.1C478.2 181.8 479.1 180.3 479.7 178.7L478.2 177.6C476.8 176.6 476 174.9 476 173.2C476 171.5 476.8 169.8 478.2 168.8L479.7 167.7C479.1 166.1 478.2 164.6 477.1 163.3L475.4 164.1C474.7 164.4 473.9 164.6 473.2 164.6C470.4 164.6 468 162.5 467.7 159.7L467.5 157.8C466.7 157.6 465.8 157.5 465 157.5ZM465 166.1C469 166.1 472.2 169.3 472.2 173.3C472.2 177.3 469 180.5 465 180.5C461 180.5 457.8 177.3 457.8 173.3C457.8 169.3 461 166.1 465 166.1ZM465 169C462.6 169 460.7 170.9 460.7 173.3C460.7 175.7 462.6 177.6 465 177.6C467.4 177.6 469.3 175.7 469.3 173.3C469.3 170.9 467.3 169 465 169Z" fill="white"/>
<path d="M426.8 146.5C427.6 146.5 428.5 146.6 429.3 146.8C429.7 146.9 429.9 147.2 430 147.5L430.2 149.2C430.3 150 431 150.6 431.8 150.6C432 150.6 432.2 150.6 432.4 150.5L434 149.8C434.3 149.7 434.7 149.7 435 150C436.2 151.2 437 152.7 437.5 154.3C437.6 154.6 437.5 155 437.2 155.2L435.8 156.2C435.4 156.5 435.2 157 435.2 157.5C435.2 158 435.4 158.5 435.8 158.8L437.2 159.8C437.5 160 437.6 160.4 437.5 160.7C437 162.3 436.1 163.8 435 165C434.8 165.3 434.4 165.3 434 165.2L432.4 164.5C431.9 164.3 431.4 164.3 431 164.6C430.6 164.9 430.3 165.3 430.2 165.8L430 167.5C430 167.9 429.7 168.2 429.3 168.2C427.6 168.6 425.9 168.6 424.3 168.2C423.9 168.1 423.7 167.8 423.6 167.5L423.4 165.8C423.3 165.3 423.1 164.9 422.6 164.6C422.2 164.4 421.6 164.3 421.2 164.5L419.6 165.2C419.3 165.3 418.9 165.3 418.6 165C417.4 163.8 416.6 162.3 416.1 160.7C416 160.4 416.1 160 416.4 159.8L417.8 158.8C418.2 158.5 418.4 158 418.4 157.5C418.4 157 418.2 156.5 417.8 156.2L416.4 155.2C416.1 155 416 154.6 416.1 154.3C416.6 152.7 417.5 151.2 418.6 150C418.8 149.7 419.2 149.7 419.6 149.8L421.2 150.5C421.7 150.7 422.2 150.7 422.6 150.4C423 150.1 423.3 149.7 423.4 149.2L423.6 147.5C423.6 147.1 423.9 146.8 424.3 146.8C425.1 146.6 425.9 146.5 426.8 146.5ZM426.8 148.2C426.3 148.2 425.8 148.3 425.3 148.3L425.2 149.4C425.1 150.4 424.5 151.4 423.6 151.9C422.7 152.4 421.6 152.5 420.6 152.1L419.6 151.6C418.9 152.4 418.4 153.3 418.1 154.2L419 154.9C419.8 155.5 420.3 156.5 420.3 157.5C420.3 158.5 419.8 159.5 419 160.1L418.1 160.8C418.5 161.8 419 162.7 419.6 163.4L420.6 162.9C421.6 162.5 422.7 162.5 423.6 163.1C424.5 163.6 425.1 164.5 425.2 165.6L425.3 166.7C426.3 166.9 427.4 166.9 428.4 166.7L428.5 165.6C428.6 164.6 429.2 163.6 430.1 163.1C431 162.6 432.1 162.5 433.1 162.9L434.1 163.4C434.8 162.6 435.3 161.7 435.6 160.8L434.7 160.1C433.9 159.5 433.4 158.5 433.4 157.5C433.4 156.5 433.9 155.5 434.7 154.9L435.6 154.2C435.2 153.2 434.7 152.3 434.1 151.6L433.1 152C432.7 152.2 432.2 152.3 431.8 152.3C430.1 152.3 428.7 151 428.5 149.4L428.4 148.3C427.8 148.3 427.3 148.2 426.8 148.2ZM426.8 153.3C429.2 153.3 431.1 155.2 431.1 157.6C431.1 160 429.2 161.9 426.8 161.9C424.4 161.9 422.5 160 422.5 157.6C422.5 155.3 424.4 153.3 426.8 153.3ZM426.8 155.1C425.4 155.1 424.2 156.2 424.2 157.7C424.2 159.2 425.3 160.3 426.8 160.3C428.2 160.3 429.4 159.2 429.4 157.7C429.4 156.2 428.2 155.1 426.8 155.1Z" fill="white"/>
<path d="M179.7 222.4C180.5 222.4 181.4 222.5 182.2 222.7C182.6 222.8 182.8 223.1 182.9 223.4L183.1 225.1C183.2 225.9 183.9 226.5 184.7 226.5C184.9 226.5 185.1 226.5 185.3 226.4L186.9 225.7C187.2 225.6 187.6 225.6 187.9 225.9C189.1 227.1 189.9 228.6 190.4 230.2C190.5 230.5 190.4 230.9 190.1 231.1L188.7 232.1C188.3 232.4 188.1 232.9 188.1 233.4C188.1 233.9 188.3 234.4 188.7 234.7L190.1 235.7C190.4 235.9 190.5 236.3 190.4 236.6C189.9 238.2 189 239.7 187.9 240.9C187.7 241.2 187.3 241.2 186.9 241.1L185.3 240.4C184.8 240.2 184.3 240.2 183.9 240.5C183.5 240.8 183.2 241.2 183.1 241.7L182.9 243.4C182.9 243.8 182.6 244.1 182.2 244.1C180.5 244.5 178.8 244.5 177.2 244.1C176.8 244 176.6 243.7 176.5 243.4L176.3 241.7C176.2 241.2 176 240.8 175.5 240.5C175.1 240.3 174.5 240.2 174.1 240.4L172.5 241.1C172.2 241.2 171.8 241.2 171.5 240.9C170.3 239.7 169.5 238.2 169 236.6C168.9 236.3 169 235.9 169.3 235.7L170.7 234.7C171.1 234.4 171.3 233.9 171.3 233.4C171.3 232.9 171.1 232.4 170.7 232.1L169.3 231.1C169 230.9 168.9 230.5 169 230.2C169.5 228.6 170.4 227.1 171.5 225.9C171.7 225.6 172.1 225.6 172.5 225.7L174.1 226.4C174.6 226.6 175.1 226.6 175.5 226.3C175.9 226 176.2 225.6 176.3 225.1L176.5 223.4C176.5 223 176.8 222.7 177.2 222.7C178 222.5 178.9 222.4 179.7 222.4ZM179.7 224.1C179.2 224.1 178.7 224.2 178.2 224.2L178.1 225.3C178 226.3 177.4 227.3 176.5 227.8C175.6 228.3 174.5 228.4 173.5 228L172.5 227.5C171.8 228.3 171.3 229.2 171 230.1L171.9 230.8C172.7 231.4 173.2 232.4 173.2 233.4C173.2 234.4 172.7 235.4 171.9 236L171 236.7C171.4 237.7 171.9 238.6 172.5 239.3L173.5 238.8C174.5 238.4 175.6 238.4 176.5 239C177.4 239.5 178 240.4 178.1 241.5L178.2 242.6C179.2 242.8 180.3 242.8 181.3 242.6L181.4 241.5C181.5 240.5 182.1 239.5 183 239C183.9 238.5 185 238.4 186 238.8L187 239.3C187.7 238.5 188.2 237.6 188.5 236.7L187.6 236C186.8 235.4 186.3 234.4 186.3 233.4C186.3 232.4 186.8 231.4 187.6 230.8L188.5 230.1C188.1 229.1 187.6 228.2 187 227.5L186 227.9C185.6 228.1 185.1 228.2 184.7 228.2C183 228.2 181.6 226.9 181.4 225.3L181.3 224.2C180.7 224.1 180.2 224.1 179.7 224.1ZM179.7 229.2C182.1 229.2 184 231.1 184 233.5C184 235.9 182.1 237.8 179.7 237.8C177.3 237.8 175.4 235.9 175.4 233.5C175.4 231.1 177.3 229.2 179.7 229.2ZM179.7 230.9C178.3 230.9 177.1 232 177.1 233.5C177.1 235 178.2 236.1 179.7 236.1C181.1 236.1 182.3 235 182.3 233.5C182.3 232 181.1 230.9 179.7 230.9Z" fill="white"/>
<path d="M152.9 205.4C161.129 205.4 167.8 198.729 167.8 190.5C167.8 182.271 161.129 175.6 152.9 175.6C144.671 175.6 138 182.271 138 190.5C138 198.729 144.671 205.4 152.9 205.4Z" fill="white"/>
<path d="M156.611 185.264C156.618 183.221 154.967 181.559 152.923 181.552C150.88 181.545 149.218 183.197 149.211 185.24C149.205 187.284 150.856 188.945 152.899 188.952C154.943 188.959 156.605 187.307 156.611 185.264Z" stroke="#071146" stroke-width="2" stroke-miterlimit="10" stroke-linecap="round" stroke-linejoin="round"/>
<path d="M152.9 198.9C156 198.9 158.6 196.4 158.6 193.2V192.3C158.6 191.7 158.1 191.3 157.6 191.3H148.3C147.7 191.3 147.3 191.8 147.3 192.3V193.2C147.2 196.4 149.7 198.9 152.9 198.9Z" stroke="#071146" stroke-width="2" stroke-miterlimit="10" stroke-linecap="round" stroke-linejoin="round"/>
<path d="M532.9 246.3C541.129 246.3 547.8 239.629 547.8 231.4C547.8 223.171 541.129 216.5 532.9 216.5C524.671 216.5 518 223.171 518 231.4C518 239.629 524.671 246.3 532.9 246.3Z" fill="white"/>
<path d="M536.624 226.15C536.63 224.106 534.979 222.445 532.936 222.438C530.892 222.431 529.23 224.082 529.224 226.126C529.217 228.169 530.868 229.831 532.912 229.838C534.955 229.844 536.617 228.193 536.624 226.15Z" stroke="#071146" stroke-width="2" stroke-miterlimit="10" stroke-linecap="round" stroke-linejoin="round"/>
<path d="M532.9 239.8C536 239.8 538.6 237.3 538.6 234.1V233.2C538.6 232.6 538.1 232.2 537.6 232.2H528.3C527.7 232.2 527.3 232.7 527.3 233.2V234.1C527.2 237.3 529.7 239.8 532.9 239.8Z" stroke="#071146" stroke-width="2" stroke-miterlimit="10" stroke-linecap="round" stroke-linejoin="round"/>
<path d="M336.8 74.1C345.029 74.1 351.7 67.429 351.7 59.2C351.7 50.9709 345.029 44.3 336.8 44.3C328.571 44.3 321.9 50.9709 321.9 59.2C321.9 67.429 328.571 74.1 336.8 74.1Z" fill="#FEDB8F"/>
<path d="M340.5 53.9101C340.506 51.8667 338.855 50.2048 336.812 50.1982C334.768 50.1915 333.106 51.8427 333.1 53.8862C333.093 55.9297 334.744 57.5915 336.788 57.5981C338.831 57.6048 340.493 55.9536 340.5 53.9101Z" stroke="#071146" stroke-width="2" stroke-miterlimit="10" stroke-linecap="round" stroke-linejoin="round"/>
<path d="M336.701 67.6C339.801 67.6 342.401 65.1 342.401 61.9V61C342.401 60.4 341.901 60 341.401 60H332.101C331.501 60 331.101 60.5 331.101 61V61.9C331.101 65.1 333.601 67.6 336.701 67.6Z" stroke="#071146" stroke-width="2" stroke-miterlimit="10" stroke-linecap="round" stroke-linejoin="round"/>
<path d="M420.1 111.2C418.2 111.2 416.5 110.9 414.9 110.3C413.3 109.7 412 108.8 410.8 107.6C409.6 106.4 408.8 105.1 408.1 103.5C407.5 101.9 407.2 100.2 407.2 98.3C407.2 96.4 407.5 94.7 408.1 93.1C408.7 91.5 409.6 90.2 410.8 89C411.9 87.9 413.3 87 414.9 86.3C416.5 85.7 418.2 85.4 420.1 85.4C422 85.4 423.7 85.7 425.3 86.3C426.9 86.9 428.2 87.8 429.4 89C430.5 90.1 431.4 91.5 432.1 93.1C432.7 94.7 433 96.4 433 98.3C433 99.8 432.8 101.2 432.4 102.3C432 103.5 431.4 104.4 430.7 105.1C430 105.8 429.2 106.1 428.2 106.1C427.4 106.1 426.7 105.8 426.2 105.3C425.7 104.8 425.4 104.1 425.4 103.3V102.5C425.1 103 424.6 103.4 424.1 103.8C423.5 104.2 422.9 104.5 422.2 104.7C421.5 104.9 420.8 105 420.1 105C418.8 105 417.6 104.7 416.6 104.1C415.6 103.5 414.8 102.7 414.2 101.7C413.6 100.7 413.3 99.5 413.3 98.2C413.3 96.9 413.6 95.7 414.2 94.7C414.8 93.7 415.6 92.9 416.6 92.3C417.6 91.7 418.8 91.4 420.1 91.4C421.4 91.4 422.6 91.7 423.6 92.3C424.6 92.9 425.4 93.7 426 94.7C426.6 95.7 426.9 96.9 426.9 98.2V102.7C426.9 103.3 427 103.8 427.3 104.1C427.5 104.4 427.8 104.5 428.2 104.5C428.8 104.5 429.4 104.2 429.9 103.7C430.4 103.2 430.8 102.4 431.1 101.5C431.4 100.6 431.5 99.5 431.5 98.2C431.5 96.5 431.2 95 430.7 93.6C430.1 92.2 429.4 91 428.3 90C427.3 89 426.1 88.2 424.7 87.6C423.3 87 421.8 86.8 420.1 86.8C418.4 86.8 416.9 87.1 415.5 87.6C414.1 88.1 412.9 88.9 411.9 90C410.9 91 410.1 92.2 409.6 93.6C409.1 95 408.8 96.5 408.8 98.2C408.8 99.9 409.1 101.4 409.6 102.8C410.2 104.2 410.9 105.4 411.9 106.4C412.9 107.4 414.1 108.2 415.5 108.7C416.9 109.2 418.4 109.5 420.1 109.5C420.9 109.5 421.7 109.4 422.6 109.2C423.5 109 424.2 108.8 424.8 108.5C425.1 108.3 425.4 108.3 425.6 108.4C425.8 108.5 425.9 108.7 425.9 109C425.9 109.3 425.7 109.6 425.2 109.9C424.7 110.2 424 110.5 423.1 110.7C422.3 111.1 421.3 111.2 420.1 111.2ZM420.1 103.6C421.1 103.6 422 103.4 422.8 102.9C423.6 102.4 424.2 101.8 424.7 101C425.2 100.2 425.4 99.3 425.4 98.3C425.4 97.3 425.2 96.3 424.7 95.5C424.2 94.7 423.6 94.1 422.8 93.6C422 93.1 421.1 92.9 420.1 92.9C419.1 92.9 418.2 93.1 417.4 93.6C416.6 94.1 416 94.7 415.5 95.5C415 96.3 414.8 97.2 414.8 98.3C414.8 99.3 415 100.2 415.5 101C416 101.8 416.6 102.4 417.4 102.9C418.2 103.4 419.1 103.6 420.1 103.6Z" fill="#FEDB8F" stroke="#FEDB8F" stroke-miterlimit="10"/>
<path d="M146.9 108.6C145 108.6 143.3 108.3 141.7 107.7C140.1 107.1 138.8 106.2 137.6 105C136.5 103.9 135.6 102.5 134.9 100.9C134.3 99.3 134 97.6 134 95.7C134 93.8 134.3 92.1 134.9 90.5C135.5 88.9 136.4 87.6 137.6 86.4C138.7 85.3 140.1 84.4 141.7 83.7C143.3 83.1 145 82.8 146.9 82.8C148.8 82.8 150.5 83.1 152.1 83.7C153.7 84.3 155 85.2 156.2 86.4C157.3 87.5 158.2 88.9 158.9 90.5C159.5 92.1 159.8 93.8 159.8 95.7C159.8 97.2 159.6 98.6 159.2 99.7C158.8 100.9 158.2 101.8 157.5 102.5C156.8 103.2 156 103.5 155 103.5C154.2 103.5 153.5 103.2 153 102.7C152.5 102.2 152.2 101.5 152.2 100.7V100C151.9 100.5 151.4 100.9 150.9 101.3C150.3 101.7 149.7 102 149 102.2C148.3 102.4 147.6 102.5 146.9 102.5C145.6 102.5 144.4 102.2 143.4 101.6C142.4 101 141.6 100.2 141 99.2C140.4 98.2 140.1 97 140.1 95.7C140.1 94.4 140.4 93.2 141 92.2C141.6 91.2 142.4 90.4 143.4 89.8C144.4 89.2 145.6 88.9 146.9 88.9C148.2 88.9 149.4 89.2 150.4 89.8C151.4 90.4 152.2 91.2 152.8 92.2C153.4 93.2 153.7 94.4 153.7 95.7V100.2C153.7 100.8 153.8 101.3 154.1 101.6C154.3 101.9 154.6 102 155 102C155.6 102 156.2 101.7 156.7 101.2C157.2 100.7 157.6 99.9 157.9 99C158.2 98.1 158.3 97 158.3 95.7C158.3 94 158 92.5 157.5 91.1C156.9 89.7 156.2 88.5 155.1 87.5C154.1 86.5 152.9 85.7 151.5 85.1C150.1 84.5 148.6 84.3 146.9 84.3C145.2 84.3 143.7 84.6 142.3 85.1C140.9 85.7 139.7 86.4 138.7 87.5C137.7 88.5 136.9 89.7 136.4 91.1C135.9 92.5 135.6 94 135.6 95.7C135.6 97.4 135.9 98.9 136.4 100.3C137 101.7 137.7 102.9 138.7 103.9C139.7 104.9 140.9 105.7 142.3 106.2C143.7 106.7 145.2 107 146.9 107C147.7 107 148.5 106.9 149.4 106.7C150.3 106.5 151 106.3 151.6 106C151.9 105.8 152.2 105.8 152.4 105.9C152.6 106 152.7 106.2 152.7 106.5C152.7 106.8 152.5 107.1 152 107.4C151.5 107.7 150.8 108 149.9 108.2C149.1 108.5 148.1 108.6 146.9 108.6ZM146.9 101.1C147.9 101.1 148.8 100.9 149.6 100.4C150.4 99.9 151 99.3 151.5 98.5C152 97.7 152.2 96.8 152.2 95.8C152.2 94.8 152 93.8 151.5 93C151 92.2 150.4 91.6 149.6 91.1C148.8 90.6 147.9 90.4 146.9 90.4C145.9 90.4 145 90.6 144.2 91.1C143.4 91.6 142.8 92.2 142.3 93C141.8 93.8 141.6 94.7 141.6 95.8C141.6 96.8 141.8 97.7 142.3 98.5C142.8 99.3 143.4 99.9 144.2 100.4C145 100.9 145.9 101.1 146.9 101.1Z" fill="#FEDB8F" stroke="#FEDB8F" stroke-miterlimit="10"/>
<path d="M90.9 220.8C89 220.8 87.3 220.5 85.7 219.9C84.1 219.3 82.8 218.4 81.6 217.2C80.5 216.1 79.6 214.7 78.9 213.1C78.3 211.5 78 209.8 78 207.9C78 206 78.3 204.3 78.9 202.7C79.5 201.1 80.4 199.8 81.6 198.6C82.7 197.5 84.1 196.6 85.7 195.9C87.3 195.3 89 195 90.9 195C92.8 195 94.5 195.3 96.1 195.9C97.7 196.5 99 197.4 100.2 198.6C101.3 199.7 102.2 201.1 102.9 202.7C103.5 204.3 103.8 206 103.8 207.9C103.8 209.4 103.6 210.8 103.2 211.9C102.8 213.1 102.2 214 101.5 214.7C100.8 215.4 100 215.7 99 215.7C98.2 215.7 97.5 215.4 97 214.9C96.5 214.4 96.2 213.7 96.2 212.9V212.1C95.9 212.6 95.4 213 94.9 213.4C94.3 213.8 93.7 214.1 93 214.3C92.3 214.5 91.6 214.6 90.9 214.6C89.6 214.6 88.4 214.3 87.4 213.7C86.4 213.1 85.6 212.3 85 211.3C84.4 210.3 84.1 209.1 84.1 207.8C84.1 206.5 84.4 205.3 85 204.3C85.6 203.3 86.4 202.5 87.4 201.9C88.4 201.3 89.6 201 90.9 201C92.2 201 93.4 201.3 94.4 201.9C95.4 202.5 96.2 203.3 96.8 204.3C97.4 205.3 97.7 206.5 97.7 207.8V212.3C97.7 212.9 97.8 213.4 98.1 213.7C98.3 214 98.6 214.1 99 214.1C99.6 214.1 100.2 213.8 100.7 213.3C101.2 212.8 101.6 212 101.9 211.1C102.2 210.2 102.3 209.1 102.3 207.8C102.3 206.1 102 204.6 101.5 203.2C100.9 201.8 100.2 200.6 99.1 199.6C98.1 198.6 96.9 197.8 95.5 197.2C94.1 196.6 92.6 196.4 90.9 196.4C89.2 196.4 87.7 196.7 86.3 197.2C84.9 197.8 83.7 198.5 82.7 199.6C81.7 200.6 80.9 201.8 80.4 203.2C79.9 204.6 79.6 206.1 79.6 207.8C79.6 209.5 79.9 211 80.4 212.4C81 213.8 81.7 215 82.7 216C83.7 217 84.9 217.8 86.3 218.3C87.7 218.8 89.2 219.1 90.9 219.1C91.7 219.1 92.5 219 93.4 218.8C94.3 218.6 95 218.4 95.6 218.1C95.9 217.9 96.2 217.9 96.4 218C96.6 218.1 96.7 218.3 96.7 218.6C96.7 218.9 96.5 219.2 96 219.5C95.5 219.8 94.8 220.1 93.9 220.3C93 220.7 92 220.8 90.9 220.8ZM90.9 213.3C91.9 213.3 92.8 213.1 93.6 212.6C94.4 212.1 95 211.5 95.5 210.7C96 209.9 96.2 209 96.2 208C96.2 207 96 206 95.5 205.2C95 204.4 94.4 203.8 93.6 203.3C92.8 202.8 91.9 202.6 90.9 202.6C89.9 202.6 89 202.8 88.2 203.3C87.4 203.8 86.8 204.4 86.3 205.2C85.8 206 85.6 206.9 85.6 208C85.6 209 85.8 209.9 86.3 210.7C86.8 211.5 87.4 212.1 88.2 212.6C88.9 213.1 89.8 213.3 90.9 213.3Z" fill="#FEDB8F" stroke="#FEDB8F" stroke-miterlimit="10"/>
<path d="M553 178.1C551.1 178.1 549.4 177.8 547.8 177.2C546.2 176.6 544.9 175.7 543.7 174.5C542.6 173.4 541.7 172 541 170.4C540.4 168.8 540.1 167.1 540.1 165.2C540.1 163.3 540.4 161.6 541 160C541.6 158.4 542.5 157.1 543.7 155.9C544.8 154.8 546.2 153.9 547.8 153.2C549.4 152.6 551.1 152.3 553 152.3C554.9 152.3 556.6 152.6 558.2 153.2C559.8 153.8 561.1 154.7 562.3 155.9C563.4 157 564.3 158.4 565 160C565.6 161.6 565.9 163.3 565.9 165.2C565.9 166.7 565.7 168.1 565.3 169.2C564.9 170.4 564.3 171.3 563.6 172C562.9 172.7 562.1 173 561.1 173C560.3 173 559.6 172.7 559.1 172.2C558.6 171.7 558.3 171 558.3 170.2V169.4C558 169.9 557.5 170.3 557 170.7C556.4 171.1 555.8 171.4 555.1 171.6C554.4 171.8 553.7 171.9 553 171.9C551.7 171.9 550.5 171.6 549.5 171C548.5 170.4 547.7 169.6 547.1 168.6C546.5 167.6 546.2 166.4 546.2 165.1C546.2 163.8 546.5 162.6 547.1 161.6C547.7 160.6 548.5 159.8 549.5 159.2C550.5 158.6 551.7 158.3 553 158.3C554.3 158.3 555.5 158.6 556.5 159.2C557.5 159.8 558.3 160.6 558.9 161.6C559.5 162.6 559.8 163.8 559.8 165.1V169.6C559.8 170.2 559.9 170.7 560.2 171C560.4 171.3 560.7 171.4 561.1 171.4C561.7 171.4 562.3 171.1 562.8 170.6C563.3 170.1 563.7 169.3 564 168.4C564.3 167.5 564.4 166.4 564.4 165.1C564.4 163.4 564.1 161.9 563.6 160.5C563 159.1 562.3 157.9 561.2 156.9C560.2 155.9 559 155.1 557.6 154.5C556.2 153.9 554.7 153.7 553 153.7C551.3 153.7 549.8 154 548.4 154.5C547 155 545.8 155.8 544.8 156.9C543.8 157.9 543 159.1 542.5 160.5C542 161.9 541.7 163.4 541.7 165.1C541.7 166.8 542 168.3 542.5 169.7C543.1 171.1 543.8 172.3 544.8 173.3C545.8 174.3 547 175.1 548.4 175.6C549.8 176.1 551.3 176.4 553 176.4C553.8 176.4 554.6 176.3 555.5 176.1C556.4 175.9 557.1 175.7 557.7 175.4C558 175.2 558.3 175.2 558.5 175.3C558.7 175.4 558.8 175.6 558.8 175.9C558.8 176.2 558.6 176.5 558.1 176.8C557.6 177.1 556.9 177.4 556 177.6C555.1 177.8 554.1 178.1 553 178.1ZM553 170.6C554 170.6 554.9 170.4 555.7 169.9C556.5 169.4 557.1 168.8 557.6 168C558.1 167.2 558.3 166.3 558.3 165.3C558.3 164.3 558.1 163.3 557.6 162.5C557.1 161.7 556.5 161.1 555.7 160.6C554.9 160.1 554 159.9 553 159.9C552 159.9 551.1 160.1 550.3 160.6C549.5 161.1 548.9 161.7 548.4 162.5C547.9 163.3 547.7 164.2 547.7 165.3C547.7 166.3 547.9 167.2 548.4 168C548.9 168.8 549.5 169.4 550.3 169.9C551 170.3 551.9 170.6 553 170.6Z" fill="#FEDB8F" stroke="#FEDB8F" stroke-miterlimit="10"/>
<path d="M29.2998 241.4C32.1998 238.5 36.9998 238.5 39.9998 241.4L42.4998 243.9C45.3998 246.8 50.1998 246.8 53.1998 243.9L55.6998 241.4C58.5998 238.5 63.3998 238.5 66.3998 241.4L68.8998 243.9C71.7998 246.8 76.5998 246.8 79.5998 243.9" stroke="white" stroke-width="2" stroke-miterlimit="10" stroke-linecap="round" stroke-linejoin="round"/>
<path d="M81.7998 241.4C84.6998 238.5 89.4998 238.5 92.4998 241.4L94.9998 243.9C97.8998 246.8 102.7 246.8 105.7 243.9L108.2 241.4C111.1 238.5 115.9 238.5 118.9 241.4L121.4 243.9C124.3 246.8 129.1 246.8 132.1 243.9" stroke="white" stroke-width="2" stroke-miterlimit="10" stroke-linecap="round" stroke-linejoin="round"/>
<path d="M55.5 241.4C58.4 238.5 63.2 238.5 66.2 241.4L68.7 243.9C71.6 246.8 76.4 246.8 79.4 243.9L81.9 241.4C84.8 238.5 89.6 238.5 92.6 241.4L95.1 243.9C98 246.8 102.8 246.8 105.8 243.9" stroke="white" stroke-width="2" stroke-miterlimit="10" stroke-linecap="round" stroke-linejoin="round"/>
<path d="M91.4004 143.9C94.3004 141 99.1004 141 102.1 143.9L104.6 146.4C107.5 149.3 112.3 149.3 115.3 146.4L117.8 143.9C120.7 141 125.5 141 128.5 143.9L131 146.4C133.9 149.3 138.7 149.3 141.7 146.4" stroke="white" stroke-width="2" stroke-miterlimit="10" stroke-linecap="round" stroke-linejoin="round"/>
<path d="M144 143.9C146.9 141 151.7 141 154.7 143.9L157.2 146.4C160.1 149.3 164.9 149.3 167.9 146.4L170.4 143.9C173.3 141 178.1 141 181.1 143.9L183.6 146.4C186.5 149.3 191.3 149.3 194.3 146.4" stroke="white" stroke-width="2" stroke-miterlimit="10" stroke-linecap="round" stroke-linejoin="round"/>
<path d="M117.7 143.9C120.6 141 125.4 141 128.4 143.9L130.9 146.4C133.8 149.3 138.6 149.3 141.6 146.4L144.1 143.9C147 141 151.8 141 154.8 143.9L157.3 146.4C160.2 149.3 165 149.3 168 146.4" stroke="white" stroke-width="2" stroke-miterlimit="10" stroke-linecap="round" stroke-linejoin="round"/>
<path d="M387.4 218.3C390.3 215.4 395.1 215.4 398.1 218.3L400.6 220.8C403.5 223.7 408.3 223.7 411.3 220.8L413.8 218.3C416.7 215.4 421.5 215.4 424.5 218.3L427 220.8C429.9 223.7 434.7 223.7 437.7 220.8" stroke="white" stroke-width="2" stroke-miterlimit="10" stroke-linecap="round" stroke-linejoin="round"/>
<path d="M439.9 218.3C442.8 215.4 447.6 215.4 450.6 218.3L453.1 220.8C456 223.7 460.8 223.7 463.8 220.8L466.3 218.3C469.2 215.4 474 215.4 477 218.3L479.5 220.8C482.4 223.7 487.2 223.7 490.2 220.8" stroke="white" stroke-width="2" stroke-miterlimit="10" stroke-linecap="round" stroke-linejoin="round"/>
<path d="M413.601 218.3C416.501 215.4 421.301 215.4 424.301 218.3L426.801 220.8C429.701 223.7 434.501 223.7 437.501 220.8L440.001 218.3C442.901 215.4 447.701 215.4 450.701 218.3L453.201 220.8C456.101 223.7 460.901 223.7 463.901 220.8" stroke="white" stroke-width="2" stroke-miterlimit="10" stroke-linecap="round" stroke-linejoin="round"/>
<path d="M231.6 248.4C234.5 245.5 239.3 245.5 242.3 248.4L244.8 250.9C247.7 253.8 252.5 253.8 255.5 250.9L258 248.4C260.9 245.5 265.7 245.5 268.7 248.4L271.2 250.9C274.1 253.8 278.9 253.8 281.9 250.9" stroke="#071146" stroke-width="2" stroke-miterlimit="10" stroke-linecap="round" stroke-linejoin="round"/>
<path d="M284.1 248.4C287 245.5 291.8 245.5 294.8 248.4L297.3 250.9C300.2 253.8 305 253.8 308 250.9L310.5 248.4C313.4 245.5 318.2 245.5 321.2 248.4L323.7 250.9C326.6 253.8 331.4 253.8 334.4 250.9" stroke="#071146" stroke-width="2" stroke-miterlimit="10" stroke-linecap="round" stroke-linejoin="round"/>
<path d="M257.899 248.4C260.799 245.5 265.599 245.5 268.599 248.4L271.099 250.9C273.999 253.8 278.799 253.8 281.799 250.9L284.299 248.4C287.199 245.5 291.999 245.5 294.999 248.4L297.499 250.9C300.399 253.8 305.199 253.8 308.199 250.9" stroke="#071146" stroke-width="2" stroke-miterlimit="10" stroke-linecap="round" stroke-linejoin="round"/>
<path d="M462.5 87.7C465.4 84.8 470.2 84.8 473.2 87.7L475.7 90.2C478.6 93.1 483.4 93.1 486.4 90.2L488.9 87.7C491.8 84.8 496.6 84.8 499.6 87.7L502.1 90.2C505 93.1 509.8 93.1 512.8 90.2" stroke="white" stroke-width="2" stroke-miterlimit="10" stroke-linecap="round" stroke-linejoin="round"/>
<path d="M515.1 87.7C518 84.8 522.8 84.8 525.8 87.7L528.3 90.2C531.2 93.1 536 93.1 539 90.2L541.5 87.7C544.4 84.8 549.2 84.8 552.2 87.7L554.7 90.2C557.6 93.1 562.4 93.1 565.4 90.2" stroke="white" stroke-width="2" stroke-miterlimit="10" stroke-linecap="round" stroke-linejoin="round"/>
<path d="M488.8 87.7C491.7 84.8 496.5 84.8 499.5 87.7L502 90.2C504.9 93.1 509.7 93.1 512.7 90.2L515.2 87.7C518.1 84.8 522.9 84.8 525.9 87.7L528.4 90.2C531.3 93.1 536.1 93.1 539.1 90.2" stroke="white" stroke-width="2" stroke-miterlimit="10" stroke-linecap="round" stroke-linejoin="round"/>
<path d="M361.1 3.20002C364 0.300025 368.8 0.300025 371.8 3.20002L374.3 5.70002C377.2 8.60002 382 8.60002 385 5.70002L387.5 3.20002C390.4 0.300025 395.2 0.300025 398.2 3.20002L400.7 5.70002C403.6 8.60002 408.4 8.60002 411.4 5.70002" stroke="#FCAA90" stroke-width="2" stroke-miterlimit="10" stroke-linejoin="round"/>
<path d="M413.699 3.20002C416.599 0.300025 421.399 0.300025 424.399 3.20002L426.899 5.70002C429.799 8.60002 434.599 8.60002 437.599 5.70002L440.099 3.20002C442.999 0.300025 447.799 0.300025 450.799 3.20002L453.299 5.70002C456.199 8.60002 460.999 8.60002 463.999 5.70002" stroke="#FCAA90" stroke-width="2" stroke-miterlimit="10" stroke-linejoin="round"/>
<path d="M387.399 3.20002C390.299 0.300025 395.099 0.300025 398.099 3.20002L400.599 5.70002C403.499 8.60002 408.299 8.60002 411.299 5.70002L413.799 3.20002C416.699 0.300025 421.499 0.300025 424.499 3.20002L426.999 5.70002C429.899 8.60002 434.699 8.60002 437.699 5.70002" stroke="#FCAA90" stroke-width="2" stroke-miterlimit="10" stroke-linejoin="round"/>
<path d="M22.4002 108.1C23.8914 108.1 25.1002 106.891 25.1002 105.4C25.1002 103.909 23.8914 102.7 22.4002 102.7C20.909 102.7 19.7002 103.909 19.7002 105.4C19.7002 106.891 20.909 108.1 22.4002 108.1Z" fill="#FEDB8F"/>
<path d="M37.2 108.1C38.6912 108.1 39.9 106.891 39.9 105.4C39.9 103.909 38.6912 102.7 37.2 102.7C35.7088 102.7 34.5 103.909 34.5 105.4C34.5 106.891 35.7088 108.1 37.2 108.1Z" fill="#FEDB8F"/>
<path d="M51.9998 108.1C53.491 108.1 54.6998 106.891 54.6998 105.4C54.6998 103.909 53.491 102.7 51.9998 102.7C50.5086 102.7 49.2998 103.909 49.2998 105.4C49.2998 106.891 50.5086 108.1 51.9998 108.1Z" fill="#FEDB8F"/>
<path d="M66.9002 108.1C68.3914 108.1 69.6002 106.891 69.6002 105.4C69.6002 103.909 68.3914 102.7 66.9002 102.7C65.409 102.7 64.2002 103.909 64.2002 105.4C64.2002 106.891 65.409 108.1 66.9002 108.1Z" fill="#FEDB8F"/>
<path d="M81.7 108.1C83.1912 108.1 84.4 106.891 84.4 105.4C84.4 103.909 83.1912 102.7 81.7 102.7C80.2088 102.7 79 103.909 79 105.4C79 106.891 80.2088 108.1 81.7 108.1Z" fill="#FEDB8F"/>
<path d="M22.4002 94.6C23.8914 94.6 25.1002 93.3912 25.1002 91.9C25.1002 90.4088 23.8914 89.2 22.4002 89.2C20.909 89.2 19.7002 90.4088 19.7002 91.9C19.7002 93.3912 20.909 94.6 22.4002 94.6Z" fill="#FEDB8F"/>
<path d="M37.2 94.6C38.6912 94.6 39.9 93.3912 39.9 91.9C39.9 90.4088 38.6912 89.2 37.2 89.2C35.7088 89.2 34.5 90.4088 34.5 91.9C34.5 93.3912 35.7088 94.6 37.2 94.6Z" fill="#FEDB8F"/>
<path d="M51.9998 94.6C53.491 94.6 54.6998 93.3912 54.6998 91.9C54.6998 90.4088 53.491 89.2 51.9998 89.2C50.5086 89.2 49.2998 90.4088 49.2998 91.9C49.2998 93.3912 50.5086 94.6 51.9998 94.6Z" fill="#FEDB8F"/>
<path d="M66.9002 94.6C68.3914 94.6 69.6002 93.3912 69.6002 91.9C69.6002 90.4088 68.3914 89.2 66.9002 89.2C65.409 89.2 64.2002 90.4088 64.2002 91.9C64.2002 93.3912 65.409 94.6 66.9002 94.6Z" fill="#FEDB8F"/>
<path d="M81.7 94.6C83.1912 94.6 84.4 93.3912 84.4 91.9C84.4 90.4088 83.1912 89.2 81.7 89.2C80.2088 89.2 79 90.4088 79 91.9C79 93.3912 80.2088 94.6 81.7 94.6Z" fill="#FEDB8F"/>
<path d="M22.4002 81.1C23.8914 81.1 25.1002 79.8912 25.1002 78.4C25.1002 76.9088 23.8914 75.7 22.4002 75.7C20.909 75.7 19.7002 76.9088 19.7002 78.4C19.7002 79.8912 20.909 81.1 22.4002 81.1Z" fill="#FEDB8F"/>
<path d="M37.2 81.1C38.6912 81.1 39.9 79.8912 39.9 78.4C39.9 76.9088 38.6912 75.7 37.2 75.7C35.7088 75.7 34.5 76.9088 34.5 78.4C34.5 79.8912 35.7088 81.1 37.2 81.1Z" fill="#FEDB8F"/>
<path d="M51.9998 81.1C53.491 81.1 54.6998 79.8912 54.6998 78.4C54.6998 76.9088 53.491 75.7 51.9998 75.7C50.5086 75.7 49.2998 76.9088 49.2998 78.4C49.2998 79.8912 50.5086 81.1 51.9998 81.1Z" fill="#FEDB8F"/>
<path d="M66.9002 81.1C68.3914 81.1 69.6002 79.8912 69.6002 78.4C69.6002 76.9088 68.3914 75.7 66.9002 75.7C65.409 75.7 64.2002 76.9088 64.2002 78.4C64.2002 79.8912 65.409 81.1 66.9002 81.1Z" fill="#FEDB8F"/>
<path d="M81.7 81.1C83.1912 81.1 84.4 79.8912 84.4 78.4C84.4 76.9088 83.1912 75.7 81.7 75.7C80.2088 75.7 79 76.9088 79 78.4C79 79.8912 80.2088 81.1 81.7 81.1Z" fill="#FEDB8F"/>
<path d="M22.4002 67.6C23.8914 67.6 25.1002 66.3912 25.1002 64.9C25.1002 63.4088 23.8914 62.2 22.4002 62.2C20.909 62.2 19.7002 63.4088 19.7002 64.9C19.7002 66.3912 20.909 67.6 22.4002 67.6Z" fill="#FEDB8F"/>
<path d="M37.2 67.6C38.6912 67.6 39.9 66.3912 39.9 64.9C39.9 63.4088 38.6912 62.2 37.2 62.2C35.7088 62.2 34.5 63.4088 34.5 64.9C34.5 66.3912 35.7088 67.6 37.2 67.6Z" fill="#FEDB8F"/>
<path d="M51.9998 67.6C53.491 67.6 54.6998 66.3912 54.6998 64.9C54.6998 63.4088 53.491 62.2 51.9998 62.2C50.5086 62.2 49.2998 63.4088 49.2998 64.9C49.2998 66.3912 50.5086 67.6 51.9998 67.6Z" fill="#FEDB8F"/>
<path d="M66.9002 67.6C68.3914 67.6 69.6002 66.3912 69.6002 64.9C69.6002 63.4088 68.3914 62.2 66.9002 62.2C65.409 62.2 64.2002 63.4088 64.2002 64.9C64.2002 66.3912 65.409 67.6 66.9002 67.6Z" fill="#FEDB8F"/>
<path d="M81.7 67.6C83.1912 67.6 84.4 66.3912 84.4 64.9C84.4 63.4088 83.1912 62.2 81.7 62.2C80.2088 62.2 79 63.4088 79 64.9C79 66.3912 80.2088 67.6 81.7 67.6Z" fill="#FEDB8F"/>
<path d="M22.4002 54.1C23.8914 54.1 25.1002 52.8912 25.1002 51.4C25.1002 49.9088 23.8914 48.7 22.4002 48.7C20.909 48.7 19.7002 49.9088 19.7002 51.4C19.7002 52.8912 20.909 54.1 22.4002 54.1Z" fill="#FEDB8F"/>
<path d="M37.2 54.1C38.6912 54.1 39.9 52.8912 39.9 51.4C39.9 49.9088 38.6912 48.7 37.2 48.7C35.7088 48.7 34.5 49.9088 34.5 51.4C34.5 52.8912 35.7088 54.1 37.2 54.1Z" fill="#FEDB8F"/>
<path d="M51.9998 54.1C53.491 54.1 54.6998 52.8912 54.6998 51.4C54.6998 49.9088 53.491 48.7 51.9998 48.7C50.5086 48.7 49.2998 49.9088 49.2998 51.4C49.2998 52.8912 50.5086 54.1 51.9998 54.1Z" fill="#FEDB8F"/>
<path d="M66.9002 54.1C68.3914 54.1 69.6002 52.8912 69.6002 51.4C69.6002 49.9088 68.3914 48.7 66.9002 48.7C65.409 48.7 64.2002 49.9088 64.2002 51.4C64.2002 52.8912 65.409 54.1 66.9002 54.1Z" fill="#FEDB8F"/>
<path d="M81.7 54.1C83.1912 54.1 84.4 52.8912 84.4 51.4C84.4 49.9088 83.1912 48.7 81.7 48.7C80.2088 48.7 79 49.9088 79 51.4C79 52.8912 80.2088 54.1 81.7 54.1Z" fill="#FEDB8F"/>
<path d="M22.4002 40.6C23.8914 40.6 25.1002 39.3912 25.1002 37.9C25.1002 36.4088 23.8914 35.2 22.4002 35.2C20.909 35.2 19.7002 36.4088 19.7002 37.9C19.7002 39.3912 20.909 40.6 22.4002 40.6Z" fill="#FEDB8F"/>
<path d="M37.2 40.6C38.6912 40.6 39.9 39.3912 39.9 37.9C39.9 36.4088 38.6912 35.2 37.2 35.2C35.7088 35.2 34.5 36.4088 34.5 37.9C34.5 39.3912 35.7088 40.6 37.2 40.6Z" fill="#FEDB8F"/>
<path d="M51.9998 40.6C53.491 40.6 54.6998 39.3912 54.6998 37.9C54.6998 36.4088 53.491 35.2 51.9998 35.2C50.5086 35.2 49.2998 36.4088 49.2998 37.9C49.2998 39.3912 50.5086 40.6 51.9998 40.6Z" fill="#FEDB8F"/>
<path d="M66.9002 40.6C68.3914 40.6 69.6002 39.3912 69.6002 37.9C69.6002 36.4088 68.3914 35.2 66.9002 35.2C65.409 35.2 64.2002 36.4088 64.2002 37.9C64.2002 39.3912 65.409 40.6 66.9002 40.6Z" fill="#FEDB8F"/>
<path d="M81.7 40.6C83.1912 40.6 84.4 39.3912 84.4 37.9C84.4 36.4088 83.1912 35.2 81.7 35.2C80.2088 35.2 79 36.4088 79 37.9C79 39.3912 80.2088 40.6 81.7 40.6Z" fill="#FEDB8F"/>
<path d="M285.3 231.4H220.3C217.5 231.4 215.3 229.2 215.3 226.4V124.9C215.3 122.1 217.5 119.9 220.3 119.9H278.3C284.9 119.9 290.3 125.3 290.3 131.9V226.4C290.3 229.1 288.1 231.4 285.3 231.4Z" fill="white"/>
<path d="M295.3 231.4H360.3C363.1 231.4 365.3 229.2 365.3 226.4V124.9C365.3 122.1 363.1 119.9 360.3 119.9H302.3C295.7 119.9 290.3 125.3 290.3 131.9V226.4C290.3 229.1 292.6 231.4 295.3 231.4Z" fill="white"/>
<path d="M277.9 226.4H212.9C210.1 226.4 207.9 224.2 207.9 221.4V119.9C207.9 117.1 210.1 114.9 212.9 114.9H270.9C277.5 114.9 282.9 120.3 282.9 126.9V221.4C282.9 224.1 280.7 226.4 277.9 226.4Z" stroke="#071146" stroke-width="2" stroke-miterlimit="10" stroke-linecap="round" stroke-linejoin="round"/>
<path d="M287.9 226.4H352.9C355.7 226.4 357.9 224.2 357.9 221.4V119.9C357.9 117.1 355.7 114.9 352.9 114.9H294.9C288.3 114.9 282.9 120.3 282.9 126.9V221.4C282.9 224.1 285.2 226.4 287.9 226.4Z" stroke="#071146" stroke-width="2" stroke-miterlimit="10" stroke-linecap="round" stroke-linejoin="round"/>
<path d="M232.4 143.4L245.4 155.4L259.9 134.9" stroke="#071146" stroke-width="2" stroke-miterlimit="10" stroke-linecap="round" stroke-linejoin="round"/>
<path d="M315.3 138.5L331.6 154.8" stroke="#071146" stroke-width="2" stroke-miterlimit="10" stroke-linecap="round" stroke-linejoin="round"/>
<path d="M331.6 138.5L315.3 154.8" stroke="#071146" stroke-width="2" stroke-miterlimit="10" stroke-linecap="round" stroke-linejoin="round"/>
<path d="M225.2 170.6H267.2" stroke="#071146" stroke-width="2" stroke-miterlimit="10" stroke-linecap="round" stroke-linejoin="round"/>
<path d="M225.2 182.4H267.2" stroke="#071146" stroke-width="2" stroke-miterlimit="10" stroke-linecap="round" stroke-linejoin="round"/>
<path d="M225.2 194.1H267.2" stroke="#071146" stroke-width="2" stroke-miterlimit="10" stroke-linecap="round" stroke-linejoin="round"/>
<path d="M300.9 170.6H342.9" stroke="#071146" stroke-width="2" stroke-miterlimit="10" stroke-linecap="round" stroke-linejoin="round"/>
<path d="M300.9 182.4H342.9" stroke="#071146" stroke-width="2" stroke-miterlimit="10" stroke-linecap="round" stroke-linejoin="round"/>
<path d="M300.9 194.1H342.9" stroke="#071146" stroke-width="2" stroke-miterlimit="10" stroke-linecap="round" stroke-linejoin="round"/>
<path d="M41.0998 197.1C40.2998 197.4 39.4998 197.4 38.6998 197C37.8998 196.6 37.2998 196 36.9998 195.2C36.6998 194.4 36.6998 193.5 37.0998 192.7C37.4998 191.9 38.0998 191.3 38.8998 191C39.6998 190.7 40.5998 190.7 41.3998 191.1C42.1998 191.5 42.7998 192.1 43.0998 192.9C43.3998 193.7 43.3998 194.6 42.9998 195.4C42.4998 196.2 41.8998 196.8 41.0998 197.1ZM36.8998 187.2C36.2998 187.4 35.5998 187.4 34.9998 187.1C34.3998 186.8 33.9998 186.4 33.7998 185.8L25.6998 164.2C25.4998 163.6 25.4998 162.9 25.6998 162.3C25.9998 161.7 26.3998 161.3 27.0998 161C27.6998 160.8 28.3998 160.8 28.8998 161.1C29.4998 161.4 29.8998 161.8 30.0998 162.5L38.1998 184.1C38.3998 184.7 38.3998 185.3 38.0998 185.9C37.8998 186.5 37.4998 186.9 36.8998 187.2Z" stroke="white" stroke-width="2" stroke-miterlimit="10" stroke-linecap="round" stroke-linejoin="round"/>
<path d="M527.5 154C526.8 153.5 526.4 152.8 526.2 151.9C526 151 526.2 150.2 526.8 149.5C527.3 148.8 528 148.3 528.9 148.2C529.8 148.1 530.6 148.2 531.3 148.8C532 149.3 532.5 150 532.6 150.9C532.7 151.8 532.5 152.6 532 153.3C531.5 154 530.8 154.5 529.9 154.6C529 154.7 528.2 154.5 527.5 154ZM533.5 145C532.9 144.6 532.6 144.1 532.5 143.4C532.4 142.7 532.6 142.2 532.9 141.7L546.4 123.1C546.8 122.5 547.3 122.2 548 122.1C548.6 122 549.2 122.1 549.8 122.5C550.4 122.9 550.7 123.4 550.8 124.1C550.9 124.7 550.7 125.3 550.3 125.9L536.8 144.5C536.4 145 535.9 145.3 535.2 145.4C534.5 145.5 534 145.4 533.5 145Z" stroke="white" stroke-width="2" stroke-miterlimit="10" stroke-linecap="round" stroke-linejoin="round"/>
<path d="M232.4 131.9L227.5 126.3C226.6 125.3 225 125.3 224.1 126.3L219.2 131.9V108.6H232.5V131.9H232.4Z" fill="#95E196"/>
<path d="M230.6 129.7L225.7 124.1C224.8 123.1 223.2 123.1 222.3 124.1L217.4 129.7V106.5H230.7V129.7H230.6Z" stroke="#071146" stroke-width="2" stroke-miterlimit="10" stroke-linecap="round" stroke-linejoin="round"/>
<path d="M182 34C182.3 34 182.6 34.1 182.8 34.2C183 34.4 183.1 34.6 183 35C183 35.3 182.8 35.6 182.6 35.7C182.3 35.9 182 36 181.6 36H180L179.4 39.5H181C181.4 39.5 181.7 39.6 181.8 39.8C182 40 182.1 40.2 182.1 40.5C182.1 40.8 182 41 181.7 41.2C181.4 41.4 181.1 41.5 180.6 41.5H179L178.2 46.2C178.1 46.6 178 46.9 177.8 47.1C177.6 47.3 177.3 47.4 176.9 47.4C176.5 47.4 176.3 47.3 176.1 47C175.9 46.7 175.9 46.4 175.9 46.1L176.7 41.5H172.9L172.1 46.2C172 46.5 171.9 46.8 171.6 47.1C171.4 47.3 171.1 47.5 170.7 47.5C170.3 47.5 170.1 47.4 169.9 47.2C169.7 47 169.7 46.6 169.7 46.2L170.5 41.6H168.8C168.5 41.6 168.2 41.5 168 41.3C167.8 41.1 167.7 40.9 167.7 40.6C167.7 40.2 167.9 39.9 168.1 39.8C168.4 39.6 168.7 39.5 169.1 39.5H171L171.6 36H169.8C169.5 36 169.2 35.9 169 35.8C168.8 35.7 168.7 35.4 168.7 35.1C168.7 34.7 168.8 34.4 169.1 34.2C169.4 34 169.7 33.9 170.2 33.9H172.2L173 29.5C173.1 29.1 173.2 28.8 173.4 28.6C173.6 28.4 173.9 28.3 174.3 28.3C174.7 28.3 174.9 28.4 175.1 28.7C175.3 28.9 175.3 29.3 175.3 29.7L174.5 34H178.3L179.1 29.6C179.2 29.3 179.3 29 179.5 28.7C179.7 28.5 180 28.3 180.4 28.3C180.8 28.3 181 28.4 181.2 28.7C181.4 28.9 181.4 29.3 181.3 29.7L180.5 34H182ZM177.2 39.5L177.8 36H174L173.4 39.5H177.2Z" fill="#071146"/>
<path d="M289.5 81.6C289.8 81.6 290.1 81.7 290.3 81.8C290.5 82 290.6 82.2 290.5 82.6C290.5 82.9 290.3 83.2 290.1 83.3C289.8 83.5 289.5 83.6 289.1 83.6H287.5L286.9 87.1H288.5C288.9 87.1 289.2 87.2 289.3 87.4C289.5 87.6 289.6 87.8 289.6 88.1C289.6 88.4 289.5 88.6 289.2 88.8C288.9 89 288.6 89.1 288.1 89.1H286.3L285.5 93.8C285.4 94.2 285.3 94.5 285.1 94.7C284.9 94.9 284.6 95 284.2 95C283.8 95 283.6 94.9 283.4 94.6C283.2 94.3 283.2 94 283.2 93.7L284 89.1H280.2L279.4 93.8C279.3 94.1 279.2 94.4 278.9 94.7C278.7 94.9 278.4 95.1 278 95.1C277.6 95.1 277.4 95 277.2 94.8C277 94.6 277 94.2 277 93.8L277.8 89.2H276.1C275.8 89.2 275.5 89.1 275.3 88.9C275.1 88.7 275 88.5 275 88.2C275 87.8 275.2 87.5 275.4 87.4C275.7 87.2 276 87.1 276.4 87.1H278.3L278.9 83.6H277.1C276.8 83.6 276.5 83.5 276.3 83.4C276.1 83.3 276 83 276 82.7C276 82.3 276.1 82 276.4 81.8C276.7 81.6 277 81.5 277.5 81.5H279.5L280.3 77.1C280.4 76.7 280.5 76.4 280.7 76.2C280.9 76 281.2 75.9 281.6 75.9C282 75.9 282.2 76 282.4 76.3C282.6 76.5 282.6 76.9 282.6 77.3L281.8 81.6H285.6L286.4 77.2C286.5 76.9 286.6 76.6 286.8 76.3C287 76.1 287.3 75.9 287.7 75.9C288.1 75.9 288.3 76 288.5 76.3C288.7 76.5 288.7 76.9 288.6 77.3L287.8 81.6H289.5ZM284.6 87.1L285.2 83.6H281.4L280.8 87.1H284.6Z" fill="#071146"/>
<path d="M501.8 118.1C502.1 118.1 502.4 118.2 502.6 118.3C502.8 118.5 502.9 118.7 502.8 119.1C502.8 119.4 502.6 119.7 502.4 119.8C502.1 120 501.8 120.1 501.4 120.1H499.8L499.2 123.6H500.8C501.2 123.6 501.5 123.7 501.6 123.9C501.8 124.1 501.9 124.3 501.9 124.6C501.9 124.9 501.8 125.1 501.5 125.3C501.2 125.5 500.9 125.6 500.4 125.6H498.6L497.8 130.3C497.7 130.7 497.6 131 497.4 131.2C497.2 131.4 496.9 131.5 496.5 131.5C496.1 131.5 495.9 131.4 495.7 131.1C495.5 130.8 495.5 130.5 495.5 130.2L496.3 125.6H492.5L491.7 130.3C491.6 130.6 491.5 130.9 491.2 131.2C491 131.4 490.7 131.6 490.3 131.6C489.9 131.6 489.7 131.5 489.5 131.3C489.3 131.1 489.3 130.7 489.3 130.3L490.1 125.7H488.4C488.1 125.7 487.8 125.6 487.6 125.4C487.4 125.2 487.3 125 487.3 124.7C487.3 124.3 487.5 124 487.7 123.9C488 123.7 488.3 123.6 488.7 123.6H490.6L491.2 120.1H489.4C489.1 120.1 488.8 120 488.6 119.9C488.4 119.8 488.3 119.5 488.3 119.2C488.3 118.8 488.4 118.5 488.7 118.3C489 118.1 489.3 118 489.8 118H491.8L492.6 113.6C492.7 113.2 492.8 112.9 493 112.7C493.2 112.5 493.5 112.4 493.9 112.4C494.3 112.4 494.5 112.5 494.7 112.8C494.9 113 494.9 113.4 494.9 113.8L494.1 118.1H497.9L498.7 113.7C498.8 113.4 498.9 113.1 499.1 112.8C499.3 112.6 499.6 112.4 500 112.4C500.4 112.4 500.6 112.5 500.8 112.8C501 113 501 113.4 500.9 113.8L500.1 118.1H501.8ZM497 123.7L497.6 120.2H493.8L493.2 123.7H497Z" fill="#071146"/>
</g>
<defs>
<clipPath id="clip0">
<rect width="586" height="271.3" fill="white"/>
</clipPath>
</defs>
</svg>
