<svg width="83" height="95" viewBox="0 0 83 95" fill="none" xmlns="http://www.w3.org/2000/svg">
<g clip-path="url(#clip0)">
<path d="M69.1 60H18C16.1 60 14.5 58.4 14.5 56.5V4.5C14.5 2.6 16.1 1 18 1H69.1C71 1 72.6 2.6 72.6 4.5V56.5C72.6 58.4 71 60 69.1 60Z" fill="#FEDB8F"/>
<path d="M50.9996 93.9H31.7996C30.5996 93.9 29.5996 92.9 29.5996 91.7V81.5C29.5996 80.3 30.5996 79.3 31.7996 79.3H50.9996C52.1996 79.3 53.1996 80.3 53.1996 81.5V91.7C53.1996 92.9 52.1996 93.9 50.9996 93.9Z" fill="white" stroke="#071146" stroke-width="2" stroke-miterlimit="10" stroke-linecap="round" stroke-linejoin="round"/>
<path d="M22.4 93.9H3.2C2 93.9 1 92.9 1 91.7V81.5C1 80.3 2 79.3 3.2 79.3H22.4C23.6 79.3 24.6 80.3 24.6 81.5V91.7C24.7 92.9 23.7 93.9 22.4 93.9Z" fill="white" stroke="#071146" stroke-width="2" stroke-miterlimit="10" stroke-linecap="round" stroke-linejoin="round"/>
<path d="M79.4996 93.9H60.2996C59.0996 93.9 58.0996 92.9 58.0996 91.7V81.5C58.0996 80.3 59.0996 79.3 60.2996 79.3H79.4996C80.6996 79.3 81.6996 80.3 81.6996 81.5V91.7C81.6996 92.9 80.6996 93.9 79.4996 93.9Z" fill="white" stroke="#071146" stroke-width="2" stroke-miterlimit="10" stroke-linecap="round" stroke-linejoin="round"/>
<path d="M41.2998 72.8V64.4" stroke="#071146" stroke-width="2" stroke-miterlimit="10" stroke-linecap="round" stroke-linejoin="round"/>
<path d="M35.2002 86.6H46.7002" stroke="#071146" stroke-width="2" stroke-miterlimit="10" stroke-linecap="round" stroke-linejoin="round"/>
<path d="M64.0996 86.6H75.5996" stroke="#071146" stroke-width="2" stroke-miterlimit="10" stroke-linecap="round" stroke-linejoin="round"/>
<path d="M7.09961 86.6H18.5996" stroke="#071146" stroke-width="2" stroke-miterlimit="10" stroke-linecap="round" stroke-linejoin="round"/>
<path d="M11.7002 74.2V69.7H25.4002V64.4" stroke="#071146" stroke-width="2" stroke-miterlimit="10" stroke-linecap="round" stroke-linejoin="round"/>
<path d="M70.6004 74.2V69.7H56.9004V64.4" stroke="#071146" stroke-width="2" stroke-miterlimit="10" stroke-linecap="round" stroke-linejoin="round"/>
<path d="M65.8998 44.2H16.5998C13.8998 44.2 11.7998 42 11.7998 39.4V21.7C11.7998 19 13.9998 16.9 16.5998 16.9H65.9998C68.6998 16.9 70.7998 19.1 70.7998 21.7V39.4C70.6998 42 68.5998 44.2 65.8998 44.2Z" stroke="#071146" stroke-width="2" stroke-miterlimit="10" stroke-linecap="round" stroke-linejoin="round"/>
<path d="M67.1002 60H15.4002C13.4002 60 11.7002 58.3 11.7002 56.3V47.8C11.7002 45.8 13.4002 44.1 15.4002 44.1H67.1002C69.1002 44.1 70.8002 45.8 70.8002 47.8V56.3C70.7002 58.3 69.1002 60 67.1002 60Z" stroke="#071146" stroke-width="2" stroke-miterlimit="10" stroke-linecap="round" stroke-linejoin="round"/>
<path d="M67.1002 16.8H15.4002C13.4002 16.8 11.7002 15.1 11.7002 13.1V4.7C11.7002 2.7 13.4002 1 15.4002 1H67.1002C69.1002 1 70.8002 2.7 70.8002 4.7V13.2C70.7002 15.2 69.1002 16.8 67.1002 16.8Z" stroke="#071146" stroke-width="2" stroke-miterlimit="10" stroke-linecap="round" stroke-linejoin="round"/>
<path d="M23.1998 34.4C25.3537 34.4 27.0998 32.6539 27.0998 30.5C27.0998 28.3461 25.3537 26.6 23.1998 26.6C21.0459 26.6 19.2998 28.3461 19.2998 30.5C19.2998 32.6539 21.0459 34.4 23.1998 34.4Z" fill="white" stroke="#071146" stroke-width="2" stroke-miterlimit="10" stroke-linecap="round" stroke-linejoin="round"/>
<path d="M40.0006 34.4C42.1545 34.4 43.9006 32.6539 43.9006 30.5C43.9006 28.3461 42.1545 26.6 40.0006 26.6C37.8467 26.6 36.1006 28.3461 36.1006 30.5C36.1006 32.6539 37.8467 34.4 40.0006 34.4Z" fill="white" stroke="#071146" stroke-width="2" stroke-miterlimit="10" stroke-linecap="round" stroke-linejoin="round"/>
<path d="M56.9 34.4C59.0539 34.4 60.8 32.6539 60.8 30.5C60.8 28.3461 59.0539 26.6 56.9 26.6C54.7461 26.6 53 28.3461 53 30.5C53 32.6539 54.7461 34.4 56.9 34.4Z" fill="white" stroke="#071146" stroke-width="2" stroke-miterlimit="10" stroke-linecap="round" stroke-linejoin="round"/>
</g>
<defs>
<clipPath id="clip0">
<rect width="82.7" height="94.9" fill="white"/>
</clipPath>
</defs>
</svg>
