<svg width="606" height="192" viewBox="0 0 606 192" fill="none" xmlns="http://www.w3.org/2000/svg">
<path d="M185.22 189.464C183.3 189.464 181.668 188.744 180.324 187.304C178.98 185.864 178.308 184.136 178.308 182.12V163.976H130.356C128.148 163.976 126.42 163.304 125.172 161.96C123.924 160.616 123.204 159.08 123.012 157.352C122.916 155.528 123.396 153.896 124.452 152.456L179.604 80.168C180.372 79.208 181.236 78.44 182.196 77.864C183.252 77.288 184.404 77 185.652 77C187.668 77 189.3 77.72 190.548 79.16C191.796 80.6 192.42 82.376 192.42 84.488V150.728H201.06C203.076 150.728 204.804 151.208 206.244 152.168C207.684 153.128 208.404 154.856 208.404 157.352C208.404 159.176 207.684 160.76 206.244 162.104C204.804 163.352 203.076 163.976 201.06 163.976H192.42V182.12C192.42 184.136 191.748 185.864 190.404 187.304C189.06 188.744 187.332 189.464 185.22 189.464ZM138.996 154.76L135.108 150.728H178.308V91.4L182.772 97.16L138.996 154.76Z" fill="#071146"/>
<path d="M455.22 189.464C453.3 189.464 451.668 188.744 450.324 187.304C448.98 185.864 448.308 184.136 448.308 182.12V163.976H400.356C398.148 163.976 396.42 163.304 395.172 161.96C393.924 160.616 393.204 159.08 393.012 157.352C392.916 155.528 393.396 153.896 394.452 152.456L449.604 80.168C450.372 79.208 451.236 78.44 452.196 77.864C453.252 77.288 454.404 77 455.652 77C457.668 77 459.3 77.72 460.548 79.16C461.796 80.6 462.42 82.376 462.42 84.488V150.728H471.06C473.076 150.728 474.804 151.208 476.244 152.168C477.684 153.128 478.404 154.856 478.404 157.352C478.404 159.176 477.684 160.76 476.244 162.104C474.804 163.352 473.076 163.976 471.06 163.976H462.42V182.12C462.42 184.136 461.748 185.864 460.404 187.304C459.06 188.744 457.332 189.464 455.22 189.464ZM408.996 154.76L405.108 150.728H448.308V91.4L452.772 97.16L408.996 154.76Z" fill="#071146"/>
<path d="M309.475 114.6V176.1" stroke="#B1DEF5" stroke-width="3" stroke-miterlimit="10"/>
<path d="M316.175 113.9V176.1" stroke="#B1DEF5" stroke-width="3" stroke-miterlimit="10"/>
<path d="M322.775 110.5V174.9" stroke="#B1DEF5" stroke-width="3" stroke-miterlimit="10"/>
<path d="M328.975 108.3V173.2" stroke="#B1DEF5" stroke-width="3" stroke-miterlimit="10"/>
<path d="M336.475 117.8V170.6" stroke="#B1DEF5" stroke-width="3" stroke-miterlimit="10"/>
<path d="M279.475 116.1V169.5" stroke="#B1DEF5" stroke-width="3" stroke-miterlimit="10"/>
<path d="M272.575 127.1V165.8" stroke="#B1DEF5" stroke-width="3" stroke-miterlimit="10"/>
<path d="M342.975 132.7V167.5" stroke="#B1DEF5" stroke-width="3" stroke-miterlimit="10"/>
<path d="M287.875 108.3V172.9" stroke="#B1DEF5" stroke-width="3" stroke-miterlimit="10"/>
<path d="M295.575 109.9V174.8" stroke="#B1DEF5" stroke-width="3" stroke-miterlimit="10"/>
<path d="M302.775 113.9V175.9" stroke="#B1DEF5" stroke-width="3" stroke-miterlimit="10"/>
<path d="M290.375 71.3C289.775 74.3 289.375 77.5 289.375 80.8C289.375 97.6 298.275 111.2 309.175 111.2C315.475 111.2 321.275 106.3 324.875 99.3C324.875 99.3 327.775 93.6 328.775 82.9C329.175 78.4 328.775 71.8 327.675 68" stroke="#071146" stroke-width="2" stroke-miterlimit="10"/>
<path d="M299.975 85.1C303.565 85.1 306.475 82.1899 306.475 78.6C306.475 75.0102 303.565 72.1 299.975 72.1C296.385 72.1 293.475 75.0102 293.475 78.6C293.475 82.1899 296.385 85.1 299.975 85.1Z" stroke="#071146" stroke-width="2" stroke-miterlimit="10"/>
<path d="M318.375 85.1C321.965 85.1 324.875 82.1899 324.875 78.6C324.875 75.0102 321.965 72.1 318.375 72.1C314.785 72.1 311.875 75.0102 311.875 78.6C311.875 82.1899 314.785 85.1 318.375 85.1Z" stroke="#071146" stroke-width="2" stroke-miterlimit="10"/>
<path d="M306.175 78.9C306.375 78.8 306.575 78.6 306.875 78.4C307.475 77.9 308.275 77.8 309.075 77.7C309.575 77.7 310.175 77.7 310.675 77.8C311.175 77.9 311.675 78.2 312.075 78.6" stroke="#071146" stroke-width="2" stroke-miterlimit="10"/>
<path d="M324.975 77.5C325.475 76.9 325.975 76.4 326.675 75.9C327.175 75.5 327.675 75.2 328.275 75.1C329.475 74.9 330.575 75.9 330.875 77C331.075 78.2 330.475 79.4 329.475 80" stroke="#071146" stroke-width="2" stroke-miterlimit="10"/>
<path d="M293.675 77.2C292.475 76.5 291.175 76 289.775 75.9C289.575 75.9 289.375 75.9 289.175 75.9C288.875 76 288.675 76.2 288.475 76.5C288.075 77.1 287.775 77.8 287.975 78.5C288.175 79.2 288.575 79.9 289.275 80" stroke="#071146" stroke-width="2" stroke-miterlimit="10"/>
<path d="M315.275 59.3C316.375 60.9 317.875 62.3 319.575 63.6C322.575 65.7 326.275 67 330.075 67.3C330.875 65.6 334.275 49 317.375 51.2C316.875 51.3 316.475 51.4 315.975 51.2C315.575 51.1 315.275 50.8 314.975 50.5C311.775 47.5 306.375 46.6 302.175 48.4C299.775 49.4 290.575 58.4 288.375 69.2C287.675 72.5 289.475 70.7 292.175 70.3C298.075 69.5 303.775 67.5 308.775 64.5C310.275 63.7 315.375 60 315.275 59.3Z" fill="#B1DEF5"/>
<path d="M290.375 71.3C291.675 71 292.975 70.7 294.275 70.3C298.175 69 301.975 67.3 305.375 65.1C305.975 64.7 311.975 60.1 314.375 57.8C314.575 58.6 314.875 59.1 315.475 59.8C318.775 63.5 322.975 66.4 327.675 68.1C329.275 64.9 329.575 61.3 328.975 57.8C328.175 53 322.775 50 317.875 49.6C316.775 49.5 315.575 49.6 314.675 50.2C311.575 48.9 308.175 47.5 304.875 47.1C301.575 46.7 297.975 47.3 295.475 49.4C294.375 50.3 293.575 51.5 292.775 52.7C289.075 58.5 287.575 65 285.875 71.7C287.375 71.7 288.875 71.5 290.375 71.3Z" stroke="#071146" stroke-width="2" stroke-miterlimit="10"/>
<path d="M309.475 102.1C310.856 102.1 311.975 100.399 311.975 98.3C311.975 96.2013 310.856 94.5 309.475 94.5C308.094 94.5 306.975 96.2013 306.975 98.3C306.975 100.399 308.094 102.1 309.475 102.1Z" stroke="#071146" stroke-width="2" stroke-miterlimit="10"/>
<path d="M296.175 103.7C278.375 111.2 266.275 129.7 265.575 160.9" stroke="#071146" stroke-width="2" stroke-miterlimit="10"/>
<path d="M322.775 102.9C342.075 117 348.075 141.2 345.275 166.1" stroke="#071146" stroke-width="2" stroke-miterlimit="10"/>
<path d="M289.375 79.8C284.675 84.2 282.175 89.6 283.475 95.2C284.275 98.6 286.475 101.6 288.375 104.7C299.075 122.1 287.775 132.6 282.275 130.1C279.175 128.7 277.375 125.8 278.375 123.1" stroke="#071146" stroke-width="2" stroke-miterlimit="10" stroke-linecap="round" stroke-linejoin="round"/>
<path d="M328.975 79.4C335.975 85.3 337.275 94.2 335.775 102C334.275 109.8 330.375 117.4 328.775 125.2C328.275 127.4 328.475 130.9 330.775 132.1C334.175 134 338.375 130.5 337.175 123.7" stroke="#071146" stroke-width="2" stroke-miterlimit="10" stroke-linecap="round" stroke-linejoin="round"/>
<path d="M274.475 123.6C276.675 122.6 279.375 122.5 281.575 123.4" stroke="#071146" stroke-width="2" stroke-miterlimit="10" stroke-linecap="round" stroke-linejoin="round"/>
<path d="M333.175 124.3C334.275 123.7 335.475 123.7 336.675 123.7C337.875 123.7 339.275 123.8 339.875 124.8" stroke="#071146" stroke-width="2" stroke-miterlimit="10" stroke-linecap="round" stroke-linejoin="round"/>
<path d="M292.175 105.6C293.275 107.7 293.775 108.2 295.475 109.9C296.575 111 297.875 111.7 299.275 112.3C304.275 114.5 310.075 115.2 315.475 114.1C320.875 112.9 323.375 110.5 326.675 106.1" stroke="#071146" stroke-width="2" stroke-miterlimit="10" stroke-linecap="round" stroke-linejoin="round"/>
<path d="M309.075 176.3C347.403 176.3 378.475 145.229 378.475 106.9C378.475 68.5714 347.403 37.5 309.075 37.5C270.746 37.5 239.675 68.5714 239.675 106.9C239.675 145.229 270.746 176.3 309.075 176.3Z" stroke="#071146" stroke-width="2" stroke-miterlimit="10" stroke-linecap="round" stroke-linejoin="round"/>
<path d="M253.175 48.6C267.675 34.7 287.375 26.1 309.075 26.1C353.675 26.1 389.875 62.3 389.875 106.9C389.875 151.5 353.675 187.7 309.075 187.7C264.475 187.7 228.275 151.5 228.275 106.9C228.275 88.3 234.575 71.2 245.075 57.6" stroke="#071146" stroke-width="2" stroke-miterlimit="10" stroke-linecap="round" stroke-linejoin="round"/>
<path d="M245 57.5L198.575 10.975C196.475 8.875 196.475 5.575 198.575 3.475L199.475 2.575C201.575 0.475 204.875 0.475 206.975 2.575L253 49" stroke="#071146" stroke-width="2" stroke-miterlimit="10" stroke-linecap="round" stroke-linejoin="round"/>
<path d="M552.436 59.4329C557.836 59.4329 561.836 54.1329 560.036 49.0329C559.936 48.8329 559.836 48.5329 559.736 48.3329C558.036 44.6329 553.736 42.3329 549.736 43.0329C552.436 39.7329 551.736 34.2329 548.336 31.6329C544.936 29.0329 539.536 29.9329 537.036 33.3329C537.036 28.7329 533.236 24.6329 528.836 23.4329C524.436 22.2329 519.436 23.6329 515.736 26.3329C512.636 28.6329 510.136 31.9329 509.636 35.7329C505.736 34.1329 501.036 36.5329 499.136 40.2329C498.936 40.6329 498.736 41.1329 498.536 41.7329C495.936 50.8329 503.136 59.8329 512.636 59.7329L552.436 59.4329Z" fill="#B1DEF5"/>
<path d="M122.436 83.4329C127.836 83.4329 131.836 78.1329 130.036 73.0329C129.936 72.8329 129.836 72.5329 129.736 72.3329C128.036 68.6329 123.736 66.3329 119.736 67.0329C122.436 63.7329 121.736 58.2329 118.336 55.6329C114.936 53.0329 109.536 53.9329 107.036 57.3329C107.036 52.7329 103.236 48.6329 98.8363 47.4329C94.4363 46.2329 89.4363 47.6329 85.7363 50.3329C82.6363 52.6329 80.1363 55.9329 79.6363 59.7329C75.7363 58.1329 71.0363 60.5329 69.1363 64.2329C68.9363 64.6329 68.7363 65.1329 68.5363 65.7329C65.9363 74.8329 73.1363 83.8329 82.6363 83.7329L122.436 83.4329Z" fill="#B1DEF5"/>
<path d="M600.082 143.779C604.058 143.779 607.004 139.883 605.678 136.135C605.605 135.988 605.531 135.767 605.457 135.62C604.206 132.901 601.039 131.21 598.094 131.725C600.082 129.299 599.567 125.256 597.063 123.345C594.56 121.434 590.584 122.096 588.743 124.595C588.743 121.214 585.945 118.2 582.705 117.318C579.465 116.436 575.784 117.465 573.06 119.45C570.777 121.14 568.936 123.566 568.568 126.359C565.696 125.183 562.236 126.947 560.837 129.667C560.689 129.961 560.542 130.328 560.395 130.769C558.481 137.458 563.782 144.073 570.777 143.999L600.082 143.779Z" fill="#B1DEF5"/>
<path d="M134.082 147.779C138.058 147.779 141.004 143.883 139.678 140.135C139.605 139.988 139.531 139.767 139.457 139.62C138.206 136.901 135.039 135.21 132.094 135.725C134.082 133.299 133.567 129.256 131.063 127.345C128.56 125.434 124.584 126.096 122.743 128.595C122.743 125.214 119.945 122.2 116.705 121.318C113.465 120.436 109.784 121.465 107.06 123.45C104.777 125.14 102.936 127.566 102.568 130.359C99.6964 129.183 96.2357 130.947 94.8367 133.667C94.6894 133.961 94.5422 134.328 94.3949 134.769C92.4805 141.458 97.782 148.073 104.777 147.999L134.082 147.779Z" fill="#B1DEF5"/>
<path d="M27.8833 120.844C30.6493 120.844 32.6981 118.103 31.7761 115.465C31.7249 115.362 31.6737 115.207 31.6225 115.103C30.7517 113.189 28.5492 112 26.5003 112.362C27.8833 110.655 27.5247 107.81 25.7832 106.465C24.0416 105.12 21.2757 105.586 19.9951 107.345C19.9951 104.965 18.0487 102.845 15.7949 102.224C13.5412 101.603 10.9801 102.327 9.08487 103.724C7.497 104.914 6.21645 106.62 5.96034 108.586C3.96269 107.758 1.55527 109 0.582054 110.913C0.479611 111.12 0.377167 111.379 0.274723 111.689C-1.05704 116.396 2.63093 121.051 7.497 121L27.8833 120.844Z" fill="#B1DEF5"/>
<path d="M509.883 121.844C512.649 121.844 514.698 119.103 513.776 116.465C513.725 116.362 513.674 116.207 513.622 116.103C512.752 114.189 510.549 113 508.5 113.362C509.883 111.655 509.525 108.81 507.783 107.465C506.042 106.12 503.276 106.586 501.995 108.345C501.995 105.965 500.049 103.845 497.795 103.224C495.541 102.603 492.98 103.327 491.085 104.724C489.497 105.914 488.216 107.62 487.96 109.586C485.963 108.758 483.555 110 482.582 111.913C482.48 112.12 482.377 112.379 482.275 112.689C480.943 117.396 484.631 122.051 489.497 122L509.883 121.844Z" fill="#B1DEF5"/>
<path d="M571.436 191.433C576.836 191.433 580.836 186.133 579.036 181.033C578.936 180.833 578.836 180.533 578.736 180.333C577.036 176.633 572.736 174.333 568.736 175.033C571.436 171.733 570.736 166.233 567.336 163.633C563.936 161.033 558.536 161.933 556.036 165.333C556.036 160.733 552.236 156.633 547.836 155.433C543.436 154.233 538.436 155.633 534.736 158.333C531.636 160.633 529.136 163.933 528.636 167.733C524.736 166.133 520.036 168.533 518.136 172.233C517.936 172.633 517.736 173.133 517.536 173.733C514.936 182.833 522.136 191.833 531.636 191.733L571.436 191.433Z" fill="#B1DEF5"/>
<path d="M100.954 191.771C105.016 191.771 108.025 187.731 106.671 183.843C106.596 183.691 106.521 183.462 106.445 183.31C105.167 180.49 101.932 178.736 98.9223 179.27C100.954 176.755 100.427 172.562 97.869 170.58C95.3112 168.599 91.2486 169.285 89.3678 171.876C89.3678 168.37 86.509 165.245 83.1988 164.33C79.8886 163.415 76.127 164.482 73.3434 166.54C71.0112 168.294 69.1304 170.809 68.7543 173.706C65.8202 172.486 62.2843 174.315 60.8549 177.136C60.7044 177.441 60.554 177.822 60.4035 178.279C58.4475 185.215 63.8642 192.076 71.0112 191.999L100.954 191.771Z" fill="#B1DEF5"/>
</svg>
