<svg width="88" height="95" viewBox="0 0 88 95" fill="none" xmlns="http://www.w3.org/2000/svg">
<g clip-path="url(#clip0)">
<path d="M77 93.9002L10 93.6002C5.1 93.6002 1 89.5002 1 84.6002L1.2 36.7002C1.2 31.8002 5.3 27.7002 10.2 27.7002L77.3 27.9002C82.2 27.9002 86.3 32.0002 86.3 36.9002L86.1 84.8002C86 89.9002 82 93.9002 77 93.9002Z" stroke="#071146" stroke-width="2" stroke-miterlimit="10" stroke-linecap="round" stroke-linejoin="round"/>
<path d="M41.7 88L12.5 87.9C9.40002 87.9 6.90002 85.3 6.90002 82.2L7.00002 39.1C7.00002 36 9.60002 33.5 12.7 33.5L41.9 33.6C45 33.6 47.5 36.2 47.5 39.3L47.4 82.5C47.3 85.5 44.8 88 41.7 88Z" fill="white" stroke="#071146" stroke-width="2" stroke-miterlimit="10" stroke-linecap="round" stroke-linejoin="round"/>
<path d="M26.7 58.6001C30.2899 58.6001 33.2 55.6899 33.2 52.1001C33.2 48.5102 30.2899 45.6001 26.7 45.6001C23.1102 45.6001 20.2 48.5102 20.2 52.1001C20.2 55.6899 23.1102 58.6001 26.7 58.6001Z" stroke="#071146" stroke-width="2" stroke-miterlimit="10" stroke-linecap="round" stroke-linejoin="round"/>
<path d="M26.6 76.0003C32 76.0003 36.5 71.6003 36.5 66.1003V64.6003C36.5 63.6003 35.7 62.8003 34.7 62.8003H18.6C17.6 62.8003 16.8 63.6003 16.8 64.6003V66.1003C16.8 71.5003 21.2 76.0003 26.6 76.0003Z" stroke="#071146" stroke-width="2" stroke-miterlimit="10" stroke-linecap="round" stroke-linejoin="round"/>
<path d="M63.3665 39.8347C72.3421 31.1612 72.5869 16.8539 63.9134 7.87831C55.24 -1.09723 40.9326 -1.34209 31.957 7.33139C22.9815 16.0049 22.7366 30.3122 31.4101 39.2878C40.0836 48.2633 54.391 48.5082 63.3665 39.8347Z" fill="#95E196" stroke="#071146" stroke-width="2" stroke-miterlimit="10" stroke-linecap="round" stroke-linejoin="round"/>
<path d="M48.5 15.6001L39.6 24.5001C37.6 26.5001 37.6 29.8001 39.6 31.7001C41.6 33.7001 44.9 33.7001 46.8 31.7001L55.7 22.8001C57.7 20.8001 57.7 17.5001 55.7 15.6001C53.7 13.6001 50.5 13.6001 48.5 15.6001Z" stroke="#071146" stroke-width="2" stroke-miterlimit="10" stroke-linecap="round" stroke-linejoin="round"/>
<path d="M58.6 12.3003L52.5 18.7003" stroke="#071146" stroke-width="2" stroke-miterlimit="10" stroke-linecap="round" stroke-linejoin="round"/>
<path d="M42.6 28.5L36.5 34.9" stroke="#071146" stroke-width="2" stroke-miterlimit="10" stroke-linecap="round" stroke-linejoin="round"/>
<path d="M53.9 49.5H76.6" stroke="#071146" stroke-width="2" stroke-miterlimit="10" stroke-linecap="round" stroke-linejoin="round"/>
<path d="M53.9 55.7998H76.6" stroke="#071146" stroke-width="2" stroke-miterlimit="10" stroke-linecap="round" stroke-linejoin="round"/>
<path d="M53.9 62H76.6" stroke="#071146" stroke-width="2" stroke-miterlimit="10" stroke-linecap="round" stroke-linejoin="round"/>
<path d="M53.9 68.2002H76.6" stroke="#071146" stroke-width="2" stroke-miterlimit="10" stroke-linecap="round" stroke-linejoin="round"/>
<path d="M53.9 74.5H76.6" stroke="#071146" stroke-width="2" stroke-miterlimit="10" stroke-linecap="round" stroke-linejoin="round"/>
</g>
<defs>
<clipPath id="clip0">
<rect width="87.2" height="94.9" fill="white"/>
</clipPath>
</defs>
</svg>
