<svg width="1141" height="452" viewBox="0 0 1141 452" fill="none" xmlns="http://www.w3.org/2000/svg">
<path d="M150.4 267.4C150.8 267.3 151.1 267 151.1 266.6C151.1 266.3 151.1 265.9 151.1 265.6C151.1 265.3 151.1 264.9 151.1 264.6C151.1 264.2 150.8 263.9 150.4 263.8L149.1 263.6C148.7 263.5 148.5 263.3 148.4 262.9C148.3 262.6 148.4 262.2 148.7 262L149.8 261.1C150.1 260.8 150.2 260.4 150.1 260.1C149.8 259.5 149.5 258.9 149.1 258.4C148.9 258.1 148.4 257.9 148 258.1L146.7 258.6C146.4 258.7 146 258.6 145.7 258.4C145.4 258.1 145.4 257.8 145.5 257.4L146 256.1C146.1 255.7 146 255.3 145.7 255C145.2 254.6 144.6 254.3 144 254C143.6 253.8 143.2 253.9 143 254.3L142.1 255.4C141.9 255.7 141.5 255.8 141.2 255.7C140.9 255.6 140.6 255.3 140.5 255L140.3 253.7C140.2 253.3 139.9 253 139.5 253C139.2 253 138.8 253 138.5 253C138.2 253 137.8 253 137.5 253C137.1 253 136.8 253.3 136.7 253.7L136.5 255C136.4 255.4 136.2 255.6 135.8 255.7C135.5 255.8 135.1 255.7 134.9 255.4L134 254.3C133.7 254 133.3 253.9 133 254C132.4 254.3 131.8 254.6 131.3 255C131 255.2 130.8 255.7 131 256.1L131.5 257.4C131.6 257.7 131.5 258.1 131.3 258.4C131 258.7 130.7 258.7 130.3 258.6L129 258.1C128.6 258 128.2 258.1 127.9 258.4C127.5 258.9 127.2 259.5 126.9 260.1C126.7 260.5 126.8 260.9 127.2 261.1L128.3 262C128.6 262.2 128.7 262.6 128.6 262.9C128.5 263.2 128.2 263.5 127.9 263.6L126.6 263.8C126.2 263.9 125.9 264.2 125.9 264.6C125.9 264.9 125.9 265.3 125.9 265.6C125.9 265.9 125.9 266.3 125.9 266.6C125.9 267 126.2 267.3 126.6 267.4L127.9 267.6C128.3 267.7 128.5 267.9 128.6 268.3C128.7 268.6 128.6 269 128.3 269.2L127.2 270.1C126.9 270.4 126.8 270.8 126.9 271.1C127.2 271.7 127.5 272.3 127.9 272.8C128.1 273.1 128.6 273.3 129 273.1L130.3 272.6C130.6 272.5 131 272.6 131.3 272.8C131.6 273.1 131.6 273.4 131.5 273.8L131 275.1C130.9 275.5 131 275.9 131.3 276.2C131.8 276.6 132.4 276.9 133 277.2C133.4 277.4 133.8 277.3 134 276.9L134.9 275.8C135.1 275.5 135.5 275.4 135.8 275.5C136.1 275.6 136.4 275.9 136.5 276.2L136.7 277.5C136.8 277.9 137.1 278.2 137.5 278.2C137.8 278.2 138.2 278.2 138.5 278.2C138.8 278.2 139.2 278.2 139.5 278.2C139.9 278.2 140.2 277.9 140.3 277.5L140.5 276.2C140.6 275.8 140.8 275.6 141.2 275.5C141.5 275.4 141.9 275.5 142.1 275.8L143 276.9C143.3 277.2 143.7 277.3 144 277.2C144.6 276.9 145.2 276.6 145.7 276.2C146 276 146.2 275.5 146 275.1L145.5 273.8C145.4 273.5 145.5 273.1 145.7 272.8C146 272.5 146.3 272.5 146.7 272.6L148 273.1C148.4 273.2 148.8 273.1 149.1 272.8C149.5 272.3 149.8 271.7 150.1 271.1C150.3 270.7 150.2 270.3 149.8 270.1L148.7 269.2C148.4 269 148.3 268.6 148.4 268.3C148.5 268 148.8 267.7 149.1 267.6L150.4 267.4Z" stroke="#0052CC" stroke-width="2" stroke-miterlimit="10" stroke-linecap="round" stroke-linejoin="round"/>
<path d="M138.3 259.5C135 259.5 132.2 262.2 132.2 265.6C132.2 268.9 134.9 271.7 138.3 271.7C141.6 271.7 144.4 269 144.4 265.6C144.4 262.2 141.7 259.5 138.3 259.5Z" stroke="#0052CC" stroke-width="2" stroke-miterlimit="10" stroke-linecap="round" stroke-linejoin="round"/>
<path d="M1138.5 244.4C1138.9 244.3 1139.2 244 1139.2 243.6C1139.2 243.3 1139.2 242.9 1139.2 242.6C1139.2 242.3 1139.2 241.9 1139.2 241.6C1139.2 241.2 1138.9 240.9 1138.5 240.8L1137.2 240.6C1136.8 240.5 1136.6 240.3 1136.5 239.9C1136.4 239.6 1136.5 239.2 1136.8 239L1137.9 238.1C1138.2 237.8 1138.3 237.4 1138.2 237.1C1137.9 236.5 1137.6 235.9 1137.2 235.4C1137 235.1 1136.5 234.9 1136.1 235.1L1134.8 235.6C1134.5 235.7 1134.1 235.6 1133.8 235.4C1133.5 235.1 1133.5 234.8 1133.6 234.4L1134.1 233.1C1134.2 232.7 1134.1 232.3 1133.8 232C1133.3 231.6 1132.7 231.3 1132.1 231C1131.7 230.8 1131.3 230.9 1131.1 231.3L1130.2 232.4C1130 232.7 1129.6 232.8 1129.3 232.7C1129 232.6 1128.7 232.3 1128.6 232L1128.4 230.7C1128.3 230.3 1128 230 1127.6 230C1127.3 230 1126.9 230 1126.6 230C1126.3 230 1125.9 230 1125.6 230C1125.2 230 1124.9 230.3 1124.8 230.7L1124.6 232C1124.5 232.4 1124.3 232.6 1123.9 232.7C1123.6 232.8 1123.2 232.7 1123 232.4L1122.1 231.3C1121.8 231 1121.4 230.9 1121.1 231C1120.5 231.3 1119.9 231.6 1119.4 232C1119.1 232.2 1118.9 232.7 1119.1 233.1L1119.6 234.4C1119.7 234.7 1119.6 235.1 1119.4 235.4C1119.1 235.7 1118.8 235.7 1118.4 235.6L1117.1 235.1C1116.7 235 1116.3 235.1 1116 235.4C1115.6 235.9 1115.3 236.5 1115 237.1C1114.8 237.5 1114.9 237.9 1115.3 238.1L1116.4 239C1116.7 239.2 1116.8 239.6 1116.7 239.9C1116.6 240.2 1116.3 240.5 1116 240.6L1114.7 240.8C1114.3 240.9 1114 241.2 1114 241.6C1114 241.9 1114 242.3 1114 242.6C1114 242.9 1114 243.3 1114 243.6C1114 244 1114.3 244.3 1114.7 244.4L1116 244.6C1116.4 244.7 1116.6 244.9 1116.7 245.3C1116.8 245.6 1116.7 246 1116.4 246.2L1115.3 247.1C1115 247.4 1114.9 247.8 1115 248.1C1115.3 248.7 1115.6 249.3 1116 249.8C1116.2 250.1 1116.7 250.3 1117.1 250.1L1118.4 249.6C1118.7 249.5 1119.1 249.6 1119.4 249.8C1119.7 250.1 1119.7 250.4 1119.6 250.8L1119.1 252.1C1119 252.5 1119.1 252.9 1119.4 253.2C1119.9 253.6 1120.5 253.9 1121.1 254.2C1121.5 254.4 1121.9 254.3 1122.1 253.9L1123 252.8C1123.2 252.5 1123.6 252.4 1123.9 252.5C1124.2 252.6 1124.5 252.9 1124.6 253.2L1124.8 254.5C1124.9 254.9 1125.2 255.2 1125.6 255.2C1125.9 255.2 1126.3 255.2 1126.6 255.2C1126.9 255.2 1127.3 255.2 1127.6 255.2C1128 255.2 1128.3 254.9 1128.4 254.5L1128.6 253.2C1128.7 252.8 1128.9 252.6 1129.3 252.5C1129.6 252.4 1130 252.5 1130.2 252.8L1131.1 253.9C1131.4 254.2 1131.8 254.3 1132.1 254.2C1132.7 253.9 1133.3 253.6 1133.8 253.2C1134.1 253 1134.3 252.5 1134.1 252.1L1133.6 250.8C1133.5 250.5 1133.6 250.1 1133.8 249.8C1134.1 249.5 1134.4 249.5 1134.8 249.6L1136.1 250.1C1136.5 250.2 1136.9 250.1 1137.2 249.8C1137.6 249.3 1137.9 248.7 1138.2 248.1C1138.4 247.7 1138.3 247.3 1137.9 247.1L1136.8 246.2C1136.5 246 1136.4 245.6 1136.5 245.3C1136.6 245 1136.9 244.7 1137.2 244.6L1138.5 244.4Z" stroke="#0052CC" stroke-width="2" stroke-miterlimit="10" stroke-linecap="round" stroke-linejoin="round"/>
<path d="M1126.4 236.5C1123.1 236.5 1120.3 239.2 1120.3 242.6C1120.3 245.9 1123 248.7 1126.4 248.7C1129.7 248.7 1132.5 246 1132.5 242.6C1132.5 239.2 1129.8 236.5 1126.4 236.5Z" stroke="#0052CC" stroke-width="2" stroke-miterlimit="10" stroke-linecap="round" stroke-linejoin="round"/>
<path d="M251.2 20C256.723 20 261.2 15.5228 261.2 10C261.2 4.47715 256.723 0 251.2 0C245.677 0 241.2 4.47715 241.2 10C241.2 15.5228 245.677 20 251.2 20Z" fill="#FEDB8F"/>
<path d="M253.712 6.42046C253.716 5.03975 252.6 3.91685 251.22 3.91238C249.839 3.90792 248.716 5.02358 248.712 6.4043C248.707 7.78501 249.823 8.90792 251.204 8.91238C252.584 8.91685 253.707 7.80118 253.712 6.42046Z" stroke="#071146" stroke-miterlimit="10" stroke-linecap="round" stroke-linejoin="round"/>
<path d="M251.1 15.7001C253.2 15.7001 254.9 14.0001 254.9 11.9001V11.3001C254.9 10.9001 254.6 10.6001 254.2 10.6001H248C247.6 10.6001 247.3 10.9001 247.3 11.3001V11.9001C247.3 13.9001 249 15.7001 251.1 15.7001Z" stroke="#071146" stroke-miterlimit="10" stroke-linecap="round" stroke-linejoin="round"/>
<path d="M1043 301C1048.52 301 1053 296.523 1053 291C1053 285.477 1048.52 281 1043 281C1037.48 281 1033 285.477 1033 291C1033 296.523 1037.48 301 1043 301Z" fill="#FEDB8F"/>
<path d="M1045.51 287.42C1045.52 286.04 1044.4 284.917 1043.02 284.912C1041.64 284.908 1040.52 286.024 1040.51 287.404C1040.51 288.785 1041.62 289.908 1043 289.912C1044.38 289.917 1045.51 288.801 1045.51 287.42Z" stroke="#071146" stroke-miterlimit="10" stroke-linecap="round" stroke-linejoin="round"/>
<path d="M1042.9 296.7C1045 296.7 1046.7 295 1046.7 292.9V292.3C1046.7 291.9 1046.4 291.6 1046 291.6H1039.8C1039.4 291.6 1039.1 291.9 1039.1 292.3V292.9C1039.1 294.9 1040.8 296.7 1042.9 296.7Z" stroke="#071146" stroke-miterlimit="10" stroke-linecap="round" stroke-linejoin="round"/>
<path d="M995 67C1000.52 67 1005 62.5228 1005 57C1005 51.4772 1000.52 47 995 47C989.477 47 985 51.4772 985 57C985 62.5228 989.477 67 995 67Z" fill="#FEDB8F"/>
<path d="M997.512 53.4205C997.516 52.0398 996.401 50.9168 995.02 50.9124C993.639 50.9079 992.516 52.0236 992.512 53.4043C992.507 54.785 993.623 55.9079 995.004 55.9124C996.384 55.9168 997.507 54.8012 997.512 53.4205Z" stroke="#071146" stroke-miterlimit="10" stroke-linecap="round" stroke-linejoin="round"/>
<path d="M994.9 62.7001C997 62.7001 998.7 61.0001 998.7 58.9001V58.3001C998.7 57.9001 998.4 57.6001 998 57.6001H991.8C991.4 57.6001 991.1 57.9001 991.1 58.3001V58.9001C991.1 60.9001 992.8 62.7001 994.9 62.7001Z" stroke="#071146" stroke-miterlimit="10" stroke-linecap="round" stroke-linejoin="round"/>
<path d="M69 177C74.5228 177 79 172.523 79 167C79 161.477 74.5228 157 69 157C63.4772 157 59 161.477 59 167C59 172.523 63.4772 177 69 177Z" fill="#FEDB8F"/>
<path d="M71.5117 163.42C71.5162 162.04 70.4005 160.917 69.0198 160.912C67.6391 160.908 66.5162 162.024 66.5117 163.404C66.5073 164.785 67.623 165.908 69.0037 165.912C70.3844 165.917 71.5073 164.801 71.5117 163.42Z" stroke="#071146" stroke-miterlimit="10" stroke-linecap="round" stroke-linejoin="round"/>
<path d="M68.9 172.7C71 172.7 72.7 171 72.7 168.9V168.3C72.7 167.9 72.4 167.6 72 167.6H65.8C65.4 167.6 65.1 167.9 65.1 168.3V168.9C65.1 170.9 66.8 172.7 68.9 172.7Z" stroke="#071146" stroke-miterlimit="10" stroke-linecap="round" stroke-linejoin="round"/>
<path d="M45.6118 73.1721C49.8334 68.8035 49.7142 61.8397 45.3456 57.6181C40.977 53.3965 34.0132 53.5157 29.7916 57.8843C25.57 62.253 25.6892 69.2167 30.0578 73.4383C34.4264 77.6599 41.3902 77.5408 45.6118 73.1721Z" fill="#95E196"/>
<path d="M40.2 65.8998C39.7 65.3998 39 65.0998 38.1 64.8998V60.9998C38.6 60.9998 39 61.0998 39.3 61.3998C39.6 61.5998 39.9 61.8998 40.1 62.1998C40.2 62.2998 40.2 62.2998 40.3 62.3998C40.4 62.3998 40.5 62.3998 40.6 62.3998C40.7 62.3998 40.8 62.2998 40.8 62.1998C40.8 62.0998 40.8 61.9998 40.8 61.8998C40.7 61.5998 40.5 61.3998 40.2 61.0998C39.9 60.8998 39.6 60.6998 39.2 60.4998C38.9 60.3998 38.6 60.2998 38.2 60.2998V59.6998C38.2 59.5998 38.2 59.4998 38.1 59.3998C38 59.2998 38 59.2998 37.9 59.2998C37.8 59.2998 37.8 59.2998 37.7 59.3998C37.6 59.4998 37.6 59.4998 37.6 59.6998V60.2998C37.2 60.2998 36.8 60.3998 36.4 60.5998C35.9 60.7998 35.6 61.0998 35.3 61.3998C35 61.7998 34.9 62.1998 34.9 62.6998C34.9 63.1998 35 63.6998 35.3 64.0998C35.5 64.4998 35.9 64.7998 36.3 65.0998C36.7 65.2998 37.1 65.4998 37.6 65.5998V69.9998C37.1 69.9998 36.6 69.8998 36.2 69.5998C35.8 69.3998 35.5 68.9998 35.3 68.5998C35.3 68.4998 35.2 68.3998 35.1 68.3998C35 68.3998 34.9 68.3998 34.8 68.3998C34.7 68.3998 34.6 68.4998 34.6 68.5998C34.6 68.6998 34.6 68.7998 34.6 68.8998C34.8 69.2998 35 69.5998 35.3 69.8998C35.6 70.1998 36 70.3998 36.4 70.5998C36.8 70.6998 37.2 70.7998 37.6 70.7998V71.5998C37.6 71.6998 37.6 71.7998 37.7 71.8998C37.8 71.9998 37.8 71.9998 37.9 71.9998C38 71.9998 38 71.9998 38.1 71.8998C38.2 71.7998 38.2 71.7998 38.2 71.5998V70.7998C38.5 70.7998 38.9 70.6998 39.2 70.5998C39.6 70.4998 39.9 70.2998 40.2 69.9998C40.5 69.7998 40.7 69.4998 40.9 69.0998C41.1 68.7998 41.1 68.3998 41.1 67.8998C41 66.9998 40.7 66.3998 40.2 65.8998ZM36.5 64.2998C36.2 64.0998 35.9 63.7998 35.8 63.5998C35.7 63.2998 35.6 62.9998 35.6 62.6998C35.6 62.0998 35.8 61.6998 36.2 61.3998C36.5 61.1998 37 60.9998 37.5 60.9998V64.7998C37.1 64.5998 36.8 64.4998 36.5 64.2998ZM39.9 68.9998C39.7 69.2998 39.4 69.4998 39.1 69.6998C38.8 69.7998 38.5 69.8998 38.2 69.8998V65.5998C38.8 65.6998 39.4 65.9998 39.7 66.2998C40.1 66.6998 40.3 67.1998 40.3 67.7998C40.2 68.2998 40.1 68.6998 39.9 68.9998Z" fill="#071146"/>
<path d="M593.464 43.198C597.686 38.8294 597.567 31.8656 593.198 27.644C588.829 23.4224 581.866 23.5416 577.644 27.9102C573.422 32.2788 573.541 39.2426 577.91 43.4642C582.279 47.6858 589.242 47.5666 593.464 43.198Z" fill="#95E196"/>
<path d="M588.052 35.9257C587.552 35.4257 586.852 35.1257 585.952 34.9257V31.0257C586.452 31.0257 586.852 31.1257 587.152 31.4257C587.452 31.6257 587.752 31.9257 587.952 32.2257C588.052 32.3257 588.052 32.3257 588.152 32.4257C588.252 32.4257 588.352 32.4257 588.452 32.4257C588.552 32.4257 588.652 32.3257 588.652 32.2257C588.652 32.1257 588.652 32.0257 588.652 31.9257C588.552 31.6257 588.352 31.4257 588.052 31.1257C587.752 30.9257 587.452 30.7257 587.052 30.5257C586.752 30.4257 586.452 30.3257 586.052 30.3257V29.7257C586.052 29.6257 586.052 29.5257 585.952 29.4257C585.852 29.3257 585.852 29.3257 585.752 29.3257C585.652 29.3257 585.652 29.3257 585.552 29.4257C585.452 29.5257 585.452 29.5257 585.452 29.7257V30.3257C585.052 30.3257 584.652 30.4257 584.252 30.6257C583.752 30.8257 583.452 31.1257 583.152 31.4257C582.852 31.8257 582.752 32.2257 582.752 32.7257C582.752 33.2257 582.852 33.7257 583.152 34.1257C583.352 34.5257 583.752 34.8257 584.152 35.1257C584.552 35.3257 584.952 35.5257 585.452 35.6257V40.0257C584.952 40.0257 584.452 39.9257 584.052 39.6257C583.652 39.4257 583.352 39.0257 583.152 38.6257C583.152 38.5257 583.052 38.4257 582.952 38.4257C582.852 38.4257 582.752 38.4257 582.652 38.4257C582.552 38.4257 582.452 38.5257 582.452 38.6257C582.452 38.7257 582.452 38.8257 582.452 38.9257C582.652 39.3257 582.852 39.6257 583.152 39.9257C583.452 40.2257 583.852 40.4257 584.252 40.6257C584.652 40.7257 585.052 40.8257 585.452 40.8257V41.6257C585.452 41.7257 585.452 41.8257 585.552 41.9257C585.652 42.0257 585.652 42.0257 585.752 42.0257C585.852 42.0257 585.852 42.0257 585.952 41.9257C586.052 41.8257 586.052 41.8257 586.052 41.6257V40.8257C586.352 40.8257 586.752 40.7257 587.052 40.6257C587.452 40.5257 587.752 40.3257 588.052 40.0257C588.352 39.8257 588.552 39.5257 588.752 39.1257C588.952 38.8257 588.952 38.4257 588.952 37.9257C588.852 37.0257 588.552 36.4257 588.052 35.9257ZM584.352 34.3257C584.052 34.1257 583.752 33.8257 583.652 33.6257C583.552 33.3257 583.452 33.0257 583.452 32.7257C583.452 32.1257 583.652 31.7257 584.052 31.4257C584.352 31.2257 584.852 31.0257 585.352 31.0257V34.8257C584.952 34.6257 584.652 34.5257 584.352 34.3257ZM587.752 39.0257C587.552 39.3257 587.252 39.5257 586.952 39.7257C586.652 39.8257 586.352 39.9257 586.052 39.9257V35.6257C586.652 35.7257 587.252 36.0257 587.552 36.3257C587.952 36.7257 588.152 37.2257 588.152 37.8257C588.052 38.3257 587.952 38.7257 587.752 39.0257Z" fill="#071146"/>
<path d="M1071.46 443.198C1075.69 438.829 1075.57 431.866 1071.2 427.644C1066.83 423.422 1059.87 423.542 1055.64 427.91C1051.42 432.279 1051.54 439.243 1055.91 443.464C1060.28 447.686 1067.24 447.567 1071.46 443.198Z" fill="#95E196"/>
<path d="M1066.05 435.926C1065.55 435.426 1064.85 435.126 1063.95 434.926V431.026C1064.45 431.026 1064.85 431.126 1065.15 431.426C1065.45 431.626 1065.75 431.926 1065.95 432.226C1066.05 432.326 1066.05 432.326 1066.15 432.426C1066.25 432.426 1066.35 432.426 1066.45 432.426C1066.55 432.426 1066.65 432.326 1066.65 432.226C1066.65 432.126 1066.65 432.026 1066.65 431.926C1066.55 431.626 1066.35 431.426 1066.05 431.126C1065.75 430.926 1065.45 430.726 1065.05 430.526C1064.75 430.426 1064.45 430.326 1064.05 430.326V429.726C1064.05 429.626 1064.05 429.526 1063.95 429.426C1063.85 429.326 1063.85 429.326 1063.75 429.326C1063.65 429.326 1063.65 429.326 1063.55 429.426C1063.45 429.526 1063.45 429.526 1063.45 429.726V430.326C1063.05 430.326 1062.65 430.426 1062.25 430.626C1061.75 430.826 1061.45 431.126 1061.15 431.426C1060.85 431.826 1060.75 432.226 1060.75 432.726C1060.75 433.226 1060.85 433.726 1061.15 434.126C1061.35 434.526 1061.75 434.826 1062.15 435.126C1062.55 435.326 1062.95 435.526 1063.45 435.626V440.026C1062.95 440.026 1062.45 439.926 1062.05 439.626C1061.65 439.426 1061.35 439.026 1061.15 438.626C1061.15 438.526 1061.05 438.426 1060.95 438.426C1060.85 438.426 1060.75 438.426 1060.65 438.426C1060.55 438.426 1060.45 438.526 1060.45 438.626C1060.45 438.726 1060.45 438.826 1060.45 438.926C1060.65 439.326 1060.85 439.626 1061.15 439.926C1061.45 440.226 1061.85 440.426 1062.25 440.626C1062.65 440.726 1063.05 440.826 1063.45 440.826V441.626C1063.45 441.726 1063.45 441.826 1063.55 441.926C1063.65 442.026 1063.65 442.026 1063.75 442.026C1063.85 442.026 1063.85 442.026 1063.95 441.926C1064.05 441.826 1064.05 441.826 1064.05 441.626V440.826C1064.35 440.826 1064.75 440.726 1065.05 440.626C1065.45 440.526 1065.75 440.326 1066.05 440.026C1066.35 439.826 1066.55 439.526 1066.75 439.126C1066.95 438.826 1066.95 438.426 1066.95 437.926C1066.85 437.026 1066.55 436.426 1066.05 435.926ZM1062.35 434.326C1062.05 434.126 1061.75 433.826 1061.65 433.626C1061.55 433.326 1061.45 433.026 1061.45 432.726C1061.45 432.126 1061.65 431.726 1062.05 431.426C1062.35 431.226 1062.85 431.026 1063.35 431.026V434.826C1062.95 434.626 1062.65 434.526 1062.35 434.326ZM1065.75 439.026C1065.55 439.326 1065.25 439.526 1064.95 439.726C1064.65 439.826 1064.35 439.926 1064.05 439.926V435.626C1064.65 435.726 1065.25 436.026 1065.55 436.326C1065.95 436.726 1066.15 437.226 1066.15 437.826C1066.05 438.326 1065.95 438.726 1065.75 439.026Z" fill="#071146"/>
<path d="M239.464 383.198C243.686 378.829 243.567 371.866 239.198 367.644C234.829 363.422 227.866 363.542 223.644 367.91C219.422 372.279 219.541 379.243 223.91 383.464C228.279 387.686 235.242 387.567 239.464 383.198Z" fill="#95E196"/>
<path d="M234.052 375.926C233.552 375.426 232.852 375.126 231.952 374.926V371.026C232.452 371.026 232.852 371.126 233.152 371.426C233.452 371.626 233.752 371.926 233.952 372.226C234.052 372.326 234.052 372.326 234.152 372.426C234.252 372.426 234.352 372.426 234.452 372.426C234.552 372.426 234.652 372.326 234.652 372.226C234.652 372.126 234.652 372.026 234.652 371.926C234.552 371.626 234.352 371.426 234.052 371.126C233.752 370.926 233.452 370.726 233.052 370.526C232.752 370.426 232.452 370.326 232.052 370.326V369.726C232.052 369.626 232.052 369.526 231.952 369.426C231.852 369.326 231.852 369.326 231.752 369.326C231.652 369.326 231.652 369.326 231.552 369.426C231.452 369.526 231.452 369.526 231.452 369.726V370.326C231.052 370.326 230.652 370.426 230.252 370.626C229.752 370.826 229.452 371.126 229.152 371.426C228.852 371.826 228.752 372.226 228.752 372.726C228.752 373.226 228.852 373.726 229.152 374.126C229.352 374.526 229.752 374.826 230.152 375.126C230.552 375.326 230.952 375.526 231.452 375.626V380.026C230.952 380.026 230.452 379.926 230.052 379.626C229.652 379.426 229.352 379.026 229.152 378.626C229.152 378.526 229.052 378.426 228.952 378.426C228.852 378.426 228.752 378.426 228.652 378.426C228.552 378.426 228.452 378.526 228.452 378.626C228.452 378.726 228.452 378.826 228.452 378.926C228.652 379.326 228.852 379.626 229.152 379.926C229.452 380.226 229.852 380.426 230.252 380.626C230.652 380.726 231.052 380.826 231.452 380.826V381.626C231.452 381.726 231.452 381.826 231.552 381.926C231.652 382.026 231.652 382.026 231.752 382.026C231.852 382.026 231.852 382.026 231.952 381.926C232.052 381.826 232.052 381.826 232.052 381.626V380.826C232.352 380.826 232.752 380.726 233.052 380.626C233.452 380.526 233.752 380.326 234.052 380.026C234.352 379.826 234.552 379.526 234.752 379.126C234.952 378.826 234.952 378.426 234.952 377.926C234.852 377.026 234.552 376.426 234.052 375.926ZM230.352 374.326C230.052 374.126 229.752 373.826 229.652 373.626C229.552 373.326 229.452 373.026 229.452 372.726C229.452 372.126 229.652 371.726 230.052 371.426C230.352 371.226 230.852 371.026 231.352 371.026V374.826C230.952 374.626 230.652 374.526 230.352 374.326ZM233.752 379.026C233.552 379.326 233.252 379.526 232.952 379.726C232.652 379.826 232.352 379.926 232.052 379.926V375.626C232.652 375.726 233.252 376.026 233.552 376.326C233.952 376.726 234.152 377.226 234.152 377.826C234.052 378.326 233.952 378.726 233.752 379.026Z" fill="#071146"/>
<path d="M968.464 142.198C972.686 137.829 972.567 130.866 968.198 126.644C963.829 122.422 956.866 122.542 952.644 126.91C948.422 131.279 948.541 138.243 952.91 142.464C957.279 146.686 964.242 146.567 968.464 142.198Z" fill="#95E196"/>
<path d="M963.052 134.926C962.552 134.426 961.852 134.126 960.952 133.926V130.026C961.452 130.026 961.852 130.126 962.152 130.426C962.452 130.626 962.752 130.926 962.952 131.226C963.052 131.326 963.052 131.326 963.152 131.426C963.252 131.426 963.352 131.426 963.452 131.426C963.552 131.426 963.652 131.326 963.652 131.226C963.652 131.126 963.652 131.026 963.652 130.926C963.552 130.626 963.352 130.426 963.052 130.126C962.752 129.926 962.452 129.726 962.052 129.526C961.752 129.426 961.452 129.326 961.052 129.326V128.726C961.052 128.626 961.052 128.526 960.952 128.426C960.852 128.326 960.852 128.326 960.752 128.326C960.652 128.326 960.652 128.326 960.552 128.426C960.452 128.526 960.452 128.526 960.452 128.726V129.326C960.052 129.326 959.652 129.426 959.252 129.626C958.752 129.826 958.452 130.126 958.152 130.426C957.852 130.826 957.752 131.226 957.752 131.726C957.752 132.226 957.852 132.726 958.152 133.126C958.352 133.526 958.752 133.826 959.152 134.126C959.552 134.326 959.952 134.526 960.452 134.626V139.026C959.952 139.026 959.452 138.926 959.052 138.626C958.652 138.426 958.352 138.026 958.152 137.626C958.152 137.526 958.052 137.426 957.952 137.426C957.852 137.426 957.752 137.426 957.652 137.426C957.552 137.426 957.452 137.526 957.452 137.626C957.452 137.726 957.452 137.826 957.452 137.926C957.652 138.326 957.852 138.626 958.152 138.926C958.452 139.226 958.852 139.426 959.252 139.626C959.652 139.726 960.052 139.826 960.452 139.826V140.626C960.452 140.726 960.452 140.826 960.552 140.926C960.652 141.026 960.652 141.026 960.752 141.026C960.852 141.026 960.852 141.026 960.952 140.926C961.052 140.826 961.052 140.826 961.052 140.626V139.826C961.352 139.826 961.752 139.726 962.052 139.626C962.452 139.526 962.752 139.326 963.052 139.026C963.352 138.826 963.552 138.526 963.752 138.126C963.952 137.826 963.952 137.426 963.952 136.926C963.852 136.026 963.552 135.426 963.052 134.926ZM959.352 133.326C959.052 133.126 958.752 132.826 958.652 132.626C958.552 132.326 958.452 132.026 958.452 131.726C958.452 131.126 958.652 130.726 959.052 130.426C959.352 130.226 959.852 130.026 960.352 130.026V133.826C959.952 133.626 959.652 133.526 959.352 133.326ZM962.752 138.026C962.552 138.326 962.252 138.526 961.952 138.726C961.652 138.826 961.352 138.926 961.052 138.926V134.626C961.652 134.726 962.252 135.026 962.552 135.326C962.952 135.726 963.152 136.226 963.152 136.826C963.052 137.326 962.952 137.726 962.752 138.026Z" fill="#071146"/>
<path d="M9.80005 292.3V309.8" stroke="#0052CC" stroke-width="2" stroke-miterlimit="10" stroke-linecap="round" stroke-linejoin="round"/>
<path d="M18.5 301.1H1" stroke="#0052CC" stroke-width="2" stroke-miterlimit="10" stroke-linecap="round" stroke-linejoin="round"/>
<path d="M927.8 340V357.5" stroke="#0052CC" stroke-width="2" stroke-miterlimit="10" stroke-linecap="round" stroke-linejoin="round"/>
<path d="M936.5 348.8H919" stroke="#0052CC" stroke-width="2" stroke-miterlimit="10" stroke-linecap="round" stroke-linejoin="round"/>
<path d="M167.6 107.8C167.6 108.8 167.2 109.7 166.5 110.5C165.8 111.2 164.9 111.6 163.8 111.6C162.7 111.6 161.9 111.2 161.1 110.5C160.3 109.8 160 108.9 160 107.8C160 106.7 160.4 105.9 161.1 105.1C161.8 104.3 162.7 104 163.8 104C164.9 104 165.7 104.4 166.5 105.1C167.3 105.9 167.6 106.7 167.6 107.8ZM162.4 119.1C162.2 119.1 162 119 161.9 118.9C161.8 118.8 161.7 118.6 161.7 118.4C161.7 118.2 161.8 118 161.9 117.9L172.4 104.4C172.6 104.2 172.8 104.1 173 104.1C173.2 104.1 173.4 104.2 173.5 104.3C173.6 104.4 173.7 104.6 173.7 104.8C173.7 105 173.6 105.1 173.5 105.3L162.9 118.8C162.8 119 162.6 119.1 162.4 119.1ZM163.9 105.5C163.3 105.5 162.7 105.7 162.3 106.2C161.9 106.6 161.6 107.2 161.6 107.8C161.6 108.4 161.8 109 162.3 109.4C162.7 109.8 163.3 110.1 163.9 110.1C164.5 110.1 165.1 109.9 165.5 109.4C165.9 109 166.2 108.4 166.2 107.8C166.2 107.2 166 106.6 165.5 106.2C165 105.7 164.5 105.5 163.9 105.5ZM167.6 115.3C167.6 114.3 168 113.4 168.7 112.6C169.4 111.9 170.3 111.5 171.4 111.5C172.4 111.5 173.3 111.9 174.1 112.6C174.9 113.3 175.2 114.2 175.2 115.3C175.2 116.4 174.8 117.2 174.1 118C173.4 118.7 172.5 119.1 171.4 119.1C170.4 119.1 169.5 118.7 168.7 118C168 117.2 167.6 116.4 167.6 115.3ZM171.4 113.1C170.8 113.1 170.2 113.3 169.8 113.8C169.4 114.2 169.1 114.8 169.1 115.4C169.1 116 169.3 116.6 169.8 117C170.2 117.4 170.8 117.7 171.4 117.7C172 117.7 172.6 117.5 173 117C173.4 116.6 173.7 116 173.7 115.4C173.7 114.8 173.5 114.2 173 113.8C172.5 113.3 172 113.1 171.4 113.1Z" fill="#0052CC"/>
<path d="M1071.6 60.8C1071.6 61.8 1071.2 62.7 1070.5 63.5C1069.8 64.2 1068.9 64.6 1067.8 64.6C1066.7 64.6 1065.9 64.2 1065.1 63.5C1064.3 62.8 1064 61.9 1064 60.8C1064 59.7 1064.4 58.9 1065.1 58.1C1065.8 57.3 1066.7 57 1067.8 57C1068.9 57 1069.7 57.4 1070.5 58.1C1071.3 58.9 1071.6 59.7 1071.6 60.8ZM1066.4 72.1C1066.2 72.1 1066 72 1065.9 71.9C1065.8 71.8 1065.7 71.6 1065.7 71.4C1065.7 71.2 1065.8 71 1065.9 70.9L1076.4 57.4C1076.6 57.2 1076.8 57.1 1077 57.1C1077.2 57.1 1077.4 57.2 1077.5 57.3C1077.6 57.4 1077.7 57.6 1077.7 57.8C1077.7 58 1077.6 58.1 1077.5 58.3L1066.9 71.8C1066.8 72 1066.6 72.1 1066.4 72.1ZM1067.9 58.5C1067.3 58.5 1066.7 58.7 1066.3 59.2C1065.9 59.6 1065.6 60.2 1065.6 60.8C1065.6 61.4 1065.8 62 1066.3 62.4C1066.7 62.8 1067.3 63.1 1067.9 63.1C1068.5 63.1 1069.1 62.9 1069.5 62.4C1069.9 62 1070.2 61.4 1070.2 60.8C1070.2 60.2 1070 59.6 1069.5 59.2C1069 58.7 1068.5 58.5 1067.9 58.5ZM1071.6 68.3C1071.6 67.3 1072 66.4 1072.7 65.6C1073.4 64.9 1074.3 64.5 1075.4 64.5C1076.4 64.5 1077.3 64.9 1078.1 65.6C1078.9 66.3 1079.2 67.2 1079.2 68.3C1079.2 69.4 1078.8 70.2 1078.1 71C1077.4 71.7 1076.5 72.1 1075.4 72.1C1074.4 72.1 1073.5 71.7 1072.7 71C1072 70.2 1071.6 69.4 1071.6 68.3ZM1075.4 66.1C1074.8 66.1 1074.2 66.3 1073.8 66.8C1073.4 67.2 1073.1 67.8 1073.1 68.4C1073.1 69 1073.3 69.6 1073.8 70C1074.2 70.4 1074.8 70.7 1075.4 70.7C1076 70.7 1076.6 70.5 1077 70C1077.4 69.6 1077.7 69 1077.7 68.4C1077.7 67.8 1077.5 67.2 1077 66.8C1076.5 66.3 1076 66.1 1075.4 66.1Z" fill="#0052CC"/>
<path d="M105 451C107.209 451 109 449.209 109 447C109 444.791 107.209 443 105 443C102.791 443 101 444.791 101 447C101 449.209 102.791 451 105 451Z" stroke="#FEDB8F" stroke-width="2" stroke-miterlimit="10" stroke-linecap="round" stroke-linejoin="round"/>
<path d="M1056 185C1058.21 185 1060 183.209 1060 181C1060 178.791 1058.21 177 1056 177C1053.79 177 1052 178.791 1052 181C1052 183.209 1053.79 185 1056 185Z" stroke="#FEDB8F" stroke-width="2" stroke-miterlimit="10" stroke-linecap="round" stroke-linejoin="round"/>
</svg>
