<svg width="88" height="95" viewBox="0 0 88 95" fill="none" xmlns="http://www.w3.org/2000/svg">
<g clip-path="url(#clip0)">
<path d="M86.3 37.8999L86.1 82.2999C86.1 86.8999 82.1 90.5999 77.4 90.5999L12.4 90.3999C7.60001 90.3999 3.70001 86.5999 3.70001 81.9999L3.80001 59.9999L34.9 47.4999L60.9 54.4999L86.3 37.8999Z" fill="#FEDB8F"/>
<path d="M86.2 37L86 84.9C86 89.8 81.9 93.9 77 93.9L10 93.6C5.1 93.6 1 89.5 1 84.6L1.1 60.8L33.2 47.3L60 54.8L86.2 37Z" stroke="#071146" stroke-width="2" stroke-miterlimit="10" stroke-linecap="round" stroke-linejoin="round"/>
<path d="M10.9 56.6001V93.7001" stroke="#071146" stroke-width="2" stroke-miterlimit="10" stroke-linecap="round" stroke-linejoin="round"/>
<path d="M21.8 52.2002V93.7002" stroke="#071146" stroke-width="2" stroke-miterlimit="10" stroke-linecap="round" stroke-linejoin="round"/>
<path d="M32.7 47.3999V93.6999" stroke="#071146" stroke-width="2" stroke-miterlimit="10" stroke-linecap="round" stroke-linejoin="round"/>
<path d="M43.6 50.2002V93.7002" stroke="#071146" stroke-width="2" stroke-miterlimit="10" stroke-linecap="round" stroke-linejoin="round"/>
<path d="M54.5 53.7002V93.7002" stroke="#071146" stroke-width="2" stroke-miterlimit="10" stroke-linecap="round" stroke-linejoin="round"/>
<path d="M65.4 51.2002V93.7002" stroke="#071146" stroke-width="2" stroke-miterlimit="10" stroke-linecap="round" stroke-linejoin="round"/>
<path d="M76.4 43.5V93.7" stroke="#071146" stroke-width="2" stroke-miterlimit="10" stroke-linecap="round" stroke-linejoin="round"/>
<path d="M76.4 23H86.2L60 40.8L33.1 33.3L1.09998 46.8" stroke="#071146" stroke-width="2" stroke-miterlimit="10" stroke-linecap="round" stroke-linejoin="round"/>
<path d="M83 31.6L86.2 23" stroke="#071146" stroke-width="2" stroke-miterlimit="10" stroke-linecap="round" stroke-linejoin="round"/>
<path d="M25.3216 24.9129C30.7329 19.3131 30.5801 10.3869 24.9804 4.97553C19.3806 -0.43581 10.4543 -0.283041 5.04296 5.31675C-0.368373 10.9165 -0.215603 19.8428 5.38418 25.2541C10.984 30.6655 19.9102 30.5127 25.3216 24.9129Z" fill="#95E196" stroke="#071146" stroke-width="2" stroke-miterlimit="10" stroke-linecap="round" stroke-linejoin="round"/>
<path d="M18.4 15.6C17.8 15 16.9 14.6 15.7 14.3V9.3C16.3 9.3 16.8 9.5 17.2 9.8C17.6 10.1 18 10.4 18.2 10.8C18.3 10.9 18.4 11 18.5 11C18.6 11 18.7 11 18.8 11C18.9 10.9 19 10.8 19 10.7C19 10.6 19 10.4 18.9 10.3C18.7 10 18.5 9.6 18.1 9.3C17.7 9 17.3 8.8 16.9 8.6C16.5 8.4 16.1 8.4 15.6 8.3V7.5C15.6 7.3 15.6 7.2 15.5 7.2C15.5 7.1 15.4 7 15.3 7C15.2 7 15.1 7 15 7.1C14.9 7.2 14.9 7.3 14.9 7.4V8.2C14.3 8.2 13.8 8.4 13.4 8.6C12.8 8.9 12.4 9.2 12 9.7C11.7 10.2 11.5 10.7 11.5 11.4C11.5 12.1 11.7 12.6 12 13.1C12.3 13.6 12.7 14 13.3 14.3C13.8 14.6 14.3 14.8 15 14.9V20.6C14.3 20.6 13.7 20.4 13.3 20.1C12.8 19.8 12.4 19.3 12.1 18.8C12 18.7 12 18.6 11.9 18.5C11.8 18.4 11.7 18.4 11.5 18.5C11.4 18.5 11.3 18.6 11.2 18.8C11.1 18.9 11.2 19.1 11.2 19.2C11.4 19.7 11.7 20.1 12.1 20.5C12.5 20.9 12.9 21.1 13.5 21.3C14 21.5 14.5 21.6 15 21.6V22.7C15 22.8 15 23 15.1 23C15.2 23.1 15.3 23.1 15.4 23.1C15.5 23.1 15.6 23.1 15.7 23C15.8 22.9 15.8 22.8 15.8 22.7V21.6C16.2 21.6 16.7 21.5 17 21.4C17.5 21.2 18 21 18.3 20.7C18.7 20.4 18.9 20 19.1 19.6C19.3 19.2 19.4 18.7 19.4 18.1C19.3 17.1 19 16.2 18.4 15.6ZM13.7 13.6C13.3 13.3 13 13 12.8 12.6C12.6 12.2 12.5 11.9 12.5 11.5C12.5 10.7 12.8 10.2 13.3 9.8C13.7 9.5 14.3 9.3 15 9.3V14.1C14.4 14 14 13.8 13.7 13.6ZM17.9 19.5C17.6 19.9 17.3 20.2 16.8 20.4C16.5 20.6 16.1 20.6 15.6 20.7V15.2C16.4 15.4 17.1 15.7 17.5 16.1C18 16.6 18.3 17.3 18.3 18.1C18.3 18.7 18.2 19.1 17.9 19.5Z" fill="#071146"/>
</g>
<defs>
<clipPath id="clip0">
<rect width="87.2" height="94.9" fill="white"/>
</clipPath>
</defs>
</svg>
