<svg width="66" height="64" viewBox="0 0 66 64" fill="none" xmlns="http://www.w3.org/2000/svg">
<g clip-path="url(#clip0)">
<path d="M32.9 55.7999C20 55.7999 9.40002 45.1999 9.40002 32.2999V31.8999C9.40002 18.9999 20 8.3999 32.9 8.3999C45.8 8.3999 56.4 18.9999 56.4 31.8999V32.2999C56.4 45.1999 45.8 55.7999 32.9 55.7999Z" fill="#95E196"/>
<path d="M33.7 63H32C15 63 1 49.1 1 32C1 15 15 1 32 1H33.7C50.8 1 64.7 15 64.7 32C64.8 49.1 50.8 63 33.7 63Z" stroke="#071146" stroke-width="2" stroke-miterlimit="10" stroke-linecap="round" stroke-linejoin="round"/>
<path d="M39.4 32.8999C38.2 31.5999 36.3 30.7999 33.8 30.2999V20.0999C35.1 20.1999 36.1 20.4999 36.9 20.9999C37.8 21.5999 38.5 22.2999 38.9 23.0999C39 23.2999 39.2 23.4999 39.5 23.4999C39.7 23.5999 40 23.5999 40.2 23.4999C40.5 23.3999 40.6 23.1999 40.7 22.8999C40.8 22.5999 40.7 22.2999 40.6 22.0999C40.2 21.3999 39.7 20.6999 39 20.0999C38.3 19.4999 37.4 18.9999 36.5 18.5999C35.7 18.2999 34.8 18.0999 33.9 17.9999V16.2999C33.9 15.9999 33.8 15.6999 33.7 15.5999C33.6 15.4999 33.4 15.3999 33.2 15.3999C33 15.3999 32.8 15.4999 32.7 15.5999C32.6 15.6999 32.5 15.9999 32.5 16.2999V17.9999C31.3 18.0999 30.3 18.2999 29.3 18.6999C27.9 19.2999 27 19.9999 26.3 20.9999C25.6 21.9999 25.3 23.0999 25.3 24.4999C25.3 25.8999 25.6 27.0999 26.2 28.0999C26.8 29.0999 27.7 29.9999 28.9 30.5999C29.9 31.1999 31 31.5999 32.3 31.7999V43.4999C30.9 43.3999 29.7 43.0999 28.7 42.4999C27.6 41.7999 26.8 40.9999 26.2 39.7999C26.1 39.4999 25.9 39.3999 25.7 39.1999C25.5 39.0999 25.2 39.0999 25 39.1999C24.7 39.2999 24.5 39.4999 24.4 39.6999C24.3 39.9999 24.3 40.1999 24.4 40.4999C24.8 41.4999 25.5 42.3999 26.3 43.0999C27.1 43.7999 28 44.3999 29.1 44.7999C30.1 45.1999 31.1 45.2999 32.2 45.3999V47.5999C32.2 47.8999 32.3 48.0999 32.4 48.2999C32.5 48.4999 32.7 48.4999 32.9 48.4999C33.1 48.4999 33.3 48.3999 33.4 48.2999C33.5 48.0999 33.6 47.8999 33.6 47.5999V45.3999C34.5 45.2999 35.4 45.1999 36.1 44.9999C37.2 44.6999 38.1 44.1999 38.8 43.4999C39.5 42.8999 40.1 42.0999 40.5 41.1999C40.9 40.2999 41.1 39.2999 41.1 38.0999C41.4 35.9999 40.7 34.2999 39.4 32.8999ZM29.7 28.8999C28.8 28.2999 28.2 27.6999 27.9 26.8999C27.5 26.1999 27.4 25.3999 27.4 24.4999C27.4 22.8999 27.9 21.7999 29 20.9999C29.9 20.3999 31 19.9999 32.4 19.8999V29.9999C31.3 29.6999 30.4 29.3999 29.7 28.8999ZM38.5 41.0999C38 41.8999 37.2 42.4999 36.3 42.8999C35.6 43.1999 34.8 43.3999 33.8 43.4999V32.0999C35.5 32.4999 36.8 33.0999 37.7 33.9999C38.7 35.0999 39.3 36.4999 39.3 38.0999C39.3 39.2999 39 40.2999 38.5 41.0999Z" fill="#071146"/>
</g>
<defs>
<clipPath id="clip0">
<rect width="65.8" height="64" fill="white"/>
</clipPath>
</defs>
</svg>
