<svg width="390" height="348" viewBox="0 0 390 348" fill="none" xmlns="http://www.w3.org/2000/svg">
<g clip-path="url(#clip0)">
<path d="M225.7 151.4C227.9 158.9 228.3 167.7 228.3 176.5C228.3 209.3 211 235.9 189.6 235.9C168.2 235.9 150.9 209.3 150.9 176.5C150.9 170 151.6 163.8 152.8 157.9" stroke="#071146" stroke-width="2" stroke-miterlimit="10"/>
<path d="M171.6 184.7C178.559 184.7 184.2 179.059 184.2 172.1C184.2 165.141 178.559 159.5 171.6 159.5C164.641 159.5 159 165.141 159 172.1C159 179.059 164.641 184.7 171.6 184.7Z" stroke="#071146" stroke-width="2" stroke-miterlimit="10"/>
<path d="M207.5 184.7C214.459 184.7 220.1 179.059 220.1 172.1C220.1 165.141 214.459 159.5 207.5 159.5C200.541 159.5 194.9 165.141 194.9 172.1C194.9 179.059 200.541 184.7 207.5 184.7Z" stroke="#071146" stroke-width="2" stroke-miterlimit="10"/>
<path d="M183.6 172.6C184.1 172.4 184.5 172 184.9 171.7C186.1 170.8 187.7 170.5 189.2 170.4C190.3 170.3 191.3 170.3 192.4 170.6C193.4 170.9 194.4 171.4 195.1 172.2" stroke="#071146" stroke-width="2" stroke-miterlimit="10"/>
<path d="M220.3 169.9C221.3 168.7 222.3 167.7 223.5 166.8C224.4 166.1 225.5 165.4 226.6 165.3C228.9 165 231.1 166.8 231.6 169.1C232.1 171.4 230.8 173.8 228.9 175" stroke="#071146" stroke-width="2" stroke-miterlimit="10"/>
<path d="M159.2 169.2C156.9 167.8 154.3 166.9 151.6 166.7C151.2 166.7 150.8 166.6 150.4 166.8C149.8 167 149.3 167.5 149 168C148.2 169.1 147.7 170.6 148 172C148.3 173.4 149.3 174.7 150.6 175" stroke="#071146" stroke-width="2" stroke-miterlimit="10"/>
<path d="M199.2 211.5C199.3 211.4 199.4 211.3 199.4 211.2C199.4 211.1 199.3 211 199.2 211C199.1 211 199 211 198.9 211.1C197.4 211.8 196.1 212.6 194.5 213.2C191.6 214.3 188.3 214.5 185.3 213.8C184.9 213.7 184.4 213.6 184 213.5C183.4 213.3 181.1 212.5 180.9 212.4C180.7 212.3 180.4 212.2 180.1 212.3C179.8 212.4 179.6 212.6 179.7 212.9C179.7 213.1 179.9 213.2 180 213.3C180.1 213.4 183.1 216.6 184.9 217.7C187 219.1 189.6 219.8 192.1 219.2C193.9 218.7 195.4 217.5 196.6 216.1C197.8 214.7 198.7 213.1 199.6 211.4C199.4 211.4 199.3 211.4 199.2 211.5Z" fill="#071146"/>
<path d="M203.5 133.2C203.7 137 206.7 140.3 210 142.7C215.8 146.9 223.1 149.4 230.5 149.9C232.1 146.6 238.8 114.2 205.7 118.4C204.8 118.5 203.9 118.7 203 118.5C202.2 118.3 201.6 117.7 201.1 117.1C194.8 111.3 184.3 109.5 176.1 113C171.4 115 153.5 132.5 149.2 153.7C147.9 160.1 151.3 156.6 156.6 155.9C168.1 154.4 179.3 150.5 189 144.7C191.8 142.9 203.5 134.5 203.5 133.2Z" fill="#B1DEF5"/>
<path d="M152.8 157.7C155.3 157.2 157.9 156.5 160.3 155.7C167.9 153.2 175.2 149.8 182 145.6C183.2 144.8 194.8 135.8 199.7 131.3C200.1 132.9 200.7 133.9 201.8 135.1C208.3 142.4 216.5 148 225.7 151.4C228.9 145.2 229.3 138.2 228.2 131.3C226.7 121.9 216 116 206.6 115.3C204.5 115.1 202.1 115.3 200.4 116.5C194.4 114 187.7 111.2 181.2 110.4C174.8 109.6 167.8 110.8 162.9 115C160.8 116.8 159.1 119.1 157.6 121.4C150.4 132.7 147.4 145.4 144.1 158.4C147.1 158.6 150 158.3 152.8 157.7Z" stroke="#071146" stroke-width="2" stroke-miterlimit="10"/>
<path d="M159.2 216.3C120.4 250 106.4 299.6 106.6 346.8" stroke="#071146" stroke-width="2" stroke-miterlimit="10" stroke-linecap="round" stroke-linejoin="round"/>
<path d="M218.3 216.3C257.1 250 271.1 299.6 270.9 346.8" stroke="#071146" stroke-width="2" stroke-miterlimit="10" stroke-linecap="round" stroke-linejoin="round"/>
<path d="M140.6 245C140 248.6 139.8 252.3 139.9 256" stroke="white" stroke-width="2" stroke-miterlimit="10" stroke-linecap="round" stroke-linejoin="round"/>
<path d="M151.2 245C150.6 248.6 150.4 252.3 150.5 256" stroke="white" stroke-width="2" stroke-miterlimit="10" stroke-linecap="round" stroke-linejoin="round"/>
<path d="M161.9 245C161.3 248.6 161.1 252.3 161.2 256" stroke="white" stroke-width="2" stroke-miterlimit="10" stroke-linecap="round" stroke-linejoin="round"/>
<path d="M171.9 250.1C171.8 252.1 171.7 254.1 171.8 256.1" stroke="white" stroke-width="2" stroke-miterlimit="10" stroke-linecap="round" stroke-linejoin="round"/>
<path d="M182.5 251C182.4 252.7 182.4 254.4 182.4 256.1" stroke="white" stroke-width="2" stroke-miterlimit="10" stroke-linecap="round" stroke-linejoin="round"/>
<path d="M193.1 252C193 253.7 193 254.4 193.1 256.1" stroke="white" stroke-width="2" stroke-miterlimit="10" stroke-linecap="round" stroke-linejoin="round"/>
<path d="M203.8 250.5C203.7 252.3 203.6 254.2 203.7 256" stroke="white" stroke-width="2" stroke-miterlimit="10" stroke-linecap="round" stroke-linejoin="round"/>
<path d="M215.1 245C214.5 248.6 214.3 252.3 214.4 256" stroke="white" stroke-width="2" stroke-miterlimit="10" stroke-linecap="round" stroke-linejoin="round"/>
<path d="M225.7 245C225.1 248.6 224.9 252.3 225 256" stroke="white" stroke-width="2" stroke-miterlimit="10" stroke-linecap="round" stroke-linejoin="round"/>
<path d="M236.3 245C235.7 248.6 235.5 252.3 235.6 256" stroke="white" stroke-width="2" stroke-miterlimit="10" stroke-linecap="round" stroke-linejoin="round"/>
<path d="M134.1 267.9C133.5 271.5 133.3 275.2 133.4 278.9" stroke="white" stroke-width="2" stroke-miterlimit="10" stroke-linecap="round" stroke-linejoin="round"/>
<path d="M144.8 267.9C144.2 271.5 144 275.2 144.1 278.9" stroke="white" stroke-width="2" stroke-miterlimit="10" stroke-linecap="round" stroke-linejoin="round"/>
<path d="M155.4 267.9C154.8 271.5 154.6 275.2 154.7 278.9" stroke="white" stroke-width="2" stroke-miterlimit="10" stroke-linecap="round" stroke-linejoin="round"/>
<path d="M166.1 267.9C165.5 271.5 165.3 275.2 165.4 278.9" stroke="white" stroke-width="2" stroke-miterlimit="10" stroke-linecap="round" stroke-linejoin="round"/>
<path d="M176.7 267.9C176.1 271.5 175.9 275.2 176 278.9" stroke="white" stroke-width="2" stroke-miterlimit="10" stroke-linecap="round" stroke-linejoin="round"/>
<path d="M187.4 267.9C186.8 271.5 186.6 275.2 186.7 278.9" stroke="white" stroke-width="2" stroke-miterlimit="10" stroke-linecap="round" stroke-linejoin="round"/>
<path d="M198 267.9C197.4 271.5 197.2 275.2 197.3 278.9" stroke="white" stroke-width="2" stroke-miterlimit="10" stroke-linecap="round" stroke-linejoin="round"/>
<path d="M208.6 267.9C208 271.5 207.8 275.2 207.9 278.9" stroke="white" stroke-width="2" stroke-miterlimit="10" stroke-linecap="round" stroke-linejoin="round"/>
<path d="M219.3 267.9C218.7 271.5 218.5 275.2 218.6 278.9" stroke="white" stroke-width="2" stroke-miterlimit="10" stroke-linecap="round" stroke-linejoin="round"/>
<path d="M229.9 267.9C229.3 271.5 229.1 275.2 229.2 278.9" stroke="white" stroke-width="2" stroke-miterlimit="10" stroke-linecap="round" stroke-linejoin="round"/>
<path d="M240.7 267.9C240.1 271.5 239.9 275.2 240 278.9" stroke="white" stroke-width="2" stroke-miterlimit="10" stroke-linecap="round" stroke-linejoin="round"/>
<path d="M134.1 313.5C133.5 317.1 133.3 320.8 133.4 324.5" stroke="white" stroke-width="2" stroke-miterlimit="10" stroke-linecap="round" stroke-linejoin="round"/>
<path d="M123.6 313.5C123 317.1 122.8 320.8 122.9 324.5" stroke="white" stroke-width="2" stroke-miterlimit="10" stroke-linecap="round" stroke-linejoin="round"/>
<path d="M144.8 313.5C144.2 317.1 144 320.8 144.1 324.5" stroke="white" stroke-width="2" stroke-miterlimit="10" stroke-linecap="round" stroke-linejoin="round"/>
<path d="M155.4 313.5C154.8 317.1 154.6 320.8 154.7 324.5" stroke="white" stroke-width="2" stroke-miterlimit="10" stroke-linecap="round" stroke-linejoin="round"/>
<path d="M166.1 313.5C165.5 317.1 165.3 320.8 165.4 324.5" stroke="white" stroke-width="2" stroke-miterlimit="10" stroke-linecap="round" stroke-linejoin="round"/>
<path d="M176.7 313.5C176.1 317.1 175.9 320.8 176 324.5" stroke="white" stroke-width="2" stroke-miterlimit="10" stroke-linecap="round" stroke-linejoin="round"/>
<path d="M187.4 313.5C186.8 317.1 186.6 320.8 186.7 324.5" stroke="white" stroke-width="2" stroke-miterlimit="10" stroke-linecap="round" stroke-linejoin="round"/>
<path d="M198 313.5C197.4 317.1 197.2 320.8 197.3 324.5" stroke="white" stroke-width="2" stroke-miterlimit="10" stroke-linecap="round" stroke-linejoin="round"/>
<path d="M208.6 313.5C208 317.1 207.8 320.8 207.9 324.5" stroke="white" stroke-width="2" stroke-miterlimit="10" stroke-linecap="round" stroke-linejoin="round"/>
<path d="M219.3 313.5C218.7 317.1 218.5 320.8 218.6 324.5" stroke="white" stroke-width="2" stroke-miterlimit="10" stroke-linecap="round" stroke-linejoin="round"/>
<path d="M229.9 313.5C229.3 317.1 229.1 320.8 229.2 324.5" stroke="white" stroke-width="2" stroke-miterlimit="10" stroke-linecap="round" stroke-linejoin="round"/>
<path d="M240.7 313.5C240.1 317.1 239.9 320.8 240 324.5" stroke="white" stroke-width="2" stroke-miterlimit="10" stroke-linecap="round" stroke-linejoin="round"/>
<path d="M251.3 313.5C250.7 317.1 250.5 320.8 250.6 324.5" stroke="white" stroke-width="2" stroke-miterlimit="10" stroke-linecap="round" stroke-linejoin="round"/>
<path d="M140.6 290.7C140 294.3 139.8 298 139.9 301.7" stroke="white" stroke-width="2" stroke-miterlimit="10" stroke-linecap="round" stroke-linejoin="round"/>
<path d="M151.2 290.7C150.6 294.3 150.4 298 150.5 301.7" stroke="white" stroke-width="2" stroke-miterlimit="10" stroke-linecap="round" stroke-linejoin="round"/>
<path d="M118.7 290.7C118.1 294.3 117.9 298 118 301.7" stroke="white" stroke-width="2" stroke-miterlimit="10" stroke-linecap="round" stroke-linejoin="round"/>
<path d="M129.3 290.7C128.7 294.3 128.5 298 128.6 301.7" stroke="white" stroke-width="2" stroke-miterlimit="10" stroke-linecap="round" stroke-linejoin="round"/>
<path d="M246 290.7C245.4 294.3 245.2 298 245.3 301.7" stroke="white" stroke-width="2" stroke-miterlimit="10" stroke-linecap="round" stroke-linejoin="round"/>
<path d="M161.9 290.7C161.3 294.3 161.1 298 161.2 301.7" stroke="white" stroke-width="2" stroke-miterlimit="10" stroke-linecap="round" stroke-linejoin="round"/>
<path d="M172.5 290.7C171.9 294.3 171.7 298 171.8 301.7" stroke="white" stroke-width="2" stroke-miterlimit="10" stroke-linecap="round" stroke-linejoin="round"/>
<path d="M183.1 290.7C182.5 294.3 182.3 298 182.4 301.7" stroke="white" stroke-width="2" stroke-miterlimit="10" stroke-linecap="round" stroke-linejoin="round"/>
<path d="M193.8 290.7C193.2 294.3 193 298 193.1 301.7" stroke="white" stroke-width="2" stroke-miterlimit="10" stroke-linecap="round" stroke-linejoin="round"/>
<path d="M204.4 290.7C203.8 294.3 203.6 298 203.7 301.7" stroke="white" stroke-width="2" stroke-miterlimit="10" stroke-linecap="round" stroke-linejoin="round"/>
<path d="M241.7 242C251.6 249.1 262.2 261.9 267.2 275.3C272.6 289.7 271.1 305.9 266.3 320.5C261.5 335.1 245.8 342.1 236.6 338.6" stroke="#071146" stroke-width="2" stroke-miterlimit="10" stroke-linecap="round" stroke-linejoin="round"/>
<path d="M225.2 338.2C224.8 338.2 224.9 337.6 225.1 337.3C225.8 336.1 226.7 334.9 227.9 334.2C229.1 333.5 230.7 333.3 231.9 334C233 334.7 233.6 336 234.4 337C235 337.7 235.6 338.3 236.3 338.9C234.8 337.5 232.5 337.1 230.6 337.8C228.7 338.5 227.3 340.3 227 342.3" stroke="#071146" stroke-width="2" stroke-miterlimit="10" stroke-linecap="round" stroke-linejoin="round"/>
<path d="M230.7 346.4C231.1 346.1 231.1 345.5 231.2 345.1C231.6 342.6 233.5 340.3 235.9 339.4C236.2 339.3 236.6 339.2 236.8 339.5" stroke="#071146" stroke-width="2" stroke-miterlimit="10" stroke-linecap="round" stroke-linejoin="round"/>
<path d="M136.4 241.6C126.5 248.7 115.9 261.5 110.9 274.9C105.5 289.3 107 305.5 111.8 320.1C116.6 334.7 132.3 341.7 141.5 338.2" stroke="#071146" stroke-width="2" stroke-miterlimit="10" stroke-linecap="round" stroke-linejoin="round"/>
<path d="M153 337.8C153.4 337.8 153.3 337.2 153.1 336.9C152.4 335.7 151.5 334.5 150.3 333.8C149.1 333.1 147.5 332.9 146.3 333.6C145.2 334.3 144.6 335.6 143.8 336.6C143.2 337.3 142.6 337.9 141.9 338.5C143.4 337.1 145.7 336.7 147.6 337.4C149.5 338.1 150.9 339.9 151.2 341.9" stroke="#071146" stroke-width="2" stroke-miterlimit="10" stroke-linecap="round" stroke-linejoin="round"/>
<path d="M147.5 346C147.1 345.7 147.1 345.1 147 344.7C146.6 342.2 144.7 339.9 142.3 339C142 338.9 141.6 338.8 141.4 339.1" stroke="#071146" stroke-width="2" stroke-miterlimit="10" stroke-linecap="round" stroke-linejoin="round"/>
<path d="M139.4 195.1C136.8 195.1 134.6 192.9 134.6 190.3V170.7C134.6 168.1 136.8 165.9 139.4 165.9C142 165.9 144.2 168.1 144.2 170.7V190.3C144.1 193 142 195.1 139.4 195.1Z" stroke="#071146" stroke-width="2" stroke-miterlimit="10" stroke-linecap="round" stroke-linejoin="round"/>
<path d="M239.8 195.1C237.2 195.1 235 192.9 235 190.3V170.7C235 168.1 237.2 165.9 239.8 165.9C242.4 165.9 244.6 168.1 244.6 170.7V190.3C244.6 193 242.4 195.1 239.8 195.1Z" stroke="#071146" stroke-width="2" stroke-miterlimit="10" stroke-linecap="round" stroke-linejoin="round"/>
<path d="M214.3 215.2H206.5C205.4 215.2 204.4 214.3 204.4 213.1C204.4 212 205.3 211 206.5 211H214.3C215.4 211 216.4 211.9 216.4 213.1C216.3 214.2 215.4 215.2 214.3 215.2Z" fill="#071146"/>
<path d="M139.4 166V156.9C139.4 129 162.2 106.2 190.1 106.2C218 106.2 240.8 129 240.8 156.9V166.1" stroke="#071146" stroke-width="2" stroke-miterlimit="10"/>
<path d="M215.9 213.1H223.4C232.7 213.1 240 205.6 240 195.1" stroke="#071146" stroke-width="2" stroke-miterlimit="10"/>
<path d="M223.7 233.2C217.3 245.5 204.4 253.9 189.6 253.9C174.8 253.9 161.9 245.5 155.5 233.2" stroke="white" stroke-width="2" stroke-miterlimit="10" stroke-linecap="round" stroke-linejoin="round"/>
<path d="M223.7 230.9C217.3 243.2 204.4 251.6 189.6 251.6C174.8 251.6 161.9 243.2 155.5 230.9" stroke="#071146" stroke-width="2" stroke-miterlimit="10" stroke-linecap="round" stroke-linejoin="round"/>
<path d="M117.2 52.8999H52.2999C45.5999 52.8999 40.2 58.2999 40.2 64.9999V99.4999C40.2 106.2 45.5999 111.6 52.2999 111.6H96.5999L115 129.3L115.1 111.6H117.1C123.8 111.6 129.2 106.2 129.2 99.4999V64.9999C129.3 58.2999 123.9 52.8999 117.2 52.8999ZM113.2 97.3999H55.0999C53.4999 97.3999 52.2 96.0999 52.2 94.4999C52.2 92.8999 53.4999 91.5999 55.0999 91.5999H113.2C114.8 91.5999 116.1 92.8999 116.1 94.4999C116.1 96.0999 114.8 97.3999 113.2 97.3999ZM113.2 85.6999H55.0999C53.4999 85.6999 52.2 84.3999 52.2 82.7999C52.2 81.1999 53.4999 79.8999 55.0999 79.8999H113.2C114.8 79.8999 116.1 81.1999 116.1 82.7999C116.1 84.3999 114.8 85.6999 113.2 85.6999ZM113.2 73.9999H55.0999C53.4999 73.9999 52.2 72.6999 52.2 71.0999C52.2 69.4999 53.4999 68.1999 55.0999 68.1999H113.2C114.8 68.1999 116.1 69.4999 116.1 71.0999C116.1 72.6999 114.8 73.9999 113.2 73.9999Z" fill="white"/>
<path d="M13.1 59.7H15.1L15.2 77.4L33.6 59.7H78C84.7 59.7 90.1 54.3 90.1 47.6V13.1C90.1 6.4 84.6 1 78 1H13.1C6.4 1 1 6.4 1 13.1V47.6C1 54.3 6.4 59.7 13.1 59.7Z" stroke="#071146" stroke-width="2" stroke-miterlimit="10" stroke-linecap="round" stroke-linejoin="round"/>
<path d="M24.9 36.0999C28.048 36.0999 30.6 33.548 30.6 30.4C30.6 27.2519 28.048 24.7 24.9 24.7C21.7519 24.7 19.2 27.2519 19.2 30.4C19.2 33.548 21.7519 36.0999 24.9 36.0999Z" fill="white"/>
<path d="M45.5 36.0999C48.6481 36.0999 51.2001 33.548 51.2001 30.4C51.2001 27.2519 48.6481 24.7 45.5 24.7C42.352 24.7 39.8 27.2519 39.8 30.4C39.8 33.548 42.352 36.0999 45.5 36.0999Z" fill="white"/>
<path d="M66.2 36.0999C69.348 36.0999 71.9 33.548 71.9 30.4C71.9 27.2519 69.348 24.7 66.2 24.7C63.052 24.7 60.5 27.2519 60.5 30.4C60.5 33.548 63.052 36.0999 66.2 36.0999Z" fill="white"/>
<path d="M26.3 37.0001C29.448 37.0001 32 34.4481 32 31.3001C32 28.1521 29.448 25.6001 26.3 25.6001C23.152 25.6001 20.6 28.1521 20.6 31.3001C20.6 34.4481 23.152 37.0001 26.3 37.0001Z" stroke="#071146" stroke-width="2" stroke-miterlimit="10" stroke-linecap="round" stroke-linejoin="round"/>
<path d="M47 37.0001C50.1481 37.0001 52.7001 34.4481 52.7001 31.3001C52.7001 28.1521 50.1481 25.6001 47 25.6001C43.852 25.6001 41.3 28.1521 41.3 31.3001C41.3 34.4481 43.852 37.0001 47 37.0001Z" stroke="#071146" stroke-width="2" stroke-miterlimit="10" stroke-linecap="round" stroke-linejoin="round"/>
<path d="M67.7 37.0001C70.848 37.0001 73.4 34.4481 73.4 31.3001C73.4 28.1521 70.848 25.6001 67.7 25.6001C64.552 25.6001 62 28.1521 62 31.3001C62 34.4481 64.552 37.0001 67.7 37.0001Z" stroke="#071146" stroke-width="2" stroke-miterlimit="10" stroke-linecap="round" stroke-linejoin="round"/>
<path d="M81.2 183.4C81.8 183.3 82.3 182.8 82.4 182.1C82.4 181.6 82.5 181.1 82.5 180.5C82.5 180 82.5 179.4 82.4 178.9C82.3 178.3 81.9 177.7 81.2 177.6L79.1 177.3C78.5 177.2 78.1 176.8 78 176.2C77.8 175.6 78 175.1 78.5 174.7L80.2 173.3C80.7 172.9 80.9 172.2 80.6 171.6C80.1 170.6 79.6 169.7 79 168.9C78.6 168.4 77.9 168.1 77.3 168.4L75.3 169.2C74.8 169.4 74.2 169.3 73.8 168.9C73.4 168.5 73.2 167.9 73.5 167.4L74.3 165.4C74.5 164.8 74.3 164.1 73.8 163.7C72.9 163.1 72 162.6 71.1 162.1C70.5 161.8 69.8 162 69.4 162.5L68 164.2C67.6 164.6 67 164.8 66.5 164.7C66 164.5 65.5 164.1 65.4 163.6L65.1 161.5C65 160.9 64.5 160.4 63.8 160.3C63.3 160.3 62.8 160.2 62.2 160.2C61.7 160.2 61.1 160.2 60.6 160.3C60 160.4 59.4 160.8 59.3 161.5L59 163.6C58.9 164.2 58.5 164.6 57.9 164.7C57.3 164.9 56.8 164.7 56.4 164.2L55 162.5C54.6 162 53.9 161.8 53.3 162.1C52.3 162.6 51.4 163.1 50.6 163.7C50.1 164.1 49.8 164.8 50.1 165.4L50.9 167.4C51.1 167.9 51 168.5 50.6 168.9C50.2 169.3 49.6 169.5 49.1 169.2L47.1 168.4C46.5 168.2 45.8 168.4 45.4 168.9C44.8 169.8 44.3 170.7 43.8 171.6C43.5 172.2 43.7 172.9 44.2 173.3L45.9 174.7C46.3 175.1 46.5 175.7 46.4 176.2C46.2 176.7 45.8 177.2 45.3 177.3L43.2 177.6C42.6 177.7 42.1 178.2 42 178.9C42 179.4 41.9 179.9 41.9 180.5C41.9 181 41.9 181.6 42 182.1C42.1 182.8 42.5 183.3 43.2 183.4L45.3 183.7C45.9 183.8 46.3 184.2 46.4 184.8C46.6 185.4 46.4 185.9 45.9 186.3L44.2 187.7C43.7 188.1 43.5 188.8 43.8 189.4C44.3 190.4 44.8 191.3 45.4 192.1C45.8 192.6 46.5 192.9 47.1 192.6L49.1 191.8C49.6 191.6 50.2 191.7 50.6 192.1C51 192.5 51.2 193.1 50.9 193.6L50.1 195.6C49.9 196.2 50.1 196.9 50.6 197.3C51.5 197.9 52.4 198.4 53.3 198.9C53.9 199.2 54.6 199 55 198.5L56.4 196.8C56.8 196.4 57.4 196.2 57.9 196.3C58.4 196.5 58.9 196.9 59 197.4L59.3 199.5C59.4 200.1 59.9 200.6 60.6 200.7C61.1 200.7 61.6 200.8 62.2 200.8C62.7 200.8 63.3 200.8 63.8 200.7C64.4 200.6 65 200.2 65.1 199.5L65.4 197.4C65.5 196.8 65.9 196.4 66.5 196.3C67.1 196.1 67.6 196.3 68 196.8L69.4 198.5C69.8 199 70.5 199.2 71.1 198.9C72.1 198.4 73 197.9 73.8 197.3C74.3 196.9 74.6 196.2 74.3 195.6L73.5 193.6C73.3 193.1 73.4 192.5 73.8 192.1C74.2 191.7 74.8 191.5 75.3 191.8L77.3 192.6C77.9 192.8 78.6 192.6 79 192.1C79.6 191.2 80.1 190.3 80.6 189.4C80.9 188.8 80.7 188.1 80.2 187.7L78.5 186.3C78.1 185.9 77.9 185.3 78 184.8C78.2 184.3 78.6 183.8 79.1 183.7L81.2 183.4Z" stroke="white" stroke-width="2" stroke-miterlimit="10" stroke-linecap="round" stroke-linejoin="round"/>
<path d="M61.9001 170.9C56.6001 170.9 52.2001 175.2 52.2001 180.6C52.2001 185.9 56.5001 190.3 61.9001 190.3C67.2001 190.3 71.6001 186 71.6001 180.6C71.6001 175.2 67.2001 170.9 61.9001 170.9Z" stroke="white" stroke-width="2" stroke-miterlimit="10" stroke-linecap="round" stroke-linejoin="round"/>
<path d="M335.5 247.3L307.2 233.3C305.1 232.3 304.2 229.7 305.3 227.6L315.4 207.1C316.4 205 319 204.1 321.1 205.2L349.4 219.2C351.5 220.2 352.4 222.8 351.3 224.9L341.2 245.4C340.1 247.5 337.6 248.3 335.5 247.3Z" fill="white"/>
<path d="M310.9 206.6L323 224.4C324.4 226.5 326.8 227.6 329.3 227.5L350.8 226.3" stroke="#071146" stroke-width="2" stroke-miterlimit="10" stroke-linecap="round" stroke-linejoin="round"/>
<path d="M342.9 242.6L332.6 227.6" stroke="#071146" stroke-width="2" stroke-miterlimit="10" stroke-linecap="round" stroke-linejoin="round"/>
<path d="M321 221.8L302.9 222.8" stroke="#071146" stroke-width="2" stroke-miterlimit="10" stroke-linecap="round" stroke-linejoin="round"/>
<path d="M335.3 247.2L303.8 231.6C301.5 230.5 300.5 227.6 301.7 225.3L312.8 202.8C313.9 200.5 316.8 199.5 319.1 200.7L350.6 216.3C352.9 217.4 353.9 220.3 352.7 222.6L341.6 245.1C340.5 247.4 337.6 248.4 335.3 247.2Z" stroke="#071146" stroke-width="2" stroke-miterlimit="10" stroke-linecap="round" stroke-linejoin="round"/>
<path d="M372.7 36.6C382.255 36.6 390 28.8545 390 19.3C390 9.74547 382.255 2 372.7 2C363.146 2 355.4 9.74547 355.4 19.3C355.4 28.8545 363.146 36.6 372.7 36.6Z" fill="#FEDB8F"/>
<path d="M377.089 13.1731C377.097 10.7431 375.134 8.76674 372.704 8.75889C370.274 8.75103 368.297 10.7146 368.289 13.1447C368.282 15.5747 370.245 17.551 372.675 17.5589C375.105 17.5668 377.082 15.6032 377.089 13.1731Z" stroke="#071146" stroke-width="2" stroke-miterlimit="10" stroke-linecap="round" stroke-linejoin="round"/>
<path d="M372.6 29.2001C376.3 29.2001 379.2 26.3001 379.2 22.6001V21.6001C379.2 20.9001 378.7 20.4001 378 20.4001H367.2C366.5 20.4001 366 20.9001 366 21.6001V22.6001C366 26.2001 368.9 29.2001 372.6 29.2001Z" stroke="#071146" stroke-width="2" stroke-miterlimit="10" stroke-linecap="round" stroke-linejoin="round"/>
<path d="M247.807 62.6068C256.212 53.9092 255.975 40.045 247.277 31.6402C238.58 23.2353 224.715 23.4726 216.311 32.1702C207.906 40.8677 208.143 54.7319 216.841 63.1368C225.538 71.5416 239.402 71.3043 247.807 62.6068Z" fill="#95E196" stroke="#071146" stroke-width="2" stroke-miterlimit="10" stroke-linecap="round" stroke-linejoin="round"/>
<path d="M237 48.0999C236.1 47.0999 234.7 46.4999 232.8 46.0999V38.3999C233.8 38.4999 234.5 38.6999 235.1 39.0999C235.8 39.5999 236.3 40.0999 236.6 40.5999C236.7 40.7999 236.8 40.8999 237 40.8999C237.2 40.9999 237.4 40.9999 237.5 40.8999C237.7 40.7999 237.8 40.6999 237.9 40.4999C238 40.2999 237.9 40.0999 237.8 39.8999C237.5 39.3999 237.1 38.8999 236.6 38.3999C236.1 37.8999 235.4 37.5999 234.7 37.2999C234.1 37.0999 233.4 36.8999 232.8 36.8999V35.5999C232.8 35.3999 232.7 35.1999 232.6 35.0999C232.5 34.9999 232.4 34.8999 232.2 34.8999C232 34.8999 231.9 34.9999 231.8 35.0999C231.7 35.1999 231.6 35.3999 231.6 35.5999V36.8999C230.7 36.9999 229.9 37.0999 229.2 37.4999C228.3 37.8999 227.6 38.3999 227.1 39.1999C226.6 39.8999 226.3 40.7999 226.3 41.7999C226.3 42.7999 226.5 43.6999 227 44.4999C227.5 45.2999 228.1 45.8999 229 46.3999C229.7 46.7999 230.6 47.0999 231.6 47.2999V56.0999C230.6 56.0999 229.7 55.7999 228.9 55.3999C228.1 54.8999 227.4 54.1999 227 53.3999C226.9 53.1999 226.8 53.0999 226.6 52.9999C226.4 52.8999 226.3 52.8999 226.1 52.9999C225.9 53.0999 225.7 53.1999 225.7 53.3999C225.6 53.5999 225.6 53.7999 225.7 53.9999C226 54.7999 226.5 55.3999 227.1 55.9999C227.7 56.5999 228.4 56.9999 229.2 57.2999C229.9 57.5999 230.7 57.6999 231.6 57.6999V59.2999C231.6 59.4999 231.7 59.6999 231.8 59.7999C231.9 59.8999 232 59.9999 232.2 59.9999C232.4 59.9999 232.5 59.8999 232.6 59.7999C232.7 59.6999 232.8 59.4999 232.8 59.2999V57.5999C233.5 57.4999 234.1 57.4999 234.7 57.2999C235.5 56.9999 236.2 56.6999 236.7 56.1999C237.3 55.6999 237.7 55.0999 238 54.3999C238.3 53.6999 238.5 52.8999 238.5 52.0999C238.5 50.4999 238 49.0999 237 48.0999ZM229.7 45.0999C229.1 44.6999 228.6 44.1999 228.3 43.5999C228 42.9999 227.9 42.3999 227.9 41.7999C227.9 40.5999 228.3 39.6999 229.1 39.1999C229.7 38.6999 230.6 38.4999 231.7 38.3999V45.8999C230.9 45.6999 230.2 45.3999 229.7 45.0999ZM236.3 54.2999C235.9 54.8999 235.3 55.3999 234.6 55.6999C234.1 55.8999 233.4 56.0999 232.7 56.0999V47.5999C234 47.8999 235 48.3999 235.7 49.0999C236.5 49.8999 236.9 50.9999 236.9 52.1999C236.9 52.8999 236.7 53.6999 236.3 54.2999Z" fill="#071146"/>
<path d="M336.118 112.903C341.721 107.104 341.563 97.8614 335.765 92.2582C329.966 86.6549 320.724 86.8131 315.12 92.6115C309.517 98.4098 309.675 107.653 315.474 113.256C321.272 118.859 330.515 118.701 336.118 112.903Z" fill="#95E196" stroke="#071146" stroke-width="2" stroke-miterlimit="10" stroke-linecap="round" stroke-linejoin="round"/>
<path d="M328.8 103.2C328.2 102.6 327.2 102.1 326 101.9V96.8001C326.6 96.8001 327.2 97.0001 327.6 97.3001C328.1 97.6001 328.4 98.0001 328.6 98.3001C328.7 98.4001 328.8 98.5001 328.9 98.5001C329 98.5001 329.1 98.5001 329.3 98.5001C329.4 98.4001 329.5 98.3001 329.5 98.2001C329.5 98.1001 329.5 97.9001 329.4 97.8001C329.2 97.4001 329 97.1001 328.6 96.8001C328.2 96.5001 327.8 96.2001 327.3 96.0001C326.9 95.8001 326.5 95.7001 326 95.7001V94.9001C326 94.7001 326 94.6001 325.9 94.5001C325.8 94.4001 325.7 94.4001 325.6 94.4001C325.5 94.4001 325.4 94.4001 325.3 94.5001C325.2 94.6001 325.2 94.7001 325.2 94.9001V95.8001C324.6 95.8001 324.1 96.0001 323.6 96.2001C323 96.5001 322.5 96.8001 322.2 97.3001C321.9 97.8001 321.7 98.4001 321.7 99.1001C321.7 99.8001 321.9 100.4 322.2 100.9C322.5 101.4 323 101.8 323.5 102.2C324 102.5 324.6 102.7 325.2 102.8V108.7C324.5 108.7 323.9 108.5 323.4 108.2C322.8 107.9 322.4 107.4 322.2 106.9C322.1 106.8 322.1 106.7 321.9 106.6C321.8 106.5 321.7 106.5 321.5 106.6C321.4 106.6 321.3 106.7 321.2 106.9C321.1 107 321.1 107.2 321.2 107.3C321.4 107.8 321.7 108.2 322.1 108.6C322.5 109 323 109.3 323.5 109.5C324 109.7 324.5 109.8 325.1 109.8V110.9C325.1 111.1 325.1 111.2 325.2 111.2C325.3 111.3 325.4 111.3 325.5 111.3C325.6 111.3 325.7 111.3 325.8 111.2C325.9 111.1 325.9 111 325.9 110.9V109.8C326.4 109.8 326.8 109.7 327.2 109.6C327.7 109.4 328.2 109.2 328.6 108.9C329 108.6 329.3 108.2 329.5 107.7C329.7 107.2 329.8 106.7 329.8 106.1C329.8 104.8 329.5 103.9 328.8 103.2ZM324 101.2C323.6 100.9 323.3 100.6 323.1 100.2C322.9 99.8001 322.8 99.4001 322.8 99.0001C322.8 98.2001 323.1 97.6001 323.6 97.3001C324 97.0001 324.6 96.8001 325.3 96.8001V101.8C324.8 101.6 324.3 101.4 324 101.2ZM328.4 107.3C328.1 107.7 327.8 108 327.3 108.2C326.9 108.4 326.5 108.5 326.1 108.5V102.8C327 103 327.6 103.3 328.1 103.8C328.6 104.4 328.9 105 328.9 105.8C328.8 106.4 328.7 106.9 328.4 107.3Z" fill="#071146"/>
<path d="M233.7 302.8H216C214.3 302.8 213 301.4 213 299.8V286.7C213 285 214.4 283.7 216 283.7H233.7C235.4 283.7 236.7 285.1 236.7 286.7V299.8C236.8 301.4 235.4 302.8 233.7 302.8Z" fill="white" stroke="#071146" stroke-width="2" stroke-miterlimit="10" stroke-linecap="round" stroke-linejoin="round"/>
<path d="M224.3 299.5L219.4 289.8V299.3C219.4 299.5 219.3 299.7 219.2 299.8C219.1 299.9 218.9 300 218.7 300C218.5 300 218.3 299.9 218.2 299.8C218.1 299.7 218 299.5 218 299.3V286.9C218 286.7 218.1 286.5 218.2 286.4C218.3 286.3 218.5 286.2 218.7 286.2C219 286.2 219.2 286.3 219.3 286.6L224.9 297.8L230.5 286.6C230.6 286.4 230.8 286.2 231.1 286.2C231.3 286.2 231.5 286.3 231.6 286.4C231.7 286.5 231.8 286.7 231.8 286.9V299.3C231.8 299.5 231.7 299.7 231.6 299.8C231.5 299.9 231.3 300 231.1 300C230.9 300 230.7 299.9 230.6 299.8C230.5 299.7 230.4 299.5 230.4 299.3V289.8L225.5 299.6C225.4 299.8 225.2 299.9 224.9 299.9C224.7 299.9 224.5 299.8 224.3 299.5Z" fill="#071146"/>
<path d="M224.9 283.6V270.9" stroke="#071146" stroke-width="2" stroke-miterlimit="10" stroke-linecap="round" stroke-linejoin="round"/>
</g>
<defs>
<clipPath id="clip0">
<rect width="390" height="347.7" fill="white"/>
</clipPath>
</defs>
</svg>
