<svg width="76" height="95" viewBox="0 0 76 95" fill="none" xmlns="http://www.w3.org/2000/svg">
<g clip-path="url(#clip0)">
<path d="M62.2 31.1001C63.7 36.1001 63.9 41.9001 63.9 47.8001C63.9 69.6001 52.4 87.3001 38.1 87.3001C23.8 87.3001 12.5 69.5001 12.5 47.7001C12.5 43.4001 13 39.2001 13.8 35.3001" stroke="#071146" stroke-width="2" stroke-miterlimit="10"/>
<path d="M26.3 53.1999C30.9392 53.1999 34.7 49.4391 34.7 44.7999C34.7 40.1607 30.9392 36.3999 26.3 36.3999C21.6608 36.3999 17.9 40.1607 17.9 44.7999C17.9 49.4391 21.6608 53.1999 26.3 53.1999Z" stroke="#071146" stroke-width="2" stroke-miterlimit="10"/>
<path d="M50.1 53.1999C54.7392 53.1999 58.5 49.4391 58.5 44.7999C58.5 40.1607 54.7392 36.3999 50.1 36.3999C45.4608 36.3999 41.7 40.1607 41.7 44.7999C41.7 49.4391 45.4608 53.1999 50.1 53.1999Z" stroke="#071146" stroke-width="2" stroke-miterlimit="10"/>
<path d="M34.2 45.1001C34.5 45.0001 34.8 44.7001 35.1 44.5001C35.9 43.9001 37 43.7001 38 43.6001C38.7 43.6001 39.4 43.6001 40.1 43.7001C40.8 43.9001 41.4 44.2001 41.9 44.8001" stroke="#071146" stroke-width="2" stroke-miterlimit="10"/>
<path d="M58.6 43.4002C59.2 42.6002 60 41.9002 60.8 41.3002C61.4 40.8002 62.1 40.4002 62.9 40.3002C64.4 40.1002 65.9 41.3002 66.2 42.8002C66.5 44.3002 65.7 45.9002 64.4 46.7002" stroke="#071146" stroke-width="2" stroke-miterlimit="10"/>
<path d="M18 42.9002C16.5 42.0002 14.7 41.4002 13 41.2002C12.7 41.2002 12.5 41.2002 12.2 41.2002C11.8 41.3002 11.5 41.6002 11.2 42.0002C10.7 42.8002 10.4 43.7002 10.5 44.6002C10.7 45.5002 11.3 46.4002 12.3 46.6002" stroke="#071146" stroke-width="2" stroke-miterlimit="10"/>
<path d="M44.6 71.0002C44.7 70.9002 44.7 70.9002 44.7 70.8002C44.7 70.7002 44.6 70.7002 44.6 70.7002C44.5 70.7002 44.5 70.7002 44.4 70.8002C43.4 71.3002 42.5 71.8002 41.5 72.2002C39.5 72.9002 37.4 73.0002 35.4 72.6002C35.1 72.5002 34.8 72.5002 34.5 72.4002C34.1 72.3002 32.6 71.7002 32.4 71.6002C32.2 71.5002 32.1 71.5002 31.9 71.5002C31.7 71.5002 31.6 71.7002 31.6 71.9002C31.6 72.0002 31.7 72.1002 31.8 72.1002C31.9 72.2002 33.9 74.3002 35 75.1002C36.4 76.0002 38.2 76.5002 39.8 76.1002C41 75.8002 42 75.0002 42.8 74.1002C43.6 73.2002 44.2 72.1002 44.8 71.0002C44.7 70.9002 44.7 71.0002 44.6 71.0002Z" fill="#071146"/>
<path d="M47.4 18.8999C47.5 21.4999 49.5 23.5999 51.7 25.1999C55.6 27.9999 60.4 29.6999 65.3 29.9999C66.4 27.7999 70.8 6.29992 48.8 8.99992C48.2 9.09992 47.6 9.19992 47 8.99992C46.5 8.79992 46.1 8.39992 45.7 8.09992C41.5 4.19992 34.5 3.09992 29.1 5.29992C26 6.59992 14.1 18.2999 11.2 32.3999C10.3 36.5999 12.6 34.2999 16.2 33.8999C23.9 32.8999 31.3 30.2999 37.7 26.3999C39.7 25.3999 47.5 19.7999 47.4 18.8999Z" fill="#95E196"/>
<path d="M13.8 35.3C15.5 35 17.2 34.5 18.8 34C23.9 32.4 28.7 30.1 33.3 27.3C34.1 26.8 41.8 20.8 45 17.8C45.2 18.8 45.7 19.5 46.4 20.3C50.7 25.1 56.2 28.9 62.3 31.1C64.4 27 64.7 22.3 64 17.8C63 11.6 55.9 7.69999 49.6 7.09999C48.2 6.99999 46.6 7.09999 45.5 7.89999C41.5 6.29999 37 4.39999 32.8 3.89999C28.6 3.39999 23.9 4.19999 20.6 6.89999C19.2 8.09999 18.1 9.59999 17.1 11.1C12.3 18.6 10.3 27.1 8.20001 35.7C9.90001 35.8 11.9 35.6 13.8 35.3Z" stroke="#071146" stroke-width="2" stroke-miterlimit="10"/>
<path d="M18 74.2002C11.3 80.0002 5.6 86.6002 1 93.7002" stroke="#071146" stroke-width="2" stroke-miterlimit="10" stroke-linecap="round" stroke-linejoin="round"/>
<path d="M57.3 74.2002C64.1 80.1002 69.7 86.7002 74.3 93.8002" stroke="#071146" stroke-width="2" stroke-miterlimit="10" stroke-linecap="round" stroke-linejoin="round"/>
<path d="M4.79998 60.1002C3.09998 60.1002 1.59998 58.7002 1.59998 56.9002V43.9002C1.59998 42.2002 2.99998 40.7002 4.79998 40.7002C6.49998 40.7002 7.99998 42.1002 7.99998 43.9002V56.9002C7.99998 58.7002 6.59998 60.1002 4.79998 60.1002Z" stroke="#071146" stroke-width="2" stroke-miterlimit="10" stroke-linecap="round" stroke-linejoin="round"/>
<path d="M71.6 60.1002C69.9 60.1002 68.4 58.7002 68.4 56.9002V43.9002C68.4 42.2002 69.8 40.7002 71.6 40.7002C73.3 40.7002 74.8 42.1002 74.8 43.9002V56.9002C74.8 58.7002 73.4 60.1002 71.6 60.1002Z" stroke="#071146" stroke-width="2" stroke-miterlimit="10" stroke-linecap="round" stroke-linejoin="round"/>
<path d="M54.6 73.5002H49.4C48.6 73.5002 48 72.9002 48 72.1002C48 71.3002 48.6 70.7002 49.4 70.7002H54.6C55.4 70.7002 56 71.3002 56 72.1002C56 72.8002 55.4 73.5002 54.6 73.5002Z" fill="#071146"/>
<path d="M4.79999 40.7V34.6C4.79999 16.2 20 1 38.5 1C57 1 72.2 16.2 72.2 34.7V40.8" stroke="#071146" stroke-width="2" stroke-miterlimit="10"/>
<path d="M55.7 72.1001H60.7C66.9 72.1001 71.8 67.1001 71.8 60.1001" stroke="#071146" stroke-width="2" stroke-miterlimit="10"/>
</g>
<defs>
<clipPath id="clip0">
<rect width="75.8" height="94.8" fill="white"/>
</clipPath>
</defs>
</svg>
