<svg width="55" height="45" viewBox="0 0 55 45" fill="none" xmlns="http://www.w3.org/2000/svg">
<path d="M27.5 45C27.1118 45 26.7235 44.8703 26.4 44.6758C25.8824 44.2867 25.5588 43.7032 25.5588 43.0548V1.94524C25.5588 0.842939 26.4 0 27.5 0C28.6 0 29.4412 0.842939 29.4412 1.94524V40.1369L31.3824 39.3588C32.353 38.9697 33.5177 39.4236 33.9059 40.4611C34.2941 41.4986 33.8412 42.6009 32.8059 42.9899L28.1471 44.8703C27.953 44.9352 27.6941 45 27.5 45Z" fill="white"/>
<path d="M27.4999 45C27.2411 45 26.9822 44.9352 26.7881 44.8703L22.1293 42.9899C21.1587 42.6009 20.6411 41.4337 21.0293 40.4611C21.4175 39.4885 22.5822 38.9698 23.5528 39.3588L28.2117 41.2392C29.1822 41.6283 29.6999 42.7954 29.3117 43.768C28.9881 44.5461 28.2764 45 27.4999 45Z" fill="white"/>
<path d="M53.0588 10.3098C51.9588 10.3098 51.1176 9.46686 51.1176 8.36455V3.89049H3.88235V8.36455C3.88235 9.46686 3.04118 10.3098 1.94118 10.3098C0.841176 10.3098 0 9.46686 0 8.36455V1.94524C0 0.842939 0.841176 0 1.94118 0H53.0588C54.1588 0 55 0.842939 55 1.94524V8.36455C55 9.46686 54.1588 10.3098 53.0588 10.3098Z" fill="white"/>
</svg>
