<svg width="55" height="55" viewBox="0 0 55 55" fill="none" xmlns="http://www.w3.org/2000/svg">
<path d="M27.2392 54.0143C27.0074 54.0143 26.7756 53.957 26.5437 53.8998L21.6175 51.9528C20.6322 51.5519 20.1686 50.4639 20.5743 49.4904C20.98 48.517 22.0811 48.0588 23.0664 48.4597L25.3267 49.3759V23.6071L3.88303 14.8457V40.729L6.72287 41.8743C7.70811 42.2752 8.17176 43.3632 7.76607 44.3367C7.36038 45.3102 6.25922 45.7683 5.27397 45.3674L1.21707 43.764C0.463646 43.4777 0 42.7906 0 41.9889V12.0398C0 11.4099 0.347734 10.8372 0.869336 10.4364C1.39094 10.0928 2.08641 10.0355 2.66596 10.2646L27.9347 20.5721C28.6301 20.8584 29.1517 21.5456 29.1517 22.3473V52.1246C29.1517 52.7545 28.862 53.3271 28.2824 53.6707C27.9347 53.8998 27.5869 54.0143 27.2392 54.0143Z" fill="white"/>
<path d="M27.2391 54.0143C26.8334 54.0143 26.4856 53.8998 26.1379 53.6707C25.6163 53.3271 25.2686 52.7545 25.2686 52.1246V22.3473C25.2686 21.6029 25.7322 20.8584 26.4856 20.5721L51.7543 10.2646C52.3339 10.0355 53.0294 10.0928 53.551 10.4364C54.0726 10.7799 54.4203 11.3526 54.4203 12.0398V42.0461C54.4203 42.8478 53.9566 43.535 53.2032 43.8213L48.9145 45.5392C47.9292 45.9401 46.8281 45.482 46.4224 44.5085C46.0167 43.535 46.4804 42.447 47.4656 42.0461L50.5952 40.7863V14.8457L29.1516 23.6071V49.3187L31.1221 48.517C32.1073 48.1161 33.2085 48.5742 33.6142 49.5477C34.0199 50.5212 33.5562 51.6092 32.571 52.0101L27.9345 53.8425C27.7027 53.957 27.4709 54.0143 27.2391 54.0143Z" fill="white"/>
<path d="M18.2559 7.40138C17.5025 7.40138 16.749 6.94327 16.4593 6.19883C16.0536 5.22534 16.5172 4.13733 17.5025 3.73648L26.4856 0.128844C26.9492 -0.042948 27.4708 -0.042948 27.9345 0.128844L36.7438 3.62195C37.729 4.0228 38.1926 5.11082 37.787 6.08431C37.3813 7.05779 36.2801 7.51591 35.2949 7.11506L27.239 3.96554L19.0093 7.28685C18.7195 7.34411 18.4877 7.40138 18.2559 7.40138Z" fill="white"/>
</svg>
