<svg width="29" height="29" viewBox="0 0 29 29" fill="none" xmlns="http://www.w3.org/2000/svg">
<g clip-path="url(#clip0)">
<path d="M29 24.1544C29 26.3361 27.2858 28.0503 25.1042 28.0503H4.84558C2.66389 28.0503 0.949707 26.3361 0.949707 24.1544V3.89588C0.949707 1.71419 2.66389 0 4.84558 0H25.1042C27.2858 0 29 1.71419 29 3.89588V24.1544Z" fill="#0052CC"/>
<path d="M5.62476 10.1293H9.52063V23.3753H5.62476V10.1293ZM7.57269 8.57093C6.40393 8.57093 5.62476 7.71383 5.62476 6.62299C5.62476 5.53214 6.40393 4.67505 7.57269 4.67505C8.74146 4.67505 9.52063 5.53214 9.52063 6.62299C9.52063 7.71383 8.74146 8.57093 7.57269 8.57093ZM24.325 23.3753H20.4291V16.2848C20.4291 14.5706 19.4941 13.4018 17.9357 13.4018C16.767 13.4018 16.1436 14.181 15.832 14.9602C15.754 15.1939 15.754 15.9731 15.754 16.3627V23.3753H11.8582V10.1293H15.754V12.1551C16.2995 11.298 17.2345 10.1293 19.4162 10.1293C22.2212 10.1293 24.325 11.9214 24.325 15.8173V23.3753Z" fill="white"/>
</g>
<defs>
<clipPath id="clip0">
<rect x="0.949707" width="28.0503" height="28.0503" fill="white"/>
</clipPath>
</defs>
</svg>
