<svg width="13" height="29" viewBox="0 0 13 29" fill="none" xmlns="http://www.w3.org/2000/svg">
<g clip-path="url(#clip0)">
<path fill-rule="evenodd" clip-rule="evenodd" d="M13 0.0251465C13 1.16336 13 2.30157 13 3.21214C13 3.66742 13 4.12271 13 4.57799C13 4.80563 13 5.03328 12.5517 5.03328C11.8793 5.03328 10.9828 5.03328 10.3103 5.03328C10.0862 5.03328 9.86207 5.03328 9.63793 5.03328C8.96552 5.26092 8.74138 5.48856 8.74138 6.17149C8.74138 7.3097 8.74138 8.22027 8.74138 9.35848C10.0862 9.35848 11.431 9.35848 13 9.35848C13 10.0414 12.7759 10.952 12.7759 11.6349C12.7759 12.3178 12.5517 13.0008 12.5517 13.9113C12.5517 14.139 12.3276 14.3666 12.1034 14.3666C10.9828 14.3666 9.86207 14.3666 8.74138 14.3666C8.74138 19.1471 8.74138 23.6999 8.74138 28.2528C6.72414 28.2528 4.93103 28.2528 2.91379 28.2528C2.91379 28.0251 2.91379 27.7975 2.91379 27.5699C2.91379 23.2447 2.91379 18.9195 2.91379 14.5943C2.91379 14.139 2.91379 14.139 2.46552 14.139C1.7931 14.139 0.896552 14.139 0 14.139C0 13.9113 0 13.9113 0 13.6837C0 12.3178 0 11.1796 0 9.81376C0 9.13084 0 9.13084 0.672414 9.13084C1.34483 9.13084 2.01724 9.13084 2.46552 9.13084C2.68966 9.13084 2.91379 9.13084 2.91379 8.67555C2.91379 7.53734 2.91379 6.39913 2.91379 5.26092C2.91379 3.89507 3.36207 2.52921 4.48276 1.391C5.37931 0.708073 6.27586 0.252789 7.39655 0.0251465C9.18966 0.0251465 10.9828 0.0251465 13 0.0251465Z" fill="#0052CC"/>
</g>
<defs>
<clipPath id="clip0">
<rect y="0.0251465" width="13" height="28" fill="white"/>
</clipPath>
</defs>
</svg>
