<svg width="34" height="29" viewBox="0 0 34 29" fill="none" xmlns="http://www.w3.org/2000/svg">
<g clip-path="url(#clip0)">
<path d="M33.8345 3.39384C32.7306 3.89088 31.5715 4.16702 30.4124 4.38792C30.9644 4.27747 31.7923 3.28339 32.1234 2.8968C32.6202 2.2893 33.0066 1.57135 33.2825 0.798179C33.3377 0.742952 33.3377 0.687725 33.2825 0.632499C33.2273 0.577272 33.1721 0.632499 33.117 0.632499C31.7923 1.35045 30.4676 1.84749 29.0325 2.17885C28.9221 2.23408 28.8118 2.17885 28.7566 2.12362C28.6462 2.01317 28.5358 1.84749 28.4254 1.73704C27.8183 1.23999 27.1559 0.798179 26.4384 0.522045C25.5001 0.135457 24.4514 -0.0302234 23.4027 0.0250035C22.4092 0.0802303 21.4157 0.356364 20.5325 0.853406C19.6494 1.29522 18.8215 1.95794 18.2144 2.73112C17.552 3.55952 17.0553 4.49838 16.8345 5.49246C16.6137 6.48654 16.6137 7.4254 16.7793 8.41948C16.7793 8.58516 16.7793 8.58516 16.6137 8.58516C10.9286 7.75676 6.29228 5.76859 2.53903 1.4609C2.37345 1.29522 2.26306 1.29522 2.15267 1.4609C0.496824 3.94611 1.32475 7.92244 3.36695 9.85538C3.64293 10.1315 3.9189 10.3524 4.25007 10.6286C4.13968 10.6286 2.75981 10.5181 1.54553 9.85538C1.37994 9.74492 1.32475 9.80015 1.26955 10.0211C1.26955 10.2972 1.26955 10.5181 1.32475 10.8495C1.65591 13.3347 3.36695 15.6542 5.74033 16.5931C6.0163 16.7035 6.34747 16.814 6.62345 16.8692C6.0715 16.9796 5.51955 17.0901 3.9741 16.9244C3.75332 16.8692 3.69812 16.9796 3.75332 17.1453C4.91241 20.3485 7.45137 21.2873 9.32799 21.8396C9.60397 21.8948 9.82475 21.8948 10.1007 21.9501C10.1007 21.9501 10.0455 21.9501 10.0455 22.0053C9.43838 22.9441 7.23059 23.6621 6.23708 24.0487C4.41566 24.7114 2.37345 24.9875 0.441629 24.7666C0.11046 24.7114 0.0552654 24.7114 7.05793e-05 24.7666C-0.110319 24.8218 7.05831e-05 24.8771 0.11046 24.9875C0.496824 25.2637 0.883188 25.4846 1.32475 25.7055C2.53903 26.3682 3.86371 26.8652 5.18838 27.2518C12.1429 29.1848 19.9254 27.7489 25.1689 22.5575C29.2533 18.4708 30.6884 12.8929 30.6884 7.25972C30.6884 7.03881 30.9644 6.92836 31.0747 6.8179C32.1234 6.04473 33.0066 5.05064 33.7793 4.00133C33.9449 3.78043 33.9449 3.55952 33.9449 3.44907V3.39384C34.0001 3.28339 34.0001 3.33861 33.8345 3.39384Z" fill="#0052CC"/>
<path fill-rule="evenodd" clip-rule="evenodd" d="M11.2598 27.9147C11.2598 27.8595 11.8117 27.9147 11.2598 27.9147C11.2598 27.9147 11.315 27.9147 11.2598 27.9147Z" fill="#0052CC"/>
<path fill-rule="evenodd" clip-rule="evenodd" d="M23.2369 0.0803223C23.1817 0.135549 23.1265 0.135549 23.0713 0.0803223C23.1817 0.0803223 23.2369 0.0803223 23.2369 0.0803223Z" fill="#0052CC"/>
</g>
<defs>
<clipPath id="clip0">
<rect y="0.0251465" width="34" height="28" fill="white"/>
</clipPath>
</defs>
</svg>
