<svg width="1043" height="324" viewBox="0 0 1043 324" fill="none" xmlns="http://www.w3.org/2000/svg">
<g clip-path="url(#clip0)">
<path d="M79.5899 122.34C38.6799 134.23 8.30988 175.6 9.31988 218.19C10.3299 260.78 42.7199 300.7 84.2199 310.36C125.72 320.02 172.46 298.45 191.93 260.55C196.32 252 199.47 242.39 198.17 232.87C196.87 223.35 190.22 214.1 180.82 212.13C173.63 210.62 165.95 213.61 160.73 218.79C144.35 235.08 156.29 266.06 177.61 274.94C198.93 283.82 223.55 276.67 244.14 266.21C275.139 250.416 301.968 227.52 322.44 199.39C339.24 176.25 351.96 149.39 374.32 131.52C397.12 113.34 427.77 106.91 456.82 109.52C480.55 111.62 504.37 119.73 521.82 135.91C539.27 152.09 549.52 177.05 544.53 200.35C539.54 223.65 517.53 243.21 493.7 241.93C483.18 233.14 487.1 214.26 498.75 207.03C510.4 199.8 525.93 202.18 537.92 208.83C549.91 215.48 559.37 225.77 569.49 235.02C599.691 262.525 636.689 281.468 676.66 289.89C695.66 293.89 716.2 295.23 733.81 287.06C746.06 281.38 756.03 271.36 762.81 259.68C774.81 238.96 776.1 210.92 761.42 192.01C746.74 173.1 714.77 168.7 698.57 186.32C685.84 200.17 686.22 222.65 695.57 239C704.92 255.35 721.31 266.45 738.35 274.44C790.17 298.75 853.56 298.25 903.8 270.81C954.04 243.37 989.13 188.95 990.88 131.74C991.88 99.74 976.59 61.63 944.88 57.08C933.88 55.51 919.36 63.37 922.81 73.92C924.61 79.4 930.56 82.31 936.14 83.76C957.86 89.39 982.6 80.69 996 62.69" stroke="white" stroke-width="2" stroke-linecap="round" stroke-linejoin="round" stroke-dasharray="6 6"/>
<path d="M200.53 177.29C211.371 177.29 220.16 168.501 220.16 157.66C220.16 146.819 211.371 138.03 200.53 138.03C189.689 138.03 180.9 146.819 180.9 157.66C180.9 168.501 189.689 177.29 200.53 177.29Z" fill="white"/>
<path d="M198.35 177.82C210.694 177.82 220.7 167.814 220.7 155.47C220.7 143.126 210.694 133.12 198.35 133.12C186.006 133.12 176 143.126 176 155.47C176 167.814 186.006 177.82 198.35 177.82Z" stroke="#071146" stroke-width="3" stroke-linecap="round" stroke-linejoin="round"/>
<path d="M198.35 171.16C207.015 171.16 214.04 164.135 214.04 155.47C214.04 146.805 207.015 139.78 198.35 139.78C189.685 139.78 182.66 146.805 182.66 155.47C182.66 164.135 189.685 171.16 198.35 171.16Z" stroke="#071146" stroke-width="3" stroke-linecap="round" stroke-linejoin="round"/>
<path d="M216.5 168.52L231.34 183.36C232.012 184.035 232.389 184.948 232.389 185.9C232.389 186.852 232.012 187.765 231.34 188.44V188.44C230.665 189.112 229.752 189.489 228.8 189.489C227.848 189.489 226.935 189.112 226.26 188.44L211.66 173.84" stroke="#071146" stroke-width="3" stroke-linecap="round" stroke-linejoin="round"/>
<path d="M835.97 172.23C844.967 172.23 852.26 164.937 852.26 155.94C852.26 146.943 844.967 139.65 835.97 139.65C826.973 139.65 819.68 146.943 819.68 155.94C819.68 164.937 826.973 172.23 835.97 172.23Z" fill="white"/>
<path d="M860.26 157.42C860.682 157.352 861.068 157.145 861.359 156.831C861.649 156.518 861.825 156.116 861.86 155.69C861.92 154.99 861.96 154.28 861.96 153.57C861.96 152.86 861.96 152.15 861.86 151.45C861.825 151.024 861.649 150.622 861.359 150.309C861.068 149.995 860.682 149.788 860.26 149.72L857.36 149.27C856.991 149.207 856.649 149.038 856.374 148.784C856.099 148.53 855.903 148.202 855.81 147.84V147.84C855.71 147.482 855.715 147.103 855.825 146.749C855.935 146.394 856.145 146.078 856.43 145.84L858.73 143.99C859.059 143.73 859.292 143.367 859.39 142.959C859.488 142.55 859.446 142.121 859.27 141.74C858.653 140.46 857.937 139.23 857.13 138.06C856.889 137.7 856.534 137.432 856.122 137.3C855.71 137.167 855.265 137.178 854.86 137.33L852.1 138.39C851.748 138.52 851.366 138.545 851 138.462C850.634 138.378 850.3 138.19 850.04 137.92V137.92C849.77 137.66 849.581 137.326 849.498 136.96C849.415 136.594 849.44 136.212 849.57 135.86L850.63 133.1C850.782 132.695 850.793 132.25 850.66 131.838C850.528 131.426 850.26 131.071 849.9 130.83C848.73 130.023 847.5 129.307 846.22 128.69C845.839 128.514 845.41 128.472 845.001 128.57C844.593 128.668 844.23 128.901 843.97 129.23L842.12 131.53C841.882 131.815 841.566 132.025 841.211 132.135C840.857 132.245 840.478 132.25 840.12 132.15V132.15C839.757 132.057 839.43 131.861 839.176 131.586C838.922 131.311 838.753 130.969 838.69 130.6L838.24 127.7C838.172 127.278 837.965 126.891 837.651 126.601C837.337 126.311 836.936 126.135 836.51 126.1C835.81 126.04 835.1 126 834.39 126C833.68 126 832.97 126 832.27 126.1C831.844 126.135 831.442 126.311 831.129 126.601C830.815 126.891 830.608 127.278 830.54 127.7L830.09 130.6C830.026 130.969 829.858 131.311 829.604 131.586C829.35 131.861 829.022 132.057 828.66 132.15V132.15C828.302 132.25 827.923 132.245 827.569 132.135C827.214 132.025 826.898 131.815 826.66 131.53L824.81 129.23C824.55 128.901 824.187 128.668 823.779 128.57C823.37 128.472 822.941 128.514 822.56 128.69C821.28 129.307 820.05 130.023 818.88 130.83C818.514 131.044 818.23 131.373 818.071 131.765C817.912 132.158 817.887 132.592 818 133L819.06 135.76C819.19 136.112 819.215 136.494 819.132 136.86C819.048 137.226 818.86 137.56 818.59 137.82V137.82C818.329 138.09 817.996 138.278 817.63 138.362C817.264 138.445 816.882 138.42 816.53 138.29L813.77 137.23C813.365 137.078 812.92 137.067 812.508 137.2C812.096 137.332 811.741 137.6 811.5 137.96C810.693 139.13 809.977 140.36 809.36 141.64C809.184 142.021 809.142 142.45 809.24 142.859C809.338 143.267 809.571 143.63 809.9 143.89L812.2 145.74C812.485 145.978 812.695 146.294 812.805 146.649C812.915 147.003 812.92 147.382 812.82 147.74V147.74C812.727 148.102 812.531 148.43 812.256 148.684C811.981 148.938 811.639 149.107 811.27 149.17L808.37 149.62C807.948 149.688 807.561 149.895 807.271 150.209C806.981 150.522 806.805 150.924 806.77 151.35C806.71 152.05 806.67 152.76 806.67 153.47C806.67 154.18 806.67 154.89 806.77 155.59C806.805 156.016 806.981 156.418 807.271 156.731C807.561 157.045 807.948 157.252 808.37 157.32L811.27 157.77C811.639 157.833 811.981 158.002 812.256 158.256C812.531 158.51 812.727 158.838 812.82 159.2V159.2C812.92 159.558 812.915 159.937 812.805 160.291C812.695 160.646 812.485 160.962 812.2 161.2L809.9 163.06C809.571 163.32 809.338 163.683 809.24 164.091C809.142 164.5 809.184 164.929 809.36 165.31C809.977 166.59 810.693 167.82 811.5 168.99C811.741 169.35 812.096 169.618 812.508 169.75C812.92 169.883 813.365 169.872 813.77 169.72L816.53 168.66C816.882 168.53 817.264 168.505 817.63 168.588C817.996 168.672 818.329 168.86 818.59 169.13V169.13C818.86 169.391 819.048 169.724 819.132 170.09C819.215 170.456 819.19 170.838 819.06 171.19L818 174.14C817.848 174.545 817.837 174.99 817.97 175.402C818.102 175.814 818.37 176.169 818.73 176.41C819.9 177.217 821.13 177.933 822.41 178.55C822.791 178.726 823.22 178.768 823.628 178.67C824.037 178.572 824.4 178.339 824.66 178.01L826.51 175.71C826.748 175.425 827.064 175.215 827.419 175.105C827.773 174.995 828.152 174.99 828.51 175.09V175.09C828.872 175.183 829.2 175.379 829.454 175.654C829.708 175.929 829.876 176.271 829.94 176.64L830.39 179.54C830.458 179.962 830.665 180.349 830.979 180.639C831.292 180.929 831.694 181.105 832.12 181.14C832.82 181.2 833.53 181.24 834.24 181.24C834.95 181.24 835.66 181.24 836.36 181.14C836.786 181.105 837.187 180.929 837.501 180.639C837.815 180.349 838.022 179.962 838.09 179.54L838.54 176.64C838.607 176.269 838.781 175.926 839.041 175.653C839.3 175.379 839.633 175.187 840 175.1V175.1C840.358 175 840.737 175.005 841.091 175.115C841.446 175.225 841.762 175.435 842 175.72L844 178C844.26 178.329 844.623 178.562 845.031 178.66C845.439 178.758 845.869 178.716 846.25 178.54C847.53 177.923 848.76 177.207 849.93 176.4C850.29 176.159 850.558 175.804 850.69 175.392C850.823 174.98 850.812 174.535 850.66 174.13L849.6 171.37C849.469 171.018 849.445 170.636 849.528 170.27C849.611 169.904 849.8 169.57 850.07 169.31V169.31C850.33 169.04 850.664 168.852 851.03 168.768C851.396 168.685 851.778 168.71 852.13 168.84L854.89 169.9C855.295 170.052 855.74 170.063 856.152 169.93C856.564 169.798 856.919 169.53 857.16 169.17C857.967 168 858.682 166.77 859.3 165.49C859.475 165.109 859.518 164.68 859.42 164.271C859.322 163.863 859.089 163.5 858.76 163.24L856.46 161.39C856.175 161.152 855.965 160.836 855.855 160.481C855.745 160.127 855.74 159.748 855.84 159.39C855.933 159.028 856.129 158.7 856.404 158.446C856.679 158.192 857.021 158.024 857.39 157.96L860.26 157.42Z" stroke="#071146" stroke-width="3" stroke-linecap="round" stroke-linejoin="round"/>
<path d="M834.29 137.28C831.068 137.28 827.919 138.235 825.24 140.025C822.561 141.815 820.473 144.359 819.24 147.336C818.007 150.313 817.684 153.588 818.313 156.748C818.942 159.908 820.493 162.811 822.771 165.089C825.049 167.367 827.952 168.918 831.112 169.547C834.272 170.176 837.547 169.853 840.524 168.62C843.501 167.387 846.045 165.299 847.835 162.62C849.625 159.941 850.58 156.792 850.58 153.57C850.58 149.25 848.864 145.106 845.809 142.051C842.754 138.996 838.61 137.28 834.29 137.28V137.28ZM834.29 163.7C832.286 163.7 830.328 163.106 828.662 161.993C826.996 160.88 825.698 159.298 824.931 157.447C824.164 155.596 823.964 153.559 824.355 151.594C824.746 149.629 825.71 147.824 827.127 146.407C828.544 144.99 830.349 144.026 832.314 143.635C834.279 143.244 836.316 143.444 838.167 144.211C840.018 144.978 841.6 146.276 842.713 147.942C843.826 149.608 844.42 151.566 844.42 153.57C844.42 156.257 843.353 158.833 841.453 160.733C839.553 162.633 836.977 163.7 834.29 163.7Z" stroke="#071146" stroke-width="3" stroke-linecap="round" stroke-linejoin="round"/>
<path d="M296.1 132.26C299.745 132.26 302.7 129.305 302.7 125.66C302.7 122.015 299.745 119.06 296.1 119.06C292.455 119.06 289.5 122.015 289.5 125.66C289.5 129.305 292.455 132.26 296.1 132.26Z" stroke="white" stroke-width="2" stroke-linecap="round" stroke-linejoin="round"/>
<path d="M306 147C305.918 144.433 304.841 141.998 302.996 140.211C301.151 138.424 298.684 137.424 296.115 137.424C293.546 137.424 291.079 138.424 289.234 140.211C287.389 141.998 286.312 144.433 286.23 147H306Z" stroke="white" stroke-width="2" stroke-linecap="round" stroke-linejoin="round"/>
<path d="M946.74 216.9C946.74 216.9 939.19 226.12 931.74 228.9C923.88 231.83 914.07 232.02 914.07 232.02C914.07 232.02 911.18 244.28 918.01 264.43C924.16 282.57 946.7 286.72 946.7 286.72" fill="white"/>
<path d="M946.74 216.9C946.74 216.9 953.88 224.34 961.3 227.11C969.16 230.04 978.81 227.81 978.81 227.81C978.81 227.81 982.27 244.27 975.44 264.42C969.29 282.56 946.75 286.71 946.75 286.71" fill="white"/>
<path d="M930.5 248.87L942.82 260.43L956.72 243.69" stroke="#071146" stroke-width="3" stroke-linecap="round" stroke-linejoin="round"/>
<path d="M943.61 212.82C943.61 212.82 935.79 220.75 927.66 223.7C919.05 226.83 908.49 224.45 908.49 224.45C908.49 224.45 904.7 242 912.18 263.45C918.91 282.79 943.61 287.22 943.61 287.22" stroke="#071146" stroke-width="3" stroke-linecap="round" stroke-linejoin="round"/>
<path d="M943.61 212.82C943.61 212.82 951.43 220.75 959.56 223.7C968.17 226.83 978.73 224.45 978.73 224.45C978.73 224.45 982.52 242 975.04 263.45C968.31 282.79 943.61 287.22 943.61 287.22" stroke="#071146" stroke-width="3" stroke-linecap="round" stroke-linejoin="round"/>
<path d="M991.3 25.07L996.94 28.53C997.069 28.591 997.181 28.6817 997.268 28.7947C997.355 28.9078 997.414 29.0398 997.44 29.18L1001.88 51.94C1001.91 52.1193 1002 52.2848 1002.12 52.4147C1002.25 52.5445 1002.42 52.6326 1002.6 52.6673C1002.77 52.702 1002.96 52.6816 1003.13 52.6089C1003.29 52.5361 1003.43 52.4145 1003.53 52.26L1008.64 44.07C1008.71 43.953 1008.81 43.8543 1008.93 43.7815C1009.05 43.7087 1009.18 43.6639 1009.32 43.6503C1009.45 43.6368 1009.59 43.655 1009.72 43.7035C1009.85 43.752 1009.97 43.8295 1010.06 43.93L1022.06 56.59C1022.16 56.698 1022.29 56.7787 1022.43 56.8248C1022.57 56.8709 1022.73 56.881 1022.87 56.8543C1023.02 56.8275 1023.16 56.7646 1023.27 56.6714C1023.39 56.5781 1023.48 56.4574 1023.54 56.32L1040.5 3.17C1040.57 3.00712 1040.59 2.82677 1040.56 2.65171C1040.53 2.47665 1040.45 2.31471 1040.33 2.18634C1040.2 2.05797 1040.04 1.96892 1039.87 1.93041C1039.7 1.89191 1039.52 1.90569 1039.35 1.97L991.35 23.41C991.184 23.4735 991.041 23.5846 990.938 23.7293C990.835 23.874 990.778 24.0459 990.772 24.2234C990.767 24.4008 990.814 24.5758 990.908 24.7265C991.002 24.8771 991.138 24.9966 991.3 25.07Z" fill="white"/>
<path d="M987.8 22.75L996.8 27.01C996.929 27.071 997.041 27.1617 997.128 27.2747C997.215 27.3878 997.274 27.5198 997.3 27.66L1000.13 43.18C1000.16 43.3593 1000.25 43.5249 1000.37 43.6547C1000.5 43.7846 1000.67 43.8726 1000.85 43.9073C1001.02 43.942 1001.21 43.9216 1001.38 43.8489C1001.54 43.7762 1001.68 43.6545 1001.78 43.5L1006.89 35.31C1006.96 35.193 1007.06 35.0943 1007.18 35.0215C1007.3 34.9487 1007.43 34.9039 1007.57 34.8903C1007.7 34.8768 1007.84 34.895 1007.97 34.9435C1008.1 34.992 1008.22 35.0695 1008.31 35.17L1020.31 47.83C1020.41 47.938 1020.54 48.0187 1020.68 48.0648C1020.83 48.1109 1020.98 48.1211 1021.12 48.0943C1021.27 48.0675 1021.41 48.0047 1021.52 47.9114C1021.64 47.8181 1021.73 47.6974 1021.79 47.56L1040.87 2.77001C1040.94 2.60713 1040.96 2.42678 1040.93 2.25172C1040.9 2.07665 1040.82 1.91472 1040.7 1.78635C1040.57 1.65798 1040.41 1.56892 1040.24 1.53042C1040.07 1.49192 1039.89 1.50569 1039.72 1.57001L987.87 21.09C987.703 21.1514 987.558 21.2607 987.454 21.4043C987.349 21.5478 987.289 21.7192 987.282 21.8967C987.274 22.0742 987.32 22.2499 987.412 22.4018C987.504 22.5536 987.639 22.6748 987.8 22.75V22.75Z" stroke="#071146" stroke-width="3" stroke-linecap="round" stroke-linejoin="round"/>
<path d="M1007.48 34.31L1036.34 6.05999C1036.5 5.90686 1036.6 5.69945 1036.62 5.47775C1036.63 5.25604 1036.57 5.03575 1036.43 4.85935C1036.3 4.68294 1036.1 4.56292 1035.88 4.52241C1035.67 4.48191 1035.44 4.52379 1035.25 4.63999L997.19 27.21" stroke="#071146" stroke-width="3" stroke-linecap="round" stroke-linejoin="round"/>
<path d="M350.62 253.86H300.57C299.256 253.86 298.19 254.926 298.19 256.24V320.97C298.19 322.284 299.256 323.35 300.57 323.35H350.62C351.934 323.35 353 322.284 353 320.97V256.24C353 254.926 351.934 253.86 350.62 253.86Z" fill="white"/>
<path d="M349.36 262.84V317.14C349.357 317.77 349.106 318.374 348.66 318.82C348.214 319.266 347.611 319.517 346.98 319.52H296.98C296.35 319.517 295.746 319.266 295.3 318.82C294.854 318.374 294.603 317.77 294.6 317.14V252.42C294.603 251.79 294.854 251.186 295.3 250.74C295.746 250.294 296.35 250.043 296.98 250.04H337.93" stroke="#071146" stroke-width="3" stroke-linecap="round" stroke-linejoin="round"/>
<path d="M349.36 262.84H340.27C339.64 262.837 339.036 262.586 338.59 262.14C338.144 261.694 337.893 261.09 337.89 260.46V250" stroke="#071146" stroke-width="3" stroke-linecap="round" stroke-linejoin="round"/>
<path d="M305.98 281.1H337.89" stroke="#071146" stroke-width="3" stroke-linecap="round" stroke-linejoin="round"/>
<path d="M305.98 289.92H337.89" stroke="#071146" stroke-width="3" stroke-linecap="round" stroke-linejoin="round"/>
<path d="M305.98 298.73H337.89" stroke="#071146" stroke-width="3" stroke-linecap="round" stroke-linejoin="round"/>
<path d="M87.3901 256.44C85.3936 256.462 83.4114 256.102 81.5501 255.38C79.8236 254.708 78.2556 253.685 76.9456 252.374C75.6355 251.064 74.6121 249.496 73.9401 247.77C72.5294 243.994 72.5294 239.836 73.9401 236.06C74.6115 234.333 75.6348 232.765 76.9449 231.455C78.255 230.145 79.8233 229.121 81.5501 228.45C85.3256 227.038 89.4845 227.038 93.2601 228.45C94.9872 229.121 96.5557 230.144 97.8659 231.454C99.1761 232.764 100.199 234.333 100.87 236.06C101.594 237.931 101.954 239.924 101.93 241.93C101.956 243.481 101.723 245.026 101.24 246.5C100.871 247.682 100.219 248.757 99.3401 249.63C98.5869 250.366 97.5735 250.776 96.5201 250.77C96.1007 250.792 95.6815 250.725 95.2896 250.574C94.8976 250.423 94.5417 250.192 94.2448 249.895C93.9479 249.598 93.7166 249.242 93.5659 248.85C93.4152 248.459 93.3485 248.039 93.3701 247.62V246.7C92.9696 247.29 92.4606 247.8 91.8701 248.2C91.2173 248.637 90.5027 248.974 89.7501 249.2C88.9875 249.445 88.1912 249.57 87.3901 249.57C85.9919 249.595 84.6121 249.25 83.3901 248.57C82.2454 247.93 81.3004 246.985 80.6601 245.84C80.0086 244.607 79.668 243.234 79.668 241.84C79.668 240.446 80.0086 239.073 80.6601 237.84C81.3004 236.695 82.2454 235.75 83.3901 235.11C84.6219 234.456 85.9954 234.114 87.3901 234.114C88.7848 234.114 90.1582 234.456 91.3901 235.11C92.5311 235.752 93.4724 236.697 94.1101 237.84C94.7872 239.063 95.132 240.442 95.1101 241.84V246.96C95.0588 247.507 95.2002 248.056 95.5101 248.51C95.6334 248.655 95.7867 248.771 95.9594 248.85C96.1321 248.93 96.32 248.97 96.5101 248.97C96.8779 248.966 97.2403 248.882 97.572 248.723C97.9037 248.564 98.1966 248.334 98.4301 248.05C99.0464 247.318 99.4906 246.457 99.7301 245.53C100.061 244.329 100.22 243.086 100.2 241.84C100.219 240.078 99.8962 238.329 99.2501 236.69C98.651 235.175 97.7472 233.8 96.5947 232.649C95.4422 231.498 94.0655 230.597 92.5501 230C89.2319 228.742 85.5682 228.742 82.2501 230C80.7297 230.601 79.3481 231.506 78.1901 232.66C77.0375 233.817 76.1354 235.199 75.5401 236.72C74.3024 240.042 74.3024 243.698 75.5401 247.02C76.13 248.544 77.0315 249.928 78.1869 251.083C79.3423 252.239 80.7262 253.14 82.2501 253.73C83.8922 254.364 85.64 254.679 87.4001 254.66C88.3487 254.653 89.2939 254.545 90.2201 254.34C91.063 254.176 91.8849 253.918 92.6701 253.57C92.808 253.481 92.9634 253.424 93.1258 253.402C93.2881 253.379 93.4533 253.392 93.6101 253.44C93.8601 253.54 93.9801 253.79 93.9801 254.17C93.9801 254.55 93.7001 254.8 93.1401 255.17C92.4147 255.575 91.6327 255.868 90.8201 256.04C89.6966 256.309 88.5452 256.443 87.3901 256.44ZM87.3901 247.91C88.4701 247.931 89.5364 247.666 90.4801 247.14C91.368 246.632 92.1009 245.893 92.6001 245C93.1258 244.056 93.3915 242.99 93.3701 241.91C93.394 240.82 93.1283 239.744 92.6001 238.79C92.098 237.905 91.3654 237.172 90.4801 236.67C89.5292 236.162 88.468 235.897 87.3901 235.897C86.3122 235.897 85.2509 236.162 84.3001 236.67C83.4157 237.173 82.6833 237.906 82.1801 238.79C81.6519 239.744 81.3862 240.82 81.4101 241.91C81.3881 242.99 81.6539 244.056 82.1801 245C82.6829 245.885 83.4154 246.617 84.3001 247.12C85.2418 247.653 86.3082 247.925 87.3901 247.91Z" fill="white"/>
<path d="M419.58 304.44C417.584 304.462 415.601 304.102 413.74 303.38C412.014 302.708 410.446 301.684 409.136 300.374C407.825 299.064 406.802 297.496 406.13 295.77C404.719 291.994 404.719 287.836 406.13 284.06C406.801 282.333 407.825 280.765 409.135 279.455C410.445 278.145 412.013 277.121 413.74 276.45C417.516 275.038 421.674 275.038 425.45 276.45C427.177 277.121 428.746 278.144 430.056 279.454C431.366 280.764 432.389 282.333 433.06 284.06C433.784 285.931 434.144 287.924 434.12 289.93C434.146 291.481 433.913 293.026 433.43 294.5C433.061 295.682 432.409 296.757 431.53 297.63C430.777 298.366 429.763 298.776 428.71 298.77C428.291 298.791 427.871 298.725 427.48 298.574C427.088 298.423 426.732 298.192 426.435 297.895C426.138 297.598 425.907 297.242 425.756 296.85C425.605 296.459 425.538 296.039 425.56 295.62V294.7C425.16 295.29 424.651 295.8 424.06 296.2C423.407 296.637 422.693 296.974 421.94 297.2C421.177 297.445 420.381 297.57 419.58 297.57C418.182 297.595 416.802 297.25 415.58 296.57C414.435 295.93 413.49 294.985 412.85 293.84C412.199 292.607 411.858 291.234 411.858 289.84C411.858 288.446 412.199 287.073 412.85 285.84C413.49 284.695 414.435 283.75 415.58 283.11C416.812 282.456 418.185 282.114 419.58 282.114C420.975 282.114 422.348 282.456 423.58 283.11C424.721 283.752 425.662 284.697 426.3 285.84C426.977 287.063 427.322 288.442 427.3 289.84V294.96C427.249 295.507 427.39 296.056 427.7 296.51C427.823 296.655 427.977 296.771 428.149 296.85C428.322 296.93 428.51 296.97 428.7 296.97C429.068 296.966 429.43 296.882 429.762 296.723C430.094 296.564 430.386 296.334 430.62 296.05C431.236 295.318 431.681 294.457 431.92 293.53C432.251 292.329 432.41 291.086 432.39 289.84C432.409 288.078 432.086 286.329 431.44 284.69C430.843 283.166 429.939 281.782 428.782 280.624C427.626 279.466 426.243 278.559 424.72 277.96C421.402 276.702 417.738 276.702 414.42 277.96C412.9 278.561 411.518 279.466 410.36 280.62C409.207 281.777 408.305 283.159 407.71 284.68C406.472 288.002 406.472 291.658 407.71 294.98C408.3 296.504 409.201 297.888 410.357 299.043C411.512 300.199 412.896 301.1 414.42 301.69C416.062 302.324 417.81 302.639 419.57 302.62C420.519 302.613 421.464 302.505 422.39 302.3C423.233 302.136 424.055 301.878 424.84 301.53C424.978 301.441 425.133 301.384 425.296 301.361C425.458 301.339 425.623 301.352 425.78 301.4C426.03 301.5 426.15 301.75 426.15 302.13C426.15 302.51 425.87 302.76 425.31 303.13C424.585 303.535 423.803 303.828 422.99 304C421.875 304.281 420.73 304.428 419.58 304.44ZM419.58 295.91C420.66 295.931 421.726 295.666 422.67 295.14C423.555 294.638 424.288 293.905 424.79 293.02C425.316 292.076 425.581 291.01 425.56 289.93C425.584 288.84 425.318 287.764 424.79 286.81C424.288 285.925 423.555 285.192 422.67 284.69C421.719 284.182 420.658 283.917 419.58 283.917C418.502 283.917 417.441 284.182 416.49 284.69C415.606 285.193 414.873 285.926 414.37 286.81C413.842 287.764 413.576 288.84 413.6 289.93C413.578 291.01 413.844 292.076 414.37 293.02C414.873 293.905 415.605 294.637 416.49 295.14C417.434 295.666 418.5 295.931 419.58 295.91Z" fill="white"/>
<path d="M940.33 154.3C938.334 154.322 936.351 153.962 934.49 153.24C932.764 152.568 931.196 151.545 929.886 150.235C928.575 148.925 927.552 147.357 926.88 145.63C925.469 141.854 925.469 137.696 926.88 133.92C927.551 132.193 928.575 130.625 929.885 129.315C931.195 128.005 932.763 126.981 934.49 126.31C938.266 124.898 942.424 124.898 946.2 126.31C947.927 126.981 949.496 128.004 950.806 129.314C952.116 130.624 953.139 132.193 953.81 133.92C954.534 135.791 954.894 137.784 954.87 139.79C954.896 141.341 954.663 142.886 954.18 144.36C953.811 145.542 953.159 146.617 952.28 147.49C951.527 148.227 950.513 148.636 949.46 148.63C949.041 148.652 948.621 148.585 948.229 148.434C947.838 148.283 947.482 148.052 947.185 147.755C946.888 147.458 946.657 147.102 946.506 146.71C946.355 146.319 946.288 145.899 946.31 145.48V144.56C945.91 145.151 945.401 145.66 944.81 146.06C944.157 146.497 943.443 146.834 942.69 147.06C941.927 147.306 941.131 147.43 940.33 147.43C938.932 147.455 937.552 147.11 936.33 146.43C935.185 145.79 934.24 144.845 933.6 143.7C932.948 142.467 932.608 141.094 932.608 139.7C932.608 138.306 932.948 136.933 933.6 135.7C934.24 134.555 935.185 133.61 936.33 132.97C937.562 132.316 938.935 131.974 940.33 131.974C941.725 131.974 943.098 132.316 944.33 132.97C945.471 133.612 946.412 134.557 947.05 135.7C947.727 136.923 948.072 138.302 948.05 139.7V144.82C947.999 145.368 948.14 145.916 948.45 146.37C948.573 146.515 948.727 146.631 948.899 146.71C949.072 146.79 949.26 146.83 949.45 146.83C949.818 146.826 950.18 146.742 950.512 146.583C950.844 146.424 951.136 146.194 951.37 145.91C951.986 145.178 952.431 144.317 952.67 143.39C953.001 142.189 953.16 140.946 953.14 139.7C953.159 137.938 952.836 136.189 952.19 134.55C951.593 133.026 950.689 131.642 949.532 130.484C948.376 129.326 946.993 128.419 945.47 127.82C942.152 126.562 938.488 126.562 935.17 127.82C933.65 128.421 932.268 129.326 931.11 130.48C929.957 131.637 929.055 133.019 928.46 134.54C927.222 137.862 927.222 141.518 928.46 144.84C929.05 146.364 929.951 147.748 931.107 148.903C932.262 150.059 933.646 150.96 935.17 151.55C936.812 152.184 938.56 152.499 940.32 152.48C941.269 152.473 942.214 152.365 943.14 152.16C943.983 151.996 944.805 151.738 945.59 151.39C945.728 151.301 945.883 151.244 946.046 151.222C946.208 151.199 946.373 151.212 946.53 151.26C946.78 151.36 946.9 151.61 946.9 151.99C946.9 152.37 946.62 152.62 946.06 152.99C945.335 153.395 944.553 153.688 943.74 153.86C942.625 154.141 941.48 154.288 940.33 154.3ZM940.33 145.77C941.41 145.791 942.476 145.526 943.42 145C944.305 144.498 945.038 143.765 945.54 142.88C946.066 141.936 946.331 140.87 946.31 139.79C946.334 138.7 946.068 137.624 945.54 136.67C945.038 135.785 944.305 135.052 943.42 134.55C942.469 134.042 941.408 133.777 940.33 133.777C939.252 133.777 938.191 134.042 937.24 134.55C936.356 135.053 935.623 135.786 935.12 136.67C934.592 137.624 934.326 138.7 934.35 139.79C934.328 140.87 934.594 141.937 935.12 142.88C935.623 143.765 936.355 144.497 937.24 145C938.183 145.529 939.249 145.798 940.33 145.78V145.77Z" fill="white"/>
<path d="M566.17 148.78H483.69C476.339 148.78 470.38 154.739 470.38 162.09V248.01C470.38 255.361 476.339 261.32 483.69 261.32H566.17C573.521 261.32 579.48 255.361 579.48 248.01V162.09C579.48 154.739 573.521 148.78 566.17 148.78Z" stroke="#071146" stroke-width="3" stroke-linecap="round" stroke-linejoin="round"/>
<path d="M568.35 184.57H491.05C485.29 184.57 480.62 189.24 480.62 195V250.89C480.62 256.65 485.29 261.32 491.05 261.32H568.35C574.11 261.32 578.78 256.65 578.78 250.89V195C578.78 189.24 574.11 184.57 568.35 184.57Z" fill="white"/>
<path d="M470.38 198.7L516.38 224.62C518.996 226.094 521.947 226.868 524.95 226.868C527.952 226.868 530.904 226.094 533.52 224.62L579.52 198.7" stroke="#071146" stroke-width="3" stroke-linecap="round" stroke-linejoin="round"/>
<path d="M579.48 242.99L540.76 221.16" stroke="#071146" stroke-width="3" stroke-linecap="round" stroke-linejoin="round"/>
<path d="M509.1 221.16L470.38 242.99" stroke="#071146" stroke-width="3" stroke-linecap="round" stroke-linejoin="round"/>
<path d="M567.94 176.74H481.92C475.547 176.74 470.38 181.907 470.38 188.28V249.78C470.38 256.153 475.547 261.32 481.92 261.32H567.94C574.313 261.32 579.48 256.153 579.48 249.78V188.28C579.48 181.907 574.313 176.74 567.94 176.74Z" stroke="#071146" stroke-width="3" stroke-linecap="round" stroke-linejoin="round"/>
<path d="M88.9099 68.9H20.0099C14.835 68.9 10.6399 73.0951 10.6399 78.27V128.88C10.6399 134.055 14.835 138.25 20.0099 138.25H88.9099C94.0848 138.25 98.2799 134.055 98.2799 128.88V78.27C98.2799 73.0951 94.0848 68.9 88.9099 68.9Z" fill="white"/>
<path d="M88.46 60.44H11.96C6.1831 60.44 1.5 65.1231 1.5 70.9V127.79C1.5 133.567 6.1831 138.25 11.96 138.25H88.46C94.2369 138.25 98.92 133.567 98.92 127.79V70.9C98.92 65.1231 94.2369 60.44 88.46 60.44Z" stroke="#071146" stroke-width="3" stroke-linecap="round" stroke-linejoin="round"/>
<path d="M28.3899 160.93H72.8799" stroke="#071146" stroke-width="3" stroke-linecap="round" stroke-linejoin="round"/>
<path d="M32.9399 93.63L49.5799 109.23L68.3299 86.63" stroke="#071146" stroke-width="3" stroke-linecap="round" stroke-linejoin="round"/>
<path d="M764.05 258.08H727.65C724.369 258.08 721.71 260.739 721.71 264.02V302.84C721.71 306.121 724.369 308.78 727.65 308.78H764.05C767.33 308.78 769.99 306.121 769.99 302.84V264.02C769.99 260.739 767.33 258.08 764.05 258.08Z" fill="white"/>
<path d="M763.79 253.42H723.22C719.602 253.42 716.67 256.353 716.67 259.97V302.23C716.67 305.847 719.602 308.78 723.22 308.78H763.79C767.407 308.78 770.34 305.847 770.34 302.23V259.97C770.34 256.353 767.407 253.42 763.79 253.42Z" stroke="#071146" stroke-width="3" stroke-linecap="round" stroke-linejoin="round"/>
<path d="M727.52 270.27L732.3 274.76L737.69 268.26" stroke="#071146" stroke-width="3" stroke-linecap="round" stroke-linejoin="round"/>
<path d="M727.52 281.37L732.3 285.85L737.69 279.36" stroke="#071146" stroke-width="3" stroke-linecap="round" stroke-linejoin="round"/>
<path d="M727.52 292.46L732.3 296.95L737.69 290.45" stroke="#071146" stroke-width="3" stroke-linecap="round" stroke-linejoin="round"/>
<path d="M743.51 273.19H761.13" stroke="#071146" stroke-width="3" stroke-linecap="round" stroke-linejoin="round"/>
<path d="M743.51 284.76H761.13" stroke="#071146" stroke-width="3" stroke-linecap="round" stroke-linejoin="round"/>
<path d="M743.51 296.32H761.13" stroke="#071146" stroke-width="3" stroke-linecap="round" stroke-linejoin="round"/>
<path d="M642.57 158.69L654.59 170.71" stroke="white" stroke-width="2" stroke-linecap="round" stroke-linejoin="round"/>
<path d="M654.59 158.69L642.57 170.71" stroke="white" stroke-width="2" stroke-linecap="round" stroke-linejoin="round"/>
<path d="M738.95 113.06L750.97 125.08" stroke="white" stroke-width="2" stroke-linecap="round" stroke-linejoin="round"/>
<path d="M750.97 113.06L738.95 125.08" stroke="white" stroke-width="2" stroke-linecap="round" stroke-linejoin="round"/>
<path d="M825.07 235.9L837.09 247.92" stroke="white" stroke-width="2" stroke-linecap="round" stroke-linejoin="round"/>
<path d="M837.09 235.9L825.07 247.92" stroke="white" stroke-width="2" stroke-linecap="round" stroke-linejoin="round"/>
<path d="M374.7 172.24H428.24" stroke="white" stroke-width="2" stroke-linecap="round" stroke-linejoin="round"/>
<path d="M421.61 180.42L420.25 178.95L427.47 172.24L420.25 165.52L421.61 164.06L430.4 172.24L421.61 180.42Z" fill="white"/>
<path d="M374.7 195.36H446.91" stroke="white" stroke-width="2" stroke-linecap="round" stroke-linejoin="round"/>
<path d="M440.29 203.54L438.92 202.08L446.15 195.37L438.92 188.65L440.29 187.19L449.08 195.37L440.29 203.54Z" fill="white"/>
<path d="M374.7 218.49H428.24" stroke="white" stroke-width="2" stroke-linecap="round" stroke-linejoin="round"/>
<path d="M421.61 226.67L420.25 225.21L427.47 218.49L420.25 211.78L421.61 210.31L430.4 218.49L421.61 226.67Z" fill="white"/>
</g>
<defs>
<clipPath id="clip0">
<rect width="1042.45" height="323.34" fill="white"/>
</clipPath>
</defs>
</svg>
