<svg width="102" height="88" viewBox="0 0 102 88" fill="none" xmlns="http://www.w3.org/2000/svg">
<g clip-path="url(#clip0)">
<path d="M92.2001 29.1H42.8001C37.7001 29.1 33.6001 33.2 33.6001 38.3V64.6C33.6001 69.7 37.7001 73.8 42.8001 73.8H76.5001L90.5001 87.3L90.6001 73.8H92.2001C97.3001 73.8 101.4 69.7 101.4 64.6V38.3C101.4 33.2 97.3001 29.1 92.2001 29.1ZM89.2001 63H44.9001C43.7001 63 42.7001 62 42.7001 60.8C42.7001 59.6 43.7001 58.6 44.9001 58.6H89.2001C90.4001 58.6 91.4001 59.6 91.4001 60.8C91.4001 62 90.4001 63 89.2001 63ZM89.2001 54.1H44.9001C43.7001 54.1 42.7001 53.1 42.7001 51.9C42.7001 50.7 43.7001 49.7 44.9001 49.7H89.2001C90.4001 49.7 91.4001 50.7 91.4001 51.9C91.4001 53.1 90.4001 54.1 89.2001 54.1ZM89.2001 45.2H44.9001C43.7001 45.2 42.7001 44.2 42.7001 43C42.7001 41.8 43.7001 40.8 44.9001 40.8H89.2001C90.4001 40.8 91.4001 41.8 91.4001 43C91.4001 44.2 90.4001 45.2 89.2001 45.2Z" fill="#B1DEF5"/>
<path d="M9.7 45.2H11.3L11.4 58.7L25.4 45.2H59.1C64.2 45.2 68.3 41.1 68.3 36V9.7C68.3 4.6 64.2 0.5 59.1 0.5H9.7C4.6 0.5 0.5 4.6 0.5 9.7V36C0.5 41.1 4.6 45.2 9.7 45.2Z" fill="white"/>
<path d="M33.6 29.9C33.3 29.9 33.1 29.8 33 29.6C32.8 29.4 32.7 29.2 32.7 28.9C32.7 28.1 32.9 27.2 33.3 26.3C33.7 25.4 34.2 24.6 34.8 24C35.5 23.3 36.1 22.7 36.7 22.1C37.3 21.5 37.8 20.9 38.2 20.2C38.6 19.5 38.8 18.6 38.8 17.5C38.8 16.6 38.6 15.8 38.1 15.1C37.7 14.4 37 13.8 36.3 13.4C35.5 13 34.6 12.8 33.6 12.8C32.6 12.8 31.7 13 30.9 13.5C30.1 13.9 29.5 14.6 29.1 15.3C28.7 16.1 28.4 17 28.4 18C28.4 18.3 28.3 18.5 28.2 18.6C28 18.8 27.8 18.8 27.5 18.8C27.2 18.8 27 18.7 26.8 18.6C26.6 18.4 26.5 18.2 26.5 18C26.5 16.6 26.8 15.4 27.4 14.4C28 13.3 28.8 12.5 29.9 11.9C31 11.3 32.2 11 33.5 11C34.9 11 36.1 11.3 37.1 11.9C38.2 12.5 39 13.3 39.6 14.3C40.2 15.3 40.5 16.5 40.5 17.7C40.5 18.8 40.3 19.8 39.9 20.5C39.5 21.3 38.9 22 38.3 22.6C37.6 23.2 36.9 24 36.1 24.7C35.4 25.4 35 26.1 34.8 26.8C34.6 27.5 34.5 28.2 34.5 28.8C34.5 29.1 34.4 29.3 34.2 29.5C34.1 29.8 33.9 29.9 33.6 29.9ZM33.6 35C33.2 35 32.8 34.8 32.5 34.5C32.2 34.2 32.1 33.8 32.1 33.4C32.1 33 32.2 32.6 32.5 32.3C32.8 32 33.1 31.9 33.6 31.9C34 31.9 34.4 32 34.7 32.3C35 32.6 35.2 32.9 35.2 33.4C35.2 33.9 35 34.2 34.7 34.5C34.4 34.9 34 35 33.6 35Z" fill="#0052CC"/>
</g>
<defs>
<clipPath id="clip0">
<rect width="101.4" height="87.3" fill="white"/>
</clipPath>
</defs>
</svg>
