<svg width="96" height="35" viewBox="0 0 96 35" fill="none" xmlns="http://www.w3.org/2000/svg">
<path d="M1.35829 14.192C1.12647 14.192 0.894644 14.1347 0.720777 13.9629C0.546909 13.7911 0.488953 13.5621 0.488953 13.333V1.8802C0.488953 1.59388 0.546909 1.42209 0.720777 1.2503C0.894644 1.0785 1.12647 1.02124 1.35829 1.02124C1.70602 1.02124 1.93785 1.19303 2.16967 1.47935L7.55956 12.1305H7.03795L12.254 1.47935C12.4278 1.13577 12.7176 1.02124 13.0654 1.02124C13.2972 1.02124 13.529 1.0785 13.7029 1.2503C13.8767 1.42209 13.9347 1.65114 13.9347 1.8802V13.333C13.9347 13.5621 13.8188 13.7911 13.6449 13.9629C13.471 14.1347 13.2392 14.192 13.0074 14.192C12.7756 14.192 12.5437 14.1347 12.3699 13.9629C12.196 13.7911 12.1381 13.5621 12.1381 13.333V4.28529L12.4858 4.22803L7.96525 13.2757C7.79138 13.5621 7.5016 13.7339 7.21182 13.7339C6.80613 13.7339 6.57431 13.5621 6.40044 13.2185L1.93785 4.39982L2.28558 4.34255V13.333C2.28558 13.5621 2.22762 13.7911 2.05376 13.9629C1.87989 14.1347 1.64807 14.192 1.35829 14.192Z" fill="#071146"/>
<path d="M21.0633 14.2492C20.2519 14.2492 19.4985 14.0202 18.803 13.6193C18.1655 13.2185 17.6439 12.6458 17.2382 11.9587C16.8325 11.2715 16.6586 10.4698 16.6586 9.55356C16.6586 8.63734 16.8904 7.83564 17.2961 7.14847C17.7018 6.4613 18.2814 5.88866 18.9769 5.48781C19.6723 5.08697 20.4837 4.85791 21.411 4.85791C22.3383 4.85791 23.0917 5.08697 23.7872 5.48781C24.4827 5.88866 25.0622 6.4613 25.4679 7.14847C25.8736 7.83564 26.1054 8.63734 26.1054 9.55356H25.4679C25.4679 10.4698 25.294 11.2715 24.8883 11.9587C24.4827 12.6458 23.9611 13.2185 23.3235 13.6193C22.6281 14.0774 21.8746 14.2492 21.0633 14.2492ZM21.411 12.7603C21.9906 12.7603 22.5122 12.6458 22.9758 12.3595C23.4394 12.0732 23.7872 11.7296 24.077 11.2142C24.3667 10.6988 24.4827 10.1835 24.4827 9.61083C24.4827 8.98092 24.3667 8.46555 24.077 7.95017C23.7872 7.49206 23.4394 7.09121 22.9758 6.80489C22.5122 6.51857 21.9906 6.40404 21.411 6.40404C20.8314 6.40404 20.3098 6.51857 19.8462 6.80489C19.3826 7.09121 19.0348 7.43479 18.745 7.95017C18.4553 8.40828 18.3393 8.98092 18.3393 9.61083C18.3393 10.1835 18.4553 10.7561 18.745 11.2142C19.0348 11.6723 19.3826 12.0732 19.8462 12.3595C20.3098 12.5886 20.8314 12.7603 21.411 12.7603ZM25.2361 14.192C25.0043 14.192 24.7724 14.1347 24.5986 13.9629C24.4247 13.7911 24.3667 13.6193 24.3667 13.333V10.7561L24.7145 8.98092L26.1634 9.61083V13.333C26.1634 13.562 26.1054 13.7911 25.9315 13.9629C25.6997 14.1347 25.4679 14.192 25.2361 14.192Z" fill="#071146"/>
<path d="M32.1328 14.2492C31.3214 14.2492 30.568 14.1347 29.9305 13.9056C29.235 13.6766 28.7134 13.333 28.3657 12.9894C28.1918 12.8176 28.1339 12.5886 28.1339 12.3595C28.1339 12.1304 28.2498 11.9587 28.4816 11.7869C28.7134 11.6151 28.9453 11.5578 29.1771 11.5578C29.4089 11.5578 29.5828 11.6723 29.7566 11.8441C29.9305 12.0732 30.2782 12.245 30.6839 12.474C31.0896 12.6458 31.6112 12.7603 32.1328 12.7603C32.7703 12.7603 33.2919 12.6458 33.6397 12.4168C33.9874 12.1877 34.1613 11.9014 34.1613 11.6151C34.1613 11.2715 33.9874 10.9852 33.6976 10.7561C33.3499 10.5271 32.7703 10.298 31.843 10.1262C30.6839 9.89715 29.8725 9.55356 29.3509 9.09545C28.8293 8.63734 28.5975 8.0647 28.5975 7.43479C28.5975 6.86215 28.7714 6.40404 29.1191 6.00319C29.4669 5.60234 29.9305 5.31602 30.4521 5.14423C30.9737 4.97244 31.5533 4.85791 32.1328 4.85791C32.8862 4.85791 33.5817 4.97244 34.1613 5.20149C34.7408 5.43055 35.2045 5.77413 35.5522 6.17498C35.7261 6.34678 35.784 6.51857 35.784 6.74762C35.784 6.91942 35.6681 7.09121 35.4943 7.263C35.3204 7.37753 35.0886 7.43479 34.8567 7.37753C34.6249 7.32026 34.3931 7.20574 34.2192 7.09121C33.9295 6.80489 33.6397 6.6331 33.2919 6.51857C32.9442 6.40404 32.5965 6.34677 32.1328 6.34677C31.6112 6.34677 31.2055 6.40404 30.8578 6.57583C30.5101 6.74762 30.3362 6.97668 30.3362 7.32026C30.3362 7.54932 30.3941 7.72111 30.5101 7.8929C30.626 8.0647 30.8578 8.17922 31.1476 8.35102C31.4953 8.46554 31.959 8.58007 32.5385 8.75187C33.4078 8.92366 34.0454 9.15271 34.567 9.38177C35.0886 9.66809 35.4363 9.95441 35.6102 10.298C35.842 10.6416 35.9579 11.0424 35.9579 11.5005C35.9579 12.0159 35.842 12.474 35.5522 12.9321C35.2624 13.333 34.8567 13.6766 34.3351 13.9056C33.6397 14.1347 32.9442 14.2492 32.1328 14.2492Z" fill="#071146"/>
<path d="M41.4636 14.2492C40.6523 14.2492 39.8988 14.1347 39.2613 13.9056C38.5659 13.6766 38.0443 13.333 37.6965 12.9894C37.5227 12.8176 37.4647 12.5886 37.4647 12.3595C37.4647 12.1304 37.5806 11.9587 37.8124 11.7869C38.0443 11.6151 38.2761 11.5578 38.5079 11.5578C38.7397 11.5578 38.9136 11.6723 39.0875 11.8441C39.2613 12.0732 39.6091 12.245 40.0147 12.474C40.4204 12.6458 40.942 12.7603 41.4636 12.7603C42.1011 12.7603 42.6227 12.6458 42.9705 12.4168C43.3182 12.1877 43.4921 11.9014 43.4921 11.6151C43.4921 11.2715 43.3182 10.9852 43.0284 10.7561C42.6807 10.5271 42.1011 10.298 41.1739 10.1262C40.0147 9.89715 39.2034 9.55356 38.6818 9.09545C38.1602 8.63734 37.9283 8.0647 37.9283 7.43479C37.9283 6.86215 38.1022 6.40404 38.4499 6.00319C38.7977 5.60234 39.2613 5.31602 39.7829 5.14423C40.3045 4.97244 40.8841 4.85791 41.4636 4.85791C42.2171 4.85791 42.9125 4.97244 43.4921 5.20149C44.0716 5.43055 44.5353 5.77413 44.883 6.17498C45.0569 6.34678 45.1148 6.51857 45.1148 6.74762C45.1148 6.91942 44.9989 7.09121 44.8251 7.263C44.6512 7.37753 44.4194 7.43479 44.1876 7.37753C43.9557 7.32026 43.7239 7.20574 43.55 7.09121C43.2603 6.80489 42.9705 6.6331 42.6227 6.51857C42.275 6.40404 41.9273 6.34677 41.4636 6.34677C40.942 6.34677 40.5363 6.40404 40.1886 6.57583C39.8409 6.74762 39.667 6.97668 39.667 7.32026C39.667 7.54932 39.725 7.72111 39.8409 7.8929C39.9568 8.0647 40.1886 8.17922 40.4784 8.35102C40.8261 8.46554 41.2898 8.58007 41.8693 8.75187C42.7387 8.92366 43.3762 9.15271 43.8978 9.38177C44.4194 9.66809 44.7671 9.95441 44.941 10.298C45.1728 10.6416 45.2887 11.0424 45.2887 11.5005C45.2887 12.0159 45.1728 12.474 44.883 12.9321C44.5932 13.333 44.1875 13.6766 43.6659 13.9056C42.9125 14.1347 42.275 14.2492 41.4636 14.2492Z" fill="#071146"/>
<path d="M48.1865 14.192C47.8967 14.192 47.7229 14.1347 47.549 13.9629C47.3751 13.7911 47.3172 13.6193 47.3172 13.333V5.77413C47.3172 5.48781 47.3751 5.31602 47.549 5.14423C47.7229 4.97244 47.8967 4.91517 48.1865 4.91517C48.4763 4.91517 48.7081 4.97244 48.824 5.14423C48.9399 5.25876 49.0558 5.48781 49.0558 5.77413V13.333C49.0558 13.6193 48.9979 13.7911 48.824 13.9629C48.7081 14.1347 48.4763 14.192 48.1865 14.192ZM48.1865 8.40828C48.1865 7.72111 48.3604 7.14847 48.7081 6.57583C49.0558 6.06046 49.5195 5.60234 50.099 5.31602C50.6786 4.97244 51.3161 4.85791 52.0116 4.85791C52.707 4.85791 53.2286 4.97244 53.5184 5.20149C53.8662 5.43055 53.9821 5.65961 53.9241 6.00319C53.8662 6.17498 53.8082 6.28951 53.7502 6.34677C53.6923 6.40404 53.5184 6.4613 53.4025 6.51857C53.2866 6.51857 53.1127 6.51857 52.9968 6.51857C52.2434 6.34678 51.6059 6.34678 51.0263 6.4613C50.4468 6.57583 49.9831 6.80489 49.6354 7.14847C49.2877 7.49206 49.1138 7.8929 49.1138 8.40828H48.1865Z" fill="#071146"/>
<path d="M59.372 14.2491C58.4447 14.2491 57.5753 14.0773 56.8219 13.6192C56.0685 13.2184 55.4889 12.6457 55.0832 11.9585C54.6776 11.2714 54.4457 10.4697 54.4457 9.55345C54.4457 8.63723 54.6196 7.83553 55.0253 7.0911C55.431 6.40393 55.9526 5.83129 56.648 5.43044C57.3435 5.02959 58.1549 4.80054 59.0242 4.80054C59.8936 4.80054 60.7049 4.97233 61.3425 5.37318C61.98 5.77403 62.4436 6.2894 62.7913 6.97657C63.1391 7.66374 63.313 8.46544 63.313 9.3244C63.313 9.55345 63.255 9.72525 63.0811 9.83977C62.9073 9.9543 62.7334 10.0688 62.5016 10.0688H55.6048V8.69449H62.5595L61.8641 9.15261C61.8641 8.57996 61.7481 8.06459 61.5163 7.66374C61.2845 7.20563 60.9947 6.86204 60.589 6.63299C60.1833 6.34667 59.7197 6.23214 59.1401 6.23214C58.5026 6.23214 57.9231 6.34667 57.4594 6.63299C56.9958 6.91931 56.648 7.32015 56.4162 7.77827C56.1844 8.29364 56.0685 8.80902 56.0685 9.43893C56.0685 10.0688 56.1844 10.6415 56.4742 11.0996C56.764 11.5577 57.1696 11.9585 57.6333 12.2449C58.1549 12.5312 58.7344 12.6457 59.372 12.6457C59.7197 12.6457 60.0674 12.5884 60.4731 12.4739C60.8208 12.3594 61.1686 12.1876 61.4004 12.0158C61.5743 11.9013 61.7481 11.844 61.98 11.844C62.1538 11.844 62.3277 11.9013 62.5016 12.0158C62.6754 12.1876 62.7913 12.3594 62.7913 12.5884C62.7913 12.8175 62.7334 12.9893 62.5016 13.1038C62.0959 13.3901 61.6322 13.6765 61.0527 13.8483C60.4731 14.1918 59.9515 14.2491 59.372 14.2491Z" fill="#071146"/>
<path d="M69.2245 14.2492C68.4131 14.2492 67.6597 14.0202 66.9642 13.6193C66.3267 13.2185 65.8051 12.6458 65.3994 11.9587C64.9937 11.2715 64.8198 10.4698 64.8198 9.55356C64.8198 8.63734 65.0517 7.83564 65.4573 7.14847C65.863 6.4613 66.4426 5.88866 67.1381 5.48781C67.8335 5.08697 68.6449 4.85791 69.5722 4.85791C70.4995 4.85791 71.2529 5.08697 71.9484 5.48781C72.6438 5.88866 73.2234 6.4613 73.6291 7.14847C74.0348 7.83564 74.2666 8.63734 74.2666 9.55356H73.5711C73.5711 10.4698 73.3973 11.2715 72.9916 11.9587C72.5859 12.6458 72.0643 13.2185 71.4268 13.6193C70.7893 14.0774 70.0358 14.2492 69.2245 14.2492ZM69.5722 12.7603C70.1518 12.7603 70.6734 12.6458 71.137 12.3595C71.6006 12.0732 71.9484 11.7296 72.2382 11.2142C72.5279 10.6988 72.6438 10.1835 72.6438 9.61083C72.6438 8.98092 72.5279 8.46555 72.2382 7.95017C71.9484 7.49206 71.6006 7.09121 71.137 6.80489C70.6734 6.51857 70.1518 6.40404 69.5722 6.40404C68.9926 6.40404 68.471 6.51857 68.0074 6.80489C67.5437 7.09121 67.196 7.43479 66.9062 7.95017C66.6165 8.40828 66.5006 8.98092 66.5006 9.61083C66.5006 10.1835 66.6165 10.7561 66.9062 11.2142C67.196 11.6723 67.5437 12.0732 68.0074 12.3595C68.471 12.5886 68.9926 12.7603 69.5722 12.7603ZM73.3973 14.192C73.1654 14.192 72.9336 14.1347 72.7598 13.9629C72.5859 13.7911 72.5279 13.6193 72.5279 13.333V10.7561L72.8757 8.98092L74.3246 9.61083V13.333C74.3246 13.562 74.2666 13.7911 74.0927 13.9629C73.8609 14.1347 73.6291 14.192 73.3973 14.192Z" fill="#071146"/>
<path d="M81.1054 14.2491C80.1781 14.2491 79.3667 14.02 78.6713 13.6192C77.9758 13.2184 77.3962 12.6457 76.9905 11.9585C76.5849 11.2714 76.353 10.4697 76.353 9.55345C76.353 8.63723 76.5269 7.83553 76.9326 7.0911C77.3383 6.40393 77.8599 5.83129 78.5554 5.43044C79.2508 5.02959 80.0622 4.80054 80.9316 4.80054C81.627 4.80054 82.2066 4.91506 82.7861 5.20138C83.3657 5.43044 83.8293 5.83129 84.293 6.34667C84.4669 6.51846 84.5248 6.69025 84.4668 6.91931C84.4089 7.0911 84.293 7.26289 84.0612 7.43468C83.8873 7.54921 83.7134 7.60648 83.5396 7.54921C83.3657 7.49195 83.1918 7.43468 83.0179 7.26289C82.4384 6.69025 81.7429 6.40393 80.9316 6.40393C80.352 6.40393 79.8304 6.51846 79.3667 6.80478C78.9031 7.0911 78.5554 7.43468 78.3235 7.8928C78.0917 8.35091 77.9178 8.92355 77.9178 9.55345C77.9178 10.1834 78.0338 10.6987 78.3235 11.1568C78.5554 11.615 78.961 12.0158 79.3667 12.3021C79.8304 12.5884 80.352 12.703 80.9895 12.703C81.3952 12.703 81.7429 12.6457 82.0327 12.5312C82.3225 12.4167 82.6123 12.3021 82.8441 12.0731C83.018 11.9013 83.1918 11.844 83.4236 11.844C83.5975 11.844 83.7714 11.9013 83.9452 12.0158C84.1191 12.1876 84.235 12.3594 84.293 12.5312C84.293 12.703 84.235 12.932 84.0612 13.0466C83.3657 13.9055 82.3804 14.2491 81.1054 14.2491Z" fill="#071146"/>
<path d="M88.06 10.8133C87.8282 10.8133 87.5964 10.756 87.4225 10.5842C87.2487 10.4124 87.1907 10.2406 87.1907 9.95432V1.82283C87.1907 1.53651 87.2487 1.36472 87.4225 1.19292C87.5964 1.02113 87.7703 0.963867 88.06 0.963867C88.3498 0.963867 88.5237 1.02113 88.6976 1.19292C88.8714 1.36472 88.9294 1.53651 88.9294 1.82283V9.95432C88.9294 10.1834 88.8714 10.4124 88.6976 10.5842C88.5237 10.756 88.2919 10.8133 88.06 10.8133ZM88.06 14.1919C87.8282 14.1919 87.5964 14.1346 87.4225 13.9628C87.2487 13.791 87.1907 13.6192 87.1907 13.3329V5.77405C87.1907 5.48773 87.2487 5.31594 87.4225 5.14414C87.5964 4.97235 87.7703 4.91509 88.06 4.91509C88.3498 4.91509 88.5237 4.97235 88.6976 5.14414C88.8714 5.31594 88.9294 5.48773 88.9294 5.77405V13.3329C88.9294 13.562 88.8714 13.791 88.6976 13.9628C88.5237 14.1346 88.2919 14.1919 88.06 14.1919ZM95.0727 14.1919C94.8409 14.1919 94.6091 14.1346 94.4352 13.9628C94.2613 13.791 94.2034 13.6192 94.2034 13.3329V9.15263C94.2034 8.52272 94.0875 8.00735 93.8556 7.54923C93.6238 7.09112 93.2761 6.86206 92.8704 6.63301C92.4647 6.46122 92.001 6.34669 91.4794 6.34669C91.0158 6.34669 90.5522 6.46122 90.2044 6.63301C89.7987 6.8048 89.5089 7.09112 89.2771 7.37744C89.0453 7.72103 88.9294 8.06461 88.9294 8.46546H87.8282C87.8282 7.77829 88.0021 7.09112 88.3498 6.57574C88.6976 6.0031 89.1612 5.54499 89.7987 5.25867C90.3783 4.91509 91.0738 4.74329 91.8272 4.74329C92.6386 4.74329 93.334 4.91509 93.9715 5.25867C94.6091 5.60225 95.0727 6.06037 95.4204 6.74754C95.7682 7.37744 95.942 8.17914 95.942 9.09536V13.3329C95.942 13.562 95.8841 13.791 95.7102 13.9628C95.5364 14.1346 95.3625 14.1919 95.0727 14.1919Z" fill="#071146"/>
<path d="M1.35829 34.5206C1.12647 34.5206 0.894644 34.4633 0.720777 34.2915C0.546909 34.1197 0.488953 33.8907 0.488953 33.6616V22.2088C0.488953 21.9225 0.546909 21.7507 0.720777 21.5789C0.894644 21.4071 1.12647 21.3499 1.35829 21.3499H5.47315C6.22658 21.3499 6.92205 21.5216 7.5016 21.808C8.08116 22.0943 8.5448 22.4951 8.89254 23.0678C9.24027 23.5832 9.41415 24.2131 9.41415 24.9002C9.41415 25.4729 9.24028 25.931 8.9505 26.3891C8.66072 26.8472 8.25503 27.1908 7.73342 27.4198C8.48685 27.5916 9.06641 27.9352 9.53006 28.5079C9.9937 29.0232 10.2255 29.7104 10.2255 30.5694C10.2255 31.3711 10.0517 32.0582 9.64597 32.6309C9.29823 33.2035 8.77663 33.7189 8.08116 34.0625C7.44365 34.4061 6.63227 34.5779 5.82089 34.5779H1.35829V34.5206ZM2.28558 26.7327H5.47315C6.11066 26.7327 6.63227 26.5609 7.09591 26.2746C7.50161 25.931 7.73342 25.4729 7.73342 24.843C7.73342 24.2131 7.50161 23.6977 7.09591 23.4114C6.69022 23.125 6.16862 22.9532 5.47315 22.9532H2.28558V26.7327ZM2.28558 32.9172H5.87884C6.40044 32.9172 6.86409 32.8027 7.26978 32.6309C7.67547 32.4591 7.96525 32.1728 8.19707 31.8292C8.42889 31.4856 8.54481 31.0275 8.54481 30.5121C8.54481 30.054 8.42889 29.6531 8.19707 29.3096C7.96525 28.966 7.67547 28.7369 7.26978 28.5651C6.86409 28.3933 6.40044 28.3361 5.87884 28.3361H2.28558V32.9172Z" fill="#071146"/>
<path d="M16.9484 34.578C16.0211 34.578 15.2097 34.4062 14.5142 33.9481C13.8188 33.5472 13.2392 32.9746 12.8335 32.2874C12.4278 31.6002 12.196 30.7985 12.196 29.8823C12.196 28.9661 12.4278 28.1644 12.8335 27.42C13.2392 26.7328 13.8188 26.1601 14.5142 25.7593C15.2097 25.3585 16.0211 25.1294 16.9484 25.1294C17.8757 25.1294 18.6871 25.3585 19.3825 25.7593C20.078 26.1601 20.6576 26.7328 21.0632 27.42C21.4689 28.1071 21.7008 28.9661 21.7008 29.8823C21.7008 30.7985 21.5269 31.6002 21.1212 32.2874C20.7155 32.9746 20.1939 33.5472 19.4405 33.9481C18.6871 34.4062 17.8757 34.578 16.9484 34.578ZM16.9484 33.0891C17.5279 33.0891 18.0495 32.9746 18.5132 32.6883C18.9768 32.4019 19.3246 32.0583 19.5564 31.543C19.7882 31.0849 19.9621 30.5122 19.9621 29.8823C19.9621 29.2524 19.8462 28.737 19.5564 28.2217C19.3246 27.7635 18.9189 27.3627 18.5132 27.0764C18.0495 26.7901 17.5279 26.6755 16.9484 26.6755C16.3688 26.6755 15.8472 26.7901 15.3836 27.0764C14.9199 27.3627 14.5722 27.7063 14.2824 28.2217C13.9926 28.6798 13.8767 29.2524 13.8767 29.8823C13.8767 30.5122 13.9926 31.0276 14.2824 31.543C14.5722 32.0011 14.9199 32.4019 15.3836 32.6883C15.8472 32.9173 16.3688 33.0891 16.9484 33.0891Z" fill="#071146"/>
<path d="M29.9884 34.5207C29.8725 34.5207 29.7566 34.5207 29.6407 34.4634C29.5248 34.4061 29.4668 34.3489 29.3509 34.2344L26.3372 30.684L25.6997 30.0541L22.744 26.561C22.5701 26.3892 22.5121 26.1601 22.5121 25.9883C22.5121 25.7593 22.5701 25.5875 22.686 25.473C22.8019 25.3012 22.9758 25.2439 23.2656 25.2439C23.5554 25.2439 23.7292 25.3584 23.9031 25.5302L26.8588 28.9661L27.3225 29.3669L30.568 33.2036C30.7419 33.4327 30.7998 33.6045 30.7998 33.8335C30.7998 34.0053 30.7419 34.1771 30.568 34.3489C30.3941 34.4634 30.2203 34.5207 29.9884 34.5207ZM23.4394 34.5207C23.2076 34.5207 23.0338 34.4634 22.9178 34.2916C22.8019 34.1771 22.744 34.0053 22.744 33.7762C22.744 33.5472 22.8019 33.3754 22.9758 33.1463L25.8736 29.5387L26.8009 30.7985L24.077 34.1771C23.9031 34.4061 23.6713 34.5207 23.4394 34.5207ZM27.6702 30.1686L26.5111 29.1951L29.293 25.5875C29.4089 25.473 29.4668 25.4157 29.5827 25.3584C29.6987 25.3012 29.8146 25.3012 29.9305 25.3012C30.1623 25.3012 30.3941 25.3584 30.51 25.5302C30.6259 25.702 30.6839 25.8738 30.6839 26.1029C30.6839 26.3319 30.568 26.5037 30.4521 26.7328L27.6702 30.1686Z" fill="#071146"/>
</svg>
