<svg width="55" height="54" viewBox="0 0 55 54" fill="none" xmlns="http://www.w3.org/2000/svg">
<path d="M27.2392 54C27.0074 54 26.7756 53.9427 26.5437 53.8854L21.6175 51.9385C20.6322 51.5376 20.1686 50.4496 20.5743 49.4761C20.98 48.5026 22.0811 48.0445 23.0664 48.4453L25.3267 49.3616V23.5928L3.88303 14.8314V40.7147L6.72287 41.86C7.70811 42.2608 8.17176 43.3489 7.76607 44.3223C7.36038 45.2958 6.25922 45.7539 5.27397 45.3531L1.21707 43.7497C0.463646 43.4634 0 42.7762 0 41.9745V12.0254C0 11.3955 0.347734 10.8229 0.869336 10.422C1.39094 10.0784 2.08641 10.0212 2.66596 10.2502L27.9347 20.5578C28.6301 20.8441 29.1517 21.5312 29.1517 22.3329V52.1102C29.1517 52.7402 28.862 53.3128 28.2824 53.6564C27.9347 53.8854 27.5869 54 27.2392 54Z" fill="#0052CC"/>
<path d="M27.2392 54C26.8335 54 26.4857 53.8854 26.138 53.6564C25.6164 53.3128 25.2687 52.7402 25.2687 52.1102V22.3329C25.2687 21.5885 25.7323 20.8441 26.4857 20.5578L51.7544 10.2502C52.334 10.0212 53.0295 10.0784 53.5511 10.422C54.0727 10.7656 54.4204 11.3382 54.4204 12.0254V42.0318C54.4204 42.8335 53.9568 43.5206 53.2033 43.807L48.9146 45.5249C47.9294 45.9257 46.8282 45.4676 46.4225 44.4941C46.0168 43.5206 46.4805 42.4326 47.4657 42.0318L50.5953 40.772V14.8314L29.1517 23.5928V49.3043L31.1222 48.5026C32.1075 48.1018 33.2086 48.5599 33.6143 49.5334C34.02 50.5069 33.5563 51.5949 32.5711 51.9957L27.9346 53.8282C27.7028 53.9427 27.471 54 27.2392 54Z" fill="#0052CC"/>
<path d="M18.2561 7.38697C17.5027 7.38697 16.7492 6.92886 16.4595 6.18443C16.0538 5.21094 16.5174 4.12292 17.5027 3.72207L26.4858 0.11444C26.9495 -0.0573523 27.4711 -0.0573523 27.9347 0.11444L36.744 3.60755C37.7292 4.0084 38.1929 5.09641 37.7872 6.0699C37.3815 7.04339 36.2803 7.5015 35.2951 7.10065L27.2392 3.95113L19.0095 7.27245C18.7197 7.32971 18.4879 7.38697 18.2561 7.38697Z" fill="#0052CC"/>
</svg>
