<svg width="585" height="273" viewBox="0 0 585 273" fill="none" xmlns="http://www.w3.org/2000/svg">
<g clip-path="url(#clip0)">
<path d="M585 60.9H4.4C2 60.9 0 62.9 0 65.3V268.6C0 271 2 273 4.4 273H585V60.9Z" fill="#FEDB8F"/>
<path d="M484.3 132.3C484.3 83 465.8 36.6 432.1 0.899998H431.4C465.3 36.5 483.8 82.9 483.8 132.3C483.8 183.3 464 231.2 427.9 267.2C425.9 269.2 423.9 271.1 421.8 273H422.6C424.5 271.2 426.4 269.4 428.2 267.6C464.4 231.4 484.3 183.4 484.3 132.3Z" fill="white"/>
<path d="M102.3 132.3C102.3 83 120.9 36.5 154.7 0.899998H154C120.3 36.6 101.8 83 101.8 132.3C101.8 183.4 121.7 231.4 157.8 267.6C159.6 269.4 161.5 271.2 163.4 273H164.2C162.1 271.1 160.1 269.2 158.1 267.2C122.1 231.1 102.3 183.2 102.3 132.3Z" fill="white"/>
<path d="M95.8 49C84.6 75.4 79 103.4 79 132.3C79 156.9 83.1 180.9 91.2 203.7C91.4 203.6 91.6 203.6 91.8 203.5C83.7 180.7 79.6 156.8 79.6 132.3C79.6 103.5 85.2 75.5 96.4 49.2C103.7 31.8 113.3 15.7 124.8 0.899998H124C112.5 15.6 103.1 31.7 95.8 49Z" fill="white"/>
<path d="M95.8999 215.7C104.8 236.6 116.8 255.8 131.7 272.9H132.5C117.5 255.8 105.3 236.5 96.3999 215.5C96.1999 215.6 95.9999 215.7 95.8999 215.7Z" fill="white"/>
<path d="M489.7 49.2C500.8 75.5 506.5 103.5 506.5 132.3C506.5 135.5 506.4 138.6 506.3 141.7C506.5 141.7 506.7 141.7 506.9 141.7C507 138.6 507.1 135.4 507.1 132.3C507.1 103.4 501.4 75.4 490.3 49C483 31.7 473.5 15.7 462.1 1H461.3C472.8 15.7 482.4 31.8 489.7 49.2Z" fill="white"/>
<path d="M505.9 154.5C505.7 154.5 505.5 154.4 505.3 154.4C503.2 175.4 497.9 195.9 489.6 215.4C480.7 236.5 468.5 255.8 453.5 273H454.3C469.3 255.9 481.3 236.7 490.2 215.7C498.5 196 503.8 175.5 505.9 154.5Z" fill="white"/>
<path d="M399.7 25.6C413.6 39.5 424.4 55.6 432 73.5C435.2 81.1 437.8 88.9 439.7 96.8C439.8 96.8 440 96.8 440.1 96.7C438.2 88.7 435.6 80.9 432.4 73.3C424.8 55.3 413.9 39.1 400 25.2C390.4 15.6 379.7 7.4 368.1 0.799999H367.2C379 7.6 389.9 15.9 399.7 25.6Z" fill="white"/>
<path d="M186.1 25.3C172.2 39.2 161.3 55.4 153.7 73.4C152 77.4 150.5 81.5 149.1 85.7C149.2 85.7 149.4 85.8 149.5 85.8C150.8 81.7 152.3 77.6 154 73.6C161.6 55.6 172.5 39.5 186.3 25.7C196 16 206.9 7.7 218.8 1H218C206.4 7.6 195.7 15.7 186.1 25.3Z" fill="white"/>
<path d="M186.4 238.9C172.5 225 161.7 208.9 154.1 191C146.2 172.4 142.2 152.7 142.2 132.3C142.2 120.7 143.5 109.3 146.1 98.2C146 98.2 145.8 98.1 145.7 98.1C143.1 109.2 141.8 120.7 141.8 132.3C141.8 152.7 145.8 172.5 153.7 191.2C161.3 209.2 172.2 225.4 186.1 239.3C200 253.2 216.2 264.1 234.2 271.7C235.3 272.1 236.3 272.6 237.4 273H238.6C237.2 272.5 235.8 271.9 234.4 271.3C216.4 263.7 200.2 252.8 186.4 238.9Z" fill="white"/>
<path d="M400 239.2C413.9 225.3 424.8 209.1 432.4 191.1C440.3 172.5 444.3 152.6 444.3 132.2C444.3 124.5 443.7 116.9 442.6 109.3C442.5 109.3 442.3 109.4 442.2 109.4C443.3 116.9 443.9 124.5 443.9 132.2C443.9 152.6 439.9 172.3 432 190.9C424.4 208.9 413.5 225 399.7 238.8C385.8 252.7 369.7 263.5 351.8 271.1C350.4 271.7 349 272.3 347.6 272.8H348.8C349.9 272.4 350.9 271.9 352 271.5C369.9 264 386.1 253.1 400 239.2Z" fill="white"/>
<path d="M517.6 132.3C517.6 102 511.7 72.6 500 44.9C493.4 29.3 485.1 14.6 475.2 0.899998H474.4C484.3 14.6 492.7 29.4 499.4 45.1C511.1 72.7 517 102 517 132.3C517 162.5 511.1 191.9 499.4 219.5C491.2 238.9 480.5 256.8 467.3 273H468.1C481.1 256.8 491.8 239 500 219.7C511.6 192 517.6 162.6 517.6 132.3Z" fill="white"/>
<path d="M69.1 132.3C69.1 102.1 75 72.7 86.7 45.1C93.4 29.4 101.7 14.6 111.7 0.899998H110.9C101 14.5 92.8 29.2 86.1 44.9C74.4 72.6 68.5 102 68.5 132.3C68.5 162.6 74.4 192 86.1 219.7C94.2 239 104.9 256.8 118 273H118.8C105.7 256.8 94.9 238.8 86.7 219.5C75 191.8 69.1 162.5 69.1 132.3Z" fill="white"/>
<path d="M562.7 132.3C562.7 95.9 555.6 60.6 541.5 27.3C537.7 18.2 533.3 9.4 528.6 0.899998H527.7C532.5 9.5 536.9 18.4 540.8 27.6C554.8 60.8 562 96 562 132.3C562 168.6 554.9 203.8 540.9 237C535.6 249.5 529.4 261.5 522.4 273H523.3C530.3 261.6 536.4 249.7 541.6 237.3C555.6 204 562.7 168.7 562.7 132.3Z" fill="white"/>
<path d="M24.0998 132.3C24.0998 96 31.1998 60.8 45.1998 27.6C49.0998 18.4 53.4998 9.5 58.2998 0.899998H57.3998C52.5998 9.4 48.2998 18.2 44.4998 27.3C30.3998 60.5 23.2998 95.9 23.2998 132.3C23.2998 168.7 30.3998 204 44.4998 237.3C49.6998 249.7 55.8998 261.6 62.7998 273H63.6998C56.6998 261.5 50.4998 249.5 45.1998 237C31.1998 203.8 24.0998 168.6 24.0998 132.3Z" fill="white"/>
<path d="M536.9 182.6C536.7 182.6 536.4 182.5 536.2 182.4C532.9 198.3 528.1 213.8 521.7 228.9C515.1 244.4 507 259.1 497.6 272.9H498.4C507.8 259.2 515.8 244.6 522.3 229.2C528.8 214.1 533.7 198.5 536.9 182.6Z" fill="white"/>
<path d="M521.8 35.6C534.7 66.2 541.3 98.7 541.3 132.2C541.3 146.5 540.1 160.6 537.7 174.5C537.9 174.5 538.2 174.5 538.4 174.6C540.8 160.7 542 146.5 542 132.2C542 98.6 535.4 66 522.4 35.3C517.3 23.3 511.4 11.8 504.5 0.899998H503.7C510.6 12 516.7 23.5 521.8 35.6Z" fill="white"/>
<path d="M44.7 132.3C44.7 98.8 51.3 66.3 64.2 35.7C69.3 23.6 75.4 12 82.2 1H81.4C74.6 12 68.6 23.4 63.5 35.4C50.6 66.1 44 98.7 44 132.3C44 165.9 50.6 198.5 63.6 229.2C70.1 244.6 78.1 259.3 87.5 272.9H88.3C78.8 259.1 70.7 244.4 64.2 228.9C51.3 198.3 44.7 165.8 44.7 132.3Z" fill="white"/>
<path d="M96.4002 215.5C98.6002 214.5 100.1 212.2 100.1 209.7C100.1 206.1 97.2002 203.2 93.6002 203.2C92.9002 203.2 92.3002 203.3 91.7002 203.5C93.1002 207.5 94.6002 211.4 96.3002 215.3C96.4002 215.4 96.4002 215.5 96.4002 215.5Z" fill="#B1DEF5"/>
<path d="M91.2002 203.7C88.9002 204.7 87.2002 207 87.2002 209.7C87.2002 213.3 90.1002 216.2 93.7002 216.2C94.5002 216.2 95.2002 216.1 95.9002 215.8C95.9002 215.8 95.9002 215.7 95.8002 215.7C94.1002 211.7 92.6002 207.7 91.2002 203.7Z" fill="#B1DEF5"/>
<path d="M95.8002 215.6C95.8002 215.6 95.8002 215.7 95.9002 215.7C96.1002 215.6 96.3002 215.6 96.5002 215.5C96.5002 215.5 96.5002 215.4 96.4002 215.4C94.7002 211.5 93.2002 207.5 91.8002 203.6C91.6002 203.7 91.4002 203.7 91.2002 203.8C92.6002 207.7 94.1002 211.7 95.8002 215.6Z" fill="#B1DEF5"/>
<path d="M507.1 154.6C510.7 154.6 513.6 151.7 513.6 148.1C513.6 144.5 510.7 141.6 507.1 141.6C507 141.6 507 141.6 506.9 141.6C506.7 145.9 506.4 150.1 506 154.4C506.3 154.5 506.7 154.6 507.1 154.6Z" fill="#B1DEF5"/>
<path d="M500.6 148.1C500.6 151.1 502.6 153.6 505.3 154.3C505.7 150.1 506 145.9 506.2 141.7C503.1 142.1 500.6 144.8 500.6 148.1Z" fill="#B1DEF5"/>
<path d="M505.4 154.3C505.6 154.4 505.8 154.4 506 154.4C506.4 150.2 506.7 145.9 506.9 141.6C506.7 141.6 506.5 141.6 506.3 141.6C506.1 145.9 505.8 150.2 505.4 154.3Z" fill="#B1DEF5"/>
<path d="M536.9 174.6C534.7 175 533.2 177.1 533.6 179.3C533.9 180.8 534.9 181.9 536.3 182.4C536.8 179.8 537.3 177.2 537.8 174.6C537.4 174.6 537.2 174.6 536.9 174.6Z" fill="#B1DEF5"/>
<path d="M538.2 182.6C540.4 182.2 541.9 180.1 541.5 177.9C541.2 176.2 539.9 175 538.4 174.7C537.9 177.3 537.5 180 536.9 182.6C537.4 182.6 537.8 182.7 538.2 182.6Z" fill="#B1DEF5"/>
<path d="M536.3 182.4C536.5 182.5 536.7 182.5 537 182.6C537.5 180 538 177.3 538.5 174.7C538.3 174.7 538 174.6 537.8 174.6C537.3 177.2 536.8 179.8 536.3 182.4Z" fill="#B1DEF5"/>
<path d="M147.9 98.5C151.5 98.5 154.4 95.6 154.4 92C154.4 89 152.3 86.5 149.6 85.8C148.3 89.9 147.1 94 146.1 98.2C146.6 98.4 147.3 98.5 147.9 98.5Z" fill="#B1DEF5"/>
<path d="M147.9 85.6C144.3 85.6 141.4 88.5 141.4 92.1C141.4 94.9 143.2 97.2 145.6 98.1C146.6 93.9 147.7 89.8 149 85.7C148.7 85.6 148.3 85.6 147.9 85.6Z" fill="#B1DEF5"/>
<path d="M145.7 98.1C145.8 98.1 146 98.2 146.1 98.2C147.1 94 148.2 89.9 149.6 85.8C149.5 85.8 149.3 85.7 149.2 85.7C147.8 89.8 146.6 93.9 145.7 98.1Z" fill="#B1DEF5"/>
<path d="M434.6 103.2C434.6 106.8 437.5 109.7 441.1 109.7C441.5 109.7 441.9 109.7 442.2 109.6C441.6 105.3 440.7 101.1 439.7 97C436.8 97.5 434.6 100.1 434.6 103.2Z" fill="#B1DEF5"/>
<path d="M447.5 103.2C447.5 99.6 444.6 96.7 441 96.7C440.7 96.7 440.4 96.7 440.1 96.8C441.1 101 441.9 105.2 442.6 109.4C445.4 108.7 447.5 106.2 447.5 103.2Z" fill="#B1DEF5"/>
<path d="M442.1 109.5C442.2 109.5 442.4 109.4 442.5 109.4C441.9 105.1 441 100.9 440 96.8C439.9 96.8 439.7 96.8 439.6 96.9C440.7 101 441.5 105.3 442.1 109.5Z" fill="#B1DEF5"/>
<path d="M293.6 137.7C269.8 137.6 250.5 156.8 250.4 180.6V187.2C250.4 191.6 253.9 195.1 258.3 195.1L328.6 195.3C333 195.3 336.5 191.8 336.5 187.4V180.8C336.6 157.1 317.4 137.8 293.6 137.7Z" fill="#FCAA90"/>
<path d="M160.8 172.1L142.8 179.5C141.5 180 139.9 179.4 139.4 178.1L134.1 165.1C133.6 163.8 134.2 162.2 135.5 161.7L153.5 154.3C154.8 153.8 156.4 154.4 156.9 155.7L162.2 168.7C162.7 170 162.1 171.6 160.8 172.1Z" fill="white"/>
<path d="M132 166.9L145.2 168.5C146.7 168.7 148.2 168.1 149.2 166.9L157.4 156.5" stroke="#071146" stroke-width="2" stroke-miterlimit="10" stroke-linecap="round" stroke-linejoin="round"/>
<path d="M161.6 166.8L150.5 165.4" stroke="#071146" stroke-width="2" stroke-miterlimit="10" stroke-linecap="round" stroke-linejoin="round"/>
<path d="M143.1 168.5L136.2 177.2" stroke="#071146" stroke-width="2" stroke-miterlimit="10" stroke-linecap="round" stroke-linejoin="round"/>
<path d="M160.7 172.1L140.7 180.3C139.2 180.9 137.5 180.2 136.9 178.7L131 164.4C130.4 162.9 131.1 161.2 132.6 160.6L152.6 152.4C154.1 151.8 155.8 152.5 156.4 154L162.3 168.3C162.8 169.8 162.1 171.5 160.7 172.1Z" stroke="#071146" stroke-width="2" stroke-miterlimit="10" stroke-linecap="round" stroke-linejoin="round"/>
<path d="M74.7 24L62.5 15.7C61.6 15.1 61.3 13.8 62 12.9L68 4C68.6 3.1 69.9 2.8 70.8 3.5L83 11.8C83.9 12.4 84.2 13.7 83.5 14.6L77.5 23.5C76.9 24.4 75.7 24.6 74.7 24Z" fill="white"/>
<path d="M65.9004 3.6L70.4004 12.6C70.9004 13.6 72.0004 14.3 73.1004 14.4L83.2004 15.2" stroke="#071146" stroke-width="2" stroke-miterlimit="10" stroke-linecap="round" stroke-linejoin="round"/>
<path d="M78.5002 22.3L74.7002 14.7" stroke="#071146" stroke-width="2" stroke-miterlimit="10" stroke-linecap="round" stroke-linejoin="round"/>
<path d="M69.7002 11.3L61.2002 10.6" stroke="#071146" stroke-width="2" stroke-miterlimit="10" stroke-linecap="round" stroke-linejoin="round"/>
<path d="M74.7001 24L61.1001 14.8C60.1001 14.1 59.8001 12.7 60.5001 11.7L67.0001 2C67.7001 0.999998 69.1001 0.699998 70.1001 1.4L83.7001 10.6C84.7001 11.3 85.0002 12.7 84.3002 13.7L77.7001 23.4C77.1001 24.4 75.7001 24.6 74.7001 24Z" stroke="#071146" stroke-width="2" stroke-miterlimit="10" stroke-linecap="round" stroke-linejoin="round"/>
<path d="M470.8 39.5L455.6 46.6C454.5 47.1 453.1 46.6 452.6 45.5L447.5 34.5C447 33.4 447.5 32 448.6 31.5L463.8 24.4C464.9 23.9 466.3 24.4 466.8 25.5L471.9 36.5C472.4 37.6 472 39 470.8 39.5Z" fill="white"/>
<path d="M445.9 36.2L457.3 37C458.6 37.1 459.9 36.5 460.7 35.4L467.3 26.1" stroke="#071146" stroke-width="2" stroke-miterlimit="10" stroke-linecap="round" stroke-linejoin="round"/>
<path d="M471.3 34.9L461.7 34.2" stroke="#071146" stroke-width="2" stroke-miterlimit="10" stroke-linecap="round" stroke-linejoin="round"/>
<path d="M455.5 37.1L449.9 44.9" stroke="#071146" stroke-width="2" stroke-miterlimit="10" stroke-linecap="round" stroke-linejoin="round"/>
<path d="M470.7 39.5L453.8 47.4C452.6 48 451.1 47.4 450.5 46.2L444.8 34.1C444.2 32.9 444.8 31.4 446 30.8L462.9 22.9C464.1 22.3 465.6 22.9 466.2 24.1L471.9 36.2C472.5 37.4 472 38.9 470.7 39.5Z" stroke="#071146" stroke-width="2" stroke-miterlimit="10" stroke-linecap="round" stroke-linejoin="round"/>
<path d="M458.3 244L443.3 236.6C442.2 236.1 441.7 234.7 442.3 233.6L447.6 222.7C448.1 221.6 449.5 221.1 450.6 221.7L465.6 229.1C466.7 229.6 467.2 231 466.6 232.1L461.3 243C460.8 244 459.5 244.5 458.3 244Z" fill="white"/>
<path d="M445.2 222.4L451.7 231.8C452.4 232.9 453.7 233.5 455 233.4L466.4 232.7" stroke="#071146" stroke-width="2" stroke-miterlimit="10" stroke-linecap="round" stroke-linejoin="round"/>
<path d="M462.3 241.5L456.8 233.5" stroke="#071146" stroke-width="2" stroke-miterlimit="10" stroke-linecap="round" stroke-linejoin="round"/>
<path d="M450.6 230.5L441 231.1" stroke="#071146" stroke-width="2" stroke-miterlimit="10" stroke-linecap="round" stroke-linejoin="round"/>
<path d="M458.3 243.9L441.6 235.7C440.4 235.1 439.8 233.6 440.5 232.4L446.4 220.4C447 219.2 448.5 218.6 449.7 219.3L466.4 227.5C467.6 228.1 468.2 229.6 467.5 230.8L461.6 242.8C461 244 459.5 244.5 458.3 243.9Z" stroke="#071146" stroke-width="2" stroke-miterlimit="10" stroke-linecap="round" stroke-linejoin="round"/>
<path d="M501.5 97.5C509.784 97.5 516.5 90.7843 516.5 82.5C516.5 74.2157 509.784 67.5 501.5 67.5C493.216 67.5 486.5 74.2157 486.5 82.5C486.5 90.7843 493.216 97.5 501.5 97.5Z" fill="white"/>
<path d="M505.298 77.205C505.305 75.1063 503.609 73.3995 501.51 73.3927C499.411 73.3859 497.705 75.0818 497.698 77.1804C497.691 79.2791 499.387 80.9859 501.486 80.9927C503.584 80.9995 505.291 79.3037 505.298 77.205Z" stroke="#071146" stroke-width="2" stroke-miterlimit="10" stroke-linecap="round" stroke-linejoin="round"/>
<path d="M501.4 91.1C504.6 91.1 507.1 88.5 507.2 85.4V84.5C507.2 83.9 506.7 83.4 506.2 83.4H496.8C496.2 83.4 495.7 83.9 495.7 84.4V85.3C495.7 88.5 498.3 91.1 501.4 91.1Z" stroke="#071146" stroke-width="2" stroke-miterlimit="10" stroke-linecap="round" stroke-linejoin="round"/>
<path d="M48.0928 173.498C56.261 172.117 61.7632 164.376 60.3823 156.207C59.0013 148.039 51.26 142.537 43.0918 143.918C34.9235 145.299 29.4213 153.04 30.8023 161.208C32.1832 169.377 39.9245 174.879 48.0928 173.498Z" fill="white"/>
<path d="M45.4181 157.236C47.4884 156.893 48.8886 154.937 48.5455 152.866C48.2023 150.796 46.2458 149.396 44.1755 149.739C42.1051 150.082 40.7049 152.039 41.0481 154.109C41.3912 156.179 43.3477 157.58 45.4181 157.236Z" stroke="#071146" stroke-width="2" stroke-miterlimit="10" stroke-linecap="round" stroke-linejoin="round"/>
<path d="M47 167.2C50.1 166.7 52.2 163.7 51.7 160.6L51.6 159.7C51.5 159.1 51 158.7 50.4 158.8L41.2 160.3C40.6 160.4 40.2 160.9 40.3 161.5L40.4 162.4C40.9 165.6 43.9 167.7 47 167.2Z" stroke="#071146" stroke-width="2" stroke-miterlimit="10" stroke-linecap="round" stroke-linejoin="round"/>
<path d="M196.166 32.8016C199.864 27.369 198.458 19.9671 193.025 16.269C187.593 12.5708 180.191 13.9768 176.493 19.4094C172.794 24.8419 174.2 32.2439 179.633 35.942C185.065 39.6402 192.467 38.2342 196.166 32.8016Z" fill="#FCAA90"/>
<path d="M191.192 24.2825C192.129 22.9159 191.78 21.0487 190.414 20.1119C189.047 19.1751 187.18 19.5235 186.243 20.8901C185.306 22.2567 185.655 24.1239 187.021 25.0607C188.388 25.9975 190.255 25.6491 191.192 24.2825Z" stroke="#071146" stroke-width="2" stroke-miterlimit="10" stroke-linecap="round" stroke-linejoin="round"/>
<path d="M182.5 31.6C184.6 33 187.4 32.5 188.8 30.4L189.2 29.8C189.5 29.4 189.4 28.9 189 28.6L182.9 24.4C182.5 24.1 182 24.2 181.7 24.6L181.3 25.2C179.9 27.4 180.4 30.2 182.5 31.6Z" stroke="#071146" stroke-width="2" stroke-miterlimit="10" stroke-linecap="round" stroke-linejoin="round"/>
<path d="M574.135 127.836C574.215 121.265 568.953 115.872 562.381 115.792C555.81 115.711 550.417 120.974 550.337 127.545C550.257 134.117 555.519 139.509 562.09 139.589C568.662 139.67 574.054 134.408 574.135 127.836Z" fill="#FCAA90"/>
<path d="M565.315 123.541C565.34 121.885 564.018 120.521 562.362 120.495C560.705 120.47 559.341 121.792 559.315 123.449C559.29 125.105 560.612 126.469 562.269 126.495C563.925 126.52 565.289 125.198 565.315 123.541Z" stroke="#071146" stroke-width="2" stroke-miterlimit="10" stroke-linecap="round" stroke-linejoin="round"/>
<path d="M562.1 134.5C564.6 134.5 566.7 132.5 566.7 130V129.3C566.7 128.8 566.3 128.5 565.9 128.5L558.5 128.4C558 128.4 557.7 128.8 557.7 129.2V129.9C557.6 132.4 559.6 134.4 562.1 134.5Z" stroke="#071146" stroke-width="2" stroke-miterlimit="10" stroke-linecap="round" stroke-linejoin="round"/>
<path d="M90.7415 115.405C90.8219 108.834 85.5598 103.441 78.9883 103.361C72.4168 103.281 67.0243 108.543 66.9439 115.114C66.8635 121.686 72.1256 127.078 78.6972 127.159C85.2687 127.239 90.6611 121.977 90.7415 115.405Z" fill="#FCAA90"/>
<path d="M81.8222 111.031C81.8478 109.374 80.5255 108.011 78.8689 107.985C77.2122 107.959 75.8484 109.281 75.8228 110.938C75.7971 112.595 77.1194 113.959 78.7761 113.984C80.4328 114.01 81.7965 112.688 81.8222 111.031Z" stroke="#071146" stroke-width="2" stroke-miterlimit="10" stroke-linecap="round" stroke-linejoin="round"/>
<path d="M78.6998 122C81.1998 122 83.2998 120 83.2998 117.5V116.8C83.2998 116.3 82.8998 116 82.4998 116L75.0998 115.9C74.5998 115.9 74.2998 116.3 74.2998 116.7V117.4C74.0998 119.9 76.1998 122 78.6998 122Z" stroke="#071146" stroke-width="2" stroke-miterlimit="10" stroke-linecap="round" stroke-linejoin="round"/>
<path d="M57.5286 261.644C62.4053 259.051 64.2566 252.996 61.6636 248.119C59.0706 243.242 53.0153 241.391 48.1386 243.984C43.2619 246.577 41.4106 252.632 44.0036 257.509C46.5966 262.386 52.6519 264.237 57.5286 261.644Z" fill="#FCAA90"/>
<path d="M52.348 251.802C53.5692 251.158 54.037 249.646 53.3927 248.425C52.7485 247.203 51.2362 246.736 50.015 247.38C48.7937 248.024 48.326 249.536 48.9702 250.758C49.6145 251.979 51.1267 252.447 52.348 251.802Z" stroke="#071146" stroke-width="2" stroke-miterlimit="10" stroke-linecap="round" stroke-linejoin="round"/>
<path d="M55.3999 257.8C57.2999 256.8 57.9999 254.5 56.9999 252.6L56.6999 252.1C56.4999 251.8 56.0999 251.6 55.7999 251.8L50.2999 254.7C49.9999 254.9 49.7999 255.3 49.9999 255.6L50.2999 256.1C51.2999 258.1 53.5999 258.8 55.3999 257.8Z" stroke="#071146" stroke-width="2" stroke-miterlimit="10" stroke-linecap="round" stroke-linejoin="round"/>
<path d="M145.916 257.151C150.916 254.938 153.175 249.091 150.961 244.091C148.748 239.091 142.901 236.833 137.901 239.046C132.902 241.259 130.643 247.107 132.856 252.106C135.069 257.106 140.917 259.364 145.916 257.151Z" fill="white"/>
<path d="M141.506 247.182C142.771 246.628 143.346 245.153 142.791 243.889C142.236 242.624 140.762 242.049 139.497 242.604C138.233 243.159 137.658 244.633 138.213 245.898C138.767 247.162 140.242 247.737 141.506 247.182Z" stroke="#071146" stroke-width="2" stroke-miterlimit="10" stroke-linecap="round" stroke-linejoin="round"/>
<path d="M144.2 253.3C146.1 252.5 147 250.2 146.1 248.3L145.9 247.8C145.7 247.4 145.3 247.3 145 247.4L139.3 249.9C138.9 250.1 138.8 250.5 138.9 250.8L139.1 251.3C140 253.2 142.2 254.1 144.2 253.3Z" stroke="#071146" stroke-width="2" stroke-miterlimit="10" stroke-linecap="round" stroke-linejoin="round"/>
<path d="M367.6 242H223.8C217.7 242 212.8 237 212.8 231C212.8 224.9 217.8 220 223.8 220H367.5C373.6 220 378.5 225 378.5 231C378.6 237.1 373.6 242 367.6 242Z" fill="white"/>
<path d="M366.7 239.7H218.3C212.3 239.7 207.4 234.8 207.4 228.8C207.4 222.8 212.3 217.9 218.3 217.9H366.7C372.7 217.9 377.6 222.8 377.6 228.8C377.6 234.7 372.7 239.7 366.7 239.7Z" stroke="#071146" stroke-width="1.5" stroke-miterlimit="10" stroke-linecap="round" stroke-linejoin="round"/>
<path d="M244.1 232.9C243.4 232.4 242.9 231.8 242.5 230.9C242.1 230 241.9 229 241.9 227.8C241.9 226.6 242.1 225.5 242.4 224.6C242.8 223.7 243.3 223 243.9 222.6C244.6 222.1 245.3 221.9 246.3 221.9C247.2 221.9 248 222.1 248.7 222.5C249.4 222.9 249.9 223.5 250.3 224.2L249.3 224.8C248.9 224.2 248.5 223.7 248.1 223.4C247.6 223.1 247.1 223 246.4 223C245.4 223 244.7 223.4 244.1 224.3C243.5 225.1 243.3 226.3 243.3 227.8C243.3 228.8 243.4 229.6 243.7 230.3C244 231 244.3 231.6 244.8 231.9C245.3 232.2 245.8 232.5 246.4 232.5C247.2 232.5 247.8 232.3 248.2 232C248.6 231.7 249 231.1 249.4 230.4L250.4 231C250 231.9 249.5 232.5 248.8 233C248.1 233.5 247.4 233.7 246.5 233.7C245.6 233.6 244.8 233.4 244.1 232.9Z" fill="#071146"/>
<path d="M253.4 233.1C252.8 232.7 252.4 232.3 252 231.6C251.7 231 251.5 230.3 251.5 229.5C251.5 228.7 251.7 228 252 227.4C252.3 226.8 252.8 226.3 253.3 225.9C253.8 225.5 254.5 225.4 255.3 225.4C256 225.4 256.7 225.6 257.3 225.9C257.9 226.3 258.3 226.7 258.7 227.4C259 228 259.2 228.7 259.2 229.5C259.2 230.3 259 231 258.7 231.6C258.4 232.2 257.9 232.7 257.4 233.1C256.9 233.5 256.2 233.6 255.4 233.6C254.6 233.6 254 233.5 253.4 233.1ZM256.7 232.2C257.1 231.9 257.4 231.6 257.7 231.1C257.9 230.6 258 230.1 258 229.5C258 228.9 257.9 228.4 257.7 227.9C257.5 227.4 257.1 227.1 256.7 226.8C256.3 226.5 255.8 226.4 255.3 226.4C254.8 226.4 254.3 226.5 253.9 226.8C253.5 227.1 253.2 227.4 252.9 227.9C252.7 228.4 252.6 228.9 252.6 229.5C252.6 230.1 252.7 230.6 252.9 231.1C253.1 231.6 253.4 231.9 253.9 232.2C254.3 232.5 254.8 232.6 255.3 232.6C255.9 232.6 256.3 232.5 256.7 232.2Z" fill="#071146"/>
<path d="M270.7 226.2C271.2 226.7 271.4 227.4 271.4 228.3V233.4H270.3V228.7C270.3 227.9 270.1 227.3 269.8 226.9C269.5 226.5 269.1 226.4 268.6 226.4C268 226.4 267.5 226.6 267.2 227.1C266.9 227.6 266.7 228.2 266.6 229V233.3H265.5V228.6C265.5 227.8 265.3 227.2 265 226.8C264.7 226.4 264.3 226.3 263.8 226.3C263.1 226.3 262.6 226.6 262.3 227.1C262 227.7 261.8 228.4 261.8 229.4V233.2H260.7V225.5H261.8V226.7C262.1 226.2 262.4 225.9 262.8 225.6C263.2 225.3 263.6 225.2 264.1 225.2C264.7 225.2 265.1 225.4 265.6 225.7C266 226 266.3 226.4 266.5 227C266.7 226.5 267.1 226 267.5 225.7C267.9 225.4 268.4 225.2 268.9 225.2C269.6 225.4 270.2 225.7 270.7 226.2Z" fill="#071146"/>
<path d="M279.2 225.9C279.8 226.3 280.2 226.7 280.6 227.4C280.9 228 281.1 228.7 281.1 229.5C281.1 230.3 280.9 231 280.6 231.6C280.3 232.2 279.8 232.7 279.3 233.1C278.8 233.5 278.1 233.6 277.3 233.6C276.7 233.6 276.2 233.5 275.8 233.2C275.3 233 274.9 232.6 274.6 232.2V236.6H273.5V225.6H274.6V226.7C274.9 226.3 275.3 225.9 275.8 225.7C276.3 225.5 276.8 225.3 277.3 225.3C278 225.4 278.6 225.6 279.2 225.9ZM278.6 232.2C279 231.9 279.3 231.6 279.6 231.1C279.9 230.6 279.9 230.1 279.9 229.5C279.9 228.9 279.8 228.4 279.6 227.9C279.4 227.4 279.1 227.1 278.6 226.8C278.2 226.5 277.7 226.4 277.2 226.4C276.7 226.4 276.2 226.5 275.8 226.8C275.4 227.1 275.1 227.4 274.8 227.9C274.6 228.4 274.5 228.9 274.5 229.5C274.5 230.1 274.6 230.6 274.8 231.1C275 231.6 275.4 231.9 275.8 232.2C276.2 232.5 276.7 232.6 277.2 232.6C277.8 232.6 278.2 232.5 278.6 232.2Z" fill="#071146"/>
<path d="M289.8 225.7V233.4H288.7V232.3C288.4 232.7 288 233.1 287.5 233.3C287 233.5 286.5 233.7 286 233.7C285.3 233.7 284.6 233.5 284 233.2C283.4 232.8 283 232.4 282.6 231.7C282.3 231.1 282.1 230.4 282.1 229.6C282.1 228.8 282.3 228.1 282.6 227.5C282.9 226.9 283.4 226.4 283.9 226C284.4 225.6 285.1 225.5 285.9 225.5C286.5 225.5 287 225.6 287.4 225.9C287.9 226.1 288.3 226.5 288.6 226.9V225.7H289.8ZM287.4 232.2C287.8 231.9 288.1 231.6 288.4 231.1C288.6 230.6 288.7 230.1 288.7 229.5C288.7 228.9 288.6 228.4 288.4 227.9C288.2 227.4 287.8 227.1 287.4 226.8C287 226.5 286.5 226.4 286 226.4C285.5 226.4 285 226.5 284.6 226.8C284.2 227.1 283.9 227.4 283.6 227.9C283.4 228.4 283.3 228.9 283.3 229.5C283.3 230.1 283.4 230.6 283.6 231.1C283.8 231.6 284.1 231.9 284.6 232.2C285 232.5 285.5 232.6 286 232.6C286.5 232.6 286.9 232.5 287.4 232.2Z" fill="#071146"/>
<path d="M297 225.7C297.5 225.9 297.8 226.2 298.1 226.7C298.4 227.2 298.5 227.6 298.5 228.2V233.3H297.4V228.6C297.4 227.1 296.7 226.3 295.4 226.3C294.6 226.3 294 226.6 293.6 227.1C293.2 227.6 293 228.4 293 229.4V233.2H291.9V225.5H293V226.8C293.3 226.3 293.6 225.9 294 225.7C294.4 225.4 294.9 225.3 295.5 225.3C296.1 225.4 296.5 225.5 297 225.7Z" fill="#071146"/>
<path d="M306 225.7H307.1L302.9 236.7H301.8L303 233.6L299.8 225.8H301L303.5 232.2L306 225.7Z" fill="#071146"/>
<path d="M315.3 233.4V222.2H316.6L322.3 231.6V222.2H323.5V233.4H322.2L316.5 224.1V233.4H315.3Z" fill="#071146"/>
<path d="M333 225.7V233.4H331.9V232.3C331.6 232.7 331.2 233.1 330.7 233.3C330.2 233.5 329.7 233.7 329.2 233.7C328.5 233.7 327.8 233.5 327.2 233.2C326.6 232.8 326.2 232.4 325.8 231.7C325.5 231.1 325.3 230.4 325.3 229.6C325.3 228.8 325.5 228.1 325.8 227.5C326.1 226.9 326.6 226.4 327.1 226C327.6 225.6 328.3 225.5 329.1 225.5C329.7 225.5 330.2 225.6 330.6 225.9C331.1 226.1 331.5 226.5 331.8 226.9V225.7H333ZM330.6 232.2C331 231.9 331.3 231.6 331.6 231.1C331.8 230.6 331.9 230.1 331.9 229.5C331.9 228.9 331.8 228.4 331.6 227.9C331.4 227.4 331 227.1 330.6 226.8C330.2 226.5 329.7 226.4 329.2 226.4C328.7 226.4 328.2 226.5 327.8 226.8C327.4 227.1 327.1 227.4 326.8 227.9C326.6 228.4 326.5 228.9 326.5 229.5C326.5 230.1 326.6 230.6 326.8 231.1C327 231.6 327.3 231.9 327.8 232.2C328.2 232.5 328.7 232.6 329.2 232.6C329.7 232.6 330.2 232.5 330.6 232.2Z" fill="#071146"/>
<path d="M345.1 226.2C345.6 226.7 345.8 227.4 345.8 228.3V233.4H344.7V228.7C344.7 227.9 344.5 227.3 344.2 226.9C343.9 226.5 343.5 226.4 343 226.4C342.4 226.4 341.9 226.6 341.6 227.1C341.3 227.6 341.1 228.2 341 229V233.3H339.9V228.6C339.9 227.8 339.7 227.2 339.4 226.8C339.1 226.4 338.7 226.3 338.2 226.3C337.5 226.3 337 226.6 336.7 227.1C336.4 227.7 336.2 228.4 336.2 229.4V233.2H335.1V225.5H336.2V226.7C336.5 226.2 336.8 225.9 337.2 225.6C337.6 225.3 338 225.2 338.5 225.2C339.1 225.2 339.5 225.4 340 225.7C340.4 226 340.7 226.4 340.9 227C341.1 226.5 341.5 226 341.9 225.7C342.3 225.4 342.8 225.2 343.3 225.2C344 225.4 344.6 225.7 345.1 226.2Z" fill="#071146"/>
<path d="M353 225.9C353.6 226.2 354 226.7 354.3 227.3C354.6 227.9 354.8 228.5 354.8 229.3C354.8 229.5 354.8 229.7 354.8 229.8H348.5C348.5 230.6 348.8 231.3 349.3 231.8C349.8 232.4 350.4 232.6 351.2 232.6C351.9 232.6 352.4 232.5 352.8 232.2C353.2 232 353.6 231.6 353.8 231.2L354.7 231.8C354.3 232.4 353.9 232.8 353.3 233.1C352.7 233.4 352 233.6 351.2 233.6C350.5 233.6 349.8 233.4 349.2 233.1C348.6 232.7 348.2 232.3 347.8 231.6C347.5 231 347.3 230.3 347.3 229.5C347.3 228.7 347.5 228 347.8 227.4C348.1 226.8 348.6 226.3 349.1 225.9C349.6 225.5 350.3 225.4 351.1 225.4C351.8 225.4 352.4 225.6 353 225.9ZM353.6 228.8C353.5 228 353.2 227.4 352.8 227C352.4 226.6 351.8 226.4 351.1 226.4C350.4 226.4 349.8 226.6 349.3 227.1C348.8 227.6 348.6 228.1 348.4 228.8H353.6Z" fill="#071146"/>
<path d="M222.911 230.791C224.785 228.916 224.785 225.877 222.911 224.003C221.036 222.128 217.997 222.128 216.123 224.003C214.248 225.877 214.248 228.916 216.123 230.791C217.997 232.665 221.036 232.665 222.911 230.791Z" stroke="#071146" stroke-width="1.5" stroke-miterlimit="10" stroke-linecap="round" stroke-linejoin="round"/>
<path d="M222.9 230.7L227 234.9" stroke="#071146" stroke-width="1.5" stroke-miterlimit="10" stroke-linecap="round" stroke-linejoin="round"/>
<path d="M291.7 133.5C267.9 133.4 248.6 152.6 248.5 176.4V183C248.5 187.4 252 190.9 256.4 190.9L326.7 191.1C331.1 191.1 334.6 187.6 334.6 183.2V176.6C334.6 152.9 315.4 133.6 291.7 133.5Z" stroke="#071146" stroke-width="2" stroke-miterlimit="10" stroke-linecap="round" stroke-linejoin="round"/>
<path d="M314 68.3C315.5 73.3 315.7 79 315.7 84.8C315.7 106.5 304.3 124 290.1 124C275.9 124 264.5 106.4 264.5 84.8C264.5 80.5 264.9 76.4 265.8 72.5" stroke="#071146" stroke-width="2" stroke-miterlimit="10"/>
<path d="M278.3 90.2C282.884 90.2 286.6 86.484 286.6 81.9C286.6 77.316 282.884 73.6 278.3 73.6C273.716 73.6 270 77.316 270 81.9C270 86.484 273.716 90.2 278.3 90.2Z" stroke="#071146" stroke-width="2" stroke-miterlimit="10"/>
<path d="M302 90.2C306.584 90.2 310.3 86.484 310.3 81.9C310.3 77.316 306.584 73.6 302 73.6C297.416 73.6 293.7 77.316 293.7 81.9C293.7 86.484 297.416 90.2 302 90.2Z" stroke="#071146" stroke-width="2" stroke-miterlimit="10"/>
<path d="M286.2 82.2C286.5 82.1 286.8 81.8 287.1 81.6C287.9 81 289 80.8 290 80.8C290.7 80.8 291.4 80.8 292.1 80.9C292.8 81.1 293.4 81.4 293.9 82" stroke="#071146" stroke-width="2" stroke-miterlimit="10"/>
<path d="M310.4 80.5C311 79.7 311.7 79 312.5 78.4C313.1 77.9 313.8 77.5 314.6 77.4C316.1 77.2 317.6 78.4 317.9 79.9C318.2 81.4 317.4 83 316.1 83.8" stroke="#071146" stroke-width="2" stroke-miterlimit="10"/>
<path d="M270.1 80C268.6 79.1 266.9 78.5 265.1 78.3C264.8 78.3 264.6 78.3 264.3 78.3C263.9 78.4 263.6 78.7 263.4 79.1C262.9 79.9 262.6 80.8 262.7 81.7C262.9 82.6 263.5 83.5 264.4 83.7" stroke="#071146" stroke-width="2" stroke-miterlimit="10"/>
<path d="M296.5 107.9C296.6 107.8 296.6 107.8 296.6 107.7C296.6 107.6 296.5 107.6 296.5 107.6C296.4 107.6 296.4 107.6 296.3 107.7C295.3 108.2 294.4 108.7 293.4 109.1C291.5 109.8 289.3 109.9 287.3 109.5C287 109.4 286.7 109.4 286.4 109.3C286 109.2 284.5 108.6 284.4 108.6C284.2 108.5 284.1 108.5 283.9 108.5C283.7 108.5 283.6 108.7 283.6 108.9C283.6 109 283.7 109.1 283.8 109.1C283.9 109.2 285.9 111.3 287 112C288.4 112.9 290.1 113.4 291.7 113C292.9 112.7 293.9 111.9 294.7 111C295.5 110.1 296.1 109 296.7 107.9C296.6 107.9 296.6 107.9 296.5 107.9Z" fill="#071146"/>
<path d="M299.3 56.2C299.4 58.7 301.4 60.9 303.6 62.5C307.4 65.3 312.2 66.9 317.1 67.2C318.2 65 322.6 43.6 300.8 46.4C300.2 46.5 299.6 46.6 299 46.4C298.5 46.2 298.1 45.9 297.7 45.5C293.6 41.7 286.6 40.5 281.2 42.8C278.1 44.1 266.3 55.7 263.4 69.7C262.5 73.9 264.8 71.6 268.3 71.2C275.9 70.2 283.3 67.6 289.7 63.8C291.6 62.6 299.4 57.1 299.3 56.2Z" fill="#B1DEF5"/>
<path d="M265.9 72.4C267.6 72.1 269.2 71.6 270.9 71.1C275.9 69.5 280.8 67.2 285.3 64.4C286.1 63.9 293.8 58 297 55C297.2 56 297.7 56.7 298.4 57.5C302.7 62.3 308.1 66 314.1 68.2C316.2 64.1 316.5 59.5 315.8 55C314.8 48.8 307.8 44.9 301.5 44.4C300.1 44.3 298.6 44.4 297.4 45.2C293.4 43.6 289 41.7 284.8 41.2C280.6 40.7 276 41.5 272.7 44.2C271.3 45.4 270.2 46.9 269.2 48.4C264.4 55.8 262.5 64.2 260.3 72.8C262.1 73 264 72.8 265.9 72.4Z" stroke="#071146" stroke-width="2" stroke-miterlimit="10"/>
<path d="M314.6 176.1H300.9C299.8 176.1 298.9 175.2 298.9 174.1V160.4C298.9 159.3 299.8 158.4 300.9 158.4H314.6C315.7 158.4 316.6 159.3 316.6 160.4V174.1C316.7 175.2 315.7 176.1 314.6 176.1Z" stroke="#071146" stroke-width="2" stroke-miterlimit="10" stroke-linecap="round" stroke-linejoin="round"/>
<path d="M307.8 161.9V153.5" stroke="#071146" stroke-width="2" stroke-miterlimit="10" stroke-linecap="round" stroke-linejoin="round"/>
<path d="M303.6 166.4H311.5" stroke="#071146" stroke-width="2" stroke-miterlimit="10" stroke-linecap="round" stroke-linejoin="round"/>
<path d="M303.6 171H311.5" stroke="#071146" stroke-width="2" stroke-miterlimit="10" stroke-linecap="round" stroke-linejoin="round"/>
<path d="M126.6 47.6C131.902 47.6 136.2 43.3019 136.2 38C136.2 32.6981 131.902 28.4 126.6 28.4C121.298 28.4 117 32.6981 117 38C117 43.3019 121.298 47.6 126.6 47.6Z" fill="#B1DEF5"/>
<path d="M132.4 41.3L130 38.9C129.7 38.6 129.3 38.6 129 38.9L128.3 39.6L128.4 39.7L127.8 40.3C127.7 40.4 127.6 40.4 127.5 40.3L124.6 37.4C124.5 37.3 124.5 37.2 124.6 37.1L125.1 36.6L125.8 35.9C126.1 35.6 126.1 35.2 125.8 34.9L123.4 32.5C123.1 32.2 122.7 32.2 122.4 32.5L121.7 33.2C120.6 34.3 120.6 36.2 121.7 37.3L127.5 43.1C128.6 44.2 130.5 44.2 131.6 43.1L131.7 43L131.8 43.1L132.5 42.4C132.6 42.3 132.7 42.1 132.7 41.9C132.6 41.7 132.5 41.5 132.4 41.3Z" fill="#071146"/>
<path d="M433.4 195.4C438.702 195.4 443 191.102 443 185.8C443 180.498 438.702 176.2 433.4 176.2C428.098 176.2 423.8 180.498 423.8 185.8C423.8 191.102 428.098 195.4 433.4 195.4Z" fill="#B1DEF5"/>
<path d="M439.1 189.2L436.7 186.8C436.4 186.5 436 186.5 435.7 186.8L435 187.5L435.1 187.6L434.5 188.2C434.4 188.3 434.3 188.3 434.2 188.2L431.3 185.3C431.2 185.2 431.2 185.1 431.3 185L431.8 184.5L432.5 183.8C432.8 183.5 432.8 183.1 432.5 182.8L430.1 180.4C429.8 180.1 429.4 180.1 429.1 180.4L428.4 181.1C427.3 182.2 427.3 184.1 428.4 185.2L434.2 191C435.3 192.1 437.2 192.1 438.3 191L438.4 190.9L438.5 191L439.2 190.3C439.3 190.2 439.4 190 439.4 189.8C439.3 189.5 439.3 189.3 439.1 189.2Z" fill="#071146"/>
<path d="M48.4999 87C53.8018 87 58.0999 82.7019 58.0999 77.4C58.0999 72.0981 53.8018 67.8 48.4999 67.8C43.198 67.8 38.8999 72.0981 38.8999 77.4C38.8999 82.7019 43.198 87 48.4999 87Z" fill="#B1DEF5"/>
<path d="M54.2998 80.7L51.8998 78.3C51.5998 78 51.1998 78 50.8998 78.3L50.0998 79L50.1998 79.1L49.5998 79.7C49.4998 79.8 49.3998 79.8 49.2998 79.7L46.3998 76.8C46.2998 76.7 46.2998 76.6 46.3998 76.5L46.8998 76L47.5998 75.3C47.8998 75 47.8998 74.6 47.5998 74.3L45.1998 71.9C44.8998 71.6 44.4998 71.6 44.1998 71.9L43.4998 72.6C42.3998 73.7 42.3998 75.6 43.4998 76.7L49.2998 82.5C50.3998 83.6 52.2998 83.6 53.3998 82.5L53.4998 82.4L53.5998 82.5L54.2998 81.8C54.3998 81.7 54.4998 81.5 54.4998 81.3C54.4998 81 54.3998 80.9 54.2998 80.7Z" fill="#071146"/>
<path d="M519.8 43C525.102 43 529.4 38.7019 529.4 33.4C529.4 28.0981 525.102 23.8 519.8 23.8C514.498 23.8 510.2 28.0981 510.2 33.4C510.2 38.7019 514.498 43 519.8 43Z" fill="#B1DEF5"/>
<path d="M525.5 36.7L523.1 34.3C522.8 34 522.4 34 522.1 34.3L521.4 35L521.5 35.1L520.9 35.7C520.8 35.8 520.7 35.8 520.6 35.7L517.7 32.8C517.6 32.7 517.6 32.6 517.7 32.5L518.2 32L518.9 31.3C519.2 31 519.2 30.6 518.9 30.3L516.5 27.9C516.2 27.6 515.8 27.6 515.5 27.9L514.8 28.6C513.7 29.7 513.7 31.6 514.8 32.7L520.6 38.5C521.7 39.6 523.6 39.6 524.7 38.5L524.8 38.4L524.9 38.5L525.6 37.8C525.7 37.7 525.8 37.5 525.8 37.3C525.7 37.1 525.6 36.9 525.5 36.7Z" fill="#071146"/>
<path d="M536.687 224.92C538.665 218.537 535.094 211.758 528.71 209.78C522.327 207.802 515.549 211.373 513.571 217.757C511.593 224.14 515.164 230.918 521.547 232.896C527.93 234.874 534.709 231.303 536.687 224.92Z" fill="white"/>
<path d="M529.238 218.226C529.734 216.645 528.854 214.962 527.273 214.466C525.692 213.971 524.009 214.851 523.513 216.432C523.017 218.013 523.897 219.696 525.478 220.191C527.059 220.687 528.743 219.807 529.238 218.226Z" stroke="#071146" stroke-width="2" stroke-miterlimit="10" stroke-linecap="round" stroke-linejoin="round"/>
<path d="M523 227.9C525.4 228.7 528 227.3 528.8 224.9L529 224.2C529.1 223.8 528.9 223.3 528.4 223.1L521.2 220.8C520.8 220.7 520.3 220.9 520.1 221.4L519.9 222.1C519.2 224.6 520.6 227.1 523 227.9Z" stroke="#071146" stroke-width="2" stroke-miterlimit="10" stroke-linecap="round" stroke-linejoin="round"/>
</g>
<defs>
<clipPath id="clip0">
<rect width="585" height="272.9" fill="white"/>
</clipPath>
</defs>
</svg>
