<svg width="585" height="271" viewBox="0 0 585 271" fill="none" xmlns="http://www.w3.org/2000/svg">
<g clip-path="url(#clip0)">
<path d="M4.41001 58.26H585V270.26H4.41001C3.83004 270.26 3.25576 270.146 2.72006 269.923C2.18437 269.701 1.69777 269.375 1.28813 268.965C0.878492 268.554 0.553862 268.067 0.332828 267.531C0.111794 266.995 -0.00130379 266.42 1.13389e-05 265.84V62.67C1.13389e-05 61.5004 0.464635 60.3787 1.29167 59.5517C2.11871 58.7246 3.24041 58.26 4.41001 58.26Z" fill="#FCAA90"/>
<path d="M157.65 31.6C159.228 31.6169 160.8 31.7979 162.34 32.14C162.668 32.2134 162.966 32.3879 163.19 32.6391C163.414 32.8902 163.554 33.2053 163.59 33.54L163.96 36.82C164.046 37.5536 164.4 38.2296 164.953 38.7185C165.507 39.2075 166.221 39.4751 166.96 39.47C167.37 39.4711 167.775 39.386 168.15 39.22L171.15 37.9C171.456 37.7639 171.796 37.7264 172.124 37.7927C172.452 37.859 172.751 38.0258 172.98 38.27C175.156 40.5936 176.776 43.3801 177.72 46.42C177.821 46.7402 177.819 47.0838 177.715 47.403C177.611 47.7222 177.41 48.0008 177.14 48.2L174.47 50.2C174.099 50.4797 173.798 50.8415 173.591 51.2571C173.384 51.6727 173.277 52.1307 173.277 52.595C173.277 53.0594 173.384 53.5174 173.591 53.933C173.798 54.3486 174.099 54.7104 174.47 54.99L177.14 56.99C177.41 57.1892 177.611 57.4679 177.715 57.7871C177.819 58.1062 177.821 58.4499 177.72 58.77C176.776 61.8099 175.155 64.5963 172.98 66.92C172.753 67.1638 172.456 67.3313 172.13 67.3993C171.804 67.4674 171.465 67.4327 171.16 67.3L168.16 65.98C167.737 65.7971 167.278 65.714 166.818 65.7371C166.358 65.7602 165.91 65.8889 165.507 66.1132C165.105 66.3375 164.76 66.6515 164.498 67.0307C164.237 67.41 164.066 67.8443 164 68.3L163.64 71.58C163.606 71.9224 163.464 72.245 163.233 72.5006C163.003 72.7561 162.697 72.9312 162.36 73C159.247 73.7406 156.003 73.7406 152.89 73C152.567 72.9236 152.275 72.749 152.054 72.5001C151.834 72.2513 151.696 71.9403 151.66 71.61L151.3 68.33C151.242 67.8707 151.079 67.431 150.822 67.0453C150.566 66.6597 150.224 66.3385 149.823 66.1071C149.422 65.8756 148.973 65.7401 148.511 65.7111C148.049 65.6821 147.587 65.7605 147.16 65.94L144.16 67.27C143.854 67.4027 143.515 67.4374 143.19 67.3693C142.864 67.3012 142.567 67.1338 142.34 66.89C140.163 64.5634 138.543 61.7734 137.6 58.73C137.501 58.4113 137.504 58.0697 137.608 57.7526C137.712 57.4356 137.912 57.1586 138.18 56.96L140.85 54.96C141.221 54.6804 141.521 54.3186 141.728 53.903C141.935 53.4874 142.043 53.0294 142.043 52.565C142.043 52.1007 141.935 51.6427 141.728 51.2271C141.521 50.8115 141.221 50.4497 140.85 50.17L138.18 48.17C137.91 47.9708 137.709 47.6922 137.605 47.373C137.501 47.0538 137.499 46.7102 137.6 46.39C138.544 43.3501 140.164 40.5636 142.34 38.24C142.569 37.9958 142.868 37.829 143.196 37.7627C143.524 37.6964 143.864 37.7339 144.17 37.87L147.17 39.19C147.598 39.3716 148.062 39.4513 148.526 39.4227C148.99 39.3941 149.441 39.2581 149.844 39.0254C150.246 38.7926 150.589 38.4696 150.845 38.0816C151.101 37.6937 151.264 37.2515 151.32 36.79L151.69 33.51C151.726 33.1753 151.866 32.8602 152.09 32.6091C152.314 32.3579 152.611 32.1834 152.94 32.11C154.488 31.7779 156.067 31.607 157.65 31.6V31.6ZM157.65 44.5C159.244 44.5 160.802 44.9727 162.128 45.8584C163.453 46.744 164.486 48.0028 165.096 49.4756C165.706 50.9484 165.866 52.569 165.555 54.1325C165.244 55.696 164.476 57.1321 163.349 58.2593C162.222 59.3865 160.786 60.1542 159.222 60.4652C157.659 60.7762 156.038 60.6165 154.565 60.0065C153.093 59.3965 151.834 58.3634 150.948 57.0379C150.063 55.7125 149.59 54.1542 149.59 52.56C149.59 50.4276 150.435 48.382 151.94 46.8713C153.445 45.3607 155.487 44.508 157.62 44.5H157.65Z" stroke="#071146" stroke-width="2" stroke-linecap="round" stroke-linejoin="round"/>
<path d="M496.64 199.86C498.218 199.877 499.79 200.058 501.33 200.4C501.659 200.473 501.956 200.648 502.18 200.899C502.404 201.15 502.544 201.465 502.58 201.8L502.95 205.08C503.036 205.814 503.39 206.49 503.943 206.979C504.497 207.467 505.211 207.735 505.95 207.73C506.36 207.731 506.765 207.646 507.14 207.48L510.14 206.16C510.446 206.024 510.786 205.986 511.114 206.053C511.442 206.119 511.741 206.286 511.97 206.53C514.146 208.854 515.766 211.64 516.71 214.68C516.811 215 516.809 215.344 516.705 215.663C516.601 215.982 516.4 216.261 516.13 216.46L513.46 218.46C513.089 218.74 512.789 219.101 512.581 219.517C512.374 219.933 512.267 220.391 512.267 220.855C512.267 221.319 512.374 221.777 512.581 222.193C512.789 222.609 513.089 222.97 513.46 223.25L516.13 225.25C516.4 225.449 516.601 225.728 516.705 226.047C516.809 226.366 516.811 226.71 516.71 227.03C515.766 230.07 514.145 232.856 511.97 235.18C511.743 235.424 511.446 235.591 511.12 235.659C510.794 235.727 510.455 235.693 510.15 235.56L507.15 234.24C506.723 234.06 506.261 233.982 505.799 234.011C505.337 234.04 504.888 234.176 504.487 234.407C504.086 234.639 503.744 234.96 503.487 235.345C503.231 235.731 503.068 236.171 503.01 236.63L502.65 239.91C502.613 240.24 502.476 240.551 502.255 240.8C502.035 241.049 501.743 241.224 501.42 241.3C498.307 242.041 495.063 242.041 491.95 241.3C491.627 241.224 491.335 241.049 491.115 240.8C490.894 240.551 490.756 240.24 490.72 239.91L490.36 236.63C490.302 236.171 490.139 235.731 489.882 235.345C489.626 234.96 489.284 234.639 488.883 234.407C488.482 234.176 488.033 234.04 487.571 234.011C487.109 233.982 486.647 234.06 486.22 234.24L483.22 235.57C482.915 235.703 482.576 235.737 482.25 235.669C481.924 235.601 481.627 235.434 481.4 235.19C479.223 232.863 477.603 230.073 476.66 227.03C476.561 226.711 476.564 226.37 476.668 226.053C476.772 225.736 476.972 225.459 477.24 225.26L479.91 223.26C480.281 222.98 480.581 222.619 480.788 222.203C480.996 221.787 481.103 221.329 481.103 220.865C481.103 220.401 480.996 219.943 480.788 219.527C480.581 219.112 480.281 218.75 479.91 218.47L477.24 216.47C476.97 216.271 476.769 215.992 476.665 215.673C476.561 215.354 476.559 215.01 476.66 214.69C477.604 211.65 479.224 208.864 481.4 206.54C481.629 206.296 481.928 206.129 482.256 206.063C482.584 205.996 482.924 206.034 483.23 206.17L486.23 207.49C486.658 207.672 487.122 207.751 487.586 207.723C488.05 207.694 488.501 207.558 488.904 207.325C489.306 207.093 489.649 206.77 489.905 206.382C490.161 205.994 490.324 205.552 490.38 205.09L490.75 201.81C490.786 201.475 490.926 201.16 491.15 200.909C491.374 200.658 491.671 200.483 492 200.41C493.524 200.069 495.079 199.885 496.64 199.86ZM496.64 203.08C495.665 203.091 494.692 203.175 493.73 203.33L493.5 205.43C493.391 206.396 493.058 207.323 492.526 208.136C491.994 208.949 491.278 209.626 490.437 210.113C489.595 210.599 488.651 210.881 487.681 210.936C486.711 210.991 485.741 210.818 484.85 210.43L482.92 209.58C481.688 211.078 480.708 212.767 480.02 214.58L481.74 215.84C482.527 216.415 483.168 217.167 483.609 218.036C484.051 218.905 484.281 219.865 484.281 220.84C484.281 221.815 484.051 222.775 483.609 223.644C483.168 224.513 482.527 225.265 481.74 225.84L480 227.08C480.688 228.893 481.668 230.582 482.9 232.08L484.85 231.23C485.74 230.842 486.71 230.668 487.679 230.723C488.649 230.778 489.592 231.061 490.433 231.547C491.274 232.034 491.989 232.711 492.52 233.524C493.051 234.338 493.383 235.265 493.49 236.23L493.72 238.35C495.633 238.675 497.587 238.675 499.5 238.35L499.73 236.23C499.835 235.264 500.166 234.336 500.697 233.521C501.227 232.706 501.942 232.028 502.783 231.541C503.625 231.054 504.569 230.772 505.539 230.718C506.51 230.664 507.48 230.84 508.37 231.23L510.31 232.08C511.542 230.582 512.522 228.893 513.21 227.08L511.49 225.82C510.703 225.245 510.062 224.493 509.621 223.624C509.179 222.755 508.949 221.795 508.949 220.82C508.949 219.845 509.179 218.885 509.621 218.016C510.062 217.147 510.703 216.395 511.49 215.82L513.2 214.56C512.512 212.747 511.532 211.058 510.3 209.56L508.37 210.41C507.479 210.802 506.509 210.979 505.537 210.926C504.565 210.873 503.619 210.592 502.776 210.105C501.934 209.617 501.218 208.939 500.687 208.123C500.156 207.307 499.824 206.378 499.72 205.41L499.49 203.31C498.547 203.163 497.594 203.086 496.64 203.08ZM496.64 212.76C498.234 212.76 499.792 213.233 501.118 214.118C502.443 215.004 503.476 216.263 504.086 217.736C504.696 219.208 504.856 220.829 504.545 222.392C504.234 223.956 503.466 225.392 502.339 226.519C501.212 227.647 499.776 228.414 498.212 228.725C496.649 229.036 495.028 228.877 493.556 228.266C492.083 227.656 490.824 226.623 489.938 225.298C489.053 223.972 488.58 222.414 488.58 220.82C488.58 218.688 489.425 216.642 490.93 215.131C492.435 213.621 494.478 212.768 496.61 212.76H496.64ZM496.64 215.99C495.683 215.99 494.747 216.274 493.951 216.806C493.155 217.338 492.535 218.093 492.168 218.978C491.802 219.862 491.706 220.835 491.893 221.774C492.08 222.713 492.541 223.576 493.218 224.252C493.894 224.929 494.757 225.39 495.696 225.577C496.635 225.764 497.608 225.668 498.492 225.302C499.377 224.935 500.132 224.315 500.664 223.519C501.196 222.723 501.48 221.787 501.48 220.83C501.479 220.193 501.352 219.562 501.106 218.974C500.86 218.386 500.501 217.852 500.048 217.403C499.596 216.955 499.059 216.6 498.469 216.359C497.879 216.118 497.247 215.996 496.61 216L496.64 215.99Z" fill="white"/>
<path d="M184.43 73.54C185.201 72.9417 186.032 72.4255 186.91 72C187.097 71.9111 187.308 71.8825 187.512 71.9183C187.716 71.9542 187.904 72.0526 188.05 72.2L189.48 73.65C189.796 73.9729 190.219 74.1678 190.67 74.1974C191.12 74.2269 191.565 74.089 191.92 73.81C192.118 73.6556 192.282 73.4614 192.4 73.24L193.4 71.45C193.497 71.2747 193.644 71.1324 193.822 71.0415C194 70.9506 194.202 70.9152 194.4 70.94C196.335 71.2384 198.178 71.9699 199.79 73.08C199.958 73.1982 200.086 73.3652 200.156 73.5585C200.225 73.7517 200.234 73.9618 200.18 74.16L199.64 76.16C199.563 76.4365 199.552 76.7273 199.608 77.0088C199.665 77.2903 199.786 77.5546 199.963 77.7804C200.14 78.0063 200.368 78.1873 200.628 78.3088C200.888 78.4303 201.173 78.489 201.46 78.48L203.46 78.42C203.673 78.4059 203.885 78.4604 204.065 78.5756C204.245 78.6907 204.384 78.8605 204.46 79.06C205.16 80.8911 205.437 82.8568 205.27 84.81C205.252 85.015 205.172 85.2095 205.039 85.367C204.907 85.5245 204.729 85.6373 204.53 85.69L202.53 86.2C202.254 86.273 201.999 86.4097 201.785 86.5991C201.571 86.7885 201.404 87.0254 201.298 87.2907C201.192 87.5561 201.15 87.8426 201.175 88.1272C201.199 88.4119 201.29 88.6868 201.44 88.93L202.51 90.66C202.616 90.8345 202.666 91.0372 202.654 91.241C202.641 91.4448 202.567 91.6399 202.44 91.8C201.216 93.3416 199.647 94.5746 197.86 95.4C197.674 95.4832 197.467 95.5077 197.267 95.4702C197.067 95.4326 196.883 95.3349 196.74 95.19L195.32 93.74C195.119 93.5371 194.873 93.3841 194.602 93.2934C194.331 93.2026 194.042 93.1766 193.759 93.2175C193.477 93.2583 193.207 93.3648 192.973 93.5285C192.739 93.6922 192.546 93.9085 192.41 94.16L191.41 95.95C191.314 96.1253 191.167 96.2677 190.988 96.3586C190.81 96.4495 190.609 96.4848 190.41 96.46C188.471 96.1601 186.625 95.4251 185.01 94.31C184.842 94.1919 184.714 94.0248 184.645 93.8316C184.575 93.6383 184.566 93.4283 184.62 93.23L185.16 91.23C185.237 90.9535 185.248 90.6628 185.192 90.3813C185.136 90.0998 185.014 89.8355 184.837 89.6096C184.66 89.3838 184.432 89.2028 184.172 89.0813C183.912 88.9597 183.627 88.9011 183.34 88.91L181.34 88.97C181.127 88.9842 180.915 88.9297 180.735 88.8145C180.555 88.6993 180.417 88.5295 180.34 88.33C179.64 86.499 179.363 84.5333 179.53 82.58C179.548 82.375 179.629 82.1805 179.761 82.023C179.893 81.8656 180.071 81.7528 180.27 81.7L182.27 81.19C182.547 81.1157 182.802 80.9778 183.016 80.7874C183.23 80.597 183.396 80.3593 183.502 80.0933C183.608 79.8272 183.65 79.5401 183.626 79.2549C183.601 78.9696 183.51 78.694 183.36 78.45L182.29 76.72C182.183 76.5435 182.133 76.3382 182.148 76.1323C182.162 75.9264 182.24 75.73 182.37 75.57C182.985 74.8246 183.676 74.1443 184.43 73.54ZM185.66 75.1C185.194 75.477 184.756 75.8881 184.35 76.33L185.04 77.44C185.355 77.949 185.547 78.5249 185.599 79.1214C185.65 79.7178 185.561 80.3181 185.338 80.8738C185.116 81.4295 184.765 81.9251 184.316 82.3204C183.866 82.7158 183.33 83 182.75 83.15L181.49 83.47C181.467 84.6666 181.639 85.8589 182 87H183.31C183.908 86.9797 184.503 87.1005 185.046 87.3528C185.588 87.605 186.064 87.9816 186.434 88.452C186.804 88.9224 187.058 89.4734 187.176 90.0603C187.293 90.6471 187.271 91.2534 187.11 91.83L186.74 93C187.762 93.6125 188.876 94.0549 190.04 94.31L190.66 93.16C190.943 92.6346 191.345 92.1827 191.834 91.841C192.323 91.4993 192.885 91.2771 193.476 91.1925C194.066 91.1078 194.668 91.163 195.234 91.3537C195.799 91.5443 196.311 91.865 196.73 92.29L197.65 93.22C198.701 92.6497 199.647 91.9059 200.45 91.02L199.76 89.91C199.445 89.4025 199.253 88.8279 199.2 88.2327C199.148 87.6374 199.236 87.0381 199.458 86.4832C199.68 85.9284 200.03 85.4335 200.478 85.0386C200.927 84.6438 201.462 84.3599 202.04 84.21L203.3 83.88C203.328 82.6912 203.162 81.5059 202.81 80.37H201.5C200.902 80.3904 200.307 80.2696 199.765 80.0173C199.222 79.765 198.746 79.3884 198.376 78.918C198.006 78.4477 197.752 77.8967 197.635 77.3098C197.517 76.7229 197.54 76.1166 197.7 75.54L198.05 74.28C197.028 73.6675 195.914 73.2251 194.75 72.97L194.14 74.11C193.858 74.6373 193.456 75.0908 192.966 75.4337C192.476 75.7767 191.912 75.9996 191.32 76.0843C190.728 76.169 190.125 76.1132 189.558 75.9213C188.992 75.7295 188.479 75.407 188.06 74.98L187.15 74.05C186.627 74.3614 186.129 74.7124 185.66 75.1ZM189.33 79.79C190.106 79.1747 191.047 78.8037 192.034 78.7239C193.021 78.6441 194.01 78.8592 194.874 79.3419C195.739 79.8245 196.441 80.5531 196.891 81.4351C197.341 82.3172 197.519 83.313 197.402 84.2964C197.286 85.2797 196.88 86.2063 196.236 86.9586C195.592 87.711 194.739 88.2552 193.786 88.5223C192.832 88.7894 191.821 88.7673 190.88 88.459C189.939 88.1506 189.111 87.5697 188.5 86.79C187.686 85.7502 187.316 84.4304 187.472 83.1189C187.627 81.8074 188.295 80.6107 189.33 79.79ZM190.56 81.35C190.089 81.7144 189.738 82.2106 189.55 82.7754C189.362 83.3403 189.346 83.9483 189.505 84.5221C189.663 85.0959 189.989 85.6095 190.441 85.9975C190.892 86.3856 191.449 86.6306 192.04 86.7013C192.631 86.772 193.23 86.6652 193.76 86.3946C194.29 86.124 194.728 85.7017 195.018 85.1815C195.307 84.6614 195.435 84.0668 195.386 83.4736C195.337 82.8803 195.112 82.3151 194.74 81.85C194.248 81.2318 193.532 80.8325 192.748 80.7388C191.963 80.6452 191.174 80.8649 190.55 81.35H190.56Z" fill="#071146"/>
<path d="M537.87 227.63C538.461 227.175 539.098 226.783 539.77 226.46C539.913 226.391 540.073 226.369 540.229 226.396C540.385 226.423 540.529 226.498 540.64 226.61L541.73 227.72C541.973 227.966 542.298 228.113 542.642 228.136C542.987 228.158 543.328 228.053 543.6 227.84C543.753 227.721 543.879 227.571 543.97 227.4L544.7 226.03C544.775 225.891 544.891 225.779 545.033 225.709C545.174 225.639 545.334 225.615 545.49 225.64C546.976 225.869 548.391 226.429 549.63 227.28C549.76 227.37 549.859 227.498 549.913 227.647C549.967 227.796 549.973 227.958 549.93 228.11L549.51 229.62C549.45 229.833 549.441 230.056 549.484 230.273C549.527 230.49 549.62 230.693 549.757 230.867C549.893 231.04 550.069 231.179 550.269 231.272C550.47 231.364 550.689 231.408 550.91 231.4H552.48C552.639 231.394 552.796 231.438 552.929 231.526C553.062 231.614 553.164 231.741 553.22 231.89C553.755 233.295 553.967 234.802 553.84 236.3C553.826 236.457 553.764 236.606 553.662 236.726C553.56 236.846 553.423 236.931 553.27 236.97L551.76 237.36C551.546 237.415 551.349 237.519 551.183 237.664C551.017 237.809 550.888 237.992 550.806 238.197C550.725 238.401 550.692 238.622 550.712 238.842C550.732 239.061 550.803 239.273 550.92 239.46L551.74 240.79C551.824 240.924 551.865 241.08 551.856 241.238C551.847 241.396 551.789 241.547 551.69 241.67C550.75 242.856 549.544 243.805 548.17 244.44C548.028 244.505 547.869 244.525 547.715 244.496C547.561 244.468 547.419 244.392 547.31 244.28L546.22 243.17C546.066 243.012 545.877 242.892 545.668 242.821C545.46 242.75 545.237 242.729 545.019 242.76C544.8 242.792 544.592 242.874 544.412 243.001C544.231 243.128 544.083 243.295 543.98 243.49L543.24 244.87C543.165 245.009 543.049 245.121 542.907 245.191C542.766 245.261 542.606 245.285 542.45 245.26C540.963 245.028 539.548 244.464 538.31 243.61C538.18 243.52 538.081 243.392 538.027 243.243C537.973 243.094 537.967 242.932 538.01 242.78L538.43 241.27C538.49 241.058 538.499 240.834 538.456 240.617C538.413 240.401 538.32 240.197 538.183 240.024C538.047 239.85 537.871 239.711 537.671 239.618C537.47 239.526 537.251 239.482 537.03 239.49H535.46C535.301 239.496 535.144 239.452 535.011 239.364C534.878 239.276 534.776 239.149 534.72 239C534.184 237.595 533.973 236.088 534.1 234.59C534.114 234.433 534.176 234.284 534.278 234.164C534.38 234.044 534.517 233.959 534.67 233.92L536.18 233.53C536.394 233.474 536.592 233.369 536.757 233.222C536.923 233.076 537.052 232.893 537.133 232.687C537.215 232.482 537.247 232.26 537.228 232.04C537.208 231.82 537.137 231.608 537.02 231.42L536.2 230.09C536.117 229.955 536.079 229.798 536.089 229.64C536.1 229.483 536.16 229.332 536.26 229.21C536.74 228.629 537.28 228.099 537.87 227.63ZM538.81 228.83C538.454 229.118 538.12 229.432 537.81 229.77L538.34 230.62C538.582 231.011 538.729 231.453 538.768 231.91C538.808 232.368 538.739 232.829 538.568 233.255C538.396 233.681 538.127 234.062 537.782 234.365C537.437 234.668 537.025 234.885 536.58 235L535.58 235.25C535.567 236.184 535.709 237.113 536 238H537C537.459 237.985 537.916 238.078 538.332 238.272C538.749 238.466 539.114 238.755 539.399 239.116C539.683 239.477 539.878 239.9 539.969 240.351C540.059 240.802 540.043 241.267 539.92 241.71L539.65 242.71C540.434 243.178 541.288 243.516 542.18 243.71L542.65 242.82C542.867 242.417 543.176 242.071 543.552 241.809C543.927 241.547 544.358 241.377 544.811 241.312C545.264 241.247 545.726 241.288 546.16 241.434C546.594 241.58 546.988 241.825 547.31 242.15L548.01 242.87C548.817 242.432 549.544 241.86 550.16 241.18L549.63 240.33C549.388 239.94 549.241 239.499 549.201 239.042C549.161 238.584 549.228 238.124 549.399 237.698C549.569 237.272 549.837 236.892 550.181 236.588C550.525 236.284 550.936 236.066 551.38 235.95L552.38 235.7C552.401 234.785 552.272 233.873 552 233H551C550.541 233.015 550.084 232.922 549.668 232.728C549.251 232.534 548.886 232.245 548.601 231.884C548.317 231.523 548.122 231.1 548.031 230.649C547.941 230.199 547.957 229.733 548.08 229.29L548.35 228.29C547.566 227.822 546.712 227.484 545.82 227.29L545.35 228.17C545.133 228.575 544.824 228.922 544.448 229.186C544.071 229.449 543.639 229.62 543.184 229.685C542.73 229.75 542.266 229.708 541.831 229.561C541.396 229.414 541.002 229.167 540.68 228.84L539.98 228.13C539.577 228.334 539.189 228.568 538.82 228.83H538.81ZM541.63 232.43C542.222 231.964 542.939 231.685 543.691 231.626C544.442 231.568 545.194 231.734 545.851 232.103C546.508 232.472 547.041 233.028 547.382 233.7C547.723 234.371 547.858 235.129 547.768 235.878C547.679 236.626 547.369 237.331 546.879 237.903C546.389 238.475 545.74 238.89 545.015 239.093C544.289 239.297 543.519 239.281 542.803 239.047C542.087 238.813 541.456 238.372 540.99 237.78C540.365 236.986 540.082 235.976 540.202 234.972C540.322 233.969 540.836 233.055 541.63 232.43ZM542.57 233.63C542.213 233.91 541.948 234.289 541.807 234.72C541.667 235.151 541.657 235.614 541.78 236.051C541.902 236.487 542.152 236.877 542.496 237.172C542.841 237.466 543.265 237.652 543.715 237.705C544.165 237.759 544.621 237.677 545.025 237.471C545.429 237.265 545.762 236.944 545.983 236.548C546.204 236.153 546.303 235.7 546.267 235.248C546.231 234.796 546.061 234.365 545.78 234.01C545.404 233.535 544.855 233.228 544.253 233.157C543.652 233.086 543.046 233.256 542.57 233.63Z" fill="#071146"/>
<path d="M308.56 233.6C309.332 233.009 310.163 232.499 311.04 232.08C311.227 231.991 311.438 231.962 311.642 231.998C311.846 232.034 312.034 232.133 312.18 232.28L313.61 233.73C313.925 234.053 314.349 234.248 314.799 234.277C315.25 234.307 315.695 234.169 316.05 233.89C316.248 233.736 316.412 233.541 316.53 233.32L317.53 231.53C317.627 231.355 317.773 231.212 317.952 231.121C318.13 231.031 318.331 230.995 318.53 231.02C320.465 231.318 322.307 232.05 323.92 233.16C324.088 233.278 324.216 233.445 324.286 233.638C324.355 233.832 324.364 234.042 324.31 234.24L323.77 236.24C323.693 236.517 323.682 236.807 323.738 237.089C323.794 237.37 323.916 237.635 324.093 237.86C324.27 238.086 324.498 238.267 324.758 238.389C325.018 238.51 325.303 238.569 325.59 238.56L327.59 238.5C327.803 238.486 328.015 238.54 328.195 238.656C328.375 238.771 328.514 238.941 328.59 239.14C329.29 240.971 329.567 242.937 329.4 244.89C329.382 245.095 329.302 245.29 329.169 245.447C329.037 245.604 328.859 245.717 328.66 245.77L326.66 246.28C326.384 246.353 326.128 246.49 325.915 246.679C325.701 246.868 325.534 247.105 325.428 247.371C325.322 247.636 325.28 247.923 325.304 248.207C325.329 248.492 325.42 248.767 325.57 249.01L326.64 250.74C326.746 250.914 326.796 251.117 326.784 251.321C326.771 251.525 326.697 251.72 326.57 251.88C325.346 253.422 323.777 254.655 321.99 255.48C321.804 255.563 321.597 255.588 321.397 255.55C321.197 255.513 321.013 255.415 320.87 255.27L319.45 253.82C319.249 253.617 319.003 253.464 318.732 253.373C318.461 253.283 318.172 253.257 317.889 253.297C317.606 253.338 317.337 253.445 317.103 253.608C316.868 253.772 316.676 253.988 316.54 254.24L315.54 256.03C315.444 256.205 315.297 256.348 315.118 256.439C314.94 256.529 314.739 256.565 314.54 256.54C312.601 256.24 310.755 255.505 309.14 254.39C308.972 254.272 308.844 254.105 308.775 253.912C308.705 253.718 308.696 253.508 308.75 253.31L309.29 251.31C309.367 251.033 309.378 250.743 309.322 250.461C309.266 250.18 309.144 249.915 308.967 249.69C308.79 249.464 308.562 249.283 308.302 249.161C308.042 249.04 307.757 248.981 307.47 248.99L305.47 249.05C305.257 249.064 305.045 249.01 304.865 248.894C304.685 248.779 304.546 248.61 304.47 248.41C303.77 246.579 303.493 244.613 303.66 242.66C303.678 242.455 303.758 242.261 303.891 242.103C304.023 241.946 304.201 241.833 304.4 241.78L306.4 241.27C306.677 241.196 306.932 241.058 307.146 240.867C307.36 240.677 307.526 240.439 307.632 240.173C307.738 239.907 307.78 239.62 307.755 239.335C307.731 239.05 307.64 238.774 307.49 238.53L306.42 236.8C306.313 236.624 306.263 236.418 306.278 236.212C306.292 236.006 306.37 235.81 306.5 235.65C307.114 234.898 307.805 234.211 308.56 233.6ZM309.79 235.16C309.323 235.537 308.886 235.948 308.48 236.39L309.17 237.5C309.485 238.009 309.677 238.585 309.728 239.181C309.78 239.778 309.691 240.378 309.468 240.934C309.245 241.49 308.895 241.985 308.445 242.38C307.996 242.776 307.46 243.06 306.88 243.21L305.62 243.53C305.593 244.719 305.758 245.904 306.11 247.04H307.42C308.018 247.02 308.613 247.14 309.156 247.393C309.698 247.645 310.174 248.022 310.544 248.492C310.914 248.962 311.168 249.513 311.286 250.1C311.403 250.687 311.381 251.293 311.22 251.87L310.87 253.14C311.892 253.752 313.006 254.195 314.17 254.45L314.79 253.3C315.073 252.775 315.474 252.323 315.963 251.981C316.452 251.639 317.015 251.417 317.605 251.332C318.196 251.248 318.798 251.303 319.363 251.494C319.929 251.684 320.441 252.005 320.86 252.43L321.78 253.36C322.831 252.79 323.777 252.046 324.58 251.16L323.89 250.05C323.575 249.543 323.383 248.968 323.33 248.373C323.278 247.777 323.366 247.178 323.588 246.623C323.81 246.068 324.159 245.574 324.608 245.179C325.056 244.784 325.592 244.5 326.17 244.35L327.43 244.02C327.457 242.831 327.292 241.646 326.94 240.51H325.63C325.032 240.53 324.437 240.41 323.895 240.157C323.352 239.905 322.876 239.528 322.506 239.058C322.136 238.588 321.882 238.037 321.764 237.45C321.647 236.863 321.669 236.257 321.83 235.68L322.18 234.42C321.158 233.808 320.044 233.365 318.88 233.11L318.27 234.25C317.988 234.777 317.586 235.231 317.096 235.574C316.606 235.917 316.042 236.14 315.45 236.224C314.858 236.309 314.255 236.253 313.688 236.061C313.122 235.869 312.609 235.547 312.19 235.12L311.28 234.19C310.756 234.475 310.255 234.8 309.78 235.16H309.79ZM313.46 239.85C314.236 239.235 315.177 238.864 316.164 238.784C317.151 238.704 318.14 238.919 319.004 239.402C319.869 239.885 320.571 240.613 321.021 241.495C321.471 242.377 321.649 243.373 321.532 244.356C321.416 245.34 321.01 246.266 320.366 247.019C319.722 247.771 318.869 248.315 317.916 248.582C316.962 248.849 315.951 248.827 315.01 248.519C314.069 248.211 313.241 247.63 312.63 246.85C311.815 245.811 311.443 244.492 311.597 243.181C311.751 241.87 312.417 240.672 313.45 239.85H313.46ZM314.69 241.41C314.219 241.774 313.868 242.271 313.68 242.835C313.492 243.4 313.476 244.008 313.635 244.582C313.793 245.156 314.119 245.669 314.571 246.058C315.022 246.446 315.579 246.691 316.17 246.761C316.761 246.832 317.36 246.725 317.89 246.455C318.42 246.184 318.858 245.762 319.147 245.242C319.437 244.721 319.565 244.127 319.516 243.534C319.466 242.94 319.242 242.375 318.87 241.91C318.378 241.292 317.662 240.892 316.878 240.799C316.093 240.705 315.304 240.925 314.68 241.41H314.69Z" fill="#071146"/>
<path d="M519.977 27.5877C520.749 26.9963 521.58 26.4869 522.457 26.0677C522.645 25.9787 522.855 25.9502 523.059 25.986C523.263 26.0219 523.451 26.1203 523.597 26.2677L525.027 27.7177C525.343 28.0406 525.766 28.2355 526.217 28.2651C526.667 28.2946 527.112 28.1566 527.467 27.8777C527.665 27.7233 527.829 27.5291 527.947 27.3077L528.947 25.5177C529.044 25.3424 529.191 25.2001 529.369 25.1092C529.547 25.0182 529.749 24.9829 529.947 25.0077C531.882 25.3061 533.725 26.0376 535.337 27.1477C535.505 27.2659 535.633 27.4329 535.703 27.6262C535.772 27.8194 535.781 28.0294 535.727 28.2277L535.187 30.2277C535.103 30.5043 535.086 30.7967 535.137 31.0811C535.188 31.3655 535.306 31.6338 535.481 31.864C535.655 32.0942 535.882 32.2798 536.142 32.4056C536.402 32.5314 536.688 32.5938 536.977 32.5877L538.977 32.5277C539.19 32.5136 539.403 32.5681 539.583 32.6833C539.762 32.7984 539.901 32.9682 539.977 33.1677C540.677 34.9988 540.954 36.9645 540.787 38.9177C540.769 39.1227 540.689 39.3172 540.556 39.4747C540.424 39.6322 540.246 39.745 540.047 39.7977L538.047 40.3077C537.771 40.3807 537.516 40.5174 537.302 40.7068C537.088 40.8962 536.921 41.1331 536.815 41.3984C536.709 41.6638 536.667 41.9503 536.692 42.2349C536.716 42.5196 536.807 42.7945 536.957 43.0377L538.027 44.7677C538.133 44.9422 538.184 45.1449 538.171 45.3487C538.158 45.5525 538.084 45.7476 537.957 45.9077C536.733 47.4493 535.164 48.6823 533.377 49.5077C533.191 49.5909 532.985 49.6154 532.784 49.5779C532.584 49.5403 532.4 49.4426 532.257 49.2977L530.837 47.8477C530.636 47.6448 530.39 47.4918 530.119 47.4011C529.848 47.3103 529.559 47.2843 529.277 47.3252C528.994 47.366 528.724 47.4725 528.49 47.6362C528.256 47.7999 528.063 48.0162 527.927 48.2677L526.927 50.0577C526.831 50.233 526.684 50.3753 526.506 50.4663C526.327 50.5572 526.126 50.5925 525.927 50.5677C523.988 50.2678 522.142 49.5327 520.527 48.4177C520.359 48.2996 520.232 48.1325 520.162 47.9393C520.092 47.746 520.083 47.536 520.137 47.3377L520.677 45.3377C520.754 45.0612 520.765 44.7705 520.709 44.489C520.653 44.2075 520.531 43.9431 520.354 43.7173C520.177 43.4915 519.949 43.3105 519.689 43.189C519.429 43.0674 519.144 43.0088 518.857 43.0177L516.857 43.0777C516.644 43.0919 516.432 43.0374 516.252 42.9222C516.072 42.807 515.934 42.6372 515.857 42.4377C515.157 40.6066 514.88 38.6409 515.047 36.6877C515.065 36.4827 515.146 36.2882 515.278 36.1307C515.411 35.9732 515.588 35.8604 515.787 35.8077L517.787 35.2977C518.06 35.2232 518.312 35.0867 518.524 34.8989C518.736 34.711 518.901 34.4769 519.007 34.2147C519.114 33.9526 519.158 33.6694 519.138 33.3872C519.117 33.105 519.031 32.8314 518.887 32.5877L517.817 30.8577C517.71 30.6812 517.661 30.4759 517.675 30.27C517.689 30.0641 517.767 29.8677 517.897 29.7077C518.514 28.9299 519.211 28.2192 519.977 27.5877ZM521.207 29.1477C520.741 29.5247 520.303 29.9358 519.897 30.3777L520.587 31.4877C520.903 31.9967 521.094 32.5726 521.146 33.1691C521.197 33.7655 521.108 34.3658 520.885 34.9215C520.663 35.4772 520.312 35.9727 519.863 36.3681C519.413 36.7635 518.877 37.0477 518.297 37.1977L517.037 37.5177C517.01 38.7065 517.175 39.8919 517.527 41.0277H518.837C519.435 41.0073 520.03 41.1282 520.573 41.3805C521.116 41.6327 521.591 42.0093 521.961 42.4797C522.331 42.9501 522.585 43.5011 522.703 44.0879C522.82 44.6748 522.798 45.2811 522.637 45.8577L522.287 47.1277C523.309 47.7402 524.424 48.1826 525.587 48.4377L526.207 47.2877C526.49 46.7622 526.892 46.3104 527.381 45.9687C527.87 45.6269 528.432 45.4048 529.023 45.3202C529.613 45.2355 530.215 45.2907 530.781 45.4814C531.346 45.672 531.859 45.9927 532.277 46.4177L533.197 47.3477C534.248 46.7774 535.195 46.0336 535.997 45.1477L535.307 44.0377C534.992 43.5302 534.8 42.9556 534.748 42.3603C534.695 41.7651 534.783 41.1658 535.005 40.6109C535.227 40.0561 535.577 39.5612 536.025 39.1663C536.474 38.7714 537.009 38.4876 537.587 38.3377L538.847 38.0077C538.875 36.8189 538.709 35.6335 538.357 34.4977H537.047C536.449 34.5181 535.855 34.3972 535.312 34.145C534.769 33.8927 534.293 33.5161 533.923 33.0457C533.553 32.5753 533.299 32.0244 533.182 31.4375C533.064 30.8506 533.087 30.2443 533.247 29.6677L533.597 28.4077C532.575 27.7952 531.461 27.3528 530.297 27.0977L529.667 28.2677C529.385 28.795 528.983 29.2485 528.493 29.5914C528.003 29.9344 527.439 30.1573 526.848 30.242C526.256 30.3267 525.652 30.2709 525.086 30.079C524.519 29.8872 524.006 29.5647 523.587 29.1377L522.677 28.2077C522.164 28.4975 521.672 28.8251 521.207 29.1877V29.1477ZM524.877 33.8377C525.653 33.2224 526.594 32.8514 527.581 32.7716C528.568 32.6918 529.557 32.9069 530.421 33.3895C531.286 33.8722 531.988 34.6008 532.438 35.4828C532.888 36.3649 533.066 37.3607 532.949 38.344C532.833 39.3274 532.427 40.254 531.783 41.0063C531.139 41.7586 530.286 42.3029 529.333 42.57C528.379 42.8371 527.368 42.815 526.427 42.5066C525.486 42.1983 524.658 41.6174 524.047 40.8377C523.244 39.8017 522.88 38.4917 523.034 37.19C523.187 35.8883 523.846 34.6988 524.867 33.8777L524.877 33.8377ZM526.107 35.3977C525.636 35.7621 525.285 36.2583 525.097 36.8231C524.909 37.388 524.893 37.996 525.052 38.5698C525.211 39.1436 525.536 39.6572 525.988 40.0452C526.439 40.4333 526.996 40.6783 527.587 40.749C528.178 40.8197 528.777 40.7129 529.307 40.4423C529.837 40.1717 530.275 39.7494 530.565 39.2292C530.854 38.7091 530.982 38.1145 530.933 37.5212C530.884 36.928 530.659 36.3628 530.287 35.8977C529.79 35.2855 529.071 34.8939 528.287 34.8078C527.502 34.7218 526.716 34.948 526.097 35.4377L526.107 35.3977Z" fill="#071146"/>
<path d="M114.71 120.24C122.917 120.24 129.57 113.587 129.57 105.38C129.57 97.1731 122.917 90.52 114.71 90.52C106.503 90.52 99.8501 97.1731 99.8501 105.38C99.8501 113.587 106.503 120.24 114.71 120.24Z" fill="white"/>
<path d="M118.08 99.79C118.08 97.7245 116.406 96.05 114.34 96.05C112.275 96.05 110.6 97.7245 110.6 99.79C110.6 101.856 112.275 103.53 114.34 103.53C116.406 103.53 118.08 101.856 118.08 99.79Z" stroke="#071146" stroke-width="2" stroke-linecap="round" stroke-linejoin="round"/>
<path d="M114.653 113.82C113.149 113.815 111.709 113.213 110.649 112.146C109.589 111.08 108.997 109.635 109.002 108.132L109.005 107.262C109.006 106.996 109.112 106.742 109.3 106.555C109.488 106.369 109.743 106.264 110.008 106.265L119.338 106.296C119.603 106.297 119.857 106.403 120.044 106.591C120.231 106.779 120.336 107.034 120.335 107.299L120.332 108.169C120.327 109.673 119.725 111.113 118.658 112.173C117.591 113.233 116.147 113.825 114.643 113.82L114.653 113.82Z" stroke="#071146" stroke-width="2" stroke-linecap="round" stroke-linejoin="round"/>
<path d="M227.6 250.55C235.807 250.55 242.46 243.897 242.46 235.69C242.46 227.483 235.807 220.83 227.6 220.83C219.393 220.83 212.74 227.483 212.74 235.69C212.74 243.897 219.393 250.55 227.6 250.55Z" fill="white"/>
<path d="M231.363 230.448C231.37 228.382 229.701 226.702 227.636 226.695C225.57 226.689 223.89 228.357 223.883 230.423C223.877 232.489 225.546 234.169 227.611 234.175C229.677 234.182 231.357 232.513 231.363 230.448Z" stroke="#071146" stroke-width="2" stroke-linecap="round" stroke-linejoin="round"/>
<path d="M227.556 244.117C226.052 244.112 224.612 243.51 223.552 242.443C222.492 241.376 221.9 239.932 221.905 238.428L221.908 237.558C221.908 237.293 222.015 237.039 222.203 236.852C222.391 236.665 222.646 236.56 222.911 236.561L232.181 236.592C232.446 236.593 232.7 236.699 232.887 236.887C233.074 237.075 233.178 237.33 233.177 237.595L233.175 238.465C233.17 239.957 232.577 241.387 231.525 242.445C230.474 243.503 229.047 244.103 227.556 244.117V244.117Z" stroke="#071146" stroke-width="2" stroke-linecap="round" stroke-linejoin="round"/>
<path d="M542.67 143.12C550.877 143.12 557.53 136.467 557.53 128.26C557.53 120.053 550.877 113.4 542.67 113.4C534.463 113.4 527.81 120.053 527.81 128.26C527.81 136.467 534.463 143.12 542.67 143.12Z" fill="white"/>
<path d="M546.459 123.013C546.466 120.948 544.797 119.268 542.731 119.261C540.666 119.254 538.986 120.923 538.979 122.988C538.972 125.054 540.641 126.734 542.706 126.741C544.772 126.748 546.452 125.079 546.459 123.013Z" stroke="#071146" stroke-width="2" stroke-linecap="round" stroke-linejoin="round"/>
<path d="M542.621 136.661C541.117 136.656 539.677 136.054 538.617 134.987C537.558 133.921 536.965 132.476 536.97 130.973L536.973 130.103C536.974 129.837 537.08 129.583 537.268 129.396C537.456 129.21 537.711 129.105 537.976 129.106L547.266 129.137C547.531 129.138 547.785 129.244 547.972 129.432C548.159 129.62 548.264 129.875 548.263 130.14L548.26 131.01C548.255 132.505 547.66 133.938 546.604 134.996C545.548 136.055 544.116 136.653 542.621 136.661Z" stroke="#071146" stroke-width="2" stroke-linecap="round" stroke-linejoin="round"/>
<path d="M302.81 71.91C311.017 71.91 317.67 65.257 317.67 57.05C317.67 48.8431 311.017 42.19 302.81 42.19C294.603 42.19 287.95 48.8431 287.95 57.05C287.95 65.257 294.603 71.91 302.81 71.91Z" fill="#FEDB8F"/>
<path d="M306.574 51.8058C306.581 49.7402 304.912 48.0602 302.846 48.0534C300.781 48.0465 299.101 49.7154 299.094 51.781C299.087 53.8465 300.756 55.5265 302.822 55.5333C304.887 55.5402 306.567 53.8713 306.574 51.8058Z" stroke="#071146" stroke-width="2" stroke-linecap="round" stroke-linejoin="round"/>
<path d="M302.754 65.4764C301.25 65.4714 299.81 64.8692 298.75 63.8024C297.69 62.7355 297.097 61.2914 297.102 59.7876L297.105 58.9176C297.106 58.6524 297.212 58.3984 297.4 58.2115C297.589 58.0246 297.843 57.92 298.109 57.9209L307.379 57.9517C307.644 57.9525 307.898 58.0587 308.085 58.2469C308.272 58.4351 308.376 58.6898 308.375 58.955L308.372 59.825C308.367 61.3287 307.765 62.7689 306.698 63.8287C305.631 64.8885 304.187 65.4811 302.684 65.4761L302.754 65.4764Z" stroke="#071146" stroke-width="2" stroke-linecap="round" stroke-linejoin="round"/>
<path d="M422.45 253.67C430.657 253.67 437.31 247.017 437.31 238.81C437.31 230.603 430.657 223.95 422.45 223.95C414.243 223.95 407.59 230.603 407.59 238.81C407.59 247.017 414.243 253.67 422.45 253.67Z" fill="#FEDB8F"/>
<path d="M426.219 233.579C426.226 231.514 424.557 229.834 422.492 229.827C420.426 229.82 418.746 231.489 418.739 233.554C418.733 235.62 420.401 237.3 422.467 237.307C424.533 237.314 426.213 235.645 426.219 233.579Z" stroke="#071146" stroke-width="2" stroke-linecap="round" stroke-linejoin="round"/>
<path d="M422.407 247.221C420.904 247.216 419.463 246.613 418.404 245.547C417.344 244.48 416.751 243.036 416.756 241.532L416.759 240.662C416.76 240.397 416.866 240.143 417.054 239.956C417.242 239.769 417.497 239.664 417.762 239.665L427.032 239.696C427.298 239.697 427.552 239.803 427.738 239.991C427.925 240.179 428.03 240.434 428.029 240.699L428.026 241.569C428.024 242.314 427.875 243.051 427.587 243.738C427.3 244.425 426.88 245.048 426.352 245.573C425.824 246.098 425.197 246.513 424.509 246.796C423.82 247.079 423.082 247.223 422.337 247.22L422.407 247.221Z" stroke="#071146" stroke-width="2" stroke-linecap="round" stroke-linejoin="round"/>
<path d="M350.642 195.172C364.347 180.99 363.96 158.383 349.778 144.678C335.596 130.973 312.989 131.36 299.284 145.542C285.579 159.724 285.966 182.331 300.148 196.036C314.33 209.741 336.937 209.354 350.642 195.172Z" fill="white"/>
<path d="M351.8 138.06L356.14 133.57L365.88 142.98L361.55 147.47" stroke="#071146" stroke-width="2" stroke-linecap="round" stroke-linejoin="round"/>
<path d="M358.646 135.982L393.913 99.4882C394.576 98.8017 395.485 98.4068 396.44 98.3905C397.394 98.3741 398.316 98.7377 399.003 99.4012V99.4012C399.69 100.065 400.085 100.974 400.101 101.928C400.117 102.883 399.754 103.805 399.09 104.492L363.823 140.986L358.646 135.982V135.982Z" stroke="#071146" stroke-width="2" stroke-linecap="round" stroke-linejoin="round"/>
<path d="M357.621 199.617C373.249 183.445 372.808 157.667 356.636 142.039C340.464 126.411 314.686 126.852 299.058 143.024C283.43 159.196 283.871 184.974 300.043 200.602C316.215 216.23 341.993 215.789 357.621 199.617Z" stroke="#071146" stroke-width="2" stroke-linecap="round" stroke-linejoin="round"/>
<path d="M354.018 196.136C367.723 181.954 367.337 159.347 353.155 145.642C338.973 131.936 316.365 132.323 302.66 146.505C288.955 160.687 289.342 183.294 303.524 196.999C317.706 210.704 340.313 210.318 354.018 196.136Z" stroke="#071146" stroke-width="2" stroke-linecap="round" stroke-linejoin="round"/>
<path d="M451.512 188.776C465.218 174.594 464.831 151.987 450.649 138.282C436.467 124.577 413.86 124.964 400.155 139.146C386.45 153.328 386.836 175.935 401.018 189.64C415.2 203.345 437.807 202.958 451.512 188.776Z" fill="white"/>
<path d="M398.99 196.27L394.65 200.76L384.91 191.34L389.25 186.85" stroke="#071146" stroke-width="2" stroke-linecap="round" stroke-linejoin="round"/>
<path d="M392.143 198.342L356.876 234.836C356.212 235.523 355.303 235.917 354.349 235.934C353.394 235.95 352.472 235.587 351.786 234.923C351.099 234.26 350.704 233.35 350.688 232.396C350.671 231.441 351.035 230.519 351.698 229.833L386.965 193.338L392.143 198.342Z" stroke="#071146" stroke-width="2" stroke-linecap="round" stroke-linejoin="round"/>
<path d="M451.729 191.294C467.357 175.123 466.916 149.344 450.744 133.716C434.572 118.088 408.794 118.529 393.166 134.701C377.538 150.873 377.979 176.651 394.151 192.279C410.323 207.907 436.101 207.466 451.729 191.294Z" stroke="#071146" stroke-width="2" stroke-linecap="round" stroke-linejoin="round"/>
<path d="M448.126 187.813C461.831 173.631 461.445 151.024 447.263 137.319C433.08 123.614 410.473 124 396.768 138.182C383.063 152.364 383.45 174.972 397.632 188.677C411.814 202.382 434.421 201.995 448.126 187.813Z" stroke="#071146" stroke-width="2" stroke-linecap="round" stroke-linejoin="round"/>
<path d="M328.32 194.88C325.243 194.916 322.188 194.363 319.32 193.25C316.663 192.216 314.25 190.641 312.234 188.626C310.218 186.61 308.644 184.197 307.61 181.54C305.443 175.736 305.443 169.344 307.61 163.54C308.643 160.883 310.217 158.469 312.233 156.453C314.249 154.437 316.662 152.863 319.32 151.83C325.124 149.661 331.516 149.661 337.32 151.83C339.978 152.862 342.392 154.436 344.408 156.452C346.424 158.468 347.998 160.882 349.03 163.54C350.14 166.409 350.693 169.464 350.66 172.54C350.697 174.916 350.339 177.282 349.6 179.54C349.03 181.361 348.025 183.016 346.67 184.36C345.512 185.497 343.952 186.13 342.33 186.12C341.688 186.144 341.048 186.035 340.45 185.8C339.852 185.565 339.309 185.21 338.854 184.755C338.4 184.301 338.044 183.758 337.81 183.16C337.575 182.562 337.466 181.922 337.49 181.28V179.87C336.873 180.78 336.089 181.564 335.18 182.18C334.18 182.878 333.081 183.42 331.92 183.79C330.747 184.168 329.522 184.36 328.29 184.36C326.152 184.398 324.041 183.874 322.17 182.84C320.405 181.856 318.948 180.403 317.96 178.64C316.962 176.747 316.441 174.64 316.441 172.5C316.441 170.36 316.962 168.253 317.96 166.36C318.948 164.598 320.405 163.144 322.17 162.16C324.059 161.163 326.163 160.641 328.3 160.641C330.436 160.641 332.54 161.163 334.43 162.16C336.183 163.148 337.63 164.602 338.61 166.36C339.647 168.245 340.171 170.369 340.13 172.52V180.4C340.052 181.241 340.272 182.083 340.75 182.78C340.944 183.011 341.188 183.194 341.463 183.317C341.739 183.44 342.038 183.499 342.34 183.49C342.904 183.484 343.461 183.354 343.971 183.111C344.48 182.867 344.93 182.516 345.29 182.08C346.237 180.956 346.921 179.633 347.29 178.21C347.802 176.361 348.048 174.448 348.02 172.53C348.053 169.818 347.561 167.125 346.57 164.6C345.651 162.256 344.258 160.128 342.479 158.347C340.7 156.566 338.572 155.171 336.23 154.25C331.124 152.313 325.486 152.313 320.38 154.25C318.039 155.178 315.913 156.573 314.13 158.35C312.358 160.132 310.973 162.259 310.06 164.6C308.154 169.711 308.154 175.339 310.06 180.45C310.969 182.794 312.357 184.923 314.136 186.7C315.915 188.477 318.045 189.863 320.39 190.77C322.918 191.746 325.61 192.231 328.32 192.2C329.78 192.19 331.234 192.025 332.66 191.71C333.957 191.456 335.222 191.057 336.43 190.52C336.642 190.383 336.882 190.295 337.133 190.26C337.383 190.226 337.638 190.246 337.88 190.32C338.26 190.48 338.45 190.86 338.45 191.44C338.45 192.02 338.02 192.44 337.15 192.94C336.034 193.563 334.83 194.015 333.58 194.28C331.856 194.687 330.091 194.888 328.32 194.88ZM328.32 181.76C329.98 181.79 331.62 181.38 333.07 180.57C334.431 179.798 335.558 178.671 336.33 177.31C337.14 175.86 337.551 174.221 337.52 172.56C337.555 170.883 337.144 169.227 336.33 167.76C335.557 166.399 334.431 165.273 333.07 164.5C331.606 163.719 329.973 163.311 328.315 163.311C326.656 163.311 325.023 163.719 323.56 164.5C322.2 165.274 321.073 166.4 320.3 167.76C319.485 169.226 319.074 170.883 319.11 172.56C319.078 174.221 319.489 175.86 320.3 177.31C321.073 178.67 322.199 179.797 323.56 180.57C325.013 181.382 326.656 181.793 328.32 181.76Z" fill="#FCAA90" stroke="#FCAA90" stroke-width="0.5" stroke-miterlimit="10"/>
<path d="M422.43 185.34C419.354 185.376 416.299 184.823 413.43 183.71C410.777 182.674 408.368 181.098 406.356 179.082C404.344 177.067 402.772 174.655 401.74 172C399.573 166.196 399.573 159.804 401.74 154C402.773 151.343 404.347 148.929 406.363 146.913C408.379 144.897 410.793 143.323 413.45 142.29C419.254 140.121 425.646 140.121 431.45 142.29C434.11 143.321 436.526 144.894 438.544 146.91C440.562 148.926 442.137 151.341 443.17 154C444.28 156.869 444.833 159.924 444.8 163C444.837 165.376 444.479 167.742 443.74 170C443.171 171.821 442.165 173.476 440.81 174.82C439.653 175.957 438.093 176.59 436.47 176.58C435.828 176.604 435.188 176.495 434.59 176.26C433.992 176.025 433.449 175.67 432.995 175.215C432.54 174.761 432.185 174.218 431.95 173.62C431.715 173.022 431.606 172.382 431.63 171.74V170.33C431.014 171.24 430.23 172.024 429.32 172.64C428.321 173.338 427.222 173.88 426.06 174.25C424.887 174.628 423.662 174.82 422.43 174.82C420.292 174.858 418.182 174.334 416.31 173.3C414.545 172.316 413.088 170.863 412.1 169.1C411.103 167.207 410.581 165.1 410.581 162.96C410.581 160.82 411.103 158.713 412.1 156.82C413.088 155.057 414.545 153.604 416.31 152.62C418.199 151.623 420.304 151.101 422.44 151.101C424.577 151.101 426.681 151.623 428.57 152.62C430.324 153.608 431.77 155.062 432.75 156.82C433.788 158.705 434.312 160.829 434.27 162.98V170.86C434.193 171.701 434.412 172.543 434.89 173.24C435.085 173.471 435.328 173.654 435.604 173.777C435.879 173.9 436.179 173.959 436.48 173.95C437.045 173.944 437.601 173.814 438.111 173.571C438.62 173.327 439.071 172.976 439.43 172.54C440.378 171.416 441.061 170.093 441.43 168.67C441.943 166.821 442.188 164.908 442.16 162.99C442.193 160.278 441.701 157.585 440.71 155.06C439.791 152.716 438.399 150.588 436.619 148.807C434.84 147.026 432.713 145.631 430.37 144.71C425.264 142.773 419.626 142.773 414.52 144.71C412.18 145.638 410.053 147.033 408.27 148.81C406.499 150.592 405.113 152.719 404.2 155.06C402.294 160.171 402.294 165.799 404.2 170.91C405.109 173.254 406.498 175.383 408.276 177.16C410.055 178.937 412.185 180.323 414.53 181.23C417.059 182.206 419.75 182.691 422.46 182.66C423.92 182.65 425.375 182.485 426.8 182.17C428.098 181.916 429.362 181.517 430.57 180.98C430.783 180.843 431.023 180.755 431.273 180.72C431.523 180.686 431.778 180.706 432.02 180.78C432.4 180.94 432.59 181.32 432.59 181.9C432.59 182.48 432.16 182.9 431.29 183.4C430.174 184.023 428.971 184.475 427.72 184.74C425.987 185.149 424.211 185.351 422.43 185.34ZM422.43 172.22C424.091 172.25 425.73 171.84 427.18 171.03C428.541 170.258 429.668 169.131 430.44 167.77C431.25 166.32 431.661 164.681 431.63 163.02C431.665 161.343 431.254 159.687 430.44 158.22C429.668 156.859 428.541 155.733 427.18 154.96C425.717 154.179 424.084 153.771 422.425 153.771C420.767 153.771 419.133 154.179 417.67 154.96C416.31 155.734 415.184 156.86 414.41 158.22C413.595 159.686 413.185 161.343 413.22 163.02C413.189 164.681 413.599 166.32 414.41 167.77C415.183 169.13 416.31 170.257 417.67 171.03C419.123 171.842 420.766 172.253 422.43 172.22Z" fill="#FCAA90" stroke="#FCAA90" stroke-width="0.5" stroke-miterlimit="10"/>
<path d="M266 113.91L252.35 127.56C251.531 128.412 250.551 129.093 249.466 129.562C248.381 130.031 247.213 130.279 246.031 130.291C244.85 130.304 243.677 130.08 242.583 129.634C241.488 129.188 240.494 128.528 239.657 127.693C238.821 126.858 238.159 125.864 237.711 124.771C237.263 123.677 237.038 122.505 237.049 121.323C237.059 120.141 237.305 118.973 237.772 117.887C238.24 116.802 238.919 115.82 239.77 115L253.42 101.35C254.239 100.498 255.219 99.817 256.304 99.348C257.389 98.879 258.556 98.6311 259.738 98.6187C260.92 98.6064 262.093 98.8298 263.187 99.2759C264.282 99.7221 265.276 100.382 266.113 101.217C266.949 102.052 267.611 103.046 268.058 104.139C268.506 105.233 268.732 106.405 268.721 107.587C268.711 108.769 268.465 109.937 267.997 111.023C267.53 112.108 266.851 113.09 266 113.91ZM241.19 116.41C239.958 117.714 239.284 119.446 239.309 121.239C239.334 123.033 240.058 124.745 241.326 126.014C242.594 127.282 244.307 128.005 246.1 128.031C247.894 128.056 249.626 127.382 250.93 126.15L264.58 112.5C265.25 111.867 265.786 111.107 266.156 110.263C266.527 109.42 266.725 108.511 266.738 107.589C266.751 106.668 266.579 105.754 266.232 104.9C265.886 104.047 265.372 103.271 264.72 102.62C264.069 101.968 263.293 101.454 262.44 101.108C261.586 100.761 260.672 100.589 259.75 100.602C258.829 100.615 257.92 100.813 257.077 101.184C256.233 101.554 255.473 102.09 254.84 102.76L241.19 116.41Z" fill="#071146"/>
<path d="M273.93 95.76L267.07 102.62C267.07 102.62 266.66 102.07 266.48 101.87C266.3 101.67 265.75 101.11 265.75 101.11L272.51 94.35C273.742 93.0464 274.416 91.3138 274.391 89.5206C274.365 87.7273 273.642 86.0146 272.373 84.7465C271.105 83.4783 269.393 82.7546 267.599 82.7291C265.806 82.7036 264.074 83.3784 262.77 84.61L249.12 98.26C247.888 99.5637 247.213 101.296 247.239 103.09C247.264 104.883 247.988 106.595 249.256 107.864C250.524 109.132 252.237 109.855 254.03 109.881C255.824 109.906 257.556 109.232 258.86 108L264.33 102.53C264.33 102.53 264.76 102.94 265.08 103.32C265.277 103.558 265.454 103.813 265.61 104.08L260.27 109.42C259.45 110.272 258.469 110.952 257.384 111.42C256.299 111.888 255.131 112.135 253.949 112.146C252.767 112.158 251.595 111.933 250.501 111.486C249.407 111.039 248.413 110.379 247.577 109.543C246.741 108.707 246.08 107.713 245.633 106.619C245.186 105.525 244.962 104.353 244.974 103.171C244.985 101.989 245.232 100.821 245.7 99.7358C246.168 98.6505 246.848 97.6694 247.7 96.85L261.36 83.2C263.038 81.5861 265.281 80.6947 267.609 80.7172C269.937 80.7398 272.163 81.6745 273.809 83.3206C275.455 84.9667 276.39 87.1929 276.413 89.5207C276.435 91.8485 275.544 94.0923 273.93 95.77V95.76Z" fill="white"/>
<path d="M48.24 241.16L34.59 227.51C33.7382 226.691 33.0584 225.71 32.5903 224.624C32.1222 223.539 31.8751 222.371 31.8637 221.189C31.8523 220.007 32.0766 218.835 32.5236 217.741C32.9706 216.647 33.6313 215.653 34.4671 214.817C35.3029 213.981 36.2969 213.321 37.391 212.874C38.4852 212.427 39.6575 212.202 40.8394 212.214C42.0213 212.225 43.189 212.472 44.2743 212.94C45.3596 213.408 46.3406 214.088 47.16 214.94L60.81 228.59C62.424 230.268 63.3154 232.512 63.2929 234.839C63.2703 237.167 62.3356 239.393 60.6895 241.039C59.0434 242.686 56.8172 243.62 54.4894 243.643C52.1615 243.665 49.9177 242.774 48.24 241.16ZM45.74 216.35C44.4364 215.118 42.7038 214.444 40.9106 214.469C39.1173 214.495 37.4046 215.218 36.1365 216.486C34.8683 217.755 34.1446 219.467 34.1191 221.261C34.0936 223.054 34.7684 224.786 36 226.09L49.65 239.74C50.9416 241.033 52.694 241.76 54.5215 241.761C56.349 241.762 58.1021 241.037 59.395 239.745C60.688 238.453 61.4149 236.701 61.4158 234.874C61.4167 233.046 60.6916 231.293 59.4 230L45.74 216.35Z" fill="#071146"/>
<path d="M66.3898 249.1L59.5298 242.24C59.5298 242.24 60.0798 241.83 60.2798 241.65C60.4798 241.47 61.0398 240.92 61.0398 240.92L67.7998 247.68C69.1035 248.912 70.836 249.586 72.6293 249.561C74.4226 249.535 76.1352 248.812 77.4034 247.544C78.6716 246.275 79.3953 244.563 79.4207 242.77C79.4462 240.976 78.7715 239.244 77.5398 237.94L63.8898 224.29C62.5772 223.128 60.871 222.51 59.1188 222.562C57.3665 222.614 55.6999 223.332 54.4584 224.569C53.2169 225.807 52.4938 227.472 52.4365 229.224C52.3792 230.976 52.9919 232.684 54.1498 234L59.6198 239.47C59.6198 239.47 59.2098 239.9 58.8298 240.22C58.5914 240.417 58.3372 240.594 58.0698 240.75L52.7298 235.41C51.1159 233.732 50.2245 231.489 50.247 229.161C50.2695 226.833 51.2043 224.607 52.8504 222.961C54.4965 221.314 56.7226 220.38 59.0505 220.357C61.3783 220.335 63.6221 221.226 65.2998 222.84L78.9998 236.53C79.8252 237.358 80.4794 238.34 80.9251 239.421C81.3707 240.502 81.5992 241.66 81.5973 242.829C81.5954 243.998 81.3633 245.156 80.9142 246.235C80.4651 247.314 79.8078 248.295 78.9798 249.12C78.1518 249.945 77.1694 250.6 76.0886 251.045C75.0078 251.491 73.8498 251.719 72.6807 251.717C71.5116 251.716 70.3543 251.484 69.2749 251.034C68.1955 250.585 67.2152 249.928 66.3898 249.1Z" fill="white"/>
<path d="M84.6802 173.11L71.0002 159.45C69.3346 157.779 68.401 155.515 68.4048 153.156C68.4085 150.797 69.3493 148.536 71.0202 146.87C72.6911 145.204 74.9551 144.271 77.3143 144.275C79.6735 144.278 81.9346 145.219 83.6002 146.89L97.2502 160.54C98.102 161.359 98.7818 162.34 99.25 163.426C99.7181 164.511 99.9651 165.679 99.9765 166.861C99.988 168.043 99.7636 169.215 99.3166 170.309C98.8696 171.403 98.2089 172.397 97.3731 173.233C96.5374 174.069 95.5434 174.729 94.4492 175.176C93.355 175.623 92.1827 175.848 91.0009 175.836C89.819 175.825 88.6512 175.578 87.5659 175.11C86.4807 174.642 85.4996 173.962 84.6802 173.11ZM82.1802 148.3C80.8639 147.169 79.1692 146.576 77.4349 146.64C75.7006 146.705 74.0544 147.421 72.8253 148.646C71.5962 149.871 70.8748 151.516 70.8052 153.25C70.7357 154.984 71.3232 156.68 72.4502 158L86.1002 171.69C86.7161 172.413 87.4747 173 88.3284 173.416C89.1821 173.831 90.1125 174.066 91.0611 174.105C92.0098 174.144 92.9563 173.987 93.8413 173.642C94.7262 173.298 95.5305 172.775 96.2036 172.105C96.8767 171.436 97.4042 170.634 97.7528 169.751C98.1015 168.868 98.2639 167.922 98.2297 166.973C98.1956 166.024 97.9657 165.093 97.5545 164.237C97.1433 163.381 96.5597 162.62 95.8402 162L82.1802 148.3Z" fill="#071146"/>
<path d="M102.83 181L96.0001 174.18C96.0001 174.18 96.5501 173.77 96.7501 173.59C96.9501 173.41 97.5101 172.86 97.5101 172.86L104.27 179.62C104.903 180.29 105.663 180.826 106.507 181.196C107.35 181.567 108.259 181.765 109.181 181.778C110.102 181.791 111.016 181.619 111.87 181.273C112.724 180.926 113.499 180.412 114.15 179.76C114.802 179.109 115.316 178.333 115.663 177.48C116.009 176.626 116.181 175.712 116.168 174.791C116.155 173.869 115.957 172.96 115.586 172.117C115.216 171.273 114.68 170.513 114.01 169.88L100.36 156.23C99.7186 155.589 98.957 155.08 98.1189 154.732C97.2807 154.385 96.3823 154.207 95.4751 154.207C94.5679 154.207 93.6695 154.385 92.8314 154.732C91.9932 155.08 91.2316 155.589 90.5901 156.23C89.9486 156.872 89.4397 157.633 89.0926 158.471C88.7454 159.309 88.5667 160.208 88.5667 161.115C88.5667 162.022 88.7454 162.921 89.0926 163.759C89.4397 164.597 89.9486 165.359 90.5901 166L96.0601 171.47C96.0601 171.47 95.6501 171.9 95.2701 172.22C95.0317 172.417 94.7775 172.594 94.5101 172.75L89.1701 167.41C88.3183 166.591 87.6385 165.61 87.1704 164.524C86.7022 163.439 86.4552 162.271 86.4438 161.089C86.4323 159.907 86.6567 158.735 87.1037 157.641C87.5507 156.547 88.2114 155.553 89.0472 154.717C89.8829 153.881 90.877 153.221 91.9711 152.774C93.0653 152.327 94.2376 152.102 95.4195 152.114C96.6013 152.125 97.7691 152.372 98.8544 152.84C99.9397 153.308 100.921 153.988 101.74 154.84L115.39 168.49C116.843 170.194 117.6 172.383 117.51 174.62C117.419 176.858 116.487 178.978 114.901 180.559C113.314 182.139 111.19 183.062 108.952 183.144C106.714 183.226 104.528 182.46 102.83 181Z" fill="white"/>
<path d="M517 184.53L503.35 170.88C501.736 169.202 500.845 166.959 500.867 164.631C500.89 162.303 501.824 160.077 503.471 158.431C505.117 156.784 507.343 155.85 509.671 155.827C511.998 155.805 514.242 156.696 515.92 158.31L529.59 172C531.132 173.693 531.961 175.915 531.905 178.204C531.848 180.493 530.911 182.672 529.289 184.287C527.666 185.902 525.482 186.829 523.193 186.874C520.904 186.92 518.685 186.08 517 184.53ZM514.5 159.72C513.196 158.488 511.464 157.814 509.67 157.839C507.877 157.865 506.165 158.588 504.896 159.856C503.628 161.125 502.904 162.837 502.879 164.631C502.854 166.424 503.528 168.156 504.76 169.46L518.41 183.11C519.043 183.78 519.803 184.316 520.647 184.686C521.49 185.057 522.399 185.255 523.32 185.268C524.242 185.281 525.156 185.109 526.01 184.763C526.863 184.416 527.639 183.902 528.29 183.25C528.942 182.599 529.456 181.823 529.802 180.97C530.149 180.116 530.321 179.202 530.308 178.281C530.295 177.359 530.097 176.45 529.726 175.607C529.356 174.763 528.82 174.003 528.15 173.37L514.5 159.72Z" fill="#071146"/>
<path d="M535.16 192.47L528.3 185.61C528.3 185.61 528.85 185.2 529.05 185.02C529.25 184.84 529.81 184.29 529.81 184.29L536.57 191.05C537.874 192.282 539.606 192.956 541.399 192.931C543.193 192.905 544.905 192.182 546.173 190.914C547.442 189.645 548.165 187.933 548.191 186.14C548.216 184.346 547.541 182.614 546.31 181.31L532.66 167.66C532.027 166.99 531.267 166.454 530.423 166.084C529.58 165.713 528.671 165.515 527.749 165.502C526.828 165.489 525.914 165.661 525.06 166.008C524.206 166.354 523.431 166.868 522.78 167.52C522.128 168.171 521.614 168.947 521.267 169.8C520.921 170.654 520.749 171.568 520.762 172.489C520.775 173.411 520.973 174.32 521.344 175.163C521.714 176.007 522.25 176.767 522.92 177.4L528.39 182.87C528.39 182.87 527.98 183.3 527.6 183.62C527.361 183.817 527.107 183.994 526.84 184.15L521.5 178.81C519.886 177.132 518.994 174.889 519.017 172.561C519.04 170.233 519.974 168.007 521.62 166.361C523.267 164.714 525.493 163.78 527.821 163.757C530.148 163.735 532.392 164.626 534.07 166.24L547.72 179.89C548.572 180.709 549.252 181.69 549.72 182.776C550.188 183.861 550.435 185.029 550.446 186.211C550.458 187.393 550.233 188.565 549.786 189.659C549.339 190.753 548.679 191.747 547.843 192.583C547.007 193.419 546.013 194.079 544.919 194.526C543.825 194.973 542.652 195.198 541.471 195.186C540.289 195.175 539.121 194.928 538.036 194.46C536.95 193.992 535.969 193.312 535.15 192.46L535.16 192.47Z" fill="white"/>
<path d="M73 58.1L59.35 71.75C58.5306 72.6018 57.5495 73.2817 56.4642 73.7498C55.379 74.2179 54.2112 74.4649 53.0293 74.4764C51.8474 74.4878 50.6751 74.2635 49.581 73.8165C48.4868 73.3695 47.4928 72.7087 46.657 71.873C45.8213 71.0372 45.1606 70.0432 44.7136 68.949C44.2665 67.8549 44.0422 66.6826 44.0536 65.5007C44.0651 64.3188 44.3121 63.1511 44.7802 62.0658C45.2484 60.9805 45.9282 59.9995 46.78 59.18L60.43 45.53C61.2494 44.6783 62.2304 43.9984 63.3157 43.5303C64.401 43.0622 65.5688 42.8151 66.7506 42.8037C67.9325 42.7923 69.1048 43.0166 70.199 43.4636C71.2931 43.9106 72.2872 44.5713 73.1229 45.4071C73.9587 46.2429 74.6194 47.2369 75.0664 48.331C75.5134 49.4252 75.7378 50.5975 75.7263 51.7794C75.7149 52.9613 75.4679 54.129 74.9997 55.2143C74.5316 56.2996 73.8518 57.2806 73 58.1ZM48.19 60.6C46.9584 61.9037 46.2836 63.6363 46.3091 65.4295C46.3345 67.2228 47.0582 68.9355 48.3264 70.2036C49.5946 71.4718 51.3072 72.1955 53.1005 72.221C54.8938 72.2464 56.6263 71.5717 57.93 70.34L71.58 56.68C72.2497 56.0474 72.7857 55.2868 73.1563 54.4434C73.5269 53.5999 73.7246 52.6907 73.7377 51.7695C73.7508 50.8483 73.579 49.9339 73.2325 49.0802C72.886 48.2266 72.3718 47.4511 71.7203 46.7997C71.0689 46.1483 70.2934 45.6341 69.4398 45.2876C68.5861 44.9411 67.6717 44.7693 66.7505 44.7824C65.8293 44.7954 64.9201 44.9931 64.0767 45.3637C63.2332 45.7344 62.4727 46.2704 61.84 46.94L48.19 60.6Z" fill="#071146"/>
<path d="M80.9399 39.95L74.0799 46.81C74.0799 46.81 73.6699 46.26 73.4899 46.06C73.3099 45.86 72.7599 45.3 72.7599 45.3L79.5199 38.54C80.1896 37.9073 80.7256 37.1468 81.0962 36.3033C81.4668 35.4599 81.6645 34.5507 81.6776 33.6295C81.6907 32.7083 81.5189 31.7939 81.1724 30.9402C80.8259 30.0866 80.3117 29.3111 79.6602 28.6597C79.0088 28.0082 78.2333 27.494 77.3797 27.1475C76.5261 26.801 75.6116 26.6292 74.6904 26.6423C73.7692 26.6554 72.86 26.8531 72.0166 27.2237C71.1731 27.5943 70.4126 28.1303 69.7799 28.8L56.1299 42.45C54.8983 43.7537 54.2235 45.4862 54.249 47.2795C54.2745 49.0728 54.9982 50.7854 56.2663 52.0536C57.5345 53.3218 59.2472 54.0455 61.0404 54.0709C62.8337 54.0964 64.5662 53.4216 65.8699 52.19L71.3399 46.72C71.3399 46.72 71.7699 47.13 72.0899 47.51C72.287 47.7485 72.4643 48.0026 72.6199 48.27L67.2899 53.6C65.619 55.2669 63.3544 56.2018 60.9943 56.199C58.6342 56.1961 56.3718 55.2559 54.7049 53.585C53.038 51.9142 52.1032 49.6496 52.106 47.2894C52.1088 44.9293 53.049 42.6669 54.7199 41L68.3699 27.38C69.1893 26.5282 70.1704 25.8484 71.2556 25.3803C72.3409 24.9121 73.5087 24.6651 74.6906 24.6537C75.8724 24.6422 77.0448 24.8666 78.1389 25.3136C79.2331 25.7606 80.2271 26.4213 81.0628 27.2571C81.8986 28.0928 82.5593 29.0869 83.0063 30.181C83.4533 31.2752 83.6777 32.4475 83.6662 33.6294C83.6548 34.8112 83.4078 35.979 82.9397 37.0643C82.4715 38.1496 81.7917 39.1306 80.9399 39.95Z" fill="#FEDB8F"/>
<path d="M258.8 162.51H204.6C198.033 162.51 192.71 167.833 192.71 174.4C192.71 180.967 198.033 186.29 204.6 186.29H258.8C265.367 186.29 270.69 180.967 270.69 174.4C270.69 167.833 265.367 162.51 258.8 162.51Z" fill="white"/>
<path d="M254.7 159.51H200.5C193.933 159.51 188.61 164.833 188.61 171.4C188.61 177.967 193.933 183.29 200.5 183.29H254.7C261.267 183.29 266.59 177.967 266.59 171.4C266.59 164.833 261.267 159.51 254.7 159.51Z" stroke="#071146" stroke-width="2" stroke-linecap="round" stroke-linejoin="round"/>
<path d="M261.63 213.63L253.09 192.72L273.91 201.34L264.24 203.95L261.63 213.63Z" stroke="white" stroke-width="2" stroke-linecap="round" stroke-linejoin="round"/>
<path d="M173.76 199.7C189.395 199.7 202.07 187.025 202.07 171.39C202.07 155.755 189.395 143.08 173.76 143.08C158.125 143.08 145.45 155.755 145.45 171.39C145.45 187.025 158.125 199.7 173.76 199.7Z" fill="#FEDB8F"/>
<path d="M170.31 199.72C185.945 199.72 198.62 187.045 198.62 171.41C198.62 155.775 185.945 143.1 170.31 143.1C154.675 143.1 142 155.775 142 171.41C142 187.045 154.675 199.72 170.31 199.72Z" stroke="#071146" stroke-width="2" stroke-linecap="round" stroke-linejoin="round"/>
<path d="M170.31 199.72C157.49 194.72 154.23 180.87 154.23 171.41C154.23 160.35 158.23 147.51 170.31 143.1" stroke="#071146" stroke-width="2" stroke-linecap="round" stroke-linejoin="round"/>
<path d="M170.84 143.1C183.66 148.1 186.92 161.95 186.92 171.41C186.92 182.47 182.92 195.31 170.84 199.72" stroke="#071146" stroke-width="2" stroke-linecap="round" stroke-linejoin="round"/>
<path d="M170.31 143.1V199.72" stroke="#071146" stroke-width="2" stroke-linecap="round" stroke-linejoin="round"/>
<path d="M142 171.41H198.63" stroke="#071146" stroke-width="2" stroke-linecap="round" stroke-linejoin="round"/>
<path d="M223.206 169.006H224.275L221.776 176.7H220.609L218.735 170.798L216.713 176.7H215.595L213.063 169.006H214.247L216.219 175.122L218.225 169.006H219.31L221.25 175.089L223.206 169.006ZM235.023 169.006H236.091L233.592 176.7H232.425L230.551 170.798L228.529 176.7H227.411L224.879 169.006H226.063L228.036 175.122L230.041 169.006H231.126L233.066 175.089L235.023 169.006ZM246.839 169.006H247.907L245.409 176.7H244.241L242.367 170.798L240.345 176.7H239.227L236.695 169.006H237.879L239.852 175.122L241.858 169.006H242.943L244.882 175.089L246.839 169.006Z" fill="#071146"/>
<path d="M483.44 110.87C490.857 110.87 496.87 104.857 496.87 97.44C496.87 90.0228 490.857 84.01 483.44 84.01C476.023 84.01 470.01 90.0228 470.01 97.44C470.01 104.857 476.023 110.87 483.44 110.87Z" stroke="white" stroke-width="2" stroke-miterlimit="10"/>
<path d="M483.44 110.87C477.36 108.47 475.81 101.92 475.81 97.44C475.81 92.19 477.72 86.1 483.44 84.01" stroke="white" stroke-width="2" stroke-miterlimit="10"/>
<path d="M483.68 84C489.76 86.4 491.31 92.95 491.31 97.43C491.31 102.68 489.4 108.77 483.68 110.86" stroke="white" stroke-width="2" stroke-miterlimit="10"/>
<path d="M483.44 84V110.87" stroke="white" stroke-width="2" stroke-miterlimit="10"/>
<path d="M470 97.44H496.87" stroke="white" stroke-width="2" stroke-miterlimit="10"/>
<path d="M41.7298 135.71C49.147 135.71 55.1598 129.697 55.1598 122.28C55.1598 114.863 49.147 108.85 41.7298 108.85C34.3126 108.85 28.2998 114.863 28.2998 122.28C28.2998 129.697 34.3126 135.71 41.7298 135.71Z" stroke="white" stroke-width="2" stroke-miterlimit="10"/>
<path d="M41.7301 135.71C35.6501 133.31 34.1001 126.76 34.1001 122.28C34.1001 117.03 36.0101 110.94 41.7301 108.85" stroke="white" stroke-width="2" stroke-miterlimit="10"/>
<path d="M42 108.85C48.08 111.25 49.63 117.8 49.63 122.28C49.63 127.53 47.72 133.62 42 135.71" stroke="white" stroke-width="2" stroke-miterlimit="10"/>
<path d="M41.73 108.85V135.71" stroke="white" stroke-width="2" stroke-miterlimit="10"/>
<path d="M28.2998 122.28H55.1698" stroke="white" stroke-width="2" stroke-miterlimit="10"/>
<path d="M149.93 236.8C147.08 231.8 147.6 225.49 143.93 220.98C142.7 219.45 141.27 217.86 139.33 217.49C139.18 217.439 139.019 217.432 138.865 217.47C138.711 217.507 138.571 217.587 138.46 217.7C138.28 217.97 138.46 218.32 138.58 218.61L141.19 223.61L138.37 220C137.939 219.338 137.343 218.8 136.64 218.44C136.286 218.279 135.884 218.257 135.514 218.377C135.144 218.498 134.832 218.752 134.64 219.09C135.462 221.067 136.498 222.948 137.73 224.7L133.4 220.7C132.76 220.11 131.5 219.65 131.23 220.48L135.23 226.65L128.59 218.73C127.67 217.64 126.65 216.48 125.25 216.22C124.31 217.63 125.25 219.49 126.25 220.89L133.4 231.46L129.64 226.82C129.265 226.267 128.751 225.822 128.15 225.53C127.845 225.395 127.5 225.381 127.184 225.49C126.869 225.6 126.606 225.825 126.45 226.12C128.42 230.956 131.598 235.205 135.68 238.46C137.188 239.451 138.5 240.712 139.55 242.18L149.93 236.8Z" stroke="white" stroke-width="2" stroke-linecap="round" stroke-linejoin="round"/>
<path d="M362.33 96.8408C366.85 93.0208 373.22 92.3508 377.04 87.8408C378.34 86.3108 379.66 84.5808 379.66 82.5708C379.66 82.2508 379.58 81.8608 379.28 81.7408C378.98 81.6208 378.65 81.8308 378.39 82.0308L373.86 85.6008L376.97 82.0508C377.545 81.5012 377.969 80.8122 378.2 80.0508C378.301 79.6664 378.254 79.2582 378.069 78.9065C377.884 78.5548 377.574 78.2852 377.2 78.1508C375.387 79.3515 373.71 80.7464 372.2 82.3108L375.39 77.2108C375.86 76.4608 376.08 75.1008 375.2 75.0008L369.78 80.1708L376.45 72.0108C377.37 70.8908 378.34 69.6308 378.33 68.1808C376.74 67.5108 375.06 68.8308 373.83 70.0508L364.6 79.2308L368.53 74.5808C369.009 74.0979 369.354 73.4981 369.53 72.8408C369.608 72.5084 369.556 72.1588 369.385 71.8633C369.214 71.5678 368.937 71.3487 368.61 71.2508C364.139 74.1454 360.485 78.1396 358 82.8508C357.292 84.5528 356.275 86.109 355 87.4408L362.33 96.8408Z" stroke="white" stroke-width="2" stroke-linecap="round" stroke-linejoin="round"/>
</g>
<defs>
<clipPath id="clip0">
<rect width="585" height="270.25" fill="white"/>
</clipPath>
</defs>
</svg>
