<svg width="586" height="272" viewBox="0 0 586 272" fill="none" xmlns="http://www.w3.org/2000/svg">
<path d="M581.6 272H0V59.9H581.6C584 59.9 586 61.9 586 64.3V267.5C586 270 584 272 581.6 272Z" fill="#B3C1F4"/>
<path d="M58.9994 71.6L34.1994 71.5C32.3994 71.5 30.8994 70 30.8994 68.1L30.9994 50.1C30.9994 48.3 32.4994 46.8 34.3994 46.8L59.1994 46.9C60.9994 46.9 62.4994 48.4 62.4994 50.3L62.3994 68.3C62.3994 70.1 60.8994 71.6 58.9994 71.6Z" fill="white"/>
<path d="M27.5996 51.3L42.2996 59.7C43.9996 60.7 46.0996 60.7 47.7996 59.7L62.5996 51.4" stroke="#071146" stroke-width="2" stroke-miterlimit="10" stroke-linecap="round" stroke-linejoin="round"/>
<path d="M62.5997 65.7L50.1997 58.6" stroke="#071146" stroke-width="2" stroke-miterlimit="10" stroke-linecap="round" stroke-linejoin="round"/>
<path d="M39.9996 58.6L27.5996 65.6" stroke="#071146" stroke-width="2" stroke-miterlimit="10" stroke-linecap="round" stroke-linejoin="round"/>
<path d="M58.8996 71.6L31.2996 71.5C29.2996 71.5 27.5996 69.8 27.5996 67.8V48C27.5996 46 29.2996 44.3 31.2996 44.3L58.9996 44.4C60.9996 44.4 62.6996 46.1 62.6996 48.1L62.5996 67.9C62.5996 69.9 60.8996 71.6 58.8996 71.6Z" stroke="#071146" stroke-width="2" stroke-miterlimit="10" stroke-linecap="round" stroke-linejoin="round"/>
<path d="M425.9 249.1L404.3 236.8C402.7 235.9 402.1 233.8 403 232.2L411.9 216.6C412.8 215 414.9 214.4 416.5 215.3L438.1 227.6C439.7 228.5 440.3 230.6 439.4 232.2L430.5 247.8C429.6 249.4 427.5 250 425.9 249.1Z" fill="white"/>
<path d="M408.5 216L417.2 230.5C418.2 232.2 420 233.2 422 233.2L439 233.3" stroke="#071146" stroke-width="2" stroke-miterlimit="10" stroke-linecap="round" stroke-linejoin="round"/>
<path d="M431.9 245.7L424.6 233.5" stroke="#071146" stroke-width="2" stroke-miterlimit="10" stroke-linecap="round" stroke-linejoin="round"/>
<path d="M415.7 228.4H401.5" stroke="#071146" stroke-width="2" stroke-miterlimit="10" stroke-linecap="round" stroke-linejoin="round"/>
<path d="M425.8 249L401.8 235.4C400 234.4 399.4 232.1 400.4 230.3L410.2 213.1C411.2 211.3 413.5 210.7 415.3 211.7L439.3 225.3C441.1 226.3 441.7 228.6 440.7 230.4L430.9 247.6C429.9 249.4 427.6 250 425.8 249Z" stroke="#071146" stroke-width="2" stroke-miterlimit="10" stroke-linecap="round" stroke-linejoin="round"/>
<path d="M503.2 219.7L486.4 227.5C485.2 228.1 483.7 227.5 483.1 226.3L477.5 214.2C476.9 213 477.5 211.5 478.7 210.9L495.5 203.1C496.7 202.5 498.2 203.1 498.8 204.3L504.4 216.4C505 217.7 504.4 219.1 503.2 219.7Z" fill="white"/>
<path d="M475.6 216L488.2 217C489.7 217.1 491.1 216.5 491.9 215.3L499.3 205.1" stroke="#071146" stroke-width="2" stroke-miterlimit="10" stroke-linecap="round" stroke-linejoin="round"/>
<path d="M503.7 214.6L493.1 213.8" stroke="#071146" stroke-width="2" stroke-miterlimit="10" stroke-linecap="round" stroke-linejoin="round"/>
<path d="M486.3 217L480.1 225.6" stroke="#071146" stroke-width="2" stroke-miterlimit="10" stroke-linecap="round" stroke-linejoin="round"/>
<path d="M503.1 219.8L484.4 228.4C483 229 481.4 228.4 480.7 227.1L474.5 213.8C473.9 212.4 474.5 210.8 475.8 210.1L494.5 201.5C495.9 200.9 497.5 201.5 498.2 202.8L504.4 216.1C505.1 217.5 504.4 219.1 503.1 219.8Z" stroke="#071146" stroke-width="2" stroke-miterlimit="10" stroke-linecap="round" stroke-linejoin="round"/>
<path d="M143.192 76.3922L120.192 85.8922C118.492 86.5922 116.492 85.7922 115.792 84.0922L108.992 67.4922C108.292 65.7922 109.092 63.7922 110.792 63.0922L133.792 53.5922C135.492 52.8922 137.492 53.6922 138.192 55.3922L144.992 71.9922C145.692 73.6922 144.892 75.6922 143.192 76.3922Z" fill="white"/>
<path d="M106.392 69.7922L123.192 71.8922C125.092 72.0922 127.092 71.2922 128.292 69.7922L138.792 56.4922" stroke="#071146" stroke-width="2" stroke-miterlimit="10" stroke-linecap="round" stroke-linejoin="round"/>
<path d="M144.192 69.5922L130.092 67.7922" stroke="#071146" stroke-width="2" stroke-miterlimit="10" stroke-linecap="round" stroke-linejoin="round"/>
<path d="M120.692 71.6922L111.792 82.8922" stroke="#071146" stroke-width="2" stroke-miterlimit="10" stroke-linecap="round" stroke-linejoin="round"/>
<path d="M143.092 76.3922L117.592 86.8922C115.692 87.6922 113.492 86.7922 112.792 84.8922L105.292 66.5922C104.492 64.6922 105.392 62.4922 107.292 61.7922L132.792 51.2922C134.692 50.4922 136.892 51.3922 137.592 53.2922L145.092 71.5922C145.892 73.4922 144.892 75.6922 143.092 76.3922Z" stroke="#071146" stroke-width="2" stroke-miterlimit="10" stroke-linecap="round" stroke-linejoin="round"/>
<path d="M463.9 71.7L440.9 81.2C439.2 81.9 437.2 81.1 436.5 79.4L429.7 62.8C429 61.1 429.8 59.1 431.5 58.4L454.5 48.9C456.2 48.2 458.2 49 458.9 50.7L465.7 67.3C466.4 69.1 465.6 71 463.9 71.7Z" fill="white"/>
<path d="M427.1 65.1L443.9 67.2C445.8 67.4 447.8 66.6 449 65.1L459.5 51.8" stroke="#071146" stroke-width="2" stroke-miterlimit="10" stroke-linecap="round" stroke-linejoin="round"/>
<path d="M464.9 64.9L450.7 63.2" stroke="#071146" stroke-width="2" stroke-miterlimit="10" stroke-linecap="round" stroke-linejoin="round"/>
<path d="M441.3 67.1L432.5 78.3" stroke="#071146" stroke-width="2" stroke-miterlimit="10" stroke-linecap="round" stroke-linejoin="round"/>
<path d="M463.7 71.8L438.2 82.3C436.3 83.1 434.1 82.2 433.4 80.3L425.8 62C425 60.1 425.9 57.9 427.8 57.2L453.3 46.7C455.2 45.9 457.4 46.8 458.1 48.7L465.6 67C466.5 68.8 465.6 71 463.7 71.8Z" stroke="#071146" stroke-width="2" stroke-miterlimit="10" stroke-linecap="round" stroke-linejoin="round"/>
<path d="M248.2 148.4L225.2 157.9C223.5 158.6 221.5 157.8 220.8 156.1L214 139.5C213.3 137.8 214.1 135.8 215.8 135.1L238.8 125.6C240.5 124.9 242.5 125.7 243.2 127.4L250 144C250.7 145.7 249.9 147.7 248.2 148.4Z" fill="white"/>
<path d="M211.4 141.8L228.2 143.9C230.1 144.1 232.1 143.3 233.3 141.8L243.8 128.5" stroke="#071146" stroke-width="2" stroke-miterlimit="10" stroke-linecap="round" stroke-linejoin="round"/>
<path d="M249.201 141.6L235.101 139.8" stroke="#071146" stroke-width="2" stroke-miterlimit="10" stroke-linecap="round" stroke-linejoin="round"/>
<path d="M225.7 143.7L216.8 154.9" stroke="#071146" stroke-width="2" stroke-miterlimit="10" stroke-linecap="round" stroke-linejoin="round"/>
<path d="M248.1 148.4L222.5 159C220.6 159.8 218.4 158.9 217.7 157L210.2 138.7C209.4 136.8 210.3 134.6 212.2 133.9L237.7 123.4C239.6 122.6 241.8 123.5 242.5 125.4L250 143.7C250.8 145.5 249.9 147.7 248.1 148.4Z" stroke="#071146" stroke-width="2" stroke-miterlimit="10" stroke-linecap="round" stroke-linejoin="round"/>
<path d="M275.6 219.6L251.7 212.8C249.9 212.3 248.9 210.4 249.4 208.7L254.3 191.4C254.8 189.6 256.7 188.6 258.4 189.1L282.3 195.9C284.1 196.4 285.1 198.3 284.6 200L279.7 217.3C279.2 219.1 277.4 220.1 275.6 219.6Z" fill="white"/>
<path d="M250.8 191.6L262.7 203.6C264.1 205 266.1 205.6 268 205.1L284.5 201.1" stroke="#071146" stroke-width="2" stroke-miterlimit="10" stroke-linecap="round" stroke-linejoin="round"/>
<path d="M280.6 214.9L270.6 204.8" stroke="#071146" stroke-width="2" stroke-miterlimit="10" stroke-linecap="round" stroke-linejoin="round"/>
<path d="M260.8 202L246.9 205.3" stroke="#071146" stroke-width="2" stroke-miterlimit="10" stroke-linecap="round" stroke-linejoin="round"/>
<path d="M275.5 219.6L248.9 212C246.9 211.4 245.8 209.4 246.3 207.4L251.7 188.4C252.3 186.4 254.3 185.3 256.3 185.8L282.9 193.4C284.9 194 286 196 285.5 198L280.1 217C279.5 219 277.4 220.1 275.5 219.6Z" stroke="#071146" stroke-width="2" stroke-miterlimit="10" stroke-linecap="round" stroke-linejoin="round"/>
<path d="M327 178.1L288.6 164.3C285.7 163.3 284.3 160.1 285.3 157.3L295.3 129.5C296.3 126.6 299.5 125.2 302.3 126.2L340.7 140C343.6 141 345 144.2 344 147L334 174.8C333 177.6 329.9 179.1 327 178.1Z" fill="white"/>
<path d="M289.5 129.5L307.7 150.6C309.8 153 313 154.2 316.2 153.7L343.7 149" stroke="#071146" stroke-width="2" stroke-miterlimit="10" stroke-linecap="round" stroke-linejoin="round"/>
<path d="M335.8 171L320.5 153.2" stroke="#071146" stroke-width="2" stroke-miterlimit="10" stroke-linecap="round" stroke-linejoin="round"/>
<path d="M304.7 147.5L281.6 151.5" stroke="#071146" stroke-width="2" stroke-miterlimit="10" stroke-linecap="round" stroke-linejoin="round"/>
<path d="M326.8 178L284 162.6C280.8 161.5 279.2 158 280.3 154.8L291.3 124.2C292.4 121 295.9 119.4 299.1 120.5L341.9 135.9C345.1 137 346.7 140.5 345.6 143.7L334.6 174.3C333.5 177.5 330 179.1 326.8 178Z" stroke="#071146" stroke-width="2" stroke-miterlimit="10" stroke-linecap="round" stroke-linejoin="round"/>
<path d="M526.5 29.8C534.729 29.8 541.4 23.129 541.4 14.9C541.4 6.67096 534.729 0 526.5 0C518.271 0 511.6 6.67096 511.6 14.9C511.6 23.129 518.271 29.8 526.5 29.8Z" fill="#B3C1F4"/>
<path d="M530.213 9.61389C530.22 7.57044 528.569 5.90852 526.525 5.90192C524.482 5.89531 522.82 7.54651 522.813 9.58997C522.807 11.6334 524.458 13.2953 526.501 13.3019C528.545 13.3085 530.207 11.6573 530.213 9.61389Z" stroke="#071146" stroke-width="2" stroke-miterlimit="10" stroke-linecap="round" stroke-linejoin="round"/>
<path d="M526.4 23.3C529.5 23.3 532.1 20.8 532.1 17.6V16.7C532.1 16.1 531.6 15.7 531.1 15.7H521.8C521.2 15.7 520.8 16.2 520.8 16.7V17.6C520.8 20.7 523.3 23.3 526.4 23.3Z" stroke="#071146" stroke-width="2" stroke-miterlimit="10" stroke-linecap="round" stroke-linejoin="round"/>
<path d="M350.7 70.4C358.929 70.4 365.6 63.729 365.6 55.5C365.6 47.271 358.929 40.6 350.7 40.6C342.471 40.6 335.8 47.271 335.8 55.5C335.8 63.729 342.471 70.4 350.7 70.4Z" fill="#FEDB8F"/>
<path d="M354.356 50.2039C354.362 48.1604 352.711 46.4986 350.668 46.4919C348.624 46.4853 346.962 48.1365 346.956 50.18C346.949 52.2234 348.6 53.8853 350.644 53.8919C352.687 53.8985 354.349 52.2473 354.356 50.2039Z" stroke="#071146" stroke-width="2" stroke-miterlimit="10" stroke-linecap="round" stroke-linejoin="round"/>
<path d="M350.6 63.9C353.7 63.9 356.3 61.4 356.3 58.2V57.3C356.3 56.7 355.8 56.3 355.3 56.3H346C345.4 56.3 345 56.8 345 57.3V58.2C344.9 61.4 347.5 63.9 350.6 63.9Z" stroke="#071146" stroke-width="2" stroke-miterlimit="10" stroke-linecap="round" stroke-linejoin="round"/>
<path d="M55.9 252.8C64.1291 252.8 70.8 246.129 70.8 237.9C70.8 229.671 64.1291 223 55.9 223C47.671 223 41 229.671 41 237.9C41 246.129 47.671 252.8 55.9 252.8Z" fill="#FEDB8F"/>
<path d="M59.556 232.604C59.5626 230.56 57.9114 228.898 55.868 228.892C53.8245 228.885 52.1626 230.536 52.156 232.58C52.1494 234.623 53.8006 236.285 55.844 236.292C57.8875 236.298 59.5494 234.647 59.556 232.604Z" stroke="#071146" stroke-width="2" stroke-miterlimit="10" stroke-linecap="round" stroke-linejoin="round"/>
<path d="M55.8001 246.3C58.9001 246.3 61.5 243.8 61.5 240.6V239.7C61.5 239.1 61 238.7 60.5 238.7H51.2001C50.6001 238.7 50.2001 239.2 50.2001 239.7V240.6C50.1001 243.8 52.7001 246.3 55.8001 246.3Z" stroke="#071146" stroke-width="2" stroke-miterlimit="10" stroke-linecap="round" stroke-linejoin="round"/>
<path d="M335.8 249.1C344.029 249.1 350.7 242.429 350.7 234.2C350.7 225.971 344.029 219.3 335.8 219.3C327.571 219.3 320.9 225.971 320.9 234.2C320.9 242.429 327.571 249.1 335.8 249.1Z" fill="white"/>
<path d="M339.514 228.924C339.52 226.88 337.869 225.218 335.825 225.212C333.782 225.205 332.12 226.856 332.114 228.9C332.107 230.943 333.758 232.605 335.802 232.612C337.845 232.618 339.507 230.967 339.514 228.924Z" stroke="#071146" stroke-width="2" stroke-miterlimit="10" stroke-linecap="round" stroke-linejoin="round"/>
<path d="M335.701 242.6C338.801 242.6 341.401 240.1 341.401 236.9V236C341.401 235.4 340.901 235 340.401 235H331.101C330.501 235 330.101 235.5 330.101 236V236.9C330.101 240.1 332.601 242.6 335.701 242.6Z" stroke="#071146" stroke-width="2" stroke-miterlimit="10" stroke-linecap="round" stroke-linejoin="round"/>
<path d="M265.9 102.8C274.129 102.8 280.8 96.129 280.8 87.9C280.8 79.671 274.129 73 265.9 73C257.671 73 251 79.671 251 87.9C251 96.129 257.671 102.8 265.9 102.8Z" fill="white"/>
<path d="M269.546 82.6241C269.552 80.5806 267.901 78.9187 265.858 78.9121C263.814 78.9055 262.152 80.5567 262.146 82.6001C262.139 84.6436 263.79 86.3055 265.834 86.3121C267.877 86.3187 269.539 84.6675 269.546 82.6241Z" stroke="#071146" stroke-width="2" stroke-miterlimit="10" stroke-linecap="round" stroke-linejoin="round"/>
<path d="M265.8 96.3C268.9 96.3 271.5 93.8 271.5 90.6V89.7C271.5 89.1 271 88.7 270.5 88.7H261.2C260.6 88.7 260.2 89.2 260.2 89.7V90.6C260.1 93.8 262.7 96.3 265.8 96.3Z" stroke="#071146" stroke-width="2" stroke-miterlimit="10" stroke-linecap="round" stroke-linejoin="round"/>
<path d="M548 253.7C556.229 253.7 562.9 247.029 562.9 238.8C562.9 230.571 556.229 223.9 548 223.9C539.771 223.9 533.1 230.571 533.1 238.8C533.1 247.029 539.771 253.7 548 253.7Z" fill="white"/>
<path d="M551.701 233.522C551.708 231.478 550.056 229.816 548.013 229.81C545.97 229.803 544.308 231.454 544.301 233.498C544.294 235.541 545.946 237.203 547.989 237.21C550.033 237.217 551.694 235.565 551.701 233.522Z" stroke="#071146" stroke-width="2" stroke-miterlimit="10" stroke-linecap="round" stroke-linejoin="round"/>
<path d="M547.9 247.3C551 247.3 553.6 244.8 553.6 241.6V240.7C553.6 240.1 553.1 239.7 552.6 239.7H543.3C542.7 239.7 542.3 240.2 542.3 240.7V241.6C542.2 244.7 544.8 247.3 547.9 247.3Z" stroke="#071146" stroke-width="2" stroke-miterlimit="10" stroke-linecap="round" stroke-linejoin="round"/>
<path d="M558.4 115.2C555.8 116.4 552.9 117.1 550 117.6C551.3 117.4 553.3 114.9 554.1 113.9C555.3 112.4 556.3 110.7 556.9 108.8C557 108.7 557 108.5 556.9 108.4C556.7 108.3 556.6 108.4 556.5 108.4C553.3 110.1 550 111.3 546.6 112.2C546.3 112.3 546.1 112.2 545.9 112C545.6 111.7 545.3 111.4 545 111.1C543.5 109.9 542 108.9 540.2 108.1C537.9 107.1 535.3 106.7 532.8 106.9C530.4 107.1 528 107.7 525.8 108.9C523.6 110 521.7 111.6 520.1 113.5C518.5 115.5 517.3 117.8 516.7 120.3C516.1 122.7 516.2 125 516.5 127.4C516.6 127.8 516.5 127.9 516.2 127.8C502.5 125.8 491.2 120.9 482 110.4C481.6 109.9 481.4 109.9 481.1 110.4C477.1 116.4 479 126.1 484.1 130.9C484.8 131.5 485.5 132.2 486.2 132.7C485.9 132.8 482.6 132.4 479.6 130.9C479.2 130.6 479 130.8 479 131.2C479 131.9 479 132.5 479.1 133.2C479.9 139.3 484.1 145 489.9 147.2C490.6 147.5 491.3 147.7 492.1 147.9C490.8 148.2 489.4 148.4 485.6 148.1C485.1 148 484.9 148.2 485.1 148.7C487.9 156.5 494.1 158.8 498.7 160.1C499.3 160.2 499.9 160.2 500.6 160.4C500.6 160.5 500.5 160.5 500.5 160.5C499 162.8 493.7 164.6 491.2 165.4C486.7 167 481.8 167.7 477.1 167.2C476.3 167.1 476.2 167.1 476 167.2C475.8 167.3 476 167.5 476.2 167.7C477.2 168.3 478.1 168.9 479.1 169.4C482.1 171 485.2 172.3 488.5 173.2C505.4 177.9 524.5 174.4 537.2 161.8C547.2 151.9 550.7 138.2 550.7 124.5C550.7 124 551.3 123.7 551.7 123.4C554.3 121.4 556.4 119.1 558.3 116.5C558.7 115.9 558.7 115.4 558.7 115.2V115.1C558.7 115 558.7 115 558.4 115.2Z" fill="#00A6FF"/>
<path fill-rule="evenodd" clip-rule="evenodd" d="M503.2 175.1C503.2 174.9 504.6 175.1 503.2 175.1C503.2 175 503.4 175.1 503.2 175.1Z" fill="#00A6FF"/>
<path fill-rule="evenodd" clip-rule="evenodd" d="M532.5 107.1C532.4 107.2 532.3 107.2 532.2 107.1C532.3 107.1 532.4 107.1 532.5 107.1Z" fill="#00A6FF"/>
<path d="M222.701 44.0565C225.723 38.4699 223.643 31.4919 218.056 28.4706C212.47 25.4493 205.492 27.5288 202.471 33.1154C199.449 38.702 201.529 45.6801 207.115 48.7014C212.702 51.7227 219.68 49.6431 222.701 44.0565Z" fill="#FCAA90"/>
<path d="M219.303 40.3797C220.403 38.3797 219.603 36.1797 218.003 35.2797C216.703 34.5797 215.003 34.7797 214.003 35.8797C214.303 34.4797 213.603 32.9797 212.303 32.2797C210.703 31.4797 208.403 31.9797 207.303 33.9797C205.703 36.9797 208.403 42.9797 209.403 43.9797C209.403 43.9797 209.403 43.9797 209.503 44.0797L209.603 44.1797H209.703H209.803C211.203 44.3797 217.703 43.3797 219.303 40.3797Z" fill="#FDFDFD"/>
<path d="M216.458 251.639C222.162 248.847 224.524 241.959 221.732 236.254C218.94 230.549 212.052 228.188 206.347 230.98C200.642 233.772 198.281 240.66 201.073 246.365C203.865 252.07 210.753 254.431 216.458 251.639Z" fill="#FCAA90"/>
<path d="M216.801 236.9C215.801 234.9 213.501 234.2 211.901 235C210.601 235.7 209.801 237.1 210.001 238.6C209.001 237.5 207.401 237.2 206.101 237.9C204.501 238.7 203.601 240.9 204.601 242.9C206.101 246 212.601 247.2 213.901 247H214.001H214.101C214.101 247 214.201 247 214.201 246.9C214.201 246.9 214.201 246.9 214.301 246.8C215.301 245.8 218.301 240 216.801 236.9Z" fill="#FDFDFD"/>
<path d="M121.7 238.5C130.371 238.5 137.4 231.471 137.4 222.8C137.4 214.129 130.371 207.1 121.7 207.1C113.029 207.1 106 214.129 106 222.8C106 231.471 113.029 238.5 121.7 238.5Z" fill="#0052CC"/>
<path d="M116.7 221H114C113.5 221 113.1 221.4 113.1 221.9V229.4C113.1 229.9 113.5 230.3 114 230.3H116.7C117.2 230.3 117.6 229.9 117.6 229.4V222C117.6 221.5 117.2 221 116.7 221Z" fill="#FDFDFD"/>
<path d="M128.9 221.9H128.7C129.5 221.9 130.1 221.3 130.1 220.5C130.1 219.7 129.5 219.1 128.7 219.1H124.1C124.7 218.2 125.4 216.8 125.4 215.6C125.4 213.7 124.4 212.7 123.7 212.6C123 212.5 122.6 212.8 122.4 213.4C122.2 214 122.5 215 122.4 215.4C122.2 216 121.2 216.8 119.8 218.5C118.6 220.1 118.7 222 118.7 222V224.6V227.2V228.4C118.7 228.9 119.1 229.3 119.6 229.3H128.2C128.8 229.3 129.2 228.8 129.2 228.3C129.2 227.7 128.7 227.3 128.2 227.3H128.3C129 227.3 129.6 226.7 129.6 226C129.6 225.3 129 224.7 128.3 224.7H128.8C129.5 224.7 130.1 224.1 130.1 223.4C130.2 222.5 129.6 221.9 128.9 221.9Z" fill="#FDFDFD"/>
<path d="M221.044 85.7038C219.844 85.1038 218.544 85.2038 218.244 85.1038C217.944 85.0038 217.444 84.5038 217.344 84.3038C215.744 82.2038 213.044 81.3038 210.544 82.1038C209.844 81.0038 208.344 80.7038 207.244 81.3038C206.044 82.0038 205.644 83.5038 206.344 84.7038C206.444 84.9038 206.544 85.0038 206.744 85.2038C205.844 87.0038 205.844 89.2038 206.944 91.1038C207.244 91.6038 207.544 92.0038 207.944 92.4038C207.944 92.4038 208.344 93.1038 208.244 94.1038C208.244 95.1038 208.144 96.0038 208.744 96.8038C209.344 97.6038 210.444 98.8038 211.844 97.8038C213.144 96.8038 221.044 90.2038 222.044 89.3038C222.944 88.5038 222.244 86.3038 221.044 85.7038ZM207.444 84.1038C207.144 83.5038 207.244 82.8038 207.844 82.4038C208.244 82.1038 208.844 82.2038 209.244 82.6038H209.144C208.444 83.0038 207.944 83.5038 207.444 84.1038Z" fill="#071146"/>
<path d="M215.344 96.0038C216.144 96.6038 217.344 96.7038 218.444 96.1038C219.744 95.3038 220.344 93.8038 219.744 92.7038C219.744 92.6038 219.644 92.6038 219.644 92.5038C218.044 93.8038 216.444 95.1038 215.344 96.0038Z" fill="#071146"/>
<path d="M179.4 201.4C174.2 201.4 170 205.2 170 210C170 212.7 171.4 215.1 173.5 216.7V220.6L176.9 218.3C177.7 218.5 178.5 218.6 179.4 218.6C184.6 218.6 188.8 214.8 188.8 210C188.8 205.2 184.6 201.4 179.4 201.4ZM180.6 212.5L178.1 209.9L173.6 212.5L178.3 207.2L180.8 209.8L185.3 207.2L180.6 212.5Z" fill="#071146"/>
<path fill-rule="evenodd" clip-rule="evenodd" d="M66.1996 107C66.1996 109.9 66.1996 112.4 66.1996 115C66.1996 116.1 66.1996 117.2 66.1996 118.3C66.1996 119 65.9996 119.2 65.2996 119.2C63.3996 119.2 61.5996 119.2 59.6996 119.2C59.0996 119.2 58.3996 119.3 57.7996 119.4C56.5996 119.7 55.7996 120.5 55.7996 121.8C55.6996 124.3 55.7996 126.8 55.7996 129.5C59.1996 129.5 62.6996 129.5 66.2996 129.5C66.0996 131.4 65.9996 133.2 65.7996 135C65.5996 136.8 65.3996 138.6 65.1996 140.4C65.0996 141.2 64.8996 141.6 63.9996 141.6C61.1996 141.5 58.4996 141.6 55.5996 141.6C55.5996 153 55.5996 164.3 55.5996 175.7C50.7996 175.7 46.0996 175.7 41.2996 175.7C41.2996 175.2 41.1996 174.7 41.1996 174.3C41.1996 163.8 41.1996 153.4 41.1996 142.9C41.1996 141.9 40.9996 141.6 39.9996 141.6C38.0996 141.7 36.1996 141.6 34.1996 141.6C34.1996 141.1 34.1996 140.7 34.1996 140.4C34.1996 137.3 34.1996 134.3 34.1996 131.2C34.1996 129.5 33.9996 129.7 35.6996 129.6C37.1996 129.6 38.7996 129.6 40.2996 129.6C40.9996 129.6 41.1996 129.3 41.1996 128.7C41.1996 125.9 41.1996 123 41.2996 120.2C41.4996 116.7 42.4996 113.4 45.1996 110.8C47.1996 108.9 49.6996 107.8 52.3996 107.6C56.8996 107.1 61.4996 107.1 66.1996 107Z" fill="#0052CC"/>
<path d="M126.3 176.4C109.4 176.4 95.8003 162.5 95.8003 145.4C95.8003 128.3 109.5 114.4 126.3 114.4H156.9V123.7H126.4C126.4 123.7 106.4 123.7 106.4 145.4C106.4 167.1 126.4 167.1 126.4 167.1H156.9V176.5H126.3V176.4Z" fill="white"/>
<path d="M156.9 112.8H136.6V122.3H156.9V112.8Z" fill="#FCAA90"/>
<path d="M156.9 166.9H136.6V176.4H156.9V166.9Z" fill="#0052CC"/>
<path d="M125 176.4C107.4 176.4 93.2002 162.2 93.2002 144.6C93.2002 127 107.4 112.8 125 112.8H156.8V122.3H125C125 122.3 104.1 122.3 104.1 144.5C104.1 166.7 125 166.7 125 166.7H156.8V176.4H125V176.4Z" stroke="#071146" stroke-width="2" stroke-miterlimit="10" stroke-linecap="round" stroke-linejoin="round"/>
<path d="M168.3 115.3L172.5 111.1L177 117.5L180.9 113.1L184.4 116.3" stroke="#071146" stroke-width="2" stroke-miterlimit="10" stroke-linecap="round" stroke-linejoin="round"/>
<path d="M168.3 121.7L172.5 117.5L177 124L180.9 119.5L184.4 122.8" stroke="#071146" stroke-width="2" stroke-miterlimit="10" stroke-linecap="round" stroke-linejoin="round"/>
<path d="M168.3 169.4L172.5 165.2L177 171.6L180.9 167.2L184.4 170.4" stroke="#071146" stroke-width="2" stroke-miterlimit="10" stroke-linecap="round" stroke-linejoin="round"/>
<path d="M168.3 175.8L172.5 171.6L177 178.1L180.9 173.6L184.4 176.9" stroke="#071146" stroke-width="2" stroke-miterlimit="10" stroke-linecap="round" stroke-linejoin="round"/>
<path d="M415.3 112.8C432.2 112.8 445.8 126.7 445.8 143.8C445.8 160.9 432.1 174.8 415.3 174.8H384.7V165.5H415.2C415.2 165.5 435.2 165.5 435.2 143.8C435.2 122.1 415.2 122.1 415.2 122.1H384.7V112.7H415.3V112.8Z" fill="white"/>
<path d="M384.678 176.363H404.978V166.863H384.678V176.363Z" fill="#FCAA90"/>
<path d="M384.678 122.278H404.978V112.778H384.678V122.278Z" fill="#00A6FF"/>
<path d="M416.6 112.8C434.2 112.8 448.4 127 448.4 144.6C448.4 162.2 434.2 176.4 416.6 176.4H384.8V166.9H416.6C416.6 166.9 437.5 166.9 437.5 144.7C437.5 122.5 416.6 122.5 416.6 122.5H384.8V112.8H416.6V112.8Z" stroke="#071146" stroke-width="2" stroke-miterlimit="10" stroke-linecap="round" stroke-linejoin="round"/>
<path d="M373.2 173.9L369 178.1L364.5 171.6L360.7 176.1L357.2 172.8" stroke="#071146" stroke-width="2" stroke-miterlimit="10" stroke-linecap="round" stroke-linejoin="round"/>
<path d="M373.2 167.4L369 171.6L364.5 165.2L360.7 169.7L357.2 166.4" stroke="#071146" stroke-width="2" stroke-miterlimit="10" stroke-linecap="round" stroke-linejoin="round"/>
<path d="M373.2 119.8L369 124L364.5 117.5L360.7 122L357.2 118.7" stroke="#071146" stroke-width="2" stroke-miterlimit="10" stroke-linecap="round" stroke-linejoin="round"/>
<path d="M373.2 113.3L369 117.5L364.5 111.1L360.7 115.6L357.2 112.3" stroke="#071146" stroke-width="2" stroke-miterlimit="10" stroke-linecap="round" stroke-linejoin="round"/>
</svg>
