<svg width="93" height="96" viewBox="0 0 93 96" fill="none" xmlns="http://www.w3.org/2000/svg">
<g clip-path="url(#clip0)">
<path d="M82.2999 73.4H18.5999C13.7999 73.4 9.8999 69.5 9.8999 64.7V18C9.8999 13.2 13.7999 9.30005 18.5999 9.30005H82.2999C87.0999 9.30005 90.9999 13.2 90.9999 18V64.8001C90.8999 69.5001 87.0999 73.4 82.2999 73.4Z" fill="#B3C1F4"/>
<path d="M81.9 73.4H11.2C5.9 73.4 1.5 69 1.5 63.7V11.2C1.5 5.9 5.9 1.5 11.2 1.5H81.9C87.2 1.5 91.6 5.9 91.6 11.2V63.8C91.5 69.1 87.2 73.4 81.9 73.4Z" stroke="#071146" stroke-width="2" stroke-miterlimit="10" stroke-linecap="round" stroke-linejoin="round"/>
<path d="M26.3999 94.4H67.4999" stroke="#071146" stroke-width="2" stroke-miterlimit="10" stroke-linecap="round" stroke-linejoin="round"/>
<path d="M23.2002 64.8001C21.1002 64.8001 19.0002 63.7001 16.7002 61.4001C14.4002 59.2001 13.2002 57.0001 13.2002 55.0001C13.2002 54.0001 13.7002 53.2001 14.5002 52.6001L15.2002 52.1001C16.0002 51.6001 17.1002 51.7001 17.8002 52.5001L18.8002 53.7001C19.3002 54.4001 19.4002 55.3001 19.0002 56.0001L18.2002 57.3001C18.2002 57.3001 18.2002 57.4001 18.3002 57.6001C18.5002 57.9001 18.8002 58.3001 19.2002 58.7001C19.8002 59.3001 20.3002 59.7001 20.6002 59.7001H20.7002L21.9002 58.9001C22.6002 58.4001 23.5002 58.5001 24.2002 59.0001L25.4002 60.0001C26.2002 60.6001 26.4002 61.7001 25.9002 62.6001L25.4002 63.4001C25.0002 64.3001 24.1002 64.8001 23.2002 64.8001Z" stroke="#071146" stroke-width="2" stroke-miterlimit="10" stroke-linecap="round" stroke-linejoin="round"/>
<path d="M23.2002 44.5C21.1002 44.5 19.0002 43.4 16.7002 41.1C14.4002 38.9 13.2002 36.7 13.2002 34.7C13.2002 33.7 13.7002 32.9 14.5002 32.3L15.2002 31.8C16.0002 31.3 17.1002 31.4 17.8002 32.2L18.8002 33.4C19.3002 34.1 19.4002 35 19.0002 35.7L18.2002 37C18.2002 37 18.2002 37.1 18.3002 37.3C18.5002 37.6 18.8002 38 19.2002 38.4C19.8002 39 20.3002 39.4 20.6002 39.4H20.7002L21.9002 38.6C22.6002 38.1 23.5002 38.2 24.2002 38.7L25.4002 39.7C26.2002 40.3 26.4002 41.4 25.9002 42.3L25.4002 43.1C25.0002 44 24.1002 44.5 23.2002 44.5Z" stroke="#071146" stroke-width="2" stroke-miterlimit="10" stroke-linecap="round" stroke-linejoin="round"/>
<path d="M56.6998 56.4999C52.1998 56.4999 47.4998 53.9999 42.4998 49.1999C37.4998 44.2999 34.8998 39.6999 34.7998 35.0999C34.7998 32.9999 35.7998 31.0999 37.5998 29.9999L39.1998 28.9999C40.9998 27.7999 43.3998 28.1999 44.7998 29.8999L46.9998 32.4999C48.1998 33.8999 48.2998 35.8999 47.3998 37.4999L45.6998 40.2999C45.6998 40.3999 45.6998 40.5999 45.8998 41.0999C46.1998 41.7999 46.8998 42.5999 47.8998 43.5999C49.2998 44.9999 50.3998 45.6999 50.9998 45.7999C51.0998 45.7999 51.1998 45.7999 51.2998 45.6999L53.9998 43.9999C55.5998 42.9999 57.5998 43.0999 58.9998 44.2999L61.6998 46.4999C63.3998 47.8999 63.7998 50.2999 62.6998 52.0999L61.6998 53.6999C60.6998 55.3999 58.7998 56.3999 56.6998 56.4999Z" fill="white"/>
<path d="M23.2002 24.3001C21.1002 24.3001 19.0002 23.2001 16.7002 20.9001C14.4002 18.7001 13.2002 16.5001 13.2002 14.5001C13.2002 13.5001 13.7002 12.7001 14.5002 12.1001L15.2002 11.6001C16.0002 11.1001 17.1002 11.2001 17.8002 12.0001L18.8002 13.2001C19.3002 13.9001 19.4002 14.8001 19.0002 15.5001L18.2002 16.8001C18.2002 16.8001 18.2002 16.9001 18.3002 17.1001C18.5002 17.4001 18.8002 17.8001 19.2002 18.2001C19.8002 18.8001 20.3002 19.2001 20.6002 19.2001H20.7002L21.9002 18.4001C22.6002 17.9001 23.5002 18.0001 24.2002 18.5001L25.4002 19.5001C26.2002 20.1001 26.4002 21.2001 25.9002 22.1001L25.5002 23.0001C25.0002 23.8001 24.1002 24.3001 23.2002 24.3001Z" stroke="#071146" stroke-width="2" stroke-miterlimit="10" stroke-linecap="round" stroke-linejoin="round"/>
<path d="M77.5 64.8001C75.4 64.8001 73.3 63.7001 71 61.4001C68.7 59.2001 67.5 57.0001 67.5 55.0001C67.5 54.0001 68 53.2001 68.8 52.6001L69.5 52.1001C70.3 51.6001 71.4 51.7001 72.1 52.5001L73.1 53.7001C73.6 54.4001 73.7 55.3001 73.3 56.0001L72.5 57.3001C72.5 57.3001 72.5 57.4001 72.6 57.6001C72.8 57.9001 73.1 58.3001 73.5 58.7001C74.1 59.3001 74.6 59.7001 74.9 59.7001H75L76.2 58.9001C76.9 58.4001 77.8 58.5001 78.5 59.0001L79.7 60.0001C80.5 60.6001 80.7 61.7001 80.2 62.6001L79.7 63.4001C79.3 64.3001 78.5 64.8001 77.5 64.8001Z" stroke="#071146" stroke-width="2" stroke-miterlimit="10" stroke-linecap="round" stroke-linejoin="round"/>
<path d="M77.5 44.5C75.4 44.5 73.3 43.4 71 41.1C68.7 38.9 67.5 36.7 67.5 34.7C67.5 33.7 68 32.9 68.8 32.3L69.5 31.8C70.3 31.3 71.4 31.4 72.1 32.2L73.1 33.4C73.6 34.1 73.7 35 73.3 35.7L72.5 37C72.5 37 72.5 37.1 72.6 37.3C72.8 37.6 73.1 38 73.5 38.4C74.1 39 74.6 39.4 74.9 39.4H75L76.2 38.6C76.9 38.1 77.8 38.2 78.5 38.7L79.7 39.7C80.5 40.3 80.7 41.4 80.2 42.3L79.7 43.1C79.3 44 78.5 44.5 77.5 44.5Z" stroke="#071146" stroke-width="2" stroke-miterlimit="10" stroke-linecap="round" stroke-linejoin="round"/>
<path d="M77.5 24.3001C75.4 24.3001 73.3 23.2001 71 20.9001C68.7 18.7001 67.5 16.5001 67.5 14.5001C67.5 13.5001 68 12.7001 68.8 12.1001L69.5 11.6001C70.3 11.1001 71.4 11.2001 72.1 12.0001L73.1 13.2001C73.6 13.9001 73.7 14.8001 73.3 15.5001L72.5 16.8001C72.5 16.8001 72.5 16.9001 72.6 17.1001C72.8 17.4001 73.1 17.8001 73.5 18.2001C74.1 18.8001 74.6 19.2001 74.9 19.2001H75L76.2 18.4001C76.9 17.9001 77.8 18.0001 78.5 18.5001L79.7 19.5001C80.5 20.1001 80.7 21.2001 80.2 22.1001L79.8 23.0001C79.3 23.8001 78.5 24.3001 77.5 24.3001Z" stroke="#071146" stroke-width="2" stroke-miterlimit="10" stroke-linecap="round" stroke-linejoin="round"/>
<path d="M54.5001 54.9C50.0001 54.9 45.3001 52.4 40.3001 47.6C35.3001 42.7 32.7001 38.1 32.6001 33.5C32.6001 31.4 33.6001 29.5 35.4001 28.4L37.0001 27.4C38.8001 26.2 41.2001 26.6 42.6001 28.3L44.8001 30.9C46.0001 32.3 46.1001 34.3 45.2001 35.9L43.5001 38.7C43.5001 38.8 43.5001 39 43.7001 39.5C44.0001 40.2 44.7001 41 45.7001 42C47.1001 43.4 48.2001 44.1 48.8001 44.2C48.9001 44.2 49.0001 44.2 49.1001 44.1L51.8001 42.4C53.4001 41.4 55.4001 41.5 56.8001 42.7L59.5001 44.9C61.2001 46.3 61.6001 48.7 60.5001 50.5L59.5001 52.1C58.5001 53.8 56.6001 54.9 54.5001 54.9Z" stroke="#071146" stroke-width="2" stroke-miterlimit="10" stroke-linecap="round" stroke-linejoin="round"/>
</g>
<defs>
<clipPath id="clip0">
<rect width="93" height="95.9" fill="white"/>
</clipPath>
</defs>
</svg>
