<svg width="93" height="96" viewBox="0 0 93 96" fill="none" xmlns="http://www.w3.org/2000/svg">
<g clip-path="url(#clip0)">
<path d="M82.2999 73.4H18.5999C13.7999 73.4 9.8999 69.5 9.8999 64.7V18C9.8999 13.2 13.7999 9.30005 18.5999 9.30005H82.2999C87.0999 9.30005 90.9999 13.2 90.9999 18V64.8001C90.8999 69.5001 87.0999 73.4 82.2999 73.4Z" fill="#FEDB8F"/>
<path d="M81.9 73.4H11.2C5.9 73.4 1.5 69 1.5 63.7V11.2C1.5 5.9 5.9 1.5 11.2 1.5H81.9C87.2 1.5 91.6 5.9 91.6 11.2V63.8C91.5 69.1 87.2 73.4 81.9 73.4Z" stroke="#071146" stroke-width="2" stroke-miterlimit="10" stroke-linecap="round" stroke-linejoin="round"/>
<path d="M26.3999 94.4H67.4999" stroke="#071146" stroke-width="2" stroke-miterlimit="10" stroke-linecap="round" stroke-linejoin="round"/>
<path d="M24.8002 15.2C25.6002 15.2 26.4002 15.3 27.2002 15.5C27.6002 15.6 27.8002 15.9 27.9002 16.2L28.1002 17.9C28.2002 18.7 28.8002 19.3 29.6002 19.3C29.8002 19.3 30.0002 19.3 30.2002 19.2L31.8002 18.5C32.1002 18.4 32.5002 18.4 32.8002 18.7C33.9002 19.9 34.8002 21.4 35.3002 22.9C35.4002 23.2 35.3002 23.6 35.0002 23.8L33.6002 24.8C33.2002 25.1 33.0002 25.6 33.0002 26C33.0002 26.5 33.2002 27 33.6002 27.2L35.0002 28.2C35.3002 28.4 35.4002 28.8 35.3002 29.1C34.8002 30.7 34.0002 32.0999 32.8002 33.2999C32.6002 33.5999 32.2002 33.6 31.8002 33.5L30.2002 32.7999C29.7002 32.5999 29.2002 32.6 28.8002 32.9C28.4002 33.1 28.1002 33.5999 28.0002 34.0999L27.9002 36C27.9002 36.4 27.6002 36.6 27.3002 36.7C25.7002 37.1 24.0002 37.1 22.4002 36.7C22.1002 36.6 21.8002 36.3 21.8002 36L21.6002 34.2999C21.5002 33.7999 21.3002 33.3999 20.8002 33.0999C20.4002 32.8999 19.9002 32.8 19.4002 33L17.8002 33.7C17.5002 33.8 17.1002 33.8 16.8002 33.5C15.7002 32.3 14.8002 30.8 14.3002 29.2C14.2002 28.9 14.3002 28.5 14.6002 28.3L16.0002 27.3C16.4002 27 16.6002 26.5 16.6002 26.1C16.6002 25.6 16.4002 25.1 16.0002 24.9L14.6002 23.9C14.3002 23.7 14.2002 23.3 14.3002 23C14.8002 21.4 15.6002 20 16.8002 18.8C17.0002 18.5 17.4002 18.5 17.8002 18.6L19.4002 19.3C19.9002 19.5 20.4002 19.5 20.8002 19.2C21.2002 19 21.5002 18.5 21.6002 18L21.8002 16.3C21.8002 15.9 22.1002 15.7 22.5002 15.6C23.1002 15.3 23.9002 15.2 24.8002 15.2ZM24.8002 21.9C27.1002 21.9 29.0002 23.8 29.0002 26.1C29.0002 28.4 27.1002 30.3 24.8002 30.3C22.5002 30.3 20.6002 28.4 20.6002 26.1C20.6002 23.8 22.4002 21.9 24.8002 21.9Z" stroke="white" stroke-width="2" stroke-miterlimit="10" stroke-linecap="round" stroke-linejoin="round"/>
<path d="M10.2002 63.3H87.2002" stroke="white" stroke-width="2" stroke-miterlimit="10" stroke-linecap="round" stroke-linejoin="round"/>
<path d="M83.1001 15.2V67.5999" stroke="white" stroke-width="2" stroke-miterlimit="10" stroke-linecap="round" stroke-linejoin="round"/>
<path d="M14.2998 47.4C18.5998 49.6 23.4998 50.9 28.1998 50.1C32.9998 49.3 37.4998 46.2 38.8998 41.6C39.5998 39.3 39.5998 36.6 40.9998 34.6C42.4998 32.5 45.2998 31.5 47.8998 32C50.3998 32.5 52.5998 34.3 53.8998 36.6C55.2998 39 55.6998 41.9 56.8998 44.4C58.0998 46.9 60.6998 49.2 63.3998 48.6C65.1998 48.2 66.5998 46.7 67.2998 44.9C67.9998 43.2 67.9998 41.3 68.0998 39.4C68.1998 37.9 68.1998 36.5 68.2998 35C68.3998 33 68.3998 31 68.9998 29C69.5998 27 70.5998 25.2 72.2998 24.1C73.9998 23 76.2998 22.8 77.9998 23.9" stroke="#071146" stroke-width="2" stroke-miterlimit="10" stroke-linecap="round" stroke-linejoin="round"/>
<path d="M22 67.6V56.5" stroke="white" stroke-width="2" stroke-miterlimit="10" stroke-linecap="round" stroke-linejoin="round"/>
<path d="M37.2002 67.6V56.5" stroke="white" stroke-width="2" stroke-miterlimit="10" stroke-linecap="round" stroke-linejoin="round"/>
<path d="M52.5 67.6V56.5" stroke="white" stroke-width="2" stroke-miterlimit="10" stroke-linecap="round" stroke-linejoin="round"/>
<path d="M67.7002 67.6V56.5" stroke="white" stroke-width="2" stroke-miterlimit="10" stroke-linecap="round" stroke-linejoin="round"/>
</g>
<defs>
<clipPath id="clip0">
<rect width="93" height="95.9" fill="white"/>
</clipPath>
</defs>
</svg>
