<svg width="586" height="272" viewBox="0 0 586 272" fill="none" xmlns="http://www.w3.org/2000/svg">
<path d="M581 60H0V272H581C583.8 272 586 270.285 586 268.103V63.8971C586 61.7147 583.8 60 581 60Z" fill="#B6E2DF"/>
<path d="M209.5 53.6L221.2 70.6" stroke="white" stroke-width="2" stroke-miterlimit="10" stroke-linecap="round" stroke-linejoin="round" stroke-dasharray="6 6"/>
<path d="M41.5 39L66.2 48.7" stroke="#B6E2DF" stroke-width="2" stroke-miterlimit="10" stroke-linecap="round" stroke-linejoin="round" stroke-dasharray="6 6"/>
<path d="M235.1 133.1L152.8 100.9L71.6001 188.8" stroke="white" stroke-width="2" stroke-miterlimit="10" stroke-linecap="round" stroke-linejoin="round" stroke-dasharray="6 6"/>
<path d="M218.7 226.2L289.7 129.2L324.9 205.2" stroke="white" stroke-width="2" stroke-miterlimit="10" stroke-linecap="round" stroke-linejoin="round" stroke-dasharray="6 6"/>
<path d="M250.2 70.6L359.2 14.9L424.8 69.6" stroke="#B6E2DF" stroke-width="2" stroke-miterlimit="10" stroke-linecap="round" stroke-linejoin="round" stroke-dasharray="6 6"/>
<path d="M480.8 213.1L514 182.5" stroke="white" stroke-width="2" stroke-miterlimit="10" stroke-linecap="round" stroke-linejoin="round" stroke-dasharray="6 6"/>
<path d="M528.9 145.9L517.8 102.3" stroke="white" stroke-width="2" stroke-miterlimit="10" stroke-linecap="round" stroke-linejoin="round" stroke-dasharray="6 6"/>
<path d="M500.9 94.9L344.2 214.3" stroke="white" stroke-width="2" stroke-miterlimit="10" stroke-linecap="round" stroke-linejoin="round" stroke-dasharray="6 6"/>
<path d="M105.5 62L212.2 83.9" stroke="white" stroke-width="2" stroke-miterlimit="10" stroke-linecap="round" stroke-linejoin="round" stroke-dasharray="6 6"/>
<path d="M171.2 194.4L198.3 226.2" stroke="white" stroke-width="2" stroke-miterlimit="10" stroke-linecap="round" stroke-linejoin="round" stroke-dasharray="6 6"/>
<path d="M148.1 117.2L156.4 151.9" stroke="white" stroke-width="2" stroke-miterlimit="10" stroke-linecap="round" stroke-linejoin="round" stroke-dasharray="6 6"/>
<path d="M99.3999 66.3L131.6 92.6" stroke="white" stroke-width="2" stroke-miterlimit="10" stroke-linecap="round" stroke-linejoin="round" stroke-dasharray="6 6"/>
<path d="M414.6 87.9L344.2 129.2L507.3 158" stroke="white" stroke-width="2" stroke-miterlimit="10" stroke-linecap="round" stroke-linejoin="round" stroke-dasharray="6 6"/>
<path d="M346.5 231.7L455.8 228.9" stroke="white" stroke-width="2" stroke-miterlimit="10" stroke-linecap="round" stroke-linejoin="round" stroke-dasharray="6 6"/>
<path d="M89.0999 61.9C96.1139 61.9 101.8 56.214 101.8 49.2C101.8 42.186 96.1139 36.5 89.0999 36.5C82.0859 36.5 76.3999 42.186 76.3999 49.2C76.3999 56.214 82.0859 61.9 89.0999 61.9Z" fill="white" stroke="#071146" stroke-width="2" stroke-miterlimit="10" stroke-linecap="round" stroke-linejoin="round"/>
<path d="M65.9002 50.7C65.9002 51.1 66.0002 51.5 66.3002 51.6C66.4002 51.7 66.6002 51.7 66.8002 51.7C68.3002 51.9 69.9002 52.1 71.4002 52.2C72.2002 52.3 73.0002 52.4 73.8002 52.4C76.2002 52.4 78.5002 51.7 80.8002 51C84.3002 49.9 87.8002 48.8 91.3002 47.8C94.0002 47 96.9002 46 98.7002 43.7C99.2002 43 99.6002 42.1 99.2002 41.3C98.9002 40.7 98.2002 40.5 97.7002 40.2C96.5002 39.6 95.5002 38.7 94.4002 38C90.2002 35.4 84.4002 35.9 80.4002 38.9C79.1002 39.9 77.9002 41.2 77.5002 42.8C77.3002 43.6 77.3002 44.4 76.9002 45.1C76.6002 45.5 76.2002 45.9 75.7002 46.1C73.9002 47 71.7002 46.5 69.7002 45.9C68.6002 45.6 66.8002 44.5 66.3002 45.8C65.7002 47.2 65.9002 49.3 65.9002 50.7Z" fill="#FCAA90"/>
<path d="M469 237C477.229 237 483.9 230.329 483.9 222.1C483.9 213.871 477.229 207.2 469 207.2C460.771 207.2 454.1 213.871 454.1 222.1C454.1 230.329 460.771 237 469 237Z" fill="white"/>
<path d="M472.714 216.861C472.721 214.818 471.07 213.156 469.026 213.149C466.983 213.142 465.321 214.794 465.314 216.837C465.308 218.881 466.959 220.542 469.002 220.549C471.046 220.556 472.708 218.904 472.714 216.861Z" stroke="#071146" stroke-width="2" stroke-miterlimit="10" stroke-linecap="round" stroke-linejoin="round"/>
<path d="M468.9 230.6C472 230.6 474.6 228.1 474.6 224.9V224C474.6 223.4 474.1 223 473.6 223H464.3C463.7 223 463.3 223.5 463.3 224V224.9C463.3 228 465.8 230.6 468.9 230.6Z" stroke="#071146" stroke-width="2" stroke-miterlimit="10" stroke-linecap="round" stroke-linejoin="round"/>
<path d="M514 102.8C522.229 102.8 528.9 96.129 528.9 87.9C528.9 79.671 522.229 73 514 73C505.771 73 499.1 79.671 499.1 87.9C499.1 96.129 505.771 102.8 514 102.8Z" fill="white"/>
<path d="M517.762 82.6764C517.768 80.6329 516.117 78.971 514.074 78.9644C512.03 78.9578 510.368 80.609 510.362 82.6525C510.355 84.6959 512.006 86.3578 514.05 86.3644C516.093 86.371 517.755 84.7198 517.762 82.6764Z" stroke="#071146" stroke-width="2" stroke-miterlimit="10" stroke-linecap="round" stroke-linejoin="round"/>
<path d="M513.9 96.4C517 96.4 519.6 93.9 519.6 90.7V89.8C519.6 89.2 519.1 88.8 518.6 88.8H509.3C508.7 88.8 508.3 89.3 508.3 89.8V90.7C508.3 93.8 510.8 96.4 513.9 96.4Z" stroke="#071146" stroke-width="2" stroke-miterlimit="10" stroke-linecap="round" stroke-linejoin="round"/>
<path d="M359.2 29.8C367.429 29.8 374.1 23.129 374.1 14.9C374.1 6.67096 367.429 0 359.2 0C350.971 0 344.3 6.67096 344.3 14.9C344.3 23.129 350.971 29.8 359.2 29.8Z" fill="#B6E2DF"/>
<path d="M362.905 9.60565C362.911 7.5622 361.26 5.90032 359.217 5.89371C357.173 5.8871 355.511 7.53827 355.505 9.58173C355.498 11.6252 357.149 13.2871 359.193 13.2937C361.236 13.3003 362.898 11.6491 362.905 9.60565Z" stroke="#071146" stroke-width="2" stroke-miterlimit="10" stroke-linecap="round" stroke-linejoin="round"/>
<path d="M359.1 23.3C362.2 23.3 364.8 20.8 364.8 17.6V16.7C364.8 16.1 364.3 15.7 363.8 15.7H354.5C353.9 15.7 353.5 16.2 353.5 16.7V17.6C353.5 20.7 356 23.3 359.1 23.3Z" stroke="#071146" stroke-width="2" stroke-miterlimit="10" stroke-linecap="round" stroke-linejoin="round"/>
<path d="M198.3 58.8C206.529 58.8 213.2 52.129 213.2 43.9C213.2 35.671 206.529 29 198.3 29C190.071 29 183.4 35.671 183.4 43.9C183.4 52.129 190.071 58.8 198.3 58.8Z" fill="#FEDB8F"/>
<path d="M201.962 38.5831C201.969 36.5396 200.318 34.8777 198.274 34.8711C196.231 34.8645 194.569 36.5157 194.562 38.5592C194.556 40.6026 196.207 42.2645 198.25 42.2711C200.294 42.2777 201.956 40.6265 201.962 38.5831Z" stroke="#071146" stroke-width="2" stroke-miterlimit="10" stroke-linecap="round" stroke-linejoin="round"/>
<path d="M198.2 52.2999C201.3 52.2999 203.9 49.7999 203.9 46.5999V45.7C203.9 45.1 203.4 44.7 202.9 44.7H193.6C193 44.7 192.6 45.2 192.6 45.7V46.5999C192.5 49.7999 195.1 52.2999 198.2 52.2999Z" stroke="#071146" stroke-width="2" stroke-miterlimit="10" stroke-linecap="round" stroke-linejoin="round"/>
<path d="M144.3 117.7C152.529 117.7 159.2 111.029 159.2 102.8C159.2 94.571 152.529 87.9 144.3 87.9C136.071 87.9 129.4 94.571 129.4 102.8C129.4 111.029 136.071 117.7 144.3 117.7Z" fill="white"/>
<path d="M148.019 97.561C148.026 95.5175 146.375 93.8556 144.331 93.849C142.288 93.8424 140.626 95.4936 140.619 97.5371C140.613 99.5805 142.264 101.242 144.307 101.249C146.351 101.256 148.013 99.6044 148.019 97.561Z" stroke="#071146" stroke-width="2" stroke-miterlimit="10" stroke-linecap="round" stroke-linejoin="round"/>
<path d="M144.3 111.2C147.4 111.2 150 108.7 150 105.5V104.6C150 104 149.5 103.6 149 103.6H139.7C139.1 103.6 138.7 104.1 138.7 104.6V105.5C138.6 108.7 141.1 111.2 144.3 111.2Z" stroke="#071146" stroke-width="2" stroke-miterlimit="10" stroke-linecap="round" stroke-linejoin="round"/>
<path d="M29.9 48.8C38.129 48.8 44.8 42.129 44.8 33.9C44.8 25.671 38.129 19 29.9 19C21.671 19 15 25.671 15 33.9C15 42.129 21.671 48.8 29.9 48.8Z" fill="#B6E2DF"/>
<path d="M33.5482 28.5863C33.5548 26.5428 31.9036 24.8809 29.8602 24.8743C27.8167 24.8677 26.1548 26.5189 26.1482 28.5623C26.1416 30.6058 27.7928 32.2677 29.8362 32.2743C31.8797 32.2809 33.5416 30.6297 33.5482 28.5863Z" stroke="#071146" stroke-width="2" stroke-miterlimit="10" stroke-linecap="round" stroke-linejoin="round"/>
<path d="M29.8001 42.2999C32.9001 42.2999 35.5001 39.7999 35.5001 36.5999V35.7C35.5001 35.1 35.0001 34.7 34.5001 34.7H25.2001C24.6001 34.7 24.2001 35.2 24.2001 35.7V36.5999C24.1001 39.7999 26.7001 42.2999 29.8001 42.2999Z" stroke="#071146" stroke-width="2" stroke-miterlimit="10" stroke-linecap="round" stroke-linejoin="round"/>
<path d="M208.5 251.9C216.729 251.9 223.4 245.229 223.4 237C223.4 228.771 216.729 222.1 208.5 222.1C200.271 222.1 193.6 228.771 193.6 237C193.6 245.229 200.271 251.9 208.5 251.9Z" fill="white"/>
<path d="M212.144 231.716C212.15 229.673 210.499 228.011 208.456 228.004C206.412 227.998 204.751 229.649 204.744 231.692C204.737 233.736 206.388 235.398 208.432 235.404C210.475 235.411 212.137 233.76 212.144 231.716Z" stroke="#071146" stroke-width="2" stroke-miterlimit="10" stroke-linecap="round" stroke-linejoin="round"/>
<path d="M208.4 245.4C211.5 245.4 214.1 242.9 214.1 239.7V238.8C214.1 238.2 213.6 237.8 213.1 237.8H203.8C203.2 237.8 202.8 238.3 202.8 238.8V239.7C202.7 242.9 205.3 245.4 208.4 245.4Z" stroke="#071146" stroke-width="2" stroke-miterlimit="10" stroke-linecap="round" stroke-linejoin="round"/>
<path d="M333 171.6L255.7 171.3C250 171.3 245.3 166.6 245.3 160.8L245.5 104.9C245.5 99.2 250.2 94.5 256 94.5L333.3 94.8C339 94.8 343.7 99.5 343.7 105.3L343.5 161.2C343.4 166.9 338.7 171.6 333 171.6Z" fill="white"/>
<path d="M235.3 108.6L281.2 134.7C286.5 137.7 293 137.7 298.3 134.8L344.4 109" stroke="#071146" stroke-width="2" stroke-miterlimit="10" stroke-linecap="round" stroke-linejoin="round"/>
<path d="M344.2 153.3L305.5 131.3" stroke="#071146" stroke-width="2" stroke-miterlimit="10" stroke-linecap="round" stroke-linejoin="round"/>
<path d="M273.9 131.2L235.1 152.9" stroke="#071146" stroke-width="2" stroke-miterlimit="10" stroke-linecap="round" stroke-linejoin="round"/>
<path d="M257 86.8L332.9 87.1C339.2 87.1 344.4 92.3 344.4 98.7L344.2 160.2C344.2 166.5 339 171.7 332.6 171.7L246.6 171.4C240.3 171.4 235.1 166.2 235.1 159.8L235.3 108.7" stroke="#071146" stroke-width="2" stroke-miterlimit="10" stroke-linecap="round" stroke-linejoin="round"/>
<path d="M289.8 126C288 126 286.3 125.7 284.8 125.1C283.3 124.5 281.9 123.6 280.8 122.5C279.7 121.4 278.8 120.1 278.2 118.5C277.6 117 277.3 115.3 277.3 113.5C277.3 111.7 277.6 110 278.2 108.4C278.8 106.8 279.7 105.5 280.8 104.4C281.9 103.3 283.2 102.4 284.8 101.8C286.3 101.2 288 100.9 289.8 100.9C291.6 100.9 293.3 101.2 294.9 101.8C296.4 102.4 297.8 103.3 298.9 104.4C300 105.5 300.9 106.8 301.5 108.4C302.1 110 302.4 111.6 302.4 113.5C302.4 115 302.2 116.3 301.8 117.4C301.4 118.5 300.9 119.4 300.2 120.1C299.5 120.8 298.7 121.1 297.8 121.1C297 121.1 296.4 120.8 295.8 120.3C295.3 119.8 295 119.1 295 118.3V117.5C294.7 118 294.3 118.4 293.7 118.8C293.1 119.2 292.5 119.5 291.9 119.7C291.2 119.9 290.6 120 289.9 120C288.6 120 287.5 119.7 286.5 119.1C285.5 118.5 284.7 117.7 284.1 116.7C283.5 115.7 283.2 114.5 283.2 113.3C283.2 112 283.5 110.8 284.1 109.8C284.7 108.8 285.5 108 286.5 107.4C287.5 106.8 288.7 106.5 289.9 106.5C291.2 106.5 292.4 106.8 293.3 107.4C294.3 108 295.1 108.8 295.6 109.8C296.2 110.8 296.5 112 296.5 113.3V117.7C296.5 118.3 296.6 118.8 296.8 119C297 119.3 297.3 119.4 297.7 119.4C298.3 119.4 298.9 119.1 299.4 118.6C299.9 118.1 300.3 117.3 300.5 116.4C300.8 115.5 300.9 114.4 300.9 113.2C300.9 111.6 300.6 110.1 300.1 108.7C299.6 107.3 298.8 106.2 297.8 105.2C296.8 104.2 295.6 103.4 294.3 102.9C292.9 102.4 291.5 102.1 289.8 102.1C288.2 102.1 286.7 102.4 285.3 102.9C283.9 103.4 282.8 104.2 281.8 105.2C280.8 106.2 280 107.4 279.5 108.7C279 110.1 278.7 111.5 278.7 113.2C278.7 114.8 279 116.3 279.5 117.7C280 119.1 280.8 120.2 281.8 121.2C282.8 122.2 284 123 285.3 123.5C286.7 124 288.1 124.3 289.8 124.3C290.6 124.3 291.4 124.2 292.2 124C293 123.8 293.8 123.6 294.3 123.3C294.6 123.1 294.9 123.1 295.1 123.2C295.3 123.3 295.4 123.5 295.4 123.8C295.4 124.1 295.2 124.3 294.7 124.6C294.2 124.9 293.5 125.1 292.7 125.4C291.9 125.9 290.9 126 289.8 126ZM289.8 118.7C290.8 118.7 291.7 118.5 292.5 118C293.3 117.6 293.9 116.9 294.3 116.2C294.7 115.4 295 114.5 295 113.5C295 112.5 294.8 111.6 294.3 110.8C293.9 110 293.2 109.4 292.5 109C291.7 108.6 290.8 108.3 289.8 108.3C288.8 108.3 287.9 108.5 287.1 109C286.3 109.4 285.7 110.1 285.3 110.8C284.9 111.6 284.6 112.5 284.6 113.5C284.6 114.5 284.8 115.4 285.3 116.2C285.7 117 286.4 117.6 287.1 118C287.9 118.4 288.8 118.7 289.8 118.7Z" fill="#FCAA90" stroke="#FCAA90" stroke-width="0.5" stroke-miterlimit="10"/>
<path d="M88.1002 70.6C100.195 70.6 110 60.795 110 48.7C110 36.605 100.195 26.8 88.1002 26.8C76.0052 26.8 66.2002 36.605 66.2002 48.7C66.2002 60.795 76.0052 70.6 88.1002 70.6Z" stroke="#071146" stroke-width="2" stroke-miterlimit="10" stroke-linecap="round" stroke-linejoin="round"/>
<path d="M59.5001 228.2C71.0429 228.2 80.4001 218.843 80.4001 207.3C80.4001 195.757 71.0429 186.4 59.5001 186.4C47.9573 186.4 38.6001 195.757 38.6001 207.3C38.6001 218.843 47.9573 228.2 59.5001 228.2Z" stroke="#071146" stroke-width="2" stroke-miterlimit="10" stroke-linecap="round" stroke-linejoin="round"/>
<path d="M235.4 108.5C247.329 108.5 257 98.8293 257 86.9C257 74.9706 247.329 65.3 235.4 65.3C223.47 65.3 213.8 74.9706 213.8 86.9C213.8 98.8293 223.47 108.5 235.4 108.5Z" stroke="#071146" stroke-width="2" stroke-miterlimit="10" stroke-linecap="round" stroke-linejoin="round"/>
<path d="M159.7 196.1C171.629 196.1 181.3 186.429 181.3 174.5C181.3 162.571 171.629 152.9 159.7 152.9C147.771 152.9 138.1 162.571 138.1 174.5C138.1 186.429 147.771 196.1 159.7 196.1Z" stroke="#071146" stroke-width="2" stroke-miterlimit="10" stroke-linecap="round" stroke-linejoin="round"/>
<path d="M324.9 248.4C336.829 248.4 346.5 238.729 346.5 226.8C346.5 214.871 336.829 205.2 324.9 205.2C312.97 205.2 303.3 214.871 303.3 226.8C303.3 238.729 312.97 248.4 324.9 248.4Z" stroke="#071146" stroke-width="2" stroke-miterlimit="10" stroke-linecap="round" stroke-linejoin="round"/>
<path d="M436.2 109.5C448.129 109.5 457.8 99.8293 457.8 87.9C457.8 75.9706 448.129 66.3 436.2 66.3C424.271 66.3 414.6 75.9706 414.6 87.9C414.6 99.8293 424.271 109.5 436.2 109.5Z" stroke="#071146" stroke-width="2" stroke-miterlimit="10" stroke-linecap="round" stroke-linejoin="round"/>
<path d="M528.9 189.1C540.829 189.1 550.5 179.429 550.5 167.5C550.5 155.571 540.829 145.9 528.9 145.9C516.97 145.9 507.3 155.571 507.3 167.5C507.3 179.429 516.97 189.1 528.9 189.1Z" stroke="#071146" stroke-width="2" stroke-miterlimit="10" stroke-linecap="round" stroke-linejoin="round"/>
<path d="M99.0999 41.8C98.2999 43.9 96.2999 45.4 94.2999 46.5C85.2999 51.6 76.5999 53.7 66.3999 51.7" stroke="#071146" stroke-width="2" stroke-miterlimit="10" stroke-linecap="round" stroke-linejoin="round"/>
<path d="M66.5 45.1C69.7 46.9 73.2 46.9 76.8 45.9" stroke="#071146" stroke-width="2" stroke-miterlimit="10" stroke-linecap="round" stroke-linejoin="round"/>
<path d="M94 52.1C94.1 52.1 94.2 52.1 94.4 52.1" stroke="#071146" stroke-width="2" stroke-miterlimit="10" stroke-linecap="round" stroke-linejoin="round"/>
<path d="M162.4 188.8H157.4C152.5 188.8 148.6 184.8 148.6 180V170.7C148.6 165.8 152.6 161.9 157.4 161.9H162.4C167.3 161.9 171.2 165.9 171.2 170.7V180C171.2 184.8 167.2 188.8 162.4 188.8Z" fill="white" stroke="#071146" stroke-width="2" stroke-miterlimit="10" stroke-linecap="round" stroke-linejoin="round"/>
<path d="M438.7 101.4H433.7C428.8 101.4 424.9 97.4 424.9 92.6V83.3C424.9 78.4 428.9 74.5 433.7 74.5H438.7C443.6 74.5 447.5 78.5 447.5 83.3V92.6C447.5 97.4 443.6 101.4 438.7 101.4Z" fill="white" stroke="#071146" stroke-width="2" stroke-miterlimit="10" stroke-linecap="round" stroke-linejoin="round"/>
<path d="M424.8 92.5C427.8 89.7 432 88.4 436.2 88.6C440.3 88.7 444.3 90.2 447.8 92.3L447.6 95C447.6 99.9 443.6 103.8 438.8 103.8H433.8C428.9 103.8 425 99.8 425 95V93.2L424.8 92.5Z" fill="#B3C1F4"/>
<path d="M170.2 169.9C170.2 166 166.9 162.8 162.8 162.8H156.9C152.8 162.8 149.5 166 149.5 169.9H170.2Z" fill="#95E196"/>
<path d="M235.9 103.2C230.1 103.2 225.4 98.5 225.4 92.7V88.7C225.4 82.9 230.1 78.2 235.9 78.2C241.7 78.2 246.4 82.9 246.4 88.7V92.7C246.4 98.5 241.7 103.2 235.9 103.2Z" fill="white" stroke="#071146" stroke-width="2" stroke-miterlimit="10" stroke-linecap="round" stroke-linejoin="round"/>
<path d="M528.6 182.5C521.7 182.5 516 176.8 516 169.9V165.1C516 158.2 521.7 152.5 528.6 152.5C535.5 152.5 541.2 158.2 541.2 165.1V169.9C541.2 176.9 535.5 182.5 528.6 182.5Z" fill="white" stroke="#071146" stroke-width="2" stroke-miterlimit="10" stroke-linecap="round" stroke-linejoin="round"/>
<path d="M59.5 219.8C53.7 219.8 49 215.1 49 209.3V205.3C49 199.5 53.7 194.8 59.5 194.8C65.3 194.8 70 199.5 70 205.3V209.3C70 215 65.3 219.8 59.5 219.8Z" fill="white" stroke="#071146" stroke-width="2" stroke-miterlimit="10" stroke-linecap="round" stroke-linejoin="round"/>
<path d="M324.9 239.3C319.1 239.3 314.4 234.6 314.4 228.8V224.8C314.4 219 319.1 214.3 324.9 214.3C330.7 214.3 335.4 219 335.4 224.8V228.8C335.4 234.6 330.6 239.3 324.9 239.3Z" fill="white" stroke="#071146" stroke-width="2" stroke-miterlimit="10" stroke-linecap="round" stroke-linejoin="round"/>
<path d="M171.2 169.7H141.5" stroke="#071146" stroke-width="2" stroke-miterlimit="10" stroke-linecap="round" stroke-linejoin="round"/>
<path d="M157 180C158.3 180.8 160.1 180.9 161.4 180" stroke="#071146" stroke-width="2" stroke-miterlimit="10" stroke-linecap="round" stroke-linejoin="round"/>
<path d="M152.8 173.9C152.9 173.9 153 173.9 153.1 173.9" stroke="#071146" stroke-width="2" stroke-miterlimit="10" stroke-linecap="round" stroke-linejoin="round"/>
<path d="M165.3 173.7C165.6 173.7 165.8 173.7 166.1 173.7" stroke="#071146" stroke-width="2" stroke-miterlimit="10" stroke-linecap="round" stroke-linejoin="round"/>
<path d="M225.1 90.1C227.2 90.5 229.4 88.7 229.4 86.7C230.5 87.9 232.4 88 233.8 87.2C235.2 86.4 236 84.8 236.2 83.2C237.1 84.7 239.2 85.5 240.8 84.8C240.1 85.7 240.2 87 240.9 87.8C241.6 88.6 242.9 88.9 243.9 88.4C243.5 90.3 245.6 92.3 247.5 91.8C249.4 91.3 250.4 88.7 249.2 87.1C249.8 85.6 250.4 84.1 250.2 82.5C250 80.9 248.7 79.4 247.1 79.5C246.8 79.5 246.5 79.6 246.2 79.6C245.3 79.5 244.9 78.4 244.5 77.6C243.3 75.3 240.6 74 238.1 74.5C237.8 74.6 237.5 74.7 237.1 74.6C236.7 74.5 236.4 74.3 236.1 74.1C234.5 73 232.5 72.2 230.7 72.8C228.9 73.4 227.8 75.5 228.3 77.4C226.7 76.8 224.8 77 223.6 78.2C222.4 79.5 222.4 81.4 223.4 82.7C222.1 83.7 221.2 84.7 221.7 86.4C222.2 88.2 223.4 89.8 225.1 90.1Z" fill="#FEDB8F"/>
<path d="M224.9 89.8C227 90.2 229.2 88.4 229.2 86.4C230.3 87.6 232.2 87.7 233.6 86.9C235 86.1 235.8 84.5 236 82.9C236.9 84.4 239 85.2 240.6 84.5C239.9 85.4 240 86.7 240.7 87.5C241.4 88.3 242.7 88.6 243.7 88.1C243.3 90 245.4 92 247.3 91.5C249.2 91 250.2 88.4 249 86.8C249.6 85.3 250.2 83.8 250 82.2C249.8 80.6 248.5 79.1 246.9 79.2C246.6 79.2 246.3 79.3 246 79.3C245.1 79.2 244.7 78.1 244.3 77.3C243.1 75 240.4 73.7 237.9 74.2C237.6 74.3 237.3 74.4 236.9 74.3C236.5 74.2 236.2 74 235.9 73.8C234.3 72.7 232.3 71.9 230.5 72.5C228.7 73.1 227.6 75.2 228.1 77.1C226.5 76.5 224.6 76.7 223.4 77.9C222.2 79.2 222.2 81.1 223.2 82.4C221.9 83.4 221 84.4 221.5 86.1C222 87.9 223.2 89.5 224.9 89.8Z" stroke="#071146" stroke-width="2" stroke-miterlimit="10" stroke-linecap="round" stroke-linejoin="round"/>
<path d="M76.8002 45.9C78.3002 40.5 83.2002 36.5 89.1002 36.5C96.1002 36.5 101.8 42.2 101.8 49.2C101.8 56.2 96.1002 62 89.1002 62C83.1002 62 78.1002 57.9 76.7002 52.3" stroke="#071146" stroke-width="2" stroke-miterlimit="10" stroke-linecap="round" stroke-linejoin="round"/>
<path d="M233.3 98.2C233.4 98.6 233.8 98.8 234.2 98.8C235.2 99 236.2 99 237.2 98.7" fill="white"/>
<path d="M233.3 98.2C233.4 98.6 233.8 98.8 234.2 98.8C235.2 99 236.2 99 237.2 98.7" stroke="#071146" stroke-width="2" stroke-miterlimit="10" stroke-linecap="round" stroke-linejoin="round"/>
<path d="M53.6001 203.9C54.8001 203.5 56.0001 203.5 57.3001 203.6C58.7001 203.7 60.1001 203.7 61.5001 203.8C63.3001 203.9 65.1001 204 66.8001 203.4C68.5001 202.9 70.1001 201.6 70.4001 199.8C70.6001 198.9 70.4001 197.9 70.2001 197C70.1001 196.7 70.1001 196.3 69.8001 196.1C69.5001 195.8 69.1001 195.8 68.8001 195.7C67.0001 195.4 65.2001 195.1 63.4001 194.9C61.7001 194.6 60.1001 194.4 58.4001 194.5C55.2001 194.7 52.1001 196.4 50.2001 199C48.7001 200.9 46.4001 206.3 49.2001 208.2C52.1001 210.3 50.9001 204.9 53.6001 203.9Z" fill="#FEDB8F"/>
<path d="M54.1001 203.9C55.3001 203.5 56.5001 203.5 57.8001 203.6C59.2001 203.7 60.6001 203.7 62.0001 203.8C63.8001 203.9 65.6001 204 67.3001 203.4C69.0001 202.9 70.6001 201.6 70.9001 199.8C71.1001 198.9 70.9001 197.9 70.7001 197C70.6001 196.7 70.6001 196.3 70.3001 196.1C70.0001 195.8 69.6001 195.8 69.3001 195.7C67.5001 195.4 65.7001 195.1 63.9001 194.9C62.2001 194.6 60.6001 194.4 58.9001 194.5C55.7001 194.7 52.6001 196.4 50.7001 199C49.2001 200.9 46.9001 206.3 49.7001 208.2C52.5001 210.3 51.4001 204.9 54.1001 203.9Z" stroke="#071146" stroke-width="2" stroke-miterlimit="10" stroke-linecap="round" stroke-linejoin="round"/>
<path d="M54.3999 209.1C55.1999 209.1 56.0999 209.1 56.8999 209.1" stroke="#071146" stroke-width="2" stroke-miterlimit="10" stroke-linecap="round" stroke-linejoin="round"/>
<path d="M63.1001 208.9C63.8001 208.9 64.5001 208.9 65.2001 208.9" stroke="#071146" stroke-width="2" stroke-miterlimit="10" stroke-linecap="round" stroke-linejoin="round"/>
<path d="M322.6 228.9H315.2C314.8 228.9 314.4 228.5 314.4 228.1V224.3C314.4 223.9 314.8 223.5 315.2 223.5H322.6C323 223.5 323.4 223.9 323.4 224.3V228.1C323.4 228.6 323 228.9 322.6 228.9Z" fill="white" stroke="#071146" stroke-width="2" stroke-miterlimit="10" stroke-linecap="round" stroke-linejoin="round"/>
<path d="M334.6 228.9H327.7C327.3 228.9 326.9 228.5 326.9 228.1V224.2C326.9 223.8 327.3 223.4 327.7 223.4H334.6C335 223.4 335.4 223.8 335.4 224.2V228.1C335.4 228.6 335 228.9 334.6 228.9Z" fill="white" stroke="#071146" stroke-width="2" stroke-miterlimit="10" stroke-linecap="round" stroke-linejoin="round"/>
<path d="M318.3 226.4C318.4 226.4 318.6 226.4 318.7 226.4" stroke="#071146" stroke-width="2" stroke-miterlimit="10" stroke-linecap="round" stroke-linejoin="round"/>
<path d="M330.7 226.5C330.8 226.5 331 226.5 331.1 226.5" stroke="#071146" stroke-width="2" stroke-miterlimit="10" stroke-linecap="round" stroke-linejoin="round"/>
<path d="M327.7 233.9C327.5 234.6 326.9 235.2 326.2 235.4C325.5 235.6 324.7 235.6 324 235.4C323.3 235.2 322.6 234.7 322.3 234" stroke="#071146" stroke-width="2" stroke-miterlimit="10" stroke-linecap="round" stroke-linejoin="round"/>
<path d="M319.6 219C320 218.8 320.5 218.6 320.9 218.6C322 218.7 322.9 220.1 323.8 219.5C324.3 219.2 324.4 218.6 325 218.5C325.3 218.5 325.6 218.7 325.9 218.8C326.8 219.4 327.8 219.9 328.9 220.2C329.1 220.3 329.3 220.3 329.5 220.2C329.7 220.1 329.8 219.9 329.9 219.7C330.3 219.3 331 219.3 331.5 219.4C333.6 219.8 335.6 220.5 337.4 221.6C337.6 219.7 336.5 217.8 335.2 216.4C331.7 212.5 326.1 210.5 321.1 211.9C317.6 212.9 314.6 215.7 313.3 219.1C312.9 220.2 311.7 223.3 313.8 222.7C314.7 222.4 315.7 221.3 316.5 220.8C317.5 220.2 318.5 219.6 319.6 219Z" fill="#FEDB8F"/>
<path d="M319.6 219C320 218.8 320.5 218.6 320.9 218.6C322 218.7 322.9 220.1 323.8 219.5C324.3 219.2 324.4 218.6 325 218.5C325.3 218.5 325.6 218.7 325.9 218.8C326.8 219.4 327.8 219.9 328.9 220.2C329.1 220.3 329.3 220.3 329.5 220.2C329.7 220.1 329.8 219.9 329.9 219.7C330.3 219.3 331 219.3 331.5 219.4C333.6 219.8 335.6 220.5 337.4 221.6C337.6 219.7 336.5 217.8 335.2 216.4C331.7 212.5 326.1 210.5 321.1 211.9C317.6 212.9 314.6 215.7 313.3 219.1C312.9 220.2 311.7 223.3 313.8 222.7C314.7 222.4 315.7 221.3 316.5 220.8C317.5 220.2 318.5 219.6 319.6 219Z" stroke="#071146" stroke-width="2" stroke-miterlimit="10" stroke-linecap="round" stroke-linejoin="round"/>
<path d="M424.8 92.5C427.8 89.7 432 88.4 436.2 88.6C440.3 88.7 444.3 90.2 447.8 92.3L447.6 95C447.6 99.9 443.6 103.8 438.8 103.8H433.8C428.9 103.8 425 99.8 425 95V93.2L424.8 92.5Z" stroke="#071146" stroke-width="2" stroke-miterlimit="10" stroke-linecap="round" stroke-linejoin="round"/>
<path d="M432.3 95.3C434.1 96.2 436.2 96.8 438.2 96.2C438.9 96 439.7 95.6 440.1 94.9" stroke="#071146" stroke-width="2" stroke-miterlimit="10" stroke-linecap="round" stroke-linejoin="round"/>
<path d="M430.8 83.9C431.1 83.9 431.4 83.9 431.6 83.9" stroke="#071146" stroke-width="2" stroke-miterlimit="10" stroke-linecap="round" stroke-linejoin="round"/>
<path d="M441.3 83.6C441.5 83.6 441.7 83.6 442 83.6" stroke="#071146" stroke-width="2" stroke-miterlimit="10" stroke-linecap="round" stroke-linejoin="round"/>
<path d="M424.8 83.9C423.8 83.9 422.6 84.2 422.1 85.1C421.7 85.7 421.7 86.5 421.8 87.2C421.8 87.7 421.8 88.2 422 88.6C422.2 89.1 422.7 89.5 423.2 89.7C423.7 89.9 424.3 89.9 424.8 89.9" stroke="#071146" stroke-width="2" stroke-miterlimit="10" stroke-linecap="round" stroke-linejoin="round"/>
<path d="M447.9 83.7C448.3 83.6 448.7 83.5 449 83.5C449.4 83.5 449.8 83.7 450 84C450.2 84.2 450.3 84.6 450.3 84.9C450.4 85.8 450.4 86.8 450.2 87.7C450.1 88.2 449.9 88.8 449.4 89.1C449 89.4 448.4 89.3 448 89.3" stroke="#071146" stroke-width="2" stroke-miterlimit="10" stroke-linecap="round" stroke-linejoin="round"/>
<path d="M540 169.5C541.8 170.1 543.7 170.5 545.6 170.2C543.6 168.7 542.7 166.1 542.2 163.7C541.7 161.3 541.3 158.6 539.8 156.6C538.3 154.6 535.8 153.5 533.3 153C531.8 152.7 526.3 151.9 525.6 153.8C525 155.3 527.9 159.3 528.7 160.5C531.5 164.6 535.4 167.9 540 169.5Z" fill="#FCAA90" stroke="#071146" stroke-width="2" stroke-miterlimit="10" stroke-linecap="round" stroke-linejoin="round"/>
<path d="M525.3 161.4C522.4 163.4 518.8 164.3 515.2 164.1C514.9 161.8 516 159.5 517.4 157.7C519 155.5 521 153.6 523.4 152.6C525.3 151.8 531 151 530.6 154.1C530.3 156.9 527.5 159.9 525.3 161.4Z" fill="#FCAA90" stroke="#071146" stroke-width="2" stroke-miterlimit="10"/>
<path d="M521.4 167.1C522.4 167.1 523.4 166.9 524.4 166.7" stroke="#071146" stroke-width="2" stroke-miterlimit="10" stroke-linecap="round" stroke-linejoin="round"/>
<path d="M525.8 175.4C526.1 176 526.8 176.3 527.5 176.5C528.4 176.8 529.4 176.9 530.3 176.8C531.2 176.6 532.1 176.1 532.6 175.3" stroke="#071146" stroke-width="2" stroke-miterlimit="10" stroke-linecap="round" stroke-linejoin="round"/>
</svg>
