<svg width="586" height="272" viewBox="0 0 586 272" fill="none" xmlns="http://www.w3.org/2000/svg">
<g clip-path="url(#clip0)">
<path d="M581.6 59.7H0V271.8H581.6C584 271.8 586 269.8 586 267.4V64.1C586 61.7 584 59.7 581.6 59.7Z" fill="#95E196"/>
<path d="M138.6 47.8H44.1001C38.0001 47.8 33.1001 42.8 33.1001 36.8C33.1001 30.7 38.1001 25.8 44.1001 25.8H138.5C144.6 25.8 149.5 30.8 149.5 36.8C149.6 42.9 144.6 47.8 138.6 47.8Z" fill="white"/>
<path d="M138.7 45.4H36.4C30.4 45.4 25.5 40.5 25.5 34.5C25.5 28.5 30.4 23.6 36.4 23.6H138.7C144.7 23.6 149.6 28.5 149.6 34.5C149.6 40.5 144.7 45.4 138.7 45.4Z" stroke="#071146" stroke-width="1.5" stroke-miterlimit="10" stroke-linecap="round" stroke-linejoin="round"/>
<path d="M85.2998 31.2H86.3998L83.8998 38.9H82.6998L80.8998 33L78.8998 38.9H77.7998L75.2998 31.2H76.4998L78.4998 37.3L80.4998 31.2H81.5998L83.4998 37.3L85.2998 31.2Z" fill="#071146"/>
<path d="M97.1 31.2H98.2L95.7 38.9H94.5L92.7 33L90.7 38.9H89.6L87 31.2H88.2L90.2 37.3L92.2 31.2H93.3L95.2 37.3L97.1 31.2Z" fill="#071146"/>
<path d="M109 31.2H110.1L107.6 38.9H106.4L104.5 33L102.5 38.9H101.4L98.8999 31.2H100.1L102.1 37.3L104.1 31.2H105.2L107.1 37.3L109 31.2Z" fill="#071146"/>
<path d="M36.4 45.4C42.4199 45.4 47.3 40.5199 47.3 34.5C47.3 28.4801 42.4199 23.6 36.4 23.6C30.3801 23.6 25.5 28.4801 25.5 34.5C25.5 40.5199 30.3801 45.4 36.4 45.4Z" stroke="#071146" stroke-width="1.5" stroke-miterlimit="10" stroke-linecap="round" stroke-linejoin="round"/>
<path d="M219.5 53C218 52.4 216.4 52.2 214.8 52.4C213.4 53.7 210.8 54.1 208.8 54.2C206.8 52.3 204.4 50.5 201.9 49.2C200.2 48.4 198.3 47.5 197.8 45.7C197 42.9 192.1 41.7 189.2 42.4C185.5 41.4 181.4 42.7 178.4 45.1C177.1 46.2 178.6 48.8 179.7 50C180.8 51.2 182.2 52.6 182 54.3C180.6 55 178.8 55 177.3 55C176.4 55 175.5 54.8 174.6 55.1C173.7 55.4 173 56.3 173.3 57.1C172.7 58.1 172 58.7 172.7 59.6C173.2 60.3 174.1 61 174.1 61.9C174.1 62.6 173.5 63.2 172.8 63.5C172.1 63.8 171.4 64 170.8 64.4C168.9 65.6 168.9 68.4 169.1 70.7C170.3 72.2 170.5 74.9 169.9 76.8C169.7 77.5 169.3 78.3 169.6 79C169.9 79.8 170.8 80.1 171.7 80.3C173.5 80.8 175.6 81.2 177 80C180.7 76.9 186.6 78.5 191.3 79.6C192.9 80 194.7 80.6 195.6 82C196.9 83.8 196.3 86.4 195.3 88.4C194.3 90.4 192.7 92.1 192.1 94.3C191.5 96.3 191.7 98.5 191.8 100.5C192 103.1 192.3 105.8 193.8 107.9C195.4 110.1 196.3 113.4 196.2 116.1C196.1 118.3 195.3 120.4 195.5 122.6C195.9 126.5 199.3 129.5 202.7 131.4C206.3 133.4 209.4 136.7 210.7 140.7C211.3 142.7 211.5 144.8 212.1 146.8C213.1 150.3 215.1 153.4 217.9 155.6C219.9 157.2 223.3 157.8 225.9 158.3C227.2 158.5 228.7 158.7 229.7 159.6C230.2 160 230.5 160.6 230.9 161C233 163.1 237 162.3 239.2 164.4C239.8 164.9 240.1 165.6 240.6 166.2C241.9 167.8 244.1 168.7 246.2 168.5C245.7 170.1 247.6 172 247 173.5C246.5 174.8 245.1 175.3 244.1 176.2C242.4 177.8 242.1 180.5 242.9 182.7C243.6 184.9 245.2 186.7 246.8 188.5C249.7 191.7 253.2 193.3 256.3 196.3C259.2 199.1 259.9 203.5 259.2 207.5C258.6 211.5 256.8 215.1 255.6 219C253.3 226.1 252.7 234 254.9 241.1C257.1 248.3 262.3 254.6 269.2 257.5C270 257.8 270.9 257.3 271.5 256.7C272.1 256.1 272.2 255.1 271.8 254.4C270.5 252.1 268.3 250.1 266.7 248.1C266.2 247.5 265.6 246.7 265.7 245.9C265.8 245 266.6 244.3 267.2 243.6C268.1 242.5 268.6 241.1 268.5 239.7C268.5 238.4 267.7 237.1 267.7 235.8C267.7 234.5 268.5 233.1 269.7 232.7C270.3 232.5 270.9 232.5 271.5 232.3C273.3 231.5 273 228.7 274.3 227.3C274.9 226.6 275.8 226.3 276.6 225.9C280.1 224.2 283 220.9 283.3 217C283.6 213.9 282.4 210.1 284.8 208.1C287 206.2 290.3 207.5 293.1 207C294.2 206.8 295 205.7 295.5 204.7C296 203.7 296.1 202.4 295.9 201.3C295.7 199.9 295.1 198.5 295.2 197.1C295.4 195.1 297 193.6 298.2 192C299.6 190.1 300.7 187.9 301.2 185.6C301.8 183 300.1 179.8 297.7 178.5C295.3 177.2 292.5 177.1 289.8 177.1C287.1 177 284.2 176.8 282 175.3C280 173.9 278.8 171.5 277.2 169.6C274.5 166.4 270.6 164.6 266.8 162.8C265.4 162.1 263.8 161.5 262.3 162C261.7 162.2 261.2 162.6 260.6 162.7C258.9 163 257.6 161.4 256.1 160.6C253 158.9 248.5 161.4 248.2 164.9C246.6 165.5 243.6 165 242.7 163.5C242 162.5 241.8 161 240.6 160.5C240 160.2 239.2 160.3 238.7 159.9C237.9 159.2 238.5 157.9 238.7 156.8C238.9 155.1 237.6 153.4 236.1 152.7C234.5 152 232.7 151.9 231 151.8C229.3 151.7 227.5 151.7 225.9 150.9C222.9 149.4 221.6 145.3 223 142.2C224.3 139.1 227.8 137.2 231.2 137.3C234.5 137.4 238 139.8 238.1 143.1C238.1 143.9 239.5 144 240.2 143.6C240.9 143.2 241.3 142.3 241.5 141.5C241.7 140.7 241.7 139.8 242 139C242.6 137.1 244.5 135.8 246.4 135.8C248.4 135.8 249.9 133.8 251.3 132.4C252.7 131 253.6 128.8 253 126.9C252.7 125.8 252 124.8 252.3 123.8C252.6 123 253.4 122.5 254.2 122.2C256.4 121.3 258.8 120.9 261.2 121C263.3 121.1 264.3 119.8 265.4 118C266.2 116.7 266.5 115.1 267.7 114.2C269.5 112.9 272 114 274.3 113.9C277.6 113.7 280.1 110 279.2 106.9C278.8 105.4 277.7 104.2 276.9 102.9C275.7 101.1 274.9 99.1 274.5 97C274.1 95.1 274 92.9 272.7 91.4C270.7 91.5 268.3 91.4 266.5 92.3C266.2 90.3 265.8 88.2 264.5 86.5C263.3 84.9 260.8 83.9 259.1 85C257.4 86 257 88.4 257.3 90.4C257.6 92.4 258.4 94.3 258.4 96.3C258.4 98.3 257 100.5 254.9 100.5C253.9 100.5 252.9 99.8 252.2 99.1C251.1 98 250.3 96.7 249 96C248 95.5 246.8 95.5 245.6 95.3C241.8 94.4 239.2 90.1 240.2 86.3C241.3 82.5 245.8 80.1 249.5 81.4C254 79.8 255.8 74.1 254 69.7C252.2 65.3 247.4 62.5 242.6 62.3C241.2 62.2 239.8 62.4 238.4 62C234.6 61 232.6 56.8 229.2 54.7C227 52.6 222 53.9 219.5 53Z" fill="#B1DEF5"/>
<path d="M280 39.3C278.5 41.6 280.2 44.6 282.3 46.2C284.4 47.8 287.1 48.8 288.8 50.9C291.5 54.3 290.8 59.2 289.3 63.3C287.8 67.4 285.7 71.5 286.2 75.8C286.4 77.8 287.3 79.7 288.3 81.5C289.3 83.2 290.8 84.8 292.7 85.3C295.1 85.9 297.6 84.5 299.5 82.8C301.4 81.1 303 79 305.2 77.9C308.4 76.3 312.6 76.9 315.5 74.6C319 71.8 318.5 66.5 319.4 62.1C321 54.8 327.4 49.3 329.9 42.2C330.4 40.8 330.7 39.4 330.7 37.9C330.6 33.2 326.6 29.2 322.1 27.6C316.6 25.6 311 26.9 305.3 26.6C302.2 26.5 298.8 25.2 295.8 26.4C291.2 28.3 292.5 32.9 289.5 35.6C286.9 37.9 282.1 36.1 280 39.3Z" fill="#B1DEF5"/>
<path d="M404.4 68.1C401.8 65.5 397.5 68 394.7 70.5C392 72.9 389.3 75.4 386.5 77.8C384.5 79.6 382.3 81.6 379.5 82C376.8 82.5 373.5 80.7 373.4 78C375.3 76.3 379 78.8 380.6 76.9C382.1 75.2 379.9 72.8 377.9 71.7C374.3 69.6 370.6 67.5 366.5 67C362.4 66.4 357.8 67.8 355.6 71.4C353.8 74.4 354.1 78.4 352.3 81.4C351.2 83.3 349.3 84.7 348 86.5C346.7 88.3 346.2 91 347.7 92.6C349 93.9 351.1 93.9 352.4 95.1C353.4 96.1 353.7 97.7 355 98.3C356.4 98.9 358.1 97.5 358.4 96C358.7 94.5 358.3 92.9 358 91.3C357.2 86.7 359.6 81 364.2 80.3C365.3 80.3 365.6 81.9 365.1 82.8C364.6 83.7 363.7 84.4 363.2 85.3C362.3 87.1 363.4 89.6 365.3 90.1C367.3 90.6 370.7 90.2 370.4 92.3C370.1 94.5 366.1 93.1 364.7 94.8C363.9 95.9 364.6 97.3 364.6 98.6C364.6 101.2 361.7 102.8 359.2 103C356.7 103.2 354.1 102.4 351.6 102.7C349.1 102.9 346.3 104.7 346.4 107.3C342.9 108.9 339.2 110.3 335.5 111.3C335.7 114.1 340.9 114.3 340.8 117.1C340.8 118.8 338.7 119.6 337.1 119.5C335.4 119.4 333.8 118.7 332.2 119.1C329.4 119.8 328.5 123.7 330 126.2C331.5 128.6 334.7 129.6 337.6 129.4C338.7 129.3 340 129 340.7 128.1C341.4 127.2 341.4 126.1 341.7 125C342.3 122.6 344.4 120.7 346.8 120.1C348.2 119.8 349.8 119.8 350.5 118.6C353.6 120.3 355.8 123.5 356.1 127C357.1 128.3 359.3 126.6 359.1 125C358.9 123.4 357.5 122.3 356.3 121.1C355.2 119.9 354.2 118.1 355.1 116.8C360.4 118.4 364.7 122.9 365.8 128.3C367.6 127.9 368.7 125.4 367.6 123.9C368.2 122.6 370.3 123.3 370.9 124.6C371.5 125.9 371.4 127.4 372.3 128.5C374.8 131.7 381.5 127.8 383.5 131.3C384.9 133.8 381.7 136.6 378.9 136.6C376 136.5 373.4 134.9 370.6 134.6C367.5 134.3 364.4 135.6 361.3 136C358.2 136.4 354.3 135.1 353.7 132.1C353.5 131.3 353.6 130.4 353.2 129.6C352.6 128.6 351.2 128.3 350 128.5C344.8 129.1 339.5 134.5 335.2 131.5C332.5 136.8 325.7 138.9 322 143.6C317.9 148.7 318.3 156.6 322.2 161.8C326.2 167 333.2 169.5 339.6 168.6C341.1 168.4 342.7 168.1 344 168.7C345.4 169.3 346.2 170.6 347.4 171.5C348.5 172.4 350.4 172.9 351.4 171.8C350.3 174.5 350.6 177.7 352.2 180.1C353.9 182.7 357 184.8 357 187.9C357 189.5 356 191 355.6 192.5C353.6 199.6 362 205.5 363.4 212.8C363.8 214.8 363.8 217.1 365.4 218.2C366.2 218.7 367.1 218.8 368 218.9C372.7 219.2 378.6 217.8 379.6 213.2C379.9 211.9 379.7 210.5 379.7 209.2C379.8 205.2 382.3 201.4 385.8 199.6C386.8 199.1 387.8 198.7 388.6 198C390.3 196.3 389.9 193.5 389.1 191.3C388.3 189.1 387 186.8 387.3 184.5C387.8 180.7 391.9 178.7 395 176.4C399.7 173 402.8 167.7 403.6 161.9C399.3 163.2 394.1 164.4 390.8 161.3C389.7 160.2 389 158.8 388.3 157.4C386.3 153.2 384.3 149 382.2 144.7C381.9 144.1 381.7 143.5 381.9 142.9C382.5 141.3 384.8 142.6 385.8 144C389 149 391.9 154.3 394.5 159.7C399.7 158.8 404.7 156.6 409 153.4C410.4 152.4 411.7 151.2 412.2 149.6C412.7 148 411.8 145.9 410.1 145.6C409.5 145.5 408.8 145.7 408.1 145.7C404.2 146.1 400.8 143.1 398.2 140.1C400 138.1 403.2 139.3 405.6 140.4C409.9 142.4 414.5 143.8 419.1 144.6C420.3 144.8 421.5 145 422.5 145.5C423.2 145.9 423.9 146.4 424.5 147C429.9 152 433.9 158.4 435.9 165.5C438 166 439.4 163.4 439.6 161.3C439.8 159.2 439.5 156.8 441 155.3C442.2 154.1 444.1 154 445.2 152.7C446.5 151.1 445.8 148.3 447.4 146.9C449.3 145.1 452.4 147.3 453.5 149.7C454.5 152.1 454.9 155.1 457.1 156.5C458.3 156.3 459.4 156.2 460.6 156C460.6 161.9 462.7 167.8 466.3 172.4C468.3 171.4 467.4 168.3 466.1 166.4C464.9 164.5 463.6 161.7 465.4 160.3C467.9 160.3 469 163.7 471.4 164.3C473.8 164.9 475.9 162 475.5 159.6C475.1 157.2 473 155.4 470.9 154.2C469 152.1 471.8 148.7 474.6 148.3C477.4 147.8 480.5 148.6 483 147.3C486 145.8 487.1 141.8 486.4 138.4C485.7 135.1 483.7 132.2 482.1 129.2C480.7 126.6 480 122.6 482.7 121.5C483.4 121.2 484.2 121.2 485 121.2C495.1 120.8 503.5 110 501.5 100.1C501.1 98.2 500.4 96.4 499.1 95C496.7 92.5 492.6 92 490.8 89C488.6 85.4 491.3 80.6 494.9 78.3C498.4 76 502.7 75 506 72.4C506.9 72.4 507.3 71.5 507.5 70.7C507.6 70.2 507.5 69.6 507.5 69C507.5 67.5 508.6 66 510 65.6C511.5 65.2 513.2 65.8 514 67.1C515 68.7 514.6 70.8 513.9 72.5C513.2 74.2 512.1 75.9 512 77.7C511.8 79.6 512.9 81.7 514.7 82C517 82.3 518.4 79.6 518.6 77.3C518.7 75 518.3 72.5 519.5 70.6C521.4 67.7 526.5 67 526.6 63.5C526.7 60.7 523.2 59 522.5 56.3C522.2 55.2 522.5 54 522.6 52.9C523 48.7 521.1 44.3 517.8 41.7C514.5 39.1 509.8 38.2 505.8 39.5C504.5 39.9 503.3 40.6 501.9 40.9C499.9 41.4 497.9 41.3 495.8 41.1C492.2 40.9 488.5 40.6 484.9 40.4C481.7 40.2 478.2 40 475.3 41.5C471.1 43.7 468.7 49.2 464 49.8C460.7 50.2 457.7 47.9 454.6 46.7C449.6 44.7 443.5 45.6 439.3 49.1C437.7 48.3 438.2 45.9 437.6 44.3C437 42.5 435.1 41.5 433.3 41.3C431.5 41.1 429.6 41.7 427.9 42.3C424.1 43.5 419.7 45.7 419.3 49.6C419.2 50.7 419.5 51.9 419 52.9C418.3 54.4 416.5 54.8 415.4 56C414.1 57.4 413.8 59.4 413.8 61.3C413.7 63.2 413.7 65.3 412.6 66.8C411.6 68.6 405.8 69.4 404.4 68.1Z" fill="#B1DEF5"/>
<path d="M475.4 177.9C476.3 179.2 477.7 179.9 479.1 180.5C480.8 181.2 482.9 181.8 484.5 180.8C485.6 180.1 489.1 175.2 489.3 174.1C489.8 172.1 489.1 172.2 487.1 171.8C483.8 171.1 471.6 172.4 475.4 177.9Z" fill="#B1DEF5"/>
<path d="M463.4 177.2C468.1 185.8 477.8 191.4 487.6 191.3C488.3 190.6 487.3 189.5 486.4 189.2C483.9 188.2 481.3 187.6 478.7 186.7C476.2 185.8 473.7 184.5 472.1 182.2C471.5 181.3 471 180.2 470.5 179.2C469 176.3 463.2 169.1 459.5 170.8C460.6 172.9 462.2 175.1 463.4 177.2Z" fill="#B1DEF5"/>
<path d="M489.1 197.2C487.8 198.6 486.7 200.3 484.8 200.8C483.7 201.1 482.6 200.8 481.5 201.1C478.3 201.8 477.6 206.1 478.3 209.3C479 212.5 480.5 215.9 479.3 218.9C479.1 219.5 478.7 220.1 478.7 220.8C478.7 221.6 479.3 222.3 479.9 222.8C482.8 225 487 223.4 490.2 221.7C493.4 220 497.3 218.1 500.5 219.8C503.9 221.7 504.3 226.4 506.4 229.7C508.3 232.6 512.4 234.3 515.3 232.5C516.3 231.9 517 230.9 517.7 230C519.2 228.1 520.6 226.2 522.1 224.3C524 221.8 526 219.1 526.4 216C527.1 209.9 521.7 205.1 516.9 201.3C516.6 199.4 516.4 197.4 515.4 195.7C513.4 192.3 509.4 192 510.5 196.7C507.3 196.8 504.8 192.1 501.3 191.7C496.8 191.1 491.8 194.2 489.1 197.2Z" fill="#B1DEF5"/>
<path d="M427.1 123.3C429.806 123.3 432 121.106 432 118.4C432 115.694 429.806 113.5 427.1 113.5C424.394 113.5 422.2 115.694 422.2 118.4C422.2 121.106 424.394 123.3 427.1 123.3Z" fill="#0052CC"/>
<path d="M501.7 212.1C504.406 212.1 506.6 209.906 506.6 207.2C506.6 204.494 504.406 202.3 501.7 202.3C498.994 202.3 496.8 204.494 496.8 207.2C496.8 209.906 498.994 212.1 501.7 212.1Z" fill="#0052CC"/>
<path d="M478 85.3C480.706 85.3 482.9 83.1062 482.9 80.4C482.9 77.6938 480.706 75.5 478 75.5C475.294 75.5 473.1 77.6938 473.1 80.4C473.1 83.1062 475.294 85.3 478 85.3Z" fill="#0052CC"/>
<path d="M307.4 69.8C310.106 69.8 312.3 67.6062 312.3 64.9C312.3 62.1938 310.106 60 307.4 60C304.694 60 302.5 62.1938 302.5 64.9C302.5 67.6062 304.694 69.8 307.4 69.8Z" fill="#0052CC"/>
<path d="M272.2 222.1C274.906 222.1 277.1 219.906 277.1 217.2C277.1 214.494 274.906 212.3 272.2 212.3C269.494 212.3 267.3 214.494 267.3 217.2C267.3 219.906 269.494 222.1 272.2 222.1Z" fill="#0052CC"/>
<path d="M238.3 121.5C241.006 121.5 243.2 119.306 243.2 116.6C243.2 113.894 241.006 111.7 238.3 111.7C235.594 111.7 233.4 113.894 233.4 116.6C233.4 119.306 235.594 121.5 238.3 121.5Z" fill="#0052CC"/>
<path d="M350.6 159.1C353.306 159.1 355.5 156.906 355.5 154.2C355.5 151.494 353.306 149.3 350.6 149.3C347.894 149.3 345.7 151.494 345.7 154.2C345.7 156.906 347.894 159.1 350.6 159.1Z" fill="#0052CC"/>
<path d="M379.7 24.6H353.3C352.2 24.6 351.3 25.5 351.3 26.6C351.3 27.7 352.2 28.6 353.3 28.6H379.7C380.8 28.6 381.7 27.7 381.7 26.6C381.7 25.5 380.8 24.6 379.7 24.6Z" fill="#B1DEF5"/>
<path d="M390.1 21H363.7C362.6 21 361.7 21.9 361.7 23C361.7 24.1 362.6 25 363.7 25H390.1C391.2 25 392.1 24.1 392.1 23C392.1 21.9 391.2 21 390.1 21Z" fill="#B1DEF5"/>
<path d="M398 28.6H371.6C370.5 28.6 369.6 29.5 369.6 30.6C369.6 31.7 370.5 32.6 371.6 32.6H398C399.1 32.6 400 31.7 400 30.6C400 29.5 399.1 28.6 398 28.6Z" fill="#B1DEF5"/>
<path d="M512.4 141H533.9C534.8 141 535.5 140.3 535.5 139.4C535.5 138.5 534.8 137.8 533.9 137.8H512.4C511.5 137.8 510.8 138.5 510.8 139.4C510.8 140.3 511.5 141 512.4 141Z" fill="#B1DEF5"/>
<path d="M504 144H525.5C526.4 144 527.1 143.3 527.1 142.4C527.1 141.5 526.4 140.8 525.5 140.8H504C503.1 140.8 502.4 141.5 502.4 142.4C502.3 143.3 503.1 144 504 144Z" fill="#B1DEF5"/>
<path d="M497.6 137.8H519C519.9 137.8 520.6 137.1 520.6 136.2C520.6 135.3 519.9 134.6 519 134.6H497.5C496.6 134.6 495.9 135.3 495.9 136.2C495.9 137.1 496.7 137.8 497.6 137.8Z" fill="#B1DEF5"/>
<path d="M432.9 230.9H411.4C410.5 230.9 409.8 231.6 409.8 232.5C409.8 233.4 410.5 234.1 411.4 234.1H432.9C433.8 234.1 434.5 233.4 434.5 232.5C434.5 231.7 433.8 230.9 432.9 230.9Z" fill="#B1DEF5"/>
<path d="M441.4 228H419.9C419 228 418.3 228.7 418.3 229.6C418.3 230.5 419 231.2 419.9 231.2H441.4C442.3 231.2 443 230.5 443 229.6C443 228.7 442.3 228 441.4 228Z" fill="#B1DEF5"/>
<path d="M447.8 234.2H426.3C425.4 234.2 424.7 234.9 424.7 235.8C424.7 236.7 425.4 237.4 426.3 237.4H447.8C448.7 237.4 449.4 236.7 449.4 235.8C449.4 234.9 448.7 234.2 447.8 234.2Z" fill="#B1DEF5"/>
<path d="M261.5 32H240C239.1 32 238.4 32.7 238.4 33.6C238.4 34.5 239.1 35.2 240 35.2H261.5C262.4 35.2 263.1 34.5 263.1 33.6C263.2 32.7 262.4 32 261.5 32Z" fill="#B1DEF5"/>
<path d="M255.1 35.2H233.6C232.7 35.2 232 35.9 232 36.8C232 37.7 232.7 38.4 233.6 38.4H255.1C256 38.4 256.7 37.7 256.7 36.8C256.7 35.9 256 35.2 255.1 35.2Z" fill="#B1DEF5"/>
<path d="M228.5 236H207C206.1 236 205.4 236.7 205.4 237.6C205.4 238.5 206.1 239.2 207 239.2H228.5C229.4 239.2 230.1 238.5 230.1 237.6C230.1 236.7 229.4 236 228.5 236Z" fill="#B1DEF5"/>
<path d="M194.2 211.9H179.2C178.3 211.9 177.6 212.6 177.6 213.5C177.6 214.4 178.3 215.1 179.2 215.1H194.2C195.1 215.1 195.8 214.4 195.8 213.5C195.9 212.7 195.1 211.9 194.2 211.9Z" fill="#B1DEF5"/>
<path d="M201.7 208.7H186.7C185.8 208.7 185.1 209.4 185.1 210.3C185.1 211.2 185.8 211.9 186.7 211.9H201.7C202.6 211.9 203.3 211.2 203.3 210.3C203.3 209.4 202.6 208.7 201.7 208.7Z" fill="#B1DEF5"/>
<path d="M326.1 213.3H311.1C310.2 213.3 309.5 214 309.5 214.9C309.5 215.8 310.2 216.5 311.1 216.5H326.1C327 216.5 327.7 215.8 327.7 214.9C327.8 214.1 327 213.3 326.1 213.3Z" fill="#B1DEF5"/>
<path d="M323 216.6H308C307.1 216.6 306.4 217.3 306.4 218.2C306.4 219.1 307.1 219.8 308 219.8H323C323.9 219.8 324.6 219.1 324.6 218.2C324.6 217.3 323.9 216.6 323 216.6Z" fill="#B1DEF5"/>
<path d="M272.4 181.9C279.138 181.9 284.6 176.438 284.6 169.7C284.6 162.962 279.138 157.5 272.4 157.5C265.662 157.5 260.2 162.962 260.2 169.7C260.2 176.438 265.662 181.9 272.4 181.9Z" fill="white"/>
<path d="M275.445 165.336C275.451 163.624 274.067 162.232 272.355 162.226C270.643 162.221 269.251 163.604 269.245 165.316C269.24 167.028 270.623 168.421 272.335 168.426C274.047 168.432 275.44 167.048 275.445 165.336Z" stroke="#071146" stroke-width="2" stroke-miterlimit="10" stroke-linecap="round" stroke-linejoin="round"/>
<path d="M272.3 176.6C274.9 176.6 276.9 174.5 277 172V171.3C277 170.8 276.6 170.4 276.2 170.4H268.6C268.1 170.4 267.7 170.8 267.7 171.2V171.9C267.7 174.5 269.8 176.6 272.3 176.6Z" stroke="#071146" stroke-width="2" stroke-miterlimit="10" stroke-linecap="round" stroke-linejoin="round"/>
<path d="M291.8 169.2C291.8 168.8 291.8 168.4 291.7 167.9C290.9 158.8 283.5 151.3 274.4 150.3C262.6 149 252.6 158.2 252.6 169.8V169.9C252.6 174.2 254.3 178.4 257.1 181.7L272.3 200L287.3 181.8C290.2 178.2 292 173.8 291.8 169.2Z" stroke="#071146" stroke-width="2" stroke-miterlimit="10" stroke-linecap="round" stroke-linejoin="round"/>
<path d="M272.4 181.9C279.083 181.9 284.5 176.483 284.5 169.8C284.5 163.117 279.083 157.7 272.4 157.7C265.718 157.7 260.3 163.117 260.3 169.8C260.3 176.483 265.718 181.9 272.4 181.9Z" stroke="#071146" stroke-width="2" stroke-miterlimit="10" stroke-linecap="round" stroke-linejoin="round"/>
<path d="M307.5 32.6C314.238 32.6 319.7 27.1379 319.7 20.4C319.7 13.6621 314.238 8.20001 307.5 8.20001C300.762 8.20001 295.3 13.6621 295.3 20.4C295.3 27.1379 300.762 32.6 307.5 32.6Z" fill="white"/>
<path d="M310.639 16.1688C310.644 14.4567 309.261 13.0643 307.549 13.0588C305.837 13.0532 304.444 14.4367 304.439 16.1487C304.433 17.8608 305.817 19.2532 307.529 19.2588C309.241 19.2643 310.633 17.8809 310.639 16.1688Z" stroke="#071146" stroke-width="2" stroke-miterlimit="10" stroke-linecap="round" stroke-linejoin="round"/>
<path d="M307.5 27.3C310.1 27.3 312.1 25.2 312.2 22.7V22C312.2 21.5 311.8 21.1 311.4 21.1H303.8C303.3 21.1 302.9 21.5 302.9 21.9V22.6C302.9 25.2 304.9 27.3 307.5 27.3Z" stroke="#071146" stroke-width="2" stroke-miterlimit="10" stroke-linecap="round" stroke-linejoin="round"/>
<path d="M327 20C327 19.6 327 19.2 326.9 18.7C326.1 9.6 318.7 2.1 309.6 1.1C297.8 -0.199997 287.8 9 287.8 20.6V20.7C287.8 25 289.5 29.2 292.3 32.5L307.5 50.8L322.5 32.6C325.4 29 327.1 24.5 327 20Z" stroke="#071146" stroke-width="2" stroke-miterlimit="10" stroke-linecap="round" stroke-linejoin="round"/>
<path d="M307.5 32.7C314.183 32.7 319.6 27.2826 319.6 20.6C319.6 13.9174 314.183 8.5 307.5 8.5C300.817 8.5 295.4 13.9174 295.4 20.6C295.4 27.2826 300.817 32.7 307.5 32.7Z" stroke="#071146" stroke-width="2" stroke-miterlimit="10" stroke-linecap="round" stroke-linejoin="round"/>
<path d="M350.7 125.2C357.438 125.2 362.9 119.738 362.9 113C362.9 106.262 357.438 100.8 350.7 100.8C343.962 100.8 338.5 106.262 338.5 113C338.5 119.738 343.962 125.2 350.7 125.2Z" fill="white"/>
<path d="M353.787 108.688C353.792 106.976 352.409 105.583 350.697 105.578C348.985 105.572 347.592 106.955 347.587 108.668C347.581 110.38 348.965 111.772 350.677 111.778C352.389 111.783 353.781 110.4 353.787 108.688Z" stroke="#071146" stroke-width="2" stroke-miterlimit="10" stroke-linecap="round" stroke-linejoin="round"/>
<path d="M350.7 119.9C353.3 119.9 355.3 117.8 355.4 115.3V114.6C355.4 114.1 355 113.7 354.6 113.7H347C346.5 113.7 346.1 114.1 346.1 114.5V115.2C346 117.8 348.1 119.9 350.7 119.9Z" stroke="#071146" stroke-width="2" stroke-miterlimit="10" stroke-linecap="round" stroke-linejoin="round"/>
<path d="M370.2 112.5C370.2 112.1 370.2 111.7 370.1 111.2C369.3 102.1 361.9 94.6 352.8 93.6C341 92.3 331 101.5 331 113.1V113.2C331 117.5 332.7 121.7 335.5 125L350.7 143.3L365.7 125.1C368.6 121.5 370.3 117.1 370.2 112.5Z" stroke="#071146" stroke-width="2" stroke-miterlimit="10" stroke-linecap="round" stroke-linejoin="round"/>
<path d="M350.7 125.2C357.383 125.2 362.8 119.783 362.8 113.1C362.8 106.417 357.383 101 350.7 101C344.017 101 338.6 106.417 338.6 113.1C338.6 119.783 344.017 125.2 350.7 125.2Z" stroke="#071146" stroke-width="2" stroke-miterlimit="10" stroke-linecap="round" stroke-linejoin="round"/>
<path d="M238.5 87.2C245.238 87.2 250.7 81.7379 250.7 75C250.7 68.2621 245.238 62.8 238.5 62.8C231.762 62.8 226.3 68.2621 226.3 75C226.3 81.7379 231.762 87.2 238.5 87.2Z" fill="white"/>
<path d="M241.559 70.6626C241.565 68.9506 240.181 67.5581 238.469 67.5526C236.757 67.5471 235.365 68.9305 235.359 70.6426C235.354 72.3547 236.737 73.7471 238.449 73.7526C240.161 73.7582 241.554 72.3747 241.559 70.6626Z" stroke="#071146" stroke-width="2" stroke-miterlimit="10" stroke-linecap="round" stroke-linejoin="round"/>
<path d="M238.4 81.9C241 81.9 243 79.8 243.1 77.3V76.6C243.1 76.1 242.7 75.7 242.3 75.7H234.7C234.2 75.7 233.8 76.1 233.8 76.5V77.2C233.8 79.8 235.8 81.9 238.4 81.9Z" stroke="#071146" stroke-width="2" stroke-miterlimit="10" stroke-linecap="round" stroke-linejoin="round"/>
<path d="M257.9 74.6C257.9 74.2 257.9 73.8 257.8 73.3C257 64.2 249.6 56.7 240.5 55.7C228.7 54.4 218.7 63.6 218.7 75.2V75.3C218.7 79.6 220.4 83.8 223.2 87.1L238.4 105.4L253.4 87.2C256.3 83.6 258 79.1 257.9 74.6Z" stroke="#071146" stroke-width="2" stroke-miterlimit="10" stroke-linecap="round" stroke-linejoin="round"/>
<path d="M238.4 87.3C245.083 87.3 250.5 81.8827 250.5 75.2C250.5 68.5174 245.083 63.1 238.4 63.1C231.718 63.1 226.3 68.5174 226.3 75.2C226.3 81.8827 231.718 87.3 238.4 87.3Z" stroke="#071146" stroke-width="2" stroke-miterlimit="10" stroke-linecap="round" stroke-linejoin="round"/>
<path d="M427.2 87.2C433.938 87.2 439.4 81.7379 439.4 75C439.4 68.2621 433.938 62.8 427.2 62.8C420.462 62.8 415 68.2621 415 75C415 81.7379 420.462 87.2 427.2 87.2Z" fill="white"/>
<path d="M430.332 70.7346C430.337 69.0225 428.954 67.6302 427.242 67.6246C425.53 67.6191 424.137 69.0025 424.132 70.7146C424.126 72.4267 425.509 73.8191 427.222 73.8246C428.934 73.8301 430.326 72.4467 430.332 70.7346Z" stroke="#071146" stroke-width="2" stroke-miterlimit="10" stroke-linecap="round" stroke-linejoin="round"/>
<path d="M427.2 81.9C429.8 81.9 431.8 79.8 431.9 77.3V76.6C431.9 76.1 431.5 75.7 431.1 75.7H423.5C423 75.7 422.6 76.1 422.6 76.5V77.2C422.5 79.8 424.6 81.9 427.2 81.9Z" stroke="#071146" stroke-width="2" stroke-miterlimit="10" stroke-linecap="round" stroke-linejoin="round"/>
<path d="M446.7 74.6C446.7 74.2 446.7 73.8 446.6 73.3C445.8 64.2 438.4 56.7 429.3 55.7C417.5 54.4 407.5 63.6 407.5 75.2V75.3C407.5 79.6 409.2 83.8 412 87.1L427.2 105.4L442.2 87.2C445.1 83.6 446.8 79.1 446.7 74.6Z" stroke="#071146" stroke-width="2" stroke-miterlimit="10" stroke-linecap="round" stroke-linejoin="round"/>
<path d="M427.2 87.3C433.883 87.3 439.3 81.8827 439.3 75.2C439.3 68.5174 433.883 63.1 427.2 63.1C420.517 63.1 415.1 68.5174 415.1 75.2C415.1 81.8827 420.517 87.3 427.2 87.3Z" stroke="#071146" stroke-width="2" stroke-miterlimit="10" stroke-linecap="round" stroke-linejoin="round"/>
<path d="M478.1 47.8C484.838 47.8 490.3 42.3379 490.3 35.6C490.3 28.8621 484.838 23.4 478.1 23.4C471.362 23.4 465.9 28.8621 465.9 35.6C465.9 42.3379 471.362 47.8 478.1 47.8Z" fill="white"/>
<path d="M481.217 31.3066C481.223 29.5945 479.839 28.2021 478.127 28.1966C476.415 28.1911 475.023 29.5745 475.017 31.2866C475.012 32.9987 476.395 34.3911 478.107 34.3966C479.819 34.4021 481.212 33.0187 481.217 31.3066Z" stroke="#071146" stroke-width="2" stroke-miterlimit="10" stroke-linecap="round" stroke-linejoin="round"/>
<path d="M478.1 42.5C480.7 42.5 482.7 40.4 482.8 37.9V37.2C482.8 36.7 482.4 36.3 482 36.3H474.4C473.9 36.3 473.5 36.7 473.5 37.1V37.8C473.4 40.4 475.5 42.5 478.1 42.5Z" stroke="#071146" stroke-width="2" stroke-miterlimit="10" stroke-linecap="round" stroke-linejoin="round"/>
<path d="M497.5 35.2C497.5 34.8 497.5 34.4 497.4 33.9C496.6 24.8 489.2 17.3 480.1 16.3C468.3 15 458.3 24.2 458.3 35.8V35.9C458.3 40.2 460 44.4 462.8 47.7L478 66L493 47.8C496 44.2 497.7 39.7 497.5 35.2Z" stroke="#071146" stroke-width="2" stroke-miterlimit="10" stroke-linecap="round" stroke-linejoin="round"/>
<path d="M478.1 47.9C484.783 47.9 490.2 42.4826 490.2 35.8C490.2 29.1174 484.783 23.7 478.1 23.7C471.417 23.7 466 29.1174 466 35.8C466 42.4826 471.417 47.9 478.1 47.9Z" stroke="#071146" stroke-width="2" stroke-miterlimit="10" stroke-linecap="round" stroke-linejoin="round"/>
<path d="M501.9 174.9C508.638 174.9 514.1 169.438 514.1 162.7C514.1 155.962 508.638 150.5 501.9 150.5C495.162 150.5 489.7 155.962 489.7 162.7C489.7 169.438 495.162 174.9 501.9 174.9Z" fill="white"/>
<path d="M504.985 158.372C504.991 156.66 503.608 155.268 501.895 155.262C500.183 155.257 498.791 156.64 498.785 158.352C498.78 160.064 500.163 161.457 501.875 161.462C503.587 161.468 504.98 160.085 504.985 158.372Z" stroke="#071146" stroke-width="2" stroke-miterlimit="10" stroke-linecap="round" stroke-linejoin="round"/>
<path d="M501.8 169.6C504.4 169.6 506.4 167.5 506.5 165V164.3C506.5 163.8 506.1 163.4 505.7 163.4H498.1C497.6 163.4 497.2 163.8 497.2 164.2V164.9C497.2 167.5 499.3 169.6 501.8 169.6Z" stroke="#071146" stroke-width="2" stroke-miterlimit="10" stroke-linecap="round" stroke-linejoin="round"/>
<path d="M521.3 162.2C521.3 161.8 521.3 161.4 521.2 160.9C520.4 151.8 513 144.3 503.9 143.3C492.1 142 482.1 151.2 482.1 162.8V162.9C482.1 167.2 483.8 171.4 486.6 174.7L501.8 193L516.8 174.8C519.7 171.3 521.5 166.8 521.3 162.2Z" stroke="#071146" stroke-width="2" stroke-miterlimit="10" stroke-linecap="round" stroke-linejoin="round"/>
<path d="M501.8 175C508.483 175 513.9 169.583 513.9 162.9C513.9 156.217 508.483 150.8 501.8 150.8C495.118 150.8 489.7 156.217 489.7 162.9C489.7 169.583 495.118 175 501.8 175Z" stroke="#071146" stroke-width="2" stroke-miterlimit="10" stroke-linecap="round" stroke-linejoin="round"/>
<path d="M26.0001 32C27.4001 26.4 33.1001 22.9 38.7001 24.3C44.3001 25.7 47.8001 31.4 46.4001 37C45.0001 42.6 39.3001 46.1 33.7001 44.7C28.1001 43.4 24.6001 37.6 26.0001 32Z" fill="#F5F5F5"/>
<path d="M38.2001 24.2C36.9001 24 35.7001 24 34.5001 24.2V32.6H26.0001C25.8001 33.9 25.8001 35.1 26.0001 36.3H34.6001V44.9C35.9001 45.1 37.1001 45.1 38.3001 44.9V36.3H46.7001C46.9001 35 46.9001 33.8 46.7001 32.6H38.3001V24.2H38.2001Z" fill="#FCAA90"/>
<path d="M138.6 245H44.0996C37.9996 245 33.0996 240 33.0996 234C33.0996 227.9 38.0996 223 44.0996 223H138.5C144.6 223 149.5 228 149.5 234C149.6 240.1 144.6 245 138.6 245Z" fill="white"/>
<path d="M138.7 242.7H36.4C30.4 242.7 25.5 237.8 25.5 231.8C25.5 225.8 30.4 220.9 36.4 220.9H138.7C144.7 220.9 149.6 225.8 149.6 231.8C149.6 237.8 144.7 242.7 138.7 242.7Z" stroke="#071146" stroke-width="1.5" stroke-miterlimit="10" stroke-linecap="round" stroke-linejoin="round"/>
<path d="M85.2997 228.4H86.3997L83.8997 236.1H82.6997L80.7997 230.2L78.7997 236.1H77.6997L75.1997 228.4H76.3997L78.3997 234.5L80.3997 228.4H81.4997L83.3997 234.5L85.2997 228.4Z" fill="#071146"/>
<path d="M97.0995 228.4H98.1995L95.6995 236.1H94.4995L92.5995 230.2L90.5995 236.1H89.4995L86.9995 228.4H88.1995L90.1995 234.5L92.1995 228.4H93.2995L95.1995 234.5L97.0995 228.4Z" fill="#071146"/>
<path d="M109 228.4H110.1L107.6 236.1H106.4L104.5 230.2L102.5 236.1H101.4L98.8999 228.4H100.1L102.1 234.5L104.1 228.4H105.2L107.1 234.5L109 228.4Z" fill="#071146"/>
<path d="M25.7998 229.1C27.1998 223.3 33.1998 219.7 38.9998 221.1C44.7998 222.5 48.3998 228.5 46.9998 234.3C45.5998 240.1 39.5998 243.7 33.7998 242.3C27.8998 240.9 24.2998 235 25.7998 229.1Z" fill="#F5F5F5"/>
<path d="M30.7001 230.3C31.5001 227.2 34.6001 225.3 37.7001 226.1C40.8001 226.9 42.7001 230 41.9001 233.1C41.1001 236.2 38.0001 238.1 34.9001 237.3C31.8001 236.5 29.9001 233.4 30.7001 230.3Z" fill="#FCAA90"/>
<path d="M36.4 242.7C42.4199 242.7 47.3 237.82 47.3 231.8C47.3 225.78 42.4199 220.9 36.4 220.9C30.3801 220.9 25.5 225.78 25.5 231.8C25.5 237.82 30.3801 242.7 36.4 242.7Z" stroke="#071146" stroke-width="1.5" stroke-miterlimit="10" stroke-linecap="round" stroke-linejoin="round"/>
<path d="M172.7 195.1H78.2998C72.1998 195.1 67.2998 190.1 67.2998 184.1C67.2998 178 72.2998 173.1 78.2998 173.1H172.7C178.8 173.1 183.7 178.1 183.7 184.1C183.7 190.1 178.8 195.1 172.7 195.1Z" fill="white"/>
<path d="M59.7999 179.2C61.2999 173.3 67.1999 169.7 73.0999 171.2C78.9999 172.7 82.5999 178.6 81.0999 184.5C79.5999 190.4 73.6999 194 67.7999 192.5C61.8999 191 58.3999 185.1 59.7999 179.2Z" fill="#F5F5F5"/>
<path d="M74.6 180.2L73.8 178.8H75.4L74.6 180.2ZM73.8 184.5L74.6 183.1L75.4 184.5H73.8ZM72.1 184.5H68.8L67.2 181.7L68.8 178.9H72.1L73.7 181.7L72.1 184.5ZM70.5 187.4L69.7 186H71.3L70.5 187.4ZM66.3 180.2L65.5 178.8H67.1L66.3 180.2ZM65.5 184.5L66.3 183.1L67.1 184.5H65.5ZM70.5 176L71.3 177.4H69.7L70.5 176ZM75.5 181.7L78 177.4H73L70.5 173L68 177.4H63L63.6 178.5L65.5 181.7L63 186H64.3H68L70.5 190.4L73 186H78L75.5 181.7Z" fill="#B1DEF5"/>
<path d="M172.8 192.7H70.5001C64.5001 192.7 59.6001 187.8 59.6001 181.8C59.6001 175.8 64.5001 170.9 70.5001 170.9H172.8C178.8 170.9 183.7 175.8 183.7 181.8C183.7 187.8 178.8 192.7 172.8 192.7Z" stroke="#071146" stroke-width="1.5" stroke-miterlimit="10" stroke-linecap="round" stroke-linejoin="round"/>
<path d="M119.4 178.5H120.5L118 186.2H116.8L114.9 180.3L112.9 186.2H111.8L109.3 178.5H110.5L112.5 184.6L114.5 178.5H115.6L117.5 184.6L119.4 178.5Z" fill="#071146"/>
<path d="M131.3 178.5H132.4L129.9 186.2H128.7L126.8 180.3L124.8 186.2H123.7L121.2 178.5H122.4L124.4 184.6L126.4 178.5H127.5L129.4 184.6L131.3 178.5Z" fill="#071146"/>
<path d="M143.1 178.5H144.2L141.7 186.2H140.5L138.6 180.3L136.6 186.2H135.5L133 178.5H134.2L136.2 184.6L138.2 178.5H139.3L141.2 184.6L143.1 178.5Z" fill="#071146"/>
<path d="M70.5001 192.7C76.52 192.7 81.4001 187.82 81.4001 181.8C81.4001 175.78 76.52 170.9 70.5001 170.9C64.4802 170.9 59.6001 175.78 59.6001 181.8C59.6001 187.82 64.4802 192.7 70.5001 192.7Z" stroke="#071146" stroke-width="1.5" stroke-miterlimit="10" stroke-linecap="round" stroke-linejoin="round"/>
<path d="M138.6 146.1H44.1001C38.0001 146.1 33.1001 141.1 33.1001 135.1C33.1001 129 38.1001 124.1 44.1001 124.1H138.5C144.6 124.1 149.5 129.1 149.5 135.1C149.6 141.1 144.6 146.1 138.6 146.1Z" fill="white"/>
<path d="M25.7002 130.2C27.2002 124.3 33.1002 120.7 39.0002 122.2C44.9002 123.7 48.5002 129.6 47.0002 135.5C45.5002 141.4 39.6002 145 33.7002 143.5C27.8002 142 24.2002 136.1 25.7002 130.2Z" fill="#F5F5F5"/>
<path d="M32.6 122.5C29.3 123.7 26.6 126.5 25.6 130.2C24.2 135.7 27.3 141.3 32.6 143.2V122.5Z" fill="#0052CC"/>
<path d="M40 122.5V143.1C43.3 141.9 46 139.1 46.9 135.4C48.3 129.9 45.2 124.4 40 122.5Z" fill="#FCAA90"/>
<path d="M138.7 143.7H36.4C30.4 143.7 25.5 138.8 25.5 132.8C25.5 126.8 30.4 121.9 36.4 121.9H138.7C144.7 121.9 149.6 126.8 149.6 132.8C149.6 138.8 144.7 143.7 138.7 143.7Z" stroke="#071146" stroke-width="1.5" stroke-miterlimit="10" stroke-linecap="round" stroke-linejoin="round"/>
<path d="M85.3002 129.5H86.4002L83.9002 137.2H82.7002L80.8002 131.3L78.8002 137.2H77.7002L75.2002 129.5H76.4002L78.4002 135.6L80.4002 129.5H81.5002L83.4002 135.6L85.3002 129.5Z" fill="#071146"/>
<path d="M97.1 129.5H98.2L95.7 137.2H94.5L92.6 131.3L90.6 137.2H89.5L87 129.5H88.2L90.2 135.6L92.2 129.5H93.3L95.2 135.6L97.1 129.5Z" fill="#071146"/>
<path d="M109 129.5H110.1L107.6 137.2H106.4L104.5 131.3L102.5 137.2H101.4L98.9004 129.5H100.1L102.1 135.6L104.1 129.5H105.2L107.1 135.6L109 129.5Z" fill="#071146"/>
<path d="M36.4 143.7C42.4199 143.7 47.3 138.82 47.3 132.8C47.3 126.78 42.4199 121.9 36.4 121.9C30.3801 121.9 25.5 126.78 25.5 132.8C25.5 138.82 30.3801 143.7 36.4 143.7Z" stroke="#071146" stroke-width="1.5" stroke-miterlimit="10" stroke-linecap="round" stroke-linejoin="round"/>
<path d="M172.7 97.4H78.2002C72.1002 97.4 67.2002 92.4 67.2002 86.4C67.2002 80.3 72.2002 75.4 78.2002 75.4H172.6C178.7 75.4 183.6 80.4 183.6 86.4C183.7 92.4 178.7 97.4 172.7 97.4Z" fill="white"/>
<path d="M67.8999 94.7C62.0999 93.3 58.4999 87.4 59.9999 81.5C61.3999 75.7 67.2999 72.1 73.1999 73.6C78.9999 75 82.5999 80.9 81.0999 86.8C79.6999 92.6 73.7999 96.1 67.8999 94.7Z" fill="#FCAA90"/>
<path d="M66.8999 94.4V73.9C63.5999 75.1 60.8999 77.9 59.9999 81.5C58.5999 87 61.6999 92.5 66.8999 94.4Z" fill="#FCAA90"/>
<path d="M72.8001 73.5C72.8001 73.5 72.7001 73.5 72.8001 73.5C72.7001 73.5 72.6001 73.5 72.6001 73.5C72.6001 73.5 72.6001 73.5 72.5001 73.5H72.4001C72.4001 73.5 72.4001 73.5 72.3001 73.5C72.2001 73.5 72.2001 73.5 72.1001 73.5C72.0001 73.5 72.0001 73.5 71.9001 73.5H71.8001C71.8001 73.5 71.8001 73.5 71.7001 73.5H71.6001C71.6001 73.5 71.6001 73.5 71.5001 73.5H71.4001C71.4001 73.5 71.4001 73.5 71.3001 73.5H71.2001C71.1001 73.5 71.1001 73.5 71.0001 73.5C70.9001 73.5 70.9001 73.5 70.8001 73.5C70.8001 73.5 70.8001 73.5 70.7001 73.5H70.6001C70.6001 73.5 70.6001 73.5 70.5001 73.5H70.4001C70.4001 73.5 70.4001 73.5 70.3001 73.5H70.2001C70.1001 73.5 70.0001 73.5 69.8001 73.5H69.7001C69.7001 73.5 69.7001 73.5 69.6001 73.5H69.5001C69.5001 73.5 69.5001 73.5 69.4001 73.5H69.3001C69.2001 73.5 69.1001 73.5 68.9001 73.6H68.8001C68.8001 73.6 68.8001 73.6 68.7001 73.6H68.6001C68.6001 73.6 68.6001 73.6 68.5001 73.6H68.4001C68.3001 73.6 68.3001 73.6 68.2001 73.6C68.1001 73.6 68.1001 73.6 68.0001 73.6C67.7001 73.7 67.4001 73.8 67.1001 73.9V94.4C67.4001 94.5 67.8001 94.6 68.1001 94.7C69.6001 95.1 71.0001 95.1 72.4001 94.9C72.5001 94.9 72.5001 94.9 72.6001 94.9H72.7001H72.8001C72.8001 94.9 72.8001 94.9 72.9001 94.9H73.0001C73.0001 94.9 73.0001 94.9 73.1001 94.9H73.2001H73.3001H73.4001H73.5001C73.5001 94.9 73.5001 94.9 73.6001 94.9H73.7001C73.7001 94.9 73.7001 94.9 73.8001 94.9H73.9001C73.9001 94.9 73.9001 94.9 74.0001 94.9H74.1001C74.1001 94.9 74.1001 94.9 74.2001 94.9H74.3001H74.4001V73.9H74.3001C74.2001 73.9 74.2001 73.9 74.1001 73.8C74.0001 73.8 73.9001 73.7 73.8001 73.7C73.7001 73.7 73.6001 73.7 73.6001 73.6C73.6001 73.6 73.6001 73.6 73.5001 73.6C73.4001 73.6 73.3001 73.5 73.2001 73.5C73.1001 73.5 73.1001 73.5 73.0001 73.5C73.0001 73.5 73.0001 73.5 72.9001 73.5C72.9001 73.5 72.8001 73.5 72.8001 73.5Z" fill="#F5F5F5"/>
<path d="M70.7 88.2H70.8V86.3L70.9 86.2C71.5 86.3 72 86.3 72.6 86.4L72.5 85.9C72.5 85.8 72.5 85.7 72.6 85.7L74.3 84.3L73.9 84.1C73.7 84 73.8 84 73.8 83.7L74.1 82.7L73.1 82.9C73 82.9 72.9 82.9 72.9 82.8L72.8 82.3L72 83.3C71.9 83.4 71.7 83.4 71.7 83.1L72 81.2L71.6 81.4C71.5 81.5 71.3 81.5 71.3 81.4L70.7 80.2L70 81.4C69.9 81.5 69.8 81.5 69.7 81.4L69.3 81.2L69.6 83.1C69.7 83.4 69.4 83.4 69.3 83.3L68.5 82.4L68.4 82.9C68.4 83 68.3 83 68.2 83L67.2 82.8L67.5 83.8C67.6 84 67.6 84.1 67.4 84.2L67 84.4L68.7 85.8C68.8 85.9 68.8 86 68.8 86L68.7 86.5C69.3 86.4 69.8 86.4 70.4 86.3L70.5 86.4V88.3H70.7V88.2Z" fill="#FCAA90"/>
<path d="M172.8 95H70.5001C64.5001 95 59.6001 90.1 59.6001 84.1C59.6001 78.1 64.5001 73.2 70.5001 73.2H172.8C178.8 73.2 183.7 78.1 183.7 84.1C183.7 90.1 178.8 95 172.8 95Z" stroke="#071146" stroke-width="1.5" stroke-miterlimit="10" stroke-linecap="round" stroke-linejoin="round"/>
<path d="M119.4 80.8H120.5L118 88.5H116.8L114.9 82.6L112.9 88.5H111.8L109.3 80.8H110.5L112.5 86.9L114.5 80.8H115.6L117.5 86.9L119.4 80.8Z" fill="#071146"/>
<path d="M131.2 80.8H132.3L129.8 88.5H128.6L126.7 82.6L124.7 88.5H123.6L121.1 80.8H122.3L124.3 86.9L126.3 80.8H127.4L129.3 86.9L131.2 80.8Z" fill="#071146"/>
<path d="M143 80.8H144.1L141.6 88.5H140.4L138.5 82.6L136.5 88.5H135.4L132.9 80.8H134.1L136.1 86.9L138.1 80.8H139.2L141.1 86.9L143 80.8Z" fill="#071146"/>
<path d="M70.5001 95C76.52 95 81.4001 90.1199 81.4001 84.1C81.4001 78.0801 76.52 73.2 70.5001 73.2C64.4802 73.2 59.6001 78.0801 59.6001 84.1C59.6001 90.1199 64.4802 95 70.5001 95Z" stroke="#071146" stroke-width="1.5" stroke-miterlimit="10" stroke-linecap="round" stroke-linejoin="round"/>
</g>
<defs>
<clipPath id="clip0">
<rect width="586" height="271.7" fill="white"/>
</clipPath>
</defs>
</svg>
