<svg width="586" height="274" viewBox="0 0 586 274" fill="none" xmlns="http://www.w3.org/2000/svg">
<path d="M581.6 60.9H0V273.1H581.6C584 273.1 586 271.1 586 268.7V65.3C586 62.9 584 60.9 581.6 60.9Z" fill="#B6E2DF"/>
<path d="M341.7 217.4L264.4 217.1C258.7 217.1 254 212.4 254 206.6L254.2 150.7C254.2 145 258.9 140.3 264.7 140.3L342 140.6C347.7 140.6 352.4 145.3 352.4 151.1L352.2 207C352.2 212.7 347.5 217.4 341.7 217.4Z" fill="white"/>
<path d="M244 154.4L289.9 180.5C295.2 183.5 301.7 183.5 307 180.6L353.1 154.8" stroke="#071146" stroke-width="2" stroke-miterlimit="10" stroke-linecap="round" stroke-linejoin="round"/>
<path d="M352.901 199.1L314.301 177.2" stroke="#071146" stroke-width="2" stroke-miterlimit="10" stroke-linecap="round" stroke-linejoin="round"/>
<path d="M282.6 177L243.9 198.7" stroke="#071146" stroke-width="2" stroke-miterlimit="10" stroke-linecap="round" stroke-linejoin="round"/>
<path d="M265.8 132.6L341.7 132.9C348 132.9 353.2 138.1 353.2 144.5L353 206C353 212.3 347.8 217.5 341.4 217.5L255.4 217.2C249.1 217.2 243.9 212 243.9 205.6L244.1 154.5" stroke="#071146" stroke-width="2" stroke-miterlimit="10" stroke-linecap="round" stroke-linejoin="round"/>
<path d="M298.5 171.8C296.7 171.8 295 171.5 293.5 170.9C292 170.3 290.6 169.4 289.5 168.3C288.4 167.2 287.5 165.9 286.9 164.3C286.3 162.8 286 161.1 286 159.3C286 157.5 286.3 155.8 286.9 154.2C287.5 152.7 288.4 151.3 289.5 150.2C290.6 149.1 291.9 148.2 293.5 147.6C295.1 147 296.7 146.7 298.5 146.7C300.3 146.7 302 147 303.6 147.6C305.2 148.2 306.5 149.1 307.6 150.2C308.7 151.3 309.6 152.6 310.2 154.2C310.8 155.7 311.1 157.4 311.1 159.3C311.1 160.8 310.9 162.1 310.5 163.2C310.1 164.3 309.6 165.2 308.9 165.9C308.2 166.6 307.4 166.9 306.5 166.9C305.7 166.9 305.1 166.6 304.5 166.1C304 165.6 303.7 164.9 303.7 164.1V163.3C303.4 163.8 303 164.2 302.4 164.6C301.8 165 301.2 165.3 300.6 165.5C299.9 165.7 299.3 165.8 298.6 165.8C297.3 165.8 296.2 165.5 295.2 164.9C294.2 164.3 293.4 163.5 292.8 162.5C292.2 161.5 291.9 160.3 291.9 159.1C291.9 157.8 292.2 156.6 292.8 155.6C293.4 154.6 294.2 153.8 295.2 153.2C296.2 152.6 297.4 152.3 298.6 152.3C299.9 152.3 301.1 152.6 302 153.2C303 153.8 303.8 154.6 304.3 155.6C304.9 156.6 305.2 157.8 305.2 159.1V163.5C305.2 164.1 305.3 164.6 305.5 164.8C305.7 165.1 306 165.2 306.4 165.2C307 165.2 307.6 164.9 308.1 164.4C308.6 163.9 309 163.1 309.2 162.2C309.5 161.3 309.6 160.2 309.6 159C309.6 157.4 309.3 155.9 308.8 154.5C308.3 153.1 307.5 152 306.5 151C305.5 150 304.3 149.2 303 148.7C301.6 148.2 300.2 147.9 298.5 147.9C296.9 147.9 295.4 148.2 294 148.7C292.6 149.2 291.5 150 290.5 151C289.5 152 288.7 153.2 288.2 154.5C287.7 155.9 287.4 157.3 287.4 159C287.4 160.6 287.7 162.1 288.2 163.5C288.7 164.9 289.5 166 290.5 167C291.5 168 292.7 168.8 294 169.3C295.4 169.8 296.8 170.1 298.5 170.1C299.3 170.1 300.1 170 300.9 169.8C301.7 169.6 302.5 169.4 303 169.1C303.3 168.9 303.6 168.9 303.8 169C304 169.1 304.1 169.3 304.1 169.6C304.1 169.9 303.9 170.1 303.4 170.4C302.9 170.7 302.2 170.9 301.4 171.2C300.6 171.7 299.7 171.8 298.5 171.8ZM298.5 164.5C299.5 164.5 300.4 164.3 301.2 163.8C302 163.4 302.6 162.7 303 162C303.4 161.2 303.7 160.3 303.7 159.3C303.7 158.3 303.5 157.4 303 156.6C302.6 155.8 301.9 155.2 301.2 154.8C300.4 154.4 299.5 154.1 298.5 154.1C297.5 154.1 296.6 154.3 295.8 154.8C295 155.2 294.4 155.9 294 156.6C293.6 157.4 293.3 158.3 293.3 159.3C293.3 160.3 293.5 161.2 294 162C294.4 162.8 295.1 163.4 295.8 163.8C296.6 164.2 297.5 164.5 298.5 164.5Z" fill="#0052CC"/>
<path d="M244.5 153.6C256.098 153.6 265.5 144.198 265.5 132.6C265.5 121.002 256.098 111.6 244.5 111.6C232.902 111.6 223.5 121.002 223.5 132.6C223.5 144.198 232.902 153.6 244.5 153.6Z" fill="#FEDB8F"/>
<path d="M249.743 125.129C249.753 122.202 247.387 119.821 244.46 119.812C241.533 119.802 239.153 122.168 239.143 125.095C239.134 128.022 241.499 130.402 244.426 130.412C247.353 130.421 249.734 128.056 249.743 125.129Z" stroke="#071146" stroke-width="2" stroke-miterlimit="10" stroke-linecap="round" stroke-linejoin="round"/>
<path d="M244.4 144.5C248.8 144.5 252.4 140.9 252.4 136.5V135.3C252.4 134.5 251.7 133.8 250.9 133.8H237.8C237 133.8 236.3 134.5 236.3 135.3V136.5C236.4 140.9 240 144.5 244.4 144.5Z" stroke="#071146" stroke-width="2" stroke-miterlimit="10" stroke-linecap="round" stroke-linejoin="round"/>
<path d="M259.715 147.583C268.15 139.148 268.15 125.472 259.715 117.036C251.279 108.601 237.603 108.601 229.168 117.036C220.733 125.472 220.733 139.148 229.168 147.583C237.603 156.018 251.279 156.018 259.715 147.583Z" stroke="#071146" stroke-width="2" stroke-miterlimit="10" stroke-linecap="round" stroke-linejoin="round"/>
<path d="M229.1 117L212.3 100.2" stroke="#071146" stroke-width="2" stroke-miterlimit="10" stroke-linecap="round" stroke-linejoin="round"/>
<path d="M158.5 158.1C156.1 158.1 153.9 157.7 151.9 156.9C149.9 156.1 148.2 155 146.7 153.5C145.2 152 144.1 150.3 143.3 148.3C142.5 146.3 142.1 144.1 142.1 141.7C142.1 139.3 142.5 137.1 143.3 135.1C144.1 133.1 145.2 131.4 146.7 129.9C148.2 128.4 149.9 127.3 151.9 126.5C153.9 125.7 156.1 125.3 158.5 125.3C160.9 125.3 163.1 125.7 165.1 126.5C167.1 127.3 168.8 128.4 170.3 129.9C171.8 131.4 172.9 133.1 173.7 135.1C174.5 137.1 174.9 139.3 174.9 141.7C174.9 143.6 174.6 145.4 174.1 146.9C173.6 148.4 172.9 149.6 172 150.4C171.1 151.2 170 151.7 168.8 151.7C167.8 151.7 166.9 151.4 166.2 150.7C165.5 150 165.2 149.2 165.2 148.1V147.1C164.8 147.7 164.2 148.3 163.5 148.8C162.8 149.3 162 149.7 161.1 150C160.2 150.3 159.3 150.4 158.4 150.4C156.7 150.4 155.2 150 153.9 149.3C152.6 148.6 151.6 147.5 150.8 146.2C150.1 144.9 149.7 143.4 149.7 141.7C149.7 140 150.1 138.5 150.8 137.2C151.5 135.9 152.6 134.9 153.9 134.1C155.2 133.4 156.7 133 158.4 133C160.1 133 161.6 133.4 162.9 134.1C164.2 134.8 165.2 135.9 166 137.2C166.7 138.5 167.1 140 167.1 141.7V147.5C167.1 148.3 167.3 148.9 167.6 149.2C167.9 149.5 168.3 149.7 168.8 149.7C169.6 149.7 170.3 149.4 171 148.7C171.6 148 172.1 147.1 172.5 145.9C172.9 144.7 173 143.3 173 141.7C173 139.6 172.6 137.7 171.9 135.9C171.2 134.1 170.2 132.6 168.9 131.3C167.6 130 166.1 129 164.3 128.3C162.5 127.6 160.6 127.2 158.5 127.2C156.4 127.2 154.5 127.6 152.7 128.3C150.9 129 149.4 130 148.1 131.3C146.8 132.6 145.8 134.1 145.1 135.9C144.4 137.7 144.1 139.6 144.1 141.7C144.1 143.8 144.4 145.8 145.1 147.5C145.8 149.3 146.8 150.8 148.1 152.1C149.4 153.4 150.9 154.4 152.7 155.1C154.5 155.8 156.4 156.2 158.5 156.2C159.5 156.2 160.6 156.1 161.7 155.8C162.8 155.6 163.7 155.3 164.5 154.9C164.9 154.7 165.3 154.6 165.6 154.8C165.9 154.9 166 155.2 166 155.6C166 155.9 165.7 156.3 165 156.7C164.4 157.1 163.5 157.4 162.4 157.7C161.2 157.9 159.9 158.1 158.5 158.1ZM158.5 148.4C159.8 148.4 161 148.1 162 147.5C163 146.9 163.8 146.1 164.4 145.1C165 144.1 165.3 142.9 165.3 141.6C165.3 140.3 165 139.1 164.4 138.1C163.8 137.1 163 136.3 162 135.7C161 135.1 159.8 134.8 158.5 134.8C157.2 134.8 156 135.1 155 135.7C154 136.3 153.2 137.1 152.6 138.1C152 139.1 151.7 140.3 151.7 141.6C151.7 142.9 152 144.1 152.6 145.1C153.2 146.1 154 146.9 155 147.5C156 148.1 157.2 148.4 158.5 148.4Z" fill="#0052CC"/>
<path d="M470.1 143.3C468.5 143.3 467 143 465.7 142.5C464.4 142 463.2 141.2 462.2 140.2C461.2 139.2 460.4 138 459.9 136.7C459.4 135.3 459.1 133.9 459.1 132.3C459.1 130.7 459.4 129.2 459.9 127.8C460.4 126.4 461.2 125.3 462.2 124.3C463.2 123.3 464.4 122.6 465.7 122C467 121.4 468.5 121.2 470.1 121.2C471.7 121.2 473.2 121.5 474.6 122C476 122.5 477.1 123.3 478.1 124.3C479.1 125.3 479.8 126.5 480.4 127.8C480.9 129.2 481.2 130.6 481.2 132.3C481.2 133.6 481 134.8 480.7 135.8C480.4 136.8 479.9 137.6 479.3 138.2C478.7 138.8 478 139.1 477.2 139.1C476.5 139.1 475.9 138.9 475.5 138.4C475 138 474.8 137.4 474.8 136.7V136C474.5 136.4 474.1 136.8 473.7 137.1C473.2 137.4 472.7 137.7 472.1 137.9C471.5 138.1 470.9 138.2 470.3 138.2C469.2 138.2 468.2 137.9 467.3 137.4C466.4 136.9 465.7 136.2 465.2 135.3C464.7 134.4 464.4 133.4 464.4 132.3C464.4 131.2 464.7 130.1 465.2 129.3C465.7 128.4 466.4 127.7 467.3 127.2C468.2 126.7 469.2 126.4 470.3 126.4C471.4 126.4 472.5 126.6 473.3 127.2C474.2 127.7 474.9 128.4 475.4 129.3C475.9 130.2 476.2 131.2 476.2 132.3V136.2C476.2 136.8 476.3 137.1 476.5 137.4C476.7 137.6 477 137.7 477.3 137.7C477.9 137.7 478.3 137.5 478.8 137C479.2 136.5 479.6 135.9 479.8 135.1C480 134.3 480.2 133.4 480.2 132.3C480.2 130.9 480 129.6 479.5 128.4C479 127.2 478.3 126.2 477.5 125.3C476.6 124.4 475.6 123.8 474.4 123.3C473.2 122.8 471.9 122.6 470.5 122.6C469.1 122.6 467.8 122.8 466.6 123.3C465.4 123.8 464.4 124.5 463.5 125.3C462.6 126.2 462 127.2 461.5 128.4C461 129.6 460.8 130.9 460.8 132.3C460.8 133.7 461 135 461.5 136.2C462 137.4 462.6 138.4 463.5 139.3C464.4 140.2 465.4 140.8 466.6 141.3C467.8 141.8 469.1 142 470.5 142C471.2 142 471.9 141.9 472.6 141.8C473.3 141.6 474 141.4 474.5 141.2C474.8 141.1 475 141 475.2 141.1C475.4 141.2 475.5 141.4 475.5 141.7C475.5 141.9 475.3 142.2 474.9 142.4C474.5 142.7 473.9 142.9 473.1 143.1C472 143.2 471.1 143.3 470.1 143.3ZM470.1 136.8C471 136.8 471.8 136.6 472.5 136.2C473.2 135.8 473.7 135.3 474.1 134.6C474.5 133.9 474.7 133.1 474.7 132.2C474.7 131.3 474.5 130.5 474.1 129.8C473.7 129.1 473.2 128.6 472.5 128.2C471.8 127.8 471 127.6 470.1 127.6C469.2 127.6 468.4 127.8 467.7 128.2C467 128.6 466.5 129.1 466.1 129.8C465.7 130.5 465.5 131.3 465.5 132.2C465.5 133.1 465.7 133.9 466.1 134.6C466.5 135.3 467 135.8 467.7 136.2C468.4 136.6 469.2 136.8 470.1 136.8Z" fill="#0052CC"/>
<path d="M539 245C537.4 245 535.9 244.7 534.6 244.2C533.2 243.7 532.1 242.9 531.1 241.9C530.1 240.9 529.3 239.7 528.8 238.4C528.3 237 528 235.6 528 234C528 232.4 528.3 230.9 528.8 229.5C529.3 228.1 530.1 227 531.1 226C532.1 225 533.3 224.3 534.6 223.7C536 223.2 537.4 222.9 539 222.9C540.6 222.9 542.1 223.2 543.5 223.7C544.9 224.2 546 225 547 226C548 227 548.7 228.2 549.3 229.5C549.8 230.9 550.1 232.3 550.1 234C550.1 235.3 549.9 236.5 549.6 237.5C549.3 238.5 548.8 239.3 548.2 239.9C547.6 240.5 546.9 240.8 546.1 240.8C545.4 240.8 544.8 240.6 544.4 240.1C543.9 239.7 543.7 239.1 543.7 238.4V237.7C543.4 238.1 543 238.5 542.6 238.8C542.1 239.1 541.6 239.4 541 239.6C540.4 239.8 539.8 239.9 539.2 239.9C538.1 239.9 537.1 239.6 536.2 239.1C535.3 238.6 534.6 237.9 534.1 237C533.6 236.1 533.3 235.1 533.3 234C533.3 232.9 533.6 231.8 534.1 231C534.6 230.1 535.3 229.4 536.2 228.9C537.1 228.4 538.1 228.1 539.2 228.1C540.3 228.1 541.4 228.3 542.2 228.9C543.1 229.4 543.8 230.1 544.3 231C544.8 231.9 545.1 232.9 545.1 234V237.9C545.1 238.5 545.2 238.8 545.4 239.1C545.6 239.3 545.9 239.4 546.2 239.4C546.8 239.4 547.2 239.2 547.7 238.7C548.1 238.2 548.5 237.6 548.7 236.8C548.9 236 549.1 235.1 549.1 234C549.1 232.6 548.9 231.3 548.4 230.1C547.9 228.9 547.2 227.9 546.4 227C545.5 226.1 544.5 225.5 543.3 225C542.1 224.5 540.8 224.3 539.4 224.3C538 224.3 536.7 224.5 535.5 225C534.3 225.5 533.3 226.2 532.4 227C531.5 227.9 530.9 228.9 530.4 230.1C529.9 231.3 529.7 232.6 529.7 234C529.7 235.4 529.9 236.7 530.4 237.9C530.9 239.1 531.5 240.1 532.4 241C533.3 241.9 534.3 242.5 535.5 243C536.7 243.5 538 243.7 539.4 243.7C540.1 243.7 540.8 243.6 541.5 243.5C542.2 243.3 542.9 243.1 543.4 242.9C543.7 242.8 543.9 242.7 544.1 242.8C544.3 242.9 544.4 243.1 544.4 243.4C544.4 243.6 544.2 243.9 543.8 244.1C543.4 244.4 542.8 244.6 542 244.8C541.2 245 540 245 539 245ZM539 238.6C539.9 238.6 540.7 238.4 541.4 238C542.1 237.6 542.6 237.1 543 236.4C543.4 235.7 543.6 234.9 543.6 234C543.6 233.1 543.4 232.3 543 231.6C542.6 230.9 542.1 230.4 541.4 230C540.7 229.6 539.9 229.4 539 229.4C538.1 229.4 537.3 229.6 536.6 230C535.9 230.4 535.4 230.9 535 231.6C534.6 232.3 534.4 233.1 534.4 234C534.4 234.9 534.6 235.7 535 236.4C535.4 237.1 535.9 237.6 536.6 238C537.3 238.4 538.1 238.6 539 238.6Z" fill="#0052CC"/>
<path d="M41.7002 250.6C40.1002 250.6 38.6002 250.3 37.3002 249.8C36.0002 249.3 34.8002 248.5 33.8002 247.5C32.8002 246.5 32.0002 245.3 31.5002 244C31.0002 242.6 30.7002 241.2 30.7002 239.6C30.7002 238 31.0002 236.5 31.5002 235.1C32.0002 233.7 32.8002 232.6 33.8002 231.6C34.8002 230.6 36.0002 229.9 37.3002 229.3C38.6002 228.7 40.1002 228.5 41.7002 228.5C43.3002 228.5 44.8002 228.8 46.2002 229.3C47.6002 229.8 48.7002 230.6 49.7002 231.6C50.7002 232.6 51.4002 233.8 52.0002 235.1C52.5002 236.5 52.8002 237.9 52.8002 239.6C52.8002 240.9 52.6002 242.1 52.3002 243.1C52.0002 244.1 51.5002 244.9 50.9002 245.5C50.3002 246.1 49.6002 246.4 48.8002 246.4C48.1002 246.4 47.5002 246.2 47.1002 245.7C46.6002 245.3 46.4002 244.7 46.4002 244V243.3C46.1002 243.7 45.7002 244.1 45.3002 244.4C44.8002 244.7 44.3002 245 43.7002 245.2C43.1002 245.4 42.5002 245.5 41.9002 245.5C40.8002 245.5 39.8002 245.2 38.9002 244.7C38.0002 244.2 37.3002 243.5 36.8002 242.6C36.3002 241.7 36.0002 240.7 36.0002 239.6C36.0002 238.5 36.3002 237.4 36.8002 236.6C37.3002 235.7 38.0002 235 38.9002 234.5C39.8002 234 40.8002 233.7 41.9002 233.7C43.0002 233.7 44.1002 233.9 44.9002 234.5C45.8002 235 46.5002 235.7 47.0002 236.6C47.5002 237.5 47.8002 238.5 47.8002 239.6V243.5C47.8002 244.1 47.9002 244.4 48.1002 244.7C48.3002 244.9 48.6002 245 48.9002 245C49.5002 245 49.9002 244.8 50.4002 244.3C50.8002 243.8 51.2002 243.2 51.4002 242.4C51.6002 241.6 51.8002 240.7 51.8002 239.6C51.8002 238.2 51.6002 236.9 51.1002 235.7C50.6002 234.5 49.9002 233.5 49.1002 232.6C48.2002 231.7 47.2002 231.1 46.0002 230.6C44.8002 230.1 43.5002 229.9 42.1002 229.9C40.7002 229.9 39.4002 230.1 38.2002 230.6C37.0002 231.1 36.0002 231.8 35.1002 232.6C34.2002 233.5 33.6002 234.5 33.1002 235.7C32.6002 236.9 32.4002 238.2 32.4002 239.6C32.4002 241 32.6002 242.3 33.1002 243.5C33.6002 244.7 34.2002 245.7 35.1002 246.6C36.0002 247.5 37.0002 248.1 38.2002 248.6C39.4002 249.1 40.7002 249.3 42.1002 249.3C42.8002 249.3 43.5002 249.2 44.2002 249.1C44.9002 248.9 45.6002 248.7 46.1002 248.5C46.4002 248.4 46.6002 248.3 46.8002 248.4C47.0002 248.5 47.1002 248.7 47.1002 249C47.1002 249.2 46.9002 249.5 46.5002 249.7C46.1002 250 45.5002 250.2 44.7002 250.4C43.6002 250.5 42.7002 250.6 41.7002 250.6ZM41.7002 244.1C42.6002 244.1 43.4002 243.9 44.1002 243.5C44.8002 243.1 45.3002 242.6 45.7002 241.9C46.1002 241.2 46.3002 240.4 46.3002 239.5C46.3002 238.6 46.1002 237.8 45.7002 237.1C45.3002 236.4 44.8002 235.9 44.1002 235.5C43.4002 235.1 42.6002 234.9 41.7002 234.9C40.8002 234.9 40.0002 235.1 39.3002 235.5C38.6002 235.9 38.1002 236.4 37.7002 237.1C37.3002 237.8 37.1002 238.6 37.1002 239.5C37.1002 240.4 37.3002 241.2 37.7002 241.9C38.1002 242.6 38.6002 243.1 39.3002 243.5C40.0002 243.9 40.8002 244.1 41.7002 244.1Z" fill="#0052CC"/>
<path d="M57.2002 183.3L62.9002 177.6C70.1002 170.4 81.7002 170.4 88.9002 177.6L94.9002 183.6" stroke="#071146" stroke-width="2" stroke-miterlimit="10" stroke-linecap="round" stroke-linejoin="round"/>
<path d="M94.9002 183.8L89.2002 189.5C82.0002 196.7 70.4002 196.7 63.2002 189.5L57.2002 183.5" stroke="#071146" stroke-width="2" stroke-miterlimit="10" stroke-linecap="round" stroke-linejoin="round"/>
<path d="M75.4004 189.6C78.7141 189.6 81.4004 186.914 81.4004 183.6C81.4004 180.286 78.7141 177.6 75.4004 177.6C72.0867 177.6 69.4004 180.286 69.4004 183.6C69.4004 186.914 72.0867 189.6 75.4004 189.6Z" stroke="#071146" stroke-width="2" stroke-miterlimit="10" stroke-linecap="round" stroke-linejoin="round"/>
<path d="M79.7002 184.1C81.6332 184.1 83.2002 182.533 83.2002 180.6C83.2002 178.667 81.6332 177.1 79.7002 177.1C77.7672 177.1 76.2002 178.667 76.2002 180.6C76.2002 182.533 77.7672 184.1 79.7002 184.1Z" fill="white"/>
<path d="M58.7004 175L52.4004 168.7" stroke="#071146" stroke-width="2" stroke-miterlimit="10" stroke-linecap="round" stroke-linejoin="round"/>
<path d="M91.8008 175L98.0008 168.7" stroke="#071146" stroke-width="2" stroke-miterlimit="10" stroke-linecap="round" stroke-linejoin="round"/>
<path d="M74.6006 168.7V159.7" stroke="#071146" stroke-width="2" stroke-miterlimit="10" stroke-linecap="round" stroke-linejoin="round"/>
<path d="M526.8 99L532.5 93.3C539.7 86.1 551.3 86.1 558.5 93.3L564.5 99.3" stroke="#071146" stroke-width="2" stroke-miterlimit="10" stroke-linecap="round" stroke-linejoin="round"/>
<path d="M564.599 99.5L558.899 105.2C551.699 112.4 540.099 112.4 532.899 105.2L526.899 99.2" stroke="#071146" stroke-width="2" stroke-miterlimit="10" stroke-linecap="round" stroke-linejoin="round"/>
<path d="M545 105.3C548.314 105.3 551 102.614 551 99.3C551 95.9863 548.314 93.3 545 93.3C541.686 93.3 539 95.9863 539 99.3C539 102.614 541.686 105.3 545 105.3Z" stroke="#071146" stroke-width="2" stroke-miterlimit="10" stroke-linecap="round" stroke-linejoin="round"/>
<path d="M549.3 99.8C551.233 99.8 552.8 98.233 552.8 96.3C552.8 94.367 551.233 92.8 549.3 92.8C547.367 92.8 545.8 94.367 545.8 96.3C545.8 98.233 547.367 99.8 549.3 99.8Z" fill="white"/>
<path d="M528.3 90.7L522 84.4" stroke="#071146" stroke-width="2" stroke-miterlimit="10" stroke-linecap="round" stroke-linejoin="round"/>
<path d="M561.4 90.7L567.7 84.4" stroke="#071146" stroke-width="2" stroke-miterlimit="10" stroke-linecap="round" stroke-linejoin="round"/>
<path d="M544.3 84.4V75.4" stroke="#071146" stroke-width="2" stroke-miterlimit="10" stroke-linecap="round" stroke-linejoin="round"/>
<path d="M481.118 62.4976C481.155 51.1206 471.962 41.8678 460.585 41.831C449.208 41.7942 439.955 50.9874 439.918 62.3644C439.881 73.7415 449.074 82.9943 460.452 83.031C471.829 83.0678 481.081 73.8747 481.118 62.4976Z" fill="white"/>
<path d="M479.5 57C478.6 57.3 477.8 57.4 477 57.5C470.1 58.2 463 55.1 458.9 49.4L458 47.8L457 49.2C455.7 50.9 454.3 52.5 452.6 53.8C448.7 57 443.5 58.8 438.5 58.2V56.2C440.1 46.3 448.6 38.8 459 38.8C468.9 38.8 477.2 45.8 479.1 55.2L479.5 57Z" fill="#FCAA90"/>
<path d="M479.689 59.4229C479.726 48.0459 470.533 38.7931 459.156 38.7563C447.779 38.7195 438.526 47.9127 438.489 59.2897C438.453 70.6668 447.646 79.9195 459.023 79.9563C470.4 79.9931 479.653 70.8 479.689 59.4229Z" stroke="#071146" stroke-width="2" stroke-miterlimit="10" stroke-linecap="round" stroke-linejoin="round"/>
<path d="M462.4 39C460.5 44.7 457.5 50.1 452.8 53.8C448.2 57.5 441.8 59.4 436.1 57.7" stroke="#071146" stroke-width="2" stroke-miterlimit="10" stroke-linecap="round" stroke-linejoin="round"/>
<path d="M458.1 47.9C461.9 54.4 469.6 58.2 477.2 57.4C478.7 57.2 480.8 56.6 482.1 55.8" stroke="#071146" stroke-width="2" stroke-miterlimit="10" stroke-linecap="round" stroke-linejoin="round"/>
<path d="M456.4 71.5C457.7 72.3 459.5 72.4 460.8 71.5" stroke="#071146" stroke-width="2" stroke-miterlimit="10" stroke-linecap="round" stroke-linejoin="round"/>
<path d="M450 62.4C450.884 62.4 451.6 61.6837 451.6 60.8C451.6 59.9163 450.884 59.2 450 59.2C449.117 59.2 448.4 59.9163 448.4 60.8C448.4 61.6837 449.117 62.4 450 62.4Z" fill="#071146"/>
<path d="M466.9 62.4C467.783 62.4 468.5 61.6837 468.5 60.8C468.5 59.9163 467.783 59.2 466.9 59.2C466.016 59.2 465.3 59.9163 465.3 60.8C465.3 61.6837 466.016 62.4 466.9 62.4Z" fill="#071146"/>
<path d="M184.787 218.955C184.824 207.578 175.631 198.325 164.254 198.289C152.877 198.252 143.624 207.445 143.587 218.822C143.55 230.199 152.743 239.452 164.12 239.489C175.498 239.525 184.75 230.332 184.787 218.955Z" fill="white"/>
<path d="M183.2 213.5C182.3 213.8 181.5 213.9 180.7 214C173.8 214.7 166.7 211.6 162.6 205.9L161.7 204.3L160.7 205.7C159.4 207.4 158 209 156.3 210.3C152.4 213.5 147.2 215.3 142.2 214.7V212.7C143.8 202.8 152.3 195.3 162.7 195.3C172.6 195.3 180.9 202.3 182.8 211.7L183.2 213.5Z" fill="#FCAA90"/>
<path d="M183.358 215.98C183.395 204.603 174.202 195.351 162.825 195.314C151.448 195.277 142.195 204.47 142.158 215.847C142.122 227.224 151.315 236.477 162.692 236.514C174.069 236.551 183.322 227.357 183.358 215.98Z" stroke="#071146" stroke-width="2" stroke-miterlimit="10" stroke-linecap="round" stroke-linejoin="round"/>
<path d="M166 195.5C164.1 201.2 161.1 206.6 156.4 210.3C151.7 214 145.4 215.9 139.7 214.2" stroke="#071146" stroke-width="2" stroke-miterlimit="10" stroke-linecap="round" stroke-linejoin="round"/>
<path d="M161.8 204.4C165.6 210.9 173.3 214.7 180.9 213.9C182.4 213.7 184.5 213.1 185.8 212.3" stroke="#071146" stroke-width="2" stroke-miterlimit="10" stroke-linecap="round" stroke-linejoin="round"/>
<path d="M160.1 228C161.4 228.8 163.2 228.9 164.5 228" stroke="#071146" stroke-width="2" stroke-miterlimit="10" stroke-linecap="round" stroke-linejoin="round"/>
<path d="M153.7 218.9C154.583 218.9 155.3 218.184 155.3 217.3C155.3 216.416 154.583 215.7 153.7 215.7C152.816 215.7 152.1 216.416 152.1 217.3C152.1 218.184 152.816 218.9 153.7 218.9Z" fill="#071146"/>
<path d="M170.5 218.9C171.384 218.9 172.1 218.184 172.1 217.3C172.1 216.416 171.384 215.7 170.5 215.7C169.617 215.7 168.9 216.416 168.9 217.3C168.9 218.184 169.617 218.9 170.5 218.9Z" fill="#071146"/>
<path d="M74.4697 107.74C74.5065 96.3632 65.3134 87.1105 53.9363 87.0737C42.5593 87.0369 33.3065 96.23 33.2697 107.607C33.2329 118.984 42.4261 128.237 53.8031 128.274C65.1802 128.31 74.433 119.117 74.4697 107.74Z" fill="white"/>
<path d="M72.7998 102.3C71.8998 102.6 71.0998 102.7 70.2998 102.8C63.3998 103.5 56.2998 100.4 52.1998 94.7L51.2998 93.1L50.2998 94.5C48.9998 96.2 47.5998 97.8 45.8998 99.1C41.9998 102.3 36.7998 104.1 31.7998 103.5V101.5C33.3998 91.6 41.8998 84.1 52.2998 84.1C62.1998 84.1 70.4998 91.1 72.3998 100.5L72.7998 102.3Z" fill="#FEDB8F"/>
<path d="M72.9414 104.665C72.9782 93.2882 63.7851 84.0355 52.408 83.9987C41.031 83.9619 31.7782 93.155 31.7414 104.532C31.7046 115.909 40.8977 125.162 52.2748 125.199C63.6519 125.235 72.9046 116.042 72.9414 104.665Z" stroke="#071146" stroke-width="2" stroke-miterlimit="10" stroke-linecap="round" stroke-linejoin="round"/>
<path d="M55.7004 84.2C53.8004 89.9 50.8004 95.3 46.1004 99C41.4004 102.7 35.1004 104.6 29.4004 102.9" stroke="#071146" stroke-width="2" stroke-miterlimit="10" stroke-linecap="round" stroke-linejoin="round"/>
<path d="M51.4004 93.1C55.2004 99.6 62.9004 103.4 70.5004 102.6C72.0004 102.4 74.1004 101.8 75.4004 101" stroke="#071146" stroke-width="2" stroke-miterlimit="10" stroke-linecap="round" stroke-linejoin="round"/>
<path d="M49.7002 116.7C51.0002 117.5 52.8002 117.6 54.1002 116.7" stroke="#071146" stroke-width="2" stroke-miterlimit="10" stroke-linecap="round" stroke-linejoin="round"/>
<path d="M43.3002 107.6C44.1838 107.6 44.9002 106.884 44.9002 106C44.9002 105.116 44.1838 104.4 43.3002 104.4C42.4165 104.4 41.7002 105.116 41.7002 106C41.7002 106.884 42.4165 107.6 43.3002 107.6Z" fill="#071146"/>
<path d="M60.1996 107.6C61.0833 107.6 61.7996 106.884 61.7996 106C61.7996 105.116 61.0833 104.4 60.1996 104.4C59.316 104.4 58.5996 105.116 58.5996 106C58.5996 106.884 59.316 107.6 60.1996 107.6Z" fill="#071146"/>
<path d="M561.053 173.735C561.09 162.358 551.896 153.105 540.519 153.068C529.142 153.031 519.89 162.224 519.853 173.602C519.816 184.979 529.009 194.231 540.386 194.268C551.763 194.305 561.016 185.112 561.053 173.735Z" fill="white"/>
<path d="M559.5 168.3C558.6 168.6 557.8 168.7 557 168.8C550.1 169.5 543 166.4 538.9 160.7L538 159.1L537 160.5C535.7 162.2 534.3 163.8 532.6 165.1C528.7 168.3 523.5 170.1 518.5 169.5V167.5C520.1 157.6 528.6 150.1 539 150.1C548.9 150.1 557.2 157.1 559.1 166.5L559.5 168.3Z" fill="#FEDB8F"/>
<path d="M559.624 170.76C559.661 159.383 550.468 150.13 539.091 150.093C527.714 150.057 518.461 159.25 518.424 170.627C518.387 182.004 527.58 191.257 538.957 191.293C550.334 191.33 559.587 182.137 559.624 170.76Z" stroke="#071146" stroke-width="2" stroke-miterlimit="10" stroke-linecap="round" stroke-linejoin="round"/>
<path d="M542.3 150.3C540.4 156 537.4 161.4 532.7 165.1C528 168.8 521.7 170.7 516 169" stroke="#071146" stroke-width="2" stroke-miterlimit="10" stroke-linecap="round" stroke-linejoin="round"/>
<path d="M538 159.2C541.8 165.7 549.5 169.5 557.1 168.7C558.6 168.5 560.7 167.9 562 167.1" stroke="#071146" stroke-width="2" stroke-miterlimit="10" stroke-linecap="round" stroke-linejoin="round"/>
<path d="M536.4 182.8C537.7 183.6 539.5 183.7 540.8 182.8" stroke="#071146" stroke-width="2" stroke-miterlimit="10" stroke-linecap="round" stroke-linejoin="round"/>
<path d="M530 173.7C530.884 173.7 531.6 172.984 531.6 172.1C531.6 171.216 530.884 170.5 530 170.5C529.117 170.5 528.4 171.216 528.4 172.1C528.4 172.984 529.117 173.7 530 173.7Z" fill="#071146"/>
<path d="M546.8 173.7C547.684 173.7 548.4 172.984 548.4 172.1C548.4 171.216 547.684 170.5 546.8 170.5C545.917 170.5 545.2 171.216 545.2 172.1C545.2 172.984 545.917 173.7 546.8 173.7Z" fill="#071146"/>
<path d="M460.908 216.43C460.945 205.053 451.752 195.8 440.375 195.763C428.998 195.726 419.745 204.919 419.708 216.296C419.671 227.674 428.865 236.926 440.242 236.963C451.619 237 460.871 227.807 460.908 216.43Z" fill="white"/>
<path d="M459.3 211C458.4 211.3 457.6 211.4 456.8 211.5C449.9 212.2 442.8 209.1 438.7 203.4L437.8 201.8L436.8 203.2C435.5 204.9 434.1 206.5 432.4 207.8C428.5 211 423.3 212.8 418.3 212.2V210.2C419.9 200.3 428.4 192.8 438.8 192.8C448.7 192.8 457 199.8 458.9 209.2L459.3 211Z" fill="#0052CC"/>
<path d="M459.479 213.455C459.516 202.078 450.323 192.825 438.946 192.788C427.569 192.752 418.316 201.945 418.28 213.322C418.243 224.699 427.436 233.951 438.813 233.988C450.19 234.025 459.443 224.832 459.479 213.455Z" stroke="#071146" stroke-width="2" stroke-miterlimit="10" stroke-linecap="round" stroke-linejoin="round"/>
<path d="M442.1 192.9C440.2 198.6 437.2 204 432.5 207.7C427.9 211.4 421.5 213.3 415.8 211.6" stroke="#071146" stroke-width="2" stroke-miterlimit="10" stroke-linecap="round" stroke-linejoin="round"/>
<path d="M437.9 201.8C441.7 208.3 449.4 212.1 457 211.3C458.5 211.1 460.6 210.5 461.9 209.7" stroke="#071146" stroke-width="2" stroke-miterlimit="10" stroke-linecap="round" stroke-linejoin="round"/>
<path d="M436.2 225.5C437.5 226.3 439.3 226.4 440.6 225.5" stroke="#071146" stroke-width="2" stroke-miterlimit="10" stroke-linecap="round" stroke-linejoin="round"/>
<path d="M429.8 216.4C430.684 216.4 431.4 215.684 431.4 214.8C431.4 213.916 430.684 213.2 429.8 213.2C428.917 213.2 428.2 213.916 428.2 214.8C428.2 215.684 428.917 216.4 429.8 216.4Z" fill="#071146"/>
<path d="M446.6 216.4C447.484 216.4 448.2 215.684 448.2 214.8C448.2 213.916 447.484 213.2 446.6 213.2C445.716 213.2 445 213.916 445 214.8C445 215.684 445.716 216.4 446.6 216.4Z" fill="#071146"/>
<path d="M404.6 94.4L402.1 99.5C402 99.7 401.8 99.9 401.6 99.9L385.2 103.8C384.6 103.9 384.5 104.9 385 105.3L390.9 109.9C391.3 110.2 391.3 110.8 391 111.2L381.8 122C381.5 122.4 381.6 123.1 382 123.3L420.2 138.8C420.7 139.1 421.3 138.4 421.1 137.8L405.9 94.4C405.6 93.8 404.8 93.8 404.6 94.4Z" fill="white"/>
<path d="M399.1 91.4L395.3 99.2C395.2 99.4 395 99.6 394.7 99.6L381.1 102C380.4 102.1 380.2 103.1 380.8 103.4L387.9 107.9C388.3 108.2 388.4 108.8 388 109.1L376.9 119.5C376.5 119.9 376.6 120.6 377.1 120.8L416.1 137.7C416.7 138 417.4 137.4 417.2 136.7L400.4 91.3C400.3 90.8 399.4 90.7 399.1 91.4Z" stroke="#071146" stroke-width="2" stroke-miterlimit="10" stroke-linecap="round" stroke-linejoin="round"/>
<path d="M388.9 108.5L413.4 133.9C414 134.6 415.1 133.8 414.6 133L395.1 99.6" stroke="#071146" stroke-width="2" stroke-miterlimit="10" stroke-linecap="round" stroke-linejoin="round"/>
<path d="M127.5 93.8C127 93.8 126.5 93.8 126 93.8V92.8C128 92.9 130 92.8 131.9 92.6L132 93.6C130.6 93.7 129 93.8 127.5 93.8ZM119.9 93.2C118 92.9 116 92.5 114 92L114.3 91C116.3 91.5 118.3 91.9 120.1 92.2L119.9 93.2ZM138 92.4L137.7 91.4C139.5 90.9 141.4 90.2 143.3 89.4L143.7 90.3C141.8 91.1 139.8 91.8 138 92.4ZM371.1 91.6C369.9 90 368.7 88.4 367.5 86.9L368.3 86.3C369.6 87.8 370.8 89.4 372 91.1L371.1 91.6ZM108.2 90.2C106.4 89.6 104.5 88.9 102.5 88.1L102.9 87.2C104.9 88 106.7 88.7 108.5 89.3L108.2 90.2ZM149.1 87.5L148.6 86.6C149.4 86.2 150.1 85.7 150.8 85.3C151.8 84.7 152.7 84.1 153.6 83.5L154.2 84.3C153.3 84.9 152.3 85.5 151.3 86.1C150.6 86.7 149.8 87.1 149.1 87.5ZM97 85.8C95.2 85 93.3 84.2 91.5 83.3L91.9 82.4C93.7 83.2 95.5 84 97.4 84.9L97 85.8ZM363.5 82.4C362.2 81 360.8 79.5 359.3 78.1L360 77.4C361.4 78.8 362.9 80.2 364.2 81.7L363.5 82.4ZM159.1 80.9L158.5 80.1C160.1 78.9 161.6 77.6 163.1 76.3L163.8 77C162.3 78.3 160.7 79.6 159.1 80.9ZM354.9 74.1C353.4 72.8 351.8 71.6 350.3 70.3L350.9 69.5C352.5 70.7 354.1 72 355.6 73.3L354.9 74.1ZM168.1 72.8L167.4 72.1C168.8 70.6 170.1 69.1 171.3 67.6L172.1 68.2C170.8 69.8 169.5 71.3 168.1 72.8ZM345.4 66.9C343.8 65.8 342.1 64.7 340.4 63.6L340.9 62.7C342.6 63.8 344.3 64.9 345.9 66L345.4 66.9ZM175.6 63.4L174.8 62.9C175.9 61.2 176.9 59.5 177.8 57.8L178.7 58.3C177.8 59.9 176.7 61.7 175.6 63.4ZM335.3 60.6C333.6 59.6 331.8 58.7 330 57.8L330.4 56.9C332.2 57.8 334 58.7 335.7 59.7L335.3 60.6ZM190.4 56.1V55.1C192.3 55 194.3 54.9 196.3 54.6L196.4 55.6C194.4 55.8 192.4 56 190.4 56.1ZM184.4 56C182.3 55.9 180.3 55.7 178.4 55.4L178.6 54.4C180.5 54.7 182.5 54.9 184.5 55L184.4 56ZM324.6 55.3C322.8 54.5 320.9 53.7 319.1 53L319.5 52.1C321.4 52.8 323.2 53.6 325.1 54.4L324.6 55.3ZM202.4 54.6L202.2 53.6C204.1 53.2 206 52.8 208 52.3L208.2 53.3C206.2 53.8 204.3 54.3 202.4 54.6ZM172.4 54.1C170.4 53.5 168.5 52.8 166.7 52L167.1 51.1C168.9 51.9 170.7 52.6 172.7 53.1L172.4 54.1ZM181.2 52.6L180.3 52.2C180.6 51.4 180.9 50.5 181.2 49.7C181.5 48.7 181.8 47.6 182.1 46.6L183.1 46.9C182.8 48 182.5 49.1 182.2 50.1C181.8 50.9 181.5 51.8 181.2 52.6ZM214.1 51.8L213.8 50.8C215.7 50.3 217.6 49.7 219.5 49.1L219.8 50.1C217.9 50.7 216 51.2 214.1 51.8ZM313.5 50.8C311.6 50.1 309.7 49.5 307.8 48.9L308.1 47.9C310 48.5 311.9 49.1 313.8 49.8L313.5 50.8ZM161.4 49.1C159.9 48.1 158.6 47.1 157.3 45.9C157.1 45.7 156.9 45.5 156.7 45.3L157.4 44.6C157.6 44.8 157.8 45 158 45.2C159.2 46.3 160.6 47.4 162 48.3L161.4 49.1ZM225.6 48.3L225.3 47.3C227.2 46.7 229.1 46.1 231.1 45.6L231.4 46.6C229.4 47.1 227.5 47.7 225.6 48.3ZM302 47.3C300.1 46.8 298.1 46.3 296.2 45.8L296.4 44.8C298.4 45.3 300.3 45.7 302.2 46.3L302 47.3ZM237.1 45L236.8 44C238.9 43.5 240.8 43 242.7 42.6L242.9 43.6C241 43.9 239.1 44.4 237.1 45ZM290.4 44.6C288.4 44.2 286.5 43.9 284.5 43.6L284.7 42.6C286.7 42.9 288.7 43.3 290.6 43.6L290.4 44.6ZM278.5 42.8C276.5 42.6 274.5 42.4 272.5 42.2L272.6 41.2C274.6 41.4 276.6 41.6 278.6 41.8L278.5 42.8ZM248.7 42.5L248.6 41.5C250.5 41.2 252.5 41 254.6 40.9L254.7 41.9C252.6 42 250.6 42.2 248.7 42.5ZM266.6 41.8C264.8 41.7 263 41.7 261.3 41.7H260.7V40.7H261.3C263.1 40.7 264.9 40.7 266.7 40.8L266.6 41.8ZM184.3 41L183.3 40.8C183.6 38.9 183.9 37 184.1 34.9L185.1 35C184.8 37.1 184.6 39.1 184.3 41ZM152.6 40.8C151.4 39.2 150.3 37.5 149.3 35.7L150.2 35.2C151.2 37 152.3 38.6 153.4 40.2L152.6 40.8ZM146.8 30.2C146.1 28.2 145.5 26.2 145.2 24.3L146.2 24.1C146.5 25.9 147 27.9 147.7 29.8L146.8 30.2ZM185.3 28.9H184.3V28.6C184.3 26.6 184.2 24.8 184 23L185 22.9C185.2 24.7 185.3 26.6 185.3 28.6V28.9ZM146.1 18.3L145.1 18.2C145.2 17.6 145.3 17.1 145.4 16.5C145.7 15.1 146.2 13.6 146.8 12.3L147.7 12.7C147.1 14 146.6 15.3 146.4 16.7C146.2 17.2 146.1 17.7 146.1 18.3ZM182.9 17.2C182.3 15.2 181.6 13.4 180.7 11.8L181.6 11.3C182.5 13 183.3 14.9 183.9 16.9L182.9 17.2ZM150.9 7.89999L150.2 7.19999C151.6 5.69999 153.2 4.39999 155 3.39999L155.5 4.29999C153.8 5.19999 152.3 6.39999 150.9 7.89999ZM177.1 7.09999C176.9 6.89999 176.6 6.59999 176.3 6.39999C175.1 5.39999 173.7 4.49999 172.3 3.79999L172.7 2.89999C174.3 3.59999 175.7 4.59999 176.9 5.69999C177.2 5.89999 177.4 6.19999 177.7 6.39999L177.1 7.09999ZM160.9 2.29999L160.7 1.29999C162.7 0.899989 164.8 0.899989 166.8 1.19999L166.7 2.19999C164.8 1.89999 162.8 1.89999 160.9 2.29999Z" fill="#0052CC"/>
</svg>
