<svg width="586" height="273" viewBox="0 0 586 273" fill="none" xmlns="http://www.w3.org/2000/svg">
<g clip-path="url(#clip0)">
<path d="M581.6 60.7H0V272.9H581.6C584 272.9 586 270.9 586 268.5V65.1C586 62.7 584 60.7 581.6 60.7Z" fill="#B1DEF5"/>
<path d="M196 199.4C197.4 199.4 198.8 199.6 200.2 199.9C200.8 200 201.2 200.5 201.3 201.1L201.6 204C201.7 205.3 202.9 206.4 204.2 206.4C204.6 206.4 204.9 206.3 205.3 206.2L208 205C208.6 204.8 209.2 204.9 209.6 205.3C211.5 207.4 213 209.8 213.8 212.6C214 213.2 213.8 213.8 213.3 214.2L210.9 215.9C210.2 216.4 209.8 217.2 209.8 218C209.8 218.8 210.2 219.6 210.9 220.1L213.3 221.9C213.8 222.3 214 222.9 213.8 223.5C213 226.2 211.5 228.7 209.6 230.8C209.2 231.2 208.5 231.4 208 231.1L205.3 229.9C204.5 229.6 203.6 229.6 202.9 230C202.2 230.4 201.7 231.2 201.6 232L201.3 234.9C201.2 235.5 200.8 236 200.2 236.1C197.4 236.8 194.5 236.8 191.8 236.1C191.2 236 190.8 235.5 190.7 234.9L190.4 232C190.3 231.2 189.8 230.4 189.1 230C188.4 229.6 187.5 229.5 186.7 229.9L184 231.1C183.4 231.3 182.8 231.2 182.4 230.8C180.5 228.7 179 226.2 178.2 223.5C178 222.9 178.2 222.3 178.7 221.9L181.1 220.1C181.8 219.6 182.2 218.8 182.2 218C182.2 217.2 181.8 216.4 181.1 215.9L178.7 214.2C178.2 213.8 178 213.2 178.2 212.6C179 209.9 180.5 207.4 182.4 205.3C182.8 204.9 183.5 204.7 184 205L186.7 206.2C187.5 206.5 188.4 206.5 189.1 206.1C189.8 205.7 190.3 204.9 190.4 204.1L190.7 201.2C190.8 200.6 191.2 200.1 191.8 200C193.2 199.6 194.6 199.4 196 199.4ZM196 202.3C195.1 202.3 194.3 202.4 193.4 202.5L193.2 204.4C193 206.1 192 207.7 190.5 208.6C189 209.5 187.1 209.6 185.5 208.9L183.8 208.1C182.7 209.4 181.8 210.9 181.2 212.5L182.7 213.6C184.1 214.6 184.9 216.3 184.9 218C184.9 219.8 184.1 221.4 182.7 222.4L181.2 223.5C181.8 225.1 182.7 226.6 183.8 227.9L185.5 227.1C187.1 226.4 188.9 226.5 190.5 227.4C192 228.3 193 229.8 193.2 231.6L193.4 233.5C195.1 233.8 196.8 233.8 198.5 233.5L198.7 231.6C198.9 229.9 199.9 228.3 201.4 227.4C202.9 226.5 204.8 226.4 206.4 227.1L208.1 227.9C209.2 226.6 210.1 225.1 210.7 223.5L209.2 222.4C207.8 221.4 207 219.7 207 218C207 216.3 207.8 214.6 209.2 213.6L210.7 212.5C210.1 210.9 209.2 209.4 208.1 208.1L206.4 208.9C205.7 209.2 204.9 209.4 204.2 209.4C201.4 209.4 199 207.3 198.7 204.5L198.5 202.6C197.7 202.4 196.8 202.3 196 202.3ZM196 210.9C200 210.9 203.2 214.1 203.2 218.1C203.2 222.1 200 225.3 196 225.3C192 225.3 188.8 222.1 188.8 218.1C188.8 214.1 192 210.9 196 210.9ZM196 213.8C193.6 213.8 191.7 215.7 191.7 218.1C191.7 220.5 193.6 222.4 196 222.4C198.4 222.4 200.3 220.5 200.3 218.1C200.3 215.7 198.3 213.8 196 213.8Z" fill="white"/>
<path d="M219.5 25.8C220.3 25.8 221.2 25.9 222 26.1C222.4 26.2 222.6 26.5 222.7 26.8L222.9 28.5C223 29.3 223.7 29.9 224.5 29.9C224.7 29.9 224.9 29.9 225.1 29.8L226.7 29.1C227 29 227.4 29 227.7 29.3C228.9 30.5 229.7 32 230.2 33.6C230.3 33.9 230.2 34.3 229.9 34.5L228.5 35.5C228.1 35.8 227.9 36.3 227.9 36.8C227.9 37.3 228.1 37.8 228.5 38.1L229.9 39.1C230.2 39.3 230.3 39.7 230.2 40C229.7 41.6 228.8 43.1 227.7 44.3C227.5 44.6 227.1 44.6 226.7 44.5L225 44C224.5 43.8 224 43.8 223.6 44.1C223.2 44.4 222.9 44.8 222.8 45.3L222.6 47C222.6 47.4 222.3 47.7 221.9 47.7C220.2 48.1 218.5 48.1 216.9 47.7C216.5 47.6 216.3 47.3 216.2 47L216 45.3C215.9 44.8 215.7 44.4 215.2 44.1C214.8 43.9 214.2 43.8 213.8 44L212.2 44.7C211.9 44.8 211.5 44.8 211.2 44.5C210 43.3 209.2 41.8 208.7 40.2C208.6 39.9 208.7 39.5 209 39.3L210.4 38.3C210.8 38 211 37.5 211 37C211 36.5 210.8 36 210.4 35.7L209 34.7C208.7 34.5 208.6 34.1 208.7 33.8C209.2 32.2 210.1 30.7 211.2 29.5C211.4 29.2 211.8 29.2 212.2 29.3L213.8 30C214.3 30.2 214.8 30.2 215.2 29.9C215.6 29.6 215.9 29.2 216 28.7L216.2 27C216.2 26.6 216.5 26.3 216.9 26.3C217.8 25.9 218.6 25.8 219.5 25.8ZM219.5 27.5C219 27.5 218.5 27.6 218 27.6L217.9 28.7C217.8 29.7 217.2 30.7 216.3 31.2C215.4 31.7 214.3 31.8 213.3 31.4L212.3 30.9C211.6 31.7 211.1 32.6 210.8 33.5L211.7 34.2C212.5 34.8 213 35.8 213 36.8C213 37.8 212.5 38.8 211.7 39.4L210.8 40.1C211.2 41.1 211.7 42 212.3 42.7L213.3 42.2C214.3 41.8 215.4 41.8 216.3 42.4C217.2 42.9 217.8 43.8 217.9 44.9L218 46C219 46.2 220.1 46.2 221.1 46L221.2 44.9C221.3 43.9 221.9 42.9 222.8 42.4C223.7 41.9 224.8 41.8 225.8 42.2L226.8 42.7C227.5 41.9 228 41 228.3 40.1L227.4 39.4C226.5 39 226 38 226 37C226 36 226.5 35 227.3 34.4L228.2 33.7C227.8 32.7 227.3 31.8 226.7 31.1L225.7 31.5C225.3 31.7 224.8 31.8 224.4 31.8C222.7 31.8 221.3 30.5 221.1 28.9L221 27.8C220.5 27.6 220 27.6 219.5 27.5ZM219.5 32.7C221.9 32.7 223.8 34.6 223.8 37C223.8 39.4 221.9 41.3 219.5 41.3C217.1 41.3 215.2 39.4 215.2 37C215.2 34.6 217.1 32.7 219.5 32.7ZM219.5 34.4C218.1 34.4 216.9 35.5 216.9 37C216.9 38.5 218 39.6 219.5 39.6C220.9 39.6 222.1 38.5 222.1 37C222.1 35.5 220.9 34.4 219.5 34.4Z" fill="#B1DEF5"/>
<path d="M557.1 129.9C557.9 129.9 558.8 130 559.6 130.2C560 130.3 560.2 130.6 560.3 130.9L560.5 132.6C560.6 133.4 561.3 134 562.1 134C562.3 134 562.5 134 562.7 133.9L564.3 133.2C564.6 133.1 565 133.1 565.3 133.4C566.5 134.6 567.3 136.1 567.8 137.7C567.9 138 567.8 138.4 567.5 138.6L566.1 139.6C565.7 139.9 565.5 140.4 565.5 140.9C565.5 141.4 565.7 141.9 566.1 142.2L567.5 143.2C567.8 143.4 567.9 143.8 567.8 144.1C567.3 145.7 566.4 147.2 565.3 148.4C565.1 148.7 564.7 148.7 564.3 148.6L562.7 147.9C562.2 147.7 561.7 147.7 561.3 148C560.9 148.3 560.6 148.7 560.5 149.2L560.3 150.9C560.3 151.3 560 151.6 559.6 151.6C557.9 152 556.2 152 554.6 151.6C554.2 151.5 554 151.2 553.9 150.9L553.7 149.2C553.6 148.7 553.4 148.3 552.9 148C552.5 147.8 551.9 147.7 551.5 147.9L549.9 148.6C549.6 148.7 549.2 148.7 548.9 148.4C547.7 147.2 546.9 145.7 546.4 144.1C546.3 143.8 546.4 143.4 546.7 143.2L548.1 142.2C548.5 141.9 548.7 141.4 548.7 140.9C548.7 140.4 548.5 139.9 548.1 139.6L546.7 138.6C546.4 138.4 546.3 138 546.4 137.7C546.9 136.1 547.8 134.6 548.9 133.4C549.1 133.1 549.5 133.1 549.9 133.2L551.5 133.9C552 134.1 552.5 134.1 552.9 133.8C553.3 133.5 553.6 133.1 553.7 132.6L553.9 130.9C553.9 130.5 554.2 130.2 554.6 130.2C555.4 130.1 556.3 130 557.1 129.9ZM557.1 131.7C556.6 131.7 556.1 131.8 555.6 131.8L555.5 132.9C555.4 133.9 554.8 134.9 553.9 135.4C553 135.9 551.9 136 550.9 135.6L549.9 135.1C549.2 135.9 548.7 136.8 548.4 137.7L549.3 138.4C550.1 139 550.6 140 550.6 141C550.6 142 550.1 143 549.3 143.6L548.4 144.3C548.8 145.3 549.3 146.2 549.9 146.9L550.9 146.4C551.9 146 553 146 553.9 146.6C554.8 147.1 555.4 148 555.5 149.1L555.6 150.2C556.6 150.4 557.7 150.4 558.7 150.2L558.8 149.1C558.9 148.1 559.5 147.1 560.4 146.6C561.3 146.1 562.4 146 563.4 146.4L564.4 146.9C565.1 146.1 565.6 145.2 565.9 144.3L565 143.6C564.2 143 563.7 142 563.7 141C563.7 140 564.2 139 565 138.4L565.9 137.7C565.5 136.7 565 135.8 564.4 135.1L563.4 135.5C563 135.7 562.5 135.8 562.1 135.8C560.4 135.8 559 134.5 558.8 132.9L558.7 131.8C558.1 131.7 557.6 131.7 557.1 131.7ZM557.1 136.8C559.5 136.8 561.4 138.7 561.4 141.1C561.4 143.5 559.5 145.4 557.1 145.4C554.7 145.4 552.8 143.5 552.8 141.1C552.8 138.7 554.7 136.8 557.1 136.8ZM557.1 138.5C555.7 138.5 554.5 139.6 554.5 141.1C554.5 142.6 555.6 143.7 557.1 143.7C558.5 143.7 559.7 142.6 559.7 141.1C559.7 139.6 558.5 138.5 557.1 138.5Z" fill="white"/>
<path d="M356.6 112.2C364.829 112.2 371.5 105.529 371.5 97.3C371.5 89.071 364.829 82.4 356.6 82.4C348.371 82.4 341.7 89.071 341.7 97.3C341.7 105.529 348.371 112.2 356.6 112.2Z" fill="white"/>
<path d="M360.353 92.1058C360.36 90.0623 358.709 88.4004 356.665 88.3938C354.622 88.3872 352.96 90.0384 352.953 92.0818C352.947 94.1253 354.598 95.7872 356.641 95.7938C358.685 95.8004 360.347 94.1492 360.353 92.1058Z" stroke="#071146" stroke-width="2" stroke-miterlimit="10" stroke-linecap="round" stroke-linejoin="round"/>
<path d="M356.6 105.8C359.7 105.8 362.3 103.3 362.3 100.1V99.2001C362.3 98.6001 361.8 98.2001 361.3 98.2001H352C351.4 98.2001 351 98.7001 351 99.2001V100.1C350.9 103.2 353.4 105.8 356.6 105.8Z" stroke="#071146" stroke-width="2" stroke-miterlimit="10" stroke-linecap="round" stroke-linejoin="round"/>
<path d="M532.9 247.8C541.129 247.8 547.8 241.129 547.8 232.9C547.8 224.671 541.129 218 532.9 218C524.671 218 518 224.671 518 232.9C518 241.129 524.671 247.8 532.9 247.8Z" fill="white"/>
<path d="M536.662 227.712C536.669 225.669 535.017 224.007 532.974 224C530.93 223.994 529.269 225.645 529.262 227.688C529.255 229.732 530.907 231.393 532.95 231.4C534.993 231.407 536.655 229.755 536.662 227.712Z" stroke="#071146" stroke-width="2" stroke-miterlimit="10" stroke-linecap="round" stroke-linejoin="round"/>
<path d="M532.9 241.4C536 241.4 538.6 238.9 538.6 235.7V234.8C538.6 234.2 538.1 233.8 537.6 233.8H528.3C527.7 233.8 527.3 234.3 527.3 234.8V235.7C527.2 238.8 529.7 241.4 532.9 241.4Z" stroke="#071146" stroke-width="2" stroke-miterlimit="10" stroke-linecap="round" stroke-linejoin="round"/>
<path d="M60.3004 75.6C68.5294 75.6 75.2004 68.929 75.2004 60.7C75.2004 52.4709 68.5294 45.8 60.3004 45.8C52.0713 45.8 45.4004 52.4709 45.4004 60.7C45.4004 68.929 52.0713 75.6 60.3004 75.6Z" fill="#FEDB8F"/>
<path d="M64.0379 55.4737C64.0445 53.4303 62.3934 51.7684 60.3499 51.7617C58.3065 51.7551 56.6445 53.4063 56.6379 55.4498C56.6313 57.4932 58.2825 59.1551 60.326 59.1617C62.3694 59.1684 64.0313 57.5172 64.0379 55.4737Z" stroke="#071146" stroke-width="2" stroke-miterlimit="10" stroke-linecap="round" stroke-linejoin="round"/>
<path d="M60.2006 69.2C63.3006 69.2 65.9006 66.7 65.9006 63.5V62.6C65.9006 62 65.4006 61.6 64.9006 61.6H55.6006C55.0006 61.6 54.6006 62.1 54.6006 62.6V63.5C54.6006 66.6 57.1006 69.2 60.2006 69.2Z" stroke="#071146" stroke-width="2" stroke-miterlimit="10" stroke-linecap="round" stroke-linejoin="round"/>
<path d="M50.9996 245.8C49.0996 245.8 47.3996 245.5 45.7996 244.9C44.1996 244.3 42.8996 243.4 41.6996 242.2C40.5996 241.1 39.6996 239.7 38.9996 238.1C38.3996 236.5 38.0996 234.8 38.0996 232.9C38.0996 231 38.3996 229.3 38.9996 227.7C39.5996 226.1 40.4996 224.8 41.6996 223.6C42.7996 222.5 44.1996 221.6 45.7996 220.9C47.3996 220.3 49.0996 220 50.9996 220C52.8996 220 54.5996 220.3 56.1996 220.9C57.7996 221.5 59.0996 222.4 60.2996 223.6C61.3996 224.7 62.2996 226.1 62.9996 227.7C63.6996 229.3 63.8996 231 63.8996 232.9C63.8996 234.4 63.6996 235.8 63.2996 236.9C62.8996 238.1 62.2996 239 61.5996 239.7C60.8996 240.4 60.0996 240.7 59.0996 240.7C58.2996 240.7 57.5996 240.4 57.0996 239.9C56.5996 239.4 56.2996 238.7 56.2996 237.9V237.1C55.9996 237.6 55.4996 238 54.9996 238.4C54.3996 238.8 53.7996 239.1 53.0996 239.3C52.3996 239.5 51.6996 239.6 50.9996 239.6C49.6996 239.6 48.4996 239.3 47.4996 238.7C46.4996 238.1 45.6996 237.3 45.0996 236.3C44.4996 235.3 44.1996 234.1 44.1996 232.8C44.1996 231.5 44.4996 230.3 45.0996 229.3C45.6996 228.3 46.4996 227.5 47.4996 226.9C48.4996 226.3 49.6996 226 50.9996 226C52.2996 226 53.4996 226.3 54.4996 226.9C55.4996 227.5 56.2996 228.3 56.8996 229.3C57.4996 230.3 57.7996 231.5 57.7996 232.8V237.3C57.7996 237.9 57.8996 238.4 58.1996 238.7C58.3996 239 58.6996 239.1 59.0996 239.1C59.6996 239.1 60.2996 238.8 60.7996 238.3C61.2996 237.8 61.6996 237 61.9996 236.1C62.2996 235.2 62.3996 234.1 62.3996 232.8C62.3996 231.1 62.0996 229.6 61.5996 228.2C60.9996 226.8 60.2996 225.6 59.1996 224.6C58.1996 223.6 56.9996 222.8 55.5996 222.2C54.1996 221.6 52.6996 221.4 50.9996 221.4C49.2996 221.4 47.7996 221.7 46.3996 222.2C44.9996 222.8 43.7996 223.5 42.7996 224.6C41.7996 225.6 40.9996 226.8 40.4996 228.2C39.9996 229.6 39.6996 231.1 39.6996 232.8C39.6996 234.5 39.9996 236 40.4996 237.4C41.0996 238.8 41.7996 240 42.7996 241C43.7996 242 44.9996 242.8 46.3996 243.3C47.7996 243.8 49.2996 244.1 50.9996 244.1C51.7996 244.1 52.5996 244 53.4996 243.8C54.3996 243.6 55.0996 243.4 55.6996 243.1C55.9996 242.9 56.2996 242.9 56.4996 243C56.6996 243.1 56.7996 243.3 56.7996 243.6C56.7996 243.9 56.5996 244.2 56.0996 244.5C55.5996 244.8 54.8996 245.1 53.9996 245.3C53.1996 245.7 52.1996 245.8 50.9996 245.8ZM50.9996 238.2C51.9996 238.2 52.8996 238 53.6996 237.5C54.4996 237 55.0996 236.4 55.5996 235.6C56.0996 234.8 56.2996 233.9 56.2996 232.9C56.2996 231.9 56.0996 230.9 55.5996 230.1C55.0996 229.3 54.4996 228.7 53.6996 228.2C52.8996 227.7 51.9996 227.5 50.9996 227.5C49.9996 227.5 49.0996 227.7 48.2996 228.2C47.4996 228.7 46.8996 229.3 46.3996 230.1C45.8996 230.9 45.6996 231.8 45.6996 232.9C45.6996 233.9 45.8996 234.8 46.3996 235.6C46.8996 236.4 47.4996 237 48.2996 237.5C49.0996 238 49.9996 238.2 50.9996 238.2Z" fill="#FEDB8F" stroke="#FEDB8F" stroke-miterlimit="10"/>
<path d="M321.9 255.3C320 255.3 318.3 255 316.7 254.4C315.1 253.8 313.8 252.9 312.6 251.7C311.5 250.6 310.6 249.2 309.9 247.6C309.3 246 309 244.3 309 242.4C309 240.5 309.3 238.8 309.9 237.2C310.5 235.6 311.4 234.3 312.6 233.1C313.7 232 315.1 231.1 316.7 230.4C318.3 229.7 320 229.5 321.9 229.5C323.8 229.5 325.5 229.8 327.1 230.4C328.7 231 330 231.9 331.2 233.1C332.3 234.2 333.2 235.6 333.9 237.2C334.6 238.8 334.8 240.5 334.8 242.4C334.8 243.9 334.6 245.3 334.2 246.4C333.8 247.6 333.2 248.5 332.5 249.2C331.8 249.9 331 250.2 330 250.2C329.2 250.2 328.5 249.9 328 249.4C327.5 248.9 327.2 248.2 327.2 247.4V246.6C326.9 247.1 326.4 247.5 325.9 247.9C325.3 248.3 324.7 248.6 324 248.8C323.3 249 322.6 249.1 321.9 249.1C320.6 249.1 319.4 248.8 318.4 248.2C317.4 247.6 316.6 246.8 316 245.8C315.4 244.8 315.1 243.6 315.1 242.3C315.1 241 315.4 239.8 316 238.8C316.6 237.8 317.4 237 318.4 236.4C319.4 235.8 320.6 235.5 321.9 235.5C323.2 235.5 324.4 235.8 325.4 236.4C326.4 237 327.2 237.8 327.8 238.8C328.4 239.8 328.7 241 328.7 242.3V246.8C328.7 247.4 328.8 247.9 329.1 248.2C329.3 248.5 329.6 248.6 330 248.6C330.6 248.6 331.2 248.3 331.7 247.8C332.2 247.3 332.6 246.5 332.9 245.6C333.2 244.7 333.3 243.6 333.3 242.3C333.3 240.6 333 239.1 332.5 237.7C331.9 236.3 331.2 235.1 330.1 234.1C329.1 233.1 327.9 232.3 326.5 231.7C325.1 231.1 323.6 230.9 321.9 230.9C320.2 230.9 318.7 231.2 317.3 231.7C315.9 232.3 314.7 233 313.7 234.1C312.7 235.1 311.9 236.3 311.4 237.7C310.9 239.1 310.6 240.6 310.6 242.3C310.6 244 310.9 245.5 311.4 246.9C312 248.3 312.7 249.5 313.7 250.5C314.7 251.5 315.9 252.3 317.3 252.8C318.7 253.3 320.2 253.6 321.9 253.6C322.7 253.6 323.5 253.5 324.4 253.3C325.3 253.1 326 252.9 326.6 252.6C326.9 252.4 327.2 252.4 327.4 252.5C327.6 252.6 327.7 252.8 327.7 253.1C327.7 253.4 327.5 253.7 327 254C326.5 254.3 325.8 254.6 324.9 254.8C324 255 323 255.3 321.9 255.3ZM321.9 247.8C322.9 247.8 323.8 247.6 324.6 247.1C325.4 246.6 326 246 326.5 245.2C327 244.4 327.2 243.5 327.2 242.5C327.2 241.5 327 240.5 326.5 239.7C326 238.9 325.4 238.3 324.6 237.8C323.8 237.3 322.9 237.1 321.9 237.1C320.9 237.1 320 237.3 319.2 237.8C318.4 238.3 317.8 238.9 317.3 239.7C316.8 240.5 316.6 241.4 316.6 242.5C316.6 243.5 316.8 244.4 317.3 245.2C317.8 246 318.4 246.6 319.2 247.1C319.9 247.5 320.8 247.8 321.9 247.8Z" fill="#FEDB8F" stroke="#FEDB8F" stroke-miterlimit="10"/>
<path d="M142.7 161C140.8 161 139.1 160.7 137.5 160.1C135.9 159.5 134.6 158.6 133.4 157.4C132.3 156.3 131.4 154.9 130.7 153.3C130.1 151.7 129.8 150 129.8 148.1C129.8 146.2 130.1 144.5 130.7 142.9C131.3 141.3 132.2 140 133.4 138.8C134.5 137.7 135.9 136.8 137.5 136.1C139.1 135.4 140.8 135.2 142.7 135.2C144.6 135.2 146.3 135.5 147.9 136.1C149.5 136.7 150.8 137.6 152 138.8C153.1 139.9 154 141.3 154.7 142.9C155.3 144.5 155.6 146.2 155.6 148.1C155.6 149.6 155.4 151 155 152.1C154.6 153.3 154 154.2 153.3 154.9C152.6 155.6 151.8 155.9 150.8 155.9C150 155.9 149.3 155.6 148.8 155.1C148.3 154.6 148 153.9 148 153.1V152.3C147.7 152.8 147.2 153.2 146.7 153.6C146.1 154 145.5 154.3 144.8 154.5C144.1 154.7 143.4 154.8 142.7 154.8C141.4 154.8 140.2 154.5 139.2 153.9C138.2 153.3 137.4 152.5 136.8 151.5C136.2 150.5 135.9 149.3 135.9 148C135.9 146.7 136.2 145.5 136.8 144.5C137.4 143.5 138.2 142.7 139.2 142.1C140.2 141.5 141.4 141.2 142.7 141.2C144 141.2 145.2 141.5 146.2 142.1C147.2 142.7 148 143.5 148.6 144.5C149.2 145.5 149.5 146.7 149.5 148V152.5C149.5 153.1 149.6 153.6 149.9 153.9C150.1 154.2 150.4 154.3 150.8 154.3C151.4 154.3 152 154 152.5 153.5C153 153 153.4 152.2 153.7 151.3C154 150.4 154.1 149.3 154.1 148C154.1 146.3 153.8 144.8 153.3 143.4C152.7 142 152 140.8 150.9 139.8C149.9 138.8 148.7 138 147.3 137.4C145.9 136.8 144.4 136.6 142.7 136.6C141 136.6 139.5 136.9 138.1 137.4C136.7 138 135.5 138.7 134.5 139.8C133.5 140.8 132.7 142 132.2 143.4C131.7 144.8 131.4 146.3 131.4 148C131.4 149.7 131.7 151.2 132.2 152.6C132.8 154 133.5 155.2 134.5 156.2C135.5 157.2 136.7 158 138.1 158.5C139.5 159 141 159.3 142.7 159.3C143.5 159.3 144.3 159.2 145.2 159C146.1 158.8 146.8 158.6 147.4 158.3C147.7 158.1 148 158.1 148.2 158.2C148.4 158.3 148.5 158.5 148.5 158.8C148.5 159.1 148.3 159.4 147.8 159.7C147.3 160 146.6 160.3 145.7 160.5C144.9 160.9 143.9 161 142.7 161ZM142.7 153.5C143.7 153.5 144.6 153.3 145.4 152.8C146.2 152.3 146.8 151.7 147.3 150.9C147.8 150.1 148 149.2 148 148.2C148 147.2 147.8 146.2 147.3 145.4C146.8 144.6 146.2 144 145.4 143.5C144.6 143 143.7 142.8 142.7 142.8C141.7 142.8 140.8 143 140 143.5C139.2 144 138.6 144.6 138.1 145.4C137.6 146.2 137.4 147.1 137.4 148.2C137.4 149.2 137.6 150.1 138.1 150.9C138.6 151.7 139.2 152.3 140 152.8C140.8 153.3 141.7 153.5 142.7 153.5Z" fill="#FEDB8F" stroke="#FEDB8F" stroke-miterlimit="10"/>
<path d="M369.5 26.2C367.6 26.2 365.9 25.9 364.3 25.3C362.7 24.7 361.4 23.8 360.2 22.6C359.1 21.5 358.2 20.1 357.5 18.5C356.9 16.9 356.6 15.2 356.6 13.3C356.6 11.4 356.9 9.70002 357.5 8.10002C358.1 6.50002 359 5.20002 360.2 4.00002C361.3 2.90002 362.7 2.00002 364.3 1.30002C365.9 0.600024 367.6 0.400024 369.5 0.400024C371.4 0.400024 373.1 0.700024 374.7 1.30002C376.3 1.90002 377.6 2.80002 378.8 4.00002C379.9 5.10002 380.8 6.50002 381.5 8.10002C382.2 9.70002 382.4 11.4 382.4 13.3C382.4 14.8 382.2 16.2 381.8 17.3C381.4 18.5 380.8 19.4 380.1 20.1C379.4 20.8 378.6 21.1 377.6 21.1C376.8 21.1 376.1 20.8 375.6 20.3C375.1 19.8 374.8 19.1 374.8 18.3V17.5C374.5 18 374 18.4 373.5 18.8C372.9 19.2 372.3 19.5 371.6 19.7C370.9 19.9 370.2 20 369.5 20C368.2 20 367 19.7 366 19.1C365 18.5 364.2 17.7 363.6 16.7C363 15.7 362.7 14.5 362.7 13.2C362.7 11.9 363 10.7 363.6 9.70002C364.2 8.70002 365 7.90002 366 7.30002C367 6.70002 368.2 6.40002 369.5 6.40002C370.8 6.40002 372 6.70002 373 7.30002C374 7.90002 374.8 8.70002 375.4 9.70002C376 10.7 376.3 11.9 376.3 13.2V17.7C376.3 18.3 376.4 18.8 376.7 19.1C376.9 19.4 377.2 19.5 377.6 19.5C378.2 19.5 378.8 19.2 379.3 18.7C379.8 18.2 380.2 17.4 380.5 16.5C380.8 15.6 380.9 14.5 380.9 13.2C380.9 11.5 380.6 10 380.1 8.60003C379.5 7.20003 378.8 6.00002 377.7 5.00002C376.7 4.00002 375.5 3.20002 374.1 2.60002C372.7 2.00002 371.2 1.80002 369.5 1.80002C367.8 1.80002 366.3 2.10002 364.9 2.60002C363.5 3.20002 362.3 3.90002 361.3 5.00002C360.3 6.00002 359.5 7.20003 359 8.60003C358.5 10 358.2 11.5 358.2 13.2C358.2 14.9 358.5 16.4 359 17.8C359.6 19.2 360.3 20.4 361.3 21.4C362.3 22.4 363.5 23.2 364.9 23.7C366.3 24.2 367.8 24.5 369.5 24.5C370.3 24.5 371.1 24.4 372 24.2C372.9 24 373.6 23.8 374.2 23.5C374.5 23.3 374.8 23.3 375 23.4C375.2 23.5 375.3 23.7 375.3 24C375.3 24.3 375.1 24.6 374.6 24.9C374.1 25.2 373.4 25.5 372.5 25.7C371.6 25.9 370.6 26.2 369.5 26.2ZM369.5 18.7C370.5 18.7 371.4 18.5 372.2 18C373 17.5 373.6 16.9 374.1 16.1C374.6 15.3 374.8 14.4 374.8 13.4C374.8 12.4 374.6 11.4 374.1 10.6C373.6 9.80002 373 9.20002 372.2 8.70002C371.4 8.20002 370.5 8.00002 369.5 8.00002C368.5 8.00002 367.6 8.20002 366.8 8.70002C366 9.20002 365.4 9.80002 364.9 10.6C364.4 11.4 364.2 12.3 364.2 13.4C364.2 14.4 364.4 15.3 364.9 16.1C365.4 16.9 366 17.5 366.8 18C367.5 18.4 368.4 18.7 369.5 18.7Z" fill="#FEDB8F" stroke="#FEDB8F" stroke-miterlimit="10"/>
<path d="M334.6 130.3H251.4C249.7 130.3 248.2 131.7 248.2 133.5V143.9C248.2 145.6 249.6 147.1 251.4 147.1C253.1 147.1 254.6 145.7 254.6 143.9V136.6H289.9V195.5L286.7 194.2C285.1 193.5 283.2 194.3 282.6 195.9C281.9 197.5 282.7 199.4 284.3 200L291.8 203H291.9C292 203 292.2 203.1 292.3 203.1C292.4 203.1 292.4 203.1 292.5 203.1C292.7 203.1 292.8 203.1 293 203.1C293 203.1 293 203.1 293.1 203.1C293.3 203.1 293.5 203.1 293.6 203H293.7C293.8 203 294 202.9 294.1 202.9H294.2L301.7 199.9C303.3 199.2 304.1 197.4 303.4 195.8C302.7 194.2 300.9 193.4 299.3 194.1L296.1 195.4V136.5H331.4V143.8C331.4 145.5 332.8 147 334.6 147C336.3 147 337.8 145.6 337.8 143.8V133.4C337.8 131.7 336.4 130.3 334.6 130.3Z" fill="#00A6FF"/>
<path d="M497 177.2H418.3C411.7 177.2 406.3 171.8 406.3 165.2V122.2C406.3 115.6 411.7 110.2 418.3 110.2H497C503.6 110.2 509 115.6 509 122.2V165.2C509 171.8 503.6 177.2 497 177.2Z" stroke="white" stroke-width="2" stroke-miterlimit="10" stroke-linecap="round" stroke-linejoin="round"/>
<path d="M465.6 119.4H416.3V168.7H465.6V119.4Z" stroke="white" stroke-width="2" stroke-miterlimit="10" stroke-linecap="round" stroke-linejoin="round"/>
<path d="M465.5 167.5C465.5 153.9 454.5 142.9 440.9 142.9C427.3 142.9 416.3 153.9 416.3 167.5" stroke="white" stroke-width="2" stroke-miterlimit="10" stroke-linecap="round" stroke-linejoin="round"/>
<path d="M440.9 138.4C446.147 138.4 450.4 134.147 450.4 128.9C450.4 123.653 446.147 119.4 440.9 119.4C435.654 119.4 431.4 123.653 431.4 128.9C431.4 134.147 435.654 138.4 440.9 138.4Z" stroke="white" stroke-width="2" stroke-miterlimit="10" stroke-linecap="round" stroke-linejoin="round"/>
<path d="M474.9 168.7H497.5" stroke="white" stroke-width="2" stroke-miterlimit="10" stroke-linecap="round" stroke-linejoin="round"/>
<path d="M474.9 162.8H497.5" stroke="white" stroke-width="2" stroke-miterlimit="10" stroke-linecap="round" stroke-linejoin="round"/>
<path d="M474.9 156.9H497.5" stroke="white" stroke-width="2" stroke-miterlimit="10" stroke-linecap="round" stroke-linejoin="round"/>
<path d="M474.9 150.9H497.5" stroke="white" stroke-width="2" stroke-miterlimit="10" stroke-linecap="round" stroke-linejoin="round"/>
<path d="M474.9 136.5H497.5" stroke="white" stroke-width="2" stroke-miterlimit="10" stroke-linecap="round" stroke-linejoin="round"/>
<path d="M496.5 119.4H475.8C475.3 119.4 474.8 119.8 474.8 120.4V127C474.8 127.6 475.3 128 475.8 128H496.5C497.1 128 497.5 127.6 497.5 127V120.4C497.5 119.9 497.1 119.4 496.5 119.4Z" stroke="white" stroke-width="2" stroke-miterlimit="10" stroke-linecap="round" stroke-linejoin="round"/>
<path d="M182 253.6H103.3C96.6998 253.6 91.2998 248.2 91.2998 241.6V198.6C91.2998 192 96.6998 186.6 103.3 186.6H182C188.6 186.6 194 192 194 198.6V241.6C194 248.2 188.6 253.6 182 253.6Z" stroke="#071146" stroke-width="2" stroke-miterlimit="10" stroke-linecap="round" stroke-linejoin="round"/>
<path d="M150.6 195.8H101.3V245.1H150.6V195.8Z" stroke="#071146" stroke-width="2" stroke-miterlimit="10" stroke-linecap="round" stroke-linejoin="round"/>
<path d="M150.5 243.9C150.5 230.3 139.5 219.3 125.9 219.3C112.3 219.3 101.3 230.3 101.3 243.9" stroke="#071146" stroke-width="2" stroke-miterlimit="10" stroke-linecap="round" stroke-linejoin="round"/>
<path d="M125.899 214.8C131.146 214.8 135.399 210.547 135.399 205.3C135.399 200.053 131.146 195.8 125.899 195.8C120.653 195.8 116.399 200.053 116.399 205.3C116.399 210.547 120.653 214.8 125.899 214.8Z" stroke="#071146" stroke-width="2" stroke-miterlimit="10" stroke-linecap="round" stroke-linejoin="round"/>
<path d="M159.899 245.1H182.499" stroke="#071146" stroke-width="2" stroke-miterlimit="10" stroke-linecap="round" stroke-linejoin="round"/>
<path d="M159.899 239.2H182.499" stroke="#071146" stroke-width="2" stroke-miterlimit="10" stroke-linecap="round" stroke-linejoin="round"/>
<path d="M159.899 233.3H182.499" stroke="#071146" stroke-width="2" stroke-miterlimit="10" stroke-linecap="round" stroke-linejoin="round"/>
<path d="M159.899 227.3H182.499" stroke="#071146" stroke-width="2" stroke-miterlimit="10" stroke-linecap="round" stroke-linejoin="round"/>
<path d="M159.899 212.9H182.499" stroke="#071146" stroke-width="2" stroke-miterlimit="10" stroke-linecap="round" stroke-linejoin="round"/>
<path d="M181.5 195.8H160.8C160.2 195.8 159.8 196.2 159.8 196.8V203.4C159.8 203.9 160.2 204.4 160.8 204.4H181.5C182.1 204.4 182.5 203.9 182.5 203.4V196.8C182.5 196.3 182.1 195.8 181.5 195.8Z" stroke="#071146" stroke-width="2" stroke-miterlimit="10" stroke-linecap="round" stroke-linejoin="round"/>
<path d="M52.7998 170.3L26.2998 169.8C24.2998 169.8 22.7998 168.1 22.7998 166.2L23.1998 147.1C23.1998 145.1 24.8998 143.6 26.7998 143.6L53.2998 144.1C55.2998 144.1 56.7998 145.8 56.7998 147.7L56.3998 166.8C56.3998 168.8 54.6998 170.3 52.7998 170.3Z" fill="white"/>
<path d="M19.7002 148.2L35.3002 157.4C37.1002 158.5 39.3002 158.5 41.2002 157.5L57.1002 148.9" stroke="#071146" stroke-width="2" stroke-miterlimit="10" stroke-linecap="round" stroke-linejoin="round"/>
<path d="M56.7006 164.1L43.6006 156.4" stroke="#071146" stroke-width="2" stroke-miterlimit="10" stroke-linecap="round" stroke-linejoin="round"/>
<path d="M32.8004 156.1L19.4004 163.3" stroke="#071146" stroke-width="2" stroke-miterlimit="10" stroke-linecap="round" stroke-linejoin="round"/>
<path d="M52.6002 170.3L23.1002 169.7C20.9002 169.7 19.2002 167.8 19.2002 165.7L19.6002 144.6C19.6002 142.4 21.5002 140.7 23.6002 140.7L53.1002 141.3C55.3002 141.3 57.0002 143.2 57.0002 145.3L56.6002 166.4C56.6002 168.6 54.8002 170.3 52.6002 170.3Z" stroke="#071146" stroke-width="2" stroke-miterlimit="10" stroke-linecap="round" stroke-linejoin="round"/>
<path d="M47.0934 145.595C51.3534 141.187 51.2331 134.16 46.8248 129.9C42.4165 125.64 35.3894 125.76 31.1294 130.168C26.8694 134.577 26.9897 141.604 31.398 145.864C35.8064 150.124 42.8334 150.004 47.0934 145.595Z" fill="#FEDB8F"/>
<path d="M38.9998 142.4C38.7998 142.4 38.5998 142.3 38.3998 142.1L33.8998 137.4C33.5998 137.1 33.5998 136.5 33.8998 136.2C34.1998 135.9 34.7998 135.9 35.0998 136.2L38.8998 140.2L44.0998 133.7C44.3998 133.3 44.8998 133.3 45.2998 133.6C45.6998 133.9 45.6998 134.4 45.3998 134.8L39.5998 142C39.4998 142.2 39.2998 142.4 38.9998 142.4Z" fill="#B1DEF5"/>
<path d="M413.201 238.3L394.101 256.6C392.701 258 390.401 257.9 389.001 256.5L375.701 242.7C374.301 241.3 374.401 239 375.801 237.6L394.901 219.3C396.301 217.9 398.601 218 400.001 219.4L413.301 233.2C414.601 234.7 414.601 237 413.201 238.3Z" fill="white"/>
<path d="M374.1 246.1L391.6 241.6C393.6 241.1 395.2 239.5 395.8 237.5L401 220.2" stroke="#071146" stroke-width="2" stroke-miterlimit="10" stroke-linecap="round" stroke-linejoin="round"/>
<path d="M411.6 231.2L396.8 235" stroke="#071146" stroke-width="2" stroke-miterlimit="10" stroke-linecap="round" stroke-linejoin="round"/>
<path d="M389 242.5L384.6 257" stroke="#071146" stroke-width="2" stroke-miterlimit="10" stroke-linecap="round" stroke-linejoin="round"/>
<path d="M413.1 238.4L391.8 258.8C390.2 260.3 387.7 260.3 386.2 258.7L371.6 243.5C370.1 241.9 370.1 239.4 371.7 237.9L393 217.5C394.6 216 397.1 216 398.6 217.6L413.2 232.8C414.7 234.4 414.6 236.9 413.1 238.4Z" stroke="#071146" stroke-width="2" stroke-miterlimit="10" stroke-linecap="round" stroke-linejoin="round"/>
<path d="M380.807 236.209C386.937 236.104 391.821 231.05 391.717 224.92C391.612 218.79 386.558 213.906 380.428 214.011C374.298 214.115 369.414 219.17 369.519 225.299C369.623 231.429 374.677 236.313 380.807 236.209Z" fill="#FEDB8F"/>
<path d="M383.7 228.3C383.5 228.4 383.3 228.5 383.1 228.5L376.7 228.3C376.2 228.3 375.8 227.9 375.9 227.4C375.9 226.9 376.3 226.5 376.8 226.6L382.3 226.7L381.4 218.4C381.3 217.9 381.7 217.5 382.2 217.5C382.7 217.4 383.1 217.8 383.1 218.3L384.1 227.5C384 227.8 383.9 228.1 383.7 228.3Z" fill="#B1DEF5"/>
<path d="M536.399 91.4L517.999 72.3C516.599 70.9 516.699 68.6 518.099 67.2L531.899 54C533.299 52.6 535.599 52.7 536.999 54.1L555.299 73.2C556.699 74.6 556.599 76.9 555.199 78.3L541.399 91.6C539.999 92.9 537.699 92.8 536.399 91.4Z" fill="white"/>
<path d="M528.6 52.4L533.1 69.9C533.6 71.9 535.2 73.5 537.2 74.1L554.5 79.3" stroke="#071146" stroke-width="2" stroke-miterlimit="10" stroke-linecap="round" stroke-linejoin="round"/>
<path d="M543.5 89.8L539.7 75.1" stroke="#071146" stroke-width="2" stroke-miterlimit="10" stroke-linecap="round" stroke-linejoin="round"/>
<path d="M532.2 67.3L517.6 62.9" stroke="#071146" stroke-width="2" stroke-miterlimit="10" stroke-linecap="round" stroke-linejoin="round"/>
<path d="M536.3 91.3L515.9 70C514.4 68.4 514.4 65.9 516 64.4L531.2 49.8C532.8 48.3 535.3 48.3 536.8 49.9L557.2 71.2C558.7 72.8 558.7 75.3 557.1 76.8L541.9 91.4C540.3 93 537.8 92.9 536.3 91.3Z" stroke="#071146" stroke-width="2" stroke-miterlimit="10" stroke-linecap="round" stroke-linejoin="round"/>
<path d="M549.814 69.9016C555.944 69.7969 560.828 64.7428 560.723 58.6131C560.619 52.4833 555.565 47.5991 549.435 47.7038C543.305 47.8085 538.421 52.8626 538.526 58.9923C538.63 65.1221 543.684 70.0063 549.814 69.9016Z" fill="#FEDB8F"/>
<path d="M546.399 61.9C546.299 61.7 546.199 61.5 546.199 61.3L546.399 54.9C546.399 54.4 546.799 54 547.299 54.1C547.799 54.1 548.199 54.5 548.099 55L547.999 60.5L556.299 59.6C556.799 59.5 557.199 59.9 557.199 60.4C557.299 60.9 556.899 61.3 556.399 61.3L547.199 62.3C546.799 62.2 546.599 62.1 546.399 61.9C546.399 62 546.399 61.9 546.399 61.9Z" fill="#B1DEF5"/>
<path d="M213.5 89.8H99.1996C92.7996 89.8 87.5996 95 87.5996 101.4C87.5996 107.8 92.7996 113 99.1996 113H213.5C219.9 113 225.1 107.8 225.1 101.4C225 95 219.8 89.8 213.5 89.8Z" stroke="white" stroke-width="2" stroke-miterlimit="10" stroke-linecap="round" stroke-linejoin="round"/>
<path d="M100.899 102.8C104.299 98.9 110.699 98.1 114.999 101C115.999 101.7 116.899 102.7 118.099 103.2C120.399 104.3 123.199 103.8 125.499 102.7C127.799 101.6 129.799 99.9 132.099 98.7C132.999 98.2 134.099 97.7 135.099 97.8C138.099 97.9 139.799 101.3 142.699 102.2C147.299 103.7 151.499 97.9 156.399 98.3C160.299 98.6 163.199 102.7 166.999 102.4C169.399 102.2 171.699 100.2 173.999 100.9C175.199 101.2 176.099 102.2 177.199 102.6C178.799 103.1 180.499 102.3 182.199 101.9C185.299 101.1 188.699 101.7 191.399 103.4" stroke="white" stroke-width="2" stroke-miterlimit="10" stroke-linecap="round" stroke-linejoin="round"/>
</g>
<defs>
<clipPath id="clip0">
<rect width="586" height="272.9" fill="white"/>
</clipPath>
</defs>
</svg>
