<svg width="586" height="273" viewBox="0 0 586 273" fill="none" xmlns="http://www.w3.org/2000/svg">
<g clip-path="url(#clip0)">
<path d="M4.40002 60.7H586V272.9H4.40002C2 272.9 0 270.9 0 268.5V65.1C0 62.6 2 60.7 4.40002 60.7Z" fill="#FEDB8F"/>
<path d="M193.1 142.4H131.4C130.1 142.4 129.1 143.4 129.1 144.7V152.4C129.1 153.7 130.1 154.7 131.4 154.7C132.7 154.7 133.7 153.7 133.7 152.4V147H159.8V190.7L157.4 189.7C156.2 189.2 154.8 189.8 154.4 191C153.9 192.2 154.5 193.6 155.7 194L161.3 196.3C161.3 196.3 161.3 196.3 161.4 196.3C161.5 196.3 161.6 196.4 161.7 196.4H161.8C161.9 196.4 162 196.4 162.2 196.4C162.3 196.4 162.5 196.4 162.6 196.4H162.7C162.8 196.4 162.9 196.3 163 196.3C163 196.3 163 196.3 163.1 196.3L168.7 194C169.9 193.5 170.5 192.2 170 191C169.5 189.8 168.1 189.2 167 189.7L164.6 190.7V147H190.8V152.4C190.8 153.7 191.8 154.7 193.1 154.7C194.4 154.7 195.4 153.7 195.4 152.4V144.7C195.4 143.4 194.4 142.4 193.1 142.4Z" fill="#00A6FF"/>
<path d="M254.9 142.4C251.1 142.4 247.4 143.2 243.9 144.7C243.1 145 242.8 145.9 243.1 146.7C243.4 147.5 244.3 147.8 245.1 147.5C248.2 146.1 251.5 145.4 254.9 145.4C268.2 145.4 278.9 156.2 278.9 169.4C278.9 182.7 268.1 193.4 254.9 193.4C241.6 193.4 230.9 182.6 230.9 169.4C230.9 166.5 231.4 163.7 232.4 161C233.1 159.3 234.7 158.3 236.7 158.1C239.4 157.8 241.7 159.7 242 162.4V177.7C242 178.2 242.2 178.6 242.5 179C242.8 179.3 243.3 179.5 243.8 179.5C244.3 179.5 244.8 179.3 245.1 179C245.4 178.7 245.6 178.2 245.6 177.7V167.8C245.6 166.5 246 165.4 246.8 164.6C247.6 163.8 248.6 163.3 249.8 163.3C251 163.3 251.9 163.7 252.7 164.4C253.4 165.1 253.8 166.2 253.8 167.7V177.8C253.8 178.3 254 178.7 254.3 179.1C254.6 179.4 255.1 179.6 255.6 179.6C256.1 179.6 256.6 179.4 256.9 179.1C257.2 178.8 257.4 178.3 257.4 177.8V167.9C257.4 166.6 257.8 165.5 258.6 164.7C259.4 163.9 260.4 163.4 261.6 163.4C262.8 163.4 263.7 163.8 264.5 164.5C265.2 165.2 265.6 166.3 265.6 167.8V177.9C265.6 178.4 265.8 178.8 266.1 179.2C266.4 179.5 266.9 179.7 267.4 179.7C267.9 179.7 268.4 179.5 268.7 179.2C269 178.9 269.2 178.4 269.2 177.9V167.8C269.2 166.2 268.9 164.8 268.3 163.7C267.7 162.6 266.9 161.7 265.9 161.1C264.9 160.5 263.7 160.2 262.3 160.2C260.8 160.2 259.4 160.5 258.2 161.2C257.4 161.7 256.7 162.3 256.1 163C255.6 162.2 254.9 161.6 254.1 161.1C253.1 160.5 251.9 160.2 250.5 160.2C249.1 160.2 247.9 160.5 246.8 161.2C246.3 161.5 245.9 161.8 245.6 162.2C245.6 162.1 245.6 162 245.5 162C245.5 161.8 245.5 161.7 245.4 161.5C245 159.6 244 157.9 242.4 156.6C240.6 155.2 238.4 154.6 236.2 154.9C233.3 155.2 230.8 157.1 229.6 159.8L229.5 159.9C229.5 160 229.5 160 229.4 160.1C229.4 160.2 229.3 160.2 229.3 160.3V160.4C228.2 163.4 227.6 166.5 227.6 169.7C227.6 184.6 239.8 196.8 254.7 196.8C269.6 196.8 281.8 184.6 281.8 169.7C282 154.5 269.8 142.4 254.9 142.4Z" fill="#0052CC"/>
<path d="M306.8 157.4H332.1" stroke="white" stroke-width="2" stroke-miterlimit="10" stroke-linecap="round" stroke-linejoin="round"/>
<path d="M321.6 148.9L334.8 157.4L321.6 164.5" stroke="white" stroke-width="2" stroke-miterlimit="10" stroke-linecap="round" stroke-linejoin="round"/>
<path d="M334.799 178.7H309.399" stroke="white" stroke-width="2" stroke-miterlimit="10" stroke-linecap="round" stroke-linejoin="round"/>
<path d="M319.9 187.1L306.8 178.7L319.9 171.6" stroke="white" stroke-width="2" stroke-miterlimit="10" stroke-linecap="round" stroke-linejoin="round"/>
<path d="M73.4996 153.7L73.3996 161.2L61.1996 153.7H30.8996C28.5996 153.7 26.5996 151.8 26.5996 149.4V127.8C26.5996 125.5 28.4996 123.5 30.8996 123.5H73.3996C75.6996 123.5 77.6996 125.4 77.6996 127.8V149.4C77.6996 151.7 75.7996 153.7 73.4996 153.7Z" fill="white"/>
<path d="M45.5996 144.4L38.0996 139.9C37.7996 139.7 37.5996 139.5 37.5996 139.1C37.5996 138.8 37.6996 138.6 38.0996 138.4L45.5996 133.9C45.8996 133.8 46.1996 133.8 46.3996 133.9C46.6996 134 46.7996 134.3 46.7996 134.6C46.7996 134.9 46.6996 135.2 46.3996 135.3L39.2996 139.5V138.7L46.3996 142.9C46.6996 143.1 46.7996 143.3 46.7996 143.6C46.7996 143.8 46.6996 144 46.5996 144.2C46.4996 144.3 46.2996 144.4 46.0996 144.5C45.8996 144.6 45.7996 144.6 45.5996 144.4Z" fill="#0052CC"/>
<path d="M49.1996 147.6C48.8996 147.6 48.5996 147.5 48.4996 147.2C48.2996 147 48.2996 146.7 48.4996 146.4L54.5996 131.3C54.6996 131.1 54.6996 131 54.8996 130.9C54.9996 130.8 55.1996 130.8 55.3996 130.8C55.6996 130.8 55.8996 130.9 56.0996 131.2C56.1996 131.4 56.2996 131.7 56.1996 132L50.0996 147.1C49.9996 147.3 49.8996 147.4 49.7996 147.5C49.4996 147.5 49.2996 147.6 49.1996 147.6Z" fill="#0052CC"/>
<path d="M58.7996 144.4C58.5996 144.5 58.3996 144.5 58.2996 144.5C58.0996 144.5 57.8996 144.4 57.7996 144.2C57.6996 144.1 57.5996 143.9 57.5996 143.6C57.5996 143.3 57.6996 143.1 57.9996 142.9L65.0996 138.7V139.5L57.9996 135.3C57.6996 135.1 57.5996 134.9 57.5996 134.6C57.5996 134.3 57.6996 134 57.9996 133.9C58.2996 133.8 58.5996 133.8 58.7996 133.9L66.2996 138.4C66.5996 138.6 66.6996 138.9 66.6996 139.1C66.6996 139.4 66.5996 139.7 66.2996 139.9L58.7996 144.4Z" fill="#0052CC"/>
<path d="M566.9 242.3L566.8 249.8L554.6 242.3H524.3C522 242.3 520 240.4 520 238V216.4C520 214.1 521.9 212.1 524.3 212.1H566.9C569.2 212.1 571.2 214 571.2 216.4V238C571.1 240.4 569.2 242.3 566.9 242.3Z" fill="white"/>
<path d="M539 233.1L531.5 228.6C531.2 228.4 531 228.2 531 227.8C531 227.5 531.1 227.3 531.5 227.1L539 222.6C539.3 222.5 539.6 222.5 539.8 222.6C540.1 222.7 540.2 223 540.2 223.3C540.2 223.6 540.1 223.9 539.8 224L532.7 228.2V227.4L539.8 231.6C540.1 231.8 540.2 232 540.2 232.3C540.2 232.5 540.1 232.7 540 232.9C539.9 233 539.7 233.1 539.5 233.2C539.3 233.3 539.2 233.2 539 233.1Z" fill="#0052CC"/>
<path d="M542.6 236.2C542.3 236.2 542 236.1 541.9 235.8C541.7 235.6 541.7 235.3 541.9 235L548 219.9C548.1 219.7 548.1 219.6 548.3 219.5C548.4 219.4 548.6 219.4 548.8 219.4C549.1 219.4 549.3 219.5 549.5 219.8C549.6 220 549.7 220.3 549.6 220.6L543.5 235.7C543.4 235.9 543.3 236 543.2 236.1C542.9 236.2 542.7 236.2 542.6 236.2Z" fill="#0052CC"/>
<path d="M552.2 233.1C552 233.2 551.8 233.2 551.7 233.2C551.5 233.2 551.3 233.1 551.2 232.9C551.1 232.8 551 232.6 551 232.3C551 232 551.1 231.8 551.4 231.6L558.5 227.4V228.2L551.4 224C551.1 223.8 551 223.6 551 223.3C551 223 551.1 222.7 551.4 222.6C551.7 222.5 552 222.5 552.2 222.6L559.7 227.1C560 227.3 560.1 227.6 560.1 227.8C560.1 228.1 560 228.4 559.7 228.6L552.2 233.1Z" fill="#0052CC"/>
<path d="M370.4 106.4L370.3 113.9L358.1 106.4H327.8C325.5 106.4 323.5 104.5 323.5 102.1V80.6C323.5 78.3 325.4 76.3 327.8 76.3H370.3C372.6 76.3 374.6 78.2 374.6 80.6V102.2C374.7 104.5 372.7 106.4 370.4 106.4Z" fill="white"/>
<path d="M342.5 97.2L335 92.7C334.7 92.5 334.5 92.3 334.5 91.9C334.5 91.6 334.6 91.4 335 91.2L342.5 86.7C342.8 86.6 343.1 86.6 343.3 86.7C343.6 86.8 343.7 87.1 343.7 87.4C343.7 87.7 343.6 88 343.3 88.1L336.2 92.3V91.5L343.3 95.7C343.6 95.9 343.7 96.1 343.7 96.4C343.7 96.6 343.6 96.8 343.5 97C343.4 97.1 343.2 97.2 343 97.3C342.9 97.4 342.7 97.3 342.5 97.2Z" fill="#0052CC"/>
<path d="M346.1 100.3C345.8 100.3 345.5 100.2 345.4 99.9C345.2 99.7 345.2 99.4 345.4 99.1L351.5 84C351.6 83.8 351.6 83.7 351.8 83.6C351.9 83.5 352.1 83.5 352.3 83.5C352.6 83.5 352.8 83.6 353 83.9C353.1 84.1 353.2 84.4 353.1 84.7L347 99.8C346.9 100 346.8 100.1 346.7 100.2C346.4 100.3 346.3 100.3 346.1 100.3Z" fill="#0052CC"/>
<path d="M355.7 97.2C355.5 97.3 355.3 97.3 355.2 97.3C355 97.3 354.8 97.2 354.7 97C354.6 96.9 354.5 96.7 354.5 96.4C354.5 96.1 354.6 95.9 354.9 95.7L362 91.5V92.3L354.9 88.1C354.6 87.9 354.5 87.7 354.5 87.4C354.5 87.1 354.6 86.8 354.9 86.7C355.2 86.6 355.5 86.6 355.7 86.7L363.2 91.2C363.5 91.4 363.6 91.7 363.6 91.9C363.6 92.2 363.5 92.5 363.2 92.7L355.7 97.2Z" fill="#0052CC"/>
<path d="M93.2995 197.5L69.5995 204.6C67.7995 205.1 65.9995 204.1 65.4995 202.4L60.3995 185.3C59.8995 183.5 60.8995 181.7 62.5995 181.2L86.2995 174.1C88.0995 173.6 89.8995 174.6 90.3995 176.3L95.4995 193.4C96.0995 195.1 95.0995 197 93.2995 197.5Z" fill="white"/>
<path d="M57.5996 187.3L73.9996 191C75.8996 191.4 77.8996 190.8 79.1996 189.4L90.9996 177.3" stroke="#071146" stroke-width="2" stroke-miterlimit="10" stroke-linecap="round" stroke-linejoin="round"/>
<path d="M94.9992 190.9L81.1992 187.7" stroke="#071146" stroke-width="2" stroke-miterlimit="10" stroke-linecap="round" stroke-linejoin="round"/>
<path d="M71.4996 190.6L61.5996 200.9" stroke="#071146" stroke-width="2" stroke-miterlimit="10" stroke-linecap="round" stroke-linejoin="round"/>
<path d="M93.1996 197.5L66.8997 205.4C64.9997 206 62.8997 204.9 62.2997 202.9L56.6997 184.1C56.0997 182.2 57.1997 180.1 59.1997 179.5L85.4997 171.6C87.3997 171 89.4997 172.1 90.0997 174.1L95.6996 192.9C96.1996 194.9 95.0996 197 93.1996 197.5Z" stroke="#071146" stroke-width="2" stroke-miterlimit="10" stroke-linecap="round" stroke-linejoin="round"/>
<path d="M179.4 69.6L155.7 76.7C153.9 77.2 152.1 76.2 151.6 74.5L146.5 57.4C146 55.6 147 53.8 148.7 53.3L172.4 46.2C174.2 45.7 176 46.7 176.5 48.4L181.6 65.5C182.2 67.2 181.2 69.1 179.4 69.6Z" fill="white"/>
<path d="M143.7 59.4L160.1 63.1C162 63.5 164 62.9 165.3 61.5L177 49.4" stroke="#071146" stroke-width="2" stroke-miterlimit="10" stroke-linecap="round" stroke-linejoin="round"/>
<path d="M181.1 63L167.3 59.9" stroke="#071146" stroke-width="2" stroke-miterlimit="10" stroke-linecap="round" stroke-linejoin="round"/>
<path d="M157.6 62.8L147.7 73" stroke="#071146" stroke-width="2" stroke-miterlimit="10" stroke-linecap="round" stroke-linejoin="round"/>
<path d="M179.3 69.7L153 77.6C151.1 78.2 149 77.1 148.4 75.1L142.8 56.3C142.2 54.4 143.3 52.3 145.3 51.7L171.6 43.8C173.5 43.2 175.6 44.3 176.2 46.3L181.8 65.1C182.3 67 181.2 69.1 179.3 69.7Z" stroke="#071146" stroke-width="2" stroke-miterlimit="10" stroke-linecap="round" stroke-linejoin="round"/>
<path d="M272.7 37.9L250.6 26.8C249 26 248.3 24 249.1 22.3L257.1 6.39997C257.9 4.79997 259.9 4.09997 261.6 4.89997L283.7 16C285.3 16.8 286 18.8 285.2 20.5L277.2 36.4C276.3 38.1 274.3 38.8 272.7 37.9Z" fill="white"/>
<path d="M253.7 6L263.1 20C264.2 21.6 266 22.6 268 22.5L284.8 21.7" stroke="#071146" stroke-width="2" stroke-miterlimit="10" stroke-linecap="round" stroke-linejoin="round"/>
<path d="M278.501 34.3L270.601 22.5" stroke="#071146" stroke-width="2" stroke-miterlimit="10" stroke-linecap="round" stroke-linejoin="round"/>
<path d="M261.6 18L247.4 18.6" stroke="#071146" stroke-width="2" stroke-miterlimit="10" stroke-linecap="round" stroke-linejoin="round"/>
<path d="M272.6 37.9L248 25.5C246.2 24.6 245.5 22.4 246.4 20.5L255.2 2.99998C256.1 1.19998 258.3 0.499978 260.2 1.39998L284.7 13.8C286.5 14.7 287.2 16.9 286.3 18.8L277.5 36.3C276.6 38.1 274.4 38.8 272.6 37.9Z" stroke="#071146" stroke-width="2" stroke-miterlimit="10" stroke-linecap="round" stroke-linejoin="round"/>
<path d="M289.5 255C291.985 255 294 252.985 294 250.5C294 248.015 291.985 246 289.5 246C287.015 246 285 248.015 285 250.5C285 252.985 287.015 255 289.5 255Z" stroke="#0052CC" stroke-width="2" stroke-miterlimit="10"/>
<path d="M128.5 240C130.985 240 133 237.985 133 235.5C133 233.015 130.985 231 128.5 231C126.015 231 124 233.015 124 235.5C124 237.985 126.015 240 128.5 240Z" stroke="#0052CC" stroke-width="2" stroke-miterlimit="10"/>
<path d="M223.5 92C225.985 92 228 89.9853 228 87.5C228 85.0147 225.985 83 223.5 83C221.015 83 219 85.0147 219 87.5C219 89.9853 221.015 92 223.5 92Z" stroke="#0052CC" stroke-width="2" stroke-miterlimit="10"/>
<path d="M71.2002 28.6C73.6855 28.6 75.7002 26.5853 75.7002 24.1C75.7002 21.6147 73.6855 19.6 71.2002 19.6C68.7149 19.6 66.7002 21.6147 66.7002 24.1C66.7002 26.5853 68.7149 28.6 71.2002 28.6Z" stroke="#0052CC" stroke-width="2" stroke-miterlimit="10"/>
<path d="M458.5 204.3H363.6C360.7 204.3 358.4 201.9 358.4 199.1V132C358.4 129.1 360.8 126.8 363.6 126.8H458.5C461.4 126.8 463.7 129.2 463.7 132V199.1C463.7 202 461.3 204.3 458.5 204.3Z" stroke="#071146" stroke-width="2" stroke-miterlimit="10" stroke-linecap="round" stroke-linejoin="round"/>
<path d="M468.8 212.2H354.8C351.7 212.2 349.2 209.7 349.2 206.6C349.2 205.4 350.2 204.4 351.4 204.4H472.3C473.5 204.4 474.5 205.4 474.5 206.6C474.4 209.6 471.9 212.2 468.8 212.2Z" stroke="#071146" stroke-width="2" stroke-miterlimit="10" stroke-linecap="round" stroke-linejoin="round"/>
<path d="M458.4 131.8H363.8V198.6H458.4V131.8Z" fill="white"/>
<path d="M458.4 131.8H363.8V198.6H458.4V131.8Z" stroke="#071146" stroke-width="2" stroke-miterlimit="10" stroke-linecap="round" stroke-linejoin="round"/>
<path d="M363.8 138.2H458.5" stroke="#071146" stroke-width="2" stroke-miterlimit="10" stroke-linecap="round" stroke-linejoin="round"/>
<path d="M445.599 188.5H418.799C417.899 188.5 417.199 187.8 417.199 186.9V179.2C417.199 178.3 417.899 177.6 418.799 177.6H445.599C446.499 177.6 447.199 178.3 447.199 179.2V186.9C447.199 187.8 446.499 188.5 445.599 188.5Z" stroke="#071146" stroke-width="2" stroke-miterlimit="10" stroke-linecap="round" stroke-linejoin="round"/>
<path d="M376.4 152H445.8" stroke="#071146" stroke-width="2" stroke-miterlimit="10" stroke-linecap="round" stroke-linejoin="round"/>
<path d="M376.4 164H445.8" stroke="#071146" stroke-width="2" stroke-miterlimit="10" stroke-linecap="round" stroke-linejoin="round"/>
<path d="M376.4 177.6H405.9" stroke="#071146" stroke-width="2" stroke-miterlimit="10" stroke-linecap="round" stroke-linejoin="round"/>
<path d="M376.4 188.5H405.9" stroke="#071146" stroke-width="2" stroke-miterlimit="10" stroke-linecap="round" stroke-linejoin="round"/>
<path d="M198.2 173.9H215.4" stroke="white" stroke-width="2" stroke-miterlimit="10" stroke-linecap="round" stroke-linejoin="round"/>
<path d="M206.8 165.3V182.4" stroke="white" stroke-width="2" stroke-miterlimit="10" stroke-linecap="round" stroke-linejoin="round"/>
<path d="M529.8 125.9C531.2 125.9 532.6 126.1 534 126.4C534.6 126.5 535 127 535.1 127.6L535.4 130.5C535.5 131.8 536.7 132.9 538 132.9C538.4 132.9 538.7 132.8 539.1 132.7L541.8 131.5C542.4 131.3 543 131.4 543.4 131.8C545.3 133.9 546.8 136.3 547.6 139.1C547.8 139.7 547.6 140.3 547.1 140.7L544.7 142.4C544 142.9 543.6 143.7 543.6 144.5C543.6 145.3 544 146.1 544.7 146.6L547.1 148.4C547.6 148.8 547.8 149.4 547.6 150C546.8 152.7 545.3 155.2 543.4 157.3C543 157.7 542.3 157.9 541.8 157.6L539.1 156.4C538.3 156.1 537.4 156.1 536.7 156.5C536 156.9 535.5 157.7 535.4 158.5L535.1 161.4C535 162 534.6 162.5 534 162.6C531.2 163.3 528.3 163.3 525.6 162.6C525 162.5 524.6 162 524.5 161.4L524.2 158.5C524.1 157.7 523.6 156.9 522.9 156.5C522.2 156.1 521.3 156 520.5 156.4L517.8 157.6C517.2 157.8 516.6 157.7 516.2 157.3C514.3 155.2 512.8 152.7 512 150C511.8 149.4 512 148.8 512.5 148.4L514.9 146.6C515.6 146.1 516 145.3 516 144.5C516 143.7 515.6 142.9 514.9 142.4L512.5 140.7C512 140.3 511.8 139.7 512 139.1C512.8 136.4 514.3 133.9 516.2 131.8C516.6 131.4 517.3 131.2 517.8 131.5L520.5 132.7C521.3 133 522.2 133 522.9 132.6C523.6 132.2 524.1 131.4 524.2 130.6L524.5 127.7C524.6 127.1 525 126.6 525.6 126.5C526.9 126.1 528.3 125.9 529.8 125.9ZM529.8 128.8C528.9 128.8 528.1 128.9 527.2 129L527 130.9C526.8 132.6 525.8 134.2 524.3 135.1C522.8 136 520.9 136.1 519.3 135.4L517.6 134.6C516.5 135.9 515.6 137.4 515 139L516.5 140.1C517.9 141.1 518.7 142.8 518.7 144.5C518.7 146.2 517.9 147.9 516.5 148.9L515 150C515.6 151.6 516.5 153.1 517.6 154.4L519.3 153.6C520.9 152.9 522.7 153 524.3 153.9C525.8 154.8 526.8 156.3 527 158.1L527.2 160C528.9 160.3 530.6 160.3 532.3 160L532.5 158.1C532.7 156.4 533.7 154.8 535.2 153.9C536.7 153 538.6 152.9 540.2 153.6L541.9 154.4C543 153.1 543.9 151.6 544.5 150L543 149C541.6 148 540.8 146.3 540.8 144.6C540.8 142.9 541.6 141.2 543 140.2L544.5 139.1C543.9 137.5 543 136 541.9 134.7L540.2 135.5C539.5 135.8 538.7 136 538 136C535.2 136 532.8 133.9 532.5 131.1L532.3 129.2C531.5 128.9 530.6 128.8 529.8 128.8ZM529.7 137.4C533.7 137.4 536.9 140.6 536.9 144.6C536.9 148.6 533.7 151.8 529.7 151.8C525.7 151.8 522.5 148.6 522.5 144.6C522.6 140.6 525.8 137.4 529.7 137.4ZM529.7 140.3C527.3 140.3 525.4 142.2 525.4 144.6C525.4 147 527.3 148.9 529.7 148.9C532.1 148.9 534 147 534 144.6C534 142.2 532.1 140.3 529.7 140.3Z" fill="white"/>
<path d="M107 80C107.94 80 108.88 80.1343 109.819 80.3358C110.222 80.403 110.491 80.7387 110.558 81.1417L110.759 83.0893C110.826 83.9624 111.632 84.7011 112.504 84.7011C112.773 84.7011 112.974 84.634 113.243 84.5668L115.055 83.7609C115.458 83.6266 115.861 83.6938 116.129 83.9624C117.405 85.3727 118.412 86.9846 118.949 88.865C119.083 89.268 118.949 89.6709 118.613 89.9396L117.002 91.0813C116.532 91.4171 116.263 91.9543 116.263 92.4916C116.263 93.0289 116.532 93.5662 117.002 93.9019L118.613 95.1108C118.949 95.3794 119.083 95.7824 118.949 96.1854C118.412 97.9987 117.405 99.6776 116.129 101.088C115.861 101.357 115.391 101.491 115.055 101.289L113.243 100.484C112.706 100.282 112.102 100.282 111.632 100.551C111.162 100.819 110.826 101.357 110.759 101.894L110.558 103.841C110.491 104.244 110.222 104.58 109.819 104.647C107.94 105.118 105.993 105.118 104.181 104.647C103.778 104.58 103.509 104.244 103.442 103.841L103.241 101.894C103.174 101.357 102.838 100.819 102.368 100.551C101.898 100.282 101.294 100.215 100.757 100.484L98.9448 101.289C98.542 101.424 98.1393 101.357 97.8708 101.088C96.5954 99.6776 95.5885 97.9987 95.0514 96.1854C94.9172 95.7824 95.0514 95.3794 95.3871 95.1108L96.9981 93.9019C97.468 93.5662 97.7365 93.0289 97.7365 92.4916C97.7365 91.9543 97.468 91.4171 96.9981 91.0813L95.3871 89.9396C95.0514 89.6709 94.9172 89.268 95.0514 88.865C95.5885 87.0517 96.5954 85.3727 97.8708 83.9624C98.1393 83.6938 98.6092 83.5594 98.9448 83.7609L100.757 84.5668C101.294 84.7683 101.898 84.7683 102.368 84.4997C102.838 84.231 103.174 83.6938 103.241 83.1565L103.442 81.2089C103.509 80.8059 103.778 80.4701 104.181 80.403C105.053 80.1343 105.993 80 107 80ZM107 81.9476C106.396 81.9476 105.859 82.0148 105.255 82.0819L105.12 83.358C104.986 84.4997 104.315 85.5742 103.308 86.1786C102.301 86.7831 101.026 86.8502 99.9517 86.3801L98.8105 85.8428C98.0721 86.7159 97.468 87.7233 97.0652 88.7978L98.0722 89.5366C99.0119 90.2082 99.5489 91.3499 99.5489 92.4916C99.5489 93.6333 99.0119 94.775 98.0722 95.4466L97.0652 96.1854C97.468 97.2599 98.0721 98.2673 98.8105 99.1404L99.9517 98.6031C101.026 98.133 102.234 98.2001 103.308 98.8046C104.315 99.409 104.986 100.416 105.12 101.625L105.255 102.901C106.396 103.103 107.537 103.103 108.678 102.901L108.812 101.625C108.947 100.484 109.618 99.409 110.625 98.8046C111.632 98.2001 112.907 98.133 113.981 98.6031L115.122 99.1404C115.861 98.2673 116.465 97.2599 116.868 96.1854L115.861 95.5138C114.921 94.8422 114.384 93.7005 114.384 92.5588C114.384 91.4171 114.921 90.2753 115.861 89.6038L116.868 88.865C116.465 87.7905 115.861 86.7831 115.122 85.91L113.981 86.4473C113.511 86.6488 112.974 86.7831 112.504 86.7831C110.625 86.7831 109.014 85.3727 108.812 83.4923L108.678 82.2162C108.141 82.0148 107.537 81.9476 107 81.9476ZM106.933 87.7233C109.618 87.7233 111.766 89.8724 111.766 92.5588C111.766 95.2451 109.618 97.3942 106.933 97.3942C104.248 97.3942 102.1 95.2451 102.1 92.5588C102.167 89.8724 104.315 87.7233 106.933 87.7233ZM106.933 89.6709C105.322 89.6709 104.046 90.9469 104.046 92.5588C104.046 94.1706 105.322 95.4466 106.933 95.4466C108.544 95.4466 109.819 94.1706 109.819 92.5588C109.819 90.9469 108.544 89.6709 106.933 89.6709Z" fill="white"/>
<path d="M215 219C215.94 219 216.88 219.134 217.819 219.336C218.222 219.403 218.491 219.739 218.558 220.142L218.759 222.089C218.826 222.962 219.632 223.701 220.504 223.701C220.773 223.701 220.974 223.634 221.243 223.567L223.055 222.761C223.458 222.627 223.861 222.694 224.129 222.962C225.405 224.373 226.412 225.985 226.949 227.865C227.083 228.268 226.949 228.671 226.613 228.94L225.002 230.081C224.532 230.417 224.263 230.954 224.263 231.492C224.263 232.029 224.532 232.566 225.002 232.902L226.613 234.111C226.949 234.379 227.083 234.782 226.949 235.185C226.412 236.999 225.405 238.678 224.129 240.088C223.861 240.357 223.391 240.491 223.055 240.289L221.243 239.484C220.706 239.282 220.102 239.282 219.632 239.551C219.162 239.819 218.826 240.357 218.759 240.894L218.558 242.841C218.491 243.244 218.222 243.58 217.819 243.647C215.94 244.118 213.993 244.118 212.181 243.647C211.778 243.58 211.509 243.244 211.442 242.841L211.241 240.894C211.174 240.357 210.838 239.819 210.368 239.551C209.898 239.282 209.294 239.215 208.757 239.484L206.945 240.289C206.542 240.424 206.139 240.357 205.871 240.088C204.595 238.678 203.588 236.999 203.051 235.185C202.917 234.782 203.051 234.379 203.387 234.111L204.998 232.902C205.468 232.566 205.737 232.029 205.737 231.492C205.737 230.954 205.468 230.417 204.998 230.081L203.387 228.94C203.051 228.671 202.917 228.268 203.051 227.865C203.588 226.052 204.595 224.373 205.871 222.962C206.139 222.694 206.609 222.559 206.945 222.761L208.757 223.567C209.294 223.768 209.898 223.768 210.368 223.5C210.838 223.231 211.174 222.694 211.241 222.156L211.442 220.209C211.509 219.806 211.778 219.47 212.181 219.403C213.053 219.134 213.993 219 215 219ZM215 220.948C214.396 220.948 213.859 221.015 213.255 221.082L213.12 222.358C212.986 223.5 212.315 224.574 211.308 225.179C210.301 225.783 209.026 225.85 207.952 225.38L206.811 224.843C206.072 225.716 205.468 226.723 205.065 227.798L206.072 228.537C207.012 229.208 207.549 230.35 207.549 231.492C207.549 232.633 207.012 233.775 206.072 234.447L205.065 235.185C205.468 236.26 206.072 237.267 206.811 238.14L207.952 237.603C209.026 237.133 210.234 237.2 211.308 237.805C212.315 238.409 212.986 239.416 213.12 240.625L213.255 241.901C214.396 242.103 215.537 242.103 216.678 241.901L216.812 240.625C216.947 239.484 217.618 238.409 218.625 237.805C219.632 237.2 220.907 237.133 221.981 237.603L223.122 238.14C223.861 237.267 224.465 236.26 224.868 235.185L223.861 234.514C222.921 233.842 222.384 232.7 222.384 231.559C222.384 230.417 222.921 229.275 223.861 228.604L224.868 227.865C224.465 226.79 223.861 225.783 223.122 224.91L221.981 225.447C221.511 225.649 220.974 225.783 220.504 225.783C218.625 225.783 217.014 224.373 216.812 222.492L216.678 221.216C216.141 221.015 215.537 220.948 215 220.948ZM214.933 226.723C217.618 226.723 219.766 228.872 219.766 231.559C219.766 234.245 217.618 236.394 214.933 236.394C212.248 236.394 210.1 234.245 210.1 231.559C210.167 228.872 212.315 226.723 214.933 226.723ZM214.933 228.671C213.322 228.671 212.046 229.947 212.046 231.559C212.046 233.171 213.322 234.447 214.933 234.447C216.544 234.447 217.819 233.171 217.819 231.559C217.819 229.947 216.544 228.671 214.933 228.671Z" fill="white"/>
<path d="M286 95C286.94 95 287.88 95.1343 288.819 95.3358C289.222 95.403 289.491 95.7387 289.558 96.1417L289.759 98.0893C289.826 98.9624 290.632 99.7011 291.504 99.7011C291.773 99.7011 291.974 99.634 292.243 99.5668L294.055 98.7609C294.458 98.6266 294.861 98.6938 295.129 98.9624C296.405 100.373 297.412 101.985 297.949 103.865C298.083 104.268 297.949 104.671 297.613 104.94L296.002 106.081C295.532 106.417 295.263 106.954 295.263 107.492C295.263 108.029 295.532 108.566 296.002 108.902L297.613 110.111C297.949 110.379 298.083 110.782 297.949 111.185C297.412 112.999 296.405 114.678 295.129 116.088C294.861 116.357 294.391 116.491 294.055 116.289L292.243 115.484C291.706 115.282 291.102 115.282 290.632 115.551C290.162 115.819 289.826 116.357 289.759 116.894L289.558 118.841C289.491 119.244 289.222 119.58 288.819 119.647C286.94 120.118 284.993 120.118 283.181 119.647C282.778 119.58 282.509 119.244 282.442 118.841L282.241 116.894C282.174 116.357 281.838 115.819 281.368 115.551C280.898 115.282 280.294 115.215 279.757 115.484L277.945 116.289C277.542 116.424 277.139 116.357 276.871 116.088C275.595 114.678 274.588 112.999 274.051 111.185C273.917 110.782 274.051 110.379 274.387 110.111L275.998 108.902C276.468 108.566 276.737 108.029 276.737 107.492C276.737 106.954 276.468 106.417 275.998 106.081L274.387 104.94C274.051 104.671 273.917 104.268 274.051 103.865C274.588 102.052 275.595 100.373 276.871 98.9624C277.139 98.6938 277.609 98.5594 277.945 98.7609L279.757 99.5668C280.294 99.7683 280.898 99.7683 281.368 99.4997C281.838 99.231 282.174 98.6938 282.241 98.1565L282.442 96.2089C282.509 95.8059 282.778 95.4701 283.181 95.403C284.053 95.1343 284.993 95 286 95ZM286 96.9476C285.396 96.9476 284.859 97.0148 284.255 97.0819L284.12 98.358C283.986 99.4997 283.315 100.574 282.308 101.179C281.301 101.783 280.026 101.85 278.952 101.38L277.811 100.843C277.072 101.716 276.468 102.723 276.065 103.798L277.072 104.537C278.012 105.208 278.549 106.35 278.549 107.492C278.549 108.633 278.012 109.775 277.072 110.447L276.065 111.185C276.468 112.26 277.072 113.267 277.811 114.14L278.952 113.603C280.026 113.133 281.234 113.2 282.308 113.805C283.315 114.409 283.986 115.416 284.12 116.625L284.255 117.901C285.396 118.103 286.537 118.103 287.678 117.901L287.812 116.625C287.947 115.484 288.618 114.409 289.625 113.805C290.632 113.2 291.907 113.133 292.981 113.603L294.122 114.14C294.861 113.267 295.465 112.26 295.868 111.185L294.861 110.514C293.921 109.842 293.384 108.7 293.384 107.559C293.384 106.417 293.921 105.275 294.861 104.604L295.868 103.865C295.465 102.79 294.861 101.783 294.122 100.91L292.981 101.447C292.511 101.649 291.974 101.783 291.504 101.783C289.625 101.783 288.014 100.373 287.812 98.4923L287.678 97.2162C287.141 97.0148 286.537 96.9476 286 96.9476ZM285.933 102.723C288.618 102.723 290.766 104.872 290.766 107.559C290.766 110.245 288.618 112.394 285.933 112.394C283.248 112.394 281.1 110.245 281.1 107.559C281.167 104.872 283.315 102.723 285.933 102.723ZM285.933 104.671C284.322 104.671 283.046 105.947 283.046 107.559C283.046 109.171 284.322 110.447 285.933 110.447C287.544 110.447 288.819 109.171 288.819 107.559C288.819 105.947 287.544 104.671 285.933 104.671Z" fill="white"/>
<path d="M474.5 41.2C475.9 41.2 477.3 41.4 478.7 41.7C479.3 41.8 479.7 42.3 479.8 42.9L480.1 45.8C480.2 47.1 481.4 48.2 482.7 48.2C483.1 48.2 483.4 48.1 483.8 48L486.5 46.8C487.1 46.6 487.7 46.7 488.1 47.1C490 49.2 491.5 51.6 492.3 54.4C492.5 55 492.3 55.6 491.8 56L489.4 57.7C488.7 58.2 488.3 59 488.3 59.8C488.3 60.6 488.7 61.4 489.4 61.9L491.8 63.7C492.3 64.1 492.5 64.7 492.3 65.3C491.5 68 490 70.5 488.1 72.6C487.7 73 487 73.2 486.5 72.9L483.8 71.7C483 71.4 482.1 71.4 481.4 71.8C480.7 72.2 480.2 73 480.1 73.8L479.8 76.7C479.7 77.3 479.3 77.8 478.7 77.9C475.9 78.6 473 78.6 470.3 77.9C469.7 77.8 469.3 77.3 469.2 76.7L468.9 73.8C468.8 73 468.3 72.2 467.6 71.8C466.9 71.4 466 71.3 465.2 71.7L462.5 72.9C461.9 73.1 461.3 73 460.9 72.6C459 70.5 457.5 68 456.7 65.3C456.5 64.7 456.7 64.1 457.2 63.7L459.6 61.9C460.3 61.4 460.7 60.6 460.7 59.8C460.7 59 460.3 58.2 459.6 57.7L457.2 56C456.7 55.6 456.5 55 456.7 54.4C457.5 51.7 459 49.2 460.9 47.1C461.3 46.7 462 46.5 462.5 46.8L465.2 48C466 48.3 466.9 48.3 467.6 47.9C468.3 47.5 468.8 46.7 468.9 45.9L469.2 43C469.3 42.4 469.7 41.9 470.3 41.8C471.6 41.4 473 41.2 474.5 41.2ZM474.5 44.1C473.6 44.1 472.8 44.2 471.9 44.3L471.7 46.2C471.5 47.9 470.5 49.5 469 50.4C467.5 51.3 465.6 51.4 464 50.7L462.3 49.9C461.2 51.2 460.3 52.7 459.7 54.3L461.2 55.4C462.6 56.4 463.4 58.1 463.4 59.8C463.4 61.6 462.6 63.2 461.2 64.2L459.7 65.3C460.3 66.9 461.2 68.4 462.3 69.7L464 68.9C465.6 68.2 467.4 68.3 469 69.2C470.5 70.1 471.5 71.6 471.7 73.4L471.9 75.3C473.6 75.6 475.3 75.6 477 75.3L477.2 73.4C477.4 71.7 478.4 70.1 479.9 69.2C481.4 68.3 483.3 68.2 484.9 68.9L486.6 69.7C487.7 68.4 488.6 66.9 489.2 65.3L487.7 64.2C486.3 63.2 485.5 61.5 485.5 59.8C485.5 58.1 486.3 56.4 487.7 55.4L489.2 54.3C488.6 52.7 487.7 51.2 486.6 49.9L484.9 50.7C484.2 51 483.4 51.2 482.7 51.2C479.9 51.2 477.5 49.1 477.2 46.3L477 44.4C476.2 44.2 475.3 44.1 474.5 44.1ZM474.4 52.7C478.4 52.7 481.6 55.9 481.6 59.9C481.6 63.9 478.4 67.1 474.4 67.1C470.4 67.1 467.2 63.9 467.2 59.9C467.3 55.9 470.5 52.7 474.4 52.7ZM474.4 55.6C472 55.6 470.1 57.5 470.1 59.9C470.1 62.3 472 64.2 474.4 64.2C476.8 64.2 478.7 62.3 478.7 59.9C478.7 57.5 476.8 55.6 474.4 55.6Z" fill="#0052CC"/>
</g>
<defs>
<clipPath id="clip0">
<rect width="586" height="272.8" fill="white"/>
</clipPath>
</defs>
</svg>
