<svg width="109" height="95" viewBox="0 0 109 95" fill="none" xmlns="http://www.w3.org/2000/svg">
<path d="M62.4595 93.88C88.1076 93.88 108.9 73.0881 108.9 47.44C108.9 21.7919 88.1076 1 62.4595 1C36.8114 1 16.0195 21.7919 16.0195 47.44C16.0195 73.0881 36.8114 93.88 62.4595 93.88Z" fill="white"/>
<path d="M56.8101 93.91C82.4582 93.91 103.25 73.1181 103.25 47.47C103.25 21.8219 82.4582 1.03003 56.8101 1.03003C31.162 1.03003 10.3701 21.8219 10.3701 47.47C10.3701 73.1181 31.162 93.91 56.8101 93.91Z" stroke="#071146" stroke-width="2" stroke-linecap="round" stroke-linejoin="round"/>
<path d="M56.8104 93.9C35.8104 85.62 30.4404 62.98 30.4404 47.46C30.4404 29.33 37.0004 8.26003 56.8104 1.03003" stroke="#071146" stroke-width="2" stroke-linecap="round" stroke-linejoin="round"/>
<path d="M57.6599 1.03003C78.6799 9.31003 83.9999 31.95 83.9999 47.47C83.9999 65.6 77.3999 86.67 57.6299 93.91" stroke="#071146" stroke-width="2" stroke-linecap="round" stroke-linejoin="round"/>
<path d="M56.8096 1.03003L56.8096 23.5" stroke="#071146" stroke-width="2" stroke-linecap="round" stroke-linejoin="round"/>
<path d="M10.3701 47.47H37.5" stroke="#071146" stroke-width="2" stroke-linecap="round" stroke-linejoin="round"/>
<path d="M76 47.47H103.13" stroke="#071146" stroke-width="2" stroke-linecap="round" stroke-linejoin="round"/>
<path d="M19.9402 6.25997L31.2402 26.09C31.3835 26.3452 31.4484 26.6371 31.4269 26.929C31.4054 27.221 31.2983 27.5001 31.1191 27.7316C30.9399 27.9631 30.6965 28.1366 30.4192 28.2306C30.142 28.3246 29.8432 28.3348 29.5602 28.26L7.56017 22.35C7.26112 22.2687 6.99486 22.0962 6.79844 21.8565C6.60203 21.6168 6.48524 21.3218 6.46433 21.0126C6.44343 20.7035 6.51945 20.3954 6.6818 20.1315C6.84416 19.8675 7.08479 19.6608 7.37017 19.54L15.1602 16.3C15.4002 16.1991 15.6096 16.037 15.7675 15.83C15.9254 15.6229 16.0263 15.3781 16.0602 15.12L17.1702 6.78997C17.2135 6.4821 17.3521 6.19551 17.5664 5.97033C17.7808 5.74515 18.0602 5.59267 18.3656 5.53424C18.671 5.47581 18.987 5.51437 19.2693 5.64451C19.5517 5.77465 19.7862 5.98985 19.9402 6.25997Z" fill="#FEDB8F"/>
<path d="M15.43 1.03003L30.69 27.79L1 19.83L13.63 14.58L15.43 1.03003Z" stroke="#071146" stroke-width="2" stroke-linecap="round" stroke-linejoin="round"/>
<path d="M56.7 55.5999C63.4379 55.5999 68.9 50.1378 68.9 43.4C68.9 36.6621 63.4379 31.2 56.7 31.2C49.9621 31.2 44.5 36.6621 44.5 43.4C44.5 50.1378 49.9621 55.5999 56.7 55.5999Z" fill="#FEDB8F"/>
<path d="M59.8145 39.1453C59.8201 37.4332 58.4366 36.0408 56.7245 36.0352C55.0125 36.0297 53.6201 37.4131 53.6145 39.1252C53.609 40.8373 54.9924 42.2297 56.7045 42.2352C58.4166 42.2408 59.809 40.8573 59.8145 39.1453Z" stroke="#071146" stroke-width="2" stroke-miterlimit="10" stroke-linecap="round" stroke-linejoin="round"/>
<path d="M56.7001 50.3C59.3001 50.3 61.3001 48.2 61.4001 45.7V45C61.4001 44.5 61.0001 44.1 60.6001 44.1H53.0001C52.5001 44.1 52.1001 44.5 52.1001 44.9V45.6C52.0001 48.2 54.1001 50.3 56.7001 50.3Z" stroke="#071146" stroke-width="2" stroke-miterlimit="10" stroke-linecap="round" stroke-linejoin="round"/>
<path d="M76.2 43C76.2 42.6 76.2 42.2 76.1 41.7C75.2 32.6 67.9 25.1 58.8 24.1C47 22.8 37 32 37 43.6V43.7C37 48 38.7 52.2 41.5 55.5L56.7 73.8L71.7 55.6C74.6 52 76.3 47.5 76.2 43Z" stroke="#071146" stroke-width="2" stroke-miterlimit="10" stroke-linecap="round" stroke-linejoin="round"/>
<path d="M56.6996 55.7C63.3823 55.7 68.7996 50.2826 68.7996 43.6C68.7996 36.9174 63.3823 31.5 56.6996 31.5C50.017 31.5 44.5996 36.9174 44.5996 43.6C44.5996 50.2826 50.017 55.7 56.6996 55.7Z" stroke="#071146" stroke-width="2" stroke-miterlimit="10" stroke-linecap="round" stroke-linejoin="round"/>
</svg>
