<svg width="93" height="96" viewBox="0 0 93 96" fill="none" xmlns="http://www.w3.org/2000/svg">
<path d="M81.8004 73.4H18.1004C13.3004 73.4 9.40039 69.5 9.40039 64.7V18C9.40039 13.2 13.3004 9.30005 18.1004 9.30005H81.8004C86.6004 9.30005 90.5004 13.2 90.5004 18V64.8001C90.4004 69.5001 86.6004 73.4 81.8004 73.4Z" fill="white"/>
<path d="M81.4 73.4H10.7C5.4 73.4 1 69 1 63.7V11.2C1 5.9 5.4 1.5 10.7 1.5H81.4C86.7 1.5 91.1 5.9 91.1 11.2V63.8C91 69.1 86.7 73.4 81.4 73.4Z" stroke="#071146" stroke-width="2" stroke-miterlimit="10" stroke-linecap="round" stroke-linejoin="round"/>
<path d="M25.9004 94.4H67.0004" stroke="#071146" stroke-width="2" stroke-miterlimit="10" stroke-linecap="round" stroke-linejoin="round"/>
<path d="M24.2992 15.2C25.0992 15.2 25.8992 15.3 26.6992 15.5C27.0992 15.6 27.2992 15.9 27.3992 16.2L27.5992 17.9C27.6992 18.7 28.2992 19.3 29.0992 19.3C29.2992 19.3 29.4992 19.3 29.6992 19.2L31.2992 18.5C31.5992 18.4 31.9992 18.4 32.2992 18.7C33.3992 19.9 34.2992 21.4 34.7992 22.9C34.8992 23.2 34.7992 23.6 34.4992 23.8L33.0992 24.8C32.6992 25.1 32.4992 25.6 32.4992 26C32.4992 26.5 32.6992 27 33.0992 27.2L34.4992 28.2C34.7992 28.4 34.8992 28.8 34.7992 29.1C34.2992 30.7 33.4992 32.0999 32.2992 33.2999C32.0992 33.5999 31.6992 33.6 31.2992 33.5L29.6992 32.7999C29.1992 32.5999 28.6992 32.6 28.2992 32.9C27.8992 33.1 27.5992 33.5999 27.4992 34.0999L27.3992 36C27.3992 36.4 27.0992 36.6 26.7992 36.7C25.1992 37.1 23.4992 37.1 21.8992 36.7C21.5992 36.6 21.2992 36.3 21.2992 36L21.0992 34.2999C20.9992 33.7999 20.7992 33.3999 20.2992 33.0999C19.8992 32.8999 19.3992 32.8 18.8992 33L17.2992 33.7C16.9992 33.8 16.5992 33.8 16.2992 33.5C15.1992 32.3 14.2992 30.8 13.7992 29.2C13.6992 28.9 13.7992 28.5 14.0992 28.3L15.4992 27.3C15.8992 27 16.0992 26.5 16.0992 26.1C16.0992 25.6 15.8992 25.1 15.4992 24.9L14.0992 23.9C13.7992 23.7 13.6992 23.3 13.7992 23C14.2992 21.4 15.0992 20 16.2992 18.8C16.4992 18.5 16.8992 18.5 17.2992 18.6L18.8992 19.3C19.3992 19.5 19.8992 19.5 20.2992 19.2C20.6992 19 20.9992 18.5 21.0992 18L21.2992 16.3C21.2992 15.9 21.5992 15.7 21.9992 15.6C22.5992 15.3 23.3992 15.2 24.2992 15.2ZM24.2992 21.9C26.5992 21.9 28.4992 23.8 28.4992 26.1C28.4992 28.4 26.5992 30.3 24.2992 30.3C21.9992 30.3 20.0992 28.4 20.0992 26.1C20.0992 23.8 21.8992 21.9 24.2992 21.9Z" stroke="#FEDB8F" stroke-width="2" stroke-miterlimit="10" stroke-linecap="round" stroke-linejoin="round"/>
<path d="M9.69922 63.3H86.6992" stroke="#FEDB8F" stroke-width="2" stroke-miterlimit="10" stroke-linecap="round" stroke-linejoin="round"/>
<path d="M82.5996 15.2V67.5999" stroke="#FEDB8F" stroke-width="2" stroke-miterlimit="10" stroke-linecap="round" stroke-linejoin="round"/>
<path d="M13.8008 47.4C18.1008 49.6 23.0008 50.9 27.7008 50.1C32.5008 49.3 37.0008 46.2 38.4008 41.6C39.1008 39.3 39.1008 36.6 40.5008 34.6C42.0008 32.5 44.8008 31.5 47.4008 32C49.9008 32.5 52.1008 34.3 53.4008 36.6C54.8008 39 55.2008 41.9 56.4008 44.4C57.6008 46.9 60.2008 49.2 62.9008 48.6C64.7008 48.2 66.1008 46.7 66.8008 44.9C67.5008 43.2 67.5008 41.3 67.6008 39.4C67.7008 37.9 67.7008 36.5 67.8008 35C67.9008 33 67.9008 31 68.5008 29C69.1008 27 70.1008 25.2 71.8008 24.1C73.5008 23 75.8008 22.8 77.5008 23.9" stroke="#071146" stroke-width="2" stroke-miterlimit="10" stroke-linecap="round" stroke-linejoin="round"/>
<path d="M21.5 67.6V56.5" stroke="#FEDB8F" stroke-width="2" stroke-miterlimit="10" stroke-linecap="round" stroke-linejoin="round"/>
<path d="M36.6992 67.6V56.5" stroke="#FEDB8F" stroke-width="2" stroke-miterlimit="10" stroke-linecap="round" stroke-linejoin="round"/>
<path d="M52 67.6V56.5" stroke="#FEDB8F" stroke-width="2" stroke-miterlimit="10" stroke-linecap="round" stroke-linejoin="round"/>
<path d="M67.1992 67.6V56.5" stroke="#FEDB8F" stroke-width="2" stroke-miterlimit="10" stroke-linecap="round" stroke-linejoin="round"/>
</svg>
