<svg width="80" height="68" viewBox="0 0 80 68" fill="none" xmlns="http://www.w3.org/2000/svg">
<path d="M2.12796 51C1.92263 51 1.74996 50.93 1.60996 50.79C1.46996 50.65 1.39996 50.4773 1.39996 50.272V40.794C1.39996 40.5793 1.46996 40.4067 1.60996 40.276C1.74996 40.136 1.92263 40.066 2.12796 40.066C2.40796 40.066 2.62263 40.1967 2.77196 40.458L7.15396 49.236H6.70596L10.976 40.458C11.1253 40.1967 11.34 40.066 11.62 40.066C11.8253 40.066 11.998 40.136 12.138 40.276C12.278 40.4067 12.348 40.5793 12.348 40.794V50.272C12.348 50.4773 12.2733 50.65 12.124 50.79C11.984 50.93 11.816 51 11.62 51C11.4146 51 11.242 50.93 11.102 50.79C10.962 50.65 10.892 50.4773 10.892 50.272V42.81L11.172 42.74L7.50396 50.216C7.34529 50.4587 7.13529 50.58 6.87396 50.58C6.56596 50.58 6.34196 50.4353 6.20196 50.146L2.57596 42.88L2.85596 42.81V50.272C2.85596 50.4773 2.78596 50.65 2.64596 50.79C2.50596 50.93 2.33329 51 2.12796 51Z" fill="#071146"/>
<path d="M18.2059 51.056C17.5245 51.056 16.9132 50.888 16.3719 50.552C15.8305 50.2067 15.4012 49.7447 15.0839 49.166C14.7759 48.578 14.6219 47.9153 14.6219 47.178C14.6219 46.4407 14.7899 45.778 15.1259 45.19C15.4712 44.602 15.9332 44.14 16.5119 43.804C17.0999 43.4587 17.7579 43.286 18.4859 43.286C19.2139 43.286 19.8672 43.4587 20.4459 43.804C21.0245 44.14 21.4819 44.602 21.8179 45.19C22.1632 45.778 22.3359 46.4407 22.3359 47.178H21.7899C21.7899 47.9153 21.6312 48.578 21.3139 49.166C21.0059 49.7447 20.5812 50.2067 20.0399 50.552C19.4985 50.888 18.8872 51.056 18.2059 51.056ZM18.4859 49.796C18.9619 49.796 19.3865 49.684 19.7599 49.46C20.1332 49.2267 20.4272 48.914 20.6419 48.522C20.8565 48.1207 20.9639 47.6727 20.9639 47.178C20.9639 46.674 20.8565 46.226 20.6419 45.834C20.4272 45.4327 20.1332 45.12 19.7599 44.896C19.3865 44.6627 18.9619 44.546 18.4859 44.546C18.0192 44.546 17.5945 44.6627 17.2119 44.896C16.8385 45.12 16.5399 45.4327 16.3159 45.834C16.1012 46.226 15.9939 46.674 15.9939 47.178C15.9939 47.6727 16.1012 48.1207 16.3159 48.522C16.5399 48.914 16.8385 49.2267 17.2119 49.46C17.5945 49.684 18.0192 49.796 18.4859 49.796ZM21.6219 51.014C21.4165 51.014 21.2439 50.9487 21.1039 50.818C20.9732 50.678 20.9079 50.5053 20.9079 50.3V48.158L21.1739 46.674L22.3359 47.178V50.3C22.3359 50.5053 22.2659 50.678 22.1259 50.818C21.9952 50.9487 21.8272 51.014 21.6219 51.014Z" fill="#071146"/>
<path d="M27.2471 51.056C26.5938 51.056 25.9871 50.958 25.4271 50.762C24.8765 50.5567 24.4471 50.3 24.1391 49.992C23.9991 49.8427 23.9385 49.6747 23.9571 49.488C23.9851 49.292 24.0785 49.1333 24.2371 49.012C24.4238 48.8627 24.6058 48.802 24.7831 48.83C24.9698 48.8487 25.1285 48.928 25.2591 49.068C25.4178 49.2453 25.6698 49.4133 26.0151 49.572C26.3698 49.7213 26.7618 49.796 27.1911 49.796C27.7325 49.796 28.1431 49.7073 28.4231 49.53C28.7125 49.3527 28.8618 49.124 28.8711 48.844C28.8805 48.564 28.7451 48.3213 28.4651 48.116C28.1945 47.9107 27.6951 47.7427 26.9671 47.612C26.0245 47.4253 25.3385 47.1453 24.9091 46.772C24.4891 46.3987 24.2791 45.9413 24.2791 45.4C24.2791 44.924 24.4191 44.532 24.6991 44.224C24.9791 43.9067 25.3385 43.6733 25.7771 43.524C26.2158 43.3653 26.6731 43.286 27.1491 43.286C27.7651 43.286 28.3111 43.384 28.7871 43.58C29.2631 43.776 29.6411 44.0467 29.9211 44.392C30.0518 44.5413 30.1125 44.7 30.1031 44.868C30.0938 45.0267 30.0145 45.162 29.8651 45.274C29.7158 45.3767 29.5385 45.4093 29.3331 45.372C29.1278 45.3347 28.9551 45.2507 28.8151 45.12C28.5818 44.896 28.3298 44.742 28.0591 44.658C27.7885 44.574 27.4758 44.532 27.1211 44.532C26.7105 44.532 26.3605 44.602 26.0711 44.742C25.7911 44.882 25.6511 45.0873 25.6511 45.358C25.6511 45.526 25.6931 45.68 25.7771 45.82C25.8705 45.9507 26.0478 46.072 26.3091 46.184C26.5705 46.2867 26.9531 46.3893 27.4571 46.492C28.1571 46.632 28.7078 46.8093 29.1091 47.024C29.5198 47.2387 29.8138 47.4907 29.9911 47.78C30.1685 48.06 30.2571 48.3867 30.2571 48.76C30.2571 49.1893 30.1405 49.5767 29.9071 49.922C29.6831 50.2673 29.3471 50.5427 28.8991 50.748C28.4605 50.9533 27.9098 51.056 27.2471 51.056Z" fill="#071146"/>
<path d="M34.8487 51.056C34.1954 51.056 33.5887 50.958 33.0287 50.762C32.478 50.5567 32.0487 50.3 31.7407 49.992C31.6007 49.8427 31.54 49.6747 31.5587 49.488C31.5867 49.292 31.68 49.1333 31.8387 49.012C32.0254 48.8627 32.2074 48.802 32.3847 48.83C32.5714 48.8487 32.73 48.928 32.8607 49.068C33.0194 49.2453 33.2714 49.4133 33.6167 49.572C33.9714 49.7213 34.3634 49.796 34.7927 49.796C35.334 49.796 35.7447 49.7073 36.0247 49.53C36.314 49.3527 36.4634 49.124 36.4727 48.844C36.482 48.564 36.3467 48.3213 36.0667 48.116C35.796 47.9107 35.2967 47.7427 34.5687 47.612C33.626 47.4253 32.94 47.1453 32.5107 46.772C32.0907 46.3987 31.8807 45.9413 31.8807 45.4C31.8807 44.924 32.0207 44.532 32.3007 44.224C32.5807 43.9067 32.94 43.6733 33.3787 43.524C33.8174 43.3653 34.2747 43.286 34.7507 43.286C35.3667 43.286 35.9127 43.384 36.3887 43.58C36.8647 43.776 37.2427 44.0467 37.5227 44.392C37.6534 44.5413 37.714 44.7 37.7047 44.868C37.6954 45.0267 37.616 45.162 37.4667 45.274C37.3174 45.3767 37.14 45.4093 36.9347 45.372C36.7294 45.3347 36.5567 45.2507 36.4167 45.12C36.1834 44.896 35.9314 44.742 35.6607 44.658C35.39 44.574 35.0774 44.532 34.7227 44.532C34.312 44.532 33.962 44.602 33.6727 44.742C33.3927 44.882 33.2527 45.0873 33.2527 45.358C33.2527 45.526 33.2947 45.68 33.3787 45.82C33.472 45.9507 33.6494 46.072 33.9107 46.184C34.172 46.2867 34.5547 46.3893 35.0587 46.492C35.7587 46.632 36.3094 46.8093 36.7107 47.024C37.1214 47.2387 37.4154 47.4907 37.5927 47.78C37.77 48.06 37.8587 48.3867 37.8587 48.76C37.8587 49.1893 37.742 49.5767 37.5087 49.922C37.2847 50.2673 36.9487 50.5427 36.5007 50.748C36.062 50.9533 35.5114 51.056 34.8487 51.056Z" fill="#071146"/>
<path d="M40.3503 46.212C40.3503 45.652 40.4856 45.1527 40.7563 44.714C41.0363 44.266 41.4096 43.9113 41.8763 43.65C42.3429 43.3887 42.8563 43.258 43.4163 43.258C43.9763 43.258 44.3916 43.3513 44.6623 43.538C44.9423 43.7153 45.0496 43.93 44.9843 44.182C44.9563 44.3127 44.9003 44.4153 44.8163 44.49C44.7416 44.5553 44.6529 44.5973 44.5503 44.616C44.4476 44.6347 44.3356 44.63 44.2143 44.602C43.6169 44.4807 43.0803 44.4713 42.6043 44.574C42.1283 44.6767 41.7503 44.868 41.4703 45.148C41.1996 45.428 41.0643 45.7827 41.0643 46.212H40.3503ZM40.3643 51C40.1403 51 39.9676 50.944 39.8463 50.832C39.7249 50.7107 39.6643 50.5333 39.6643 50.3V44.042C39.6643 43.818 39.7249 43.6453 39.8463 43.524C39.9676 43.4027 40.1403 43.342 40.3643 43.342C40.5976 43.342 40.7703 43.4027 40.8823 43.524C41.0036 43.636 41.0643 43.8087 41.0643 44.042V50.3C41.0643 50.524 41.0036 50.6967 40.8823 50.818C40.7703 50.9393 40.5976 51 40.3643 51Z" fill="#071146"/>
<path d="M49.5103 51.056C48.7356 51.056 48.045 50.8927 47.4383 50.566C46.841 50.23 46.3696 49.7727 46.0243 49.194C45.6883 48.606 45.5203 47.934 45.5203 47.178C45.5203 46.4127 45.679 45.7407 45.9963 45.162C46.323 44.574 46.771 44.1167 47.3403 43.79C47.9096 43.454 48.563 43.286 49.3003 43.286C50.0283 43.286 50.6536 43.4493 51.1763 43.776C51.699 44.0933 52.0956 44.5367 52.3663 45.106C52.6463 45.666 52.7863 46.3147 52.7863 47.052C52.7863 47.2293 52.7256 47.3787 52.6043 47.5C52.483 47.612 52.329 47.668 52.1423 47.668H46.5003V46.548H52.1003L51.5263 46.94C51.517 46.4733 51.4236 46.058 51.2463 45.694C51.069 45.3207 50.817 45.0267 50.4903 44.812C50.1636 44.5973 49.767 44.49 49.3003 44.49C48.7683 44.49 48.311 44.6067 47.9283 44.84C47.555 45.0733 47.2703 45.3953 47.0743 45.806C46.8783 46.2073 46.7803 46.6647 46.7803 47.178C46.7803 47.6913 46.897 48.1487 47.1303 48.55C47.3636 48.9513 47.6856 49.2687 48.0963 49.502C48.507 49.7353 48.9783 49.852 49.5103 49.852C49.7996 49.852 50.0936 49.8007 50.3923 49.698C50.7003 49.586 50.9476 49.46 51.1343 49.32C51.2743 49.2173 51.4236 49.166 51.5823 49.166C51.7503 49.1567 51.895 49.2033 52.0163 49.306C52.175 49.446 52.259 49.6 52.2683 49.768C52.2776 49.936 52.203 50.0807 52.0443 50.202C51.727 50.454 51.3303 50.6593 50.8543 50.818C50.3876 50.9767 49.9396 51.056 49.5103 51.056Z" fill="#071146"/>
<path d="M57.5262 51.056C56.8448 51.056 56.2335 50.888 55.6922 50.552C55.1508 50.2067 54.7215 49.7447 54.4042 49.166C54.0962 48.578 53.9422 47.9153 53.9422 47.178C53.9422 46.4407 54.1102 45.778 54.4462 45.19C54.7915 44.602 55.2535 44.14 55.8322 43.804C56.4202 43.4587 57.0782 43.286 57.8062 43.286C58.5342 43.286 59.1875 43.4587 59.7662 43.804C60.3448 44.14 60.8022 44.602 61.1382 45.19C61.4835 45.778 61.6562 46.4407 61.6562 47.178H61.1102C61.1102 47.9153 60.9515 48.578 60.6342 49.166C60.3262 49.7447 59.9015 50.2067 59.3602 50.552C58.8188 50.888 58.2075 51.056 57.5262 51.056ZM57.8062 49.796C58.2822 49.796 58.7068 49.684 59.0802 49.46C59.4535 49.2267 59.7475 48.914 59.9622 48.522C60.1768 48.1207 60.2842 47.6727 60.2842 47.178C60.2842 46.674 60.1768 46.226 59.9622 45.834C59.7475 45.4327 59.4535 45.12 59.0802 44.896C58.7068 44.6627 58.2822 44.546 57.8062 44.546C57.3395 44.546 56.9148 44.6627 56.5322 44.896C56.1588 45.12 55.8602 45.4327 55.6362 45.834C55.4215 46.226 55.3142 46.674 55.3142 47.178C55.3142 47.6727 55.4215 48.1207 55.6362 48.522C55.8602 48.914 56.1588 49.2267 56.5322 49.46C56.9148 49.684 57.3395 49.796 57.8062 49.796ZM60.9422 51.014C60.7368 51.014 60.5642 50.9487 60.4242 50.818C60.2935 50.678 60.2282 50.5053 60.2282 50.3V48.158L60.4942 46.674L61.6562 47.178V50.3C61.6562 50.5053 61.5862 50.678 61.4462 50.818C61.3155 50.9487 61.1475 51.014 60.9422 51.014Z" fill="#071146"/>
<path d="M67.2534 51.056C66.5068 51.056 65.8394 50.888 65.2514 50.552C64.6728 50.2067 64.2154 49.7447 63.8794 49.166C63.5528 48.578 63.3894 47.9153 63.3894 47.178C63.3894 46.422 63.5528 45.75 63.8794 45.162C64.2061 44.574 64.6541 44.1167 65.2234 43.79C65.7928 43.454 66.4461 43.286 67.1834 43.286C67.7341 43.286 68.2381 43.3933 68.6954 43.608C69.1528 43.8133 69.5634 44.126 69.9274 44.546C70.0581 44.6953 70.1048 44.8493 70.0674 45.008C70.0301 45.1667 69.9274 45.3067 69.7594 45.428C69.6288 45.5213 69.4841 45.554 69.3254 45.526C69.1668 45.4887 69.0221 45.4047 68.8914 45.274C68.4341 44.7887 67.8648 44.546 67.1834 44.546C66.7075 44.546 66.2874 44.658 65.9234 44.882C65.5594 45.0967 65.2748 45.4 65.0694 45.792C64.8641 46.184 64.7614 46.646 64.7614 47.178C64.7614 47.682 64.8641 48.13 65.0694 48.522C65.2841 48.914 65.5781 49.2267 65.9514 49.46C66.3248 49.684 66.7588 49.796 67.2534 49.796C67.5801 49.796 67.8648 49.7587 68.1074 49.684C68.3594 49.6 68.5881 49.474 68.7934 49.306C68.9428 49.1847 69.0968 49.1193 69.2554 49.11C69.4141 49.0913 69.5541 49.1333 69.6754 49.236C69.8341 49.3667 69.9228 49.516 69.9414 49.684C69.9601 49.8427 69.9041 49.9873 69.7734 50.118C69.1014 50.7433 68.2615 51.056 67.2534 51.056Z" fill="#071146"/>
<path d="M78.6576 51.014C78.4523 51.014 78.2796 50.9487 78.1396 50.818C78.009 50.678 77.9436 50.5053 77.9436 50.3V46.856C77.9436 46.324 77.8456 45.89 77.6497 45.554C77.4537 45.218 77.1876 44.9707 76.8516 44.812C76.525 44.644 76.147 44.56 75.7177 44.56C75.3257 44.56 74.971 44.6393 74.6536 44.798C74.3363 44.9567 74.0843 45.1713 73.8977 45.442C73.711 45.7033 73.6177 46.0067 73.6177 46.352H72.7356C72.7356 45.764 72.8756 45.2413 73.1556 44.784C73.445 44.3173 73.837 43.9487 74.3316 43.678C74.8263 43.4073 75.3817 43.272 75.9977 43.272C76.6416 43.272 77.2157 43.412 77.7197 43.692C78.233 43.9627 78.6343 44.364 78.9237 44.896C79.2223 45.428 79.3717 46.0813 79.3717 46.856V50.3C79.3717 50.5053 79.3017 50.678 79.1617 50.818C79.031 50.9487 78.863 51.014 78.6576 51.014ZM72.9036 51.014C72.6983 51.014 72.5257 50.9487 72.3857 50.818C72.255 50.678 72.1897 50.5053 72.1897 50.3V44.056C72.1897 43.8413 72.255 43.6687 72.3857 43.538C72.5257 43.4073 72.6983 43.342 72.9036 43.342C73.1183 43.342 73.291 43.4073 73.4216 43.538C73.5523 43.6687 73.6177 43.8413 73.6177 44.056V50.3C73.6177 50.5053 73.5523 50.678 73.4216 50.818C73.291 50.9487 73.1183 51.014 72.9036 51.014ZM72.9036 48.214C72.6983 48.214 72.5257 48.1487 72.3857 48.018C72.255 47.878 72.1897 47.7053 72.1897 47.5V40.78C72.1897 40.5653 72.255 40.3927 72.3857 40.262C72.5257 40.1313 72.6983 40.066 72.9036 40.066C73.1183 40.066 73.291 40.1313 73.4216 40.262C73.5523 40.3927 73.6177 40.5653 73.6177 40.78V47.5C73.6177 47.7053 73.5523 47.878 73.4216 48.018C73.291 48.1487 73.1183 48.214 72.9036 48.214Z" fill="#071146"/>
<path d="M4.63396 67C4.42863 67 4.25596 66.93 4.11596 66.79C3.97596 66.65 3.90596 66.4773 3.90596 66.272V56.066H5.36196V66.272C5.36196 66.4773 5.29196 66.65 5.15196 66.79C5.01196 66.93 4.83929 67 4.63396 67ZM0.881961 57.41C0.685961 57.41 0.522628 57.3493 0.391961 57.228C0.270628 57.0973 0.209961 56.934 0.209961 56.738C0.209961 56.542 0.270628 56.3833 0.391961 56.262C0.522628 56.1313 0.685961 56.066 0.881961 56.066H8.37196C8.56796 56.066 8.72663 56.1313 8.84796 56.262C8.97863 56.3833 9.04396 56.542 9.04396 56.738C9.04396 56.934 8.97863 57.0973 8.84796 57.228C8.72663 57.3493 8.56796 57.41 8.37196 57.41H0.881961Z" fill="#071146"/>
<path d="M9.24674 62.212C9.24674 61.652 9.38208 61.1527 9.65274 60.714C9.93274 60.266 10.3061 59.9113 10.7727 59.65C11.2394 59.3887 11.7527 59.258 12.3127 59.258C12.8727 59.258 13.2881 59.3513 13.5587 59.538C13.8387 59.7153 13.9461 59.93 13.8807 60.182C13.8527 60.3127 13.7967 60.4153 13.7127 60.49C13.6381 60.5553 13.5494 60.5973 13.4467 60.616C13.3441 60.6347 13.2321 60.63 13.1107 60.602C12.5134 60.4807 11.9767 60.4713 11.5007 60.574C11.0247 60.6767 10.6467 60.868 10.3667 61.148C10.0961 61.428 9.96074 61.7827 9.96074 62.212H9.24674ZM9.26074 67C9.03674 67 8.86408 66.944 8.74274 66.832C8.62141 66.7107 8.56074 66.5333 8.56074 66.3V60.042C8.56074 59.818 8.62141 59.6453 8.74274 59.524C8.86408 59.4027 9.03674 59.342 9.26074 59.342C9.49408 59.342 9.66674 59.4027 9.77874 59.524C9.90007 59.636 9.96074 59.8087 9.96074 60.042V66.3C9.96074 66.524 9.90007 66.6967 9.77874 66.818C9.66674 66.9393 9.49408 67 9.26074 67Z" fill="#071146"/>
<path d="M18.0008 67.056C17.3195 67.056 16.7081 66.888 16.1668 66.552C15.6255 66.2067 15.1961 65.7447 14.8788 65.166C14.5708 64.578 14.4168 63.9153 14.4168 63.178C14.4168 62.4407 14.5848 61.778 14.9208 61.19C15.2661 60.602 15.7281 60.14 16.3068 59.804C16.8948 59.4587 17.5528 59.286 18.2808 59.286C19.0088 59.286 19.6621 59.4587 20.2408 59.804C20.8195 60.14 21.2768 60.602 21.6128 61.19C21.9581 61.778 22.1308 62.4407 22.1308 63.178H21.5848C21.5848 63.9153 21.4261 64.578 21.1088 65.166C20.8008 65.7447 20.3761 66.2067 19.8348 66.552C19.2935 66.888 18.6821 67.056 18.0008 67.056ZM18.2808 65.796C18.7568 65.796 19.1815 65.684 19.5548 65.46C19.9281 65.2267 20.2221 64.914 20.4368 64.522C20.6515 64.1207 20.7588 63.6727 20.7588 63.178C20.7588 62.674 20.6515 62.226 20.4368 61.834C20.2221 61.4327 19.9281 61.12 19.5548 60.896C19.1815 60.6627 18.7568 60.546 18.2808 60.546C17.8141 60.546 17.3895 60.6627 17.0068 60.896C16.6335 61.12 16.3348 61.4327 16.1108 61.834C15.8961 62.226 15.7888 62.674 15.7888 63.178C15.7888 63.6727 15.8961 64.1207 16.1108 64.522C16.3348 64.914 16.6335 65.2267 17.0068 65.46C17.3895 65.684 17.8141 65.796 18.2808 65.796ZM21.4168 67.014C21.2115 67.014 21.0388 66.9487 20.8988 66.818C20.7681 66.678 20.7028 66.5053 20.7028 66.3V64.158L20.9688 62.674L22.1308 63.178V66.3C22.1308 66.5053 22.0608 66.678 21.9208 66.818C21.7901 66.9487 21.6221 67.014 21.4168 67.014Z" fill="#071146"/>
<path d="M27.7281 67.056C26.9814 67.056 26.3141 66.888 25.7261 66.552C25.1474 66.2067 24.6901 65.7447 24.3541 65.166C24.0274 64.578 23.8641 63.9153 23.8641 63.178C23.8641 62.422 24.0274 61.75 24.3541 61.162C24.6807 60.574 25.1287 60.1167 25.6981 59.79C26.2674 59.454 26.9207 59.286 27.6581 59.286C28.2087 59.286 28.7127 59.3933 29.1701 59.608C29.6274 59.8133 30.0381 60.126 30.4021 60.546C30.5327 60.6953 30.5794 60.8493 30.5421 61.008C30.5047 61.1667 30.4021 61.3067 30.2341 61.428C30.1034 61.5213 29.9587 61.554 29.8001 61.526C29.6414 61.4887 29.4967 61.4047 29.3661 61.274C28.9087 60.7887 28.3394 60.546 27.6581 60.546C27.1821 60.546 26.7621 60.658 26.3981 60.882C26.0341 61.0967 25.7494 61.4 25.5441 61.792C25.3387 62.184 25.2361 62.646 25.2361 63.178C25.2361 63.682 25.3387 64.13 25.5441 64.522C25.7587 64.914 26.0527 65.2267 26.4261 65.46C26.7994 65.684 27.2334 65.796 27.7281 65.796C28.0547 65.796 28.3394 65.7587 28.5821 65.684C28.8341 65.6 29.0627 65.474 29.2681 65.306C29.4174 65.1847 29.5714 65.1193 29.7301 65.11C29.8887 65.0913 30.0287 65.1333 30.1501 65.236C30.3087 65.3667 30.3974 65.516 30.4161 65.684C30.4347 65.8427 30.3787 65.9873 30.2481 66.118C29.5761 66.7433 28.7361 67.056 27.7281 67.056Z" fill="#071146"/>
<path d="M34.0083 64.2L33.1403 63.248L37.4383 59.412C37.5783 59.2813 37.7323 59.2207 37.9003 59.23C38.0776 59.2393 38.2269 59.314 38.3483 59.454C38.4789 59.594 38.5396 59.748 38.5303 59.916C38.5209 60.084 38.4463 60.2333 38.3063 60.364L34.0083 64.2ZM33.3503 67C33.1449 67 32.9769 66.9393 32.8463 66.818C32.7249 66.6873 32.6643 66.5193 32.6643 66.314V56.752C32.6643 56.5467 32.7249 56.3833 32.8463 56.262C32.9769 56.1313 33.1449 56.066 33.3503 56.066C33.5556 56.066 33.7189 56.1313 33.8403 56.262C33.9709 56.3833 34.0363 56.5467 34.0363 56.752V66.314C34.0363 66.5193 33.9709 66.6873 33.8403 66.818C33.7189 66.9393 33.5556 67 33.3503 67ZM38.3483 66.93C38.1989 67.0513 38.0309 67.1027 37.8443 67.084C37.6669 67.0747 37.5176 66.9953 37.3963 66.846L34.5543 63.332L35.5343 62.408L38.4463 65.992C38.5676 66.1413 38.6189 66.3047 38.6003 66.482C38.5909 66.65 38.5069 66.7993 38.3483 66.93Z" fill="#071146"/>
<path d="M43.5357 67.056C42.761 67.056 42.0704 66.8927 41.4637 66.566C40.8664 66.23 40.395 65.7727 40.0497 65.194C39.7137 64.606 39.5457 63.934 39.5457 63.178C39.5457 62.4127 39.7044 61.7407 40.0217 61.162C40.3484 60.574 40.7964 60.1167 41.3657 59.79C41.935 59.454 42.5884 59.286 43.3257 59.286C44.0537 59.286 44.679 59.4493 45.2017 59.776C45.7244 60.0933 46.121 60.5367 46.3917 61.106C46.6717 61.666 46.8117 62.3147 46.8117 63.052C46.8117 63.2293 46.751 63.3787 46.6297 63.5C46.5084 63.612 46.3544 63.668 46.1677 63.668H40.5257V62.548H46.1257L45.5517 62.94C45.5424 62.4733 45.449 62.058 45.2717 61.694C45.0944 61.3207 44.8424 61.0267 44.5157 60.812C44.189 60.5973 43.7924 60.49 43.3257 60.49C42.7937 60.49 42.3364 60.6067 41.9537 60.84C41.5804 61.0733 41.2957 61.3953 41.0997 61.806C40.9037 62.2073 40.8057 62.6647 40.8057 63.178C40.8057 63.6913 40.9224 64.1487 41.1557 64.55C41.389 64.9513 41.711 65.2687 42.1217 65.502C42.5324 65.7353 43.0037 65.852 43.5357 65.852C43.825 65.852 44.119 65.8007 44.4177 65.698C44.7257 65.586 44.973 65.46 45.1597 65.32C45.2997 65.2173 45.449 65.166 45.6077 65.166C45.7757 65.1567 45.9204 65.2033 46.0417 65.306C46.2004 65.446 46.2844 65.6 46.2937 65.768C46.303 65.936 46.2284 66.0807 46.0697 66.202C45.7524 66.454 45.3557 66.6593 44.8797 66.818C44.413 66.9767 43.965 67.056 43.5357 67.056Z" fill="#071146"/>
<path d="M49.319 62.212C49.319 61.652 49.4543 61.1527 49.725 60.714C50.005 60.266 50.3783 59.9113 50.845 59.65C51.3117 59.3887 51.825 59.258 52.385 59.258C52.945 59.258 53.3603 59.3513 53.631 59.538C53.911 59.7153 54.0183 59.93 53.953 60.182C53.925 60.3127 53.869 60.4153 53.785 60.49C53.7103 60.5553 53.6217 60.5973 53.519 60.616C53.4163 60.6347 53.3043 60.63 53.183 60.602C52.5857 60.4807 52.049 60.4713 51.573 60.574C51.097 60.6767 50.719 60.868 50.439 61.148C50.1683 61.428 50.033 61.7827 50.033 62.212H49.319ZM49.333 67C49.109 67 48.9363 66.944 48.815 66.832C48.6937 66.7107 48.633 66.5333 48.633 66.3V60.042C48.633 59.818 48.6937 59.6453 48.815 59.524C48.9363 59.4027 49.109 59.342 49.333 59.342C49.5663 59.342 49.739 59.4027 49.851 59.524C49.9723 59.636 50.033 59.8087 50.033 60.042V66.3C50.033 66.524 49.9723 66.6967 49.851 66.818C49.739 66.9393 49.5663 67 49.333 67Z" fill="#071146"/>
<path d="M17 28C16.76 28 16.52 27.9193 16.32 27.7983C16 27.5562 15.8 27.1931 15.8 26.7896V1.21037C15.8 0.524496 16.32 0 17 0C17.68 0 18.2 0.524496 18.2 1.21037V24.9741L19.4 24.4899C20 24.2478 20.72 24.5303 20.96 25.1758C21.2 25.8213 20.92 26.5072 20.28 26.7493L17.4 27.9193C17.28 27.9597 17.12 28 17 28Z" fill="#1DA1F2"/>
<path d="M17.0001 28C16.8401 28 16.6801 27.9596 16.5601 27.9193L13.6801 26.7493C13.0801 26.5072 12.7601 25.781 13.0001 25.1758C13.2401 24.5706 13.9601 24.2478 14.5601 24.4899L17.4401 25.6599C18.0401 25.902 18.3601 26.6282 18.1201 27.2334C17.9201 27.7176 17.4801 28 17.0001 28Z" fill="#1DA1F2"/>
<path d="M32.8 6.41499C32.12 6.41499 31.6 5.89049 31.6 5.20461V2.42075H2.4V5.20461C2.4 5.89049 1.88 6.41499 1.2 6.41499C0.52 6.41499 0 5.89049 0 5.20461V1.21037C0 0.524496 0.52 0 1.2 0H32.8C33.48 0 34 0.524496 34 1.21037V5.20461C34 5.89049 33.48 6.41499 32.8 6.41499Z" fill="#1DA1F2"/>
</svg>
