<svg width="80" height="72" viewBox="0 0 80 72" fill="none" xmlns="http://www.w3.org/2000/svg">
<path d="M17.0181 33.7463C16.8733 33.7463 16.7284 33.7105 16.5836 33.6747L13.5059 32.4583C12.8903 32.2079 12.6006 31.5281 12.8541 30.9199C13.1076 30.3117 13.7955 30.0255 14.4111 30.2759L15.8232 30.8484V14.7489L2.42598 9.27508V25.4461L4.20021 26.1616C4.81576 26.4121 5.10543 27.0918 4.85197 27.7C4.59851 28.3082 3.91054 28.5944 3.29499 28.344L0.760383 27.3423C0.28967 27.1634 0 26.7341 0 26.2332V7.52203C0 7.12848 0.217252 6.77072 0.543131 6.52028C0.869009 6.30562 1.30351 6.26984 1.6656 6.41295L17.4526 12.8527C17.8871 13.0316 18.213 13.4609 18.213 13.9618V32.5656C18.213 32.9592 18.0319 33.3169 17.6699 33.5316C17.4526 33.6747 17.2354 33.7463 17.0181 33.7463Z" fill="#0052CC"/>
<path d="M17.0182 33.7463C16.7647 33.7463 16.5475 33.6747 16.3302 33.5316C16.0044 33.3169 15.7871 32.9592 15.7871 32.5656V13.9618C15.7871 13.4967 16.0768 13.0316 16.5475 12.8527L32.3345 6.41295C32.6966 6.26984 33.1311 6.30562 33.457 6.52028C33.7828 6.73494 34.0001 7.09271 34.0001 7.52203V26.269C34.0001 26.7698 33.7104 27.1991 33.2397 27.378L30.5603 28.4513C29.9447 28.7018 29.2568 28.4156 29.0033 27.8074C28.7498 27.1991 29.0395 26.5194 29.6551 26.269L31.6103 25.4819V9.27508L18.2131 14.7489V30.8126L19.4442 30.3117C20.0597 30.0613 20.7477 30.3475 21.0012 30.9557C21.2546 31.5639 20.965 32.2436 20.3494 32.4941L17.4527 33.6389C17.3079 33.7105 17.163 33.7463 17.0182 33.7463Z" fill="#0052CC"/>
<path d="M11.4058 4.62412C10.9351 4.62412 10.4644 4.33791 10.2833 3.87281C10.0299 3.26461 10.3195 2.58486 10.9351 2.33442L16.5474 0.0804973C16.8371 -0.0268324 17.163 -0.0268324 17.4527 0.0804973L22.9564 2.26287C23.5719 2.5133 23.8616 3.19306 23.6081 3.80126C23.3547 4.40946 22.6667 4.69568 22.0512 4.44524L17.0182 2.47753L11.8765 4.55257C11.6955 4.58835 11.5506 4.62412 11.4058 4.62412Z" fill="#0052CC"/>
<path d="M2.1279 55C1.92257 55 1.7499 54.93 1.6099 54.79C1.4699 54.65 1.3999 54.4773 1.3999 54.272V44.794C1.3999 44.5793 1.4699 44.4066 1.6099 44.276C1.7499 44.136 1.92257 44.066 2.1279 44.066C2.4079 44.066 2.62257 44.1966 2.7719 44.458L7.1539 53.236H6.7059L10.9759 44.458C11.1252 44.1966 11.3399 44.066 11.6199 44.066C11.8252 44.066 11.9979 44.136 12.1379 44.276C12.2779 44.4066 12.3479 44.5793 12.3479 44.794V54.272C12.3479 54.4773 12.2732 54.65 12.1239 54.79C11.9839 54.93 11.8159 55 11.6199 55C11.4146 55 11.2419 54.93 11.1019 54.79C10.9619 54.65 10.8919 54.4773 10.8919 54.272V46.81L11.1719 46.74L7.5039 54.216C7.34524 54.4586 7.13524 54.58 6.8739 54.58C6.5659 54.58 6.3419 54.4353 6.2019 54.146L2.5759 46.88L2.8559 46.81V54.272C2.8559 54.4773 2.7859 54.65 2.6459 54.79C2.5059 54.93 2.33324 55 2.1279 55Z" fill="#071146"/>
<path d="M18.2058 55.056C17.5245 55.056 16.9131 54.888 16.3718 54.552C15.8305 54.2066 15.4011 53.7446 15.0838 53.166C14.7758 52.578 14.6218 51.9153 14.6218 51.178C14.6218 50.4406 14.7898 49.778 15.1258 49.19C15.4711 48.602 15.9331 48.14 16.5118 47.804C17.0998 47.4586 17.7578 47.286 18.4858 47.286C19.2138 47.286 19.8671 47.4586 20.4458 47.804C21.0245 48.14 21.4818 48.602 21.8178 49.19C22.1631 49.778 22.3358 50.4406 22.3358 51.178H21.7898C21.7898 51.9153 21.6311 52.578 21.3138 53.166C21.0058 53.7446 20.5811 54.2066 20.0398 54.552C19.4985 54.888 18.8871 55.056 18.2058 55.056ZM18.4858 53.796C18.9618 53.796 19.3865 53.684 19.7598 53.46C20.1331 53.2266 20.4271 52.914 20.6418 52.522C20.8565 52.1206 20.9638 51.6726 20.9638 51.178C20.9638 50.674 20.8565 50.226 20.6418 49.834C20.4271 49.4326 20.1331 49.12 19.7598 48.896C19.3865 48.6626 18.9618 48.546 18.4858 48.546C18.0191 48.546 17.5945 48.6626 17.2118 48.896C16.8385 49.12 16.5398 49.4326 16.3158 49.834C16.1011 50.226 15.9938 50.674 15.9938 51.178C15.9938 51.6726 16.1011 52.1206 16.3158 52.522C16.5398 52.914 16.8385 53.2266 17.2118 53.46C17.5945 53.684 18.0191 53.796 18.4858 53.796ZM21.6218 55.014C21.4165 55.014 21.2438 54.9486 21.1038 54.818C20.9731 54.678 20.9078 54.5053 20.9078 54.3V52.158L21.1738 50.674L22.3358 51.178V54.3C22.3358 54.5053 22.2658 54.678 22.1258 54.818C21.9951 54.9486 21.8271 55.014 21.6218 55.014Z" fill="#071146"/>
<path d="M27.2471 55.056C26.5937 55.056 25.9871 54.958 25.4271 54.762C24.8764 54.5566 24.4471 54.3 24.1391 53.992C23.9991 53.8426 23.9384 53.6746 23.9571 53.488C23.9851 53.292 24.0784 53.1333 24.2371 53.012C24.4237 52.8626 24.6057 52.802 24.7831 52.83C24.9697 52.8486 25.1284 52.928 25.2591 53.068C25.4177 53.2453 25.6697 53.4133 26.0151 53.572C26.3697 53.7213 26.7617 53.796 27.1911 53.796C27.7324 53.796 28.1431 53.7073 28.4231 53.53C28.7124 53.3526 28.8617 53.124 28.8711 52.844C28.8804 52.564 28.7451 52.3213 28.4651 52.116C28.1944 51.9106 27.6951 51.7426 26.9671 51.612C26.0244 51.4253 25.3384 51.1453 24.9091 50.772C24.4891 50.3986 24.2791 49.9413 24.2791 49.4C24.2791 48.924 24.4191 48.532 24.6991 48.224C24.9791 47.9066 25.3384 47.6733 25.7771 47.524C26.2157 47.3653 26.6731 47.286 27.1491 47.286C27.7651 47.286 28.3111 47.384 28.7871 47.58C29.2631 47.776 29.6411 48.0466 29.9211 48.392C30.0517 48.5413 30.1124 48.7 30.1031 48.868C30.0937 49.0266 30.0144 49.162 29.8651 49.274C29.7157 49.3766 29.5384 49.4093 29.3331 49.372C29.1277 49.3346 28.9551 49.2506 28.8151 49.12C28.5817 48.896 28.3297 48.742 28.0591 48.658C27.7884 48.574 27.4757 48.532 27.1211 48.532C26.7104 48.532 26.3604 48.602 26.0711 48.742C25.7911 48.882 25.6511 49.0873 25.6511 49.358C25.6511 49.526 25.6931 49.68 25.7771 49.82C25.8704 49.9506 26.0477 50.072 26.3091 50.184C26.5704 50.2866 26.9531 50.3893 27.4571 50.492C28.1571 50.632 28.7077 50.8093 29.1091 51.024C29.5197 51.2386 29.8137 51.4906 29.9911 51.78C30.1684 52.06 30.2571 52.3866 30.2571 52.76C30.2571 53.1893 30.1404 53.5766 29.9071 53.922C29.6831 54.2673 29.3471 54.5426 28.8991 54.748C28.4604 54.9533 27.9097 55.056 27.2471 55.056Z" fill="#071146"/>
<path d="M34.8486 55.056C34.1953 55.056 33.5886 54.958 33.0286 54.762C32.478 54.5566 32.0486 54.3 31.7406 53.992C31.6006 53.8426 31.54 53.6746 31.5586 53.488C31.5866 53.292 31.68 53.1333 31.8386 53.012C32.0253 52.8626 32.2073 52.802 32.3846 52.83C32.5713 52.8486 32.73 52.928 32.8606 53.068C33.0193 53.2453 33.2713 53.4133 33.6166 53.572C33.9713 53.7213 34.3633 53.796 34.7926 53.796C35.334 53.796 35.7446 53.7073 36.0246 53.53C36.314 53.3526 36.4633 53.124 36.4726 52.844C36.482 52.564 36.3466 52.3213 36.0666 52.116C35.796 51.9106 35.2966 51.7426 34.5686 51.612C33.626 51.4253 32.94 51.1453 32.5106 50.772C32.0906 50.3986 31.8806 49.9413 31.8806 49.4C31.8806 48.924 32.0206 48.532 32.3006 48.224C32.5806 47.9066 32.94 47.6733 33.3786 47.524C33.8173 47.3653 34.2746 47.286 34.7506 47.286C35.3666 47.286 35.9126 47.384 36.3886 47.58C36.8646 47.776 37.2426 48.0466 37.5226 48.392C37.6533 48.5413 37.714 48.7 37.7046 48.868C37.6953 49.0266 37.616 49.162 37.4666 49.274C37.3173 49.3766 37.14 49.4093 36.9346 49.372C36.7293 49.3346 36.5566 49.2506 36.4166 49.12C36.1833 48.896 35.9313 48.742 35.6606 48.658C35.39 48.574 35.0773 48.532 34.7226 48.532C34.312 48.532 33.962 48.602 33.6726 48.742C33.3926 48.882 33.2526 49.0873 33.2526 49.358C33.2526 49.526 33.2946 49.68 33.3786 49.82C33.472 49.9506 33.6493 50.072 33.9106 50.184C34.172 50.2866 34.5546 50.3893 35.0586 50.492C35.7586 50.632 36.3093 50.8093 36.7106 51.024C37.1213 51.2386 37.4153 51.4906 37.5926 51.78C37.77 52.06 37.8586 52.3866 37.8586 52.76C37.8586 53.1893 37.742 53.5766 37.5086 53.922C37.2846 54.2673 36.9486 54.5426 36.5006 54.748C36.062 54.9533 35.5113 55.056 34.8486 55.056Z" fill="#071146"/>
<path d="M40.3502 50.212C40.3502 49.652 40.4855 49.1526 40.7562 48.714C41.0362 48.266 41.4095 47.9113 41.8762 47.65C42.3429 47.3886 42.8562 47.258 43.4162 47.258C43.9762 47.258 44.3915 47.3513 44.6622 47.538C44.9422 47.7153 45.0495 47.93 44.9842 48.182C44.9562 48.3126 44.9002 48.4153 44.8162 48.49C44.7415 48.5553 44.6529 48.5973 44.5502 48.616C44.4475 48.6346 44.3355 48.63 44.2142 48.602C43.6169 48.4806 43.0802 48.4713 42.6042 48.574C42.1282 48.6766 41.7502 48.868 41.4702 49.148C41.1995 49.428 41.0642 49.7826 41.0642 50.212H40.3502ZM40.3642 55C40.1402 55 39.9675 54.944 39.8462 54.832C39.7249 54.7106 39.6642 54.5333 39.6642 54.3V48.042C39.6642 47.818 39.7249 47.6453 39.8462 47.524C39.9675 47.4026 40.1402 47.342 40.3642 47.342C40.5975 47.342 40.7702 47.4026 40.8822 47.524C41.0035 47.636 41.0642 47.8086 41.0642 48.042V54.3C41.0642 54.524 41.0035 54.6966 40.8822 54.818C40.7702 54.9393 40.5975 55 40.3642 55Z" fill="#071146"/>
<path d="M49.5102 55.056C48.7356 55.056 48.0449 54.8926 47.4382 54.566C46.8409 54.23 46.3696 53.7726 46.0242 53.194C45.6882 52.606 45.5202 51.934 45.5202 51.178C45.5202 50.4126 45.6789 49.7406 45.9962 49.162C46.3229 48.574 46.7709 48.1166 47.3402 47.79C47.9096 47.454 48.5629 47.286 49.3002 47.286C50.0282 47.286 50.6536 47.4493 51.1762 47.776C51.6989 48.0933 52.0956 48.5366 52.3662 49.106C52.6462 49.666 52.7862 50.3146 52.7862 51.052C52.7862 51.2293 52.7256 51.3786 52.6042 51.5C52.4829 51.612 52.3289 51.668 52.1422 51.668H46.5002V50.548H52.1002L51.5262 50.94C51.5169 50.4733 51.4236 50.058 51.2462 49.694C51.0689 49.3206 50.8169 49.0266 50.4902 48.812C50.1636 48.5973 49.7669 48.49 49.3002 48.49C48.7682 48.49 48.3109 48.6066 47.9282 48.84C47.5549 49.0733 47.2702 49.3953 47.0742 49.806C46.8782 50.2073 46.7802 50.6646 46.7802 51.178C46.7802 51.6913 46.8969 52.1486 47.1302 52.55C47.3636 52.9513 47.6856 53.2686 48.0962 53.502C48.5069 53.7353 48.9782 53.852 49.5102 53.852C49.7996 53.852 50.0936 53.8006 50.3922 53.698C50.7002 53.586 50.9476 53.46 51.1342 53.32C51.2742 53.2173 51.4236 53.166 51.5822 53.166C51.7502 53.1566 51.8949 53.2033 52.0162 53.306C52.1749 53.446 52.2589 53.6 52.2682 53.768C52.2776 53.936 52.2029 54.0806 52.0442 54.202C51.7269 54.454 51.3302 54.6593 50.8542 54.818C50.3876 54.9766 49.9396 55.056 49.5102 55.056Z" fill="#071146"/>
<path d="M57.5261 55.056C56.8448 55.056 56.2335 54.888 55.6921 54.552C55.1508 54.2066 54.7215 53.7446 54.4041 53.166C54.0961 52.578 53.9421 51.9153 53.9421 51.178C53.9421 50.4406 54.1101 49.778 54.4461 49.19C54.7915 48.602 55.2535 48.14 55.8321 47.804C56.4201 47.4586 57.0781 47.286 57.8061 47.286C58.5341 47.286 59.1875 47.4586 59.7661 47.804C60.3448 48.14 60.8021 48.602 61.1381 49.19C61.4835 49.778 61.6561 50.4406 61.6561 51.178H61.1101C61.1101 51.9153 60.9515 52.578 60.6341 53.166C60.3261 53.7446 59.9015 54.2066 59.3601 54.552C58.8188 54.888 58.2075 55.056 57.5261 55.056ZM57.8061 53.796C58.2821 53.796 58.7068 53.684 59.0801 53.46C59.4535 53.2266 59.7475 52.914 59.9621 52.522C60.1768 52.1206 60.2841 51.6726 60.2841 51.178C60.2841 50.674 60.1768 50.226 59.9621 49.834C59.7475 49.4326 59.4535 49.12 59.0801 48.896C58.7068 48.6626 58.2821 48.546 57.8061 48.546C57.3395 48.546 56.9148 48.6626 56.5321 48.896C56.1588 49.12 55.8601 49.4326 55.6361 49.834C55.4215 50.226 55.3141 50.674 55.3141 51.178C55.3141 51.6726 55.4215 52.1206 55.6361 52.522C55.8601 52.914 56.1588 53.2266 56.5321 53.46C56.9148 53.684 57.3395 53.796 57.8061 53.796ZM60.9421 55.014C60.7368 55.014 60.5641 54.9486 60.4241 54.818C60.2935 54.678 60.2281 54.5053 60.2281 54.3V52.158L60.4941 50.674L61.6561 51.178V54.3C61.6561 54.5053 61.5861 54.678 61.4461 54.818C61.3155 54.9486 61.1475 55.014 60.9421 55.014Z" fill="#071146"/>
<path d="M67.2534 55.056C66.5067 55.056 65.8394 54.888 65.2514 54.552C64.6727 54.2066 64.2154 53.7446 63.8794 53.166C63.5527 52.578 63.3894 51.9153 63.3894 51.178C63.3894 50.422 63.5527 49.75 63.8794 49.162C64.2061 48.574 64.6541 48.1166 65.2234 47.79C65.7927 47.454 66.4461 47.286 67.1834 47.286C67.7341 47.286 68.2381 47.3933 68.6954 47.608C69.1527 47.8133 69.5634 48.126 69.9274 48.546C70.0581 48.6953 70.1047 48.8493 70.0674 49.008C70.0301 49.1666 69.9274 49.3066 69.7594 49.428C69.6287 49.5213 69.4841 49.554 69.3254 49.526C69.1667 49.4886 69.0221 49.4046 68.8914 49.274C68.4341 48.7886 67.8647 48.546 67.1834 48.546C66.7074 48.546 66.2874 48.658 65.9234 48.882C65.5594 49.0966 65.2747 49.4 65.0694 49.792C64.864 50.184 64.7614 50.646 64.7614 51.178C64.7614 51.682 64.864 52.13 65.0694 52.522C65.284 52.914 65.578 53.2266 65.9514 53.46C66.3247 53.684 66.7587 53.796 67.2534 53.796C67.5801 53.796 67.8647 53.7586 68.1074 53.684C68.3594 53.6 68.5881 53.474 68.7934 53.306C68.9427 53.1846 69.0967 53.1193 69.2554 53.11C69.4141 53.0913 69.5541 53.1333 69.6754 53.236C69.8341 53.3666 69.9227 53.516 69.9414 53.684C69.9601 53.8426 69.9041 53.9873 69.7734 54.118C69.1014 54.7433 68.2614 55.056 67.2534 55.056Z" fill="#071146"/>
<path d="M78.6576 55.014C78.4523 55.014 78.2796 54.9486 78.1396 54.818C78.0089 54.678 77.9436 54.5053 77.9436 54.3V50.856C77.9436 50.324 77.8456 49.89 77.6496 49.554C77.4536 49.218 77.1876 48.9706 76.8516 48.812C76.5249 48.644 76.1469 48.56 75.7176 48.56C75.3256 48.56 74.9709 48.6393 74.6536 48.798C74.3363 48.9566 74.0843 49.1713 73.8976 49.442C73.7109 49.7033 73.6176 50.0066 73.6176 50.352H72.7356C72.7356 49.764 72.8756 49.2413 73.1556 48.784C73.4449 48.3173 73.8369 47.9486 74.3316 47.678C74.8263 47.4073 75.3816 47.272 75.9976 47.272C76.6416 47.272 77.2156 47.412 77.7196 47.692C78.2329 47.9626 78.6343 48.364 78.9236 48.896C79.2223 49.428 79.3716 50.0813 79.3716 50.856V54.3C79.3716 54.5053 79.3016 54.678 79.1616 54.818C79.0309 54.9486 78.8629 55.014 78.6576 55.014ZM72.9036 55.014C72.6983 55.014 72.5256 54.9486 72.3856 54.818C72.2549 54.678 72.1896 54.5053 72.1896 54.3V48.056C72.1896 47.8413 72.2549 47.6686 72.3856 47.538C72.5256 47.4073 72.6983 47.342 72.9036 47.342C73.1183 47.342 73.2909 47.4073 73.4216 47.538C73.5523 47.6686 73.6176 47.8413 73.6176 48.056V54.3C73.6176 54.5053 73.5523 54.678 73.4216 54.818C73.2909 54.9486 73.1183 55.014 72.9036 55.014ZM72.9036 52.214C72.6983 52.214 72.5256 52.1486 72.3856 52.018C72.2549 51.878 72.1896 51.7053 72.1896 51.5V44.78C72.1896 44.5653 72.2549 44.3926 72.3856 44.262C72.5256 44.1313 72.6983 44.066 72.9036 44.066C73.1183 44.066 73.2909 44.1313 73.4216 44.262C73.5523 44.3926 73.6176 44.5653 73.6176 44.78V51.5C73.6176 51.7053 73.5523 51.878 73.4216 52.018C73.2909 52.1486 73.1183 52.214 72.9036 52.214Z" fill="#071146"/>
<path d="M2.1279 71C1.92257 71 1.7499 70.93 1.6099 70.79C1.4699 70.65 1.3999 70.4773 1.3999 70.272V60.794C1.3999 60.5793 1.4699 60.4066 1.6099 60.276C1.7499 60.136 1.92257 60.066 2.1279 60.066H5.4739C6.10857 60.066 6.6639 60.192 7.1399 60.444C7.62524 60.6866 8.00324 61.0273 8.2739 61.466C8.5539 61.9046 8.6939 62.4086 8.6939 62.978C8.6939 63.4353 8.5679 63.8506 8.3159 64.224C8.07324 64.588 7.73724 64.8773 7.3079 65.092C7.9239 65.2413 8.41857 65.5353 8.7919 65.974C9.16524 66.4126 9.3519 66.9866 9.3519 67.696C9.3519 68.34 9.1979 68.9093 8.8899 69.404C8.59124 69.8986 8.17124 70.2906 7.6299 70.58C7.08857 70.86 6.4679 71 5.7679 71H2.1279ZM2.8559 69.656H5.7679C6.19724 69.656 6.57524 69.5813 6.9019 69.432C7.22857 69.2826 7.48524 69.0633 7.6719 68.774C7.85857 68.4846 7.9519 68.1253 7.9519 67.696C7.9519 67.2946 7.85857 66.9633 7.6719 66.702C7.48524 66.4406 7.22857 66.2446 6.9019 66.114C6.57524 65.974 6.19724 65.904 5.7679 65.904H2.8559V69.656ZM2.8559 64.56H5.4739C6.0059 64.56 6.4399 64.4293 6.7759 64.168C7.12124 63.9066 7.2939 63.51 7.2939 62.978C7.2939 62.446 7.12124 62.054 6.7759 61.802C6.4399 61.5406 6.0059 61.41 5.4739 61.41H2.8559V64.56Z" fill="#071146"/>
<path d="M14.8491 71.056C14.0931 71.056 13.4258 70.8926 12.8471 70.566C12.2684 70.23 11.8111 69.7726 11.4751 69.194C11.1484 68.606 10.9851 67.934 10.9851 67.178C10.9851 66.4126 11.1484 65.7406 11.4751 65.162C11.8111 64.574 12.2684 64.1166 12.8471 63.79C13.4258 63.454 14.0931 63.286 14.8491 63.286C15.5958 63.286 16.2584 63.454 16.8371 63.79C17.4158 64.1166 17.8684 64.574 18.1951 65.162C18.5311 65.7406 18.6991 66.4126 18.6991 67.178C18.6991 67.934 18.5358 68.606 18.2091 69.194C17.8824 69.7726 17.4298 70.23 16.8511 70.566C16.2724 70.8926 15.6051 71.056 14.8491 71.056ZM14.8491 69.796C15.3344 69.796 15.7638 69.684 16.1371 69.46C16.5104 69.236 16.7998 68.928 17.0051 68.536C17.2198 68.144 17.3271 67.6913 17.3271 67.178C17.3271 66.6646 17.2198 66.212 17.0051 65.82C16.7998 65.4186 16.5104 65.106 16.1371 64.882C15.7638 64.658 15.3344 64.546 14.8491 64.546C14.3638 64.546 13.9344 64.658 13.5611 64.882C13.1878 65.106 12.8938 65.4186 12.6791 65.82C12.4644 66.212 12.3571 66.6646 12.3571 67.178C12.3571 67.6913 12.4644 68.144 12.6791 68.536C12.8938 68.928 13.1878 69.236 13.5611 69.46C13.9344 69.684 14.3638 69.796 14.8491 69.796Z" fill="#071146"/>
<path d="M25.5031 71C25.4098 71 25.3211 70.986 25.2371 70.958C25.1531 70.93 25.0738 70.8693 24.9991 70.776L22.5491 67.836L22.0451 67.332L19.6091 64.448C19.4878 64.2986 19.4224 64.14 19.4131 63.972C19.4038 63.7946 19.4504 63.6453 19.5531 63.524C19.6558 63.4026 19.8098 63.342 20.0151 63.342C20.2391 63.342 20.4164 63.4213 20.5471 63.58L22.9411 66.436L23.3051 66.772L25.9371 69.922C26.0771 70.09 26.1424 70.258 26.1331 70.426C26.1331 70.5846 26.0724 70.72 25.9511 70.832C25.8391 70.944 25.6898 71 25.5031 71ZM20.1551 71C19.9684 71 19.8191 70.944 19.7071 70.832C19.6044 70.7106 19.5531 70.566 19.5531 70.398C19.5531 70.23 19.6184 70.062 19.7491 69.894L22.1291 66.912L22.8851 67.976L20.6591 70.776C20.5191 70.9253 20.3511 71 20.1551 71ZM23.6131 67.402L22.6471 66.576L24.9011 63.58C24.9758 63.4866 25.0551 63.426 25.1391 63.398C25.2231 63.3606 25.3164 63.342 25.4191 63.342C25.6244 63.342 25.7784 63.4073 25.8811 63.538C25.9838 63.6593 26.0304 63.8086 26.0211 63.986C26.0211 64.1633 25.9558 64.336 25.8251 64.504L23.6131 67.402Z" fill="#071146"/>
</svg>
