<svg width="1037" height="231" viewBox="0 0 1037 231" fill="none" xmlns="http://www.w3.org/2000/svg">
<g clip-path="url(#clip0)">
<path d="M537.29 68.66C539.11 74.78 539.42 81.91 539.42 89.07C539.42 115.8 525.29 137.47 507.86 137.47C490.43 137.47 476.3 115.8 476.3 89.07C476.289 83.9822 476.816 78.9074 477.87 73.93" stroke="#071146" stroke-width="2" stroke-miterlimit="10"/>
<path d="M493.23 95.79C498.896 95.79 503.49 91.1965 503.49 85.53C503.49 79.8636 498.896 75.27 493.23 75.27C487.564 75.27 482.97 79.8636 482.97 85.53C482.97 91.1965 487.564 95.79 493.23 95.79Z" stroke="#071146" stroke-width="2" stroke-miterlimit="10"/>
<path d="M522.49 95.79C528.156 95.79 532.75 91.1965 532.75 85.53C532.75 79.8636 528.156 75.27 522.49 75.27C516.824 75.27 512.23 79.8636 512.23 85.53C512.23 91.1965 516.824 95.79 522.49 95.79Z" stroke="#071146" stroke-width="2" stroke-miterlimit="10"/>
<path d="M503 85.89C503.377 85.6834 503.732 85.4388 504.06 85.16C505.125 84.5068 506.35 84.1607 507.6 84.16C508.466 84.0764 509.341 84.1304 510.19 84.32C511.044 84.5159 511.81 84.9867 512.37 85.66" stroke="#071146" stroke-width="2" stroke-miterlimit="10"/>
<path d="M532.89 83.73C533.669 82.7781 534.555 81.9191 535.53 81.17C536.261 80.5389 537.143 80.1082 538.09 79.92C539.027 79.8501 539.957 80.1243 540.707 80.6913C541.456 81.2583 541.973 82.0792 542.16 83C542.304 83.9291 542.178 84.8802 541.794 85.7388C541.411 86.5975 540.788 87.3271 540 87.84" stroke="#071146" stroke-width="2" stroke-miterlimit="10"/>
<path d="M483.12 83.18C481.245 82.0268 479.131 81.3186 476.94 81.11C476.61 81.0463 476.27 81.0463 475.94 81.11C475.448 81.3012 475.035 81.6538 474.77 82.11C474.075 83.0377 473.773 84.2016 473.93 85.35C474.015 85.9191 474.262 86.4517 474.642 86.8844C475.021 87.317 475.517 87.6314 476.07 87.79" stroke="#071146" stroke-width="2" stroke-miterlimit="10"/>
<path d="M515.71 117.62C515.737 117.6 515.76 117.574 515.777 117.545C515.795 117.516 515.806 117.484 515.81 117.45C515.805 117.408 515.785 117.37 515.754 117.343C515.722 117.315 515.682 117.3 515.64 117.3C515.555 117.303 515.473 117.327 515.4 117.37C514.231 118.003 513.029 118.574 511.8 119.08C509.388 119.946 506.778 120.102 504.28 119.53C503.92 119.45 503.57 119.35 503.22 119.25C502.87 119.15 500.89 118.43 500.7 118.33C500.516 118.212 500.294 118.169 500.08 118.21C499.975 118.236 499.883 118.301 499.824 118.392C499.764 118.483 499.742 118.593 499.76 118.7C499.806 118.817 499.886 118.918 499.99 118.99C501.223 120.303 502.561 121.513 503.99 122.61C504.695 123.161 505.504 123.565 506.369 123.798C507.233 124.031 508.135 124.088 509.022 123.966C509.909 123.844 510.762 123.545 511.531 123.087C512.3 122.629 512.97 122.021 513.5 121.3C514.433 120.118 515.244 118.845 515.92 117.5L515.71 117.62Z" fill="#071146"/>
<path d="M519.18 53.8C519.3 56.93 521.76 59.59 524.48 61.54C529.383 65.0103 535.163 67.0306 541.16 67.37C542.47 64.68 547.91 38.27 520.99 41.68C520.272 41.835 519.528 41.835 518.81 41.68C518.21 41.4326 517.673 41.0532 517.24 40.57C512.13 35.82 503.57 34.4 496.91 37.2C493 38.87 478.51 53.14 475 70.41C473.94 75.61 476.67 72.77 481.07 72.21C490.392 70.9921 499.36 67.8562 507.41 63C509.64 61.7 519.22 54.89 519.18 53.8Z" fill="#B1DEF5"/>
<path d="M477.91 73.79C479.971 73.3654 482.005 72.8177 484 72.15C490.22 70.1268 496.171 67.353 501.72 63.89C502.72 63.26 512.18 55.89 516.11 52.28C516.38 53.4562 516.968 54.5356 517.81 55.4C523.104 61.3482 529.78 65.9021 537.25 68.66C539.86 63.66 540.25 57.92 539.32 52.31C538.11 44.69 529.41 39.88 521.72 39.26C519.965 39.0002 518.175 39.3534 516.65 40.26C511.77 38.26 506.29 35.95 501.05 35.32C495.81 34.69 490.14 35.65 486.05 39.05C484.357 40.5605 482.901 42.3168 481.73 44.26C475.83 53.46 473.45 63.82 470.73 74.42C473.102 74.4981 475.475 74.2967 477.8 73.82" stroke="#071146" stroke-width="2" stroke-miterlimit="10"/>
<path d="M483.12 121.49C451.5 148.92 440.12 189.35 440.3 227.79" stroke="#071146" stroke-width="2" stroke-linecap="round" stroke-linejoin="round"/>
<path d="M531.28 121.49C562.9 148.92 574.28 189.35 574.1 227.79" stroke="#071146" stroke-width="2" stroke-linecap="round" stroke-linejoin="round"/>
<path d="M467.94 144.92C467.459 147.895 467.261 150.908 467.35 153.92" stroke="white" stroke-width="2" stroke-linecap="round" stroke-linejoin="round"/>
<path d="M476.61 144.92C476.129 147.895 475.931 150.908 476.02 153.92" stroke="white" stroke-width="2" stroke-linecap="round" stroke-linejoin="round"/>
<path d="M485.28 144.92C484.799 147.895 484.601 150.908 484.69 153.92" stroke="white" stroke-width="2" stroke-linecap="round" stroke-linejoin="round"/>
<path d="M493.47 149C493.35 150.62 493.313 152.246 493.36 153.87" stroke="white" stroke-width="2" stroke-linecap="round" stroke-linejoin="round"/>
<path d="M502.09 149.77C502.01 151.143 501.99 152.517 502.03 153.89" stroke="white" stroke-width="2" stroke-linecap="round" stroke-linejoin="round"/>
<path d="M510.72 150.59C510.661 151.689 510.661 152.791 510.72 153.89" stroke="white" stroke-width="2" stroke-linecap="round" stroke-linejoin="round"/>
<path d="M519.45 149.39C519.35 150.89 519.323 152.39 519.37 153.89" stroke="white" stroke-width="2" stroke-linecap="round" stroke-linejoin="round"/>
<path d="M528.63 144.92C528.149 147.895 527.951 150.908 528.04 153.92" stroke="white" stroke-width="2" stroke-linecap="round" stroke-linejoin="round"/>
<path d="M537.3 144.92C536.819 147.895 536.621 150.908 536.71 153.92" stroke="white" stroke-width="2" stroke-linecap="round" stroke-linejoin="round"/>
<path d="M546 144.92C545.519 147.895 545.321 150.908 545.41 153.92" stroke="white" stroke-width="2" stroke-linecap="round" stroke-linejoin="round"/>
<path d="M462.7 163.53C462.219 166.505 462.021 169.518 462.11 172.53" stroke="white" stroke-width="2" stroke-linecap="round" stroke-linejoin="round"/>
<path d="M471.37 163.53C470.889 166.505 470.691 169.518 470.78 172.53" stroke="white" stroke-width="2" stroke-linecap="round" stroke-linejoin="round"/>
<path d="M480 163.53C479.519 166.505 479.321 169.518 479.41 172.53" stroke="white" stroke-width="2" stroke-linecap="round" stroke-linejoin="round"/>
<path d="M488.71 163.53C488.229 166.505 488.031 169.518 488.12 172.53" stroke="white" stroke-width="2" stroke-linecap="round" stroke-linejoin="round"/>
<path d="M497.38 163.53C496.899 166.505 496.701 169.518 496.79 172.53" stroke="white" stroke-width="2" stroke-linecap="round" stroke-linejoin="round"/>
<path d="M506.05 163.53C505.569 166.505 505.371 169.518 505.46 172.53" stroke="white" stroke-width="2" stroke-linecap="round" stroke-linejoin="round"/>
<path d="M514.72 163.53C514.239 166.505 514.041 169.518 514.13 172.53" stroke="white" stroke-width="2" stroke-linecap="round" stroke-linejoin="round"/>
<path d="M523.39 163.53C522.909 166.505 522.711 169.518 522.8 172.53" stroke="white" stroke-width="2" stroke-linecap="round" stroke-linejoin="round"/>
<path d="M532.06 163.53C531.579 166.505 531.381 169.518 531.47 172.53" stroke="white" stroke-width="2" stroke-linecap="round" stroke-linejoin="round"/>
<path d="M540.73 163.53C540.249 166.505 540.051 169.518 540.14 172.53" stroke="white" stroke-width="2" stroke-linecap="round" stroke-linejoin="round"/>
<path d="M549.52 163.53C549.039 166.505 548.841 169.518 548.93 172.53" stroke="white" stroke-width="2" stroke-linecap="round" stroke-linejoin="round"/>
<path d="M462.7 200.76C462.219 203.735 462.021 206.748 462.11 209.76" stroke="white" stroke-width="2" stroke-linecap="round" stroke-linejoin="round"/>
<path d="M454.1 200.76C453.619 203.735 453.421 206.748 453.51 209.76" stroke="white" stroke-width="2" stroke-linecap="round" stroke-linejoin="round"/>
<path d="M471.37 200.76C470.889 203.735 470.691 206.748 470.78 209.76" stroke="white" stroke-width="2" stroke-linecap="round" stroke-linejoin="round"/>
<path d="M480 200.76C479.519 203.735 479.321 206.748 479.41 209.76" stroke="white" stroke-width="2" stroke-linecap="round" stroke-linejoin="round"/>
<path d="M488.71 200.76C488.229 203.735 488.031 206.748 488.12 209.76" stroke="white" stroke-width="2" stroke-linecap="round" stroke-linejoin="round"/>
<path d="M497.38 200.76C496.899 203.735 496.701 206.748 496.79 209.76" stroke="white" stroke-width="2" stroke-linecap="round" stroke-linejoin="round"/>
<path d="M506.05 200.76C505.569 203.735 505.371 206.748 505.46 209.76" stroke="white" stroke-width="2" stroke-linecap="round" stroke-linejoin="round"/>
<path d="M514.72 200.76C514.239 203.735 514.041 206.748 514.13 209.76" stroke="white" stroke-width="2" stroke-linecap="round" stroke-linejoin="round"/>
<path d="M523.39 200.76C522.909 203.735 522.711 206.748 522.8 209.76" stroke="white" stroke-width="2" stroke-linecap="round" stroke-linejoin="round"/>
<path d="M532.06 200.76C531.579 203.735 531.381 206.748 531.47 209.76" stroke="white" stroke-width="2" stroke-linecap="round" stroke-linejoin="round"/>
<path d="M540.73 200.76C540.249 203.735 540.051 206.748 540.14 209.76" stroke="white" stroke-width="2" stroke-linecap="round" stroke-linejoin="round"/>
<path d="M549.52 200.76C549.039 203.735 548.841 206.748 548.93 209.76" stroke="white" stroke-width="2" stroke-linecap="round" stroke-linejoin="round"/>
<path d="M558.18 200.76C557.699 203.735 557.501 206.748 557.59 209.76" stroke="white" stroke-width="2" stroke-linecap="round" stroke-linejoin="round"/>
<path d="M467.94 182.14C467.459 185.115 467.261 188.128 467.35 191.14" stroke="white" stroke-width="2" stroke-linecap="round" stroke-linejoin="round"/>
<path d="M476.61 182.14C476.129 185.115 475.931 188.128 476.02 191.14" stroke="white" stroke-width="2" stroke-linecap="round" stroke-linejoin="round"/>
<path d="M450.07 182.14C449.589 185.115 449.391 188.128 449.48 191.14" stroke="white" stroke-width="2" stroke-linecap="round" stroke-linejoin="round"/>
<path d="M458.74 182.14C458.259 185.115 458.061 188.128 458.15 191.14" stroke="white" stroke-width="2" stroke-linecap="round" stroke-linejoin="round"/>
<path d="M553.84 182.14C553.359 185.115 553.161 188.128 553.25 191.14" stroke="white" stroke-width="2" stroke-linecap="round" stroke-linejoin="round"/>
<path d="M485.28 182.14C484.799 185.115 484.601 188.128 484.69 191.14" stroke="white" stroke-width="2" stroke-linecap="round" stroke-linejoin="round"/>
<path d="M494 182.14C493.519 185.115 493.321 188.128 493.41 191.14" stroke="white" stroke-width="2" stroke-linecap="round" stroke-linejoin="round"/>
<path d="M502.62 182.14C502.139 185.115 501.941 188.128 502.03 191.14" stroke="white" stroke-width="2" stroke-linecap="round" stroke-linejoin="round"/>
<path d="M511.29 182.14C510.809 185.115 510.611 188.128 510.7 191.14" stroke="white" stroke-width="2" stroke-linecap="round" stroke-linejoin="round"/>
<path d="M520 182.14C519.519 185.115 519.321 188.128 519.41 191.14" stroke="white" stroke-width="2" stroke-linecap="round" stroke-linejoin="round"/>
<path d="M528.63 182.14C528.149 185.115 527.951 188.128 528.04 191.14" stroke="white" stroke-width="2" stroke-linecap="round" stroke-linejoin="round"/>
<path d="M537.3 182.14C536.819 185.115 536.621 188.128 536.71 191.14" stroke="white" stroke-width="2" stroke-linecap="round" stroke-linejoin="round"/>
<path d="M546 182.14C545.519 185.115 545.321 188.128 545.41 191.14" stroke="white" stroke-width="2" stroke-linecap="round" stroke-linejoin="round"/>
<path d="M550.35 142.45C559.648 149.396 566.844 158.778 571.14 169.56C575.51 181.28 574.35 194.48 570.42 206.35C566.49 218.22 553.69 223.91 546.22 221.11" stroke="#071146" stroke-width="2" stroke-linecap="round" stroke-linejoin="round"/>
<path d="M536.9 220.82C536.6 220.82 536.66 220.32 536.82 220.06C537.355 219.044 538.131 218.175 539.08 217.53C539.559 217.214 540.113 217.031 540.686 216.999C541.258 216.968 541.829 217.089 542.34 217.35C543.145 218.031 543.823 218.851 544.34 219.77C544.811 220.321 545.334 220.827 545.9 221.28C545.288 220.724 544.535 220.346 543.723 220.187C542.912 220.027 542.072 220.093 541.295 220.376C540.518 220.659 539.833 221.149 539.314 221.793C538.795 222.437 538.461 223.21 538.35 224.03" stroke="#071146" stroke-width="2" stroke-linecap="round" stroke-linejoin="round"/>
<path d="M541.37 227.51C541.624 227.202 541.768 226.819 541.78 226.42C541.969 225.381 542.42 224.408 543.09 223.593C543.76 222.777 544.628 222.146 545.61 221.76C545.85 221.67 546.16 221.62 546.3 221.83" stroke="#071146" stroke-width="2" stroke-linecap="round" stroke-linejoin="round"/>
<path d="M464.57 142.14C455.272 149.086 448.076 158.468 443.78 169.25C439.41 180.97 440.57 194.17 444.5 206.04C448.43 217.91 461.23 223.6 468.7 220.8" stroke="#071146" stroke-width="2" stroke-linecap="round" stroke-linejoin="round"/>
<path d="M478 220.51C478.3 220.51 478.24 220.01 478.08 219.75C477.545 218.734 476.769 217.865 475.82 217.22C475.341 216.904 474.787 216.721 474.214 216.689C473.642 216.658 473.071 216.779 472.56 217.04C471.755 217.721 471.077 218.541 470.56 219.46C470.09 220.022 469.568 220.537 469 221C469.612 220.444 470.365 220.066 471.177 219.907C471.988 219.747 472.828 219.813 473.605 220.096C474.382 220.379 475.067 220.869 475.586 221.513C476.105 222.157 476.439 222.93 476.55 223.75" stroke="#071146" stroke-width="2" stroke-linecap="round" stroke-linejoin="round"/>
<path d="M473.55 227.2C473.296 226.892 473.152 226.509 473.14 226.11C472.951 225.071 472.5 224.098 471.83 223.283C471.16 222.467 470.292 221.836 469.31 221.45C469.07 221.36 468.76 221.31 468.62 221.52" stroke="#071146" stroke-width="2" stroke-linecap="round" stroke-linejoin="round"/>
<path d="M470.85 84.42C470.85 82.2661 469.104 80.52 466.95 80.52C464.796 80.52 463.05 82.2661 463.05 84.42V100.37C463.05 102.524 464.796 104.27 466.95 104.27C469.104 104.27 470.85 102.524 470.85 100.37V84.42Z" stroke="#071146" stroke-width="2" stroke-linecap="round" stroke-linejoin="round"/>
<path d="M552.7 84.42C552.7 82.2661 550.954 80.52 548.8 80.52C546.646 80.52 544.9 82.2661 544.9 84.42V100.37C544.9 102.524 546.646 104.27 548.8 104.27C550.954 104.27 552.7 102.524 552.7 100.37V84.42Z" stroke="#071146" stroke-width="2" stroke-linecap="round" stroke-linejoin="round"/>
<path d="M528 117.25H521.63C520.708 117.25 519.96 117.998 519.96 118.92V118.93C519.96 119.852 520.708 120.6 521.63 120.6H528C528.922 120.6 529.67 119.852 529.67 118.93V118.92C529.67 117.998 528.922 117.25 528 117.25Z" fill="#071146"/>
<path d="M466.95 80.52V73.1C466.982 62.1589 471.342 51.6751 479.079 43.9385C486.815 36.202 497.299 31.8417 508.24 31.81V31.81C519.179 31.8443 529.661 36.2058 537.395 43.942C545.129 51.6783 549.488 62.1607 549.52 73.1V80.59" stroke="#071146" stroke-width="2" stroke-miterlimit="10"/>
<path d="M529.29 118.93H535.4C542.96 118.93 548.96 112.86 548.96 104.27" stroke="#071146" stroke-width="2" stroke-miterlimit="10"/>
<path d="M536 186.75L530.5 175.75V186.45C530.478 186.64 530.387 186.816 530.244 186.944C530.102 187.071 529.917 187.142 529.725 187.142C529.533 187.142 529.349 187.071 529.206 186.944C529.063 186.816 528.972 186.64 528.95 186.45V172.45C528.95 172.243 529.032 172.045 529.178 171.898C529.325 171.752 529.523 171.67 529.73 171.67C529.872 171.665 530.013 171.701 530.135 171.773C530.258 171.846 530.357 171.953 530.42 172.08L536.73 184.7L543 172.08C543.063 171.953 543.162 171.846 543.285 171.773C543.407 171.701 543.548 171.665 543.69 171.67C543.897 171.67 544.095 171.752 544.242 171.898C544.388 172.045 544.47 172.243 544.47 172.45V186.45C544.448 186.64 544.357 186.816 544.214 186.944C544.071 187.071 543.887 187.142 543.695 187.142C543.503 187.142 543.318 187.071 543.176 186.944C543.033 186.816 542.942 186.64 542.92 186.45V175.75L537.37 186.85C537.308 186.972 537.211 187.073 537.092 187.14C536.973 187.208 536.837 187.239 536.7 187.23C536.549 187.229 536.401 187.182 536.277 187.097C536.152 187.011 536.056 186.891 536 186.75Z" fill="#071146"/>
<path d="M535.68 135.31C533.025 140.394 529.028 144.654 524.122 147.627C519.217 150.599 513.591 152.171 507.855 152.171C502.119 152.171 496.493 150.599 491.588 147.627C486.682 144.654 482.685 140.394 480.03 135.31" stroke="white" stroke-width="2" stroke-linecap="round" stroke-linejoin="round"/>
<path d="M535.68 133.44C533.025 138.524 529.028 142.784 524.122 145.757C519.217 148.729 513.591 150.301 507.855 150.301C502.119 150.301 496.493 148.729 491.588 145.757C486.682 142.784 482.685 138.524 480.03 133.44" stroke="#071146" stroke-width="2" stroke-linecap="round" stroke-linejoin="round"/>
<path d="M678.02 188.66H644.23C641.203 188.66 638.75 191.113 638.75 194.14C638.75 197.167 641.203 199.62 644.23 199.62H678.02C681.047 199.62 683.5 197.167 683.5 194.14C683.5 191.113 681.047 188.66 678.02 188.66Z" stroke="white" stroke-width="2" stroke-linecap="round" stroke-linejoin="round"/>
<path d="M646.62 199.61L648.74 229.19H673.4L675.05 199.61" stroke="white" stroke-width="2" stroke-linecap="round" stroke-linejoin="round"/>
<path d="M666.64 188.52C666.87 182.52 669.54 176.85 672.17 171.42C675.382 164.41 678.998 157.592 683 151C688.857 141.775 696.188 133.573 704.7 126.72" stroke="white" stroke-width="2" stroke-linecap="round" stroke-linejoin="round"/>
<path d="M631 122.53C636 127.58 639.57 133.9 642.79 140.25C650.52 155.48 656.93 171.67 658.37 188.65" stroke="white" stroke-width="2" stroke-linecap="round" stroke-linejoin="round"/>
<path d="M620.22 154.08C633.562 161.065 643.709 172.912 648.56 187.17" stroke="white" stroke-width="2" stroke-linecap="round" stroke-linejoin="round"/>
<path d="M674.14 188.18L675.33 183.75C675.688 182.305 676.132 180.882 676.66 179.49C678.016 176.504 679.762 173.709 681.85 171.18L684.72 167.38C685.818 165.724 687.211 164.283 688.83 163.13" stroke="white" stroke-width="2" stroke-linecap="round" stroke-linejoin="round"/>
<path d="M661.66 187.82C661.97 171.08 662.37 153.92 668.51 138.34" stroke="white" stroke-width="2" stroke-linecap="round" stroke-linejoin="round"/>
<path d="M279.1 31.81H272.75C271.093 31.81 269.75 33.1531 269.75 34.81V41.16C269.75 42.8169 271.093 44.16 272.75 44.16H279.1C280.757 44.16 282.1 42.8169 282.1 41.16V34.81C282.1 33.1531 280.757 31.81 279.1 31.81Z" stroke="white" stroke-width="2" stroke-linecap="round" stroke-linejoin="round"/>
<path d="M279.1 53.15H272.75C271.093 53.15 269.75 54.4932 269.75 56.15V62.5C269.75 64.1569 271.093 65.5 272.75 65.5H279.1C280.757 65.5 282.1 64.1569 282.1 62.5V56.15C282.1 54.4932 280.757 53.15 279.1 53.15Z" stroke="white" stroke-width="2" stroke-linecap="round" stroke-linejoin="round"/>
<path d="M292.25 59.32H342.25" stroke="white" stroke-width="2" stroke-linecap="round" stroke-linejoin="round"/>
<path d="M279.1 73.71H272.75C271.093 73.71 269.75 75.0532 269.75 76.71V83.06C269.75 84.7169 271.093 86.06 272.75 86.06H279.1C280.757 86.06 282.1 84.7169 282.1 83.06V76.71C282.1 75.0532 280.757 73.71 279.1 73.71Z" stroke="white" stroke-width="2" stroke-linecap="round" stroke-linejoin="round"/>
<path d="M292.25 79.89H342.25" stroke="white" stroke-width="2" stroke-linecap="round" stroke-linejoin="round"/>
<path d="M292.25 37.99H342.25" stroke="white" stroke-width="2" stroke-linecap="round" stroke-linejoin="round"/>
<path d="M257.827 191.833L257.123 191.257C254.924 189.461 251.686 189.787 249.89 191.985L246.379 196.283C244.582 198.481 244.908 201.719 247.107 203.515L247.812 204.091C250.01 205.887 253.248 205.561 255.044 203.363L258.556 199.065C260.352 196.867 260.026 193.629 257.827 191.833Z" stroke="white" stroke-width="2" stroke-linecap="round" stroke-linejoin="round"/>
<path d="M269.835 177.12L269.13 176.544C266.932 174.748 263.694 175.074 261.898 177.273L258.386 181.57C256.59 183.769 256.916 187.007 259.114 188.803L259.819 189.379C262.017 191.175 265.255 190.849 267.052 188.65L270.563 184.353C272.359 182.154 272.033 178.916 269.835 177.12Z" stroke="white" stroke-width="2" stroke-linecap="round" stroke-linejoin="round"/>
<path d="M253.01 197L264.12 183.4" stroke="white" stroke-width="2" stroke-linecap="round" stroke-linejoin="round"/>
<path d="M827.12 144.21H787.72C785.384 144.21 783.49 146.104 783.49 148.44V199.43C783.49 201.766 785.384 203.66 787.72 203.66H827.12C829.456 203.66 831.35 201.766 831.35 199.43V148.44C831.35 146.104 829.456 144.21 827.12 144.21Z" fill="white"/>
<path d="M816.43 170.92H791.96C790.878 170.92 790 171.798 790 172.88V178.36C790 179.442 790.878 180.32 791.96 180.32H816.43C817.512 180.32 818.39 179.442 818.39 178.36V172.88C818.39 171.798 817.512 170.92 816.43 170.92Z" stroke="#071146" stroke-width="3" stroke-linecap="round" stroke-linejoin="round"/>
<path d="M816.43 184.19H791.96C790.878 184.19 790 185.068 790 186.15V191.63C790 192.712 790.878 193.59 791.96 193.59H816.43C817.512 193.59 818.39 192.712 818.39 191.63V186.15C818.39 185.068 817.512 184.19 816.43 184.19Z" stroke="#071146" stroke-width="3" stroke-linecap="round" stroke-linejoin="round"/>
<path d="M816.43 157.64H791.96C790.878 157.64 790 158.518 790 159.6V165.08C790 166.162 790.878 167.04 791.96 167.04H816.43C817.512 167.04 818.39 166.162 818.39 165.08V159.6C818.39 158.518 817.512 157.64 816.43 157.64Z" stroke="#071146" stroke-width="3" stroke-linecap="round" stroke-linejoin="round"/>
<path d="M823.89 141.34H784.49C782.154 141.34 780.26 143.234 780.26 145.57V196.56C780.26 198.896 782.154 200.79 784.49 200.79H823.89C826.226 200.79 828.12 198.896 828.12 196.56V145.57C828.12 143.234 826.226 141.34 823.89 141.34Z" stroke="#071146" stroke-width="3" stroke-linecap="round" stroke-linejoin="round"/>
<path d="M815.16 154.15C816.938 154.15 818.38 152.708 818.38 150.93C818.38 149.152 816.938 147.71 815.16 147.71C813.382 147.71 811.94 149.152 811.94 150.93C811.94 152.708 813.382 154.15 815.16 154.15Z" stroke="#071146" stroke-width="3" stroke-linecap="round" stroke-linejoin="round"/>
<path d="M356.404 131.075L318.559 143.037C315.742 143.927 314.179 146.933 315.07 149.75L323.719 177.116C324.61 179.933 327.616 181.495 330.433 180.605L368.278 168.643C371.095 167.753 372.657 164.747 371.767 161.93L363.117 134.564C362.227 131.747 359.221 130.185 356.404 131.075Z" fill="white"/>
<path d="M310.63 153.13L337.15 158.7C338.658 159.013 340.222 158.934 341.691 158.47C343.16 158.006 344.485 157.173 345.54 156.05L364.04 136.25" stroke="#071146" stroke-width="3" stroke-linecap="round" stroke-linejoin="round"/>
<path d="M370.89 157.93L348.56 153.23" stroke="#071146" stroke-width="3" stroke-linecap="round" stroke-linejoin="round"/>
<path d="M333.06 158.13L317.48 174.81" stroke="#071146" stroke-width="3" stroke-linecap="round" stroke-linejoin="round"/>
<path d="M354.975 127.307L312.878 140.613C309.755 141.6 308.024 144.932 309.011 148.054L318.522 178.147C319.509 181.27 322.841 183.001 325.963 182.014L368.061 168.709C371.184 167.722 372.915 164.39 371.928 161.267L362.417 131.175C361.43 128.052 358.098 126.32 354.975 127.307Z" stroke="#071146" stroke-width="3" stroke-linecap="round" stroke-linejoin="round"/>
<path d="M773.405 63.7913L744.993 49.9829C742.877 48.9545 740.328 49.8362 739.3 51.9522L729.316 72.4946C728.288 74.6107 729.169 77.1598 731.285 78.1882L759.698 91.9967C761.814 93.0251 764.363 92.1434 765.391 90.0273L775.375 69.4849C776.403 67.3689 775.522 64.8198 773.405 63.7913Z" fill="white"/>
<path d="M734.9 51.43L747.17 69.17C747.868 70.179 748.815 70.9908 749.918 71.5269C751.022 72.0629 752.245 72.3051 753.47 72.23L775 70.91" stroke="#071146" stroke-width="3" stroke-linecap="round" stroke-linejoin="round"/>
<path d="M767.09 87.19L756.75 72.25" stroke="#071146" stroke-width="3" stroke-linecap="round" stroke-linejoin="round"/>
<path d="M745.12 66.6L726.99 67.71" stroke="#071146" stroke-width="3" stroke-linecap="round" stroke-linejoin="round"/>
<path d="M774.643 60.8374L743.038 45.4771C740.694 44.3377 737.869 45.3146 736.73 47.6592L725.75 70.2522C724.61 72.5968 725.587 75.4211 727.932 76.5606L759.537 91.9208C761.881 93.0603 764.706 92.0834 765.845 89.7388L776.825 67.1458C777.965 64.8012 776.988 61.9769 774.643 60.8374Z" stroke="#071146" stroke-width="3" stroke-linecap="round" stroke-linejoin="round"/>
<path d="M39.6 63C39.6227 59.9823 40.3054 57.006 41.6 54.28C43.3752 50.9042 45.4044 47.6683 47.67 44.6C49.5955 42.0827 50.8358 39.1094 51.27 35.97C51.5499 32.9311 51.1538 29.8678 50.11 27C48.23 21.46 45.1933 17.6067 41 15.44C36.8067 13.2734 32.2067 13.0467 27.2 14.76C23.1537 15.9599 19.6171 18.463 17.14 21.88C14.9143 25.1909 13.8584 29.1505 14.14 33.13L5.06 33.31C5.20743 27.4961 7.0495 21.8517 10.36 17.07C13.8664 12.0843 18.9272 8.40207 24.75 6.60002C29.1386 5.1021 33.848 4.80518 38.39 5.74002C42.9937 6.64277 47.2899 8.70825 50.87 11.74C54.4711 14.7278 57.1658 18.6624 58.65 23.1C60.5367 28.6534 61.0033 33.32 60.05 37.1C58.8795 41.3154 57.0029 45.3019 54.5 48.89C52.4533 52.0034 50.9533 54.4767 50 56.31C48.946 58.4297 48.324 60.7378 48.17 63.1C47.9888 66.2471 48.4656 69.3975 49.57 72.35L41.87 75C40.4279 71.1606 39.66 67.1009 39.6 63ZM48 98.71C47.1013 98.3145 46.2959 97.7344 45.6361 97.0074C44.9763 96.2804 44.4767 95.4227 44.17 94.49C43.849 93.5532 43.7234 92.5606 43.8008 91.5734C43.8782 90.5862 44.157 89.6253 44.62 88.75C45.0195 87.8785 45.5915 87.0969 46.3013 86.4524C47.0111 85.8079 47.8441 85.3139 48.75 85C50.6501 84.4058 52.7059 84.5655 54.4914 85.4462C56.2769 86.3268 57.655 87.8608 58.34 89.73C58.6451 90.6551 58.7537 91.6336 58.659 92.6031C58.5643 93.5725 58.2683 94.5115 57.79 95.36C57.3779 96.2478 56.7922 97.0441 56.0674 97.7019C55.3427 98.3597 54.4935 98.8657 53.57 99.19C52.6564 99.4849 51.6931 99.5943 50.7366 99.5119C49.7801 99.4294 48.8497 99.1568 48 98.71Z" fill="white"/>
<path d="M36 59.24C36.0227 56.2223 36.7054 53.246 38 50.52C39.7752 47.1442 41.8044 43.9082 44.07 40.84C45.9955 38.3227 47.2358 35.3494 47.67 32.21C47.9459 29.1957 47.5568 26.1575 46.53 23.31C44.6433 17.77 41.6167 13.91 37.45 11.73C33.2833 9.55001 28.6833 9.30667 23.65 11C19.6037 12.1999 16.0671 14.703 13.59 18.12C11.3643 21.4309 10.3084 25.3905 10.59 29.37L1.5 29.6C1.64744 23.786 3.4895 18.1417 6.8 13.36C10.3013 8.3778 15.3545 4.69598 21.17 2.89001C25.5559 1.3821 30.2653 1.07481 34.81 2.00001C39.4137 2.90275 43.7099 4.96823 47.29 8.00001C50.8911 10.9878 53.5858 14.9224 55.07 19.36C56.9567 24.9133 57.4233 29.58 56.47 33.36C55.3007 37.59 53.4205 41.5904 50.91 45.19C48.87 48.3033 47.3633 50.7733 46.39 52.6C45.336 54.7197 44.714 57.0278 44.56 59.39C44.3915 62.5399 44.882 65.6904 46 68.64L38.32 71.25C36.8597 67.4105 36.0748 63.3472 36 59.24V59.24ZM44.39 95C43.4914 94.6045 42.686 94.0244 42.0261 93.2974C41.3663 92.5704 40.8668 91.7127 40.56 90.78C40.2318 89.8381 40.1015 88.8387 40.1772 87.8441C40.2529 86.8496 40.533 85.8814 41 85C41.3963 84.1172 41.9688 83.3248 42.6825 82.6713C43.3961 82.0179 44.2358 81.5172 45.15 81.2C47.0603 80.6065 49.1262 80.7746 50.9154 81.6692C52.7046 82.5638 54.0786 84.1156 54.75 86C55.0551 86.9251 55.1637 87.9036 55.069 88.873C54.9743 89.8425 54.6783 90.7815 54.2 91.63C53.787 92.5103 53.2029 93.2997 52.4819 93.9521C51.7608 94.6045 50.9171 95.1069 50 95.43C49.0838 95.738 48.1151 95.8587 47.1513 95.7848C46.1876 95.711 45.2485 95.4441 44.39 95V95Z" stroke="#071146" stroke-width="3" stroke-linecap="round" stroke-linejoin="round"/>
<path d="M622.72 42.53C622.721 42.9965 622.813 43.4584 622.99 43.89L629.3 59.49L623.13 74.75C622.942 75.1937 622.843 75.6705 622.841 76.1526C622.839 76.6347 622.933 77.1123 623.117 77.5577C623.302 78.0031 623.573 78.4074 623.915 78.7468C624.257 79.0862 624.664 79.3541 625.111 79.5347C625.558 79.7154 626.036 79.8052 626.518 79.7989C627 79.7926 627.476 79.6904 627.918 79.4982C628.361 79.306 628.76 79.0277 629.093 78.6794C629.427 78.3312 629.687 77.9201 629.86 77.47L636.58 60.84C636.932 59.9674 636.932 58.9926 636.58 58.12L629.72 41.12C629.406 40.336 628.829 39.686 628.087 39.2818C627.346 38.8776 626.487 38.7446 625.658 38.9057C624.829 39.0667 624.082 39.5118 623.546 40.1642C623.009 40.8166 622.717 41.6355 622.72 42.48V42.53Z" stroke="white" stroke-width="2" stroke-linecap="round" stroke-linejoin="round"/>
<path d="M637.62 42.53C637.621 42.9965 637.713 43.4584 637.89 43.89L644.2 59.49L638 74.75C637.812 75.1937 637.713 75.6705 637.711 76.1526C637.709 76.6347 637.803 77.1123 637.987 77.5577C638.172 78.0031 638.443 78.4074 638.785 78.7468C639.127 79.0862 639.534 79.3541 639.981 79.5347C640.428 79.7154 640.906 79.8052 641.388 79.7989C641.87 79.7926 642.346 79.6904 642.788 79.4982C643.231 79.306 643.63 79.0277 643.963 78.6794C644.297 78.3312 644.557 77.9201 644.73 77.47L651.45 60.84C651.802 59.9674 651.802 58.9926 651.45 58.12L644.59 41.12C644.276 40.336 643.699 39.686 642.957 39.2818C642.216 38.8776 641.357 38.7446 640.528 38.9057C639.699 39.0667 638.952 39.5118 638.416 40.1642C637.879 40.8166 637.587 41.6355 637.59 42.48L637.62 42.53Z" stroke="white" stroke-width="2" stroke-linecap="round" stroke-linejoin="round"/>
<path d="M652.52 42.53C652.521 42.9965 652.613 43.4584 652.79 43.89L659.1 59.49L652.93 74.75C652.742 75.1937 652.643 75.6705 652.641 76.1526C652.639 76.6347 652.733 77.1123 652.917 77.5577C653.102 78.0031 653.373 78.4074 653.715 78.7468C654.057 79.0862 654.464 79.3541 654.911 79.5347C655.358 79.7154 655.836 79.8052 656.318 79.7989C656.8 79.7926 657.276 79.6904 657.718 79.4982C658.16 79.306 658.56 79.0277 658.893 78.6794C659.227 78.3312 659.487 77.9201 659.66 77.47L666.38 60.84C666.732 59.9674 666.732 58.9926 666.38 58.12L659.52 41.12C659.206 40.336 658.629 39.686 657.887 39.2818C657.146 38.8776 656.287 38.7446 655.458 38.9057C654.629 39.0667 653.882 39.5118 653.346 40.1642C652.809 40.8166 652.517 41.6355 652.52 42.48V42.53Z" stroke="white" stroke-width="2" stroke-linecap="round" stroke-linejoin="round"/>
<path d="M229.58 115.33H191.62C188.77 115.33 186.46 117.64 186.46 120.49V148.38C186.46 151.23 188.77 153.54 191.62 153.54H229.58C232.43 153.54 234.74 151.23 234.74 148.38V120.49C234.74 117.64 232.43 115.33 229.58 115.33Z" fill="white"/>
<path d="M229.34 110.67H187.19C184.009 110.67 181.43 113.249 181.43 116.43V147.78C181.43 150.961 184.009 153.54 187.19 153.54H229.34C232.521 153.54 235.1 150.961 235.1 147.78V116.43C235.1 113.249 232.521 110.67 229.34 110.67Z" stroke="#071146" stroke-width="3" stroke-linecap="round" stroke-linejoin="round"/>
<path d="M196.24 166.03H220.75" stroke="#071146" stroke-width="3" stroke-linecap="round" stroke-linejoin="round"/>
<path d="M200.69 143.48H216.61" stroke="#071146" stroke-width="3" stroke-linecap="round" stroke-linejoin="round"/>
<path d="M201.59 131.17L208.65 137.11V121.8" stroke="#071146" stroke-width="3" stroke-linecap="round" stroke-linejoin="round"/>
<path d="M215.71 131.17L208.65 137.11" stroke="#071146" stroke-width="3" stroke-linecap="round" stroke-linejoin="round"/>
<path d="M1026.84 69.59H977.41C974.97 69.5979 972.632 70.5708 970.906 72.2963C969.181 74.0218 968.208 76.3598 968.2 78.8V105.1C968.208 107.54 969.181 109.878 970.906 111.604C972.632 113.329 974.97 114.302 977.41 114.31H1011.15L1025.15 127.8L1025.24 114.31H1026.79C1029.23 114.302 1031.57 113.329 1033.29 111.604C1035.02 109.878 1035.99 107.54 1036 105.1V78.8C1035.99 76.3684 1035.03 74.0379 1033.31 72.3138C1031.6 70.5897 1029.27 69.611 1026.84 69.59ZM1023.84 103.5H979.54C978.978 103.462 978.452 103.212 978.067 102.801C977.683 102.39 977.469 101.848 977.469 101.285C977.469 100.722 977.683 100.18 978.067 99.7688C978.452 99.3575 978.978 99.1078 979.54 99.07H1023.81C1024.11 99.0496 1024.42 99.0918 1024.7 99.1938C1024.99 99.2959 1025.25 99.4557 1025.48 99.6634C1025.7 99.8711 1025.87 100.122 1026 100.401C1026.12 100.68 1026.18 100.981 1026.18 101.285C1026.18 101.589 1026.12 101.89 1026 102.169C1025.87 102.448 1025.7 102.699 1025.48 102.907C1025.25 103.114 1024.99 103.274 1024.7 103.376C1024.42 103.478 1024.11 103.52 1023.81 103.5H1023.84ZM1023.84 94.61H979.54C978.951 94.61 978.387 94.3761 977.97 93.9598C977.554 93.5434 977.32 92.9788 977.32 92.39C977.32 91.8012 977.554 91.2366 977.97 90.8202C978.387 90.4039 978.951 90.17 979.54 90.17H1023.81C1024.4 90.17 1024.96 90.4039 1025.38 90.8202C1025.8 91.2366 1026.03 91.8012 1026.03 92.39C1026.03 92.9788 1025.8 93.5434 1025.38 93.9598C1024.96 94.3761 1024.4 94.61 1023.81 94.61H1023.84ZM1023.84 85.72H979.54C978.951 85.72 978.387 85.4861 977.97 85.0698C977.554 84.6534 977.32 84.0888 977.32 83.5C977.32 82.9112 977.554 82.3466 977.97 81.9302C978.387 81.5139 978.951 81.28 979.54 81.28H1023.81C1024.4 81.28 1024.96 81.5139 1025.38 81.9302C1025.8 82.3466 1026.03 82.9112 1026.03 83.5C1026.03 84.0888 1025.8 84.6534 1025.38 85.0698C1024.96 85.4861 1024.4 85.72 1023.81 85.72H1023.84Z" fill="white"/>
<path d="M947.55 74.8H949.1L949.19 88.29L963.19 74.8H997C999.44 74.7921 1001.78 73.8192 1003.5 72.0937C1005.23 70.3682 1006.2 68.0302 1006.21 65.59V39.29C1006.2 36.8498 1005.23 34.5118 1003.5 32.7863C1001.78 31.0608 999.44 30.0879 997 30.08H947.55C945.11 30.0879 942.772 31.0608 941.046 32.7863C939.321 34.5118 938.348 36.8498 938.34 39.29V65.59C938.348 68.0302 939.321 70.3682 941.046 72.0937C942.772 73.8192 945.11 74.7921 947.55 74.8V74.8Z" stroke="#071146" stroke-width="2" stroke-linecap="round" stroke-linejoin="round"/>
<path d="M956.53 56.85C958.949 56.85 960.91 54.889 960.91 52.47C960.91 50.051 958.949 48.09 956.53 48.09C954.111 48.09 952.15 50.051 952.15 52.47C952.15 54.889 954.111 56.85 956.53 56.85Z" fill="white"/>
<path d="M972.27 56.85C974.689 56.85 976.65 54.889 976.65 52.47C976.65 50.051 974.689 48.09 972.27 48.09C969.851 48.09 967.89 50.051 967.89 52.47C967.89 54.889 969.851 56.85 972.27 56.85Z" fill="white"/>
<path d="M988.01 56.85C990.429 56.85 992.39 54.889 992.39 52.47C992.39 50.051 990.429 48.09 988.01 48.09C985.591 48.09 983.63 50.051 983.63 52.47C983.63 54.889 985.591 56.85 988.01 56.85Z" fill="white"/>
<path d="M957.62 57.56C960.039 57.56 962 55.599 962 53.18C962 50.761 960.039 48.8 957.62 48.8C955.201 48.8 953.24 50.761 953.24 53.18C953.24 55.599 955.201 57.56 957.62 57.56Z" stroke="#071146" stroke-width="2" stroke-linecap="round" stroke-linejoin="round"/>
<path d="M973.36 57.56C975.779 57.56 977.74 55.599 977.74 53.18C977.74 50.761 975.779 48.8 973.36 48.8C970.941 48.8 968.98 50.761 968.98 53.18C968.98 55.599 970.941 57.56 973.36 57.56Z" stroke="#071146" stroke-width="2" stroke-linecap="round" stroke-linejoin="round"/>
<path d="M989.11 57.56C991.529 57.56 993.49 55.599 993.49 53.18C993.49 50.761 991.529 48.8 989.11 48.8C986.691 48.8 984.73 50.761 984.73 53.18C984.73 55.599 986.691 57.56 989.11 57.56Z" stroke="#071146" stroke-width="2" stroke-linecap="round" stroke-linejoin="round"/>
<path d="M902.83 101.55C903.143 101.5 903.43 101.347 903.645 101.115C903.861 100.883 903.993 100.585 904.02 100.27C904.02 99.75 904.09 99.27 904.09 98.7C904.09 98.13 904.09 97.65 904.02 97.13C903.993 96.8145 903.861 96.5172 903.645 96.2852C903.43 96.0533 903.143 95.9001 902.83 95.85L900.68 95.51C900.406 95.4641 900.151 95.3394 899.947 95.1511C899.743 94.9629 899.598 94.7193 899.53 94.45V94.45C899.45 94.1809 899.451 93.8943 899.533 93.6258C899.615 93.3573 899.774 93.1188 899.99 92.94L901.69 91.57C901.934 91.3767 902.106 91.107 902.179 90.8042C902.251 90.5013 902.22 90.1829 902.09 89.9C901.635 88.9506 901.106 88.0379 900.51 87.17C900.332 86.9037 900.069 86.7054 899.764 86.6074C899.459 86.5093 899.13 86.5173 898.83 86.63L896.83 87.42C896.569 87.5172 896.285 87.5358 896.013 87.4737C895.741 87.4115 895.493 87.2712 895.3 87.07V87.07C895.099 86.8769 894.959 86.6291 894.896 86.3573C894.834 86.0855 894.853 85.8014 894.95 85.54L895.74 83.54C895.853 83.2401 895.861 82.9109 895.763 82.6059C895.665 82.3009 895.466 82.0381 895.2 81.86C894.332 81.2638 893.419 80.7356 892.47 80.28C892.187 80.15 891.869 80.1187 891.566 80.1913C891.263 80.2638 890.993 80.4359 890.8 80.68L889.43 82.38C889.251 82.5964 889.013 82.7554 888.744 82.8372C888.476 82.919 888.189 82.92 887.92 82.84C887.651 82.772 887.407 82.627 887.219 82.4228C887.031 82.2185 886.906 81.9639 886.86 81.69L886.52 79.54C886.47 79.2273 886.317 78.9404 886.085 78.7248C885.853 78.5091 885.555 78.3772 885.24 78.35C884.72 78.35 884.24 78.28 883.67 78.28C883.1 78.28 882.62 78.28 882.1 78.35C881.784 78.3772 881.487 78.5091 881.255 78.7248C881.023 78.9404 880.87 79.2273 880.82 79.54L880.48 81.69C880.434 81.9639 880.309 82.2185 880.121 82.4228C879.933 82.627 879.689 82.772 879.42 82.84V82.84C879.151 82.92 878.864 82.919 878.596 82.8372C878.327 82.7554 878.089 82.5964 877.91 82.38L876.54 80.68C876.347 80.4359 876.077 80.2638 875.774 80.1913C875.471 80.1187 875.153 80.15 874.87 80.28C873.875 80.7 872.916 81.1982 872 81.77C871.734 81.9481 871.535 82.2109 871.437 82.5159C871.339 82.8209 871.347 83.1501 871.46 83.45L872.25 85.45C872.347 85.7114 872.366 85.9955 872.304 86.2673C872.241 86.5392 872.101 86.7869 871.9 86.98V86.98C871.707 87.1812 871.459 87.3215 871.187 87.3837C870.915 87.4459 870.631 87.4272 870.37 87.33L868.37 86.54C868.07 86.4273 867.741 86.4193 867.436 86.5174C867.131 86.6154 866.868 86.8137 866.69 87.08C866.094 87.9479 865.565 88.8606 865.11 89.81C864.98 90.0929 864.949 90.4113 865.021 90.7142C865.094 91.017 865.266 91.2867 865.51 91.48L867.21 92.85C867.426 93.0288 867.585 93.2673 867.667 93.5358C867.749 93.8043 867.75 94.0909 867.67 94.36V94.36C867.602 94.6293 867.457 94.8729 867.253 95.0611C867.049 95.2494 866.794 95.3741 866.52 95.42L864.37 95.76C864.057 95.8101 863.77 95.9633 863.555 96.1952C863.339 96.4272 863.207 96.7245 863.18 97.04C863.18 97.56 863.11 98.04 863.11 98.61C863.11 99.18 863.11 99.66 863.18 100.18C863.207 100.495 863.339 100.793 863.555 101.025C863.77 101.257 864.057 101.41 864.37 101.46L866.52 101.8C866.794 101.846 867.049 101.971 867.253 102.159C867.457 102.347 867.602 102.591 867.67 102.86V102.86C867.75 103.129 867.749 103.416 867.667 103.684C867.585 103.953 867.426 104.191 867.21 104.37L865.51 105.74C865.266 105.933 865.094 106.203 865.021 106.506C864.949 106.809 864.98 107.127 865.11 107.41C865.566 108.359 866.094 109.272 866.69 110.14C866.868 110.406 867.131 110.605 867.436 110.703C867.741 110.801 868.07 110.793 868.37 110.68L870.37 109.89C870.631 109.793 870.915 109.774 871.187 109.836C871.459 109.899 871.707 110.039 871.9 110.24V110.24C872.101 110.433 872.241 110.681 872.304 110.953C872.366 111.225 872.347 111.509 872.25 111.77L871.46 113.77C871.347 114.07 871.339 114.399 871.437 114.704C871.535 115.009 871.734 115.272 872 115.45C872.868 116.046 873.781 116.574 874.73 117.03C875.013 117.16 875.331 117.191 875.634 117.119C875.937 117.046 876.207 116.874 876.4 116.63L877.77 114.93C877.949 114.714 878.187 114.555 878.456 114.473C878.724 114.391 879.011 114.39 879.28 114.47V114.47C879.549 114.538 879.793 114.683 879.981 114.887C880.169 115.091 880.294 115.346 880.34 115.62L880.68 117.77C880.73 118.083 880.883 118.37 881.115 118.585C881.347 118.801 881.645 118.933 881.96 118.96C882.48 118.96 882.96 119.03 883.53 119.03C884.1 119.03 884.58 119.03 885.1 118.96C885.415 118.933 885.713 118.801 885.945 118.585C886.177 118.37 886.33 118.083 886.38 117.77L886.72 115.62C886.766 115.346 886.891 115.091 887.079 114.887C887.267 114.683 887.511 114.538 887.78 114.47V114.47C888.049 114.39 888.336 114.391 888.604 114.473C888.873 114.555 889.111 114.714 889.29 114.93L890.66 116.63C890.853 116.874 891.123 117.046 891.426 117.119C891.729 117.191 892.047 117.16 892.33 117.03C893.279 116.574 894.192 116.046 895.06 115.45C895.326 115.272 895.525 115.009 895.623 114.704C895.721 114.399 895.713 114.07 895.6 113.77L894.81 111.77C894.713 111.509 894.694 111.225 894.756 110.953C894.819 110.681 894.959 110.433 895.16 110.24V110.24C895.353 110.039 895.601 109.899 895.873 109.836C896.145 109.774 896.429 109.793 896.69 109.89L898.69 110.68C898.99 110.793 899.319 110.801 899.624 110.703C899.929 110.605 900.192 110.406 900.37 110.14C900.966 109.272 901.494 108.359 901.95 107.41C902.08 107.127 902.111 106.809 902.039 106.506C901.966 106.203 901.794 105.933 901.55 105.74L899.85 104.37C899.634 104.191 899.475 103.953 899.393 103.684C899.311 103.416 899.31 103.129 899.39 102.86V102.86C899.458 102.591 899.603 102.347 899.807 102.159C900.011 101.971 900.266 101.846 900.54 101.8L902.83 101.55Z" stroke="white" stroke-width="2" stroke-linecap="round" stroke-linejoin="round"/>
<path d="M883.58 89C881.669 89 879.802 89.5666 878.213 90.628C876.625 91.6895 875.386 93.1981 874.655 94.9633C873.924 96.7284 873.733 98.6707 874.106 100.545C874.478 102.418 875.398 104.14 876.749 105.491C878.1 106.842 879.822 107.762 881.695 108.134C883.569 108.507 885.512 108.316 887.277 107.585C889.042 106.854 890.551 105.615 891.612 104.027C892.673 102.438 893.24 100.571 893.24 98.66C893.24 96.098 892.222 93.6409 890.411 91.8293C888.599 90.0177 886.142 89 883.58 89V89Z" stroke="white" stroke-width="2" stroke-linecap="round" stroke-linejoin="round"/>
<path d="M124.71 68C123.747 66.7274 123.093 65.2485 122.8 63.68C122.663 62.8909 122.699 62.0815 122.907 61.3079C123.114 60.5343 123.487 59.815 124 59.2C124.899 58.3595 126.004 57.7708 127.203 57.4934C128.402 57.216 129.653 57.2597 130.83 57.62C131.343 57.81 131.805 58.1152 132.182 58.5123C132.558 58.9094 132.838 59.3876 133 59.91C133.695 58.73 134.781 57.8303 136.07 57.3666C137.359 56.9029 138.769 56.9043 140.056 57.3708C141.344 57.8372 142.428 58.7392 143.121 59.9206C143.814 61.102 144.072 62.4885 143.85 63.84C143.599 65.0159 143.145 66.1392 142.51 67.16C141.308 69.2975 139.93 71.3312 138.39 73.24C136.74 75.24 133.67 77.53 131.39 75.12C129.11 72.71 126.56 70.62 124.71 68Z" fill="white"/>
<path d="M101.327 166.905L73.0118 152.899C70.903 151.855 68.3478 152.719 67.3046 154.828L57.1777 175.3C56.1346 177.409 56.9985 179.964 59.1073 181.008L87.4224 195.014C89.5312 196.057 92.0864 195.193 93.1296 193.085L103.257 172.612C104.3 170.503 103.436 167.948 101.327 166.905Z" fill="white"/>
<path d="M62.89 154.33L75 172.15C75.6904 173.165 76.6313 173.985 77.7315 174.53C78.8318 175.075 80.054 175.326 81.28 175.26L102.81 174.1" stroke="#071146" stroke-width="3" stroke-linecap="round" stroke-linejoin="round"/>
<path d="M94.83 190.32L84.6 175.31" stroke="#071146" stroke-width="3" stroke-linecap="round" stroke-linejoin="round"/>
<path d="M73 169.58L54.87 170.55" stroke="#071146" stroke-width="3" stroke-linecap="round" stroke-linejoin="round"/>
<path d="M102.599 163.968L71.1023 148.387C68.7658 147.231 65.9347 148.188 64.7789 150.525L53.6411 173.041C52.4853 175.377 53.4424 178.208 55.779 179.364L87.2761 194.945C89.6126 196.101 92.4437 195.143 93.5995 192.807L104.737 170.291C105.893 167.954 104.936 165.123 102.599 163.968Z" stroke="#071146" stroke-width="3" stroke-linecap="round" stroke-linejoin="round"/>
<path d="M990.65 227.69V183.42C990.649 182.773 990.49 182.136 990.185 181.566C989.88 180.995 989.439 180.508 988.901 180.149C988.363 179.789 987.745 179.567 987.102 179.503C986.458 179.438 985.808 179.534 985.21 179.78L934.81 200.55L884.41 179.78C883.812 179.534 883.162 179.438 882.518 179.503C881.875 179.567 881.257 179.789 880.719 180.149C880.181 180.508 879.74 180.995 879.435 181.566C879.13 182.136 878.971 182.773 878.97 183.42V227.68" stroke="white" stroke-width="2" stroke-linecap="round" stroke-linejoin="round"/>
<path d="M938.75 227.69V207.45L982.77 189.31V227.69" stroke="white" stroke-width="2" stroke-linecap="round" stroke-linejoin="round"/>
<path d="M886.85 227.69V189.31L930.87 207.45V227.69" stroke="white" stroke-width="2" stroke-linecap="round" stroke-linejoin="round"/>
</g>
<defs>
<clipPath id="clip0">
<rect width="1036.05" height="230.19" fill="white"/>
</clipPath>
</defs>
</svg>
