<svg width="41" height="37" viewBox="0 0 41 37" fill="none" xmlns="http://www.w3.org/2000/svg">
<path d="M37.4349 12.7845H3.56531C2.3769 12.7845 1.4856 11.8821 1.4856 10.8293V3.60975C1.4856 2.4065 2.3769 1.50406 3.56531 1.50406H37.4349C38.6233 1.50406 39.5146 2.4065 39.5146 3.60975V10.8293C39.5146 11.8821 38.6233 12.7845 37.4349 12.7845Z" fill="white" stroke="#0052CC" stroke-width="2" stroke-miterlimit="10" stroke-linecap="round" stroke-linejoin="round"/>
<path d="M14.7066 8.42277C15.2809 8.42277 15.7465 7.9514 15.7465 7.36992C15.7465 6.78845 15.2809 6.31708 14.7066 6.31708C14.1323 6.31708 13.6667 6.78845 13.6667 7.36992C13.6667 7.9514 14.1323 8.42277 14.7066 8.42277Z" fill="#0052CC"/>
<path d="M33.2754 9.92682C34.6701 9.92682 35.8007 8.78206 35.8007 7.36991C35.8007 5.95777 34.6701 4.813 33.2754 4.813C31.8806 4.813 30.75 5.95777 30.75 7.36991C30.75 8.78206 31.8806 9.92682 33.2754 9.92682Z" stroke="#0052CC" stroke-width="2" stroke-miterlimit="10" stroke-linecap="round" stroke-linejoin="round"/>
<path d="M10.1016 8.42277C10.6759 8.42277 11.1415 7.9514 11.1415 7.36992C11.1415 6.78845 10.6759 6.31708 10.1016 6.31708C9.52733 6.31708 9.06177 6.78845 9.06177 7.36992C9.06177 7.9514 9.52733 8.42277 10.1016 8.42277Z" fill="#0052CC"/>
<path d="M5.4964 8.42277C6.07069 8.42277 6.53625 7.9514 6.53625 7.36992C6.53625 6.78845 6.07069 6.31708 5.4964 6.31708C4.9221 6.31708 4.45654 6.78845 4.45654 7.36992C4.45654 7.9514 4.9221 8.42277 5.4964 8.42277Z" fill="#0052CC"/>
<path d="M37.4349 24.2154H3.56531C2.3769 24.2154 1.4856 23.313 1.4856 22.1097V14.8902C1.4856 13.687 2.3769 12.7845 3.56531 12.7845H37.4349C38.6233 12.7845 39.5146 13.687 39.5146 14.8902V22.1097C39.5146 23.313 38.6233 24.2154 37.4349 24.2154Z" fill="white" stroke="#0052CC" stroke-width="2" stroke-miterlimit="10" stroke-linecap="round" stroke-linejoin="round"/>
<path d="M14.7066 19.8536C15.2809 19.8536 15.7465 19.3823 15.7465 18.8008C15.7465 18.2193 15.2809 17.748 14.7066 17.748C14.1323 17.748 13.6667 18.2193 13.6667 18.8008C13.6667 19.3823 14.1323 19.8536 14.7066 19.8536Z" fill="#0052CC"/>
<path d="M33.2754 21.3577C34.6701 21.3577 35.8007 20.213 35.8007 18.8008C35.8007 17.3887 34.6701 16.2439 33.2754 16.2439C31.8806 16.2439 30.75 17.3887 30.75 18.8008C30.75 20.213 31.8806 21.3577 33.2754 21.3577Z" stroke="#0052CC" stroke-width="2" stroke-miterlimit="10" stroke-linecap="round" stroke-linejoin="round"/>
<path d="M10.1014 19.8536C10.6757 19.8536 11.1412 19.3823 11.1412 18.8008C11.1412 18.2193 10.6757 17.748 10.1014 17.748C9.52708 17.748 9.06152 18.2193 9.06152 18.8008C9.06152 19.3823 9.52708 19.8536 10.1014 19.8536Z" fill="#0052CC"/>
<path d="M5.4964 19.8536C6.07069 19.8536 6.53625 19.3823 6.53625 18.8008C6.53625 18.2193 6.07069 17.748 5.4964 17.748C4.9221 17.748 4.45654 18.2193 4.45654 18.8008C4.45654 19.3823 4.9221 19.8536 5.4964 19.8536Z" fill="#0052CC"/>
<path d="M37.4349 35.4959H3.56531C2.3769 35.4959 1.4856 34.5935 1.4856 33.5406V26.3211C1.4856 25.1179 2.3769 24.2154 3.56531 24.2154H37.4349C38.6233 24.2154 39.5146 25.1179 39.5146 26.3211V33.5406C39.5146 34.5935 38.6233 35.4959 37.4349 35.4959Z" fill="white" stroke="#0052CC" stroke-width="2" stroke-miterlimit="10" stroke-linecap="round" stroke-linejoin="round"/>
<path d="M14.7066 31.1341C15.2809 31.1341 15.7465 30.6628 15.7465 30.0813C15.7465 29.4998 15.2809 29.0284 14.7066 29.0284C14.1323 29.0284 13.6667 29.4998 13.6667 30.0813C13.6667 30.6628 14.1323 31.1341 14.7066 31.1341Z" fill="#0052CC"/>
<path d="M33.2754 32.6382C34.6701 32.6382 35.8007 31.4934 35.8007 30.0813C35.8007 28.6692 34.6701 27.5244 33.2754 27.5244C31.8806 27.5244 30.75 28.6692 30.75 30.0813C30.75 31.4934 31.8806 32.6382 33.2754 32.6382Z" stroke="#0052CC" stroke-width="2" stroke-miterlimit="10" stroke-linecap="round" stroke-linejoin="round"/>
<path d="M10.1014 31.1341C10.6757 31.1341 11.1412 30.6628 11.1412 30.0813C11.1412 29.4998 10.6757 29.0284 10.1014 29.0284C9.52708 29.0284 9.06152 29.4998 9.06152 30.0813C9.06152 30.6628 9.52708 31.1341 10.1014 31.1341Z" fill="#0052CC"/>
<path d="M5.4964 31.1341C6.07069 31.1341 6.53625 30.6628 6.53625 30.0813C6.53625 29.4998 6.07069 29.0284 5.4964 29.0284C4.9221 29.0284 4.45654 29.4998 4.45654 30.0813C4.45654 30.6628 4.9221 31.1341 5.4964 31.1341Z" fill="#0052CC"/>
</svg>
