<svg width="44" height="43" viewBox="0 0 44 43" fill="none" xmlns="http://www.w3.org/2000/svg">
<g clip-path="url(#clip0)">
<path d="M10.7001 10.2L19.8001 22.3C20.5001 23.3 21.7001 23.8 23.0001 23.7L38.1001 22.1C38.4001 22.1 38.6001 22.1 38.8001 22.2L39.4001 20.8C40.1001 19.1 39.4001 17.2 37.7001 16.4L15.1001 6.70002C13.4001 6.00002 11.5001 6.70002 10.7001 8.40002L10.1001 9.80002C10.4001 9.90002 10.6001 10 10.7001 10.2Z" fill="#B1DEF5"/>
<path d="M9.19995 11.9L12.8 16.6L7.19995 16.3L9.19995 11.9Z" fill="#B1DEF5"/>
<path d="M32.4999 25.6L37.8999 25.2L31.8999 37.2L32.4999 25.6Z" fill="#B1DEF5"/>
<path d="M27 5.49999L23.4 3.89999C23.1 3.79999 22.7 3.89999 22.6 4.19999L21.6 6.49999C21.5 6.79999 21.6 7.19999 21.9 7.29999L25.5 8.89999C25.8 8.99999 26.2 8.89999 26.3 8.59999L27.3 6.29999C27.5 5.99999 27.4 5.59999 27 5.49999Z" fill="#B1DEF5"/>
<path d="M34.5 8.7L30.9 7.1C30.6 7 30.2 7.1 30.1 7.4L29.1 9.7C29 10 29.1 10.4 29.4 10.5L33 12.1C33.3 12.2 33.7 12.1 33.8 11.8L34.8 9.5C35 9.2 34.8 8.9 34.5 8.7Z" fill="#B1DEF5"/>
<path d="M33.8 1.60002L30.2 2.44156e-05C29.9 -0.0999756 29.5 2.44081e-05 29.4 0.300024L28.4 2.60002C28.3 2.90002 28.4 3.30002 28.7 3.40002L32.3 5.00002C32.6 5.10002 33 5.00002 33.1 4.70002L34.1 2.40002C34.2 2.20002 34.1 1.80002 33.8 1.60002Z" fill="#B1DEF5"/>
<path d="M41.3 4.90001L37.7 3.30001C37.4 3.20001 37 3.30001 36.9 3.60001L35.9 5.90001C35.8 6.20001 35.9 6.60001 36.2 6.70001L39.8 8.30001C40.1 8.40001 40.5 8.30001 40.6 8.00001L41.6 5.70001C41.7 5.40001 41.6 5.10001 41.3 4.90001Z" fill="#B1DEF5"/>
<path d="M17 33.5C15.8 33.6 14.6 33.3 13.5 32.7L1 25.6V38.5C1 40.3 2.5 41.8 4.3 41.8H29C30.8 41.8 32.3 40.3 32.3 38.5V25.6L19.8 32.6C19 33.2 18 33.4 17 33.5Z" stroke="#0052CC" stroke-width="2" stroke-miterlimit="10" stroke-linecap="round" stroke-linejoin="round"/>
<path d="M14.8999 29.5C15.9999 30.1 17.2999 30.1 18.2999 29.5C18.2999 29.5 31.9999 21.8 32.1999 21.5V20.3C32.1999 18.5 30.6999 17 28.8999 17H4.1999C2.3999 17 0.899902 18.5 0.899902 20.3V21.5C1.0999 21.6 1.3999 21.8 1.6999 22L14.8999 29.5Z" stroke="#0052CC" stroke-width="2" stroke-miterlimit="10" stroke-linecap="round" stroke-linejoin="round"/>
<path d="M38.9042 38.1669L35.0911 31.0578C34.9515 30.8463 35.2197 30.6085 35.416 30.7219L43.431 33.3863C43.7047 33.4789 43.7103 33.8093 43.478 33.8715L40.408 35.109C40.3306 35.1297 40.2739 35.2279 40.2946 35.3053L39.4102 38.1972C39.3535 38.2954 39.0231 38.3009 38.9042 38.1669Z" fill="#0052CC"/>
</g>
<defs>
<clipPath id="clip0">
<rect width="44" height="42.9" fill="white"/>
</clipPath>
</defs>
</svg>
