<svg width="40" height="39" viewBox="0 0 40 39" fill="none" xmlns="http://www.w3.org/2000/svg">
<path d="M1 37.5533L7.53322 31.1734" stroke="#0052CC" stroke-width="2" stroke-miterlimit="10" stroke-linecap="round" stroke-linejoin="round"/>
<path d="M1.85205 31.7281L4.40853 28.9543" stroke="#0052CC" stroke-width="2" stroke-miterlimit="10" stroke-linecap="round" stroke-linejoin="round"/>
<path d="M7.24927 36.7211L9.80575 33.9472" stroke="#0052CC" stroke-width="2" stroke-miterlimit="10" stroke-linecap="round" stroke-linejoin="round"/>
<path d="M25.9968 17.3041C28.1931 17.3041 29.9735 15.5654 29.9735 13.4207C29.9735 11.276 28.1931 9.53731 25.9968 9.53731C23.8005 9.53731 22.02 11.276 22.02 13.4207C22.02 15.5654 23.8005 17.3041 25.9968 17.3041Z" stroke="#0052CC" stroke-width="2" stroke-miterlimit="10" stroke-linecap="round" stroke-linejoin="round"/>
<path d="M8.66943 19.5232L20.0316 30.0638L32.5299 20.0779C32.5299 20.0779 37.0747 15.6398 38.495 11.479C39.6312 7.5956 38.495 1.49313 38.495 1.49313C38.495 1.49313 33.6661 0.383588 28.2691 1.49313C24.2924 2.32529 19.4635 6.48606 19.4635 6.48606L8.66943 19.5232Z" stroke="#0052CC" stroke-width="2" stroke-miterlimit="10" stroke-linecap="round" stroke-linejoin="round"/>
<path d="M27.417 1.77051L38.211 12.0338" stroke="#0052CC" stroke-width="2" stroke-miterlimit="10" stroke-linecap="round" stroke-linejoin="round"/>
<path d="M8.10122 19.2458L1.85205 17.8589C1.85205 17.8589 4.12448 14.2529 7.53311 12.0338C11.2258 9.8147 16.6228 9.53731 16.6228 9.53731" stroke="#0052CC" stroke-width="2" stroke-miterlimit="10" stroke-linecap="round" stroke-linejoin="round"/>
<path d="M8.66949 19.5232L7.53328 22.8518C7.24922 23.9614 7.53328 25.0709 8.38544 25.6257L12.9303 30.0638C13.7824 30.896 14.9187 31.1734 15.7708 30.896L20.0316 30.0638L21.4519 36.1663C21.4519 36.1663 25.1446 33.9472 27.417 30.6186C29.6894 27.0126 29.7841 22.2757 29.7841 22.2757" stroke="#0052CC" stroke-width="2" stroke-miterlimit="10" stroke-linecap="round" stroke-linejoin="round"/>
</svg>
