<svg width="126" height="126" viewBox="0 0 126 126" fill="none" xmlns="http://www.w3.org/2000/svg">
<path d="M94.4917 93.4197C111.492 75.8269 111.013 47.7833 93.4197 30.7826C75.8269 13.7818 47.7833 14.2618 30.7826 31.8546C13.7818 49.4474 14.2618 77.491 31.8546 94.4917C49.4474 111.492 77.491 111.013 94.4917 93.4197Z" fill="#B1DEF5"/>
<path d="M78.5495 78.4967L47.5354 77.9413C45.1832 77.9469 43.2887 76.063 43.3218 73.8311L42.9661 52.0291C42.8794 49.7403 44.7528 47.9618 47.0505 48.0708L78.0646 48.6262C80.4168 48.6206 82.3113 50.5045 82.2783 52.7363L82.6339 74.5384C82.7206 76.8272 80.8473 78.6057 78.5495 78.4967Z" fill="white"/>
<path d="M43.0887 55.5302L59.8162 64.9302C61.8054 66.0075 64.1468 66.0673 65.9864 64.967L82.7115 55.5396" stroke="#071146" stroke-width="2" stroke-miterlimit="10" stroke-linecap="round" stroke-linejoin="round"/>
<path d="M82.712 71.6014L68.6744 63.7434" stroke="#071146" stroke-width="2" stroke-miterlimit="10" stroke-linecap="round" stroke-linejoin="round"/>
<path d="M57.2389 63.705L43.0891 71.5919" stroke="#071146" stroke-width="2" stroke-miterlimit="10" stroke-linecap="round" stroke-linejoin="round"/>
<path d="M78.4837 78.2804L47.265 78.3165C44.9237 78.2567 43.0259 76.433 43.0857 74.0917L43.0657 51.7013C43.1255 49.36 44.9492 47.4623 47.2905 47.5221L78.5092 47.4859C80.8505 47.5457 82.7483 49.3694 82.6885 51.7107L82.7086 74.1011C82.6998 76.3351 80.8251 78.3402 78.4837 78.2804Z" stroke="#071146" stroke-width="2" stroke-miterlimit="10" stroke-linecap="round" stroke-linejoin="round"/>
<path d="M57.8029 34.2065L40.234 33.8919C38.9015 33.895 37.8283 32.8278 37.847 31.5635L37.6456 19.2131C37.5964 17.9165 38.6577 16.9091 39.9593 16.9708L57.5282 17.2854C58.8607 17.2822 59.9339 18.3494 59.9152 19.6137L60.1166 31.9642C60.1657 33.2608 59.1045 34.2682 57.8029 34.2065Z" fill="white"/>
<path d="M37.715 21.1964L47.1908 26.5213C48.3177 27.1316 49.644 27.1655 50.6861 26.5422L60.1606 21.2018" stroke="#071146" stroke-width="2" stroke-miterlimit="10" stroke-linecap="round" stroke-linejoin="round"/>
<path d="M60.1609 30.3005L52.2089 25.8491" stroke="#071146" stroke-width="2" stroke-miterlimit="10" stroke-linecap="round" stroke-linejoin="round"/>
<path d="M45.7309 25.8273L37.7153 30.2951" stroke="#071146" stroke-width="2" stroke-miterlimit="10" stroke-linecap="round" stroke-linejoin="round"/>
<path d="M57.7656 34.084L40.0808 34.1045C38.7545 34.0706 37.6794 33.0375 37.7133 31.7112L37.702 19.0275C37.7358 17.7012 38.7689 16.6261 40.0952 16.66L57.7801 16.6395C59.1064 16.6734 60.1814 17.7065 60.1476 19.0328L60.1589 31.7165C60.154 32.982 59.0919 34.1179 57.7656 34.084Z" stroke="#071146" stroke-width="2" stroke-miterlimit="10" stroke-linecap="round" stroke-linejoin="round"/>
<path d="M31.8029 56.2065L14.234 55.8919C12.9015 55.895 11.8283 54.8278 11.847 53.5635L11.6456 41.2131C11.5964 39.9165 12.6577 38.9091 13.9593 38.9708L31.5282 39.2854C32.8607 39.2822 33.9339 40.3494 33.9152 41.6137L34.1166 53.9642C34.1657 55.2608 33.1045 56.2682 31.8029 56.2065Z" fill="white"/>
<path d="M11.715 43.1964L21.1908 48.5213C22.3177 49.1316 23.644 49.1655 24.6861 48.5422L34.1606 43.2018" stroke="#071146" stroke-width="2" stroke-miterlimit="10" stroke-linecap="round" stroke-linejoin="round"/>
<path d="M34.1609 52.3005L26.2089 47.8491" stroke="#071146" stroke-width="2" stroke-miterlimit="10" stroke-linecap="round" stroke-linejoin="round"/>
<path d="M19.7309 47.8273L11.7153 52.2951" stroke="#071146" stroke-width="2" stroke-miterlimit="10" stroke-linecap="round" stroke-linejoin="round"/>
<path d="M31.7656 56.084L14.0808 56.1045C12.7545 56.0706 11.6794 55.0375 11.7133 53.7112L11.702 41.0275C11.7358 39.7012 12.7689 38.6261 14.0952 38.66L31.7801 38.6395C33.1064 38.6734 34.1814 39.7065 34.1476 41.0328L34.1589 53.7165C34.154 54.982 33.0919 56.1179 31.7656 56.084Z" stroke="#071146" stroke-width="2" stroke-miterlimit="10" stroke-linecap="round" stroke-linejoin="round"/>
</svg>
