<svg width="126" height="126" viewBox="0 0 126 126" fill="none" xmlns="http://www.w3.org/2000/svg">
<path d="M94.9195 93.4465C111.92 75.8537 111.44 47.8101 93.8475 30.8094C76.2547 13.8086 48.2111 14.2886 31.2103 31.8814C14.2096 49.4742 14.6895 77.5178 32.2823 94.5185C49.8751 111.519 77.9187 111.039 94.9195 93.4465Z" fill="#B1DEF5"/>
<path d="M62.9387 40C64.5327 40 66.2493 40.2468 67.8433 40.6171C68.579 40.7405 69.0695 41.3576 69.1921 42.0982L69.56 45.554C69.6826 47.1585 71.0314 48.3927 72.6254 48.3927C72.9932 48.3927 73.4837 48.2693 73.8515 48.1459L77.0395 46.7882C77.6526 46.5414 78.5109 46.6648 79.0014 47.1585C81.3311 49.6269 82.9251 52.5891 83.906 55.6746C84.1513 56.4152 83.906 57.1557 83.2929 57.5259L80.4728 59.6241C79.7371 60.2412 79.2466 61.1052 79.2466 62.0926C79.2466 63.0799 79.7371 64.0673 80.4728 64.561L83.2929 66.6592C83.906 67.0294 84.1513 67.8934 83.906 68.5105C82.9251 71.7195 81.2085 74.6816 79.0014 77.0266C78.5109 77.5203 77.7752 77.7672 77.0395 77.3969L73.8515 76.0393C72.9932 75.669 71.8897 75.669 71.0313 76.1627C70.173 76.6564 69.56 77.5203 69.56 78.5077L69.1921 81.9635C69.0695 82.7041 68.579 83.1978 67.9659 83.4446C64.6553 84.1851 61.3447 84.1851 58.0341 83.4446C57.2984 83.3212 56.8079 82.7041 56.8079 81.9635L56.44 78.5077C56.3174 77.5203 55.7043 76.6564 54.9687 76.1627C54.1103 75.669 53.1294 75.669 52.1485 76.0393L48.9605 77.3969C48.3474 77.6437 47.4891 77.5203 46.9986 77.0266C44.6689 74.5582 43.0749 71.5961 42.094 68.5105C41.8487 67.77 42.094 67.0294 42.7071 66.6592L45.5272 64.561C46.2629 63.9439 46.7534 63.0799 46.7534 62.0926C46.7534 61.1052 46.2629 60.1178 45.5272 59.6241L42.7071 57.5259C42.094 57.1557 41.8487 56.2917 42.094 55.6746C43.0749 52.4656 44.7915 49.5035 46.9986 47.1585C47.4891 46.6648 48.2248 46.4179 48.9605 46.7882L52.1485 48.1459C53.0068 48.5161 54.1103 48.5161 54.9687 48.0224C55.827 47.5287 56.44 46.6648 56.44 45.6774L56.8079 42.2216C56.9305 41.4811 57.421 40.864 58.1567 40.7405C59.6281 40.2468 61.2221 40 62.9387 40ZM62.9387 43.3324C61.9578 43.3324 60.8542 43.4558 59.8733 43.5792L59.6281 45.8008C59.3828 47.899 58.1567 49.6269 56.44 50.7377C54.6008 51.7251 52.5163 51.9719 50.5545 51.108L48.5926 50.244C47.3665 51.8485 46.2629 53.5764 45.5272 55.4278L47.3665 56.7854C49.0831 58.0196 50.064 59.9944 50.064 61.9691C50.064 64.0673 49.0831 66.0421 47.4891 67.1529L45.6498 68.5105C46.3855 70.3618 47.3665 72.2132 48.7152 73.6942L50.7997 72.8303C52.639 71.9663 54.846 72.0898 56.5627 73.2006C58.2793 74.1879 59.5054 76.0393 59.7507 78.1374L59.9959 80.359C61.9578 80.7293 64.0422 80.7293 66.0041 80.359L66.2493 78.1374C66.4946 76.0393 67.7207 74.3114 69.4373 73.2006C71.2766 72.2132 73.361 72.0898 75.3229 72.8303L77.4074 73.6942C78.6335 72.0898 79.7371 70.3618 80.4728 68.5105L78.6335 67.1529C76.9169 65.9186 75.936 63.9439 75.936 61.9691C75.936 59.871 76.9169 57.8962 78.5109 56.7854L80.3502 55.4278C79.6145 53.5764 78.6335 51.7251 77.2848 50.244L75.3229 51.108C74.4646 51.4783 73.6063 51.6017 72.748 51.6017C69.4373 51.6017 66.7398 49.1332 66.3719 45.8008L66.1267 43.5792C64.9005 43.4558 63.9196 43.3324 62.9387 43.3324ZM62.9387 53.5764C67.5981 53.5764 71.3992 57.4025 71.3992 62.0926C71.3992 66.7826 67.5981 70.6087 62.9387 70.6087C58.2793 70.6087 54.4782 66.7826 54.4782 62.0926C54.4782 57.2791 58.2793 53.5764 62.9387 53.5764ZM62.9387 56.9088C60.1185 56.9088 57.9114 59.1304 57.9114 61.9691C57.9114 64.8078 60.1185 67.0295 62.9387 67.0295C65.7589 67.0295 67.9659 64.8078 67.9659 61.9691C67.9659 59.2538 65.6362 56.9088 62.9387 56.9088Z" fill="#071146"/>
<path d="M37.4547 16C38.6313 16 39.8983 16.1795 41.0748 16.4488C41.6179 16.5386 41.9799 16.9874 42.0704 17.5259L42.3419 20.0393C42.4324 21.2062 43.4279 22.1038 44.6044 22.1038C44.8759 22.1038 45.2379 22.014 45.5095 21.9243L47.8625 20.9369C48.315 20.7574 48.9485 20.8471 49.3105 21.2062C51.0301 23.0014 52.2066 25.1557 52.9306 27.3997C53.1116 27.9383 52.9306 28.4769 52.4781 28.7461L50.3966 30.2721C49.8536 30.7209 49.4916 31.3492 49.4916 32.0673C49.4916 32.7854 49.8536 33.5035 50.3966 33.8626L52.4781 35.3885C52.9306 35.6578 53.1116 36.2861 52.9306 36.7349C52.2066 39.0687 50.9396 41.223 49.3105 42.9285C48.9485 43.2875 48.4055 43.467 47.8625 43.1977L45.5095 42.2104C44.8759 41.9411 44.0614 41.9411 43.4279 42.3001C42.7944 42.6592 42.3419 43.2875 42.3419 44.0056L42.0704 46.5189C41.9799 47.0575 41.6179 47.4165 41.1653 47.5961C38.7218 48.1346 36.2782 48.1346 33.8347 47.5961C33.2916 47.5063 32.9296 47.0575 32.9296 46.5189L32.6581 44.0056C32.5676 43.2875 32.1151 42.6592 31.5721 42.3001C30.9386 41.9411 30.2146 41.9411 29.4905 42.2104L27.1375 43.1977C26.685 43.3773 26.0515 43.2875 25.6895 42.9285C23.9699 41.1332 22.7934 38.979 22.0694 36.7349C21.8884 36.1963 22.0694 35.6578 22.5219 35.3885L24.6034 33.8626C25.1464 33.4137 25.5085 32.7854 25.5085 32.0673C25.5085 31.3492 25.1464 30.6311 24.6034 30.2721L22.5219 28.7461C22.0694 28.4769 21.8884 27.8485 22.0694 27.3997C22.7934 25.0659 24.0604 22.9116 25.6895 21.2062C26.0515 20.8471 26.5945 20.6676 27.1375 20.9369L29.4905 21.9243C30.1241 22.1935 30.9386 22.1935 31.5721 21.8345C32.2056 21.4754 32.6581 20.8471 32.6581 20.129L32.9296 17.6157C33.0201 17.0771 33.3821 16.6283 33.9252 16.5386C35.0112 16.1795 36.1877 16 37.4547 16ZM37.4547 18.4236C36.7307 18.4236 35.9162 18.5133 35.1922 18.6031L35.0112 20.2188C34.8302 21.7447 33.9252 23.0014 32.6581 23.8093C31.3006 24.5274 29.7621 24.7069 28.314 24.0785L26.866 23.4502C25.961 24.6171 25.1464 25.8738 24.6034 27.2202L25.961 28.2076C27.228 29.1052 27.952 30.5414 27.952 31.9776C27.952 33.5035 27.228 34.9397 26.0515 35.7475L24.6939 36.7349C25.2369 38.0813 25.961 39.4278 26.9565 40.5049L28.495 39.8766C29.8526 39.2482 31.4816 39.338 32.7486 40.1459C34.0157 40.864 34.9207 42.2104 35.1017 43.7363L35.2827 45.352C36.7307 45.6213 38.2693 45.6213 39.7173 45.352L39.8983 43.7363C40.0793 42.2104 40.9843 40.9537 42.2514 40.1459C43.6089 39.4278 45.1474 39.338 46.5955 39.8766L48.134 40.5049C49.039 39.338 49.8536 38.0813 50.3966 36.7349L49.039 35.7475C47.772 34.8499 47.048 33.4137 47.048 31.9776C47.048 30.4516 47.772 29.0154 48.9485 28.2076L50.3061 27.2202C49.7631 25.8738 49.039 24.5273 48.0435 23.4502L46.5955 24.0785C45.962 24.3478 45.3284 24.4376 44.6949 24.4376C42.2514 24.4376 40.2603 22.6424 39.9888 20.2188L39.8078 18.6031C38.9028 18.5133 38.1788 18.4236 37.4547 18.4236ZM37.4547 25.8738C40.8938 25.8738 43.6994 28.6564 43.6994 32.0673C43.6994 35.4783 40.8938 38.2609 37.4547 38.2609C34.0157 38.2609 31.2101 35.4783 31.2101 32.0673C31.2101 28.5666 34.0157 25.8738 37.4547 25.8738ZM37.4547 28.2973C35.3732 28.2973 33.7442 29.913 33.7442 31.9776C33.7442 34.0421 35.3732 35.6578 37.4547 35.6578C39.5363 35.6578 41.1653 34.0421 41.1653 31.9776C41.1653 30.0028 39.4458 28.2973 37.4547 28.2973Z" fill="#071146"/>
</svg>
