<svg width="216" height="128" viewBox="0 0 216 128" fill="none" xmlns="http://www.w3.org/2000/svg">
<path d="M1.52671 127.161C1.61576 127.423 1.89984 127.562 2.16123 127.473L6.42086 126.022C6.68225 125.933 6.82197 125.649 6.73292 125.388C6.64387 125.126 6.35979 124.987 6.09839 125.076L2.31206 126.365L1.02222 122.579C0.93317 122.318 0.649088 122.178 0.387698 122.267C0.126309 122.356 -0.0134085 122.64 0.0756387 122.902L1.52671 127.161ZM215 1C215.014 0.500188 215.013 0.500177 215.013 0.500159C215.012 0.500143 215.011 0.500117 215.01 0.500086C215.008 0.500023 215.004 0.499931 214.999 0.499814C214.99 0.49958 214.977 0.499242 214.959 0.498818C214.923 0.497969 214.869 0.496776 214.799 0.495383C214.658 0.492595 214.448 0.489003 214.173 0.485753C213.622 0.479251 212.808 0.474113 211.753 0.479499C209.644 0.490271 206.571 0.54314 202.713 0.711413C194.996 1.04794 184.135 1.84612 171.552 3.6928C146.395 7.38505 114.321 15.2738 86.7399 32.073L87.2601 32.927C114.679 16.2262 146.605 8.36495 171.698 4.6822C184.24 2.84138 195.067 2.04581 202.756 1.71046C206.601 1.5428 209.661 1.4902 211.758 1.47949C212.807 1.47413 213.615 1.47925 214.161 1.48568C214.434 1.4889 214.641 1.49245 214.779 1.49519C214.848 1.49656 214.9 1.49772 214.935 1.49854C214.952 1.49895 214.965 1.49927 214.974 1.49949C214.978 1.4996 214.981 1.49968 214.983 1.49974C214.984 1.49976 214.985 1.49978 214.986 1.4998C214.986 1.49981 214.986 1.49981 215 1ZM86.7399 32.073C59.1642 48.8691 37.869 72.5493 23.473 92.0152C16.2733 101.75 10.795 110.437 7.11591 116.692C5.27629 119.819 3.88629 122.339 2.95566 124.078C2.49033 124.947 2.13983 125.621 1.90537 126.079C1.78814 126.307 1.69993 126.482 1.64086 126.6C1.61134 126.659 1.58911 126.703 1.57417 126.733C1.5667 126.748 1.56106 126.76 1.55727 126.767C1.55536 126.771 1.55391 126.774 1.55293 126.776C1.55242 126.777 1.55203 126.778 1.55178 126.778C1.5515 126.779 1.55133 126.779 2 127C2.44868 127.221 2.44874 127.221 2.44891 127.22C2.44912 127.22 2.44941 127.219 2.44983 127.218C2.45068 127.217 2.45197 127.214 2.45372 127.21C2.45725 127.203 2.46258 127.193 2.46975 127.178C2.48408 127.149 2.5057 127.106 2.53461 127.048C2.59244 126.933 2.67939 126.761 2.79532 126.535C3.02717 126.082 3.37491 125.413 3.83732 124.549C4.76216 122.821 6.1456 120.314 7.97785 117.199C11.6425 110.969 17.1017 102.312 24.277 92.6098C38.631 73.2007 59.8359 49.6309 87.2601 32.927L86.7399 32.073Z" fill="#FFCE22"/>
</svg>
