<svg width="58" height="58" viewBox="0 0 58 58" fill="none" xmlns="http://www.w3.org/2000/svg">
<g clip-path="url(#clip0)">
<path d="M50.6 56.4L11.8 56.3C8.89998 56.3 6.59998 53.9 6.59998 51.1L6.69998 23.1C6.69998 20.2 9.09998 17.9 11.9 17.9L50.7 18C53.6 18 55.9 20.4 55.9 23.2L55.8 51.2C55.8 54.1 53.5 56.5 50.6 56.4Z" fill="white"/>
<path d="M1.59998 24.9L24.6 38C27.3 39.5 30.5 39.5 33.2 38L56.3 25.1" stroke="#071146" stroke-width="3" stroke-miterlimit="10" stroke-linecap="round" stroke-linejoin="round"/>
<path d="M56.2001 47.3L36.8 36.3" stroke="#071146" stroke-width="3" stroke-miterlimit="10" stroke-linecap="round" stroke-linejoin="round"/>
<path d="M21 36.2001L1.5 47.1001" stroke="#071146" stroke-width="3" stroke-miterlimit="10" stroke-linecap="round" stroke-linejoin="round"/>
<path d="M50.4 56.4L7.3 56.3C4.1 56.3 1.5 53.7 1.5 50.5L1.6 19.7C1.6 16.5 4.2 13.9 7.4 13.9L50.5 14C53.7 14 56.3 16.6 56.3 19.8L56.2 50.6C56.2 53.9 53.6 56.5 50.4 56.4Z" stroke="#071146" stroke-width="3" stroke-miterlimit="10" stroke-linecap="round" stroke-linejoin="round"/>
<path d="M28.9 28.5C36.3559 28.5 42.4 22.4558 42.4 15C42.4 7.54416 36.3559 1.5 28.9 1.5C21.4442 1.5 15.4 7.54416 15.4 15C15.4 22.4558 21.4442 28.5 28.9 28.5Z" fill="#95E196" stroke="#071146" stroke-width="3" stroke-miterlimit="10" stroke-linecap="round" stroke-linejoin="round"/>
<path d="M28.7001 20.7C28.0001 20.7 27.3001 20.5 26.7001 20.2C26.1001 19.9 25.6 19.4 25.3 18.8C25 18.2 24.8 17.5 24.8 16.8C24.8 16.6 24.9 16.4 25 16.2C25.1 16.1 25.3 16 25.6 16C25.8001 16 26.0001 16.1 26.2001 16.2C26.4001 16.3 26.4 16.5 26.4 16.8C26.4 17.2 26.5001 17.6 26.7001 18C26.9001 18.4 27.2 18.6 27.5 18.8C27.9 19 28.2001 19.1 28.7001 19.1C29.1001 19.1 29.6 19 29.9 18.8C30.3 18.6 30.5001 18.3 30.7001 18C30.9001 17.6 31 17.2 31 16.8C31 16.4 30.9001 15.9 30.7001 15.6C30.5001 15.2 30.2 15 29.9 14.8C29.6 14.6 29.1001 14.5 28.7001 14.5H26.1C25.9 14.5 25.7 14.4 25.5 14.3C25.4 14.2 25.3 14 25.3 13.7V9.60005C25.3 9.40005 25.4 9.20005 25.5 9.00005C25.6 8.80005 25.8001 8.80005 26.1 8.80005H31.2001C31.4001 8.80005 31.6 8.90005 31.8 9.00005C32 9.20005 32 9.30005 32 9.60005C32 9.80005 31.9 10 31.8 10.1C31.7 10.3 31.5001 10.3 31.2001 10.3H27V12.9H28.8C29.5 12.9 30.2 13.1 30.8 13.4C31.4 13.7 31.9001 14.2 32.2001 14.8C32.5001 15.4 32.7001 16.1 32.7001 16.8C32.7001 17.5 32.5001 18.2 32.2001 18.8C31.9001 19.4 31.4 19.9 30.8 20.2C30.1 20.6 29.5001 20.7 28.7001 20.7Z" fill="#071146"/>
</g>
<defs>
<clipPath id="clip0">
<rect width="57.8" height="57.9" fill="white"/>
</clipPath>
</defs>
</svg>
