<svg width="459" height="245" viewBox="0 0 459 245" fill="none" xmlns="http://www.w3.org/2000/svg">
<g clip-path="url(#clip0)">
<path d="M57.7 190H17C15 190 13.4 188.4 13.4 186.4C13.4 184.4 15 182.8 17 182.8H57.6C59.6 182.8 61.2 184.4 61.2 186.4C61.2 188.4 59.6 190 57.7 190Z" fill="#FEDB8F"/>
<path d="M39.9 232.2H35.2C34.7 232.2 34.2 231.8 34.2 231.2V191C34.2 190.5 34.7 190 35.2 190H39.9C40.4 190 40.9 190.5 40.9 191V231.3C40.9 231.8 40.5 232.2 39.9 232.2Z" fill="#FEDB8F"/>
<path opacity="0.5" d="M232.8 242.6C279.91 242.6 318.1 239.287 318.1 235.2C318.1 231.113 279.91 227.8 232.8 227.8C185.69 227.8 147.5 231.113 147.5 235.2C147.5 239.287 185.69 242.6 232.8 242.6Z" fill="#B1DEF5"/>
<path d="M228.9 78.5C241.1 83 255.1 82.1 266.7 76.3" stroke="#0052CC" stroke-width="4" stroke-miterlimit="10"/>
<path d="M227.6 90.8C241.3 93.4 256.8 92.2 269.5 87.5" stroke="#FEDB8F" stroke-width="2" stroke-miterlimit="10"/>
<path d="M227.6 100C242.5 102.5 259.4 101.3 273.2 96.6" stroke="#FEDB8F" stroke-width="2" stroke-miterlimit="10"/>
<path d="M227.6 109.2C243.2 111.7 260.9 110.4 275.4 105.7" stroke="#FEDB8F" stroke-width="2" stroke-miterlimit="10"/>
<path d="M227.6 118C243.6 120.5 261.8 119.2 276.6 114.4" stroke="#FEDB8F" stroke-width="2" stroke-miterlimit="10"/>
<path d="M227.6 127.5C233.1 128.4 256.3 130 278.5 126.3" stroke="#FEDB8F" stroke-width="2" stroke-miterlimit="10"/>
<path d="M229.3 136.9C234.8 137.8 273.2 137.4 279.5 135.8" stroke="#FEDB8F" stroke-width="2" stroke-miterlimit="10"/>
<path d="M231.3 147.6C235.7 148.1 276.1 146.9 280.6 146.9" stroke="#FEDB8F" stroke-width="2" stroke-miterlimit="10"/>
<path d="M312.1 159.3C318.4 194.1 320.7 231.6 318.1 239.4C317.8 240.5 317.3 241.5 316.5 242.2C315 243.4 312.7 243 311.1 241.9C309.5 240.8 308.7 238.9 307.8 237.2C300.1 221.4 302.5 181.6 267.8 181.6C261.1 181.6 226.9 182.2 237.5 232.4C238.5 237.3 238.5 241.1 235.4 241.7C231.9 242.4 228.3 236.6 222 225.9C211.7 208.4 206.1 183.5 204.4 162.5C204.4 162.5 235 154.5 256.2 153.1C290.2 151.2 312.1 159.3 312.1 159.3Z" fill="#0052CC"/>
<path d="M371.9 97.4H333C330.7 97.4 328.8 95.5 328.8 93.2V30.6C328.8 28.3 330.7 26.4 333 26.4H371.9C374.2 26.4 376.1 28.3 376.1 30.6V93.2C376.1 95.6 374.2 97.4 371.9 97.4Z" fill="#B6E2DF"/>
<path d="M370.7 96H331.8C329.5 96 327.6 94.1 327.6 91.8V29.1C327.6 26.8 329.5 24.9 331.8 24.9H370.7C373 24.9 374.9 26.8 374.9 29.1V91.7C374.9 94.1 373 96 370.7 96Z" stroke="#071146" stroke-width="2" stroke-miterlimit="10" stroke-linecap="round" stroke-linejoin="round"/>
<path d="M375.4 45.1H327C325.4 45.1 324.1 43.8 324.1 42.2V32C324.1 30.4 325.4 29.1 327 29.1H375.4C377 29.1 378.3 30.4 378.3 32V42.2C378.3 43.8 377 45.1 375.4 45.1Z" fill="white" stroke="#071146" stroke-width="2" stroke-miterlimit="10" stroke-linecap="round" stroke-linejoin="round"/>
<path d="M343 39C343.884 39 344.6 38.2837 344.6 37.4C344.6 36.5164 343.884 35.8 343 35.8C342.116 35.8 341.4 36.5164 341.4 37.4C341.4 38.2837 342.116 39 343 39Z" fill="#071146"/>
<path d="M369.4 40.9C371.333 40.9 372.9 39.333 372.9 37.4C372.9 35.467 371.333 33.9 369.4 33.9C367.467 33.9 365.9 35.467 365.9 37.4C365.9 39.333 367.467 40.9 369.4 40.9Z" stroke="#071146" stroke-width="2" stroke-miterlimit="10" stroke-linecap="round" stroke-linejoin="round"/>
<path d="M336.4 39C337.284 39 338 38.2837 338 37.4C338 36.5164 337.284 35.8 336.4 35.8C335.516 35.8 334.8 36.5164 334.8 37.4C334.8 38.2837 335.516 39 336.4 39Z" fill="#071146"/>
<path d="M329.9 39C330.784 39 331.5 38.2837 331.5 37.4C331.5 36.5164 330.784 35.8 329.9 35.8C329.016 35.8 328.3 36.5164 328.3 37.4C328.3 38.2837 329.016 39 329.9 39Z" fill="#071146"/>
<path d="M375.4 68.4H327C325.4 68.4 324.1 67.1 324.1 65.5V55.4C324.1 53.8 325.4 52.5 327 52.5H375.4C377 52.5 378.3 53.8 378.3 55.4V65.6C378.3 67.1 377 68.4 375.4 68.4Z" fill="white" stroke="#071146" stroke-width="2" stroke-miterlimit="10" stroke-linecap="round" stroke-linejoin="round"/>
<path d="M343 62.4C343.884 62.4 344.6 61.6837 344.6 60.8C344.6 59.9164 343.884 59.2 343 59.2C342.116 59.2 341.4 59.9164 341.4 60.8C341.4 61.6837 342.116 62.4 343 62.4Z" fill="#071146"/>
<path d="M369.4 64.3C371.333 64.3 372.9 62.733 372.9 60.8C372.9 58.867 371.333 57.3 369.4 57.3C367.467 57.3 365.9 58.867 365.9 60.8C365.9 62.733 367.467 64.3 369.4 64.3Z" stroke="#071146" stroke-width="2" stroke-miterlimit="10" stroke-linecap="round" stroke-linejoin="round"/>
<path d="M336.4 62.4C337.284 62.4 338 61.6837 338 60.8C338 59.9164 337.284 59.2 336.4 59.2C335.516 59.2 334.8 59.9164 334.8 60.8C334.8 61.6837 335.516 62.4 336.4 62.4Z" fill="#071146"/>
<path d="M329.9 62.4C330.784 62.4 331.5 61.6837 331.5 60.8C331.5 59.9164 330.784 59.2 329.9 59.2C329.016 59.2 328.3 59.9164 328.3 60.8C328.3 61.6837 329.016 62.4 329.9 62.4Z" fill="#071146"/>
<path d="M375.4 91.8H327C325.4 91.8 324.1 90.5 324.1 88.9V78.7C324.1 77.1 325.4 75.8 327 75.8H375.4C377 75.8 378.3 77.1 378.3 78.7V88.9C378.3 90.5 377 91.8 375.4 91.8Z" fill="white" stroke="#071146" stroke-width="2" stroke-miterlimit="10" stroke-linecap="round" stroke-linejoin="round"/>
<path d="M343 85.7C343.884 85.7 344.6 84.9837 344.6 84.1C344.6 83.2163 343.884 82.5 343 82.5C342.116 82.5 341.4 83.2163 341.4 84.1C341.4 84.9837 342.116 85.7 343 85.7Z" fill="#071146"/>
<path d="M369.4 87.6C371.333 87.6 372.9 86.033 372.9 84.1C372.9 82.167 371.333 80.6 369.4 80.6C367.467 80.6 365.9 82.167 365.9 84.1C365.9 86.033 367.467 87.6 369.4 87.6Z" stroke="#071146" stroke-width="2" stroke-miterlimit="10" stroke-linecap="round" stroke-linejoin="round"/>
<path d="M336.4 85.7C337.284 85.7 338 84.9837 338 84.1C338 83.2163 337.284 82.5 336.4 82.5C335.516 82.5 334.8 83.2163 334.8 84.1C334.8 84.9837 335.516 85.7 336.4 85.7Z" fill="#071146"/>
<path d="M329.9 85.7C330.784 85.7 331.5 84.9837 331.5 84.1C331.5 83.2163 330.784 82.5 329.9 82.5C329.016 82.5 328.3 83.2163 328.3 84.1C328.3 84.9837 329.016 85.7 329.9 85.7Z" fill="#071146"/>
<path d="M245.1 70.2C259.018 70.2 270.3 55.9627 270.3 38.4C270.3 20.8374 259.018 6.60001 245.1 6.60001C231.182 6.60001 219.9 20.8374 219.9 38.4C219.9 55.9627 231.182 70.2 245.1 70.2Z" stroke="#071146" stroke-width="2" stroke-miterlimit="10"/>
<path d="M273.7 17.6C269.2 16.6 264.3 17.6 260.6 20.4C257.6 22.6 255.5 25.9 252.9 28.6C250.3 31.3 247 33.8 243.2 33.7C239.9 33.6 236.6 31.6 233.4 32.5C229.7 33.6 228.2 38.2 228.5 42.1C228.8 46 230.2 49.8 229.6 53.7C224.5 53.7 219.3 53.8 214.2 53.8C211.8 42 209.7 28.6 215.7 18.1C220.5 9.59999 229.9 4.09999 239.6 2.79999C249.3 1.49999 259.3 4.39999 267.6 9.69999C270.4 11.7 273 14.3 273.7 17.6Z" fill="#FEDB8F"/>
<path d="M271.2 15.9C266.7 14.9 261.8 15.9 258.1 18.7C255.1 20.9 253 24.2 250.4 26.9C247.8 29.6 244.5 32.1 240.7 32C237.4 31.9 234.1 29.9 230.9 30.8C227.2 31.9 225.7 36.5 226 40.4C226.3 44.3 227.7 48.1 227.1 52C222 52 216.8 52.1 211.7 52.1C209.3 40.3 207.2 26.9 213.2 16.4C218 7.90001 227.4 2.40001 237.1 1.10001C246.8 -0.199988 256.8 2.70001 265.1 8.00001C268 10 270.5 12.6 271.2 15.9Z" stroke="#071146" stroke-width="2" stroke-miterlimit="10"/>
<path d="M231.1 66C201.3 87.2 188.4 172.4 220 226.1C226.3 236.8 229.9 242.6 233.4 241.9C236.5 241.3 236.5 237.5 235.5 232.6C224.8 182.4 259.1 181.8 265.8 181.8C300.5 181.8 298.1 221.6 305.8 237.4C306.7 239.1 307.6 240.9 309.1 242.1C310.6 243.3 313 243.7 314.5 242.4C315.4 241.7 315.8 240.6 316.1 239.6C319.6 228.8 318.5 165.4 302.2 123.5C284.3 77.5 260.6 63.7 260.6 63.7" stroke="#071146" stroke-width="2" stroke-miterlimit="10"/>
<path d="M260.9 63.6C269.5 63 278.2 65.6 285 70.9C291.1 75.6 295.5 82.1 300.3 88.1C305.1 94.1 310.7 100 317.9 102.5C325.2 105 334.5 103.2 338.3 96.5" stroke="#071146" stroke-width="2" stroke-miterlimit="10"/>
<path d="M245.1 141C232.4 140.5 219.9 135.4 210.5 126.9C206.7 123.5 203.4 119.4 201.4 114.8C197.2 105 199.5 93.3 205.5 84.5C211.6 75.8 221 69.8 230.9 66.1L219.9 85.7H227.9" stroke="#071146" stroke-width="2" stroke-miterlimit="10" stroke-linecap="round" stroke-linejoin="round"/>
<path d="M455.3 100L434 110.1C432.4 110.9 430.5 110.2 429.8 108.6L422.5 93.2C421.7 91.6 422.4 89.7 424 89L445.3 78.9C446.9 78.1 448.8 78.8 449.5 80.4L456.8 95.8C457.5 97.4 456.8 99.3 455.3 100Z" fill="#B3C1F4"/>
<path d="M420.1 95.6L436.2 96.7C438.1 96.8 439.9 96 440.9 94.5L450.2 81.3" stroke="#071146" stroke-width="2" stroke-miterlimit="10" stroke-linecap="round" stroke-linejoin="round"/>
<path d="M455.9 93.5L442.4 92.6" stroke="#071146" stroke-width="2" stroke-miterlimit="10" stroke-linecap="round" stroke-linejoin="round"/>
<path d="M433.7 96.7L425.9 107.8" stroke="#071146" stroke-width="2" stroke-miterlimit="10" stroke-linecap="round" stroke-linejoin="round"/>
<path d="M455.2 100.1L431.5 111.4C429.7 112.2 427.6 111.5 426.8 109.7L418.7 92.7C417.9 90.9 418.6 88.8 420.4 88L444.1 76.7C445.9 75.9 448 76.6 448.8 78.4L456.9 95.4C457.7 97.1 456.9 99.2 455.2 100.1Z" stroke="#071146" stroke-width="2" stroke-miterlimit="10" stroke-linecap="round" stroke-linejoin="round"/>
<path d="M370.4 224.9L349.1 214.7C347.5 213.9 346.9 212 347.6 210.5L355 195.1C355.8 193.5 357.7 192.9 359.2 193.6L380.5 203.8C382.1 204.6 382.7 206.5 382 208L374.6 223.4C373.9 225 372 225.7 370.4 224.9Z" fill="#B3C1F4"/>
<path d="M351.8 194.7L361 207.9C362.1 209.4 363.9 210.3 365.7 210.2L381.8 209.2" stroke="#071146" stroke-width="2" stroke-miterlimit="10" stroke-linecap="round" stroke-linejoin="round"/>
<path d="M375.9 221.3L368.1 210.2" stroke="#071146" stroke-width="2" stroke-miterlimit="10" stroke-linecap="round" stroke-linejoin="round"/>
<path d="M359.4 206L345.9 206.9" stroke="#071146" stroke-width="2" stroke-miterlimit="10" stroke-linecap="round" stroke-linejoin="round"/>
<path d="M370.3 224.8L346.6 213.4C344.9 212.6 344.1 210.4 345 208.7L353.1 191.8C353.9 190.1 356.1 189.3 357.8 190.2L381.5 201.6C383.2 202.4 384 204.6 383.1 206.3L375 223.2C374.1 224.9 372 225.7 370.3 224.8Z" stroke="#071146" stroke-width="2" stroke-miterlimit="10" stroke-linecap="round" stroke-linejoin="round"/>
<path d="M456.1 217.7L440.1 229.8C438.9 230.7 437.2 230.5 436.3 229.3L427.5 217.7C426.6 216.5 426.8 214.8 428 213.9L444 201.8C445.2 200.9 446.9 201.1 447.8 202.3L456.6 213.9C457.5 215.1 457.2 216.8 456.1 217.7Z" fill="#B3C1F4"/>
<path d="M425.9 220.1L439.5 218.3C441.1 218.1 442.4 217.1 443.1 215.6L448.6 203" stroke="#071146" stroke-width="2" stroke-miterlimit="10" stroke-linecap="round" stroke-linejoin="round"/>
<path d="M455.5 212.2L444 213.7" stroke="#071146" stroke-width="2" stroke-miterlimit="10" stroke-linecap="round" stroke-linejoin="round"/>
<path d="M437.5 218.7L432.9 229.3" stroke="#071146" stroke-width="2" stroke-miterlimit="10" stroke-linecap="round" stroke-linejoin="round"/>
<path d="M456 217.8L438.2 231.3C436.9 232.3 435 232 434 230.7L424.3 218C423.3 216.7 423.6 214.8 424.9 213.8L442.7 200.3C444 199.3 445.9 199.6 446.9 200.9L456.6 213.6C457.5 214.9 457.3 216.8 456 217.8Z" stroke="#071146" stroke-width="2" stroke-miterlimit="10" stroke-linecap="round" stroke-linejoin="round"/>
<path d="M167.7 52.1L144.1 51.8C142.3 51.8 140.9 50.3 141 48.6L141.2 31.5C141.2 29.7 142.7 28.3 144.4 28.4L168 28.7C169.8 28.7 171.2 30.2 171.1 31.9L170.9 49C170.9 50.7 169.5 52.1 167.7 52.1Z" fill="#B3C1F4"/>
<path d="M138 32.6L151.9 40.7C153.5 41.6 155.5 41.7 157.1 40.8L171.2 33" stroke="#071146" stroke-width="2" stroke-miterlimit="10" stroke-linecap="round" stroke-linejoin="round"/>
<path d="M171.2 46.5L159.4 39.7" stroke="#071146" stroke-width="2" stroke-miterlimit="10" stroke-linecap="round" stroke-linejoin="round"/>
<path d="M149.8 39.6L137.9 46.1" stroke="#071146" stroke-width="2" stroke-miterlimit="10" stroke-linecap="round" stroke-linejoin="round"/>
<path d="M167.6 52.1L141.3 51.8C139.4 51.8 137.8 50.2 137.8 48.2L138 29.4C138 27.5 139.6 25.9 141.6 25.9L167.9 26.2C169.8 26.2 171.4 27.8 171.4 29.8L171.2 48.6C171.1 50.5 169.5 52.1 167.6 52.1Z" stroke="#071146" stroke-width="2" stroke-miterlimit="10" stroke-linecap="round" stroke-linejoin="round"/>
<path d="M172.3 221.2L155.6 213.1C154.4 212.5 153.8 211 154.4 209.8L160.3 197.7C160.9 196.5 162.4 195.9 163.6 196.5L180.3 204.6C181.5 205.2 182.1 206.7 181.5 207.9L175.6 220C175.1 221.3 173.6 221.8 172.3 221.2Z" fill="#B3C1F4"/>
<path d="M157.7 197.4L164.9 207.8C165.7 209 167.1 209.7 168.6 209.6L181.2 208.8" stroke="#071146" stroke-width="2" stroke-miterlimit="10" stroke-linecap="round" stroke-linejoin="round"/>
<path d="M176.6 218.4L170.6 209.6" stroke="#071146" stroke-width="2" stroke-miterlimit="10" stroke-linecap="round" stroke-linejoin="round"/>
<path d="M163.7 206.3L153.1 207" stroke="#071146" stroke-width="2" stroke-miterlimit="10" stroke-linecap="round" stroke-linejoin="round"/>
<path d="M172.2 221.2L153.6 212.2C152.2 211.5 151.7 209.9 152.3 208.5L158.7 195.2C159.4 193.8 161 193.3 162.4 193.9L181 202.9C182.4 203.6 182.9 205.2 182.3 206.6L175.9 219.9C175.3 221.2 173.6 221.8 172.2 221.2Z" stroke="#071146" stroke-width="2" stroke-miterlimit="10" stroke-linecap="round" stroke-linejoin="round"/>
<path d="M112.5 105.1L94.9999 111.2C93.6999 111.7 92.2999 111 91.7999 109.7L87.3999 97C86.8999 95.7 87.5999 94.3 88.8999 93.8L106.4 87.7C107.7 87.2 109.1 87.9 109.6 89.2L114 101.9C114.5 103.2 113.8 104.6 112.5 105.1Z" fill="#B3C1F4"/>
<path d="M85.4 98.7L97.9 100.9C99.3 101.2 100.8 100.6 101.8 99.5L110.2 90" stroke="#071146" stroke-width="2" stroke-miterlimit="10" stroke-linecap="round" stroke-linejoin="round"/>
<path d="M113.6 100L103.1 98.2" stroke="#071146" stroke-width="2" stroke-miterlimit="10" stroke-linecap="round" stroke-linejoin="round"/>
<path d="M95.9 100.7L88.9 108.7" stroke="#071146" stroke-width="2" stroke-miterlimit="10" stroke-linecap="round" stroke-linejoin="round"/>
<path d="M112.4 105.1L92.9 111.9C91.5 112.4 89.9 111.6 89.4 110.2L84.5 96.3C84 94.9 84.8 93.3 86.2 92.8L105.7 86C107.1 85.5 108.7 86.3 109.2 87.7L114.1 101.6C114.6 103 113.9 104.6 112.4 105.1Z" stroke="#071146" stroke-width="2" stroke-miterlimit="10" stroke-linecap="round" stroke-linejoin="round"/>
<path d="M231 66.9C224.6 96.4 225.5 127.5 233.7 156.6C223 157.9 212.4 160.2 202.1 163.3" stroke="#071146" stroke-width="2" stroke-miterlimit="10"/>
<path d="M261.5 63.3C269 81.2 274.4 99.9 277.6 119L281.4 153.5C281.4 153.5 309.1 157.7 312.1 159.3" stroke="#071146" stroke-width="2" stroke-miterlimit="10"/>
<path d="M268.7 82.5L275.9 81.7L262.1 64.7" stroke="#071146" stroke-width="2" stroke-miterlimit="10" stroke-linecap="round" stroke-linejoin="round"/>
<path d="M253 54.7C253.6 54.4 254.3 55 254.8 55.4C256.6 57 259.1 57.8 261.5 57.4C263.9 57 266.1 55.6 267.3 53.5" stroke="#071146" stroke-width="2" stroke-miterlimit="10" stroke-linecap="round" stroke-linejoin="round"/>
<path d="M351.8 96.7C345.9 132.7 254.4 201 187.4 177.2C159 167.1 138.1 140 132 110.5C129.3 97.6 129.1 83.5 121.4 72.7C118 68 113.3 64.2 108.2 61.4C99.9 56.8 90.2 53.9 80.7 55.3C35.4 61.7 33.4 134.9 33.4 134.9" stroke="#071146" stroke-width="2" stroke-miterlimit="10"/>
<path d="M59.2 40.9C64.6 40.9 68.6 35.6 66.8 30.5C66.7 30.3 66.6 30 66.5 29.8C64.8 26.1 60.5 23.8 56.5 24.5C59.2 21.2 58.5 15.7 55.1 13.1C51.7 10.5 46.3 11.4 43.8 14.8C43.8 10.2 40 6.1 35.6 4.9C31.2 3.7 26.2 5.1 22.5 7.8C19.4 10.1 16.9 13.4 16.4 17.2C12.5 15.6 7.80001 18 5.90001 21.7C5.70001 22.1 5.50001 22.6 5.30001 23.2C2.70001 32.3 9.90001 41.3 19.4 41.2L59.2 40.9Z" fill="white"/>
<path d="M55.5999 39C60.9999 39 64.9999 33.7 63.1999 28.6C63.0999 28.4 62.9999 28.1 62.8999 27.9C61.1999 24.2 56.8999 21.9 52.8999 22.6C55.5999 19.3 54.8999 13.8 51.4999 11.2C48.0999 8.60001 42.5999 9.60001 40.0999 13C40.0999 8.40001 36.2999 4.30001 31.8999 3.10001C27.4999 1.90001 22.4999 3.30001 18.7999 6.00001C15.6999 8.30001 13.1999 11.6 12.6999 15.4C8.79994 13.8 4.09994 16.2 2.19994 19.9C1.99994 20.3 1.79994 20.8 1.59994 21.4C-1.00006 30.5 6.19994 39.5 15.6999 39.4L55.5999 39Z" stroke="#071146" stroke-width="2" stroke-miterlimit="10" stroke-linecap="round" stroke-linejoin="round"/>
<path d="M164.6 162.8C170 162.8 174 157.5 172.2 152.4C172.1 152.2 172 151.9 171.9 151.7C170.2 148 165.9 145.7 161.9 146.4C164.6 143.1 163.9 137.6 160.5 135C157.1 132.4 151.7 133.3 149.2 136.7C149.2 132.1 145.4 128 141 126.8C136.5 125.6 131.6 127 127.9 129.7C124.8 132 122.3 135.3 121.8 139.1C117.9 137.5 113.2 139.9 111.3 143.6C111.1 144 110.9 144.5 110.7 145.1C108.1 154.2 115.3 163.2 124.8 163.1L164.6 162.8Z" fill="white"/>
<path d="M161 160.9C166.4 160.9 170.4 155.6 168.6 150.5C168.5 150.3 168.4 150 168.3 149.8C166.6 146.1 162.3 143.8 158.3 144.5C161 141.2 160.3 135.7 156.9 133.1C153.5 130.5 148.1 131.4 145.6 134.8C145.6 130.2 141.8 126.1 137.4 124.9C132.9 123.7 128 125.1 124.3 127.8C121.2 130.1 118.7 133.4 118.2 137.2C114.3 135.6 109.6 138 107.7 141.7C107.5 142.1 107.3 142.6 107.1 143.2C104.5 152.3 111.7 161.3 121.2 161.2L161 160.9Z" stroke="#071146" stroke-width="2" stroke-miterlimit="10" stroke-linecap="round" stroke-linejoin="round"/>
<path d="M135.1 180.2C140.5 180.2 144.5 174.9 142.7 169.8C142.6 169.6 142.5 169.3 142.4 169.1C140.7 165.4 136.4 163.1 132.4 163.8C135.1 160.5 134.4 155 131 152.4C127.6 149.8 122.2 150.7 119.7 154.1C119.7 149.5 115.9 145.4 111.5 144.2C107 143 102.1 144.4 98.4 147.1C95.3 149.4 92.8 152.7 92.3 156.5C88.4 154.9 83.7 157.3 81.8 161C81.6 161.4 81.4 161.9 81.2 162.5C78.6 171.6 85.8 180.6 95.3 180.5L135.1 180.2Z" fill="white"/>
<path d="M131.5 178.3C136.9 178.3 140.9 173 139.1 167.9C139 167.7 138.9 167.4 138.8 167.2C137.1 163.5 132.8 161.2 128.8 161.9C131.5 158.6 130.8 153.1 127.4 150.5C124 147.9 118.6 148.8 116.1 152.2C116.1 147.6 112.3 143.5 107.9 142.3C103.4 141.1 98.5001 142.5 94.8001 145.2C91.7001 147.5 89.2001 150.8 88.7001 154.6C84.8001 153 80.1001 155.4 78.2001 159.1C78.0001 159.5 77.8001 160 77.6001 160.6C75.0001 169.7 82.2001 178.7 91.7001 178.6L131.5 178.3Z" stroke="#071146" stroke-width="2" stroke-miterlimit="10" stroke-linecap="round" stroke-linejoin="round"/>
<path d="M61.2 177H9.70002C8.10002 177 6.90002 175.7 6.90002 174.2V137.8C6.90002 136.2 8.20002 135 9.70002 135H61.2C62.8 135 64 136.3 64 137.8V174.2C64.1 175.7 62.8 177 61.2 177Z" stroke="#071146" stroke-width="2" stroke-miterlimit="10" stroke-linecap="round" stroke-linejoin="round"/>
<path d="M66.8 181.3H4.90005C3.20005 181.3 1.80005 179.9 1.80005 178.2C1.80005 177.5 2.30005 177 3.00005 177H68.6C69.3 177 69.8 177.5 69.8 178.2C69.9 179.9 68.5 181.3 66.8 181.3Z" stroke="#071146" stroke-width="2" stroke-miterlimit="10" stroke-linecap="round" stroke-linejoin="round"/>
<path d="M61.2001 137.6H9.80005V173.8H61.2001V137.6Z" fill="white"/>
<path d="M61.2001 137.6H9.80005V173.8H61.2001V137.6Z" stroke="#071146" stroke-width="2" stroke-miterlimit="10" stroke-linecap="round" stroke-linejoin="round"/>
<path d="M9.80005 141.1H61.2001" stroke="#071146" stroke-width="2" stroke-miterlimit="10" stroke-linecap="round" stroke-linejoin="round"/>
<path d="M54.2001 168.4H39.7001C39.2001 168.4 38.8 168 38.8 167.5V163.3C38.8 162.8 39.2001 162.4 39.7001 162.4H54.2001C54.7001 162.4 55.1 162.8 55.1 163.3V167.5C55.1 168.1 54.7001 168.4 54.2001 168.4Z" stroke="#071146" stroke-width="2" stroke-miterlimit="10" stroke-linecap="round" stroke-linejoin="round"/>
<path d="M16.7001 148.6H54.4001" stroke="#071146" stroke-width="2" stroke-miterlimit="10" stroke-linecap="round" stroke-linejoin="round"/>
<path d="M16.7001 155.1H54.4001" stroke="#071146" stroke-width="2" stroke-miterlimit="10" stroke-linecap="round" stroke-linejoin="round"/>
<path d="M16.7001 162.5H32.7001" stroke="#071146" stroke-width="2" stroke-miterlimit="10" stroke-linecap="round" stroke-linejoin="round"/>
<path d="M16.7001 168.4H32.7001" stroke="#071146" stroke-width="2" stroke-miterlimit="10" stroke-linecap="round" stroke-linejoin="round"/>
<path d="M391.6 139.4C393 139.4 394.4 139.6 395.8 139.9C396.4 140 396.8 140.5 396.9 141.1L397.2 144C397.3 145.3 398.5 146.4 399.8 146.4C400.2 146.4 400.5 146.3 400.9 146.2L403.6 145C404.2 144.8 404.8 144.9 405.2 145.3C407.1 147.4 408.6 149.8 409.4 152.6C409.6 153.2 409.4 153.8 408.9 154.2L406.5 155.9C405.8 156.4 405.4 157.2 405.4 158C405.4 158.8 405.8 159.6 406.5 160.1L408.9 161.9C409.4 162.3 409.6 162.9 409.4 163.5C408.6 166.2 407.1 168.7 405.2 170.8C404.8 171.2 404.1 171.4 403.6 171.1L400.9 169.9C400.1 169.6 399.2 169.6 398.5 170C397.8 170.4 397.3 171.2 397.2 172L396.9 174.9C396.8 175.5 396.4 176 395.8 176.1C393 176.8 390.1 176.8 387.4 176.1C386.8 176 386.4 175.5 386.3 174.9L386 172C385.9 171.2 385.4 170.4 384.7 170C384 169.6 383.1 169.5 382.3 169.9L379.6 171.1C379 171.3 378.4 171.2 378 170.8C376.1 168.7 374.6 166.2 373.8 163.5C373.6 162.9 373.8 162.3 374.3 161.9L376.7 160.1C377.4 159.6 377.8 158.8 377.8 158C377.8 157.2 377.4 156.4 376.7 155.9L374.3 154.2C373.8 153.8 373.6 153.2 373.8 152.6C374.6 149.9 376.1 147.4 378 145.3C378.4 144.9 379.1 144.7 379.6 145L382.3 146.2C383.1 146.5 384 146.5 384.7 146.1C385.4 145.7 385.9 144.9 386 144.1L386.3 141.2C386.4 140.6 386.8 140.1 387.4 140C388.7 139.6 390.1 139.5 391.6 139.4ZM391.6 142.3C390.7 142.3 389.9 142.4 389 142.5L388.8 144.4C388.6 146.1 387.6 147.7 386.1 148.6C384.6 149.5 382.7 149.6 381.1 148.9L379.4 148.1C378.3 149.4 377.4 150.9 376.8 152.5L378.3 153.6C379.7 154.6 380.5 156.3 380.5 158C380.5 159.7 379.7 161.4 378.3 162.4L376.8 163.5C377.4 165.1 378.3 166.6 379.4 167.9L381.1 167.1C382.7 166.4 384.5 166.5 386.1 167.4C387.6 168.3 388.6 169.8 388.8 171.6L389 173.5C390.7 173.8 392.4 173.8 394.1 173.5L394.3 171.6C394.5 169.9 395.5 168.3 397 167.4C398.5 166.5 400.4 166.4 402 167.1L403.7 167.9C404.8 166.6 405.7 165.1 406.3 163.5L404.8 162.4C403.4 161.4 402.6 159.7 402.6 158C402.6 156.3 403.4 154.6 404.8 153.6L406.3 152.5C405.7 150.9 404.8 149.4 403.7 148.1L402 148.9C401.3 149.2 400.5 149.4 399.8 149.4C397 149.4 394.6 147.3 394.3 144.5L394.1 142.6C393.3 142.4 392.4 142.3 391.6 142.3ZM391.6 150.9C395.6 150.9 398.8 154.1 398.8 158.1C398.8 162.1 395.6 165.3 391.6 165.3C387.6 165.3 384.4 162.1 384.4 158.1C384.4 154.1 387.6 150.9 391.6 150.9ZM391.6 153.8C389.2 153.8 387.3 155.7 387.3 158.1C387.3 160.5 389.2 162.4 391.6 162.4C394 162.4 395.9 160.5 395.9 158.1C395.9 155.7 393.9 153.8 391.6 153.8Z" fill="#071146"/>
<path d="M353.4 131.3C354.2 131.3 355.1 131.4 355.9 131.6C356.3 131.7 356.5 132 356.6 132.3L356.8 134C356.9 134.8 357.6 135.4 358.4 135.4C358.6 135.4 358.8 135.4 359 135.3L360.6 134.6C360.9 134.5 361.3 134.5 361.6 134.8C362.8 136 363.6 137.5 364.1 139.1C364.2 139.4 364.1 139.8 363.8 140L362.4 141C362 141.3 361.8 141.8 361.8 142.3C361.8 142.8 362 143.3 362.4 143.6L363.8 144.6C364.1 144.8 364.2 145.2 364.1 145.5C363.6 147.1 362.7 148.6 361.6 149.8C361.4 150.1 361 150.1 360.6 150L359 149.3C358.5 149.1 358 149.1 357.6 149.4C357.2 149.7 356.9 150.1 356.8 150.6L356.6 152.3C356.6 152.7 356.3 153 355.9 153C354.2 153.4 352.5 153.4 350.9 153C350.5 152.9 350.3 152.6 350.2 152.3L350 150.6C349.9 150.1 349.7 149.7 349.2 149.4C348.8 149.2 348.2 149.1 347.8 149.3L346.2 150C345.9 150.1 345.5 150.1 345.2 149.8C344 148.6 343.2 147.1 342.7 145.5C342.6 145.2 342.7 144.8 343 144.6L344.4 143.6C344.8 143.3 345 142.8 345 142.3C345 141.8 344.8 141.3 344.4 141L343 140C342.7 139.8 342.6 139.4 342.7 139.1C343.2 137.5 344.1 136 345.2 134.8C345.4 134.5 345.8 134.5 346.2 134.6L347.8 135.3C348.3 135.5 348.8 135.5 349.2 135.2C349.6 134.9 349.9 134.5 350 134L350.2 132.3C350.2 131.9 350.5 131.6 350.9 131.6C351.7 131.4 352.5 131.3 353.4 131.3ZM353.4 133C352.9 133 352.4 133.1 351.9 133.1L351.8 134.2C351.7 135.2 351.1 136.2 350.2 136.7C349.3 137.2 348.2 137.3 347.2 136.9L346.2 136.4C345.5 137.2 345 138.1 344.7 139L345.6 139.7C346.4 140.3 346.9 141.3 346.9 142.3C346.9 143.3 346.4 144.3 345.6 144.9L344.7 145.6C345.1 146.6 345.6 147.5 346.2 148.2L347.2 147.7C348.2 147.3 349.3 147.3 350.2 147.9C351.1 148.4 351.7 149.3 351.8 150.4L351.9 151.5C352.9 151.7 354 151.7 355 151.5L355.1 150.4C355.2 149.4 355.8 148.4 356.7 147.9C357.6 147.4 358.7 147.3 359.7 147.7L360.7 148.2C361.4 147.4 361.9 146.5 362.2 145.6L361.3 144.9C360.5 144.3 360 143.3 360 142.3C360 141.3 360.5 140.3 361.3 139.7L362.2 139C361.8 138 361.3 137.1 360.7 136.4L359.7 136.8C359.3 137 358.8 137.1 358.4 137.1C356.7 137.1 355.3 135.8 355.1 134.2L355 133.1C354.4 133.1 353.9 133 353.4 133ZM353.4 138.2C355.8 138.2 357.7 140.1 357.7 142.5C357.7 144.9 355.8 146.8 353.4 146.8C351 146.8 349.1 144.9 349.1 142.5C349.1 140.1 351 138.2 353.4 138.2ZM353.4 139.9C352 139.9 350.8 141 350.8 142.5C350.8 144 351.9 145.1 353.4 145.1C354.8 145.1 356 144 356 142.5C356 141 354.8 139.9 353.4 139.9Z" fill="#071146"/>
<path d="M55.6 188.8H15C13 188.8 11.4 187.2 11.4 185.2C11.4 183.2 13 181.6 15 181.6H55.6C57.6 181.6 59.2 183.2 59.2 185.2C59.1 187.2 57.5 188.8 55.6 188.8Z" stroke="#071146" stroke-width="2" stroke-miterlimit="10"/>
<path d="M37.8 231H33.1C32.6 231 32.1 230.6 32.1 230V189.7C32.1 189.1 32.6 188.7 33.1 188.7H37.8C38.3 188.7 38.8 189.1 38.8 189.7V230C38.8 230.6 38.4 231 37.8 231Z" stroke="#071146" stroke-width="2" stroke-miterlimit="10"/>
<path d="M21.1 234.6C24.7 232.4 29.8 231 35.5 231C42.1 231 47.9 232.8 51.4 235.6" stroke="#071146" stroke-width="2" stroke-miterlimit="10" stroke-linecap="round" stroke-linejoin="round"/>
<path d="M296.5 163.6H255.9C252.9 163.6 250.4 161.1 250.4 158.1V128.8C250.4 125.8 252.9 123.3 255.9 123.3H296.5C299.5 123.3 302 125.8 302 128.8V158.1C301.9 161.2 299.5 163.6 296.5 163.6Z" fill="#B6E2DF"/>
<path d="M245.1 130.8L269.2 144.4C272 146 275.4 146 278.2 144.4L302.3 130.8" stroke="#071146" stroke-width="2" stroke-miterlimit="10" stroke-linecap="round" stroke-linejoin="round"/>
<path d="M302.3 154L282 142.6" stroke="#071146" stroke-width="2" stroke-miterlimit="10" stroke-linecap="round" stroke-linejoin="round"/>
<path d="M265.4 142.6L245.1 154" stroke="#071146" stroke-width="2" stroke-miterlimit="10" stroke-linecap="round" stroke-linejoin="round"/>
<path d="M296.3 163.6H251.2C247.9 163.6 245.1 160.9 245.1 157.5V125.2C245.1 121.9 247.8 119.1 251.2 119.1H296.3C299.6 119.1 302.4 121.8 302.4 125.2V157.5C302.3 160.9 299.6 163.6 296.3 163.6Z" stroke="#071146" stroke-width="2" stroke-miterlimit="10" stroke-linecap="round" stroke-linejoin="round"/>
<path d="M349.3 104.8C348.6 104.6 348.3 103.9 348.5 103.2L350.4 97C350.6 96.3 351.3 96 352 96.2C352.7 96.4 353 97.1 352.8 97.8L350.9 104C350.6 104.6 349.9 105 349.3 104.8Z" fill="#071146" stroke="#071146" stroke-width="2" stroke-miterlimit="10"/>
</g>
<defs>
<clipPath id="clip0">
<rect width="458.2" height="244.1" fill="white"/>
</clipPath>
</defs>
</svg>
