<svg width="458" height="244" viewBox="0 0 458 244" fill="none" xmlns="http://www.w3.org/2000/svg">
<g clip-path="url(#clip0)">
<path d="M326.1 132.5H287.2C284.9 132.5 283 130.6 283 128.3V65.6C283 63.3 284.9 61.4 287.2 61.4H326.1C328.4 61.4 330.3 63.3 330.3 65.6V128.2C330.3 130.6 328.4 132.5 326.1 132.5Z" fill="#B6E2DF"/>
<path d="M324.9 131H286C283.7 131 281.8 129.1 281.8 126.8V64.2C281.8 61.9 283.7 60 286 60H324.9C327.2 60 329.1 61.9 329.1 64.2V126.8C329.1 129.1 327.2 131 324.9 131Z" stroke="#071146" stroke-width="2" stroke-miterlimit="10" stroke-linecap="round" stroke-linejoin="round"/>
<path d="M329.7 80.1H281.3C279.7 80.1 278.4 78.8 278.4 77.2V67C278.4 65.4 279.7 64.1 281.3 64.1H329.7C331.3 64.1 332.6 65.4 332.6 67V77.2C332.6 78.8 331.3 80.1 329.7 80.1Z" fill="#FEDB8F" stroke="#071146" stroke-width="2" stroke-miterlimit="10" stroke-linecap="round" stroke-linejoin="round"/>
<path d="M297.2 74.1C298.084 74.1 298.8 73.3837 298.8 72.5C298.8 71.6163 298.084 70.9 297.2 70.9C296.316 70.9 295.6 71.6163 295.6 72.5C295.6 73.3837 296.316 74.1 297.2 74.1Z" fill="#071146"/>
<path d="M323.7 76C325.633 76 327.2 74.433 327.2 72.5C327.2 70.567 325.633 69 323.7 69C321.767 69 320.2 70.567 320.2 72.5C320.2 74.433 321.767 76 323.7 76Z" stroke="#071146" stroke-width="2" stroke-miterlimit="10" stroke-linecap="round" stroke-linejoin="round"/>
<path d="M290.7 74.1C291.584 74.1 292.3 73.3837 292.3 72.5C292.3 71.6163 291.584 70.9 290.7 70.9C289.816 70.9 289.1 71.6163 289.1 72.5C289.1 73.3837 289.816 74.1 290.7 74.1Z" fill="#071146"/>
<path d="M284.1 74.1C284.984 74.1 285.7 73.3837 285.7 72.5C285.7 71.6163 284.984 70.9 284.1 70.9C283.216 70.9 282.5 71.6163 282.5 72.5C282.5 73.3837 283.216 74.1 284.1 74.1Z" fill="#071146"/>
<path d="M329.7 103.5H281.3C279.7 103.5 278.4 102.2 278.4 100.6V90.4C278.4 88.8 279.7 87.5 281.3 87.5H329.7C331.3 87.5 332.6 88.8 332.6 90.4V100.6C332.6 102.2 331.3 103.5 329.7 103.5Z" fill="#FEDB8F" stroke="#071146" stroke-width="2" stroke-miterlimit="10" stroke-linecap="round" stroke-linejoin="round"/>
<path d="M297.2 97.4C298.084 97.4 298.8 96.6837 298.8 95.8C298.8 94.9163 298.084 94.2 297.2 94.2C296.316 94.2 295.6 94.9163 295.6 95.8C295.6 96.6837 296.316 97.4 297.2 97.4Z" fill="#071146"/>
<path d="M323.7 99.3C325.633 99.3 327.2 97.733 327.2 95.8C327.2 93.867 325.633 92.3 323.7 92.3C321.767 92.3 320.2 93.867 320.2 95.8C320.2 97.733 321.767 99.3 323.7 99.3Z" stroke="#071146" stroke-width="2" stroke-miterlimit="10" stroke-linecap="round" stroke-linejoin="round"/>
<path d="M290.7 97.4C291.584 97.4 292.3 96.6837 292.3 95.8C292.3 94.9163 291.584 94.2 290.7 94.2C289.816 94.2 289.1 94.9163 289.1 95.8C289.1 96.6837 289.816 97.4 290.7 97.4Z" fill="#071146"/>
<path d="M284.1 97.4C284.984 97.4 285.7 96.6837 285.7 95.8C285.7 94.9163 284.984 94.2 284.1 94.2C283.216 94.2 282.5 94.9163 282.5 95.8C282.5 96.6837 283.216 97.4 284.1 97.4Z" fill="#071146"/>
<path d="M329.7 126.8H281.3C279.7 126.8 278.4 125.5 278.4 123.9V113.7C278.4 112.1 279.7 110.8 281.3 110.8H329.7C331.3 110.8 332.6 112.1 332.6 113.7V123.9C332.6 125.5 331.3 126.8 329.7 126.8Z" fill="#FEDB8F" stroke="#071146" stroke-width="2" stroke-miterlimit="10" stroke-linecap="round" stroke-linejoin="round"/>
<path d="M297.2 120.8C298.084 120.8 298.8 120.084 298.8 119.2C298.8 118.316 298.084 117.6 297.2 117.6C296.316 117.6 295.6 118.316 295.6 119.2C295.6 120.084 296.316 120.8 297.2 120.8Z" fill="#071146"/>
<path d="M323.7 122.7C325.633 122.7 327.2 121.133 327.2 119.2C327.2 117.267 325.633 115.7 323.7 115.7C321.767 115.7 320.2 117.267 320.2 119.2C320.2 121.133 321.767 122.7 323.7 122.7Z" stroke="#071146" stroke-width="2" stroke-miterlimit="10" stroke-linecap="round" stroke-linejoin="round"/>
<path d="M290.7 120.8C291.584 120.8 292.3 120.084 292.3 119.2C292.3 118.316 291.584 117.6 290.7 117.6C289.816 117.6 289.1 118.316 289.1 119.2C289.1 120.084 289.816 120.8 290.7 120.8Z" fill="#071146"/>
<path d="M284.1 120.8C284.984 120.8 285.7 120.084 285.7 119.2C285.7 118.316 284.984 117.6 284.1 117.6C283.216 117.6 282.5 118.316 282.5 119.2C282.5 120.084 283.216 120.8 284.1 120.8Z" fill="#071146"/>
<path d="M242.3 196.1H203.4C201.1 196.1 199.2 194.2 199.2 191.9V129.3C199.2 127 201.1 125.1 203.4 125.1H242.3C244.6 125.1 246.5 127 246.5 129.3V191.9C246.5 194.2 244.6 196.1 242.3 196.1Z" fill="#B6E2DF"/>
<path d="M241.1 194.6H202.2C199.9 194.6 198 192.7 198 190.4V127.8C198 125.5 199.9 123.6 202.2 123.6H241.1C243.4 123.6 245.3 125.5 245.3 127.8V190.4C245.3 192.7 243.4 194.6 241.1 194.6Z" stroke="#071146" stroke-width="2" stroke-miterlimit="10" stroke-linecap="round" stroke-linejoin="round"/>
<path d="M245.8 143.7H197.4C195.8 143.7 194.5 142.4 194.5 140.8V130.6C194.5 129 195.8 127.7 197.4 127.7H245.8C247.4 127.7 248.7 129 248.7 130.6V140.8C248.7 142.4 247.4 143.7 245.8 143.7Z" fill="#FEDB8F" stroke="#071146" stroke-width="2" stroke-miterlimit="10" stroke-linecap="round" stroke-linejoin="round"/>
<path d="M213.4 137.7C214.284 137.7 215 136.984 215 136.1C215 135.216 214.284 134.5 213.4 134.5C212.516 134.5 211.8 135.216 211.8 136.1C211.8 136.984 212.516 137.7 213.4 137.7Z" fill="#071146"/>
<path d="M239.8 139.6C241.733 139.6 243.3 138.033 243.3 136.1C243.3 134.167 241.733 132.6 239.8 132.6C237.867 132.6 236.3 134.167 236.3 136.1C236.3 138.033 237.867 139.6 239.8 139.6Z" stroke="#071146" stroke-width="2" stroke-miterlimit="10" stroke-linecap="round" stroke-linejoin="round"/>
<path d="M206.8 137.7C207.684 137.7 208.4 136.984 208.4 136.1C208.4 135.216 207.684 134.5 206.8 134.5C205.916 134.5 205.2 135.216 205.2 136.1C205.2 136.984 205.916 137.7 206.8 137.7Z" fill="#071146"/>
<path d="M200.3 137.7C201.184 137.7 201.9 136.984 201.9 136.1C201.9 135.216 201.184 134.5 200.3 134.5C199.416 134.5 198.7 135.216 198.7 136.1C198.7 136.984 199.416 137.7 200.3 137.7Z" fill="#071146"/>
<path d="M245.8 167.1H197.4C195.8 167.1 194.5 165.8 194.5 164.2V154C194.5 152.4 195.8 151.1 197.4 151.1H245.8C247.4 151.1 248.7 152.4 248.7 154V164.2C248.7 165.8 247.4 167.1 245.8 167.1Z" fill="#FEDB8F" stroke="#071146" stroke-width="2" stroke-miterlimit="10" stroke-linecap="round" stroke-linejoin="round"/>
<path d="M213.4 161C214.284 161 215 160.284 215 159.4C215 158.516 214.284 157.8 213.4 157.8C212.516 157.8 211.8 158.516 211.8 159.4C211.8 160.284 212.516 161 213.4 161Z" fill="#071146"/>
<path d="M239.8 162.9C241.733 162.9 243.3 161.333 243.3 159.4C243.3 157.467 241.733 155.9 239.8 155.9C237.867 155.9 236.3 157.467 236.3 159.4C236.3 161.333 237.867 162.9 239.8 162.9Z" stroke="#071146" stroke-width="2" stroke-miterlimit="10" stroke-linecap="round" stroke-linejoin="round"/>
<path d="M206.8 161C207.684 161 208.4 160.284 208.4 159.4C208.4 158.516 207.684 157.8 206.8 157.8C205.916 157.8 205.2 158.516 205.2 159.4C205.2 160.284 205.916 161 206.8 161Z" fill="#071146"/>
<path d="M200.3 161C201.184 161 201.9 160.284 201.9 159.4C201.9 158.516 201.184 157.8 200.3 157.8C199.416 157.8 198.7 158.516 198.7 159.4C198.7 160.284 199.416 161 200.3 161Z" fill="#071146"/>
<path d="M245.8 190.4H197.4C195.8 190.4 194.5 189.1 194.5 187.5V177.3C194.5 175.7 195.8 174.4 197.4 174.4H245.8C247.4 174.4 248.7 175.7 248.7 177.3V187.5C248.7 189.1 247.4 190.4 245.8 190.4Z" fill="#FEDB8F" stroke="#071146" stroke-width="2" stroke-miterlimit="10" stroke-linecap="round" stroke-linejoin="round"/>
<path d="M213.4 184.4C214.284 184.4 215 183.684 215 182.8C215 181.916 214.284 181.2 213.4 181.2C212.516 181.2 211.8 181.916 211.8 182.8C211.8 183.684 212.516 184.4 213.4 184.4Z" fill="#071146"/>
<path d="M239.8 186.3C241.733 186.3 243.3 184.733 243.3 182.8C243.3 180.867 241.733 179.3 239.8 179.3C237.867 179.3 236.3 180.867 236.3 182.8C236.3 184.733 237.867 186.3 239.8 186.3Z" stroke="#071146" stroke-width="2" stroke-miterlimit="10" stroke-linecap="round" stroke-linejoin="round"/>
<path d="M206.8 184.4C207.684 184.4 208.4 183.684 208.4 182.8C208.4 181.916 207.684 181.2 206.8 181.2C205.916 181.2 205.2 181.916 205.2 182.8C205.2 183.684 205.916 184.4 206.8 184.4Z" fill="#071146"/>
<path d="M200.3 184.4C201.184 184.4 201.9 183.684 201.9 182.8C201.9 181.916 201.184 181.2 200.3 181.2C199.416 181.2 198.7 181.916 198.7 182.8C198.7 183.684 199.416 184.4 200.3 184.4Z" fill="#071146"/>
<path d="M326.1 203.6H287.2C284.9 203.6 283 201.7 283 199.4V136.8C283 134.5 284.9 132.6 287.2 132.6H326.1C328.4 132.6 330.3 134.5 330.3 136.8V199.4C330.3 201.7 328.4 203.6 326.1 203.6Z" fill="#B6E2DF"/>
<path d="M324.9 202.1H286C283.7 202.1 281.8 200.2 281.8 197.9V135.3C281.8 133 283.7 131.1 286 131.1H324.9C327.2 131.1 329.1 133 329.1 135.3V197.9C329.1 200.2 327.2 202.1 324.9 202.1Z" stroke="#071146" stroke-width="2" stroke-miterlimit="10" stroke-linecap="round" stroke-linejoin="round"/>
<path d="M329.7 151.2H281.3C279.7 151.2 278.4 149.9 278.4 148.3V138.1C278.4 136.5 279.7 135.2 281.3 135.2H329.7C331.3 135.2 332.6 136.5 332.6 138.1V148.3C332.6 149.9 331.3 151.2 329.7 151.2Z" fill="#FEDB8F" stroke="#071146" stroke-width="2" stroke-miterlimit="10" stroke-linecap="round" stroke-linejoin="round"/>
<path d="M297.2 145.2C298.084 145.2 298.8 144.484 298.8 143.6C298.8 142.716 298.084 142 297.2 142C296.316 142 295.6 142.716 295.6 143.6C295.6 144.484 296.316 145.2 297.2 145.2Z" fill="#071146"/>
<path d="M323.7 147.1C325.633 147.1 327.2 145.533 327.2 143.6C327.2 141.667 325.633 140.1 323.7 140.1C321.767 140.1 320.2 141.667 320.2 143.6C320.2 145.533 321.767 147.1 323.7 147.1Z" stroke="#071146" stroke-width="2" stroke-miterlimit="10" stroke-linecap="round" stroke-linejoin="round"/>
<path d="M290.7 145.2C291.584 145.2 292.3 144.484 292.3 143.6C292.3 142.716 291.584 142 290.7 142C289.816 142 289.1 142.716 289.1 143.6C289.1 144.484 289.816 145.2 290.7 145.2Z" fill="#071146"/>
<path d="M284.1 145.2C284.984 145.2 285.7 144.484 285.7 143.6C285.7 142.716 284.984 142 284.1 142C283.216 142 282.5 142.716 282.5 143.6C282.5 144.484 283.216 145.2 284.1 145.2Z" fill="#071146"/>
<path d="M329.7 174.6H281.3C279.7 174.6 278.4 173.3 278.4 171.7V161.5C278.4 159.9 279.7 158.6 281.3 158.6H329.7C331.3 158.6 332.6 159.9 332.6 161.5V171.7C332.6 173.3 331.3 174.6 329.7 174.6Z" fill="#FEDB8F" stroke="#071146" stroke-width="2" stroke-miterlimit="10" stroke-linecap="round" stroke-linejoin="round"/>
<path d="M297.2 168.5C298.084 168.5 298.8 167.784 298.8 166.9C298.8 166.016 298.084 165.3 297.2 165.3C296.316 165.3 295.6 166.016 295.6 166.9C295.6 167.784 296.316 168.5 297.2 168.5Z" fill="#071146"/>
<path d="M323.7 170.4C325.633 170.4 327.2 168.833 327.2 166.9C327.2 164.967 325.633 163.4 323.7 163.4C321.767 163.4 320.2 164.967 320.2 166.9C320.2 168.833 321.767 170.4 323.7 170.4Z" stroke="#071146" stroke-width="2" stroke-miterlimit="10" stroke-linecap="round" stroke-linejoin="round"/>
<path d="M290.7 168.5C291.584 168.5 292.3 167.784 292.3 166.9C292.3 166.016 291.584 165.3 290.7 165.3C289.816 165.3 289.1 166.016 289.1 166.9C289.1 167.784 289.816 168.5 290.7 168.5Z" fill="#071146"/>
<path d="M284.1 168.5C284.984 168.5 285.7 167.784 285.7 166.9C285.7 166.016 284.984 165.3 284.1 165.3C283.216 165.3 282.5 166.016 282.5 166.9C282.5 167.784 283.216 168.5 284.1 168.5Z" fill="#071146"/>
<path d="M329.7 197.9H281.3C279.7 197.9 278.4 196.6 278.4 195V184.8C278.4 183.2 279.7 181.9 281.3 181.9H329.7C331.3 181.9 332.6 183.2 332.6 184.8V195C332.6 196.6 331.3 197.9 329.7 197.9Z" fill="white" stroke="#071146" stroke-width="2" stroke-miterlimit="10" stroke-linecap="round" stroke-linejoin="round"/>
<path d="M297.2 191.9C298.084 191.9 298.8 191.184 298.8 190.3C298.8 189.416 298.084 188.7 297.2 188.7C296.316 188.7 295.6 189.416 295.6 190.3C295.6 191.184 296.316 191.9 297.2 191.9Z" fill="#071146"/>
<path d="M323.7 193.8C325.633 193.8 327.2 192.233 327.2 190.3C327.2 188.367 325.633 186.8 323.7 186.8C321.767 186.8 320.2 188.367 320.2 190.3C320.2 192.233 321.767 193.8 323.7 193.8Z" stroke="#071146" stroke-width="2" stroke-miterlimit="10" stroke-linecap="round" stroke-linejoin="round"/>
<path d="M290.7 191.9C291.584 191.9 292.3 191.184 292.3 190.3C292.3 189.416 291.584 188.7 290.7 188.7C289.816 188.7 289.1 189.416 289.1 190.3C289.1 191.184 289.816 191.9 290.7 191.9Z" fill="#071146"/>
<path d="M284.1 191.9C284.984 191.9 285.7 191.184 285.7 190.3C285.7 189.416 284.984 188.7 284.1 188.7C283.216 188.7 282.5 189.416 282.5 190.3C282.5 191.184 283.216 191.9 284.1 191.9Z" fill="#071146"/>
<path d="M158.4 238.3H119.5C117.2 238.3 115.3 236.4 115.3 234.1V171.5C115.3 169.2 117.2 167.3 119.5 167.3H158.4C160.7 167.3 162.6 169.2 162.6 171.5V234.1C162.6 236.5 160.8 238.3 158.4 238.3Z" fill="#B6E2DF"/>
<path d="M157.3 236.9H118.4C116.1 236.9 114.2 235 114.2 232.7V170C114.2 167.7 116.1 165.8 118.4 165.8H157.3C159.6 165.8 161.5 167.7 161.5 170V232.6C161.5 235 159.6 236.9 157.3 236.9Z" stroke="#071146" stroke-width="2" stroke-miterlimit="10" stroke-linecap="round" stroke-linejoin="round"/>
<path d="M162 186H113.6C112 186 110.7 184.7 110.7 183.1V172.9C110.7 171.3 112 170 113.6 170H162C163.6 170 164.9 171.3 164.9 172.9V183.1C164.9 184.7 163.6 186 162 186Z" fill="#FEDB8F" stroke="#071146" stroke-width="2" stroke-miterlimit="10" stroke-linecap="round" stroke-linejoin="round"/>
<path d="M129.5 179.9C130.384 179.9 131.1 179.184 131.1 178.3C131.1 177.416 130.384 176.7 129.5 176.7C128.616 176.7 127.9 177.416 127.9 178.3C127.9 179.184 128.616 179.9 129.5 179.9Z" fill="#071146"/>
<path d="M156 181.8C157.933 181.8 159.5 180.233 159.5 178.3C159.5 176.367 157.933 174.8 156 174.8C154.067 174.8 152.5 176.367 152.5 178.3C152.5 180.233 154.067 181.8 156 181.8Z" stroke="#071146" stroke-width="2" stroke-miterlimit="10" stroke-linecap="round" stroke-linejoin="round"/>
<path d="M123 179.9C123.884 179.9 124.6 179.184 124.6 178.3C124.6 177.416 123.884 176.7 123 176.7C122.116 176.7 121.4 177.416 121.4 178.3C121.4 179.184 122.116 179.9 123 179.9Z" fill="#071146"/>
<path d="M116.5 179.9C117.384 179.9 118.1 179.184 118.1 178.3C118.1 177.416 117.384 176.7 116.5 176.7C115.616 176.7 114.9 177.416 114.9 178.3C114.9 179.184 115.616 179.9 116.5 179.9Z" fill="#071146"/>
<path d="M162 209.4H113.6C112 209.4 110.7 208.1 110.7 206.5V196.3C110.7 194.7 112 193.4 113.6 193.4H162C163.6 193.4 164.9 194.7 164.9 196.3V206.5C164.9 208 163.6 209.4 162 209.4Z" fill="#FEDB8F" stroke="#071146" stroke-width="2" stroke-miterlimit="10" stroke-linecap="round" stroke-linejoin="round"/>
<path d="M129.5 203.3C130.384 203.3 131.1 202.584 131.1 201.7C131.1 200.816 130.384 200.1 129.5 200.1C128.616 200.1 127.9 200.816 127.9 201.7C127.9 202.584 128.616 203.3 129.5 203.3Z" fill="#071146"/>
<path d="M156 205.2C157.933 205.2 159.5 203.633 159.5 201.7C159.5 199.767 157.933 198.2 156 198.2C154.067 198.2 152.5 199.767 152.5 201.7C152.5 203.633 154.067 205.2 156 205.2Z" stroke="#071146" stroke-width="2" stroke-miterlimit="10" stroke-linecap="round" stroke-linejoin="round"/>
<path d="M123 203.3C123.884 203.3 124.6 202.584 124.6 201.7C124.6 200.816 123.884 200.1 123 200.1C122.116 200.1 121.4 200.816 121.4 201.7C121.4 202.584 122.116 203.3 123 203.3Z" fill="#071146"/>
<path d="M116.5 203.3C117.384 203.3 118.1 202.584 118.1 201.7C118.1 200.816 117.384 200.1 116.5 200.1C115.616 200.1 114.9 200.816 114.9 201.7C114.9 202.584 115.616 203.3 116.5 203.3Z" fill="#071146"/>
<path d="M162 232.7H113.6C112 232.7 110.7 231.4 110.7 229.8V219.6C110.7 218 112 216.7 113.6 216.7H162C163.6 216.7 164.9 218 164.9 219.6V229.8C164.9 231.4 163.6 232.7 162 232.7Z" fill="#FEDB8F" stroke="#071146" stroke-width="2" stroke-miterlimit="10" stroke-linecap="round" stroke-linejoin="round"/>
<path d="M129.5 226.6C130.384 226.6 131.1 225.884 131.1 225C131.1 224.116 130.384 223.4 129.5 223.4C128.616 223.4 127.9 224.116 127.9 225C127.9 225.884 128.616 226.6 129.5 226.6Z" fill="#071146"/>
<path d="M156 228.5C157.933 228.5 159.5 226.933 159.5 225C159.5 223.067 157.933 221.5 156 221.5C154.067 221.5 152.5 223.067 152.5 225C152.5 226.933 154.067 228.5 156 228.5Z" stroke="#071146" stroke-width="2" stroke-miterlimit="10" stroke-linecap="round" stroke-linejoin="round"/>
<path d="M123 226.6C123.884 226.6 124.6 225.884 124.6 225C124.6 224.116 123.884 223.4 123 223.4C122.116 223.4 121.4 224.116 121.4 225C121.4 225.884 122.116 226.6 123 226.6Z" fill="#071146"/>
<path d="M116.5 226.6C117.384 226.6 118.1 225.884 118.1 225C118.1 224.116 117.384 223.4 116.5 223.4C115.616 223.4 114.9 224.116 114.9 225C114.9 225.884 115.616 226.6 116.5 226.6Z" fill="#071146"/>
<path d="M435.6 230.3L414.3 240.4C412.7 241.2 410.8 240.5 410.1 238.9L402.8 223.5C402 221.9 402.7 220 404.3 219.3L425.6 209.2C427.2 208.4 429.1 209.1 429.8 210.7L437.1 226.1C437.9 227.7 437.2 229.6 435.6 230.3Z" fill="#B3C1F4"/>
<path d="M400.4 225.9L416.5 227C418.4 227.1 420.2 226.3 421.2 224.8L430.5 211.6" stroke="#071146" stroke-width="2" stroke-miterlimit="10" stroke-linecap="round" stroke-linejoin="round"/>
<path d="M436.3 223.8L422.8 222.9" stroke="#071146" stroke-width="2" stroke-miterlimit="10" stroke-linecap="round" stroke-linejoin="round"/>
<path d="M414.1 227L406.2 238.1" stroke="#071146" stroke-width="2" stroke-miterlimit="10" stroke-linecap="round" stroke-linejoin="round"/>
<path d="M435.5 230.4L411.8 241.7C410 242.5 407.9 241.8 407.1 240L399 223C398.2 221.2 398.9 219.1 400.7 218.3L424.4 207C426.2 206.2 428.3 206.9 429.1 208.7L437.2 225.7C438 227.4 437.3 229.6 435.5 230.4Z" stroke="#071146" stroke-width="2" stroke-miterlimit="10" stroke-linecap="round" stroke-linejoin="round"/>
<path d="M89.8 204.2L68.5 214.3C66.9 215.1 65 214.4 64.3 212.8L57 197.4C56.2 195.8 56.9 193.9 58.5 193.2L79.8 183C81.4 182.2 83.3 182.9 84 184.5L91.3 199.9C92.1 201.5 91.4 203.4 89.8 204.2Z" fill="#B3C1F4"/>
<path d="M54.6 199.7L70.7 200.8C72.6 200.9 74.4 200.1 75.4 198.6L84.7 185.4" stroke="#071146" stroke-width="2" stroke-miterlimit="10" stroke-linecap="round" stroke-linejoin="round"/>
<path d="M90.5 197.6L77 196.7" stroke="#071146" stroke-width="2" stroke-miterlimit="10" stroke-linecap="round" stroke-linejoin="round"/>
<path d="M68.2 200.8L60.4 211.9" stroke="#071146" stroke-width="2" stroke-miterlimit="10" stroke-linecap="round" stroke-linejoin="round"/>
<path d="M89.7 204.2L66 215.5C64.2 216.3 62.1 215.6 61.3 213.8L53.2 196.8C52.4 195 53.1 192.9 54.9 192.1L78.6 180.8C80.4 180 82.5 180.7 83.3 182.5L91.4 199.5C92.2 201.3 91.5 203.4 89.7 204.2Z" stroke="#071146" stroke-width="2" stroke-miterlimit="10" stroke-linecap="round" stroke-linejoin="round"/>
<path d="M27.7 242.1L5.90002 233.1C4.30002 232.4 3.50002 230.6 4.20002 228.9L10.7 213.1C11.4 211.5 13.2 210.7 14.9 211.4L36.7 220.4C38.3 221.1 39.1 222.9 38.4 224.6L31.9 240.4C31.2 242 29.3 242.8 27.7 242.1Z" fill="#B3C1F4"/>
<path d="M7.40002 213L17.3 225.7C18.4 227.2 20.3 227.9 22.1 227.7L38.1 225.8" stroke="#071146" stroke-width="2" stroke-miterlimit="10" stroke-linecap="round" stroke-linejoin="round"/>
<path d="M33.0001 238.2L24.6001 227.5" stroke="#071146" stroke-width="2" stroke-miterlimit="10" stroke-linecap="round" stroke-linejoin="round"/>
<path d="M15.7001 223.8L2.20007 225.5" stroke="#071146" stroke-width="2" stroke-miterlimit="10" stroke-linecap="round" stroke-linejoin="round"/>
<path d="M27.6 242L3.40005 232C1.60005 231.3 0.800045 229.2 1.50005 227.4L8.60005 210C9.30005 208.2 11.4 207.4 13.2 208.1L37.5 218.2C39.3 218.9 40.1 221 39.4 222.8L32.2 240.1C31.5 241.9 29.4 242.8 27.6 242Z" stroke="#071146" stroke-width="2" stroke-miterlimit="10" stroke-linecap="round" stroke-linejoin="round"/>
<path d="M362.5 214.9C362.3 214.3 362 213.7 361.8 213.1C357.5 203.9 346.8 198.2 336.7 199.9C343.4 191.6 341.6 177.9 333.1 171.4C324.6 165 310.9 167.1 304.8 175.7C304.8 164.1 295.4 153.8 284.2 150.8C273 147.8 260.7 151.3 251.4 158.1C243.6 163.8 237.3 172.1 236 181.6C236 181.6 230.1 178.9 225 181.6C221.7 183.4 220.4 187.7 220.4 187.7C216.4 188.2 212.6 190.2 210.3 193.5C210.3 184.9 203.3 177.3 195.1 175.1C186.8 172.9 177.8 175.5 170.8 180.5C165 184.7 160.4 190.8 159.4 197.9C152.2 195 143.5 199.4 139.9 206.2C139.5 206.9 139.2 207.8 138.9 208.9C134.1 225.8 147.4 242.4 164.9 242.3L238.9 241.7C239.5 241.7 240.6 241.7 240.6 241.7L343.6 240.9C356.9 240.8 367 227.6 362.5 214.9Z" fill="white"/>
<path d="M75.3 104.1C82.2 104 87.3 97.3 85 90.8C84.9 90.5 84.8 90.2 84.6 89.9C82.4 85.2 76.9 82.3 71.8 83.1C75.2 78.9 74.3 71.9 70 68.6C65.7 65.3 58.7 66.4 55.5 70.8C55.5 64.9 50.7 59.6 45 58.1C39.3 56.6 33 58.3 28.2 61.8C24.2 64.7 21 68.9 20.3 73.8C15.3 71.8 9.29996 74.8 6.79996 79.5C6.49996 80 6.29996 80.6 6.09996 81.4C2.79996 93 12 104.5 24.1 104.4L75.3 104.1Z" fill="white"/>
<path d="M70.7 101.7C77.6 101.6 82.7 94.9 80.4 88.4C80.3 88.1 80.2 87.8 80 87.5C77.8 82.8 72.3 79.9 67.2 80.7C70.6 76.5 69.7 69.5 65.4 66.2C61.1 63 54.2 64 51 68.5C51 62.6 46.2 57.3 40.5 55.8C34.8 54.3 28.5 56 23.7 59.5C19.7 62.4 16.5 66.6 15.8 71.5C10.8 69.5 4.79996 72.5 2.29996 77.2C1.99996 77.7 1.79996 78.3 1.59996 79.1C-1.70004 90.7 7.49996 102.2 19.6 102.1L70.7 101.7Z" stroke="#071146" stroke-width="2" stroke-miterlimit="10" stroke-linecap="round" stroke-linejoin="round"/>
<path d="M201 37.5C206.1 37.5 210 32.4 208.2 27.6C208.1 27.4 208 27.2 207.9 26.9C206.3 23.4 202.2 21.2 198.4 21.9C200.9 18.7 200.3 13.5 197 11.1C193.7 8.7 188.6 9.5 186.2 12.8C186.2 8.4 182.6 4.5 178.4 3.3C174.2 2.1 169.5 3.5 165.9 6.1C162.9 8.2 160.5 11.4 160 15C156.3 13.5 151.8 15.8 149.9 19.3C149.7 19.7 149.5 20.1 149.4 20.7C146.9 29.4 153.8 38 162.8 37.9L201 37.5Z" fill="white"/>
<path d="M197.5 35.7C202.6 35.7 206.5 30.6 204.7 25.8C204.6 25.6 204.5 25.4 204.4 25.1C202.8 21.6 198.7 19.4 194.9 20.1C197.4 16.9 196.8 11.7 193.5 9.3C190.2 6.9 185.1 7.7 182.7 11C182.7 6.6 179.1 2.7 174.9 1.5C170.7 0.3 166 1.7 162.4 4.3C159.4 6.4 157 9.6 156.5 13.2C152.8 11.7 148.3 14 146.4 17.5C146.2 17.9 146 18.3 145.9 18.9C143.4 27.6 150.3 36.2 159.3 36.1L197.5 35.7Z" stroke="#071146" stroke-width="2" stroke-miterlimit="10" stroke-linecap="round" stroke-linejoin="round"/>
<path d="M451.1 166.3C455.1 166.3 458.1 162.4 456.7 158.6C456.6 158.4 456.6 158.2 456.5 158.1C455.2 155.4 452 153.7 449.1 154.2C451.1 151.7 450.6 147.7 448 145.8C445.5 143.9 441.4 144.5 439.6 147.1C439.6 143.7 436.8 140.6 433.5 139.7C430.2 138.8 426.6 139.8 423.8 141.9C421.5 143.6 419.6 146 419.2 148.9C416.3 147.7 412.8 149.5 411.4 152.2C411.2 152.5 411.1 152.9 411 153.3C409.1 160.1 414.4 166.7 421.4 166.7L451.1 166.3Z" fill="white"/>
<path d="M448.4 164.8C452.4 164.8 455.4 160.9 454 157.1C453.9 156.9 453.9 156.7 453.8 156.6C452.5 153.9 449.3 152.2 446.4 152.7C448.4 150.2 447.9 146.2 445.3 144.3C442.8 142.4 438.7 143 436.9 145.6C436.9 142.2 434.1 139.1 430.8 138.2C427.5 137.3 423.9 138.3 421.1 140.4C418.8 142.1 416.9 144.5 416.5 147.4C413.6 146.2 410.1 148 408.7 150.7C408.5 151 408.4 151.4 408.3 151.8C406.4 158.6 411.7 165.2 418.7 165.2L448.4 164.8Z" stroke="#071146" stroke-width="2" stroke-miterlimit="10" stroke-linecap="round" stroke-linejoin="round"/>
<path d="M112.7 128.4C113.5 128.4 114.4 128.5 115.2 128.7C115.6 128.8 115.8 129.1 115.9 129.4L116.1 131.1C116.2 131.9 116.9 132.5 117.7 132.5C117.9 132.5 118.1 132.5 118.3 132.4L119.9 131.7C120.2 131.6 120.6 131.6 120.9 131.9C122.1 133.1 122.9 134.6 123.4 136.2C123.5 136.5 123.4 136.9 123.1 137.1L121.7 138.1C121.3 138.4 121.1 138.9 121.1 139.4C121.1 139.9 121.3 140.4 121.7 140.7L123.1 141.7C123.4 141.9 123.5 142.3 123.4 142.6C122.9 144.2 122 145.7 120.9 146.9C120.7 147.2 120.3 147.2 119.9 147.1L118.3 146.4C117.8 146.2 117.3 146.2 116.9 146.5C116.5 146.8 116.2 147.2 116.1 147.7L115.9 149.4C115.9 149.8 115.6 150.1 115.2 150.1C113.5 150.5 111.8 150.5 110.2 150.1C109.8 150 109.6 149.7 109.5 149.4L109.3 147.7C109.2 147.2 109 146.8 108.5 146.5C108.1 146.3 107.5 146.2 107.1 146.4L105.5 147.1C105.2 147.2 104.8 147.2 104.5 146.9C103.3 145.7 102.5 144.2 102 142.6C101.9 142.3 102 141.9 102.3 141.7L103.7 140.7C104.1 140.4 104.3 139.9 104.3 139.4C104.3 138.9 104.1 138.4 103.7 138.1L102.3 137.1C102 136.9 101.9 136.5 102 136.2C102.5 134.6 103.4 133.1 104.5 131.9C104.7 131.6 105.1 131.6 105.5 131.7L107.1 132.4C107.6 132.6 108.1 132.6 108.5 132.3C108.9 132 109.2 131.6 109.3 131.1L109.5 129.4C109.5 129 109.8 128.7 110.2 128.7C111 128.5 111.8 128.4 112.7 128.4ZM112.7 130.1C112.2 130.1 111.7 130.2 111.2 130.2L111.1 131.3C111 132.3 110.4 133.3 109.5 133.8C108.6 134.3 107.5 134.4 106.5 134L105.5 133.5C104.8 134.3 104.3 135.2 104 136.1L104.9 136.8C105.7 137.4 106.2 138.4 106.2 139.4C106.2 140.4 105.7 141.4 104.9 142L104 142.7C104.4 143.7 104.9 144.6 105.5 145.3L106.5 144.8C107.5 144.4 108.6 144.4 109.5 145C110.4 145.5 111 146.4 111.1 147.5L111.2 148.6C112.2 148.8 113.3 148.8 114.3 148.6L114.4 147.5C114.5 146.5 115.1 145.5 116 145C116.9 144.5 118 144.4 119 144.8L120 145.3C120.7 144.5 121.2 143.6 121.5 142.7L120.6 142C119.8 141.4 119.3 140.4 119.3 139.4C119.3 138.4 119.8 137.4 120.6 136.8L121.5 136.1C121.1 135.1 120.6 134.2 120 133.5L119 133.9C118.6 134.1 118.1 134.2 117.7 134.2C116 134.2 114.6 132.9 114.4 131.3L114.3 130.2C113.7 130.2 113.2 130.2 112.7 130.1ZM112.7 135.3C115.1 135.3 117 137.2 117 139.6C117 142 115.1 143.9 112.7 143.9C110.3 143.9 108.4 142 108.4 139.6C108.4 137.2 110.3 135.3 112.7 135.3ZM112.7 137C111.3 137 110.1 138.1 110.1 139.6C110.1 141.1 111.2 142.2 112.7 142.2C114.1 142.2 115.3 141.1 115.3 139.6C115.3 138.1 114.1 137 112.7 137Z" fill="#071146"/>
<path d="M373.6 89.1C374.4 89.1 375.3 89.2 376.1 89.4C376.5 89.5 376.7 89.8 376.8 90.1L377 91.8C377.1 92.6 377.8 93.2 378.6 93.2C378.8 93.2 379 93.2 379.2 93.1L380.8 92.4C381.1 92.3 381.5 92.3 381.8 92.6C383 93.8 383.8 95.3 384.3 96.9C384.4 97.2 384.3 97.6 384 97.8L382.6 98.8C382.2 99.1 382 99.6 382 100.1C382 100.6 382.2 101.1 382.6 101.4L384 102.4C384.3 102.6 384.4 103 384.3 103.3C383.8 104.9 382.9 106.4 381.8 107.6C381.6 107.9 381.2 107.9 380.8 107.8L379.2 107.1C378.7 106.9 378.2 106.9 377.8 107.2C377.4 107.5 377.1 107.9 377 108.4L376.8 110.1C376.8 110.5 376.5 110.8 376.1 110.8C374.4 111.2 372.7 111.2 371.1 110.8C370.7 110.7 370.5 110.4 370.4 110.1L370.2 108.4C370.1 107.9 369.9 107.5 369.4 107.2C369 107 368.4 106.9 368 107.1L366.4 107.8C366.1 107.9 365.7 107.9 365.4 107.6C364.2 106.4 363.4 104.9 362.9 103.3C362.8 103 362.9 102.6 363.2 102.4L364.6 101.4C365 101.1 365.2 100.6 365.2 100.1C365.2 99.6 365 99.1 364.6 98.8L363.2 97.8C362.9 97.6 362.8 97.2 362.9 96.9C363.4 95.3 364.3 93.8 365.4 92.6C365.6 92.3 366 92.3 366.4 92.4L368 93.1C368.5 93.3 369 93.3 369.4 93C369.8 92.7 370.1 92.3 370.2 91.8L370.4 90.1C370.4 89.7 370.7 89.4 371.1 89.4C371.9 89.2 372.7 89.1 373.6 89.1ZM373.6 90.8C373.1 90.8 372.6 90.9 372.1 90.9L372 92C371.9 93 371.3 94 370.4 94.5C369.5 95 368.4 95.1 367.4 94.7L366.4 94.2C365.7 95 365.2 95.9 364.9 96.8L365.8 97.5C366.6 98.1 367.1 99.1 367.1 100.1C367.1 101.1 366.6 102.1 365.8 102.7L364.9 103.4C365.3 104.4 365.8 105.3 366.4 106L367.4 105.5C368.4 105.1 369.5 105.1 370.4 105.7C371.3 106.3 371.9 107.1 372 108.2L372.1 109.3C373.1 109.5 374.2 109.5 375.2 109.3L375.3 108.2C375.4 107.2 376 106.2 376.9 105.7C377.8 105.2 378.9 105.1 379.9 105.5L380.9 106C381.6 105.2 382.1 104.3 382.4 103.4L381.5 102.7C380.7 102.1 380.2 101.1 380.2 100.1C380.2 99.1 380.7 98.1 381.5 97.5L382.4 96.8C382 95.8 381.5 94.9 380.9 94.2L379.9 94.6C379.5 94.8 379 94.9 378.6 94.9C376.9 94.9 375.5 93.6 375.3 92L375.2 90.9C374.6 90.8 374.1 90.8 373.6 90.8ZM373.5 95.9C375.9 95.9 377.8 97.8 377.8 100.2C377.8 102.6 375.9 104.5 373.5 104.5C371.1 104.5 369.2 102.6 369.2 100.2C369.3 97.8 371.2 95.9 373.5 95.9ZM373.5 97.6C372.1 97.6 370.9 98.7 370.9 100.2C370.9 101.7 372 102.8 373.5 102.8C374.9 102.8 376.1 101.7 376.1 100.2C376.1 98.7 375 97.6 373.5 97.6Z" fill="#071146"/>
<path d="M68.1 125.9C69.4 125.9 70.8 126.1 72.1 126.4C72.7 126.5 73.1 127 73.2 127.6L73.5 130.4C73.6 131.7 74.7 132.7 76 132.7C76.3 132.7 76.7 132.6 77 132.5L79.6 131.4C80.1 131.2 80.8 131.3 81.2 131.7C83.1 133.7 84.4 136.1 85.2 138.6C85.4 139.2 85.2 139.8 84.7 140.1L82.4 141.8C81.8 142.3 81.4 143 81.4 143.8C81.4 144.6 81.8 145.4 82.4 145.8L84.7 147.5C85.2 147.8 85.4 148.5 85.2 149C84.4 151.6 83 154 81.2 155.9C80.8 156.3 80.2 156.5 79.6 156.2L77 155.1C76.3 154.8 75.4 154.8 74.7 155.2C74 155.6 73.5 156.3 73.5 157.1L73.2 159.9C73.1 160.5 72.7 160.9 72.2 161.1C69.5 161.7 66.8 161.7 64.1 161.1C63.5 161 63.1 160.5 63.1 159.9L62.8 157.1C62.7 156.3 62.2 155.6 61.6 155.2C60.9 154.8 60.1 154.8 59.3 155.1L56.7 156.2C56.2 156.4 55.5 156.3 55.1 155.9C53.2 153.9 51.9 151.5 51.1 149C50.9 148.4 51.1 147.8 51.6 147.5L53.9 145.8C54.5 145.3 54.9 144.6 54.9 143.8C54.9 143 54.5 142.2 53.9 141.8L51.6 140.1C51.1 139.8 50.9 139.1 51.1 138.6C51.9 136 53.3 133.6 55.1 131.7C55.5 131.3 56.1 131.1 56.7 131.4L59.3 132.5C60 132.8 60.9 132.8 61.6 132.4C62.3 132 62.8 131.3 62.8 130.5L63.1 127.7C63.2 127.1 63.6 126.6 64.2 126.5C65.4 126.1 66.7 125.9 68.1 125.9ZM68.1 128.6C67.3 128.6 66.4 128.7 65.6 128.8L65.4 130.6C65.2 132.3 64.2 133.7 62.8 134.6C61.3 135.4 59.6 135.6 58 134.9L56.4 134.2C55.4 135.5 54.5 136.9 53.9 138.4L55.4 139.5C56.8 140.5 57.6 142.1 57.6 143.7C57.6 145.4 56.8 147 55.5 147.9L54 149C54.6 150.5 55.4 152 56.5 153.2L58.2 152.5C59.7 151.8 61.5 151.9 62.9 152.8C64.3 153.6 65.3 155.1 65.5 156.8L65.7 158.6C67.3 158.9 69 158.9 70.6 158.6L70.8 156.8C71 155.1 72 153.7 73.4 152.8C74.9 152 76.6 151.9 78.2 152.5L79.9 153.2C80.9 151.9 81.8 150.5 82.4 149L80.9 147.9C79.5 146.9 78.7 145.3 78.7 143.7C78.7 142 79.5 140.4 80.8 139.5L82.3 138.4C81.7 136.9 80.9 135.4 79.8 134.2L78.2 134.9C77.5 135.2 76.8 135.3 76.1 135.3C73.4 135.3 71.2 133.3 70.9 130.6L70.7 128.8C69.7 128.7 68.9 128.6 68.1 128.6ZM68.1 136.9C71.9 136.9 75 140 75 143.8C75 147.6 71.9 150.7 68.1 150.7C64.3 150.7 61.2 147.6 61.2 143.8C61.2 139.9 64.3 136.9 68.1 136.9ZM68.1 139.6C65.8 139.6 64 141.4 64 143.7C64 146 65.8 147.8 68.1 147.8C70.4 147.8 72.2 146 72.2 143.7C72.2 141.5 70.3 139.6 68.1 139.6Z" fill="#071146"/>
<path d="M395.5 51.1C396.8 51.1 398.2 51.3 399.5 51.6C400.1 51.7 400.5 52.2 400.6 52.8L400.9 55.6C401 56.9 402.1 57.9 403.4 57.9C403.7 57.9 404.1 57.8 404.4 57.7L407 56.6C407.5 56.4 408.2 56.5 408.6 56.9C410.5 58.9 411.8 61.3 412.6 63.8C412.8 64.4 412.6 65 412.1 65.3L409.8 67C409.2 67.5 408.8 68.2 408.8 69C408.8 69.8 409.2 70.6 409.8 71L412.1 72.7C412.6 73 412.8 73.7 412.6 74.2C411.8 76.8 410.4 79.2 408.6 81.1C408.2 81.5 407.6 81.7 407 81.4L404.4 80.3C403.7 80 402.8 80 402.1 80.4C401.4 80.8 400.9 81.5 400.9 82.3L400.6 85.1C400.5 85.7 400.1 86.1 399.6 86.3C396.9 86.9 394.2 86.9 391.5 86.3C390.9 86.2 390.5 85.7 390.5 85.1L390.2 82.3C390.1 81.5 389.6 80.8 389 80.4C388.3 80 387.5 80 386.7 80.3L384.1 81.4C383.6 81.6 382.9 81.5 382.5 81.1C380.6 79.1 379.3 76.7 378.5 74.2C378.3 73.6 378.5 73 379 72.7L381.3 71C381.9 70.5 382.3 69.8 382.3 69C382.3 68.2 381.9 67.4 381.3 67L379 65.3C378.5 65 378.3 64.3 378.5 63.8C379.3 61.2 380.7 58.8 382.5 56.9C382.9 56.5 383.5 56.3 384.1 56.6L386.7 57.7C387.4 58 388.3 58 389 57.6C389.7 57.2 390.2 56.5 390.2 55.7L390.5 52.9C390.6 52.3 391 51.8 391.6 51.7C392.8 51.3 394.2 51.1 395.5 51.1ZM395.5 53.9C394.7 53.9 393.8 54 393 54.1L392.8 55.9C392.6 57.6 391.6 59 390.2 59.9C388.7 60.7 387 60.9 385.4 60.2L383.8 59.5C382.8 60.8 381.9 62.2 381.3 63.7L382.8 64.8C384.2 65.8 385 67.4 385 69C385 70.6 384.2 72.3 382.9 73.2L381.4 74.3C382 75.8 382.8 77.3 383.9 78.5L385.6 77.8C387.1 77.1 388.9 77.2 390.3 78.1C391.7 78.9 392.7 80.4 392.9 82.1L393.1 83.9C394.7 84.2 396.4 84.2 398 83.9L398.2 82.1C398.4 80.4 399.4 79 400.8 78.1C402.3 77.3 404 77.2 405.6 77.8L407.3 78.5C408.3 77.2 409.2 75.8 409.8 74.3L408.3 73.2C406.9 72.2 406.1 70.6 406.1 69C406.1 67.4 406.9 65.7 408.2 64.8L409.7 63.7C409.1 62.2 408.3 60.7 407.2 59.5L405.6 60.2C404.9 60.5 404.2 60.6 403.5 60.6C400.8 60.6 398.6 58.6 398.3 55.9L398.1 54.1C397.2 53.9 396.3 53.9 395.5 53.9ZM395.5 62.1C399.3 62.1 402.4 65.2 402.4 69C402.4 72.8 399.3 75.9 395.5 75.9C391.7 75.9 388.6 72.8 388.6 69C388.7 65.2 391.7 62.1 395.5 62.1ZM395.5 64.8C393.2 64.8 391.4 66.6 391.4 68.9C391.4 71.2 393.2 73 395.5 73C397.8 73 399.6 71.2 399.6 68.9C399.6 66.6 397.8 64.8 395.5 64.8Z" fill="#071146"/>
<path d="M26.1 113.9C26.9001 113.9 27.8 114 28.6 114.2C29 114.3 29.2 114.6 29.3 114.9L29.5 116.6C29.6 117.4 30.3 118 31.1 118C31.3 118 31.5 118 31.7001 117.9L33.3 117.2C33.6 117.1 34 117.1 34.3 117.4C35.5 118.6 36.3 120.1 36.8 121.7C36.9 122 36.8 122.4 36.5 122.6L35.1 123.6C34.7 123.9 34.5 124.4 34.5 124.9C34.5 125.4 34.7 125.9 35.1 126.2L36.5 127.2C36.8 127.4 36.9 127.8 36.8 128.1C36.3 129.7 35.4 131.2 34.3 132.4C34.1 132.7 33.7 132.7 33.3 132.6L31.7001 131.9C31.2001 131.7 30.7 131.7 30.3 132C29.9 132.3 29.6 132.7 29.5 133.2L29.3 134.9C29.3 135.3 29 135.6 28.6 135.6C26.9001 136 25.2001 136 23.6 135.6C23.2 135.5 23 135.2 22.9 134.9L22.7 133.2C22.6 132.7 22.4 132.3 21.9 132C21.5 131.8 20.9 131.7 20.5 131.9L18.9 132.6C18.6 132.7 18.2 132.7 17.9 132.4C16.7 131.2 15.9 129.7 15.4 128.1C15.3 127.8 15.4 127.4 15.7 127.2L17.1 126.2C17.5 125.9 17.7 125.4 17.7 124.9C17.7 124.4 17.5 123.9 17.1 123.6L15.7 122.6C15.4 122.4 15.3 122 15.4 121.7C15.9 120.1 16.8 118.6 17.9 117.4C18.1 117.1 18.5 117.1 18.9 117.2L20.5 117.9C21 118.1 21.5 118.1 21.9 117.8C22.3 117.5 22.6 117.1 22.7 116.6L22.9 114.9C22.9 114.5 23.2 114.2 23.6 114.2C24.5 114 25.3 113.9 26.1 113.9ZM26.1 115.6C25.6 115.6 25.1 115.7 24.6 115.7L24.5 116.8C24.4 117.8 23.8 118.8 22.9 119.3C22 119.8 20.9 119.9 19.9 119.5L18.9 119C18.2 119.8 17.7 120.7 17.4 121.6L18.3 122.3C19.1 122.9 19.6 123.9 19.6 124.9C19.6 125.9 19.1 126.9 18.3 127.5L17.4 128.2C17.8 129.2 18.3 130.1 18.9 130.8L19.9 130.3C20.9 129.9 22 129.9 22.9 130.5C23.8 131 24.4 131.9 24.5 133L24.6 134.1C25.6 134.3 26.7001 134.3 27.7001 134.1L27.8 133C27.9 132 28.5 131 29.4 130.5C30.3 130 31.4001 129.9 32.4001 130.3L33.4001 130.8C34.1001 130 34.6001 129.1 34.9001 128.2L34 127.5C33.2001 126.9 32.7001 125.9 32.7001 124.9C32.7001 123.9 33.2001 122.9 34 122.3L34.9001 121.6C34.5001 120.6 34.0001 119.7 33.4001 119L32.4001 119.4C32.0001 119.6 31.5 119.7 31.1 119.7C29.4001 119.7 28 118.4 27.8 116.8L27.7001 115.7C27.2001 115.7 26.7001 115.6 26.1 115.6ZM26.1 120.8C28.5 120.8 30.4 122.7 30.4 125.1C30.4 127.5 28.5 129.4 26.1 129.4C23.7001 129.4 21.8 127.5 21.8 125.1C21.9 122.7 23.8 120.8 26.1 120.8ZM26.1 122.5C24.7001 122.5 23.5 123.6 23.5 125.1C23.5 126.6 24.6 127.7 26.1 127.7C27.5 127.7 28.7001 126.6 28.7001 125.1C28.7001 123.6 27.6 122.5 26.1 122.5Z" fill="#071146"/>
<path d="M412.7 95.6C413.5 95.6 414.4 95.7 415.2 95.9C415.6 96 415.8 96.3 415.9 96.6L416.1 98.3C416.2 99.1 416.9 99.7 417.7 99.7C417.9 99.7 418.1 99.7 418.3 99.6L419.9 98.9C420.2 98.8 420.6 98.8 420.9 99.1C422.1 100.3 422.9 101.8 423.4 103.4C423.5 103.7 423.4 104.1 423.1 104.3L421.7 105.3C421.3 105.6 421.1 106.1 421.1 106.6C421.1 107.1 421.3 107.6 421.7 107.9L423.1 108.9C423.4 109.1 423.5 109.5 423.4 109.8C422.9 111.4 422 112.9 420.9 114.1C420.7 114.4 420.3 114.4 419.9 114.3L418.3 113.6C417.8 113.4 417.3 113.4 416.9 113.7C416.5 114 416.2 114.4 416.1 114.9L415.9 116.6C415.9 117 415.6 117.3 415.2 117.3C413.5 117.7 411.8 117.7 410.2 117.3C409.8 117.2 409.6 116.9 409.5 116.6L409.3 114.9C409.2 114.4 409 114 408.5 113.7C408.1 113.5 407.5 113.4 407.1 113.6L405.5 114.3C405.2 114.4 404.8 114.4 404.5 114.1C403.3 112.9 402.5 111.4 402 109.8C401.9 109.5 402 109.1 402.3 108.9L403.7 107.9C404.1 107.6 404.3 107.1 404.3 106.6C404.3 106.1 404.1 105.6 403.7 105.3L402.3 104.3C402 104.1 401.9 103.7 402 103.4C402.5 101.8 403.4 100.3 404.5 99.1C404.7 98.8 405.1 98.8 405.5 98.9L407.1 99.6C407.6 99.8 408.1 99.8 408.5 99.5C408.9 99.2 409.2 98.8 409.3 98.3L409.5 96.6C409.5 96.2 409.8 95.9 410.2 95.9C411 95.7 411.8 95.7 412.7 95.6ZM412.7 97.4C412.2 97.4 411.7 97.5 411.2 97.5L411.1 98.6C411 99.6 410.4 100.6 409.5 101.1C408.6 101.6 407.5 101.7 406.5 101.3L405.5 100.8C404.8 101.6 404.3 102.5 404 103.4L404.9 104.1C405.7 104.7 406.2 105.7 406.2 106.7C406.2 107.7 405.7 108.7 404.9 109.3L404 110C404.4 111 404.9 111.9 405.5 112.6L406.5 112.1C407.5 111.7 408.6 111.7 409.5 112.3C410.4 112.8 411 113.7 411.1 114.8L411.2 115.9C412.2 116.1 413.3 116.1 414.3 115.9L414.4 114.8C414.5 113.8 415.1 112.8 416 112.3C416.9 111.8 418 111.7 419 112.1L420 112.6C420.7 111.8 421.2 110.9 421.5 110L420.6 109.3C419.8 108.7 419.3 107.7 419.3 106.7C419.3 105.7 419.8 104.7 420.6 104.1L421.5 103.4C421.1 102.4 420.6 101.5 420 100.8L419 101.2C418.6 101.4 418.1 101.5 417.7 101.5C416 101.5 414.6 100.2 414.4 98.6L414.3 97.5C413.7 97.4 413.2 97.4 412.7 97.4ZM412.6 102.5C415 102.5 416.9 104.4 416.9 106.8C416.9 109.2 415 111.1 412.6 111.1C410.2 111.1 408.3 109.2 408.3 106.8C408.4 104.4 410.3 102.5 412.6 102.5ZM412.6 104.2C411.2 104.2 410 105.3 410 106.8C410 108.3 411.1 109.4 412.6 109.4C414 109.4 415.2 108.3 415.2 106.8C415.2 105.3 414.1 104.2 412.6 104.2Z" fill="#071146"/>
<path d="M238.1 242.1C248 242.1 255.6 232.4 252.4 223C252.2 222.6 252.1 222.1 251.9 221.7C248.8 214.8 240.9 210.5 233.5 211.7C238.5 205.6 237.3 195.5 231.1 190.6C224.9 185.8 214.8 187.2 210.1 193.6C210.2 185 203.3 177.3 195.1 175C186.9 172.7 177.8 175.2 170.8 180.1C165 184.2 160.2 190.3 159.2 197.3C152.1 194.3 143.3 198.6 139.6 205.4C139.2 206.1 138.8 207 138.5 208.1C133.5 224.9 146.6 241.7 164.2 241.8L238.1 242.1Z" stroke="#071146" stroke-width="2" stroke-miterlimit="10" stroke-linecap="round" stroke-linejoin="round"/>
<path d="M237.5 242.1L342.6 242C356 242 366.2 228.8 361.8 216.1C361.6 215.5 361.4 214.9 361.1 214.3C356.9 205.1 346.1 199.3 336.1 200.9C342.8 192.6 341.2 178.9 332.7 172.4C324.2 165.9 310.6 167.9 304.3 176.6C304.4 165 295 154.6 283.8 151.6C272.6 148.5 260.3 151.9 250.9 158.7C243.1 164.3 236.7 172.6 235.3 182.1C235.3 182.1 229.4 179.4 224.3 182C221 183.7 219.6 188.1 219.6 188.1" stroke="#071146" stroke-width="2" stroke-miterlimit="10" stroke-linecap="round" stroke-linejoin="round"/>
<path d="M140.2 150.7V76H226.6V23.3H306.6V51.1" stroke="#071146" stroke-miterlimit="10" stroke-linecap="round" stroke-linejoin="round" stroke-dasharray="3 3"/>
<path d="M374.3 177.7C374.3 177.7 367.6 175.8 363.4 168.5C359.7 162.1 361.1 153.2 361.1 153.2C361.1 153.2 365.5 149.7 368 148.1L380.4 148C382.4 149.3 387.6 153.2 387.6 153.2C387.6 153.2 389 162.1 385.3 168.5C381 175.8 374.3 177.7 374.3 177.7Z" fill="#B1DEF5"/>
<path d="M372.8 176.7C372.8 176.7 366.1 174.8 361.9 167.5C358.2 161.1 359.6 152.2 359.6 152.2C359.6 152.2 364 148.7 366.5 147.1L378.9 147C380.9 148.3 386.1 152.2 386.1 152.2C386.1 152.2 387.5 161.1 383.8 167.5C379.5 174.8 372.8 176.7 372.8 176.7Z" stroke="#071146" stroke-width="2" stroke-miterlimit="10" stroke-linecap="round" stroke-linejoin="round"/>
<path d="M372.8 173.2C372.8 173.2 367.7 171.8 364.5 166.2C361.7 161.3 362.7 154.5 362.7 154.5C362.7 154.5 366.1 151.8 367.9 150.6L377.4 150.5C378.9 151.5 382.9 154.5 382.9 154.5C382.9 154.5 384 161.3 381.1 166.2C377.9 171.8 372.8 173.2 372.8 173.2Z" stroke="#071146" stroke-width="2" stroke-miterlimit="10" stroke-linecap="round" stroke-linejoin="round"/>
<path d="M114.6 36C119.8 38.6 123.3 44 123.3 50.2C123.3 56 120.2 61 115.6 63.8" stroke="#071146" stroke-width="2" stroke-linecap="round" stroke-linejoin="round"/>
<path d="M115.9 52.9L117.9 53.3L116.1 63L125.9 64.1L125.6 66L113.7 64.7L115.9 52.9Z" fill="#071146"/>
<path d="M101.4 64.7C95.7 62.3 91.7 56.7 91.7 50.1C91.7 44.3 94.8 39.3 99.4 36.5" stroke="#071146" stroke-width="2" stroke-linecap="round" stroke-linejoin="round"/>
<path d="M99.2 47.3L97.2 47L99 37.3L89.2 36.2L89.4 34.2L101.4 35.5L99.2 47.3Z" fill="#071146"/>
<path d="M170.4 195C175.2 189.4 182.9 185.9 190.1 187.2C197.4 188.5 203.6 195.5 202.9 202.9C205.4 201 208.5 199.8 211.7 199.8C214.9 199.8 218.1 201 220.1 203.4C223.1 206.9 223.2 211.8 223.2 216.4C227 215.5 231.1 216.4 234.1 218.9C237.1 221.4 238.9 225.2 238.8 229.1" stroke="#071146" stroke-width="2" stroke-miterlimit="10" stroke-linecap="round" stroke-linejoin="round"/>
<path d="M331.9 208.7C335.8 207.9 340 208.3 343.6 210.1C347.2 211.9 350.1 215.1 351.2 219C352.1 222.1 351.8 225.4 351.4 228.6" stroke="#071146" stroke-width="2" stroke-miterlimit="10" stroke-linecap="round" stroke-linejoin="round"/>
<path d="M275.5 161.3C281.8 159.8 288.5 162.7 292.9 167.5C297.3 172.2 299.7 178.4 301.4 184.6C301.8 186.1 302.5 187.8 304 188C305.3 188.2 306.4 187 307.2 185.9C310.6 181.5 315.5 177.1 321 178" stroke="#071146" stroke-width="2" stroke-miterlimit="10" stroke-linecap="round" stroke-linejoin="round"/>
<path d="M188.5 101.2L169.7 87C168.3 85.9 168 83.9 169.1 82.5L179.4 68.9C180.5 67.5 182.5 67.2 183.9 68.3L202.7 82.6C204.1 83.7 204.4 85.7 203.3 87.1L193 100.7C191.9 102 189.9 102.3 188.5 101.2Z" fill="#B3C1F4"/>
<path d="M176.2 67.9L182.6 82.7C183.3 84.4 184.9 85.6 186.8 85.9L202.8 88.1" stroke="#071146" stroke-width="2" stroke-miterlimit="10" stroke-linecap="round" stroke-linejoin="round"/>
<path d="M194.6 98.8L189.2 86.4" stroke="#071146" stroke-width="2" stroke-miterlimit="10" stroke-linecap="round" stroke-linejoin="round"/>
<path d="M181.5 80.5L168 78.7" stroke="#071146" stroke-width="2" stroke-miterlimit="10" stroke-linecap="round" stroke-linejoin="round"/>
<path d="M188.4 101.1L167.5 85.2C166 84 165.6 81.8 166.8 80.3L178.1 65.3C179.3 63.8 181.5 63.4 183 64.6L204 80.6C205.5 81.8 205.9 84 204.7 85.5L193.4 100.5C192.2 102 189.9 102.3 188.4 101.1Z" stroke="#071146" stroke-width="2" stroke-miterlimit="10" stroke-linecap="round" stroke-linejoin="round"/>
<path d="M371.8 20.4L354.3 26.5C353 27 351.6 26.3 351.1 25L346.7 12.3C346.2 11 346.9 9.6 348.2 9.1L365.8 3C367.1 2.5 368.5 3.2 369 4.5L373.4 17.2C373.8 18.6 373.1 20 371.8 20.4Z" fill="#B3C1F4"/>
<path d="M344.7 13.9L357.2 16.2C358.6 16.5 360.1 16 361.1 14.9L369.5 5.4" stroke="#071146" stroke-width="2" stroke-miterlimit="10" stroke-linecap="round" stroke-linejoin="round"/>
<path d="M372.9 15.4L362.4 13.5" stroke="#071146" stroke-width="2" stroke-miterlimit="10" stroke-linecap="round" stroke-linejoin="round"/>
<path d="M355.2 16L348.1 24" stroke="#071146" stroke-width="2" stroke-miterlimit="10" stroke-linecap="round" stroke-linejoin="round"/>
<path d="M371.7 20.5L352.2 27.2C350.8 27.7 349.2 26.9 348.7 25.5L343.9 11.6C343.4 10.2 344.2 8.6 345.6 8.1L365 1.3C366.4 0.8 368 1.6 368.5 3L373.3 16.9C373.9 18.4 373.1 20 371.7 20.5Z" stroke="#071146" stroke-width="2" stroke-miterlimit="10" stroke-linecap="round" stroke-linejoin="round"/>
</g>
<defs>
<clipPath id="clip0">
<rect width="457.1" height="243.3" fill="white"/>
</clipPath>
</defs>
</svg>
