<svg width="216" height="128" viewBox="0 0 216 128" fill="none" xmlns="http://www.w3.org/2000/svg">
<path d="M214.473 126.928C214.384 127.19 214.1 127.33 213.839 127.241L209.579 125.789C209.318 125.7 209.178 125.416 209.267 125.155C209.356 124.894 209.64 124.754 209.902 124.843L213.688 126.133L214.978 122.346C215.067 122.085 215.351 121.945 215.612 122.034C215.874 122.123 216.013 122.407 215.924 122.669L214.473 126.928ZM1 0.767212C0.986307 0.267399 0.986702 0.267389 0.987375 0.26737C0.987971 0.267354 0.988922 0.267329 0.990112 0.267297C0.992491 0.267235 0.995979 0.267143 1.00057 0.267026C1.00975 0.266792 1.02335 0.266454 1.04132 0.266029C1.07725 0.265181 1.13066 0.263988 1.20121 0.262594C1.34231 0.259807 1.55195 0.256215 1.82735 0.252965C2.37815 0.246463 3.192 0.241325 4.24669 0.246711C6.35605 0.257483 9.42889 0.310352 13.2874 0.478625C21.0041 0.815153 31.8651 1.61333 44.4476 3.46001C69.6049 7.15226 101.679 15.041 129.26 31.8402L128.74 32.6942C101.321 15.9935 69.3951 8.13217 44.3024 4.44941C31.7599 2.60859 20.9334 1.81302 13.2438 1.47767C9.39923 1.31001 6.33926 1.25741 4.24159 1.2467C3.19276 1.24134 2.38455 1.24646 1.83915 1.25289C1.56646 1.25611 1.35947 1.25966 1.22097 1.2624C1.15171 1.26377 1.09958 1.26493 1.06492 1.26575C1.04759 1.26616 1.03463 1.26648 1.02608 1.2667C1.0218 1.26681 1.01863 1.26689 1.01656 1.26695C1.01553 1.26698 1.01481 1.26699 1.01429 1.26701C1.01385 1.26702 1.01369 1.26702 1 0.767212ZM129.26 31.8402C156.836 48.6363 178.131 72.3165 192.527 91.7824C199.727 101.518 205.205 110.205 208.884 116.459C210.724 119.586 212.114 122.106 213.044 123.845C213.51 124.714 213.86 125.388 214.095 125.846C214.212 126.075 214.3 126.249 214.359 126.367C214.389 126.426 214.411 126.47 214.426 126.5C214.433 126.515 214.439 126.527 214.443 126.535C214.445 126.538 214.446 126.541 214.447 126.543C214.448 126.544 214.448 126.545 214.448 126.546C214.449 126.546 214.449 126.547 214 126.767C213.551 126.988 213.551 126.988 213.551 126.987C213.551 126.987 213.551 126.986 213.55 126.986C213.549 126.984 213.548 126.981 213.546 126.978C213.543 126.971 213.537 126.96 213.53 126.945C213.516 126.916 213.494 126.873 213.465 126.815C213.408 126.7 213.321 126.528 213.205 126.302C212.973 125.85 212.625 125.181 212.163 124.317C211.238 122.589 209.854 120.081 208.022 116.966C204.357 110.736 198.898 102.079 191.723 92.377C177.369 72.9679 156.164 49.3981 128.74 32.6942L129.26 31.8402Z" fill="#FFCE22"/>
</svg>
