<svg width="46" height="36" viewBox="0 0 46 36" fill="none" xmlns="http://www.w3.org/2000/svg">
<path fill-rule="evenodd" clip-rule="evenodd" d="M1.10114 9.88112C1.31366 9.5042 1.79149 9.37093 2.1684 9.58344L19.9271 19.5962C19.9271 19.5962 19.9271 19.5962 19.9271 19.5962C20.8203 20.0998 21.8284 20.3643 22.8538 20.3643C23.8792 20.3643 24.8872 20.0998 25.7805 19.5962C25.7805 19.5962 25.7805 19.5962 25.7805 19.5962L43.5392 9.58344C43.9161 9.37093 44.3939 9.5042 44.6065 9.88112C44.819 10.258 44.6857 10.7359 44.3088 10.9484L26.5501 20.9612L26.55 20.9612C25.4219 21.5972 24.1488 21.9313 22.8538 21.9313C21.5588 21.9313 20.2857 21.5972 19.1576 20.9612L19.1575 20.9612L1.39882 10.9484C1.0219 10.7359 0.888627 10.258 1.10114 9.88112Z" fill="#0052CC" stroke="#0052CC" stroke-linecap="round" stroke-linejoin="round"/>
<path fill-rule="evenodd" clip-rule="evenodd" d="M28.2982 18.5619C28.5107 18.185 28.9886 18.0518 29.3655 18.2643L44.3246 26.6997C44.7015 26.9122 44.8347 27.3901 44.6222 27.767C44.4096 28.1439 43.9318 28.2771 43.5549 28.0646L28.5958 19.6292C28.2189 19.4167 28.0856 18.9388 28.2982 18.5619Z" fill="#0052CC" stroke="#0052CC" stroke-linecap="round" stroke-linejoin="round"/>
<path fill-rule="evenodd" clip-rule="evenodd" d="M17.4304 18.562C17.6429 18.939 17.5096 19.4168 17.1327 19.6293L2.16834 28.0646C1.7914 28.2771 1.31358 28.1438 1.10111 27.7669C0.888626 27.3899 1.02195 26.9121 1.39888 26.6996L16.3632 18.2643C16.7401 18.0518 17.218 18.1851 17.4304 18.562Z" fill="#0052CC" stroke="#0052CC" stroke-linecap="round" stroke-linejoin="round"/>
<path fill-rule="evenodd" clip-rule="evenodd" d="M6.24429 2.56695C4.21348 2.56695 2.56719 4.21324 2.56719 6.24404V30.0042C2.56719 32.035 4.21348 33.6813 6.24429 33.6813H39.4792C41.51 33.6813 43.1563 32.035 43.1563 30.0042V6.24404C43.1563 4.21324 41.51 2.56695 39.4792 2.56695H6.24429ZM1.00024 6.24404C1.00024 3.34784 3.34808 1 6.24429 1H39.4792C42.3754 1 44.7232 3.34784 44.7232 6.24404V30.0042C44.7232 32.9004 42.3754 35.2482 39.4792 35.2482H6.24429C3.34808 35.2482 1.00024 32.9004 1.00024 30.0042V6.24404Z" fill="#0052CC" stroke="#0052CC" stroke-linecap="round" stroke-linejoin="round"/>
</svg>
