<svg width="452" height="243" viewBox="0 0 452 243" fill="none" xmlns="http://www.w3.org/2000/svg">
<g clip-path="url(#clip0)">
<path d="M84.6 214.5C185.3 210.2 152.3 43.1 250.9 62C305.6 72.5 286.5 162.4 300.8 184C310.4 198.5 324 209.2 341.2 211.9C358.4 214.6 379.5 209.9 396.8 207.6" stroke="#FEDB8F" stroke-miterlimit="10" stroke-dasharray="6 6"/>
<path d="M27.6 183.9C17.4 168.8 12.1 150.8 12.2 132.6C12.2 127.3 12.8 122 14.4 117C20 100.4 36.8 90.8 51.7 81.7C66.6 72.6 75.6 63.5 84.8 45.9" stroke="#FEDB8F" stroke-miterlimit="10" stroke-dasharray="6 6"/>
<path d="M91.6 53.5L91.9 33.6L74.9 43.9L84.9 45.9L91.6 53.5Z" stroke="#071146" stroke-width="2" stroke-miterlimit="10" stroke-linecap="round" stroke-linejoin="round"/>
<path d="M84.9 45.9L87.9 41" stroke="#071146" stroke-width="2" stroke-miterlimit="10" stroke-linecap="round" stroke-linejoin="round"/>
<path d="M402.3 217.8L417.3 204.8L398.2 199L403.4 207.7L402.3 217.8Z" stroke="#071146" stroke-width="2" stroke-miterlimit="10" stroke-linecap="round" stroke-linejoin="round"/>
<path d="M403.4 207.7L409.1 206.7" stroke="#071146" stroke-width="2" stroke-miterlimit="10" stroke-linecap="round" stroke-linejoin="round"/>
<path d="M242.5 118.9L216.7 131.2C214.8 132.1 212.5 131.3 211.6 129.4L202.7 110.7C201.8 108.8 202.6 106.5 204.5 105.6L230.3 93.3C232.2 92.4 234.5 93.2 235.4 95.1L244.3 113.8C245.3 115.7 244.4 118 242.5 118.9Z" fill="#FEDB8F"/>
<path d="M199.8 113.5L219.3 114.9C221.6 115.1 223.7 114 225 112.2L236.3 96.2001" stroke="#071146" stroke-width="2" stroke-miterlimit="10" stroke-linecap="round" stroke-linejoin="round"/>
<path d="M243.3 111L226.9 109.8" stroke="#071146" stroke-width="2" stroke-miterlimit="10" stroke-linecap="round" stroke-linejoin="round"/>
<path d="M216.3 114.9L206.9 128.3" stroke="#071146" stroke-width="2" stroke-miterlimit="10" stroke-linecap="round" stroke-linejoin="round"/>
<path d="M242.4 119L213.6 132.7C211.5 133.7 208.9 132.8 207.9 130.7L198.1 110.1C197.1 108 198 105.4 200.1 104.4L229 90.7C231.1 89.7 233.7 90.6 234.7 92.7L244.5 113.3C245.4 115.4 244.5 117.9 242.4 119Z" stroke="#071146" stroke-width="2" stroke-miterlimit="10" stroke-linecap="round" stroke-linejoin="round"/>
<path d="M195.9 36.5L167.3 35.5C165.2 35.4 163.5 33.6 163.6 31.5L164.3 10.8C164.4 8.70002 166.2 7.00002 168.3 7.10002L196.9 8.10002C199 8.20002 200.7 10 200.6 12.1L199.9 32.8C199.8 34.9 198 36.5 195.9 36.5Z" fill="#B3C1F4"/>
<path d="M160.5 12L177.2 22.2C179.1 23.4 181.5 23.5 183.5 22.4L200.8 13.4" stroke="#071146" stroke-width="2" stroke-miterlimit="10" stroke-linecap="round" stroke-linejoin="round"/>
<path d="M200.3 29.8L186.2 21.3" stroke="#071146" stroke-width="2" stroke-miterlimit="10" stroke-linecap="round" stroke-linejoin="round"/>
<path d="M174.5 20.8L159.9 28.4" stroke="#071146" stroke-width="2" stroke-miterlimit="10" stroke-linecap="round" stroke-linejoin="round"/>
<path d="M195.8 36.5L164 35.3C161.7 35.2 159.8 33.2 159.9 30.9L160.7 8.20003C160.8 5.90003 162.8 4.00003 165.1 4.10003L196.9 5.20003C199.2 5.30003 201.1 7.30003 201 9.60003L200.2 32.3C200.1 34.7 198.1 36.5 195.8 36.5Z" stroke="#071146" stroke-width="2" stroke-miterlimit="10" stroke-linecap="round" stroke-linejoin="round"/>
<path d="M329.6 193.5L291.6 202.5C288.8 203.2 285.9 201.4 285.3 198.6L278.8 171.2C278.1 168.4 279.9 165.5 282.7 164.9L320.7 155.9C323.5 155.2 326.4 157 327 159.8L333.5 187.2C334.2 190 332.4 192.9 329.6 193.5Z" fill="#B3C1F4"/>
<path d="M274.2 174.2L299.8 181.6C302.8 182.5 306 181.7 308.2 179.6L327.8 161.5" stroke="#071146" stroke-width="2" stroke-miterlimit="10" stroke-linecap="round" stroke-linejoin="round"/>
<path d="M332.9 183.2L311.4 177" stroke="#071146" stroke-width="2" stroke-miterlimit="10" stroke-linecap="round" stroke-linejoin="round"/>
<path d="M295.8 180.7L279.4 196" stroke="#071146" stroke-width="2" stroke-miterlimit="10" stroke-linecap="round" stroke-linejoin="round"/>
<path d="M329.4 193.6L287.2 203.6C284.1 204.3 280.9 202.4 280.2 199.3L273 169.1C272.3 166 274.2 162.8 277.3 162.1L319.5 152.1C322.6 151.4 325.8 153.3 326.5 156.4L333.7 186.6C334.5 189.7 332.5 192.9 329.4 193.6Z" stroke="#071146" stroke-width="2" stroke-miterlimit="10" stroke-linecap="round" stroke-linejoin="round"/>
<path d="M367.3 109.7L315.4 92.3001C311.5 91.0001 309.5 86.8001 310.7 82.9001L323.3 45.4001C324.6 41.5001 328.8 39.5001 332.7 40.7001L384.6 58.1001C388.5 59.4001 390.5 63.6001 389.3 67.5001L376.7 105C375.3 108.9 371.1 111 367.3 109.7Z" fill="#B3C1F4"/>
<path d="M315.6 45.6L340.7 73.3C343.6 76.5 348 78 352.2 77.2L388.9 70.1" stroke="#071146" stroke-width="2" stroke-miterlimit="10" stroke-linecap="round" stroke-linejoin="round"/>
<path d="M378.9 99.9L357.8 76.6" stroke="#071146" stroke-width="2" stroke-miterlimit="10" stroke-linecap="round" stroke-linejoin="round"/>
<path d="M336.5 69.4L305.6 75.4" stroke="#071146" stroke-width="2" stroke-miterlimit="10" stroke-linecap="round" stroke-linejoin="round"/>
<path d="M367 109.6L309.2 90.3C304.9 88.9 302.6 84.2 304 80L317.8 38.7C319.2 34.4 323.9 32.1 328.1 33.5L386 52.8C390.3 54.2 392.6 58.9 391.2 63.1L377.4 104.4C375.9 108.7 371.3 111.1 367 109.6Z" stroke="#071146" stroke-width="2" stroke-miterlimit="10" stroke-linecap="round" stroke-linejoin="round"/>
<path d="M129.4 181.4L108.1 171.2C106.5 170.4 105.9 168.5 106.6 167L114 151.6C114.8 150 116.7 149.4 118.2 150.1L139.5 160.3C141.1 161.1 141.7 163 141 164.5L133.6 179.9C132.9 181.5 131 182.2 129.4 181.4Z" fill="#B3C1F4"/>
<path d="M110.8 151.2L120 164.4C121.1 165.9 122.9 166.8 124.7 166.7L140.8 165.7" stroke="#071146" stroke-width="2" stroke-miterlimit="10" stroke-linecap="round" stroke-linejoin="round"/>
<path d="M134.9 177.8L127.2 166.7" stroke="#071146" stroke-width="2" stroke-miterlimit="10" stroke-linecap="round" stroke-linejoin="round"/>
<path d="M118.4 162.5L104.9 163.4" stroke="#071146" stroke-width="2" stroke-miterlimit="10" stroke-linecap="round" stroke-linejoin="round"/>
<path d="M129.3 181.3L105.7 170C104 169.2 103.2 167 104.1 165.3L112.2 148.4C113 146.7 115.2 145.9 116.9 146.8L140.6 158.2C142.3 159 143.1 161.2 142.2 162.9L134.1 179.8C133.2 181.4 131 182.2 129.3 181.3Z" stroke="#071146" stroke-width="2" stroke-miterlimit="10" stroke-linecap="round" stroke-linejoin="round"/>
<path d="M73.5999 139.8L49.9999 139.6C48.1999 139.6 46.7999 138.1 46.8999 136.4L47.0999 119.3C47.0999 117.5 48.5999 116.1 50.2999 116.2L73.8999 116.5C75.6999 116.5 77.0999 118 76.9999 119.7L76.7999 136.8C76.7999 138.4 75.2999 139.8 73.5999 139.8Z" fill="#FEDB8F"/>
<path d="M43.8999 120.4L57.7999 128.5C59.3999 129.4 61.3999 129.5 62.9999 128.6L77.0999 120.8" stroke="#071146" stroke-width="2" stroke-miterlimit="10" stroke-linecap="round" stroke-linejoin="round"/>
<path d="M76.9999 134.3L65.2999 127.5" stroke="#071146" stroke-width="2" stroke-miterlimit="10" stroke-linecap="round" stroke-linejoin="round"/>
<path d="M55.5999 127.4L43.7 133.9" stroke="#071146" stroke-width="2" stroke-miterlimit="10" stroke-linecap="round" stroke-linejoin="round"/>
<path d="M73.5 139.8L47.2 139.5C45.3 139.5 43.7 137.9 43.7 135.9L43.9 117.1C43.9 115.2 45.5 113.6 47.5 113.6L73.8 113.9C75.7 113.9 77.3 115.5 77.3 117.5L77 136.3C77 138.3 75.4 139.8 73.5 139.8Z" stroke="#071146" stroke-width="2" stroke-miterlimit="10" stroke-linecap="round" stroke-linejoin="round"/>
<path d="M133 114L116.3 105.9C115.1 105.3 114.5 103.8 115.1 102.6L121 90.5C121.6 89.3 123.1 88.7 124.3 89.3L141 97.4C142.2 98 142.8 99.5 142.2 100.7L136.3 112.8C135.7 114.1 134.2 114.6 133 114Z" fill="#B3C1F4"/>
<path d="M118.4 90.3L125.6 100.7C126.4 101.9 127.8 102.6 129.3 102.5L141.9 101.7" stroke="#071146" stroke-width="2" stroke-miterlimit="10" stroke-linecap="round" stroke-linejoin="round"/>
<path d="M137.3 111.3L131.2 102.5" stroke="#071146" stroke-width="2" stroke-miterlimit="10" stroke-linecap="round" stroke-linejoin="round"/>
<path d="M124.4 99.2L113.7 99.8" stroke="#071146" stroke-width="2" stroke-miterlimit="10" stroke-linecap="round" stroke-linejoin="round"/>
<path d="M132.9 114L114.3 105C112.9 104.3 112.4 102.7 113 101.3L119.4 88C120.1 86.6 121.7 86.1 123.1 86.7L141.7 95.7C143.1 96.4 143.6 98 143 99.4L136.6 112.7C135.9 114.1 134.3 114.7 132.9 114Z" stroke="#071146" stroke-width="2" stroke-miterlimit="10" stroke-linecap="round" stroke-linejoin="round"/>
<path d="M424.1 161.8L407.4 153.7C406.2 153.1 405.6 151.6 406.2 150.4L412.1 138.3C412.7 137.1 414.2 136.5 415.4 137.1L432.1 145.2C433.3 145.8 433.9 147.3 433.3 148.5L427.4 160.6C426.9 161.9 425.4 162.4 424.1 161.8Z" fill="#FEDB8F"/>
<path d="M409.6 138.1L416.8 148.5C417.6 149.7 419 150.4 420.5 150.3L433.1 149.5" stroke="#071146" stroke-width="2" stroke-miterlimit="10" stroke-linecap="round" stroke-linejoin="round"/>
<path d="M428.5 159.1L422.4 150.3" stroke="#071146" stroke-width="2" stroke-miterlimit="10" stroke-linecap="round" stroke-linejoin="round"/>
<path d="M415.6 147L404.9 147.6" stroke="#071146" stroke-width="2" stroke-miterlimit="10" stroke-linecap="round" stroke-linejoin="round"/>
<path d="M424.1 161.8L405.5 152.8C404.1 152.1 403.6 150.5 404.2 149.1L410.6 135.8C411.3 134.4 412.9 133.9 414.3 134.5L432.9 143.5C434.3 144.2 434.8 145.8 434.2 147.2L427.8 160.5C427.1 161.9 425.4 162.5 424.1 161.8Z" stroke="#071146" stroke-width="2" stroke-miterlimit="10" stroke-linecap="round" stroke-linejoin="round"/>
<path d="M212.4 197.8L194.9 203.9C193.6 204.4 192.2 203.7 191.7 202.4L187.3 189.7C186.8 188.4 187.5 187 188.8 186.5L206.3 180.4C207.6 179.9 209 180.6 209.5 181.9L213.9 194.6C214.4 195.9 213.7 197.4 212.4 197.8Z" fill="#95E196"/>
<path d="M185.2 191.4L197.7 193.6C199.1 193.9 200.6 193.3 201.6 192.2L210 182.7" stroke="#071146" stroke-width="2" stroke-miterlimit="10" stroke-linecap="round" stroke-linejoin="round"/>
<path d="M213.4 192.8L202.9 190.9" stroke="#071146" stroke-width="2" stroke-miterlimit="10" stroke-linecap="round" stroke-linejoin="round"/>
<path d="M195.8 193.4L188.7 201.4" stroke="#071146" stroke-width="2" stroke-miterlimit="10" stroke-linecap="round" stroke-linejoin="round"/>
<path d="M212.3 197.8L192.8 204.6C191.4 205.1 189.8 204.3 189.3 202.9L184.4 189C183.9 187.6 184.7 186 186.1 185.5L205.6 178.7C207 178.2 208.6 179 209.1 180.4L214 194.3C214.5 195.7 213.7 197.3 212.3 197.8Z" stroke="#071146" stroke-width="2" stroke-miterlimit="10" stroke-linecap="round" stroke-linejoin="round"/>
<path d="M448.5 20.3L431 26.4C429.7 26.9 428.3 26.2 427.8 24.9L423.4 12.2C422.9 10.9 423.6 9.5 424.9 9L442.4 2.9C443.7 2.4 445.1 3.1 445.6 4.4L450 17.1C450.5 18.4 449.8 19.8 448.5 20.3Z" fill="#FEDB8F"/>
<path d="M421.3 13.9L433.8 16.1C435.2 16.4 436.7 15.8 437.7 14.7L446.1 5.20001" stroke="#071146" stroke-width="2" stroke-miterlimit="10" stroke-linecap="round" stroke-linejoin="round"/>
<path d="M449.6 15.2L439.1 13.4" stroke="#071146" stroke-width="2" stroke-miterlimit="10" stroke-linecap="round" stroke-linejoin="round"/>
<path d="M431.9 15.9L424.9 23.9" stroke="#071146" stroke-width="2" stroke-miterlimit="10" stroke-linecap="round" stroke-linejoin="round"/>
<path d="M448.4 20.3L428.9 27.1C427.5 27.6 425.9 26.8 425.4 25.4L420.5 11.5C420 10.1 420.8 8.5 422.2 8L441.7 1.2C443.1 0.699995 444.7 1.5 445.2 2.9L450.1 16.8C450.6 18.2 449.8 19.8 448.4 20.3Z" stroke="#071146" stroke-width="2" stroke-miterlimit="10" stroke-linecap="round" stroke-linejoin="round"/>
<path d="M74.9 236.4H10.7C8.79995 236.4 7.19995 234.8 7.19995 232.9V187.5C7.19995 185.6 8.79995 184 10.7 184H74.8C76.7 184 78.3 185.6 78.3 187.5V232.9C78.4 234.8 76.8 236.4 74.9 236.4Z" stroke="#071146" stroke-width="2" stroke-miterlimit="10" stroke-linecap="round" stroke-linejoin="round"/>
<path d="M81.9 241.7H4.8C2.7 241.7 1 240 1 237.9C1 237.1 1.7 236.4 2.5 236.4H84.2C85 236.4 85.7 237.1 85.7 237.9C85.7 240 84 241.7 81.9 241.7Z" stroke="#071146" stroke-width="2" stroke-miterlimit="10" stroke-linecap="round" stroke-linejoin="round"/>
<path d="M74.9 187.3H10.9V232.4H74.9V187.3Z" fill="white"/>
<path d="M74.9 187.3H10.9V232.4H74.9V187.3Z" stroke="#071146" stroke-width="2" stroke-miterlimit="10" stroke-linecap="round" stroke-linejoin="round"/>
<path d="M10.9 191.7H74.9" stroke="#071146" stroke-width="2" stroke-miterlimit="10" stroke-linecap="round" stroke-linejoin="round"/>
<path d="M66.2 225.7H48.1C47.5 225.7 47 225.2 47 224.6V219.4C47 218.8 47.5 218.3 48.1 218.3H66.2C66.8 218.3 67.3 218.8 67.3 219.4V224.6C67.3 225.2 66.8 225.7 66.2 225.7Z" stroke="#071146" stroke-width="2" stroke-miterlimit="10" stroke-linecap="round" stroke-linejoin="round"/>
<path d="M19.4 201H66.3" stroke="#071146" stroke-width="2" stroke-miterlimit="10" stroke-linecap="round" stroke-linejoin="round"/>
<path d="M19.4 209.1H66.3" stroke="#071146" stroke-width="2" stroke-miterlimit="10" stroke-linecap="round" stroke-linejoin="round"/>
<path d="M19.4 218.3H39.3" stroke="#071146" stroke-width="2" stroke-miterlimit="10" stroke-linecap="round" stroke-linejoin="round"/>
<path d="M19.4 225.7H39.3" stroke="#071146" stroke-width="2" stroke-miterlimit="10" stroke-linecap="round" stroke-linejoin="round"/>
</g>
<defs>
<clipPath id="clip0">
<rect width="451.3" height="242.7" fill="white"/>
</clipPath>
</defs>
</svg>
