<svg width="125" height="125" viewBox="0 0 125 125" fill="none" xmlns="http://www.w3.org/2000/svg">
<path d="M94.068 93.1835C110.923 75.741 110.448 47.9371 93.0051 31.0816C75.5627 14.2262 47.7587 14.702 30.9033 32.1445C14.0478 49.5869 14.5237 77.3909 31.9661 94.2463C49.4086 111.102 77.2125 110.626 94.068 93.1835Z" fill="#B1DEF5"/>
<path d="M84.7536 56.4665H39.7564C38.2665 56.4665 37 55.2881 37 53.7414V44.4616C37 42.9149 38.192 41.7365 39.7564 41.7365H84.8281C86.318 41.7365 87.5845 42.9149 87.5845 44.4616V53.8151C87.51 55.2881 86.2435 56.4665 84.7536 56.4665Z" fill="white" stroke="#071146" stroke-width="2" stroke-miterlimit="10" stroke-linecap="round" stroke-linejoin="round"/>
<path d="M54.5815 50.8691C55.4044 50.8691 56.0715 50.2096 56.0715 49.3961C56.0715 48.5826 55.4044 47.9231 54.5815 47.9231C53.7586 47.9231 53.0916 48.5826 53.0916 49.3961C53.0916 50.2096 53.7586 50.8691 54.5815 50.8691Z" fill="#071146"/>
<path d="M79.1661 52.6367C80.9765 52.6367 82.4441 51.1858 82.4441 49.3961C82.4441 47.6064 80.9765 46.1555 79.1661 46.1555C77.3558 46.1555 75.8882 47.6064 75.8882 49.3961C75.8882 51.1858 77.3558 52.6367 79.1661 52.6367Z" stroke="#071146" stroke-width="2" stroke-miterlimit="10" stroke-linecap="round" stroke-linejoin="round"/>
<path d="M48.4729 50.8691C49.2958 50.8691 49.9629 50.2096 49.9629 49.3961C49.9629 48.5826 49.2958 47.9231 48.4729 47.9231C47.65 47.9231 46.9829 48.5826 46.9829 49.3961C46.9829 50.2096 47.65 50.8691 48.4729 50.8691Z" fill="#071146"/>
<path d="M42.4385 50.8691C43.2613 50.8691 43.9284 50.2096 43.9284 49.3961C43.9284 48.5826 43.2613 47.9231 42.4385 47.9231C41.6156 47.9231 40.9485 48.5826 40.9485 49.3961C40.9485 50.2096 41.6156 50.8691 42.4385 50.8691Z" fill="#071146"/>
<path d="M84.7536 71.1964H39.7564C38.2665 71.1964 37 70.018 37 68.4713V59.1915C37 57.7185 38.192 56.4664 39.7564 56.4664H84.8281C86.318 56.4664 87.5845 57.6448 87.5845 59.1915V68.545C87.51 70.018 86.2435 71.1964 84.7536 71.1964Z" fill="white" stroke="#071146" stroke-width="2" stroke-miterlimit="10" stroke-linecap="round" stroke-linejoin="round"/>
<path d="M54.5813 65.599C55.4042 65.599 56.0713 64.9395 56.0713 64.126C56.0713 63.3125 55.4042 62.653 54.5813 62.653C53.7584 62.653 53.0913 63.3125 53.0913 64.126C53.0913 64.9395 53.7584 65.599 54.5813 65.599Z" fill="#071146"/>
<path d="M79.1661 67.3666C80.9765 67.3666 82.4441 65.9158 82.4441 64.126C82.4441 62.3363 80.9765 60.8854 79.1661 60.8854C77.3558 60.8854 75.8882 62.3363 75.8882 64.126C75.8882 65.9158 77.3558 67.3666 79.1661 67.3666Z" stroke="#071146" stroke-width="2" stroke-miterlimit="10" stroke-linecap="round" stroke-linejoin="round"/>
<path d="M62.255 85.2635C64.0653 85.2635 65.5329 83.8127 65.5329 82.0229C65.5329 80.2332 64.0653 78.7823 62.255 78.7823C60.4446 78.7823 58.9771 80.2332 58.9771 82.0229C58.9771 83.8127 60.4446 85.2635 62.255 85.2635Z" stroke="#071146" stroke-width="2" stroke-miterlimit="10" stroke-linecap="round" stroke-linejoin="round"/>
<path d="M48.4729 65.599C49.2958 65.599 49.9629 64.9395 49.9629 64.126C49.9629 63.3125 49.2958 62.653 48.4729 62.653C47.65 62.653 46.9829 63.3125 46.9829 64.126C46.9829 64.9395 47.65 65.599 48.4729 65.599Z" fill="#071146"/>
<path d="M42.4382 65.599C43.2611 65.599 43.9282 64.9395 43.9282 64.126C43.9282 63.3125 43.2611 62.653 42.4382 62.653C41.6153 62.653 40.9482 63.3125 40.9482 64.126C40.9482 64.9395 41.6153 65.599 42.4382 65.599Z" fill="#071146"/>
<path d="M62.2549 71.1964V78.7823" stroke="#071146" stroke-width="2" stroke-miterlimit="10" stroke-linecap="round" stroke-linejoin="round"/>
<path d="M58.9771 82.0229H37" stroke="#071146" stroke-width="2" stroke-miterlimit="10" stroke-linecap="round" stroke-linejoin="round"/>
<path d="M87.5098 82.0229H65.5327" stroke="#071146" stroke-width="2" stroke-miterlimit="10" stroke-linecap="round" stroke-linejoin="round"/>
</svg>
