<svg width="51" height="47" viewBox="0 0 51 47" fill="none" xmlns="http://www.w3.org/2000/svg">
<g clip-path="url(#clip0)">
<path d="M28.7837 46.86C41.0535 46.86 51.0001 36.8875 51.0001 24.5857C51.0001 12.284 41.0535 2.31152 28.7837 2.31152C16.5139 2.31152 6.56726 12.284 6.56726 24.5857C6.56726 36.8875 16.5139 46.86 28.7837 46.86Z" fill="#FEDB8F"/>
<path d="M38.0052 32.5708C35.7696 32.5708 33.6039 31.7303 31.9272 30.1893C30.1806 28.5783 29.1326 26.3368 28.9929 23.9553L31.6477 23.8152C31.7176 25.5663 32.4861 27.1073 33.7436 28.2981C34.9313 29.4188 36.5381 30.0492 38.2148 29.9791C39.8916 29.9091 41.4285 29.2087 42.5463 28.0179C43.5244 26.9672 44.1532 25.2161 44.2231 23.535L46.8779 23.6051C46.808 25.9866 45.8998 28.2981 44.5025 29.8391C42.8957 31.5902 40.66 32.5708 38.2847 32.6408C38.2148 32.5708 38.0751 32.5708 38.0052 32.5708Z" fill="#0052CC"/>
<path d="M23.3344 32.2906C21.7275 32.2906 20.3303 31.9404 19.0727 31.1699C17.8152 30.3994 16.7672 29.4188 16.0686 28.158C15.3001 26.8972 14.9508 25.4262 14.9508 23.8152C14.9508 22.2042 15.3001 20.7332 15.9988 19.4724C16.6974 18.2116 17.6056 17.161 18.7933 16.4605C19.9809 15.69 21.3083 15.3398 22.7755 15.3398C23.9631 15.3398 25.0809 15.62 26.1289 16.1103C27.1768 16.6006 28.0152 17.301 28.7138 18.1416V9.87631C28.7138 9.386 28.8535 9.03577 29.133 8.7556C29.4124 8.47542 29.8316 8.33533 30.2508 8.33533C30.7398 8.33533 31.0892 8.47542 31.3686 8.7556C31.6481 9.03577 31.7878 9.386 31.7878 9.87631V23.8152C31.7878 25.4262 31.4385 26.8972 30.67 28.158C29.9015 29.4188 28.9234 30.4695 27.6659 31.1699C26.3385 31.9404 24.8714 32.2906 23.3344 32.2906ZM23.3344 29.5589C24.3823 29.5589 25.2905 29.2787 26.1289 28.7884C26.9672 28.2981 27.596 27.5976 28.0152 26.7571C28.5042 25.8465 28.7138 24.9359 28.7138 23.8152C28.7138 22.6945 28.5042 21.7139 28.0152 20.8733C27.5261 20.0328 26.8974 19.3323 26.1289 18.842C25.2905 18.3517 24.3823 18.0715 23.3344 18.0715C22.2864 18.0715 21.3782 18.3517 20.6097 18.842C19.7714 19.3323 19.1426 20.0328 18.6535 20.8733C18.1645 21.7139 17.9549 22.6945 17.9549 23.8152C17.9549 24.8659 18.1645 25.8465 18.6535 26.7571C19.1426 27.6677 19.7714 28.2981 20.6097 28.7884C21.3782 29.2787 22.2864 29.5589 23.3344 29.5589Z" fill="#0052CC"/>
<path d="M23.4041 47C10.4795 47 0 36.4232 0 23.465C0 10.5067 10.4795 0 23.4041 0C36.3288 0 46.8082 10.5067 46.8082 23.465C46.8082 24.1654 46.2493 24.7958 45.4808 24.7958C44.7822 24.7958 44.1534 24.2355 44.1534 23.465C44.2233 11.9776 34.9315 2.6617 23.4041 2.6617C11.8767 2.6617 2.65479 11.9776 2.65479 23.465C2.65479 34.9523 12.0164 44.3383 23.474 44.3383C28.3644 44.3383 33.0452 42.6572 36.7479 39.5052C37.3069 39.0149 38.1452 39.0849 38.6342 39.6453C39.1233 40.2057 39.0534 41.0462 38.4945 41.5365C34.2329 45.0387 28.9233 47 23.4041 47Z" fill="#0052CC"/>
</g>
<defs>
<clipPath id="clip0">
<rect width="51" height="47" fill="white"/>
</clipPath>
</defs>
</svg>
