<svg width="53" height="48" viewBox="0 0 53 48" fill="none" xmlns="http://www.w3.org/2000/svg">
<g clip-path="url(#clip0)">
<path d="M29.8878 47.8598C42.3263 47.8598 52.4098 37.8842 52.4098 25.5786C52.4098 13.2731 42.3263 3.29749 29.8878 3.29749C17.4492 3.29749 7.36572 13.2731 7.36572 25.5786C7.36572 37.8842 17.4492 47.8598 29.8878 47.8598Z" fill="#A1C5D1"/>
<path d="M23.726 48C10.6236 48 0 37.4199 0 24.4576C0 21.5148 0.566592 18.6421 1.62895 15.9095C1.91225 15.2089 2.69131 14.9286 3.32873 15.1388C4.03697 15.4191 4.39109 16.1898 4.10779 16.8204C3.18708 19.2026 2.69131 21.7951 2.69131 24.3876C2.69131 35.8785 12.1817 45.2674 23.7969 45.2674C35.412 45.2674 44.8316 36.0186 44.8316 24.4576C44.8316 12.8967 35.412 3.64788 23.726 3.64788C20.7514 3.64788 17.8476 4.27848 15.1563 5.46961C14.4481 5.74987 13.669 5.46961 13.3857 4.76894C13.1024 4.06828 13.3857 3.29755 14.094 3.01728C17.1394 1.68602 20.3973 0.985352 23.726 0.985352C36.8285 0.985352 47.5229 11.4953 47.5229 24.4576C47.5229 37.4199 36.8285 48 23.726 48Z" fill="#0052CC"/>
<path d="M14.0938 33.216C13.6689 33.216 13.2439 33.0759 12.9606 32.7956C12.6774 32.5153 12.5357 32.0949 12.5357 31.6745V18.0116C12.5357 17.5211 12.6774 17.1708 12.9606 16.8905C13.2439 16.6102 13.6689 16.4701 14.0938 16.4701C14.5896 16.4701 14.9437 16.6102 15.227 16.8905C15.5103 17.1708 15.652 17.5211 15.652 18.0116V31.6045C15.652 32.0249 15.5103 32.4453 15.227 32.7255C14.9437 33.0759 14.5896 33.216 14.0938 33.216ZM24.4341 33.216C24.0092 33.216 23.5842 33.0759 23.301 32.7956C23.0177 32.5153 22.876 32.0949 22.876 31.6745V22.9162C22.876 21.655 22.5219 20.6741 21.8845 20.0435C21.2471 19.4129 20.3972 19.1326 19.4056 19.1326C18.3433 19.1326 17.4226 19.4829 16.7143 20.2537C16.0061 20.9543 15.652 21.9353 15.652 23.0563H13.7397C13.7397 21.7251 14.023 20.5339 14.5188 19.553C15.0854 18.5721 15.7936 17.7313 16.7143 17.1708C17.635 16.6102 18.7682 16.33 19.9722 16.33C21.1762 16.33 22.1678 16.6102 23.0885 17.1007C24.0092 17.5912 24.7174 18.3619 25.2132 19.3428C25.709 20.3237 25.9923 21.5149 25.9923 22.9162V31.6745C25.9923 32.0949 25.8506 32.5153 25.5673 32.7956C25.284 33.0759 24.8591 33.216 24.4341 33.216ZM34.7036 33.216C34.2787 33.216 33.8537 33.0759 33.5704 32.7956C33.2871 32.5153 33.1455 32.0949 33.1455 31.6745V22.9162C33.1455 21.655 32.7914 20.6741 32.154 20.0435C31.5165 19.4129 30.6666 19.1326 29.6751 19.1326C28.6128 19.1326 27.692 19.4829 27.0546 20.2537C26.3464 20.9543 25.9923 21.9353 25.9923 23.0563H23.4426C23.4426 21.7251 23.7259 20.5339 24.2925 19.553C24.8591 18.5721 25.709 17.7313 26.7005 17.1708C27.7629 16.6102 28.896 16.33 30.2417 16.33C31.4457 16.33 32.4372 16.6102 33.358 17.1007C34.2787 17.5912 34.9869 18.3619 35.4827 19.3428C35.9784 20.3237 36.2617 21.5149 36.2617 22.9162V31.6745C36.2617 32.0949 36.1201 32.5153 35.8368 32.7956C35.5535 33.0759 35.1994 33.216 34.7036 33.216Z" fill="#0052CC"/>
<path d="M14.1647 19.6931C13.3856 19.6931 12.6065 19.1326 12.5357 18.3618C12.2524 16.0496 10.1985 14.368 7.86134 14.6483C6.09074 14.8585 4.60343 15.7694 4.03684 17.2408C3.75354 18.0115 3.11613 18.502 2.33707 18.2217C1.558 17.9414 1.20388 17.1006 1.558 16.3299C2.54954 13.8075 4.81591 11.9858 7.50722 11.6354C9.49029 11.4252 11.4025 11.9157 12.9607 13.1769C14.5188 14.368 15.5103 16.1197 15.7228 18.0816C15.7936 18.9224 15.227 19.6931 14.3771 19.7632C14.2355 19.6931 14.1647 19.6931 14.1647 19.6931Z" fill="#0052CC"/>
</g>
<defs>
<clipPath id="clip0">
<rect width="52.4098" height="47.0146" fill="white" transform="translate(0 0.985352)"/>
</clipPath>
</defs>
</svg>
