<svg width="52" height="47" viewBox="0 0 52 47" fill="none" xmlns="http://www.w3.org/2000/svg">
<g clip-path="url(#clip0)">
<path d="M29.145 46.6513C41.4148 46.6513 51.3615 36.7232 51.3615 24.4762C51.3615 12.2293 41.4148 2.30115 29.145 2.30115C16.8752 2.30115 6.92859 12.2293 6.92859 24.4762C6.92859 36.7232 16.8752 46.6513 29.145 46.6513Z" fill="#FCAA90"/>
<path d="M23.5559 32.1469C22.0189 32.1469 20.6915 31.7982 19.5039 31.1009C18.3162 30.4035 17.408 29.3575 16.7093 28.1023C16.0107 26.8471 15.7313 25.3828 15.7313 23.7092C15.7313 22.0356 16.0806 20.5712 16.7792 19.316C17.4778 18.0608 18.5258 17.0845 19.7833 16.3175C21.0408 15.6201 22.508 15.2715 24.1148 15.2715C25.7217 15.2715 27.1888 15.6201 28.4463 16.3175C29.7039 17.0148 30.6819 18.0608 31.4504 19.316C32.1491 20.5712 32.5682 22.0356 32.5682 23.7092H30.7518C30.7518 25.3828 30.4724 26.7774 29.8436 28.1023C29.2148 29.3575 28.3765 30.3338 27.3285 31.1009C26.2107 31.7982 24.9532 32.1469 23.5559 32.1469ZM24.1148 38.9109C22.6477 38.9109 21.3203 38.632 20.0628 38.0742C18.8052 37.5163 17.7573 36.6795 16.8491 35.5638C16.5696 35.2151 16.4998 34.8664 16.5696 34.5178C16.6395 34.1691 16.8491 33.8902 17.1984 33.6112C17.5477 33.402 17.9669 33.2626 18.3162 33.402C18.7354 33.4718 19.0148 33.681 19.2943 34.0296C19.8532 34.727 20.5518 35.2848 21.3902 35.6335C22.2285 36.0519 23.1367 36.1914 24.2545 36.1914C25.2326 36.1914 26.1408 35.9822 26.9792 35.494C27.8176 35.0059 28.4463 34.3086 28.9354 33.402C29.4244 32.4955 29.634 31.3798 29.634 30.0549V25.7314L30.6121 23.0816L32.5682 23.7092V30.2641C32.5682 31.8679 32.2189 33.3323 31.5203 34.6572C30.8217 35.9822 29.8436 37.0282 28.5162 37.7952C27.2587 38.5623 25.7915 38.9109 24.1148 38.9109ZM24.1847 29.4273C25.2326 29.4273 26.2107 29.2181 26.9792 28.7299C27.8176 28.2418 28.4463 27.5445 28.8655 26.7077C29.3545 25.8709 29.5641 24.8946 29.5641 23.7789C29.5641 22.6632 29.3545 21.6869 28.8655 20.7804C28.3765 19.9436 27.7477 19.2463 26.9792 18.7581C26.1408 18.27 25.2326 18.0608 24.1847 18.0608C23.1367 18.0608 22.1587 18.3397 21.3902 18.7581C20.5518 19.2463 19.923 19.9436 19.5039 20.7804C19.0148 21.6172 18.8052 22.6632 18.8052 23.7789C18.8052 24.8946 19.0148 25.8709 19.5039 26.7077C19.9929 27.5445 20.6217 28.2418 21.3902 28.7299C22.1587 29.1483 23.1367 29.4273 24.1847 29.4273Z" fill="#0052CC"/>
<path d="M23.9052 47C10.9106 47 0.361328 36.4703 0.361328 23.5C0.361328 10.5297 10.9106 0 23.9052 0C27.1887 0 30.3326 0.627596 33.3367 1.95252C34.0353 2.23145 34.3148 2.99852 34.0353 3.69585C33.7559 4.39318 32.9874 4.67211 32.2887 4.39318C29.6339 3.27745 26.8394 2.64985 23.9052 2.64985C12.3778 2.64985 3.01612 11.9941 3.01612 23.5C3.01612 35.0059 12.3778 44.3501 23.9052 44.3501C35.4326 44.3501 44.7942 35.0059 44.7942 23.5C44.7942 22.1053 44.6545 20.6409 44.375 19.316C44.2353 18.6187 44.6545 17.9214 45.423 17.7819C46.1216 17.6424 46.8202 18.1306 46.96 18.8279C47.3093 20.362 47.449 21.9659 47.449 23.5697C47.449 36.4703 36.8298 47 23.9052 47Z" fill="#0052CC"/>
<path d="M32.4981 20.0831L29.8433 20.0133C29.8433 19.1068 29.983 18.27 30.3324 17.4332L32.8474 18.27C32.6378 18.8976 32.568 19.5252 32.4981 20.0831Z" fill="#0052CC"/>
<path d="M44.3752 19.316C44.0958 17.7818 43.2574 16.3872 41.9999 15.4109C40.7424 14.5044 39.1355 14.086 37.5985 14.3649C35.4328 14.7136 33.6163 16.2477 32.9177 18.3397L30.3328 17.4332C31.3807 14.4347 33.9656 12.2729 37.1095 11.7151C41.7903 10.948 46.1917 14.1557 46.9602 18.8278L44.3752 19.316Z" fill="#0052CC"/>
<path d="M32.5679 19.6647H29.9131V26.4985H32.5679V19.6647Z" fill="#0052CC"/>
</g>
<defs>
<clipPath id="clip0">
<rect width="51" height="47" fill="white" transform="translate(0.361328)"/>
</clipPath>
</defs>
</svg>
