<svg width="63" height="62" viewBox="0 0 63 62" fill="none" xmlns="http://www.w3.org/2000/svg">
<path d="M26.2685 27.8217C25.7096 27.8217 25.2439 27.6374 24.8713 27.3611C24.4987 26.9926 24.3124 26.6241 24.3124 26.1634C24.3124 25.6107 24.4987 25.2422 24.8713 24.8737C25.2439 24.5052 25.7096 24.4131 26.2685 24.4131H36.3288C36.8877 24.4131 37.3535 24.5973 37.7261 24.8737C38.0987 25.1501 38.285 25.6107 38.285 26.1634C38.285 26.6241 38.0987 27.0847 37.7261 27.3611C37.3535 27.6374 36.8877 27.8217 36.3288 27.8217H26.2685ZM30.0877 45.5097C29.5288 45.5097 29.1562 45.3254 28.6905 44.9569C28.3179 44.5884 28.0384 44.1278 28.0384 43.4829V23.6761C28.0384 21.7415 28.411 20.0832 29.1562 18.6092C29.9014 17.2273 31.0192 16.1218 32.4165 15.2927C33.8137 14.4636 35.3973 14.0951 37.1672 14.0951C37.7261 14.0951 38.285 14.2793 38.6576 14.6478C39.0302 15.0163 39.2165 15.477 39.2165 15.9376C39.2165 16.4903 39.0302 16.8588 38.6576 17.2273C38.285 17.5958 37.7261 17.7801 37.1672 17.7801C36.1425 17.7801 35.3042 17.9643 34.559 18.425C33.8137 18.8856 33.2548 19.5305 32.7891 20.3596C32.3233 21.1887 32.137 22.11 32.137 23.2154V43.4829C32.137 44.1278 31.9507 44.5884 31.5781 44.9569C31.2987 45.3254 30.7398 45.5097 30.0877 45.5097Z" fill="#0052CC"/>
<path d="M30.0877 62C13.2274 61.3551 0 47.7206 0 31.0461C0 13.9108 14.0658 0 31.3918 0C48.7178 0 62.7836 13.9108 62.7836 31.0461C62.7836 42.3774 56.5425 52.8796 46.389 58.315C45.5507 58.7756 44.4329 58.4993 43.9671 57.578C43.5014 56.7489 43.7808 55.6434 44.7123 55.1828C53.6548 50.3001 59.2438 41.0877 59.2438 30.9539C59.2438 15.7533 46.7616 3.40862 31.3918 3.40862C16.0219 3.50074 3.53973 15.8455 3.53973 31.0461C3.53973 45.8782 15.2767 57.9465 30.1808 58.5914C31.1123 58.5914 31.9507 59.4205 31.8575 60.4339C31.8575 61.263 31.0192 62 30.0877 62Z" fill="#0052CC"/>
<path d="M30.0876 62C28.9698 62 28.0383 61.0788 28.0383 59.9733V43.4829C28.0383 42.3774 28.9698 41.4562 30.0876 41.4562C31.2055 41.4562 32.137 42.3774 32.137 43.4829V59.8811C32.2301 61.0788 31.2986 62 30.0876 62Z" fill="#0052CC"/>
</svg>
