<svg width="52" height="47" viewBox="0 0 52 47" fill="none" xmlns="http://www.w3.org/2000/svg">
<g clip-path="url(#clip0)">
<path d="M29.3481 46.7206C41.8585 46.7206 52.0002 36.7777 52.0002 24.5126C52.0002 12.2474 41.8585 2.30457 29.3481 2.30457C16.8377 2.30457 6.69604 12.2474 6.69604 24.5126C6.69604 36.7777 16.8377 46.7206 29.3481 46.7206Z" fill="#B1DEF5"/>
<path d="M20.0876 21.0906C19.6602 21.0906 19.304 20.9509 19.0191 20.7414C18.7341 20.4621 18.5917 20.1827 18.5917 19.8335C18.5917 19.4145 18.7341 19.1352 19.0191 18.8558C19.304 18.5765 19.6602 18.5066 20.0876 18.5066H27.7807C28.2081 18.5066 28.5643 18.6463 28.8492 18.8558C29.1341 19.0653 29.2766 19.4145 29.2766 19.8335C29.2766 20.1827 29.1341 20.5319 28.8492 20.7414C28.5643 20.9509 28.2081 21.0906 27.7807 21.0906H20.0876ZM23.0081 34.4992C22.5807 34.4992 22.2958 34.3595 21.9396 34.0802C21.6547 33.8008 21.441 33.4516 21.441 32.9628V17.9479C21.441 16.4814 21.7259 15.2243 22.2958 14.1069C22.8656 13.0594 23.7204 12.2213 24.7889 11.5928C25.8574 10.9643 27.0684 10.6849 28.4218 10.6849C28.8492 10.6849 29.2766 10.8246 29.5615 11.104C29.8465 11.3833 29.9889 11.7325 29.9889 12.0817C29.9889 12.5007 29.8465 12.78 29.5615 13.0594C29.2766 13.3387 28.8492 13.4784 28.4218 13.4784C27.6383 13.4784 26.9972 13.6181 26.4273 13.9673C25.8574 14.3164 25.43 14.8053 25.0739 15.4338C24.7177 16.0624 24.5752 16.7607 24.5752 17.5988V32.9628C24.5752 33.4516 24.4328 33.8008 24.1478 34.0802C23.9341 34.3595 23.5067 34.4992 23.0081 34.4992Z" fill="#0052CC"/>
<path d="M23.0082 47C10.1151 46.5111 0 36.1753 0 23.5349C0 10.5453 10.7562 0 24.0055 0C37.2548 0 48.011 10.5453 48.011 23.5349C48.011 32.1248 43.2384 40.0862 35.474 44.2065C34.8329 44.5557 33.9781 44.3462 33.6219 43.6478C33.2658 43.0193 33.4795 42.1813 34.1918 41.8321C41.0301 38.1308 45.3041 31.1471 45.3041 23.4651C45.3041 11.942 35.7589 2.58395 24.0055 2.58395C12.2521 2.65379 2.70685 12.0119 2.70685 23.5349C2.70685 34.7786 11.6822 43.9272 23.0795 44.416C23.7918 44.416 24.4329 45.0446 24.3616 45.8128C24.3616 46.4413 23.7205 47 23.0082 47Z" fill="#0052CC"/>
<path d="M23.008 46.9999C22.1532 46.9999 21.4409 46.3016 21.4409 45.4635V32.9628C21.4409 32.1248 22.1532 31.4264 23.008 31.4264C23.8628 31.4264 24.5752 32.1248 24.5752 32.9628V45.3937C24.6464 46.3016 23.9341 46.9999 23.008 46.9999Z" fill="#0052CC"/>
</g>
<defs>
<clipPath id="clip0">
<rect width="52" height="47" fill="white"/>
</clipPath>
</defs>
</svg>
