<svg width="53" height="49" viewBox="0 0 53 49" fill="none" xmlns="http://www.w3.org/2000/svg">
<path d="M29.9124 48.8539C42.6633 48.8539 53 38.457 53 25.6318C53 12.8067 42.6633 2.40979 29.9124 2.40979C17.1614 2.40979 6.82471 12.8067 6.82471 25.6318C6.82471 38.457 17.1614 48.8539 29.9124 48.8539Z" fill="#95E196"/>
<path d="M25.0479 33.6647C23.3054 33.6647 21.7081 33.2996 20.4013 32.5693C19.0218 31.8391 18.0054 30.7437 17.2068 29.4292C16.4082 28.1148 15.9725 26.5812 15.9725 24.8286C15.9725 23.076 16.3355 21.5425 17.0616 20.228C17.7876 18.9136 18.804 17.8912 20.1109 17.0879C21.4177 16.3577 22.8698 15.9926 24.5397 15.9926C26.2095 15.9926 27.589 16.3577 28.7506 17.0879C29.9123 17.8182 30.8561 18.8405 31.4369 20.082C32.0903 21.3964 32.3807 22.8569 32.3807 24.5365C32.3807 24.9747 32.2355 25.2668 31.9451 25.5589C31.6547 25.851 31.2917 25.924 30.9287 25.924H18.2232V23.3681H30.9287L29.6218 24.2444C29.6218 23.149 29.404 22.1997 28.9684 21.3964C28.5328 20.5932 28.0246 19.8629 27.226 19.4247C26.4999 18.9136 25.5561 18.6945 24.5397 18.6945C23.3054 18.6945 22.289 18.9866 21.4177 19.4978C20.5465 20.0089 19.8931 20.7392 19.4575 21.6885C19.0945 22.6379 18.8766 23.6602 18.8766 24.8286C18.8766 25.997 19.1671 27.0194 19.6753 27.9687C20.1835 28.918 20.9095 29.5753 21.8534 30.1595C22.7972 30.6706 23.8136 30.9628 25.0479 30.9628C25.7013 30.9628 26.3547 30.8167 27.0807 30.5976C27.7342 30.3785 28.315 30.0864 28.7506 29.7213C29.041 29.5022 29.404 29.3562 29.767 29.3562C30.1301 29.3562 30.4931 29.4292 30.7109 29.7213C31.0739 30.0134 31.2917 30.3785 31.2917 30.7437C31.2917 31.1088 31.1465 31.4739 30.7835 31.766C30.0575 32.3502 29.1862 32.7884 28.0972 33.1535C27.0081 33.4456 25.9917 33.6647 25.0479 33.6647Z" fill="#0052CC"/>
<path d="M24.3219 49C10.8904 49 0 37.9732 0 24.4635C0 10.9538 10.8904 0 24.3219 0C37.7534 0 48.7164 10.9538 48.7164 24.4635C48.7164 25.1937 48.1356 25.851 47.337 25.851C46.611 25.851 45.9575 25.2668 45.9575 24.4635C45.9575 12.4873 36.3014 2.77496 24.3219 2.77496C12.4151 2.77496 2.7589 12.4873 2.7589 24.4635C2.7589 36.4396 12.4877 46.225 24.3945 46.225C29.4767 46.225 34.3411 44.4724 38.189 41.1863C38.7699 40.6751 39.6411 40.7481 40.1493 41.3323C40.6575 41.9165 40.5849 42.7929 40.0041 43.304C35.5753 46.9553 30.0575 49 24.3219 49Z" fill="#0052CC"/>
<path d="M38.7698 44.2534L37.1725 41.9896C38.4067 41.1133 40.367 39.2877 40.367 36.5127C40.367 33.1535 37.6807 30.4516 34.341 30.4516C32.8889 30.4516 31.5095 30.9628 30.4204 31.9121L28.678 29.7944C30.2752 28.4069 32.3081 27.6766 34.341 27.6766C39.2054 27.6766 43.1259 31.62 43.1259 36.5127C43.1259 39.5067 41.6013 42.2087 38.7698 44.2534Z" fill="#0052CC"/>
</svg>
