<svg width="52" height="49" viewBox="0 0 52 49" fill="none" xmlns="http://www.w3.org/2000/svg">
<g clip-path="url(#clip0)">
<path d="M29.3481 48.8539C41.8585 48.8539 52.0002 38.457 52.0002 25.6318C52.0002 12.8067 41.8585 2.40979 29.3481 2.40979C16.8377 2.40979 6.69604 12.8067 6.69604 25.6318C6.69604 38.457 16.8377 48.8539 29.3481 48.8539Z" fill="#B3C1F4"/>
<path d="M24.2904 33.6647C22.6521 33.6647 21.1562 33.2996 19.874 32.4963C18.5918 31.693 17.5946 30.6707 16.811 29.3562C16.0987 28.0417 15.6713 26.5082 15.6713 24.8286C15.6713 23.076 16.0274 21.5425 16.7398 20.228C17.4521 18.9136 18.4493 17.8182 19.7315 17.0879C21.0137 16.3577 22.4384 15.9926 24.0767 15.9926C25.2877 15.9926 26.4274 16.2116 27.4247 16.7228C28.4219 17.234 29.348 17.8912 30.1315 18.8405C30.4165 19.2057 30.5589 19.4978 30.4165 19.8629C30.3452 20.228 30.1315 20.5201 29.7041 20.8122C29.4192 21.0313 29.063 21.1043 28.7069 21.0313C28.3507 20.9583 28.0658 20.7392 27.7096 20.4471C26.7124 19.3517 25.4302 18.7675 23.9343 18.7675C22.8658 18.7675 21.9398 18.9866 21.1562 19.4978C20.3726 20.0089 19.7315 20.6662 19.2329 21.6155C18.8055 22.4918 18.5206 23.5872 18.5206 24.7556C18.5206 25.924 18.7343 26.9464 19.2329 27.8227C19.7315 28.699 20.3726 29.4292 21.1562 29.9404C21.9398 30.4516 22.937 30.7437 24.0767 30.7437C24.7891 30.7437 25.4302 30.6707 26 30.4516C26.5699 30.3055 27.0685 30.0134 27.4959 29.5753C27.8521 29.2832 28.137 29.1371 28.4932 29.1371C28.8493 29.1371 29.1343 29.2101 29.4192 29.4292C29.7754 29.7213 29.9891 30.0864 29.9891 30.4516C30.0603 30.8167 29.9178 31.1818 29.6329 31.4739C28.3507 32.9344 26.4987 33.6647 24.2904 33.6647Z" fill="#0052CC"/>
<path d="M23.863 49C10.6849 49 0 37.9732 0 24.4635C0 10.9538 10.6849 0 23.863 0C37.0411 0 47.7973 10.9538 47.7973 24.4635C47.7973 25.1937 47.2274 25.851 46.4438 25.851C45.7315 25.851 45.0904 25.2668 45.0904 24.4635C45.0904 12.4873 35.6164 2.77496 23.863 2.77496C12.1808 2.77496 2.70685 12.4873 2.70685 24.4635C2.70685 36.4396 12.2521 46.225 23.9342 46.225C28.9205 46.225 33.6931 44.4724 37.4685 41.1863C38.0384 40.6751 38.8932 40.7481 39.3918 41.3323C39.8904 41.9165 39.8192 42.7929 39.2493 43.304C34.9041 46.9553 29.4904 49 23.863 49Z" fill="#0052CC"/>
<path d="M37.9671 44.2534L36.3999 41.9896C37.6109 41.1133 39.6054 39.2146 39.6054 36.3666C39.6054 32.9344 36.8986 30.1595 33.5506 30.1595C32.126 30.1595 30.7013 30.6707 29.6328 31.62L27.9232 29.5023C29.4903 28.1148 31.5561 27.3845 33.6218 27.3845C38.4657 27.3845 42.3835 31.4009 42.3835 36.3666C42.3835 39.4337 40.8164 42.2087 37.9671 44.2534Z" fill="#0052CC"/>
</g>
<defs>
<clipPath id="clip0">
<rect width="52" height="49" fill="white"/>
</clipPath>
</defs>
</svg>
