<svg width="96" height="92" viewBox="0 0 96 92" fill="none" xmlns="http://www.w3.org/2000/svg">
<g clip-path="url(#clip0)">
<path d="M92.6705 15H7.42407C6.11103 15 5 15.9654 5 17.1064V78.8936C5 80.0346 6.11103 81 7.42407 81H92.5695C93.8826 81 94.9936 80.0346 94.9936 78.8936V17.1064C95.0946 15.9654 93.9836 15 92.6705 15Z" fill="#FEDB8F"/>
<path d="M14.8 80.5H5.2C2.9 80.5 1 78.6 1 76.3V5.2C1 2.9 2.9 1 5.2 1H90.3C92.6 1 94.5 2.9 94.5 5.2V76.3C94.5 78.6 92.6 80.5 90.3 80.5H21.1" stroke="#071146" stroke-width="2" stroke-miterlimit="10" stroke-linecap="round" stroke-linejoin="round"/>
<path d="M1 15.5H94.6" stroke="#071146" stroke-width="2" stroke-miterlimit="10" stroke-linecap="round" stroke-linejoin="round"/>
<path d="M12.6 10.8C13.8703 10.8 14.9 9.77021 14.9 8.49995C14.9 7.2297 13.8703 6.19995 12.6 6.19995C11.3298 6.19995 10.3 7.2297 10.3 8.49995C10.3 9.77021 11.3298 10.8 12.6 10.8Z" stroke="#071146" stroke-width="2" stroke-miterlimit="10" stroke-linecap="round" stroke-linejoin="round"/>
<path d="M25.4 10.8C26.6702 10.8 27.7 9.77021 27.7 8.49995C27.7 7.2297 26.6702 6.19995 25.4 6.19995C24.1297 6.19995 23.1 7.2297 23.1 8.49995C23.1 9.77021 24.1297 10.8 25.4 10.8Z" stroke="#071146" stroke-width="2" stroke-miterlimit="10" stroke-linecap="round" stroke-linejoin="round"/>
<path d="M38.2 10.8C39.4703 10.8 40.5 9.77021 40.5 8.49995C40.5 7.2297 39.4703 6.19995 38.2 6.19995C36.9298 6.19995 35.9 7.2297 35.9 8.49995C35.9 9.77021 36.9298 10.8 38.2 10.8Z" stroke="#071146" stroke-width="2" stroke-miterlimit="10" stroke-linecap="round" stroke-linejoin="round"/>
<path d="M36.8 67.2001L34.3 69.9001L28.6 64.4001L31.1 61.7001" stroke="#071146" stroke-width="2" stroke-miterlimit="10" stroke-linecap="round" stroke-linejoin="round"/>
<path d="M9.19998 86.8L29.8 65.5L32.8 68.4L12.2 89.7C11.4 90.5 10.1 90.6 9.19998 89.8C8.39998 89 8.39998 87.6 9.19998 86.8Z" stroke="#071146" stroke-width="2" stroke-miterlimit="10" stroke-linecap="round" stroke-linejoin="round"/>
<path d="M67.5103 64.2519C76.6059 54.8395 76.3491 39.8358 66.9367 30.7401C57.5243 21.6445 42.5206 21.9012 33.4249 31.3137C24.3293 40.7261 24.5861 55.7298 33.9985 64.8255C43.4109 73.9211 58.4146 73.6643 67.5103 64.2519Z" fill="white" stroke="#071146" stroke-width="2" stroke-miterlimit="10" stroke-linecap="round" stroke-linejoin="round"/>
<path d="M50.5 64C48.1 64 46 63.6 44 62.8C42 62 40.3 60.9 38.9 59.5C37.5 58.1 36.3 56.4001 35.6 54.4001C34.8 52.4001 34.4 50.3001 34.4 47.9001C34.4 45.5001 34.8 43.4001 35.6 41.4001C36.4 39.4001 37.5 37.7 38.9 36.3C40.3 34.9 42 33.7 44 33C46 32.2 48.1 31.8 50.5 31.8C52.9 31.8 55 32.2 57 33C59 33.8 60.7 34.9 62.1 36.3C63.5 37.7 64.7 39.4001 65.4 41.4001C66.2 43.4001 66.6 45.5001 66.6 47.9001C66.6 49.8001 66.3 51.5 65.8 53C65.3 54.5 64.6 55.6 63.7 56.5C62.8 57.3 61.8 57.8 60.6 57.8C59.6 57.8 58.7 57.5 58.1 56.8C57.4 56.1 57.1 55.3 57.1 54.3V53.3C56.7 53.9 56.1 54.5 55.4 55C54.7 55.5 53.9 55.9001 53 56.2001C52.1 56.5 51.3 56.6 50.4 56.6C48.7 56.6 47.3 56.2001 46 55.5C44.7 54.8 43.7 53.8 43 52.5C42.3 51.2001 41.9 49.7 41.9 48.1C41.9 46.4 42.3 44.9 43 43.6C43.7 42.3 44.7 41.3 46 40.6C47.3 39.9 48.8 39.5 50.4 39.5C52.1 39.5 53.6 39.9 54.8 40.6C56.1 41.3 57.1 42.3 57.8 43.6C58.5 44.9 58.9 46.4 58.9 48.1V53.8C58.9 54.6 59.1 55.2001 59.3 55.5C59.6 55.8 60 56 60.4 56C61.2 56 61.9 55.7001 62.5 55C63.1 54.3 63.6 53.4001 63.9 52.2001C64.2 51 64.4 49.6 64.4 48.1C64.4 46 64.1 44.1001 63.3 42.4001C62.6 40.7001 61.6 39.2001 60.3 37.9001C59 36.6001 57.5 35.6001 55.8 34.9001C54.1 34.2001 52.2 33.9001 50.1 33.9001C48 33.9001 46.1 34.2001 44.4 34.9001C42.7 35.6001 41.2 36.6001 39.9 37.9001C38.6 39.2001 37.6 40.7001 37 42.4001C36.3 44.1001 36 46 36 48.1C36 50.2 36.3 52.1 37 53.8C37.7 55.5 38.7 57 39.9 58.3C41.2 59.6 42.7 60.6 44.4 61.2001C46.1 61.9001 48 62.2001 50.1 62.2001C51.1 62.2001 52.1 62.1 53.2 61.8C54.3 61.6 55.2 61.3001 55.9 60.9001C56.3 60.7001 56.7 60.6 56.9 60.8C57.2 60.9 57.3 61.2 57.3 61.6C57.3 61.9 57 62.3001 56.4 62.7001C55.8 63.1 54.9 63.4001 53.8 63.7001C53.2 63.8 51.9 64 50.5 64ZM50.5 54.5C51.8 54.5 52.9 54.2 53.9 53.6C54.9 53 55.7 52.2001 56.3 51.2001C56.9 50.2001 57.2 49.1 57.2 47.8C57.2 46.5 56.9 45.3 56.3 44.3C55.7 43.3 54.9 42.5001 53.9 41.9001C52.9 41.3001 51.8 41 50.5 41C49.2 41 48.1 41.3001 47.1 41.9001C46.1 42.5001 45.3 43.3 44.7 44.3C44.1 45.3 43.8 46.5 43.8 47.8C43.8 49.1 44.1 50.2001 44.7 51.2001C45.3 52.2001 46.1 53 47.1 53.6C48.1 54.2 49.2 54.5 50.5 54.5Z" fill="#FCAA90" stroke="#FCAA90" stroke-width="0.5" stroke-miterlimit="10"/>
</g>
<defs>
<clipPath id="clip0">
<rect width="95.6" height="91.4" fill="white"/>
</clipPath>
</defs>
</svg>
