<svg width="115" height="95" viewBox="0 0 115 95" fill="none" xmlns="http://www.w3.org/2000/svg">
<g clip-path="url(#clip0)">
<path d="M73.4 38.4C73.9 38.3 72.9 38.3 73.4 38.4V38.4Z" fill="white"/>
<path d="M65.8999 10.9C66.2999 10.9 71.9999 11.1 65.8999 10.9V10.9Z" fill="white"/>
<path d="M75.6001 23.4C75.5001 23 75.6001 23.5 75.6001 23.4V23.4Z" fill="white"/>
<path d="M71.6001 23.2C71.6001 23.3 71.6001 23.3 71.6001 23.2C71.7001 23.3 71.7001 23.2 71.6001 23.2Z" fill="white"/>
<path d="M101.5 1.90002H75.1999C67.9999 1.90002 62.2 7.80002 62.2 14.9V36.4C62.2 43.6 68.0999 49.4 75.1999 49.4V54.4C75.1999 55.1 76 55.5 76.5 55.1L84.5 49.4H101.5C108.7 49.4 114.5 43.5 114.5 36.4V15C114.6 7.80002 108.7 1.90002 101.5 1.90002ZM109.9 35C109.9 40.9 105.1 45.7 99.1999 45.7H85.1999L78.5999 50.4C78.1999 50.7 77.5 50.4 77.5 49.9V45.8C71.8 45.7 67 40.9 67 35V17.4C67 11.5 71.7999 6.70002 77.6999 6.70002H99.3C105.2 6.70002 110 11.5 110 17.4V35H109.9Z" fill="#B3C1F4"/>
<path d="M95.2999 39.5C94.7999 39.3 94.2999 39.2 93.7999 39C88.9999 37 84.4999 34.4 80.9999 30.4C78.9999 28.1 77.3999 25.6 76.0999 22.9C75.4999 21.6 74.8999 20.3 74.3999 19C73.8999 17.8 74.5999 16.5 75.3999 15.6C76.0999 14.7 76.9999 14.1 77.9999 13.6C78.7999 13.2 79.5999 13.4 80.0999 14.1C81.2999 15.5 82.4999 17 83.3999 18.7C83.9999 19.7 83.7999 21 82.7999 21.7C82.5999 21.9 82.2999 22.1 82.0999 22.3C81.8999 22.5 81.6999 22.6 81.5999 22.9C81.2999 23.3 81.2999 23.8 81.4999 24.3C82.7999 27.8 84.8999 30.5 88.3999 31.9C88.9999 32.1 89.4999 32.4 90.1999 32.3C91.2999 32.2 91.5999 31 92.3999 30.4C93.0999 29.8 94.0999 29.8 94.8999 30.3C95.6999 30.8 96.4999 31.3 97.1999 31.9C97.9999 32.4 98.6999 33 99.3999 33.6C100.1 34.2 100.3 35 99.8999 35.8C99.1999 37.3 98.1999 38.5 96.7999 39.3C96.2999 39.3 95.7999 39.3 95.2999 39.5C94.7999 39.3 95.7999 39.3 95.2999 39.5Z" fill="#B3C1F4"/>
<path d="M87.8999 11.9C94.1999 12.1 99.4999 16.3 100.6 22.6C100.8 23.7 100.9 24.8 100.9 25.8C100.9 26.3 100.7 26.7 100.2 26.7C99.6999 26.7 99.4999 26.3 99.3999 25.8C99.2999 24.9 99.2999 24 99.1999 23.1C98.4999 18.4 94.7999 14.5 90.0999 13.6C89.3999 13.5 88.6999 13.4 87.9999 13.4C87.4999 13.4 86.9999 13.3 86.8999 12.8C86.7999 12.3 87.1999 12 87.6999 11.9C87.5999 11.9 87.6999 11.9 87.8999 11.9C94.1999 12.1 87.6999 11.9 87.8999 11.9Z" fill="#B3C1F4"/>
<path d="M97.4998 24.4C97.4998 24.5 97.4998 24.7 97.3998 24.8C97.1998 25.4 96.2998 25.5 95.9998 24.9C95.9998 24.8 95.9998 24.6 95.9998 24.3C95.9998 23 95.6998 21.6 94.9998 20.4C94.2998 19.2 93.1998 18.2 91.9998 17.6C91.1998 17.2 90.3998 17 89.5998 16.9C89.1998 16.8 88.8998 16.8 88.4998 16.8C88.0998 16.7 87.7998 16.5 87.7998 16C87.7998 15.6 88.0998 15.3 88.5998 15.3C90.0998 15.4 91.4998 15.7 92.7998 16.4C95.3998 17.8 96.8998 20 97.3998 22.9C97.3998 23 97.4998 23.2 97.4998 23.3C97.4998 23.7 97.4998 24 97.4998 24.4C97.4998 24.5 97.4998 24 97.4998 24.4Z" fill="#B3C1F4"/>
<path d="M93.5999 24.3C93.0999 24.3 92.7999 24 92.6999 23.5C92.6999 23.2 92.5999 22.8 92.5999 22.5C92.3999 21.8 92.0999 21.2 91.4999 20.8C91.1999 20.6 90.8999 20.5 90.5999 20.4C90.1999 20.3 89.7999 20.3001 89.3999 20.2001C88.9999 20.1001 88.6999 19.8 88.7999 19.4C88.8999 19 89.1999 18.8 89.5999 18.8C92.0999 19 93.7999 20.2 94.0999 23.1C94.0999 23.3 94.0999 23.5001 94.0999 23.7001C93.9999 24.1001 93.7999 24.3 93.5999 24.3C92.9999 24.3 93.7999 24.3 93.5999 24.3Z" fill="#B3C1F4"/>
<path d="M99.9 1H73.5C66.3 1 60.5 6.9 60.5 14V35.5C60.5 42.7 66.4 48.5 73.5 48.5V53.5C73.5 54.2 74.3 54.6 74.8 54.2L82.8 48.5H99.8C107 48.5 112.8 42.6 112.8 35.5V14C112.9 6.9 107.1 1 99.9 1ZM108.3 34.1C108.3 40 103.5 44.8 97.6 44.8H83.6L77 49.5C76.6 49.8 75.9 49.5 75.9 49V44.9C70 44.9 65.2 40.1 65.2 34.2V16.5C65.2 10.6 70 5.8 75.9 5.8H97.5C103.4 5.8 108.2 10.6 108.2 16.5V34.1H108.3Z" stroke="#071146" stroke-width="2" stroke-miterlimit="10" stroke-linecap="round" stroke-linejoin="round"/>
<path d="M93.7 38.6C93.2 38.4 92.7 38.3 92.2 38.1C87.4 36.1 82.9001 33.5 79.4001 29.5C77.4001 27.2 75.8001 24.7 74.5001 22C73.9001 20.7 73.3001 19.4 72.8001 18.1C72.3001 16.9 73.0001 15.6 73.8001 14.7C74.5001 13.8 75.4001 13.2 76.4001 12.7C77.2001 12.3 78.0001 12.5 78.5001 13.2C79.7001 14.6 80.9001 16.1 81.8001 17.8C82.4001 18.8 82.2 20.1 81.2 20.8C81 21 80.7001 21.2 80.5001 21.4C80.3001 21.6 80.1001 21.7 80.0001 22C79.7001 22.4 79.7001 22.9 79.9001 23.4C81.2001 26.9 83.3001 29.6 86.8001 31C87.4001 31.2 87.9 31.5 88.6 31.4C89.7 31.3 90.0001 30.1 90.8001 29.5C91.5001 28.9 92.5001 28.9 93.3001 29.4C94.1001 29.9 94.9 30.4 95.6 31C96.4 31.5 97.1001 32.1 97.8001 32.7C98.5001 33.3 98.7001 34.1 98.3001 34.9C97.6001 36.4 96.6 37.6 95.2 38.4C94.6 38.4 94.1 38.4 93.7 38.6ZM93.7 38.6C93.2 38.4 94.1 38.4 93.7 38.6Z" stroke="#071146" stroke-width="2" stroke-miterlimit="10" stroke-linecap="round" stroke-linejoin="round"/>
<path d="M60.1 69.9C60.9 65.3 60.5 60.4 59 55.9C56.8 49.3 51.9 43.7 45.8 40.4C40.3 37.4 33.8 36.4 27.6 37.5C22.1 34.3 14.9 34.7 9.80002 38.4C6.40002 40.7 4.00002 44.4 3.10002 48.5C2.20002 52.5 2.90002 56.7 4.90002 60.3C4.10002 65.2 4.50002 70.3 6.30002 75C8.70002 81.5 13.7 87 19.9 90.2C25.2 92.9 31.5 93.8 37.4 92.8C42.7 95.9 49.7 95.7 54.8 92.3C58.5 89.9 61.1 86 62 81.7C62.7 77.6 62.1 73.4 60.1 69.9ZM53.7 87.6C50.7 90.3 46.3 91.3 42.4 90.2C40.8 89.8 39.5 89 38.1 88.2C33.4 89.2 28.4 89 23.9 87.2C17.3 84.7 12 79.1 9.80002 72.3C8.40002 68.2 8.40002 63.7 9.30002 59.4C8.00002 57.2 7.00002 54.7 7.00002 52C7.00002 47.9 9.20002 43.9 12.6 41.7C15.7 39.6 19.8 39.1 23.3 40.3C24.6 40.7 25.7 41.4 26.8 42C31.2 41 36 41.2 40.3 42.7C47.1 45.1 52.7 50.7 55 57.6C56.4 61.8 56.5 66.4 55.6 70.7C56.7 72.5 57.7 74.5 57.9 76.6C58.5 80.7 56.8 84.9 53.7 87.6Z" fill="#B1DEF5"/>
<path d="M28.8 48.1C32.8 47.5 37.1 48.1 40.7 50.1C42.3 51 43.8 52.2 44.5 53.8C45 54.9 45 56.4 44.1 57.3C43.1 58.3 41.6 58.6 40.3 58.2C38.8 57.6 38.1 56 36.8 55.1C35.2 53.8 33.1 53.4 31.1 53.5C29.6 53.6 28.1 53.9 27 55C26 56 25.7 57.8 26.6 59C27.5 60 28.9 60.4 30.2 60.8C32.6 61.4 35.1 61.9 37.6 62.5C40.1 63.1 42.7 64.2 44.4 66.3C47.3 70.1 46.6 76 43 79.1C40.1 81.7 36.1 82.4 32.4 82.4C28.4 82.3 24.1 81.5 21.1 78.8C19.6 77.4 18.3 75.3 18.7 73.2C19.2 71.1 22.1 70.3 23.8 71.6C25.1 72.6 25.8 74.2 27 75.2C28.5 76.5 30.5 77.1 32.4 77C34.3 77.1 36.3 76.5 37.6 75C38.5 74 39 72.5 38.4 71.3C37.9 70.1 36.7 69.5 35.5 69.2C33.4 68.6 31.2 68.1 29 67.6C26.6 67 24.2 66.5 22.2 65.1C20.6 64 19.4 62.4 19 60.5C18.4 57.6 18.8 54.2 20.9 51.9C23.1 49.6 26 48.6 28.8 48.1Z" fill="#B1DEF5"/>
<path d="M58.3 68.8001C59.1 64.2001 58.7 59.3001 57.2 54.8001C55 48.2001 50.2 42.6001 44 39.3001C38.5 36.3001 32 35.3001 25.8 36.4001C20.3 33.2001 13.1 33.6001 7.99997 37.3001C4.59997 39.7001 2.19997 43.4001 1.29997 47.4001C0.399971 51.4001 1.09997 55.6001 3.09997 59.2001C2.29997 64.1001 2.69997 69.2001 4.49997 73.9001C6.89997 80.4001 11.9 85.9001 18.1 89.1001C23.4 91.8001 29.7 92.7001 35.6 91.7001C40.9 94.8001 47.9 94.6001 53 91.2001C56.7 88.8001 59.3 84.9001 60.2 80.6001C61 76.4001 60.3 72.2001 58.3 68.8001ZM52 86.4001C49 89.1001 44.6 90.1001 40.7 89.0001C39.1 88.6001 37.8 87.8001 36.4 87.0001C31.7 88.0001 26.7 87.8001 22.2 86.0001C15.6 83.5001 10.3 77.9001 8.09997 71.1001C6.79997 67.0001 6.69997 62.5001 7.59997 58.3001C6.19997 56.1001 5.19997 53.5001 5.19997 50.8001C5.19997 46.7001 7.39997 42.7001 10.8 40.5001C13.9 38.4001 18 37.9001 21.5 39.1001C22.8 39.5001 23.9 40.2001 25 40.8001C29.4 39.8001 34.2 40.0001 38.5 41.5001C45.3 43.9001 50.9 49.5001 53.2 56.4001C54.6 60.6001 54.7 65.2001 53.8 69.5001C54.9 71.3001 55.9 73.3001 56.1 75.4001C56.7 79.5001 55.1 83.7001 52 86.4001Z" stroke="#071146" stroke-width="2" stroke-miterlimit="10" stroke-linecap="round" stroke-linejoin="round"/>
<path d="M27.1 47C31.1 46.4 35.4 47 39 49C40.6 49.9 42.1 51.1 42.8 52.7C43.3 53.8 43.3 55.3 42.4 56.2C41.4 57.2 39.9 57.5 38.6 57.1C37.1 56.5 36.4 54.9 35.1 54C33.5 52.7 31.4 52.3 29.4 52.4C27.9 52.5 26.4 52.8 25.3 53.9C24.3 54.9 24 56.7 24.9 57.9C25.8 58.9 27.2 59.3 28.5 59.7C30.9 60.3 33.4 60.8 35.9 61.4C38.4 62 41 63.1 42.7 65.2C45.6 69 44.9 74.9 41.3 78C38.4 80.6 34.4 81.3 30.7 81.3C26.7 81.2 22.4 80.4 19.4 77.7C17.9 76.3 16.6 74.2 17 72.1C17.5 70 20.4 69.2 22.1 70.5C23.4 71.5 24.1 73.1 25.3 74.1C26.8 75.4 28.8 76 30.7 75.9C32.6 76 34.6 75.4 35.9 73.9C36.8 72.9 37.3 71.4 36.7 70.2C36.2 69 35 68.4 33.8 68.1C31.7 67.5 29.5 67 27.3 66.5C24.9 65.9 22.5 65.4 20.5 64C18.9 62.9 17.7 61.3 17.3 59.4C16.7 56.5 17.1 53.1 19.2 50.8C21.4 48.4 24.3 47.4 27.1 47Z" stroke="#071146" stroke-width="2" stroke-miterlimit="10" stroke-linecap="round" stroke-linejoin="round"/>
<path d="M32.5 23.9C38.4646 23.9 43.2999 19.0647 43.2999 13.1C43.2999 7.13537 38.4646 2.30005 32.5 2.30005C26.5353 2.30005 21.7 7.13537 21.7 13.1C21.7 19.0647 26.5353 23.9 32.5 23.9Z" fill="white"/>
<path d="M93.8 87.4C99.7647 87.4 104.6 82.5647 104.6 76.6C104.6 70.6354 99.7647 65.8 93.8 65.8C87.8353 65.8 83 70.6354 83 76.6C83 82.5647 87.8353 87.4 93.8 87.4Z" fill="white"/>
<path d="M91.5 86.7C97.4646 86.7 102.3 81.8647 102.3 75.9C102.3 69.9353 97.4646 65.1 91.5 65.1C85.5353 65.1 80.7 69.9353 80.7 75.9C80.7 81.8647 85.5353 86.7 91.5 86.7Z" stroke="#071146" stroke-width="2" stroke-miterlimit="10" stroke-linecap="round" stroke-linejoin="round"/>
<path d="M91.7 71.2999V79.2999" stroke="#071146" stroke-width="2" stroke-miterlimit="10" stroke-linecap="round" stroke-linejoin="round"/>
<path d="M87.8 76.6L91.7 79.7L95.5 76.6" stroke="#071146" stroke-width="2" stroke-miterlimit="10" stroke-linecap="round" stroke-linejoin="round"/>
<path d="M30.8 22.6C36.7647 22.6 41.6 17.7647 41.6 11.8C41.6 5.83532 36.7647 1 30.8 1C24.8353 1 20 5.83532 20 11.8C20 17.7647 24.8353 22.6 30.8 22.6Z" stroke="#071146" stroke-width="2" stroke-miterlimit="10" stroke-linecap="round" stroke-linejoin="round"/>
<path d="M30.9001 7.30005V15.3" stroke="#071146" stroke-width="2" stroke-miterlimit="10" stroke-linecap="round" stroke-linejoin="round"/>
<path d="M27.1001 12.6001L30.9001 15.7001L34.8001 12.6001" stroke="#071146" stroke-width="2" stroke-miterlimit="10" stroke-linecap="round" stroke-linejoin="round"/>
</g>
<defs>
<clipPath id="clip0">
<rect width="114.6" height="94.8" fill="white"/>
</clipPath>
</defs>
</svg>
