<svg width="586" height="248" viewBox="0 0 586 248" fill="none" xmlns="http://www.w3.org/2000/svg">
<g clip-path="url(#clip0)">
<path d="M581.6 36.4H0V248H581.6C584 248 586 246 586 243.6V40.8C586 38.4 584 36.4 581.6 36.4Z" fill="#95E196"/>
<path d="M287.4 145.7H50.3V37.2C50.3 31.3 55.1 26.5 61 26.5H276.7C282.6 26.5 287.4 31.3 287.4 37.2V145.7Z" fill="white"/>
<path d="M45.4 145.7H287.4" stroke="#071146" stroke-width="2" stroke-miterlimit="10" stroke-linecap="round" stroke-linejoin="round"/>
<path d="M167.3 161.5C169.509 161.5 171.3 159.709 171.3 157.5C171.3 155.291 169.509 153.5 167.3 153.5C165.091 153.5 163.3 155.291 163.3 157.5C163.3 159.709 165.091 161.5 167.3 161.5Z" stroke="#071146" stroke-width="2" stroke-miterlimit="10" stroke-linecap="round" stroke-linejoin="round"/>
<path d="M187.4 169.3H146.1V204.9H187.4V169.3Z" stroke="#071146" stroke-width="2" stroke-miterlimit="10" stroke-linecap="round" stroke-linejoin="round"/>
<path d="M199.2 204.9H134.9C133.6 204.9 132.4 206 132.4 207.4V207.7C132.4 209 133.5 210.2 134.9 210.2H199.2C200.5 210.2 201.7 209.1 201.7 207.7V207.4C201.6 206 200.5 204.9 199.2 204.9Z" stroke="#071146" stroke-width="2" stroke-miterlimit="10" stroke-linecap="round" stroke-linejoin="round"/>
<path d="M275.4 169.3H57.4C50.8 169.3 45.4 163.9 45.4 157.3V34C45.4 27.4 50.8 22 57.4 22H275.4C282 22 287.4 27.4 287.4 34V157.3C287.4 163.9 282 169.3 275.4 169.3Z" stroke="#071146" stroke-width="2" stroke-miterlimit="10" stroke-linecap="round" stroke-linejoin="round"/>
<path d="M455.9 5.5L460.7 10.3" stroke="#071146" stroke-width="2" stroke-miterlimit="10" stroke-linecap="round" stroke-linejoin="round"/>
<path d="M464.4 14L469.3 18.9" stroke="#071146" stroke-width="2" stroke-miterlimit="10" stroke-linecap="round" stroke-linejoin="round"/>
<path d="M469.3 5.5L464.4 10.3" stroke="#071146" stroke-width="2" stroke-miterlimit="10" stroke-linecap="round" stroke-linejoin="round"/>
<path d="M460.7 14L455.9 18.9" stroke="#071146" stroke-width="2" stroke-miterlimit="10" stroke-linecap="round" stroke-linejoin="round"/>
<path d="M257.9 216.4L262.7 221.2" stroke="#071146" stroke-width="2" stroke-miterlimit="10" stroke-linecap="round" stroke-linejoin="round"/>
<path d="M266.4 224.9L271.2 229.7" stroke="#071146" stroke-width="2" stroke-miterlimit="10" stroke-linecap="round" stroke-linejoin="round"/>
<path d="M271.2 216.4L266.4 221.2" stroke="#071146" stroke-width="2" stroke-miterlimit="10" stroke-linecap="round" stroke-linejoin="round"/>
<path d="M262.7 224.9L257.9 229.7" stroke="#071146" stroke-width="2" stroke-miterlimit="10" stroke-linecap="round" stroke-linejoin="round"/>
<path d="M514.5 40.8L519.3 45.6" stroke="#071146" stroke-width="2" stroke-miterlimit="10" stroke-linecap="round" stroke-linejoin="round"/>
<path d="M523 49.3L527.9 54.1" stroke="#071146" stroke-width="2" stroke-miterlimit="10" stroke-linecap="round" stroke-linejoin="round"/>
<path d="M527.9 40.8L523 45.6" stroke="#071146" stroke-width="2" stroke-miterlimit="10" stroke-linecap="round" stroke-linejoin="round"/>
<path d="M519.3 49.3L514.5 54.1" stroke="#071146" stroke-width="2" stroke-miterlimit="10" stroke-linecap="round" stroke-linejoin="round"/>
<path d="M537.7 10C540.185 10 542.2 7.98528 542.2 5.5C542.2 3.01472 540.185 1 537.7 1C535.215 1 533.2 3.01472 533.2 5.5C533.2 7.98528 535.215 10 537.7 10Z" stroke="#FEDB8F" stroke-width="2" stroke-miterlimit="10"/>
<path d="M230.7 199.7C233.185 199.7 235.2 197.685 235.2 195.2C235.2 192.715 233.185 190.7 230.7 190.7C228.215 190.7 226.2 192.715 226.2 195.2C226.2 197.685 228.215 199.7 230.7 199.7Z" stroke="#FEDB8F" stroke-width="2" stroke-miterlimit="10"/>
<path d="M529.9 216.2C532.385 216.2 534.4 214.185 534.4 211.7C534.4 209.215 532.385 207.2 529.9 207.2C527.415 207.2 525.4 209.215 525.4 211.7C525.4 214.185 527.415 216.2 529.9 216.2Z" stroke="#FEDB8F" stroke-width="2" stroke-miterlimit="10"/>
<path d="M199.3 76H143.3C141.5 76 140 77.5 140 79.3V80.2C140 82 141.5 83.5 143.3 83.5L166.1 103.9V121.2L176.3 117.7V104L199.2 83.4C201 83.4 202.5 81.9 202.5 80.1V79.2C202.6 77.4 201.1 76 199.3 76Z" fill="#FEDB8F"/>
<path d="M106.8 107.9L94.2001 119.4C93.3001 120.3 91.8001 120.2 90.9001 119.2L82.6001 110.1C81.7001 109.2 81.8001 107.7 82.8001 106.8L95.4001 95.3C96.3001 94.4 97.8001 94.5 98.7001 95.5L107 104.6C107.8 105.6 107.7 107 106.8 107.9Z" fill="white"/>
<path d="M81.4 112.2L92.8 109.6C94.1 109.3 95.2 108.3 95.6 107.1L99.3 96" stroke="#071146" stroke-width="2" stroke-miterlimit="10" stroke-linecap="round" stroke-linejoin="round"/>
<path d="M105.9 103.2L96.3 105.4" stroke="#071146" stroke-width="2" stroke-miterlimit="10" stroke-linecap="round" stroke-linejoin="round"/>
<path d="M91.1 110.1L88 119.4" stroke="#071146" stroke-width="2" stroke-miterlimit="10" stroke-linecap="round" stroke-linejoin="round"/>
<path d="M106.7 108L92.6 120.8C91.6 121.7 89.9 121.7 89 120.6L79.9 110.5C79 109.5 79 107.8 80.1 106.9L94.2 94.1C95.2 93.2 96.9001 93.2 97.8001 94.3L106.9 104.4C107.8 105.4 107.7 107 106.7 108Z" stroke="#071146" stroke-width="2" stroke-miterlimit="10" stroke-linecap="round" stroke-linejoin="round"/>
<path d="M256.9 104.2L239.8 104.7C238.5 104.7 237.5 103.7 237.4 102.5L237 90.2C237 88.9 238 87.9 239.2 87.8L256.3 87.3C257.6 87.3 258.6 88.3 258.7 89.5L259.1 101.8C259.2 103.1 258.2 104.2 256.9 104.2Z" fill="white"/>
<path d="M234.9 91.1L245.2 96.5C246.4 97.1 247.8 97.1 249 96.4L259 90.4" stroke="#071146" stroke-width="2" stroke-miterlimit="10" stroke-linecap="round" stroke-linejoin="round"/>
<path d="M259.2 100.1L250.5 95.6" stroke="#071146" stroke-width="2" stroke-miterlimit="10" stroke-linecap="round" stroke-linejoin="round"/>
<path d="M243.6 95.8L235.2 100.8" stroke="#071146" stroke-width="2" stroke-miterlimit="10" stroke-linecap="round" stroke-linejoin="round"/>
<path d="M256.8 104.2L237.8 104.8C236.4 104.8 235.2 103.7 235.2 102.3L234.8 88.7C234.8 87.3 235.9 86.1 237.3 86.1L256.3 85.5C257.7 85.5 258.9 86.6 258.9 88L259.3 101.6C259.3 103 258.2 104.2 256.8 104.2Z" stroke="#071146" stroke-width="2" stroke-miterlimit="10" stroke-linecap="round" stroke-linejoin="round"/>
<path d="M219.8 121.9L202.7 122.4C201.4 122.4 200.4 121.4 200.3 120.2L199.9 107.9C199.9 106.6 200.9 105.6 202.1 105.5L219.2 105C220.5 105 221.5 106 221.6 107.2L222 119.5C222.1 120.8 221.1 121.9 219.8 121.9Z" fill="white"/>
<path d="M197.8 108.7L208.1 114.1C209.3 114.7 210.7 114.7 211.9 114L221.9 108" stroke="#071146" stroke-width="2" stroke-miterlimit="10" stroke-linecap="round" stroke-linejoin="round"/>
<path d="M222.1 117.8L213.4 113.2" stroke="#071146" stroke-width="2" stroke-miterlimit="10" stroke-linecap="round" stroke-linejoin="round"/>
<path d="M206.5 113.4L198.1 118.5" stroke="#071146" stroke-width="2" stroke-miterlimit="10" stroke-linecap="round" stroke-linejoin="round"/>
<path d="M219.7 121.9L200.7 122.5C199.3 122.5 198.1 121.4 198.1 120L197.7 106.4C197.7 105 198.8 103.8 200.2 103.8L219.2 103.2C220.6 103.2 221.8 104.3 221.8 105.7L222.2 119.3C222.2 120.7 221.1 121.9 219.7 121.9Z" stroke="#071146" stroke-width="2" stroke-miterlimit="10" stroke-linecap="round" stroke-linejoin="round"/>
<path d="M103.3 86.2L88.3 78.1C87.2 77.5 86.8 76.1 87.4 75L93.3 64.1C93.9 63 95.3 62.6 96.4 63.2L111.4 71.3C112.5 71.9 112.9 73.3 112.3 74.4L106.4 85.3C105.8 86.4 104.4 86.8 103.3 86.2Z" fill="white"/>
<path d="M90.8 63.8L97 73.7C97.7 74.8 99 75.5 100.3 75.5L112 75.3" stroke="#071146" stroke-width="2" stroke-miterlimit="10" stroke-linecap="round" stroke-linejoin="round"/>
<path d="M107.4 83.8L102.2 75.5" stroke="#071146" stroke-width="2" stroke-miterlimit="10" stroke-linecap="round" stroke-linejoin="round"/>
<path d="M96 72.2L86.2 72.4" stroke="#071146" stroke-width="2" stroke-miterlimit="10" stroke-linecap="round" stroke-linejoin="round"/>
<path d="M103.2 86.2L86.5 77.2C85.3 76.5 84.8 75 85.5 73.7L92 61.7C92.7 60.5 94.2 60 95.5 60.7L112.2 69.7C113.4 70.4 113.9 71.9 113.2 73.2L106.7 85.2C106 86.4 104.5 86.8 103.2 86.2Z" stroke="#071146" stroke-width="2" stroke-miterlimit="10" stroke-linecap="round" stroke-linejoin="round"/>
<path d="M135.6 64.2L120.6 56.1C119.5 55.5 119.1 54.1 119.7 53L125.6 42.1C126.2 41 127.6 40.6 128.7 41.2L143.7 49.3C144.8 49.9 145.2 51.3 144.6 52.4L138.7 63.3C138.2 64.4 136.8 64.8 135.6 64.2Z" fill="white"/>
<path d="M123.2 41.7L129.4 51.6C130.1 52.7 131.4 53.4 132.7 53.4L144.4 53.2" stroke="#071146" stroke-width="2" stroke-miterlimit="10" stroke-linecap="round" stroke-linejoin="round"/>
<path d="M139.7 61.8L134.5 53.5" stroke="#071146" stroke-width="2" stroke-miterlimit="10" stroke-linecap="round" stroke-linejoin="round"/>
<path d="M128.3 50.2L118.5 50.4" stroke="#071146" stroke-width="2" stroke-miterlimit="10" stroke-linecap="round" stroke-linejoin="round"/>
<path d="M135.6 64.2L118.9 55.2C117.7 54.5 117.2 53 117.9 51.7L124.4 39.7C125.1 38.5 126.6 38 127.9 38.7L144.6 47.7C145.8 48.4 146.3 49.9 145.6 51.2L139.1 63.2C138.3 64.4 136.8 64.8 135.6 64.2Z" stroke="#071146" stroke-width="2" stroke-miterlimit="10" stroke-linecap="round" stroke-linejoin="round"/>
<path d="M215.8 74.7L200.8 66.6C199.7 66 199.3 64.6 199.9 63.5L205.8 52.6C206.4 51.5 207.8 51.1 208.9 51.7L223.9 59.8C225 60.4 225.4 61.8 224.8 62.9L218.9 73.8C218.3 74.9 216.9 75.3 215.8 74.7Z" fill="white"/>
<path d="M203.4 52.2L209.6 62.1C210.3 63.2 211.6 63.9 212.9 63.9L224.6 63.7" stroke="#071146" stroke-width="2" stroke-miterlimit="10" stroke-linecap="round" stroke-linejoin="round"/>
<path d="M219.9 72.3L214.7 64" stroke="#071146" stroke-width="2" stroke-miterlimit="10" stroke-linecap="round" stroke-linejoin="round"/>
<path d="M208.5 60.7L198.7 60.8" stroke="#071146" stroke-width="2" stroke-miterlimit="10" stroke-linecap="round" stroke-linejoin="round"/>
<path d="M215.7 74.6L199 65.6C197.8 64.9 197.3 63.4 198 62.1L204.5 50.1C205.2 48.9 206.7 48.4 208 49.1L224.7 58.1C225.9 58.8 226.4 60.3 225.7 61.6L219.2 73.6C218.5 74.8 217 75.3 215.7 74.6Z" stroke="#071146" stroke-width="2" stroke-miterlimit="10" stroke-linecap="round" stroke-linejoin="round"/>
<path d="M184.5 57.7L170.3 67.2C169.2 67.9 167.8 67.6 167.1 66.6L160.3 56.3C159.6 55.2 159.9 53.8 160.9 53.1L175.1 43.6C176.2 42.9 177.6 43.2 178.3 44.2L185.1 54.5C185.8 55.5 185.5 57 184.5 57.7Z" fill="white"/>
<path d="M158.8 58.1L170.4 57.2C171.7 57.1 172.9 56.3 173.6 55.1L178.9 44.7" stroke="#071146" stroke-width="2" stroke-miterlimit="10" stroke-linecap="round" stroke-linejoin="round"/>
<path d="M184.3 52.9L174.5 53.7" stroke="#071146" stroke-width="2" stroke-miterlimit="10" stroke-linecap="round" stroke-linejoin="round"/>
<path d="M168.7 57.5L164.2 66.3" stroke="#071146" stroke-width="2" stroke-miterlimit="10" stroke-linecap="round" stroke-linejoin="round"/>
<path d="M184.4 57.7L168.6 68.2C167.4 69 165.8 68.7 165.1 67.5L157.6 56.2C156.8 55 157.1 53.4 158.3 52.7L174 42.2C175.2 41.4 176.8 41.7 177.5 42.9L185 54.2C185.9 55.4 185.6 56.9 184.4 57.7Z" stroke="#071146" stroke-width="2" stroke-miterlimit="10" stroke-linecap="round" stroke-linejoin="round"/>
<path d="M194.4 83.4H138.4C136.6 83.4 135.1 81.9 135.1 80.1V79.2C135.1 77.4 136.6 75.9 138.4 75.9H194.4C196.2 75.9 197.7 77.4 197.7 79.2V80.1C197.7 81.9 196.2 83.4 194.4 83.4Z" stroke="#071146" stroke-width="2" stroke-miterlimit="10" stroke-linecap="round" stroke-linejoin="round"/>
<path d="M138.4 83.4L161.2 103.8V121.1L171.5 117.6V104L194.4 83.4" stroke="#071146" stroke-width="2" stroke-miterlimit="10" stroke-linecap="round" stroke-linejoin="round"/>
<path d="M478.7 186.5H487.4C494.6 186.5 500.5 192.5 500.5 199.9C500.5 207.3 494.6 213.3 487.4 213.3H464.3H385.6C379.4 213.3 374.3 207.9 374.3 201.2V155.4V151H336.2C329.7 151 324.4 145.6 324.4 138.9V48.3L358.8 10.6H417.8C424.3 10.6 427.6 16 427.6 22.7V49.4L475.6 134V186.6L478.7 186.5Z" fill="white"/>
<path d="M371.1 150.1H332C325.4 150.1 319.9 144.7 319.9 138V47.4" stroke="#071146" stroke-width="2" stroke-miterlimit="10" stroke-linecap="round" stroke-linejoin="round"/>
<path d="M355.2 9.8H415.8C422.4 9.8 427.9 15.2 427.9 21.9V36.5" stroke="#071146" stroke-width="2" stroke-miterlimit="10" stroke-linecap="round" stroke-linejoin="round"/>
<path d="M475.1 133.1V185.6" stroke="#071146" stroke-width="2" stroke-miterlimit="10" stroke-linecap="round" stroke-linejoin="round"/>
<path d="M357.7 11.7V37.3C357.7 43.9 352.3 49.4 345.6 49.4H322.3L357.7 11.7Z" fill="#FEDB8F"/>
<path d="M391.7 212.5C398.6 212.5 404.3 206.5 404.3 199.1C404.3 191.7 398.7 185.7 391.7 185.7H487.9C494.8 185.7 500.5 191.7 500.5 199.1C500.5 206.5 494.9 212.5 487.9 212.5H465.7" fill="#FEDB8F"/>
<path d="M484.894 121.638C503.528 103.25 503.728 73.2384 485.34 54.6047C466.952 35.971 436.941 35.7715 418.307 54.1592C399.673 72.5468 399.474 102.559 417.861 121.192C436.249 139.826 466.261 140.025 484.894 121.638Z" fill="white"/>
<path d="M490 119.3L495.9 125.2L483.1 137.8L477.3 131.9" stroke="#071146" stroke-width="2" stroke-miterlimit="10" stroke-linecap="round" stroke-linejoin="round"/>
<path d="M533.1 183.1L485.8 135.2L492.6 128.5L539.9 176.4C541.8 178.3 541.7 181.3 539.9 183.2C537.9 185 534.9 184.9 533.1 183.1Z" stroke="#071146" stroke-width="2" stroke-miterlimit="10" stroke-linecap="round" stroke-linejoin="round"/>
<path d="M357.8 72.1H394.6" stroke="#071146" stroke-width="2" stroke-miterlimit="10" stroke-linecap="round" stroke-linejoin="round"/>
<path d="M331.9 171C332.6 171 333.4 171.1 334.1 171.3C334.4 171.4 334.6 171.6 334.7 171.9L334.9 173.4C335 174.1 335.6 174.6 336.3 174.6C336.5 174.6 336.7 174.6 336.9 174.5L338.3 173.9C338.6 173.8 338.9 173.8 339.1 174.1C340.1 175.2 340.9 176.5 341.3 177.9C341.4 178.2 341.3 178.5 341 178.7L339.8 179.6C339.4 179.9 339.2 180.3 339.2 180.7C339.2 181.1 339.4 181.6 339.8 181.8L341 182.7C341.3 182.9 341.4 183.2 341.3 183.5C340.9 184.9 340.1 186.2 339.1 187.3C338.9 187.5 338.5 187.6 338.3 187.5L336.9 186.9C336.5 186.7 336 186.7 335.7 187C335.3 187.2 335.1 187.6 335 188L334.8 189.5C334.8 189.8 334.5 190.1 334.2 190.1C332.8 190.4 331.2 190.4 329.8 190.1C329.5 190 329.3 189.8 329.2 189.5L329 188C329 187.6 328.7 187.2 328.3 187C327.9 186.8 327.5 186.8 327.1 186.9L325.7 187.5C325.4 187.6 325.1 187.6 324.9 187.3C323.9 186.2 323.1 184.9 322.7 183.5C322.6 183.2 322.7 182.9 323 182.7L324.2 181.8C324.6 181.5 324.8 181.1 324.8 180.7C324.8 180.3 324.6 179.8 324.2 179.6L323 178.7C322.7 178.5 322.6 178.2 322.7 177.9C323.1 176.5 323.9 175.2 324.9 174.1C325.1 173.9 325.5 173.8 325.7 173.9L327.1 174.5C327.5 174.7 328 174.7 328.3 174.4C328.7 174.2 328.9 173.8 329 173.4L329.2 171.9C329.2 171.6 329.5 171.3 329.8 171.3C330.4 171.1 331.2 171 331.9 171ZM331.9 172.5C331.4 172.5 331 172.5 330.5 172.6L330.4 173.6C330.3 174.5 329.8 175.3 329 175.8C328.2 176.3 327.2 176.3 326.4 176L325.5 175.6C324.9 176.3 324.5 177.1 324.2 177.9L325 178.5C325.7 179 326.2 179.9 326.2 180.8C326.2 181.7 325.8 182.6 325 183.1L324.2 183.7C324.5 184.5 325 185.3 325.5 186L326.4 185.6C327.2 185.2 328.2 185.3 329 185.7C329.8 186.1 330.3 187 330.4 187.9L330.5 188.9C331.4 189.1 332.3 189.1 333.2 188.9L333.3 187.9C333.4 187 333.9 186.2 334.7 185.7C335.5 185.2 336.5 185.2 337.3 185.6L338.2 186C338.8 185.3 339.2 184.5 339.5 183.7L338.7 183.1C338 182.6 337.5 181.7 337.5 180.8C337.5 179.9 337.9 179 338.7 178.5L339.5 177.9C339.2 177.1 338.7 176.3 338.2 175.6L337.3 176C336.9 176.2 336.5 176.2 336.1 176.2C334.6 176.2 333.4 175.1 333.2 173.6L333.1 172.6C332.8 172.6 332.4 172.5 331.9 172.5ZM331.9 177C334 177 335.7 178.7 335.7 180.8C335.7 182.9 334 184.6 331.9 184.6C329.8 184.6 328.1 182.9 328.1 180.8C328.2 178.7 329.8 177 331.9 177ZM331.9 178.5C330.7 178.5 329.6 179.5 329.6 180.8C329.6 182.1 330.6 183.1 331.9 183.1C333.1 183.1 334.2 182.1 334.2 180.8C334.2 179.5 333.2 178.5 331.9 178.5Z" fill="white"/>
<path d="M533.2 86.2C533.9 86.2 534.7 86.3 535.4 86.5C535.7 86.6 535.9 86.8 536 87.1L536.2 88.6C536.3 89.3 536.9 89.8 537.6 89.8C537.8 89.8 538 89.8 538.2 89.7L539.6 89.1C539.9 89 540.2 89 540.4 89.3C541.4 90.4 542.2 91.7 542.6 93.1C542.7 93.4 542.6 93.7 542.3 93.9L541.1 94.8C540.7 95.1 540.5 95.5 540.5 95.9C540.5 96.3 540.7 96.8 541.1 97L542.3 97.9C542.6 98.1 542.7 98.4 542.6 98.7C542.2 100.1 541.4 101.4 540.4 102.5C540.2 102.7 539.8 102.8 539.6 102.7L538.2 102.1C537.8 101.9 537.3 101.9 537 102.2C536.6 102.4 536.4 102.8 536.3 103.2L536.1 104.7C536.1 105 535.8 105.3 535.5 105.3C534.1 105.6 532.5 105.6 531.1 105.3C530.8 105.2 530.6 105 530.5 104.7L530.3 103.2C530.3 102.8 530 102.4 529.6 102.2C529.2 102 528.8 102 528.4 102.1L527 102.7C526.7 102.8 526.4 102.8 526.2 102.5C525.2 101.4 524.4 100.1 524 98.7C523.9 98.4 524 98.1 524.3 97.9L525.5 97C525.9 96.7 526.1 96.3 526.1 95.9C526.1 95.5 525.9 95 525.5 94.8L524.3 93.9C524 93.7 523.9 93.4 524 93.1C524.4 91.7 525.2 90.4 526.2 89.3C526.4 89.1 526.8 89 527 89.1L528.4 89.7C528.8 89.9 529.3 89.9 529.6 89.6C530 89.4 530.2 89 530.3 88.6L530.5 87.1C530.5 86.8 530.8 86.5 531.1 86.5C531.7 86.3 532.5 86.3 533.2 86.2ZM533.2 87.7C532.7 87.7 532.3 87.7 531.8 87.8L531.7 88.8C531.6 89.7 531.1 90.5 530.3 91C529.5 91.5 528.5 91.5 527.7 91.2L526.8 90.8C526.2 91.5 525.8 92.3 525.5 93.1L526.3 93.7C527 94.2 527.5 95.1 527.5 96C527.5 96.9 527.1 97.8 526.3 98.3L525.5 98.9C525.8 99.7 526.3 100.5 526.8 101.2L527.7 100.8C528.5 100.4 529.5 100.5 530.3 100.9C531.1 101.4 531.6 102.2 531.7 103.1L531.8 104.1C532.7 104.3 533.6 104.3 534.5 104.1L534.6 103.1C534.7 102.2 535.2 101.4 536 100.9C536.8 100.4 537.8 100.4 538.6 100.8L539.5 101.2C540.1 100.5 540.5 99.7 540.8 98.9L540 98.3C539.3 97.8 538.8 96.9 538.8 96C538.8 95.1 539.2 94.2 540 93.7L540.8 93.1C540.5 92.3 540 91.5 539.5 90.8L538.6 91.2C538.2 91.4 537.8 91.4 537.4 91.4C535.9 91.4 534.7 90.3 534.5 88.8L534.4 87.8C534.1 87.8 533.7 87.7 533.2 87.7ZM533.2 92.2C535.3 92.2 537 93.9 537 96C537 98.1 535.3 99.8 533.2 99.8C531.1 99.8 529.4 98.1 529.4 96C529.5 93.9 531.1 92.2 533.2 92.2ZM533.2 93.7C532 93.7 530.9 94.7 530.9 96C530.9 97.3 531.9 98.3 533.2 98.3C534.4 98.3 535.5 97.3 535.5 96C535.5 94.7 534.5 93.7 533.2 93.7Z" fill="white"/>
<path d="M86.2 195.2C86.9 195.2 87.7 195.3 88.4 195.5C88.7 195.6 88.9 195.8 89 196.1L89.2 197.6C89.3 198.3 89.9 198.8 90.6 198.8C90.8 198.8 91 198.8 91.2 198.7L92.6 198.1C92.9 198 93.2 198 93.4 198.3C94.4 199.4 95.2 200.7 95.6 202.1C95.7 202.4 95.6 202.7 95.3 202.9L94.1 203.8C93.7 204.1 93.5 204.5 93.5 204.9C93.5 205.3 93.7 205.8 94.1 206L95.3 206.9C95.6 207.1 95.7 207.4 95.6 207.7C95.2 209.1 94.4 210.4 93.4 211.5C93.2 211.7 92.8 211.8 92.6 211.7L91.2 211.1C90.8 210.9 90.3 210.9 90 211.2C89.6 211.4 89.4 211.8 89.3 212.2L89.1 213.7C89.1 214 88.8 214.3 88.5 214.3C87.1 214.6 85.5 214.6 84.1 214.3C83.8 214.2 83.6 214 83.5 213.7L83.3 212.2C83.3 211.8 83 211.4 82.6 211.2C82.2 211 81.8 211 81.4 211.1L80 211.7C79.7 211.8 79.4 211.8 79.2 211.5C78.2 210.4 77.4 209.1 77 207.7C76.9 207.4 77 207.1 77.3 206.9L78.5 206C78.9 205.7 79.1 205.3 79.1 204.9C79.1 204.5 78.9 204 78.5 203.8L77.3 202.9C77 202.7 76.9 202.4 77 202.1C77.4 200.7 78.2 199.4 79.2 198.3C79.4 198.1 79.8 198 80 198.1L81.4 198.7C81.8 198.9 82.3 198.9 82.6 198.6C83 198.4 83.2 198 83.3 197.6L83.5 196.1C83.5 195.8 83.8 195.5 84.1 195.5C84.7 195.3 85.4 195.2 86.2 195.2ZM86.2 196.7C85.7 196.7 85.3 196.7 84.8 196.8L84.7 197.8C84.6 198.7 84.1 199.5 83.3 200C82.5 200.5 81.5 200.5 80.7 200.2L79.8 199.8C79.2 200.5 78.8 201.3 78.5 202.1L79.3 202.7C80 203.2 80.5 204.1 80.5 205C80.5 205.9 80.1 206.8 79.3 207.3L78.5 207.9C78.8 208.7 79.3 209.5 79.8 210.2L80.7 209.8C81.5 209.4 82.5 209.5 83.3 209.9C84.1 210.4 84.6 211.2 84.7 212.1L84.8 213.1C85.7 213.3 86.6 213.3 87.5 213.1L87.6 212.1C87.7 211.2 88.2 210.4 89 209.9C89.8 209.4 90.8 209.4 91.6 209.8L92.5 210.2C93.1 209.5 93.5 208.7 93.8 207.9L93 207.3C92.3 206.8 91.8 205.9 91.8 205C91.8 204.1 92.2 203.2 93 202.7L93.8 202.1C93.5 201.3 93 200.5 92.5 199.8L91.6 200.2C91.2 200.4 90.8 200.4 90.4 200.4C88.9 200.4 87.7 199.3 87.5 197.8L87.4 196.8C87.1 196.7 86.6 196.7 86.2 196.7ZM86.2 201.2C88.3 201.2 90 202.9 90 205C90 207.1 88.3 208.8 86.2 208.8C84.1 208.8 82.4 207.1 82.4 205C82.4 202.8 84.1 201.2 86.2 201.2ZM86.2 202.7C85 202.7 83.9 203.7 83.9 205C83.9 206.3 84.9 207.3 86.2 207.3C87.4 207.3 88.5 206.3 88.5 205C88.5 203.7 87.4 202.7 86.2 202.7Z" fill="white"/>
<path d="M484.605 125.504C505.833 104.556 506.06 70.3657 485.112 49.1374C464.165 27.9091 429.974 27.6818 408.746 48.6298C387.517 69.5777 387.29 103.768 408.238 124.997C429.186 146.225 463.377 146.452 484.605 125.504Z" stroke="#071146" stroke-width="2" stroke-miterlimit="10" stroke-linecap="round" stroke-linejoin="round"/>
<path d="M479.969 120.806C498.603 102.419 498.802 72.407 480.415 53.7732C462.027 35.1395 432.015 34.94 413.382 53.3277C394.748 71.7153 394.548 101.727 412.936 120.361C431.324 138.994 461.335 139.194 479.969 120.806Z" stroke="#071146" stroke-width="2" stroke-miterlimit="10" stroke-linecap="round" stroke-linejoin="round"/>
<path d="M444.4 116.9C443.1 116.9 441.9 116.4 441 115.5L413.8 89.8C411.8 87.9 411.7 84.7 413.6 82.7C415.5 80.7 418.7 80.6 420.7 82.5L443.7 104.3L472 65.3C473.6 63.1 476.7 62.6 479 64.2C481.2 65.8 481.7 68.9 480.1 71.2L448.4 114.9C447.6 116.1 446.2 116.8 444.8 116.9C444.7 116.9 444.6 116.9 444.4 116.9Z" fill="#95E196"/>
<path d="M427 75.1C430.203 75.1 432.8 72.5033 432.8 69.3C432.8 66.0968 430.203 63.5 427 63.5C423.797 63.5 421.2 66.0968 421.2 69.3C421.2 72.5033 423.797 75.1 427 75.1Z" stroke="#071146" stroke-width="2" stroke-miterlimit="10" stroke-linecap="round" stroke-linejoin="round"/>
<path d="M440.5 69.3H474" stroke="#071146" stroke-width="2" stroke-miterlimit="10" stroke-linecap="round" stroke-linejoin="round"/>
<path d="M427 92.9C430.203 92.9 432.8 90.3033 432.8 87.1C432.8 83.8967 430.203 81.3 427 81.3C423.797 81.3 421.2 83.8967 421.2 87.1C421.2 90.3033 423.797 92.9 427 92.9Z" stroke="#071146" stroke-width="2" stroke-miterlimit="10" stroke-linecap="round" stroke-linejoin="round"/>
<path d="M440.5 87.1H474" stroke="#071146" stroke-width="2" stroke-miterlimit="10" stroke-linecap="round" stroke-linejoin="round"/>
<path d="M427 110.7C430.203 110.7 432.8 108.103 432.8 104.9C432.8 101.697 430.203 99.1 427 99.1C423.797 99.1 421.2 101.697 421.2 104.9C421.2 108.103 423.797 110.7 427 110.7Z" stroke="#071146" stroke-width="2" stroke-miterlimit="10" stroke-linecap="round" stroke-linejoin="round"/>
<path d="M440.5 104.9H474" stroke="#071146" stroke-width="2" stroke-miterlimit="10" stroke-linecap="round" stroke-linejoin="round"/>
<path d="M388.7 152.8C390.799 152.8 392.5 151.099 392.5 149C392.5 146.901 390.799 145.2 388.7 145.2C386.601 145.2 384.9 146.901 384.9 149C384.9 151.099 386.601 152.8 388.7 152.8Z" stroke="#071146" stroke-width="2" stroke-miterlimit="10" stroke-linecap="round" stroke-linejoin="round"/>
<path d="M397.7 149H420" stroke="#071146" stroke-width="2" stroke-miterlimit="10" stroke-linecap="round" stroke-linejoin="round"/>
<path d="M370.1 25.3H416.2" stroke="#071146" stroke-width="2" stroke-miterlimit="10" stroke-linecap="round" stroke-linejoin="round"/>
<path d="M370.1 35.2H416.2" stroke="#071146" stroke-width="2" stroke-miterlimit="10" stroke-linecap="round" stroke-linejoin="round"/>
<path d="M370.1 45.1H412.2" stroke="#071146" stroke-width="2" stroke-miterlimit="10" stroke-linecap="round" stroke-linejoin="round"/>
<path d="M370.1 55H402.2" stroke="#071146" stroke-width="2" stroke-miterlimit="10" stroke-linecap="round" stroke-linejoin="round"/>
<path d="M388.7 164.6C390.799 164.6 392.5 162.899 392.5 160.8C392.5 158.701 390.799 157 388.7 157C386.601 157 384.9 158.701 384.9 160.8C384.9 162.899 386.601 164.6 388.7 164.6Z" stroke="#071146" stroke-width="2" stroke-miterlimit="10" stroke-linecap="round" stroke-linejoin="round"/>
<path d="M397.7 160.8H420" stroke="#071146" stroke-width="2" stroke-miterlimit="10" stroke-linecap="round" stroke-linejoin="round"/>
<path d="M388.7 176.5C390.799 176.5 392.5 174.799 392.5 172.7C392.5 170.601 390.799 168.9 388.7 168.9C386.601 168.9 384.9 170.601 384.9 172.7C384.9 174.799 386.601 176.5 388.7 176.5Z" stroke="#071146" stroke-width="2" stroke-miterlimit="10" stroke-linecap="round" stroke-linejoin="round"/>
<path d="M388.7 112.4C390.799 112.4 392.5 110.699 392.5 108.6C392.5 106.501 390.799 104.8 388.7 104.8C386.601 104.8 384.9 106.501 384.9 108.6C384.9 110.699 386.601 112.4 388.7 112.4Z" stroke="#95E196" stroke-width="2" stroke-miterlimit="10"/>
<path d="M388.7 124.3C390.799 124.3 392.5 122.599 392.5 120.5C392.5 118.401 390.799 116.7 388.7 116.7C386.601 116.7 384.9 118.401 384.9 120.5C384.9 122.599 386.601 124.3 388.7 124.3Z" stroke="#95E196" stroke-width="2" stroke-miterlimit="10"/>
<path d="M388.7 136.1C390.799 136.1 392.5 134.399 392.5 132.3C392.5 130.201 390.799 128.5 388.7 128.5C386.601 128.5 384.9 130.201 384.9 132.3C384.9 134.399 386.601 136.1 388.7 136.1Z" stroke="#95E196" stroke-width="2" stroke-miterlimit="10"/>
<path d="M397.7 172.7H420" stroke="#071146" stroke-width="2" stroke-miterlimit="10" stroke-linecap="round" stroke-linejoin="round"/>
<path d="M433.6 152.8C435.699 152.8 437.4 151.099 437.4 149C437.4 146.901 435.699 145.2 433.6 145.2C431.501 145.2 429.8 146.901 429.8 149C429.8 151.099 431.501 152.8 433.6 152.8Z" stroke="#071146" stroke-width="2" stroke-miterlimit="10" stroke-linecap="round" stroke-linejoin="round"/>
<path d="M442.6 149H464.9" stroke="#071146" stroke-width="2" stroke-miterlimit="10" stroke-linecap="round" stroke-linejoin="round"/>
<path d="M433.6 164.6C435.699 164.6 437.4 162.899 437.4 160.8C437.4 158.701 435.699 157 433.6 157C431.501 157 429.8 158.701 429.8 160.8C429.8 162.899 431.501 164.6 433.6 164.6Z" stroke="#071146" stroke-width="2" stroke-miterlimit="10" stroke-linecap="round" stroke-linejoin="round"/>
<path d="M442.6 160.8H464.9" stroke="#071146" stroke-width="2" stroke-miterlimit="10" stroke-linecap="round" stroke-linejoin="round"/>
<path d="M433.6 176.5C435.699 176.5 437.4 174.799 437.4 172.7C437.4 170.601 435.699 168.9 433.6 168.9C431.501 168.9 429.8 170.601 429.8 172.7C429.8 174.799 431.501 176.5 433.6 176.5Z" stroke="#071146" stroke-width="2" stroke-miterlimit="10" stroke-linecap="round" stroke-linejoin="round"/>
<path d="M442.6 172.7H464.9" stroke="#071146" stroke-width="2" stroke-miterlimit="10" stroke-linecap="round" stroke-linejoin="round"/>
<path d="M355.2 9.8V35.4C355.2 42 349.8 47.5 343.1 47.5H319.8L355.2 9.8Z" stroke="#071146" stroke-width="2" stroke-miterlimit="10" stroke-linecap="round" stroke-linejoin="round"/>
<path d="M361.6 72.3C354.3 72.3 348.4 78.2 348.4 85.5L348.9 137.1C348.9 144.4 343 150.3 335.7 150.3H374.8V110V85.5C374.8 78.2 368.9 72.3 361.6 72.3Z" fill="#FEDB8F"/>
<path d="M384.5 212.5C391.9 212.5 397.9 206.5 397.9 199.1C397.9 191.7 391.9 185.7 384.5 185.7H487.1C494.5 185.7 500.5 191.7 500.5 199.1C500.5 206.5 494.5 212.5 487.1 212.5H463.4H382.7C376.3 212.5 371.1 207.1 371.1 200.4V109.8V85.3C371.1 78 365.2 72.1 357.9 72.1C350.6 72.1 344.7 78 344.7 85.3L345.2 136.9C345.2 144.2 339.3 150.1 332 150.1" stroke="#071146" stroke-width="2" stroke-miterlimit="10" stroke-linecap="round" stroke-linejoin="round"/>
</g>
<defs>
<clipPath id="clip0">
<rect width="586" height="248" fill="white"/>
</clipPath>
</defs>
</svg>
