<svg width="585" height="273" viewBox="0 0 585 273" fill="none" xmlns="http://www.w3.org/2000/svg">
<g clip-path="url(#clip0)">
<path d="M585 59H4.2C1.9 59 0 61.1166 0 63.6788V268.321C0 270.883 1.9 273 4.2 273H585V59Z" fill="#FEDB8F"/>
<path d="M36.2001 207.4C35.9001 207.1 35.8 206.8 35.8 206.5C35.8 206.1 35.9001 205.8 36.2001 205.6C36.5001 205.3 36.8 205.2 37.1 205.2C37.5 205.2 37.8 205.3 38 205.6C38.3 205.9 38.4001 206.2 38.4001 206.5C38.4001 206.9 38.3 207.2 38 207.4C37.7 207.7 37.4 207.8 37.1 207.8C36.7 207.8 36.4001 207.7 36.2001 207.4Z" fill="white"/>
<path d="M43 207.2C42.1 206.7 41.5 206 41 205.1C40.5 204.2 40.3 203.1 40.3 202C40.3 200.9 40.5 199.8 41 198.9C41.5 198 42.1 197.3 43 196.8C43.9 196.3 44.8001 196 45.9001 196C46.8001 196 47.6 196.2 48.3 196.6C49 197 49.6 197.6 50.2001 198.3L49 199.2C48.2 198.1 47.2001 197.5 45.9001 197.5C45.1001 197.5 44.5001 197.7 43.9001 198.1C43.3001 198.5 42.8 199 42.5 199.7C42.2 200.4 42 201.2 42 202C42 202.9 42.2 203.7 42.5 204.3C42.8 205 43.3001 205.5 43.9001 205.9C44.5001 206.3 45.2001 206.5 45.9001 206.5C46.7001 206.5 47.3 206.4 47.8 206.1C48.3 205.8 48.7001 205.4 49.2001 204.9L50.5 205.8C50 206.5 49.3 207 48.5 207.4C47.7 207.8 46.9 208 46 208C44.8 208 43.9 207.7 43 207.2Z" fill="white"/>
<path d="M53.7001 207.3C52.9001 206.8 52.2 206.2 51.8 205.3L53.3 204.6C53.9 205.9 55.1 206.5 56.8 206.5C57.6 206.5 58.3001 206.3 58.9001 206C59.4001 205.7 59.7001 205.2 59.7001 204.6C59.7001 203.9 59.5 203.4 59 203.1C58.6 202.8 57.8001 202.6 56.7001 202.5C55.2001 202.4 54.0001 202 53.4001 201.5C52.8001 201 52.4001 200.2 52.4001 199.3C52.4001 198.3 52.8 197.4 53.5 196.9C54.3 196.3 55.3 196 56.6 196C58.8 196 60.4001 196.9 61.2001 198.7L59.7001 199.4C59.4001 198.8 59 198.3 58.5 198C58 197.7 57.3 197.5 56.5 197.5C55.7 197.5 55 197.7 54.6 198C54.2 198.3 53.9001 198.7 53.9001 199.3C53.9001 199.8 54.1 200.3 54.6 200.6C55.1 200.9 55.9 201.1 57.1 201.2C58.5 201.3 59.6 201.7 60.3 202.3C61 202.9 61.4001 203.6 61.4001 204.6C61.4001 205.4 61.2001 206 60.7001 206.5C60.2001 207 59.7 207.4 59 207.7C58.3 208 57.5001 208.1 56.7001 208.1C55.4001 208 54.5001 207.8 53.7001 207.3Z" fill="white"/>
<path d="M71.1 196.3H72.8001L68.7 207.6H66.9001L62.8 196.3H64.5L67.8001 205.8L71.1 196.3Z" fill="white"/>
<path d="M140.6 238.9C140.3 238.8 140 238.5 139.9 238.2C139.8 237.9 139.7 237.5 139.9 237.2C140 236.9 140.2 236.6 140.6 236.5C140.9 236.3 141.3 236.3 141.6 236.5C141.9 236.7 142.2 236.9 142.3 237.2C142.4 237.5 142.5 237.9 142.3 238.2C142.2 238.5 141.9 238.8 141.6 238.9C141.2 239.1 140.9 239.1 140.6 238.9Z" fill="white"/>
<path d="M148.4 223.7C149.4 223.8 150.3 224.2 151.1 224.8C151.9 225.4 152.6 226.3 153 227.4C153.5 228.5 153.7 229.5 153.6 230.5C153.5 231.5 153.2 232.4 152.7 233.3C152.1 234.1 151.4 234.7 150.4 235.2C149.7 235.5 148.9 235.7 148.1 235.6C147.3 235.6 146.6 235.3 145.9 234.9L148.6 240.8L147.1 241.5L140.5 226.8L142 226.1L142.7 227.6C142.9 226.8 143.2 226.1 143.6 225.5C144 224.9 144.7 224.4 145.4 224.1C146.4 223.7 147.4 223.6 148.4 223.7ZM151.4 232.4C151.8 231.8 152 231.1 152 230.4C152 229.6 151.9 228.9 151.5 228.1C151.1 227.3 150.7 226.6 150.1 226.2C149.5 225.7 148.9 225.4 148.2 225.3C147.5 225.2 146.8 225.3 146.1 225.6C145.4 225.9 144.8 226.4 144.5 227C144.1 227.6 143.9 228.3 143.9 229.1C143.9 229.9 144 230.7 144.4 231.4C144.8 232.2 145.2 232.8 145.8 233.3C146.4 233.8 147 234.1 147.8 234.2C148.6 234.3 149.2 234.2 149.9 233.9C150.5 233.5 151 233 151.4 232.4Z" fill="white"/>
<path d="M158.3 230.8C157.4 230.7 156.5 230.4 155.8 229.8L156.8 228.5C157.9 229.4 159.2 229.5 160.8 228.8C161.6 228.5 162.1 228 162.5 227.5C162.9 227 162.9 226.5 162.7 225.9C162.4 225.3 162 224.9 161.5 224.8C161 224.7 160.2 224.8 159.1 225.2C157.6 225.7 156.5 225.9 155.6 225.6C154.8 225.4 154.1 224.8 153.8 224C153.4 223 153.4 222.1 153.8 221.3C154.3 220.5 155.1 219.8 156.3 219.2C158.3 218.3 160.1 218.5 161.6 219.7L160.6 221C160.1 220.5 159.5 220.3 158.9 220.2C158.3 220.1 157.6 220.3 156.9 220.6C156.1 220.9 155.6 221.3 155.3 221.8C155 222.3 155 222.7 155.2 223.3C155.4 223.8 155.8 224.1 156.4 224.2C157 224.3 157.8 224.2 158.9 223.8C160.3 223.3 161.4 223.2 162.2 223.4C163.1 223.6 163.7 224.2 164.1 225C164.4 225.7 164.5 226.4 164.3 227C164.1 227.7 163.8 228.3 163.2 228.8C162.7 229.3 162 229.8 161.2 230.1C160.3 230.7 159.3 230.9 158.3 230.8Z" fill="white"/>
<path d="M168.2 226.7L164.2 217.8L162.4 218.6L161.8 217.2L163.6 216.4L162.1 213L163.6 212.3L165.1 215.7L167.5 214.6L168.1 216L165.7 217.1L169.7 226L168.2 226.7Z" fill="white"/>
<path d="M226.3 146.2C226.1 145.9 226.1 145.5 226.3 145.2C226.4 144.9 226.6 144.6 227 144.5C227.3 144.3 227.6 144.3 228 144.4C228.3 144.5 228.6 144.7 228.8 145.1C229 145.5 229 145.8 228.9 146.1C228.8 146.4 228.6 146.7 228.2 146.8C227.9 147 227.5 147 227.2 146.9C226.7 146.7 226.4 146.5 226.3 146.2Z" fill="white"/>
<path d="M244.5 140.8L240.7 151.5L239.2 151L239.8 149.4C239.1 149.9 238.4 150.1 237.7 150.3C236.9 150.4 236.2 150.3 235.4 150.1C234.4 149.7 233.6 149.2 232.9 148.4C232.3 147.6 231.9 146.7 231.7 145.7C231.5 144.7 231.7 143.6 232.1 142.5C232.5 141.4 233.1 140.5 233.8 139.8C234.5 139.1 235.4 138.6 236.4 138.4C237.4 138.2 238.4 138.3 239.4 138.6C240.2 138.9 240.8 139.3 241.3 139.9C241.8 140.5 242.2 141.1 242.4 141.9L243 140.3L244.5 140.8ZM237.9 148.7C238.6 148.5 239.2 148.2 239.8 147.6C240.4 147 240.8 146.4 241.1 145.6C241.4 144.8 241.5 144 241.4 143.2C241.3 142.4 241 141.8 240.6 141.2C240.2 140.6 239.6 140.2 238.8 140C238.1 139.7 237.4 139.7 236.7 139.9C236 140.1 235.4 140.4 234.8 140.9C234.3 141.4 233.8 142.1 233.5 142.9C233.2 143.7 233.1 144.5 233.2 145.3C233.3 146.1 233.5 146.7 234 147.3C234.4 147.9 235 148.3 235.7 148.5C236.5 148.8 237.2 148.9 237.9 148.7Z" fill="white"/>
<path d="M245.6 152.8C245 152 244.6 151.1 244.4 150.1C244.3 149.1 244.4 148 244.8 146.9C245.2 145.8 245.8 144.9 246.5 144.2C247.3 143.5 248.1 143 249.1 142.8C250.1 142.6 251.1 142.7 252.1 143C253 143.3 253.7 143.8 254.2 144.4C254.7 145 255.1 145.7 255.4 146.6L253.9 147.1C253.5 145.8 252.8 144.9 251.6 144.5C250.9 144.2 250.2 144.2 249.5 144.4C248.8 144.6 248.2 144.9 247.6 145.5C247.1 146 246.6 146.7 246.3 147.5C246 148.3 245.9 149.1 246 149.9C246.1 150.7 246.4 151.3 246.8 151.9C247.2 152.5 247.8 152.9 248.5 153.1C249.2 153.4 249.9 153.4 250.4 153.4C250.9 153.4 251.5 153.1 252.1 152.7L253 154C252.3 154.4 251.5 154.7 250.6 154.8C249.7 154.9 248.9 154.8 248 154.5C247.1 154.1 246.2 153.5 245.6 152.8Z" fill="white"/>
<path d="M265.3 148.5C265.9 149.2 266.3 150.1 266.4 151.1C266.6 152.1 266.5 153.1 266.1 154.1C266 154.4 265.9 154.6 265.8 154.8L257 151.7C256.7 152.8 256.7 153.9 257.1 154.9C257.5 155.9 258.2 156.6 259.4 157C260.3 157.3 261.1 157.4 261.8 157.3C262.5 157.2 263.2 156.9 263.7 156.4L264.6 157.7C263.8 158.3 262.9 158.7 262 158.9C261 159.1 260 158.9 258.8 158.5C257.8 158.1 256.9 157.6 256.3 156.8C255.7 156 255.3 155.1 255.1 154.1C255 153.1 255.1 152 255.5 150.9C255.9 149.8 256.5 148.9 257.2 148.2C257.9 147.5 258.8 147 259.8 146.8C260.8 146.6 261.8 146.7 262.8 147C263.9 147.3 264.7 147.8 265.3 148.5ZM264.8 152.9C265 151.7 265 150.8 264.6 150C264.2 149.2 263.5 148.7 262.5 148.3C261.5 148 260.6 148 259.7 148.4C258.8 148.8 258.2 149.5 257.7 150.4L264.8 152.9Z" fill="white"/>
<path d="M233.9 42.1L302.9 80.5" stroke="#071146" stroke-width="2" stroke-miterlimit="10" stroke-linecap="round" stroke-linejoin="round"/>
<path d="M154.9 142.4L302.9 117.7" stroke="#071146" stroke-width="2" stroke-miterlimit="10" stroke-linecap="round" stroke-linejoin="round"/>
<path d="M252.3 193.7L302.9 166.2" stroke="#071146" stroke-width="2" stroke-miterlimit="10" stroke-linecap="round" stroke-linejoin="round"/>
<path d="M544.9 166.2H307.8V57.7C307.8 51.8 312.6 47 318.5 47H534.2C540.1 47 544.9 51.8 544.9 57.7V166.2Z" fill="white"/>
<path d="M302.9 166.2H544.9" stroke="#071146" stroke-width="2" stroke-miterlimit="10" stroke-linecap="round" stroke-linejoin="round"/>
<path d="M424.8 182C427.009 182 428.8 180.209 428.8 178C428.8 175.791 427.009 174 424.8 174C422.591 174 420.8 175.791 420.8 178C420.8 180.209 422.591 182 424.8 182Z" stroke="#071146" stroke-width="2" stroke-miterlimit="10" stroke-linecap="round" stroke-linejoin="round"/>
<path d="M445 189.8H403.7V225.4H445V189.8Z" stroke="#071146" stroke-width="2" stroke-miterlimit="10" stroke-linecap="round" stroke-linejoin="round"/>
<path d="M456.7 225.4H392.4C391.1 225.4 389.9 226.5 389.9 227.9V228.2C389.9 229.5 391 230.7 392.4 230.7H456.7C458 230.7 459.2 229.6 459.2 228.2V227.9C459.2 226.5 458.1 225.4 456.7 225.4Z" stroke="#071146" stroke-width="2" stroke-miterlimit="10" stroke-linecap="round" stroke-linejoin="round"/>
<path d="M391.3 141.5H361.6C355.2 141.5 349.9 136.3 349.9 129.8V89C349.9 82.6 355.1 77.3 361.6 77.3H391.3C397.7 77.3 403 82.5 403 89V129.8C402.9 136.2 397.7 141.5 391.3 141.5Z" fill="#B3C1F4"/>
<path d="M356.2 71.7H386.4C392.8 71.7 398.1 76.9 398.1 83.4V124.2C398.1 130.6 392.9 135.9 386.4 135.9H356.7C350.3 135.9 345 130.7 345 124.2V83.4" stroke="#071146" stroke-width="2" stroke-miterlimit="10" stroke-linecap="round" stroke-linejoin="round"/>
<path d="M356.2 71.7V83.4H345L356.2 71.7Z" stroke="#071146" stroke-width="2" stroke-miterlimit="10" stroke-linecap="round" stroke-linejoin="round"/>
<path d="M532.9 189.8H314.9C308.3 189.8 302.9 184.4 302.9 177.8V54.5C302.9 47.9 308.3 42.5 314.9 42.5H532.9C539.5 42.5 544.9 47.9 544.9 54.5V177.8C544.9 184.4 539.5 189.8 532.9 189.8Z" stroke="#071146" stroke-width="2" stroke-miterlimit="10" stroke-linecap="round" stroke-linejoin="round"/>
<path d="M415.9 125.3H378.9C376.1 125.3 373.9 123 373.9 120.3V112C373.9 109.2 376.2 107 378.9 107H415.9C418.7 107 420.9 109.3 420.9 112V120.3C420.9 123 418.7 125.3 415.9 125.3Z" fill="white"/>
<path d="M413.6 122H376.6C373.8 122 371.6 119.7 371.6 117V108.7C371.6 105.9 373.9 103.7 376.6 103.7H413.6C416.4 103.7 418.6 106 418.6 108.7V117C418.6 119.8 416.3 122 413.6 122Z" stroke="#071146" stroke-width="2" stroke-miterlimit="10" stroke-linecap="round" stroke-linejoin="round"/>
<path d="M389.9 117.7L387.6 113.7H385.8V117.7H384.8V108.6H387.9C388.5 108.6 388.9 108.7 389.4 108.9C389.9 109.1 390.1 109.4 390.4 109.8C390.6 110.2 390.7 110.6 390.7 111.1C390.7 111.7 390.5 112.2 390.2 112.7C389.8 113.1 389.3 113.4 388.7 113.6L391.1 117.7H389.9ZM385.7 112.9H387.6C388.2 112.9 388.6 112.7 389 112.4C389.4 112.1 389.5 111.7 389.5 111.2C389.5 110.7 389.3 110.3 389 109.9C388.7 109.5 388.2 109.4 387.6 109.4H385.7V112.9Z" fill="#071146"/>
<path d="M398.2 117.7L397.3 115.1H393.5L392.7 117.7H391.7L394.9 108.6H395.8L399.1 117.7H398.2ZM393.8 114.3H397L395.4 109.9L393.8 114.3Z" fill="#071146"/>
<path d="M405.5 117.7L403.2 113.7H401.4V117.7H400.4V108.6H403.5C404.1 108.6 404.5 108.7 405 108.9C405.5 109.1 405.7 109.4 406 109.8C406.2 110.2 406.3 110.6 406.3 111.1C406.3 111.7 406.1 112.2 405.8 112.7C405.4 113.1 404.9 113.4 404.3 113.6L406.7 117.7H405.5ZM401.4 112.9H403.3C403.9 112.9 404.3 112.7 404.7 112.4C405.1 112.1 405.2 111.7 405.2 111.2C405.2 110.7 405 110.3 404.7 109.9C404.4 109.5 403.9 109.4 403.3 109.4H401.4V112.9Z" fill="#071146"/>
<path d="M491.9 141.5H462.2C455.8 141.5 450.5 136.3 450.5 129.8V89C450.5 82.6 455.7 77.3 462.2 77.3H491.9C498.3 77.3 503.6 82.5 503.6 89V129.8C503.6 136.2 498.3 141.5 491.9 141.5Z" fill="#FCAA90"/>
<path d="M492.7 116.1H450.7C447.7 116.1 445.2 118.6 445.2 121.6V124.3C445.2 127.3 447.7 129.8 450.7 129.8H492.7C495.7 129.8 498.2 127.3 498.2 124.3V121.6C498.2 118.6 495.7 116.1 492.7 116.1Z" stroke="#071146" stroke-width="2" stroke-miterlimit="10" stroke-linecap="round" stroke-linejoin="round"/>
<path d="M492.7 96.8H450.7C447.7 96.8 445.2 99.3 445.2 102.3V105C445.2 108 447.7 110.5 450.7 110.5H492.7C495.7 110.5 498.2 108 498.2 105V102.3C498.2 99.3 495.7 96.8 492.7 96.8Z" stroke="#071146" stroke-width="2" stroke-miterlimit="10" stroke-linecap="round" stroke-linejoin="round"/>
<path d="M492.7 77.5H450.7C447.7 77.5 445.2 80 445.2 83V85.7C445.2 88.7 447.7 91.2 450.7 91.2H492.7C495.7 91.2 498.2 88.7 498.2 85.7V83C498.2 80 495.7 77.5 492.7 77.5Z" stroke="#071146" stroke-width="2" stroke-miterlimit="10" stroke-linecap="round" stroke-linejoin="round"/>
<path d="M466.4 132.1V76.2C466.4 73.7 468.4 71.7 470.9 71.7H472.6C475.1 71.7 477.1 73.7 477.1 76.2V132.1C477.1 134.6 475.1 136.6 472.6 136.6H470.9C468.4 136.6 466.4 134.6 466.4 132.1Z" fill="white" stroke="#071146" stroke-width="2" stroke-miterlimit="10" stroke-linecap="round" stroke-linejoin="round"/>
<path d="M474.2 101H468.9V106.3H474.2V101Z" fill="white" stroke="#071146" stroke-width="2" stroke-miterlimit="10" stroke-linecap="round" stroke-linejoin="round"/>
<path d="M296.6 231C296.4 230.7 296.4 230.3 296.6 230C296.7 229.7 296.9 229.4 297.3 229.3C297.6 229.1 297.9 229.1 298.3 229.2C298.6 229.3 298.9 229.5 299.1 229.9C299.3 230.3 299.3 230.6 299.2 230.9C299.1 231.2 298.9 231.5 298.5 231.6C298.2 231.8 297.8 231.8 297.5 231.7C296.9 231.5 296.7 231.3 296.6 231Z" fill="white"/>
<path d="M314.8 225.6L311.2 235.8C310.9 236.8 310.4 237.5 309.7 238.2C309 238.8 308.3 239.2 307.4 239.4C306.5 239.6 305.6 239.5 304.7 239.2L300.3 237.6L300.8 236.2L305.2 237.8C306.1 238.1 307 238.1 307.8 237.6C308.6 237.1 309.2 236.4 309.6 235.4L310 234.2C309.3 234.7 308.6 234.9 307.9 235.1C307.1 235.2 306.4 235.1 305.6 234.9C304.6 234.5 303.8 234 303.1 233.2C302.5 232.4 302.1 231.5 301.9 230.5C301.7 229.5 301.9 228.4 302.3 227.3C302.7 226.2 303.3 225.3 304 224.6C304.7 223.9 305.6 223.4 306.6 223.2C307.6 223 308.6 223.1 309.6 223.4C310.4 223.7 311 224.1 311.5 224.7C312 225.3 312.4 225.9 312.6 226.7L313.2 225.1L314.8 225.6ZM308.2 233.5C308.9 233.3 309.5 233 310.1 232.4C310.7 231.8 311.1 231.2 311.4 230.4C311.7 229.6 311.8 228.8 311.7 228C311.6 227.2 311.3 226.6 310.9 226C310.5 225.4 309.9 225 309.1 224.8C308.4 224.5 307.7 224.5 307 224.7C306.3 224.9 305.7 225.2 305.1 225.7C304.6 226.2 304.1 226.9 303.8 227.7C303.5 228.5 303.4 229.3 303.5 230.1C303.6 230.9 303.8 231.5 304.3 232.1C304.7 232.7 305.3 233.1 306 233.3C306.8 233.6 307.5 233.7 308.2 233.5Z" fill="white"/>
<path d="M324.9 229.2L324.4 230.6L315.5 236.3L321.6 238.5L321.1 239.9L313.2 237.1L313.7 235.7L322.6 230L316.5 227.8L317 226.4L324.9 229.2Z" fill="white"/>
<path d="M233.9 243.2C249.474 243.2 262.1 230.574 262.1 215C262.1 199.426 249.474 186.8 233.9 186.8C218.326 186.8 205.7 199.426 205.7 215C205.7 230.574 218.326 243.2 233.9 243.2Z" fill="white"/>
<path d="M230.6 239.8C246.174 239.8 258.8 227.174 258.8 211.6C258.8 196.026 246.174 183.4 230.6 183.4C215.025 183.4 202.4 196.026 202.4 211.6C202.4 227.174 215.025 239.8 230.6 239.8Z" stroke="#071146" stroke-width="2" stroke-miterlimit="10" stroke-linecap="round" stroke-linejoin="round"/>
<path d="M243.6 228.1H221C218.4 228.1 216.3 226 216.3 223.4V203C216.3 200.4 218.4 198.3 221 198.3H243.6C246.2 198.3 248.3 200.4 248.3 203V223.4C248.3 226 246.2 228.1 243.6 228.1Z" fill="white"/>
<path d="M241.5 226.8H218.9C216.3 226.8 214.2 224.7 214.2 222.1V201.7C214.2 199.1 216.3 197 218.9 197H241.5C244.1 197 246.2 199.1 246.2 201.7V222.1C246.2 224.7 244.1 226.8 241.5 226.8Z" stroke="#071146" stroke-width="2" stroke-miterlimit="10" stroke-linecap="round" stroke-linejoin="round"/>
<path d="M214.1 217.2H246.2" stroke="#071146" stroke-width="2" stroke-miterlimit="10" stroke-linecap="round" stroke-linejoin="round"/>
<path d="M214.1 207.6H246.2" stroke="#071146" stroke-width="2" stroke-miterlimit="10" stroke-linecap="round" stroke-linejoin="round"/>
<path d="M233.9 194.6H226.7V228.1H233.9V194.6Z" fill="white" stroke="#071146" stroke-width="2" stroke-miterlimit="10" stroke-linecap="round" stroke-linejoin="round"/>
<path d="M233.9 208.8H226.7V216H233.9V208.8Z" stroke="#071146" stroke-width="2" stroke-miterlimit="10" stroke-linecap="round" stroke-linejoin="round"/>
<path d="M130.1 174C145.674 174 158.3 161.374 158.3 145.8C158.3 130.226 145.674 117.6 130.1 117.6C114.526 117.6 101.9 130.226 101.9 145.8C101.9 161.374 114.526 174 130.1 174Z" fill="white"/>
<path d="M126.7 170.6C142.274 170.6 154.9 157.974 154.9 142.4C154.9 126.826 142.274 114.2 126.7 114.2C111.126 114.2 98.5 126.826 98.5 142.4C98.5 157.974 111.126 170.6 126.7 170.6Z" stroke="#071146" stroke-width="2" stroke-miterlimit="10" stroke-linecap="round" stroke-linejoin="round"/>
<path d="M135.8 159.5H119.4C117 159.5 115.1 157.6 115.1 155.2V132.2C115.1 129.8 117 127.9 119.4 127.9H135.8C138.2 127.9 140.1 129.8 140.1 132.2V155.2C140.1 157.6 138.1 159.5 135.8 159.5Z" fill="white"/>
<path d="M134.1 158.1H117.7C115.3 158.1 113.4 156.2 113.4 153.8V130.8C113.4 128.4 115.3 126.5 117.7 126.5H134.1C136.5 126.5 138.4 128.4 138.4 130.8V153.8C138.4 156.1 136.5 158.1 134.1 158.1Z" stroke="#071146" stroke-width="2" stroke-miterlimit="10" stroke-linecap="round" stroke-linejoin="round"/>
<path d="M125.2 132.8H116.5V137.1H125.2V132.8Z" stroke="#071146" stroke-width="2" stroke-miterlimit="10" stroke-linecap="round" stroke-linejoin="round"/>
<path d="M135.4 132.8H126.7V137.1H135.4V132.8Z" stroke="#071146" stroke-width="2" stroke-miterlimit="10" stroke-linecap="round" stroke-linejoin="round"/>
<path d="M125.2 138.6H116.5V142.9H125.2V138.6Z" stroke="#071146" stroke-width="2" stroke-miterlimit="10" stroke-linecap="round" stroke-linejoin="round"/>
<path d="M135.4 138.6H126.7V142.9H135.4V138.6Z" stroke="#071146" stroke-width="2" stroke-miterlimit="10" stroke-linecap="round" stroke-linejoin="round"/>
<path d="M125.2 144.3H116.5V148.6H125.2V144.3Z" stroke="#071146" stroke-width="2" stroke-miterlimit="10" stroke-linecap="round" stroke-linejoin="round"/>
<path d="M135.4 144.3H126.7V148.6H135.4V144.3Z" stroke="#071146" stroke-width="2" stroke-miterlimit="10" stroke-linecap="round" stroke-linejoin="round"/>
<path d="M125.2 150.1H116.5V154.4H125.2V150.1Z" stroke="#071146" stroke-width="2" stroke-miterlimit="10" stroke-linecap="round" stroke-linejoin="round"/>
<path d="M135.4 150.1H126.7V154.4H135.4V150.1Z" stroke="#071146" stroke-width="2" stroke-miterlimit="10" stroke-linecap="round" stroke-linejoin="round"/>
<path d="M212.3 60.8C227.875 60.8 240.5 48.1745 240.5 32.6C240.5 17.0256 227.875 4.40002 212.3 4.40002C196.726 4.40002 184.1 17.0256 184.1 32.6C184.1 48.1745 196.726 60.8 212.3 60.8Z" fill="white"/>
<path d="M208.9 57.4C224.474 57.4 237.1 44.7744 237.1 29.2C237.1 13.6256 224.474 1 208.9 1C193.326 1 180.7 13.6256 180.7 29.2C180.7 44.7744 193.326 57.4 208.9 57.4Z" stroke="#071146" stroke-width="2" stroke-miterlimit="10" stroke-linecap="round" stroke-linejoin="round"/>
<path d="M220.4 43.6H199.4C197 43.6 195 41.6 195 39.2V20.3C195 17.9 197 15.9 199.4 15.9H220.4C222.8 15.9 224.8 17.9 224.8 20.3V39.2C224.8 41.7 222.8 43.6 220.4 43.6Z" fill="white"/>
<path d="M218.4 42.4H197.4C195 42.4 193 40.4 193 38V19.1C193 16.7 195 14.7 197.4 14.7H218.4C220.8 14.7 222.8 16.7 222.8 19.1V38C222.8 40.4 220.8 42.4 218.4 42.4Z" stroke="#071146" stroke-width="2" stroke-miterlimit="10" stroke-linecap="round" stroke-linejoin="round"/>
<path d="M203 19.6H197.8V24.7H203V19.6Z" stroke="#071146" stroke-width="2" stroke-miterlimit="10" stroke-linecap="round" stroke-linejoin="round"/>
<path d="M203 26.5001H197.8V31.6001H203V26.5001Z" stroke="#071146" stroke-width="2" stroke-miterlimit="10" stroke-linecap="round" stroke-linejoin="round"/>
<path d="M203 33.4H197.8V38.5H203V33.4Z" stroke="#071146" stroke-width="2" stroke-miterlimit="10" stroke-linecap="round" stroke-linejoin="round"/>
<path d="M210.5 19.6H205.3V24.7H210.5V19.6Z" stroke="#071146" stroke-width="2" stroke-miterlimit="10" stroke-linecap="round" stroke-linejoin="round"/>
<path d="M210.5 26.5001H205.3V31.6001H210.5V26.5001Z" stroke="#071146" stroke-width="2" stroke-miterlimit="10" stroke-linecap="round" stroke-linejoin="round"/>
<path d="M210.5 33.4H205.3V38.5H210.5V33.4Z" stroke="#071146" stroke-width="2" stroke-miterlimit="10" stroke-linecap="round" stroke-linejoin="round"/>
<path d="M218.1 19.6H212.9V24.7H218.1V19.6Z" stroke="#071146" stroke-width="2" stroke-miterlimit="10" stroke-linecap="round" stroke-linejoin="round"/>
<path d="M218.1 26.5001H212.9V31.6001H218.1V26.5001Z" stroke="#071146" stroke-width="2" stroke-miterlimit="10" stroke-linecap="round" stroke-linejoin="round"/>
<path d="M218.1 33.4H212.9V38.5H218.1V33.4Z" stroke="#071146" stroke-width="2" stroke-miterlimit="10" stroke-linecap="round" stroke-linejoin="round"/>
<path d="M34.9 83.4L39.7 88.2" stroke="#071146" stroke-width="2" stroke-miterlimit="10" stroke-linecap="round" stroke-linejoin="round"/>
<path d="M43.4 91.9L48.2 96.7" stroke="#071146" stroke-width="2" stroke-miterlimit="10" stroke-linecap="round" stroke-linejoin="round"/>
<path d="M48.2 83.4L43.4 88.2" stroke="#071146" stroke-width="2" stroke-miterlimit="10" stroke-linecap="round" stroke-linejoin="round"/>
<path d="M39.7 91.9L34.9 96.7" stroke="#071146" stroke-width="2" stroke-miterlimit="10" stroke-linecap="round" stroke-linejoin="round"/>
<path d="M126.7 40.3L131.5 45.1" stroke="#071146" stroke-width="2" stroke-miterlimit="10" stroke-linecap="round" stroke-linejoin="round"/>
<path d="M135.3 48.9L140.1 53.7" stroke="#071146" stroke-width="2" stroke-miterlimit="10" stroke-linecap="round" stroke-linejoin="round"/>
<path d="M140.1 40.3L135.3 45.1" stroke="#071146" stroke-width="2" stroke-miterlimit="10" stroke-linecap="round" stroke-linejoin="round"/>
<path d="M131.5 48.9L126.7 53.7" stroke="#071146" stroke-width="2" stroke-miterlimit="10" stroke-linecap="round" stroke-linejoin="round"/>
<path d="M95.3 224L100.1 228.8" stroke="#071146" stroke-width="2" stroke-miterlimit="10" stroke-linecap="round" stroke-linejoin="round"/>
<path d="M103.8 232.5L108.6 237.3" stroke="#071146" stroke-width="2" stroke-miterlimit="10" stroke-linecap="round" stroke-linejoin="round"/>
<path d="M108.6 224L103.8 228.8" stroke="#071146" stroke-width="2" stroke-miterlimit="10" stroke-linecap="round" stroke-linejoin="round"/>
<path d="M100.1 232.5L95.3 237.3" stroke="#071146" stroke-width="2" stroke-miterlimit="10" stroke-linecap="round" stroke-linejoin="round"/>
<path d="M175.6 87.9C178.085 87.9 180.1 85.8853 180.1 83.4C180.1 80.9147 178.085 78.9 175.6 78.9C173.115 78.9 171.1 80.9147 171.1 83.4C171.1 85.8853 173.115 87.9 175.6 87.9Z" stroke="#0052CC" stroke-width="2" stroke-miterlimit="10"/>
<path d="M288 37.9C290.485 37.9 292.5 35.8853 292.5 33.4C292.5 30.9147 290.485 28.9 288 28.9C285.515 28.9 283.5 30.9147 283.5 33.4C283.5 35.8853 285.515 37.9 288 37.9Z" stroke="#0052CC" stroke-width="2" stroke-miterlimit="10"/>
<path d="M57.1 151C59.5853 151 61.6 148.985 61.6 146.5C61.6 144.015 59.5853 142 57.1 142C54.6147 142 52.6 144.015 52.6 146.5C52.6 148.985 54.6147 151 57.1 151Z" stroke="#0052CC" stroke-width="2" stroke-miterlimit="10"/>
<path d="M514 241.8C516.485 241.8 518.5 239.785 518.5 237.3C518.5 234.815 516.485 232.8 514 232.8C511.515 232.8 509.5 234.815 509.5 237.3C509.5 239.785 511.515 241.8 514 241.8Z" stroke="#0052CC" stroke-width="2" stroke-miterlimit="10"/>
</g>
<defs>
<clipPath id="clip0">
<rect width="585" height="272.6" fill="white"/>
</clipPath>
</defs>
</svg>
