<svg width="97" height="95" viewBox="0 0 97 95" fill="none" xmlns="http://www.w3.org/2000/svg">
<g clip-path="url(#clip0)">
<path d="M73.3706 82.1564C89.3085 66.4943 89.5321 40.8774 73.8699 24.9395C58.2078 9.00159 32.5909 8.77803 16.653 24.4402C0.715138 40.1023 0.491583 65.7192 16.1537 81.6571C31.8158 97.595 57.4327 97.8185 73.3706 82.1564Z" fill="#B1DEF5"/>
<path d="M76.34 31.64L80.74 27.32L78.74 25.32L79.74 24.32L95.8 8.46998C96.4571 7.8038 96.8255 6.9057 96.8255 5.96998C96.8255 5.03425 96.4571 4.13615 95.8 3.46998C95.1338 2.81287 94.2357 2.44446 93.3 2.44446C92.3643 2.44446 91.4662 2.81287 90.8 3.46998L74.73 19.24L73.73 20.17L71.37 17.77L67 22.09L76.34 31.64Z" fill="#FEDB8F"/>
<path d="M69.8186 82.1546C85.7565 66.4924 85.9801 40.8756 70.3179 24.9377C54.6558 8.99976 29.0389 8.7762 13.101 24.4383C-2.83686 40.1005 -3.06042 65.7173 12.6017 81.6552C28.2638 97.5931 53.8807 97.8167 69.8186 82.1546Z" stroke="#071146" stroke-width="2" stroke-linecap="round" stroke-linejoin="round"/>
<path d="M66.328 78.6026C80.3042 64.8683 80.5003 42.4044 66.7659 28.4282C53.0316 14.4521 30.5677 14.256 16.5915 27.9904C2.61534 41.7247 2.4193 64.1886 16.1537 78.1648C29.888 92.141 52.3519 92.337 66.328 78.6026Z" stroke="#071146" stroke-width="2" stroke-linecap="round" stroke-linejoin="round"/>
<path d="M65.62 20.8599L70.04 16.5099L79.48 26.1099L75.05 30.4599" stroke="#071146" stroke-width="2" stroke-linecap="round" stroke-linejoin="round"/>
<path d="M72.27 18.77L89.31 2C89.9813 1.3295 90.8913 0.952881 91.84 0.952881C92.7888 0.952881 93.6988 1.3295 94.37 2C95.0405 2.67126 95.4171 3.58123 95.4171 4.53C95.4171 5.47877 95.0405 6.38873 94.37 7.06L77.37 23.8" stroke="#071146" stroke-width="2" stroke-linecap="round" stroke-linejoin="round"/>
<path d="M62.5164 37.2169L26.3066 37.0968C23.6059 37.0878 21.4094 39.2699 21.4004 41.9705L21.3136 68.1504C21.3046 70.8511 23.4867 73.0476 26.1874 73.0566L62.3972 73.1767C65.0978 73.1856 67.2944 71.0036 67.3033 68.3029L67.3902 42.123C67.3991 39.4224 65.2171 37.2258 62.5164 37.2169Z" fill="white"/>
<path d="M16.59 43.6799L38.09 55.8999C39.3119 56.5849 40.6892 56.9446 42.09 56.9446C43.4908 56.9446 44.8681 56.5849 46.09 55.8999L67.71 43.8499" stroke="#071146" stroke-width="2" stroke-linecap="round" stroke-linejoin="round"/>
<path d="M67.64 64.6099L49.53 54.3199" stroke="#071146" stroke-width="2" stroke-linecap="round" stroke-linejoin="round"/>
<path d="M34.7 54.2699L16.52 64.4399" stroke="#071146" stroke-width="2" stroke-linecap="round" stroke-linejoin="round"/>
<path d="M62.3387 33.5462L22.0389 33.4126C19.051 33.4027 16.6209 35.8168 16.611 38.8046L16.5154 67.6145C16.5055 70.6023 18.9196 73.0325 21.9075 73.0424L62.2072 73.176C65.1951 73.1859 67.6252 70.7718 67.6352 67.784L67.7307 38.9741C67.7406 35.9863 65.3265 33.5561 62.3387 33.5462Z" stroke="#071146" stroke-width="2" stroke-linecap="round" stroke-linejoin="round"/>
</g>
<defs>
<clipPath id="clip0">
<rect width="96.87" height="94.76" fill="white"/>
</clipPath>
</defs>
</svg>
