<svg width="586" height="272" viewBox="0 0 586 272" fill="none" xmlns="http://www.w3.org/2000/svg">
<path d="M581 106H0V272H581C583.8 272 586 270.657 586 268.949V109.051C586 107.343 583.8 106 581 106Z" fill="#FCAA90"/>
<path d="M540.5 134.8V229H513.1L510.7 203C497.2 221.9 478 231.4 453 231.4C427.4 231.4 406.9 222.9 391.5 205.9C376.1 188.9 368.4 166.3 368.4 138.1C368.4 109.9 376.7 87.2 393.4 69.9C410.1 52.6 432.3 43.9 460.2 43.9C478.5 43.9 494.4 48.1 508 56.4C521.6 64.7 531.5 76.7 537.6 92.4L503.5 105C500 95.4 494.4 88 486.7 82.9C479 77.8 469.9 75.2 459.3 75.2C443 75.2 430 80.8 420.4 92C410.8 103.2 406 118.4 406 137.7C406 157.2 410.6 172.5 419.7 183.6C428.8 194.7 441.4 200.2 457.4 200.2C469.2 200.2 479.6 196.8 488.4 190.1C497.2 183.4 503.1 173.8 505.9 161.3H462.2V134.9H540.5V134.8Z" fill="white"/>
<path d="M402 159.6L375.5 159.5C373.5 159.5 371.9 157.9 371.9 155.9L372 136.8C372 134.8 373.6 133.2 375.6 133.2L402.1 133.3C404.1 133.3 405.7 134.9 405.7 136.9L405.6 156C405.6 158 404 159.6 402 159.6Z" fill="white"/>
<path d="M368.5 138L384.2 146.9C386 147.9 388.2 147.9 390.1 146.9L405.9 138.1" stroke="#071146" stroke-width="2" stroke-miterlimit="10" stroke-linecap="round" stroke-linejoin="round"/>
<path d="M405.9 153.3L392.6 145.8" stroke="#071146" stroke-width="2" stroke-miterlimit="10" stroke-linecap="round" stroke-linejoin="round"/>
<path d="M381.8 145.8L368.5 153.2" stroke="#071146" stroke-width="2" stroke-miterlimit="10" stroke-linecap="round" stroke-linejoin="round"/>
<path d="M401.9 159.6L372.4 159.5C370.2 159.5 368.5 157.7 368.5 155.5L368.6 134.4C368.6 132.2 370.4 130.5 372.6 130.5L402.1 130.6C404.3 130.6 406 132.4 406 134.6L405.9 155.7C405.9 157.8 404.1 159.6 401.9 159.6Z" stroke="#071146" stroke-width="2" stroke-miterlimit="10" stroke-linecap="round" stroke-linejoin="round"/>
<path d="M411 119.4L384.5 119.3C382.5 119.3 380.9 117.7 380.9 115.7L381 96.6C381 94.6 382.6 93 384.6 93L411.1 93.1C413.1 93.1 414.7 94.7 414.7 96.7L414.6 115.8C414.5 117.8 412.9 119.4 411 119.4Z" fill="white"/>
<path d="M377.5 97.8L393.2 106.7C395 107.7 397.2 107.7 399.1 106.7L414.9 97.9" stroke="#071146" stroke-width="2" stroke-miterlimit="10" stroke-linecap="round" stroke-linejoin="round"/>
<path d="M414.8 113.1L401.6 105.6" stroke="#071146" stroke-width="2" stroke-miterlimit="10" stroke-linecap="round" stroke-linejoin="round"/>
<path d="M390.7 105.6L377.4 113" stroke="#071146" stroke-width="2" stroke-miterlimit="10" stroke-linecap="round" stroke-linejoin="round"/>
<path d="M410.8 119.4L381.3 119.3C379.1 119.3 377.4 117.5 377.4 115.3L377.5 94.2C377.5 92 379.3 90.3 381.5 90.3L411 90.4C413.2 90.4 414.9 92.2 414.9 94.4L414.8 115.5C414.8 117.6 413 119.4 410.8 119.4Z" stroke="#071146" stroke-width="2" stroke-miterlimit="10" stroke-linecap="round" stroke-linejoin="round"/>
<path d="M411 199.8L384.5 199.7C382.5 199.7 380.9 198.1 380.9 196.1L381 177C381 175 382.6 173.4 384.6 173.4L411.1 173.5C413.1 173.5 414.7 175.1 414.7 177.1L414.6 196.2C414.5 198.2 412.9 199.8 411 199.8Z" fill="white"/>
<path d="M377.5 178.3L393.2 187.2C395 188.2 397.2 188.2 399.1 187.2L414.9 178.4" stroke="#071146" stroke-width="2" stroke-miterlimit="10" stroke-linecap="round" stroke-linejoin="round"/>
<path d="M414.8 193.6L401.6 186" stroke="#071146" stroke-width="2" stroke-miterlimit="10" stroke-linecap="round" stroke-linejoin="round"/>
<path d="M390.7 186L377.4 193.4" stroke="#071146" stroke-width="2" stroke-miterlimit="10" stroke-linecap="round" stroke-linejoin="round"/>
<path d="M410.8 199.8L381.3 199.7C379.1 199.7 377.4 197.9 377.4 195.7L377.5 174.6C377.5 172.4 379.3 170.7 381.5 170.7L411 170.8C413.2 170.8 414.9 172.6 414.9 174.8L414.8 195.9C414.8 198.1 413 199.8 410.8 199.8Z" stroke="#071146" stroke-width="2" stroke-miterlimit="10" stroke-linecap="round" stroke-linejoin="round"/>
<path d="M457.3 229L430.8 228.9C428.8 228.9 427.2 227.3 427.2 225.3L427.3 206.2C427.3 204.2 428.9 202.6 430.9 202.6L457.4 202.7C459.4 202.7 461 204.3 461 206.3L460.9 225.4C460.9 227.4 459.2 229 457.3 229Z" fill="white"/>
<path d="M423.8 207.4L439.5 216.3C441.3 217.3 443.5 217.3 445.4 216.3L461.2 207.5" stroke="#071146" stroke-width="2" stroke-miterlimit="10" stroke-linecap="round" stroke-linejoin="round"/>
<path d="M461.1 222.7L447.9 215.2" stroke="#071146" stroke-width="2" stroke-miterlimit="10" stroke-linecap="round" stroke-linejoin="round"/>
<path d="M437 215.2L423.7 222.6" stroke="#071146" stroke-width="2" stroke-miterlimit="10" stroke-linecap="round" stroke-linejoin="round"/>
<path d="M457.1 229L427.6 228.9C425.4 228.9 423.7 227.1 423.7 224.9L423.8 203.8C423.8 201.6 425.6 199.9 427.8 199.9L457.3 200C459.5 200 461.2 201.8 461.2 204L461.1 225.1C461.1 227.2 459.3 229 457.1 229Z" stroke="#071146" stroke-width="2" stroke-miterlimit="10" stroke-linecap="round" stroke-linejoin="round"/>
<path d="M506.9 225.8L480.4 225.7C478.4 225.7 476.8 224.1 476.8 222.1L476.9 203C476.9 201 478.5 199.4 480.5 199.4L507 199.5C509 199.5 510.6 201.1 510.6 203.1L510.5 222.2C510.5 224.2 508.8 225.8 506.9 225.8Z" fill="white"/>
<path d="M473.4 204.3L489.1 213.2C490.9 214.2 493.1 214.2 495 213.2L510.8 204.4" stroke="#071146" stroke-width="2" stroke-miterlimit="10" stroke-linecap="round" stroke-linejoin="round"/>
<path d="M510.7 219.6L497.5 212" stroke="#071146" stroke-width="2" stroke-miterlimit="10" stroke-linecap="round" stroke-linejoin="round"/>
<path d="M486.6 212L473.3 219.4" stroke="#071146" stroke-width="2" stroke-miterlimit="10" stroke-linecap="round" stroke-linejoin="round"/>
<path d="M506.7 225.8L477.2 225.7C475 225.7 473.3 223.9 473.3 221.7L473.4 200.6C473.4 198.4 475.2 196.7 477.4 196.7L506.9 196.8C509.1 196.8 510.8 198.6 510.8 200.8L510.7 221.9C510.7 224.1 508.9 225.8 506.7 225.8Z" stroke="#071146" stroke-width="2" stroke-miterlimit="10" stroke-linecap="round" stroke-linejoin="round"/>
<path d="M537.6 191.1L511.1 191C509.1 191 507.5 189.4 507.5 187.4L507.6 168.3C507.6 166.3 509.2 164.7 511.2 164.7L537.7 164.8C539.7 164.8 541.3 166.4 541.3 168.4L541.2 187.5C541.2 189.5 539.6 191.1 537.6 191.1Z" fill="white"/>
<path d="M504.2 169.5L519.9 178.4C521.7 179.4 523.9 179.4 525.8 178.4L541.6 169.6" stroke="#071146" stroke-width="2" stroke-miterlimit="10" stroke-linecap="round" stroke-linejoin="round"/>
<path d="M541.5 184.8L528.2 177.3" stroke="#071146" stroke-width="2" stroke-miterlimit="10" stroke-linecap="round" stroke-linejoin="round"/>
<path d="M517.4 177.2L504.1 184.7" stroke="#071146" stroke-width="2" stroke-miterlimit="10" stroke-linecap="round" stroke-linejoin="round"/>
<path d="M537.5 191.1L508 191C505.8 191 504.1 189.2 504.1 187L504.2 165.9C504.2 163.7 506 162 508.2 162L537.7 162.1C539.9 162.1 541.6 163.9 541.6 166.1L541.5 187.2C541.5 189.3 539.7 191.1 537.5 191.1Z" stroke="#071146" stroke-width="2" stroke-miterlimit="10" stroke-linecap="round" stroke-linejoin="round"/>
<path d="M494.8 162.3L468.3 162.2C466.3 162.2 464.7 160.6 464.7 158.6L464.8 139.5C464.8 137.5 466.4 135.9 468.4 135.9L494.9 136C496.9 136 498.5 137.6 498.5 139.6L498.4 158.7C498.4 160.7 496.8 162.3 494.8 162.3Z" fill="white"/>
<path d="M461.3 140.7L477 149.6C478.8 150.6 481 150.6 482.9 149.6L498.7 140.8" stroke="#071146" stroke-width="2" stroke-miterlimit="10" stroke-linecap="round" stroke-linejoin="round"/>
<path d="M498.6 156L485.4 148.5" stroke="#071146" stroke-width="2" stroke-miterlimit="10" stroke-linecap="round" stroke-linejoin="round"/>
<path d="M474.6 148.5L461.3 155.9" stroke="#071146" stroke-width="2" stroke-miterlimit="10" stroke-linecap="round" stroke-linejoin="round"/>
<path d="M494.7 162.3L465.2 162.2C463 162.2 461.3 160.4 461.3 158.2L461.4 137.1C461.4 134.9 463.2 133.2 465.4 133.2L494.9 133.3C497.1 133.3 498.8 135.1 498.8 137.3L498.7 158.4C498.6 160.5 496.8 162.3 494.7 162.3Z" stroke="#071146" stroke-width="2" stroke-miterlimit="10" stroke-linecap="round" stroke-linejoin="round"/>
<path d="M438.6 79.2L412.1 79.1C410.1 79.1 408.5 77.5 408.5 75.5L408.6 56.4C408.6 54.4 410.2 52.8 412.2 52.8L438.7 52.9C440.7 52.9 442.3 54.5 442.3 56.5L442.2 75.6C442.2 77.6 440.6 79.2 438.6 79.2Z" fill="white"/>
<path d="M405.1 57.6L420.8 66.5C422.6 67.5 424.8 67.5 426.7 66.5L442.5 57.7" stroke="#071146" stroke-width="2" stroke-miterlimit="10" stroke-linecap="round" stroke-linejoin="round"/>
<path d="M442.5 72.9L429.2 65.4" stroke="#071146" stroke-width="2" stroke-miterlimit="10" stroke-linecap="round" stroke-linejoin="round"/>
<path d="M418.4 65.3L405.1 72.8" stroke="#071146" stroke-width="2" stroke-miterlimit="10" stroke-linecap="round" stroke-linejoin="round"/>
<path d="M438.5 79.2L409 79.1C406.8 79.1 405.1 77.3 405.1 75.1L405.2 54C405.2 51.8 407 50.1 409.2 50.1L438.7 50.2C440.9 50.2 442.6 52 442.6 54.2L442.5 75.3C442.4 77.4 440.7 79.2 438.5 79.2Z" stroke="#071146" stroke-width="2" stroke-miterlimit="10" stroke-linecap="round" stroke-linejoin="round"/>
<path d="M486.5 74.5L460 74.4C458 74.4 456.4 72.8 456.4 70.8L456.5 51.7C456.5 49.7 458.1 48.1 460.1 48.1L486.6 48.2C488.6 48.2 490.2 49.8 490.2 51.8L490.1 70.9C490.1 72.9 488.5 74.5 486.5 74.5Z" fill="white"/>
<path d="M453 52.9L468.7 61.8C470.5 62.8 472.7 62.8 474.6 61.8L490.4 53" stroke="#071146" stroke-width="2" stroke-miterlimit="10" stroke-linecap="round" stroke-linejoin="round"/>
<path d="M490.4 68.2L477.1 60.7" stroke="#071146" stroke-width="2" stroke-miterlimit="10" stroke-linecap="round" stroke-linejoin="round"/>
<path d="M466.3 60.7L453 68.1" stroke="#071146" stroke-width="2" stroke-miterlimit="10" stroke-linecap="round" stroke-linejoin="round"/>
<path d="M486.4 74.5L456.9 74.4C454.7 74.4 453 72.6 453 70.4L453.1 49.3C453.1 47.1 454.9 45.4 457.1 45.4L486.6 45.5C488.8 45.5 490.5 47.3 490.5 49.5L490.4 70.6C490.4 72.7 488.6 74.5 486.4 74.5Z" stroke="#071146" stroke-width="2" stroke-miterlimit="10" stroke-linecap="round" stroke-linejoin="round"/>
<path d="M533 100.3L506.5 100.2C504.5 100.2 502.9 98.6 502.9 96.6L503 77.5C503 75.5 504.6 73.9 506.6 73.9L533.1 74C535.1 74 536.7 75.6 536.7 77.6L536.6 96.7C536.5 98.7 534.9 100.3 533 100.3Z" fill="white"/>
<path d="M499.5 78.7L515.2 87.6C517 88.6 519.2 88.6 521.1 87.6L536.9 78.8" stroke="#071146" stroke-width="2" stroke-miterlimit="10" stroke-linecap="round" stroke-linejoin="round"/>
<path d="M536.8 94L523.6 86.5" stroke="#071146" stroke-width="2" stroke-miterlimit="10" stroke-linecap="round" stroke-linejoin="round"/>
<path d="M512.7 86.4L499.4 93.9" stroke="#071146" stroke-width="2" stroke-miterlimit="10" stroke-linecap="round" stroke-linejoin="round"/>
<path d="M532.8 100.3L503.3 100.2C501.1 100.2 499.4 98.4 499.4 96.2L499.5 75.1C499.5 72.9 501.3 71.2 503.5 71.2L533 71.3C535.2 71.3 536.9 73.1 536.9 75.3L536.8 96.4C536.8 98.5 535 100.3 532.8 100.3Z" stroke="#071146" stroke-width="2" stroke-miterlimit="10" stroke-linecap="round" stroke-linejoin="round"/>
<path d="M284.9 166.9H47.8V58.5C47.8 52.6 52.6 47.8 58.5 47.8H274.2C280.1 47.8 284.9 52.6 284.9 58.5V166.9Z" fill="white"/>
<path d="M42.9 166.9H284.9" stroke="#071146" stroke-width="2" stroke-miterlimit="10" stroke-linecap="round" stroke-linejoin="round"/>
<path d="M164.8 182.8C167.009 182.8 168.8 181.009 168.8 178.8C168.8 176.591 167.009 174.8 164.8 174.8C162.591 174.8 160.8 176.591 160.8 178.8C160.8 181.009 162.591 182.8 164.8 182.8Z" stroke="#071146" stroke-width="2" stroke-miterlimit="10" stroke-linecap="round" stroke-linejoin="round"/>
<path d="M185 190.6H143.7V226.2H185V190.6Z" stroke="#071146" stroke-width="2" stroke-miterlimit="10" stroke-linecap="round" stroke-linejoin="round"/>
<path d="M196.7 226.2H132.4C131.1 226.2 129.9 227.3 129.9 228.7V229C129.9 230.3 131 231.5 132.4 231.5H196.7C198 231.5 199.2 230.4 199.2 229V228.7C199.2 227.3 198.1 226.2 196.7 226.2Z" stroke="#071146" stroke-width="2" stroke-miterlimit="10" stroke-linecap="round" stroke-linejoin="round"/>
<path d="M115.9 136H84.1C78.3 136 73.5 131.2 73.5 125.4V93.6C73.5 87.8 78.3 83 84.1 83H115.9C121.7 83 126.5 87.8 126.5 93.6V125.4C126.5 131.2 121.8 136 115.9 136Z" fill="#0052CC"/>
<path d="M111.1 131.4H79.3C73.5 131.4 68.7 126.6 68.7 120.8V89C68.7 83.2 73.5 78.4 79.3 78.4H111.1C116.9 78.4 121.7 83.2 121.7 89V120.8C121.7 126.6 116.9 131.4 111.1 131.4Z" stroke="#071146" stroke-width="2" stroke-miterlimit="10" stroke-linecap="round" stroke-linejoin="round"/>
<path d="M104.2 97.3H107.8L102.6 115.1H98.8L95.1 102.1L91.4 115.1H87.7L82.6 97.3H86.3L89.8 110.3L93.5 97.3H97.1L100.8 110.2L104.2 97.3Z" fill="white"/>
<path d="M252.6 136H220.8C215 136 210.2 131.2 210.2 125.4V93.6C210.2 87.8 215 83 220.8 83H252.6C258.4 83 263.2 87.8 263.2 93.6V125.4C263.2 131.2 258.4 136 252.6 136Z" fill="#95E196"/>
<path d="M247.7 131.4H215.9C210.1 131.4 205.3 126.6 205.3 120.8V89C205.3 83.2 210.1 78.4 215.9 78.4H247.7C253.5 78.4 258.3 83.2 258.3 89V120.8C258.3 126.6 253.6 131.4 247.7 131.4Z" stroke="#071146" stroke-width="2" stroke-miterlimit="10" stroke-linecap="round" stroke-linejoin="round"/>
<path d="M241.5 115H237.3L232.6 108.4L228 115H223.8L230.5 105.7L224.2 96.9H228.4L232.7 103L237 96.9H241.1L234.8 105.7L241.5 115Z" fill="white"/>
<path d="M272.9 190.6H54.9C48.3 190.6 42.9 185.2 42.9 178.6V55.3C42.9 48.7 48.3 43.3 54.9 43.3H272.9C279.5 43.3 284.9 48.7 284.9 55.3V178.6C284.9 185.2 279.5 190.6 272.9 190.6Z" stroke="#071146" stroke-width="2" stroke-miterlimit="10" stroke-linecap="round" stroke-linejoin="round"/>
<path d="M184.9 136H153.1C147.3 136 142.5 131.2 142.5 125.4V93.6C142.5 87.8 147.3 83 153.1 83H184.9C190.7 83 195.5 87.8 195.5 93.6V125.4C195.5 131.2 190.7 136 184.9 136Z" fill="#B1DEF5"/>
<path d="M180 131.4H148.2C142.4 131.4 137.6 126.6 137.6 120.8V89C137.6 83.2 142.4 78.4 148.2 78.4H180C185.8 78.4 190.6 83.2 190.6 89V120.8C190.6 126.6 185.8 131.4 180 131.4Z" stroke="#071146" stroke-width="2" stroke-miterlimit="10" stroke-linecap="round" stroke-linejoin="round"/>
<path d="M157.8 113.9C156 112 155.1 109.5 155.1 106.4C155.1 104.4 155.5 102.6 156.3 101.1C157.1 99.5 158.3 98.3 159.8 97.5C161.3 96.6 163 96.2 164.9 96.2C167.9 96.2 170.3 97.1 172.1 99C173.9 100.9 174.8 103.4 174.8 106.5C174.8 108.5 174.4 110.3 173.6 111.8C172.8 113.4 171.6 114.6 170.1 115.4C168.6 116.3 166.9 116.7 165 116.7C162 116.8 159.6 115.8 157.8 113.9ZM169.1 111.4C170.1 110.2 170.7 108.5 170.7 106.5C170.7 104.5 170.2 102.8 169.1 101.6C168.1 100.4 166.7 99.8 165 99.8C163.3 99.8 161.9 100.4 160.9 101.6C159.9 102.8 159.3 104.5 159.3 106.5C159.3 108.5 159.8 110.2 160.9 111.4C161.9 112.6 163.3 113.2 165 113.2C166.7 113.2 168.1 112.6 169.1 111.4Z" fill="white"/>
<path d="M271.1 109.3H296.7C306.5 109.3 314.4 101.4 314.4 91.6V61.7C314.4 51.9 322.3 44 332.1 44H396.2" stroke="white" stroke-width="2" stroke-miterlimit="10" stroke-linecap="round" stroke-linejoin="round" stroke-dasharray="6 6"/>
<path d="M91.6 148.5V192.4C91.6 202.8 100.1 211.3 110.5 211.3H309.7C320.1 211.3 328.6 202.8 328.6 192.4V165.3C328.6 154.9 337.1 146.4 347.5 146.4H352.1" stroke="white" stroke-width="2" stroke-miterlimit="10" stroke-linecap="round" stroke-linejoin="round" stroke-dasharray="6 6"/>
</svg>
