<svg width="586" height="273" viewBox="0 0 586 273" fill="none" xmlns="http://www.w3.org/2000/svg">
<g clip-path="url(#clip0)">
<path d="M581 61H0V272H581C583.8 272 586 270.293 586 268.121V64.8787C586 62.7066 583.8 61 581 61Z" fill="#B6E2DF"/>
<path d="M37.8 77.3V131.4C37.8 139.4 44.3001 146 52.4001 146H91.3001C99.3001 146 105.9 152.5 105.9 160.6V186.7C105.9 194.7 112.4 201.3 120.5 201.3H203.5" stroke="white" stroke-width="2" stroke-miterlimit="10" stroke-linecap="round" stroke-linejoin="round" stroke-dasharray="6 6"/>
<path d="M436.6 100.8C452.23 100.8 464.9 88.1297 464.9 72.5C464.9 56.8704 452.23 44.2 436.6 44.2C420.97 44.2 408.3 56.8704 408.3 72.5C408.3 88.1297 420.97 100.8 436.6 100.8Z" fill="#95E196"/>
<path d="M433.1 100.8C448.73 100.8 461.4 88.1297 461.4 72.5C461.4 56.8704 448.73 44.2 433.1 44.2C417.47 44.2 404.8 56.8704 404.8 72.5C404.8 88.1297 417.47 100.8 433.1 100.8Z" stroke="#071146" stroke-width="2" stroke-miterlimit="10" stroke-linecap="round" stroke-linejoin="round"/>
<path d="M433.1 100.8C420.3 95.8 417 81.9 417 72.5C417 61.4 421 48.6 433.1 44.2" stroke="#071146" stroke-width="2" stroke-miterlimit="10" stroke-linecap="round" stroke-linejoin="round"/>
<path d="M433.6 44.2C446.4 49.2 449.7 63.1 449.7 72.5C449.7 83.6 445.7 96.4 433.6 100.8" stroke="#071146" stroke-width="2" stroke-miterlimit="10" stroke-linecap="round" stroke-linejoin="round"/>
<path d="M433.1 44.2V100.8" stroke="#071146" stroke-width="2" stroke-miterlimit="10" stroke-linecap="round" stroke-linejoin="round"/>
<path d="M404.8 72.5H461.4" stroke="#071146" stroke-width="2" stroke-miterlimit="10" stroke-linecap="round" stroke-linejoin="round"/>
<path d="M379.3 257.9H212.6C207.5 257.9 203.4 253.8 203.4 248.7V130.8C203.4 125.7 207.5 121.6 212.6 121.6H379.3C384.4 121.6 388.5 125.7 388.5 130.8V248.7C388.5 253.7 384.3 257.9 379.3 257.9Z" stroke="#071146" stroke-width="2" stroke-miterlimit="10" stroke-linecap="round" stroke-linejoin="round"/>
<path d="M397.4 271.7H197.2C191.8 271.7 187.3 267.2 187.3 261.8C187.3 259.6 189.1 257.9 191.2 257.9H403.5C405.7 257.9 407.4 259.7 407.4 261.8C407.3 267.2 402.9 271.7 397.4 271.7Z" stroke="#071146" stroke-width="2" stroke-miterlimit="10" stroke-linecap="round" stroke-linejoin="round"/>
<path d="M379.2 130.5H213V247.8H379.2V130.5Z" fill="white"/>
<path d="M260.7 246.9C260.5 240.5 262.7 234 267.1 229.3C271.6 224.6 278.4 222 284.9 222.9C292.9 224.1 300.2 230.3 308.2 228.9C313.2 228.1 317.2 224.4 322 222.8C328.9 220.6 336.9 223.4 341.7 228.6C346.6 233.8 348.6 241.1 348.5 248.1" fill="#FEDB8F"/>
<path d="M303 211.8C318.851 211.8 331.7 198.951 331.7 183.1C331.7 167.249 318.851 154.4 303 154.4C287.149 154.4 274.3 167.249 274.3 183.1C274.3 198.951 287.149 211.8 303 211.8Z" stroke="#071146" stroke-width="2" stroke-miterlimit="10" stroke-linecap="round" stroke-linejoin="round"/>
<path d="M274.6 199.6C270.3 199.5 267.2 193.9 269.4 190.2C272 185.7 278.6 186.2 283.4 184.1C288.5 181.8 291.3 176.5 294.3 171.8C294.8 171.1 295.3 170.3 296.1 170.1C296.7 169.9 297.4 170.1 298.1 170.2C311.4 173 325.9 169.3 336.3 160.5" stroke="#071146" stroke-width="2" stroke-miterlimit="10" stroke-linecap="round" stroke-linejoin="round"/>
<path d="M293.6 210C294 214.4 292.3 219 289.2 222.1" stroke="#071146" stroke-width="2" stroke-miterlimit="10" stroke-linecap="round" stroke-linejoin="round"/>
<path d="M314.2 209.7C313.7 214.2 315.7 219 319.4 221.7" stroke="#071146" stroke-width="2" stroke-miterlimit="10" stroke-linecap="round" stroke-linejoin="round"/>
<path d="M379.2 130.5H213V247.8H379.2V130.5Z" stroke="#071146" stroke-width="2" stroke-miterlimit="10" stroke-linecap="round" stroke-linejoin="round"/>
<path d="M257.1 246.8C256.9 239.9 259.2 232.9 263.8 227.9C268.5 222.9 275.5 220 282.3 221C290.7 222.2 298.2 228.9 306.5 227.5C311.7 226.6 315.9 222.6 320.9 221C328.1 218.7 336.4 221.6 341.4 227.2C346.5 232.8 348.6 240.6 348.5 248.2" stroke="#071146" stroke-width="2" stroke-miterlimit="10" stroke-linecap="round" stroke-linejoin="round"/>
<path d="M213 141.7H379.3" stroke="#071146" stroke-width="2" stroke-miterlimit="10" stroke-linecap="round" stroke-linejoin="round"/>
<path d="M218.9 136H228.2" stroke="#071146" stroke-width="2" stroke-miterlimit="10" stroke-linecap="round" stroke-linejoin="round"/>
<path d="M236.6 136H245.9" stroke="#071146" stroke-width="2" stroke-miterlimit="10" stroke-linecap="round" stroke-linejoin="round"/>
<path d="M254.2 136H263.6" stroke="#071146" stroke-width="2" stroke-miterlimit="10" stroke-linecap="round" stroke-linejoin="round"/>
<path d="M81.9999 122.7C81.9999 122.5 81.9999 122.2 81.9999 122C81.4999 116.8 77.3999 112.6 72.1999 112C65.4999 111.3 59.8999 116.5 59.8999 123C59.8999 123 59.8999 123 59.8999 123.1C59.8999 125.5 60.8999 127.9 62.3999 129.8L70.9999 140.1L79.4999 129.8C81.0999 127.8 82.0999 125.3 81.9999 122.7Z" stroke="#071146" stroke-width="2" stroke-miterlimit="10" stroke-linecap="round" stroke-linejoin="round"/>
<path d="M70.9999 129.9C74.8106 129.9 77.8999 126.811 77.8999 123C77.8999 119.189 74.8106 116.1 70.9999 116.1C67.1891 116.1 64.0999 119.189 64.0999 123C64.0999 126.811 67.1891 129.9 70.9999 129.9Z" stroke="#071146" stroke-width="2" stroke-miterlimit="10" stroke-linecap="round" stroke-linejoin="round"/>
<path d="M285.4 46.5C285.4 46.3 285.4 46 285.4 45.8C284.9 40.6 280.8 36.4 275.6 35.8C268.9 35.1 263.3 40.3 263.3 46.8C263.3 46.8 263.3 46.8 263.3 46.9C263.3 49.3 264.3 51.7 265.8 53.6L274.4 63.9L282.9 53.6C284.5 51.6 285.4 49.1 285.4 46.5Z" stroke="#071146" stroke-width="2" stroke-miterlimit="10" stroke-linecap="round" stroke-linejoin="round"/>
<path d="M274.3 53.8C278.111 53.8 281.2 50.7108 281.2 46.9C281.2 43.0892 278.111 40 274.3 40C270.489 40 267.4 43.0892 267.4 46.9C267.4 50.7108 270.489 53.8 274.3 53.8Z" stroke="#071146" stroke-width="2" stroke-miterlimit="10" stroke-linecap="round" stroke-linejoin="round"/>
<path d="M560.1 197.7C560.1 197.5 560.1 197.2 560.1 197C559.6 191.8 555.5 187.6 550.3 187C543.6 186.3 538 191.5 538 198C538 198 538 198 538 198.1C538 200.5 539 202.9 540.5 204.8L549.1 215.1L557.6 204.8C559.2 202.8 560.2 200.3 560.1 197.7Z" stroke="#071146" stroke-width="2" stroke-miterlimit="10" stroke-linecap="round" stroke-linejoin="round"/>
<path d="M549.1 205C552.911 205 556 201.911 556 198.1C556 194.289 552.911 191.2 549.1 191.2C545.289 191.2 542.2 194.289 542.2 198.1C542.2 201.911 545.289 205 549.1 205Z" stroke="#071146" stroke-width="2" stroke-miterlimit="10" stroke-linecap="round" stroke-linejoin="round"/>
<path d="M144 36.8H163.7" stroke="#95E196" stroke-width="2" stroke-miterlimit="10" stroke-linecap="round" stroke-linejoin="round"/>
<path d="M153.9 27V46.7" stroke="#95E196" stroke-width="2" stroke-miterlimit="10" stroke-linecap="round" stroke-linejoin="round"/>
<path d="M423.3 180.1H443" stroke="#95E196" stroke-width="2" stroke-miterlimit="10" stroke-linecap="round" stroke-linejoin="round"/>
<path d="M433.1 170.2V189.9" stroke="#95E196" stroke-width="2" stroke-miterlimit="10" stroke-linecap="round" stroke-linejoin="round"/>
<path d="M532.2 26.8H551.9" stroke="#95E196" stroke-width="2" stroke-miterlimit="10" stroke-linecap="round" stroke-linejoin="round"/>
<path d="M542 17V36.7" stroke="#95E196" stroke-width="2" stroke-miterlimit="10" stroke-linecap="round" stroke-linejoin="round"/>
<path d="M28.3999 173H48.0999" stroke="#95E196" stroke-width="2" stroke-miterlimit="10" stroke-linecap="round" stroke-linejoin="round"/>
<path d="M38.2998 163.1V182.8" stroke="#95E196" stroke-width="2" stroke-miterlimit="10" stroke-linecap="round" stroke-linejoin="round"/>
<path d="M57.5999 70.2H22.8999C20.0999 70.2 17.8999 67.9 17.8999 65.2V25.2C17.8999 22.4 20.1999 20.2 22.8999 20.2H57.5999C60.3999 20.2 62.5999 22.5 62.5999 25.2V65.2C62.5999 67.9 60.3999 70.2 57.5999 70.2Z" fill="white"/>
<path d="M43.2546 32.2697C43.2633 29.5635 41.0766 27.3626 38.3704 27.3538C35.6642 27.3451 33.4633 29.5318 33.4546 32.238C33.4458 34.9442 35.6325 37.1451 38.3387 37.1538C41.0449 37.1626 43.2458 34.9759 43.2546 32.2697Z" stroke="#071146" stroke-width="2" stroke-miterlimit="10" stroke-linecap="round" stroke-linejoin="round"/>
<path d="M38.2998 50.2C42.3998 50.2 45.6998 46.9 45.6998 42.8V41.7C45.6998 40.9 45.0998 40.3 44.2998 40.3H32.1998C31.3998 40.3 30.7998 40.9 30.7998 41.7V42.8C30.8998 46.9 34.1998 50.2 38.2998 50.2Z" stroke="#071146" stroke-width="2" stroke-miterlimit="10" stroke-linecap="round" stroke-linejoin="round"/>
<path d="M55.6999 68.3001H20.8999C18.0999 68.3001 15.8999 66 15.8999 63.3V23.3C15.8999 20.5 18.1999 18.3 20.8999 18.3H55.5999C58.3999 18.3 60.5999 20.6 60.5999 23.3V63.3C60.6999 66.1 58.3999 68.3001 55.6999 68.3001Z" stroke="#071146" stroke-width="2" stroke-miterlimit="10" stroke-linecap="round" stroke-linejoin="round"/>
<path d="M24.3999 56.1H51.1999" stroke="#071146" stroke-width="2" stroke-miterlimit="10" stroke-linecap="round" stroke-linejoin="round"/>
<path d="M24.3999 61.1H51.1999" stroke="#071146" stroke-width="2" stroke-miterlimit="10" stroke-linecap="round" stroke-linejoin="round"/>
<path d="M46.4999 13.5H32.5999V23.3H46.4999V13.5Z" fill="#FEDB8F"/>
<path d="M45.2999 12.4H31.3999V22.2H45.2999V12.4Z" stroke="#071146" stroke-width="2" stroke-miterlimit="10" stroke-linecap="round" stroke-linejoin="round"/>
<path d="M170.1 164.9H135.4C132.6 164.9 130.4 162.6 130.4 159.9V119.9C130.4 117.1 132.7 114.9 135.4 114.9H170.1C172.9 114.9 175.1 117.2 175.1 119.9V159.9C175.1 162.7 172.9 164.9 170.1 164.9Z" fill="white"/>
<path d="M155.696 127.09C155.705 124.384 153.518 122.183 150.812 122.175C148.106 122.166 145.905 124.352 145.896 127.059C145.887 129.765 148.074 131.966 150.78 131.975C153.486 131.983 155.687 129.797 155.696 127.09Z" stroke="#071146" stroke-width="2" stroke-miterlimit="10" stroke-linecap="round" stroke-linejoin="round"/>
<path d="M150.7 145C154.8 145 158.1 141.7 158.1 137.6V136.5C158.1 135.7 157.5 135.1 156.7 135.1H144.6C143.8 135.1 143.2 135.7 143.2 136.5V137.6C143.3 141.6 146.7 145 150.7 145Z" stroke="#071146" stroke-width="2" stroke-miterlimit="10" stroke-linecap="round" stroke-linejoin="round"/>
<path d="M168.1 163.1H133.4C130.6 163.1 128.4 160.8 128.4 158.1V118.1C128.4 115.3 130.7 113.1 133.4 113.1H168.1C170.9 113.1 173.1 115.4 173.1 118.1V158.1C173.1 160.8 170.9 163.1 168.1 163.1Z" stroke="#071146" stroke-width="2" stroke-miterlimit="10" stroke-linecap="round" stroke-linejoin="round"/>
<path d="M136.9 150.9H163.7" stroke="#071146" stroke-width="2" stroke-miterlimit="10" stroke-linecap="round" stroke-linejoin="round"/>
<path d="M136.9 155.9H163.7" stroke="#071146" stroke-width="2" stroke-miterlimit="10" stroke-linecap="round" stroke-linejoin="round"/>
<path d="M159 108.2H145.1V118H159V108.2Z" fill="#FEDB8F"/>
<path d="M157.8 107.1H143.9V116.9H157.8V107.1Z" stroke="#071146" stroke-width="2" stroke-miterlimit="10" stroke-linecap="round" stroke-linejoin="round"/>
<path d="M378.3 58.9H343.6C340.8 58.9 338.6 56.6 338.6 53.9V13.9C338.6 11.1 340.9 8.89996 343.6 8.89996H378.3C381.1 8.89996 383.3 11.2 383.3 13.9V53.9C383.3 56.7 381.1 58.9 378.3 58.9Z" fill="white"/>
<path d="M363.914 21.003C363.923 18.2968 361.736 16.0959 359.03 16.0872C356.324 16.0784 354.123 18.2651 354.114 20.9713C354.105 23.6775 356.292 25.8784 358.998 25.8872C361.704 25.8959 363.905 23.7092 363.914 21.003Z" stroke="#071146" stroke-width="2" stroke-miterlimit="10" stroke-linecap="round" stroke-linejoin="round"/>
<path d="M359 39C363.1 39 366.4 35.7 366.4 31.6V30.5C366.4 29.7 365.8 29.1 365 29.1H352.9C352.1 29.1 351.5 29.7 351.5 30.5V31.6C351.6 35.6 354.9 39 359 39Z" stroke="#071146" stroke-width="2" stroke-miterlimit="10" stroke-linecap="round" stroke-linejoin="round"/>
<path d="M376.4 57.1H341.7C338.9 57.1 336.7 54.8 336.7 52.1V12.1C336.7 9.29998 339 7.09998 341.7 7.09998H376.4C379.2 7.09998 381.4 9.39998 381.4 12.1V52.1C381.4 54.8 379.1 57.1 376.4 57.1Z" stroke="#071146" stroke-width="2" stroke-miterlimit="10" stroke-linecap="round" stroke-linejoin="round"/>
<path d="M345.1 44.9H371.9" stroke="#071146" stroke-width="2" stroke-miterlimit="10" stroke-linecap="round" stroke-linejoin="round"/>
<path d="M345.1 49.9H371.9" stroke="#071146" stroke-width="2" stroke-miterlimit="10" stroke-linecap="round" stroke-linejoin="round"/>
<path d="M367.2 2.19995H353.3V12H367.2V2.19995Z" fill="#FEDB8F"/>
<path d="M366 1.09998H352.1V10.9H366V1.09998Z" stroke="#071146" stroke-width="2" stroke-miterlimit="10" stroke-linecap="round" stroke-linejoin="round"/>
<path d="M503.1 251H468.4C465.6 251 463.4 248.7 463.4 246V206C463.4 203.2 465.7 201 468.4 201H503.1C505.9 201 508.1 203.3 508.1 206V246C508.1 248.8 505.9 251 503.1 251Z" fill="white"/>
<path d="M488.818 213.134C488.826 210.428 486.64 208.227 483.933 208.219C481.227 208.21 479.026 210.397 479.018 213.103C479.009 215.809 481.196 218.01 483.902 218.019C486.608 218.027 488.809 215.841 488.818 213.134Z" stroke="#071146" stroke-width="2" stroke-miterlimit="10" stroke-linecap="round" stroke-linejoin="round"/>
<path d="M483.8 231.1C487.9 231.1 491.2 227.8 491.2 223.7V222.6C491.2 221.8 490.6 221.2 489.8 221.2H477.7C476.9 221.2 476.3 221.8 476.3 222.6V223.7C476.4 227.7 479.7 231.1 483.8 231.1Z" stroke="#071146" stroke-width="2" stroke-miterlimit="10" stroke-linecap="round" stroke-linejoin="round"/>
<path d="M501.2 249.2H466.5C463.7 249.2 461.5 246.9 461.5 244.2V204.2C461.5 201.4 463.8 199.2 466.5 199.2H501.2C504 199.2 506.2 201.5 506.2 204.2V244.2C506.2 247 503.9 249.2 501.2 249.2Z" stroke="#071146" stroke-width="2" stroke-miterlimit="10" stroke-linecap="round" stroke-linejoin="round"/>
<path d="M469.9 237H496.7" stroke="#071146" stroke-width="2" stroke-miterlimit="10" stroke-linecap="round" stroke-linejoin="round"/>
<path d="M469.9 242H496.7" stroke="#071146" stroke-width="2" stroke-miterlimit="10" stroke-linecap="round" stroke-linejoin="round"/>
<path d="M492 194.3H478.1V204.1H492V194.3Z" fill="#FEDB8F"/>
<path d="M490.8 193.2H476.9V203H490.8V193.2Z" stroke="#071146" stroke-width="2" stroke-miterlimit="10" stroke-linecap="round" stroke-linejoin="round"/>
<path d="M581 154.9H546.3C543.5 154.9 541.3 152.6 541.3 149.9V109.9C541.3 107.1 543.6 104.9 546.3 104.9H581C583.8 104.9 586 107.2 586 109.9V149.9C586 152.7 583.7 154.9 581 154.9Z" fill="white"/>
<path d="M566.672 117.092C566.681 114.386 564.494 112.185 561.788 112.176C559.082 112.167 556.881 114.354 556.872 117.06C556.864 119.766 559.05 121.967 561.756 121.976C564.463 121.985 566.664 119.798 566.672 117.092Z" stroke="#071146" stroke-width="2" stroke-miterlimit="10" stroke-linecap="round" stroke-linejoin="round"/>
<path d="M561.6 135C565.7 135 569 131.7 569 127.6V126.5C569 125.7 568.4 125.1 567.6 125.1H555.5C554.7 125.1 554.1 125.7 554.1 126.5V127.6C554.2 131.6 557.5 135 561.6 135Z" stroke="#071146" stroke-width="2" stroke-miterlimit="10" stroke-linecap="round" stroke-linejoin="round"/>
<path d="M579 153.1H544.3C541.5 153.1 539.3 150.8 539.3 148.1V108.1C539.3 105.3 541.6 103.1 544.3 103.1H579C581.8 103.1 584 105.4 584 108.1V148.1C584 150.9 581.8 153.1 579 153.1Z" stroke="#071146" stroke-width="2" stroke-miterlimit="10" stroke-linecap="round" stroke-linejoin="round"/>
<path d="M547.8 140.9H574.5" stroke="#071146" stroke-width="2" stroke-miterlimit="10" stroke-linecap="round" stroke-linejoin="round"/>
<path d="M547.8 145.9H574.5" stroke="#071146" stroke-width="2" stroke-miterlimit="10" stroke-linecap="round" stroke-linejoin="round"/>
<path d="M569.9 98.2H556V108H569.9V98.2Z" fill="#FEDB8F"/>
<path d="M568.7 97.1H554.8V106.9H568.7V97.1Z" stroke="#071146" stroke-width="2" stroke-miterlimit="10" stroke-linecap="round" stroke-linejoin="round"/>
<path d="M245.7 97.2C251.1 97.2 255.1 91.9 253.3 86.8C253.2 86.6 253.1 86.3 253 86.1C251.3 82.4 247 80.1 243 80.8C245.7 77.5 245 72 241.6 69.4C238.2 66.8 232.8 67.7 230.3 71.1C230.3 66.5 226.5 62.4 222.1 61.2C217.6 60 212.7 61.4 209 64.1C205.9 66.4 203.4 69.7 202.9 73.5C199 71.9 194.3 74.3 192.4 78C192.2 78.4 192 78.9 191.8 79.5C189.2 88.6 196.4 97.6 205.9 97.5L245.7 97.2Z" fill="white"/>
<path d="M102.7 249.8C108.1 249.8 112.1 244.5 110.3 239.4C110.2 239.2 110.1 238.9 110 238.7C108.3 235 104 232.7 100 233.4C102.7 230.1 102 224.6 98.6 222C95.2 219.4 89.8 220.3 87.3 223.7C87.3 219.1 83.5 215 79.1 213.8C74.6 212.6 69.7 214 66 216.7C62.9 219 60.4 222.3 59.9 226.1C56 224.5 51.3 226.9 49.4 230.6C49.2 231 49 231.5 48.8 232.1C46.2 241.2 53.4 250.2 62.9 250.1L102.7 249.8Z" fill="white"/>
<path d="M507.3 159.7C512.7 159.7 516.7 154.4 514.9 149.3C514.8 149.1 514.7 148.8 514.6 148.6C512.9 144.9 508.6 142.6 504.6 143.3C507.3 140 506.6 134.5 503.2 131.9C499.8 129.3 494.4 130.2 491.9 133.6C491.9 129 488.1 124.9 483.7 123.7C479.3 122.5 474.3 123.9 470.6 126.6C467.5 128.9 465 132.2 464.5 136C460.6 134.4 455.9 136.8 454 140.5C453.8 140.9 453.6 141.4 453.4 142C450.8 151.1 458 160.1 467.5 160L507.3 159.7Z" fill="white"/>
<path d="M242.2 95.3C247.6 95.3 251.6 90 249.8 84.9C249.7 84.7 249.6 84.4 249.5 84.2C247.8 80.5 243.5 78.2 239.5 78.9C242.2 75.6 241.5 70.1 238.1 67.5C234.7 64.9 229.3 65.8 226.8 69.2C226.8 64.6 223 60.5 218.6 59.3C214.1 58.1 209.2 59.5 205.5 62.2C202.4 64.5 199.9 67.8 199.4 71.6C195.5 70 190.8 72.4 188.9 76.1C188.7 76.5 188.5 77 188.3 77.6C185.7 86.7 192.9 95.7 202.4 95.6L242.2 95.3Z" stroke="#071146" stroke-width="2" stroke-miterlimit="10" stroke-linecap="round" stroke-linejoin="round"/>
<path d="M97.8001 248.2C103.2 248.2 107.2 242.9 105.4 237.8C105.3 237.6 105.2 237.3 105.1 237.1C103.4 233.4 99.1001 231.1 95.1001 231.8C97.8001 228.5 97.1001 223 93.7001 220.4C90.3001 217.8 84.9001 218.7 82.4001 222.1C82.4001 217.5 78.6001 213.4 74.2001 212.2C69.7001 211 64.8001 212.4 61.1001 215.1C58.0001 217.4 55.5001 220.7 55.0001 224.5C51.1001 222.9 46.4001 225.3 44.5001 229C44.3001 229.4 44.1001 229.9 43.9001 230.5C41.3001 239.6 48.5001 248.6 58.0001 248.5L97.8001 248.2Z" stroke="#071146" stroke-width="2" stroke-miterlimit="10" stroke-linecap="round" stroke-linejoin="round"/>
<path d="M502.2 156.1C507.6 156.1 511.6 150.8 509.8 145.7C509.7 145.5 509.6 145.2 509.5 145C507.8 141.3 503.5 139 499.5 139.7C502.2 136.4 501.5 130.9 498.1 128.3C494.7 125.7 489.3 126.6 486.8 130C486.8 125.4 483 121.3 478.6 120.1C474.2 118.9 469.2 120.3 465.5 123C462.4 125.3 459.9 128.6 459.4 132.4C455.5 130.8 450.8 133.2 448.9 136.9C448.7 137.3 448.5 137.8 448.3 138.4C445.7 147.5 452.9 156.5 462.4 156.4L502.2 156.1Z" stroke="#071146" stroke-width="2" stroke-miterlimit="10" stroke-linecap="round" stroke-linejoin="round"/>
<path d="M227.2 158.2H224.7C223.6 158.2 222.7 157.3 222.7 156.2V153.7C222.7 152.6 223.6 151.7 224.7 151.7H227.2C228.3 151.7 229.2 152.6 229.2 153.7V156.2C229.2 157.3 228.3 158.2 227.2 158.2Z" stroke="#95E196" stroke-width="2" stroke-miterlimit="10" stroke-linecap="round" stroke-linejoin="round"/>
<path d="M233.6 155H250.9" stroke="#95E196" stroke-width="2" stroke-miterlimit="10" stroke-linecap="round" stroke-linejoin="round"/>
<path d="M227.2 169.5H224.7C223.6 169.5 222.7 168.6 222.7 167.5V165C222.7 163.9 223.6 163 224.7 163H227.2C228.3 163 229.2 163.9 229.2 165V167.5C229.2 168.6 228.3 169.5 227.2 169.5Z" stroke="#95E196" stroke-width="2" stroke-miterlimit="10" stroke-linecap="round" stroke-linejoin="round"/>
<path d="M233.6 166.3H250.9" stroke="#95E196" stroke-width="2" stroke-miterlimit="10" stroke-linecap="round" stroke-linejoin="round"/>
<path d="M227.2 180.8H224.7C223.6 180.8 222.7 179.9 222.7 178.8V176.3C222.7 175.2 223.6 174.3 224.7 174.3H227.2C228.3 174.3 229.2 175.2 229.2 176.3V178.8C229.2 179.9 228.3 180.8 227.2 180.8Z" stroke="#95E196" stroke-width="2" stroke-miterlimit="10" stroke-linecap="round" stroke-linejoin="round"/>
<path d="M233.6 177.6H250.9" stroke="#95E196" stroke-width="2" stroke-miterlimit="10" stroke-linecap="round" stroke-linejoin="round"/>
<path d="M227.2 192.1H224.7C223.6 192.1 222.7 191.2 222.7 190.1V187.6C222.7 186.5 223.6 185.6 224.7 185.6H227.2C228.3 185.6 229.2 186.5 229.2 187.6V190.1C229.2 191.2 228.3 192.1 227.2 192.1Z" stroke="#95E196" stroke-width="2" stroke-miterlimit="10" stroke-linecap="round" stroke-linejoin="round"/>
<path d="M233.6 188.9H250.9" stroke="#95E196" stroke-width="2" stroke-miterlimit="10" stroke-linecap="round" stroke-linejoin="round"/>
<path d="M227.2 203.4H224.7C223.6 203.4 222.7 202.5 222.7 201.4V199C222.7 197.9 223.6 197 224.7 197H227.2C228.3 197 229.2 197.9 229.2 199V201.5C229.2 202.5 228.3 203.4 227.2 203.4Z" stroke="#95E196" stroke-width="2" stroke-miterlimit="10" stroke-linecap="round" stroke-linejoin="round"/>
<path d="M233.6 200.2H250.9" stroke="#95E196" stroke-width="2" stroke-miterlimit="10" stroke-linecap="round" stroke-linejoin="round"/>
<path d="M227.2 214.7H224.7C223.6 214.7 222.7 213.8 222.7 212.7V210.2C222.7 209.1 223.6 208.2 224.7 208.2H227.2C228.3 208.2 229.2 209.1 229.2 210.2V212.7C229.2 213.8 228.3 214.7 227.2 214.7Z" stroke="#95E196" stroke-width="2" stroke-miterlimit="10" stroke-linecap="round" stroke-linejoin="round"/>
<path d="M233.6 211.5H250.9" stroke="#95E196" stroke-width="2" stroke-miterlimit="10" stroke-linecap="round" stroke-linejoin="round"/>
<path d="M346.7 158.2H344.2C343.1 158.2 342.2 157.3 342.2 156.2V153.7C342.2 152.6 343.1 151.7 344.2 151.7H346.7C347.8 151.7 348.7 152.6 348.7 153.7V156.2C348.7 157.3 347.8 158.2 346.7 158.2Z" stroke="#95E196" stroke-width="2" stroke-miterlimit="10" stroke-linecap="round" stroke-linejoin="round"/>
<path d="M353.1 155H370.4" stroke="#95E196" stroke-width="2" stroke-miterlimit="10" stroke-linecap="round" stroke-linejoin="round"/>
<path d="M346.7 169.5H344.2C343.1 169.5 342.2 168.6 342.2 167.5V165C342.2 163.9 343.1 163 344.2 163H346.7C347.8 163 348.7 163.9 348.7 165V167.5C348.7 168.6 347.8 169.5 346.7 169.5Z" stroke="#95E196" stroke-width="2" stroke-miterlimit="10" stroke-linecap="round" stroke-linejoin="round"/>
<path d="M353.1 166.3H370.4" stroke="#95E196" stroke-width="2" stroke-miterlimit="10" stroke-linecap="round" stroke-linejoin="round"/>
<path d="M346.7 180.8H344.2C343.1 180.8 342.2 179.9 342.2 178.8V176.3C342.2 175.2 343.1 174.3 344.2 174.3H346.7C347.8 174.3 348.7 175.2 348.7 176.3V178.8C348.7 179.9 347.8 180.8 346.7 180.8Z" stroke="#95E196" stroke-width="2" stroke-miterlimit="10" stroke-linecap="round" stroke-linejoin="round"/>
<path d="M353.1 177.6H370.4" stroke="#95E196" stroke-width="2" stroke-miterlimit="10" stroke-linecap="round" stroke-linejoin="round"/>
<path d="M346.7 192.1H344.2C343.1 192.1 342.2 191.2 342.2 190.1V187.6C342.2 186.5 343.1 185.6 344.2 185.6H346.7C347.8 185.6 348.7 186.5 348.7 187.6V190.1C348.7 191.2 347.8 192.1 346.7 192.1Z" stroke="#95E196" stroke-width="2" stroke-miterlimit="10" stroke-linecap="round" stroke-linejoin="round"/>
<path d="M353.1 188.9H370.4" stroke="#95E196" stroke-width="2" stroke-miterlimit="10" stroke-linecap="round" stroke-linejoin="round"/>
<path d="M346.7 203.4H344.2C343.1 203.4 342.2 202.5 342.2 201.4V199C342.2 197.9 343.1 197 344.2 197H346.7C347.8 197 348.7 197.9 348.7 199V201.5C348.7 202.5 347.8 203.4 346.7 203.4Z" stroke="#95E196" stroke-width="2" stroke-miterlimit="10" stroke-linecap="round" stroke-linejoin="round"/>
<path d="M353.1 200.2H370.4" stroke="#95E196" stroke-width="2" stroke-miterlimit="10" stroke-linecap="round" stroke-linejoin="round"/>
<path d="M346.7 214.7H344.2C343.1 214.7 342.2 213.8 342.2 212.7V210.2C342.2 209.1 343.1 208.2 344.2 208.2H346.7C347.8 208.2 348.7 209.1 348.7 210.2V212.7C348.7 213.8 347.8 214.7 346.7 214.7Z" stroke="#95E196" stroke-width="2" stroke-miterlimit="10" stroke-linecap="round" stroke-linejoin="round"/>
<path d="M353.1 211.5H370.4" stroke="#95E196" stroke-width="2" stroke-miterlimit="10" stroke-linecap="round" stroke-linejoin="round"/>
<path d="M211.1 51.1V35.2C211.1 25.9 218.6 18.4 227.9 18.4H285.7C295 18.4 302.5 25.9 302.5 35.2V91.2C302.5 100.5 310 108 319.3 108H347.1C356.4 108 363.9 100.5 363.9 91.2V63.9" stroke="#B3C1F4" stroke-width="2" stroke-miterlimit="10" stroke-linecap="round" stroke-linejoin="round" stroke-dasharray="6 6"/>
<path d="M560 93.4834V79.5203C560 74.2841 554.643 70 548.094 70H508.906C502.357 70 497 74.2841 497 79.5203V113" stroke="white" stroke-width="2" stroke-miterlimit="10" stroke-linecap="round" stroke-linejoin="round" stroke-dasharray="6 6"/>
</g>
<defs>
<clipPath id="clip0">
<rect width="586" height="272.7" fill="white"/>
</clipPath>
</defs>
</svg>
