<svg width="586" height="272" viewBox="0 0 586 272" fill="none" xmlns="http://www.w3.org/2000/svg">
<g clip-path="url(#clip0)">
<path d="M581.6 59.6H0V272H581.6C584 272 586 270 586 267.6V64C586 61.5 584 59.6 581.6 59.6Z" fill="#95E196"/>
<path d="M330.361 48.7691C340.347 38.9158 340.454 22.8336 330.6 12.8484C320.747 2.86325 304.665 2.75635 294.68 12.6096C284.694 22.4629 284.588 38.5452 294.441 48.5303C304.294 58.5155 320.376 58.6224 330.361 48.7691Z" fill="#FEDB8F"/>
<path d="M292.9 53.2L289.7 56.3L283 49.4L286.1 46.3" stroke="#071146" stroke-width="2" stroke-miterlimit="10" stroke-linecap="round" stroke-linejoin="round"/>
<path d="M258.8 76.2L284.5 50.9L288.1 54.5L262.4 79.8C261.4 80.8 259.8 80.8 258.8 79.8C257.7 78.8 257.7 77.2 258.8 76.2Z" stroke="#071146" stroke-width="2" stroke-miterlimit="10" stroke-linecap="round" stroke-linejoin="round"/>
<path d="M330.387 50.4901C341.748 39.2791 341.869 20.9808 330.658 9.61972C319.447 -1.74134 301.149 -1.86297 289.788 9.34806C278.427 20.5591 278.305 38.8574 289.516 50.2184C300.727 61.5795 319.026 61.7011 330.387 50.4901Z" stroke="#071146" stroke-width="2" stroke-miterlimit="10" stroke-linecap="round" stroke-linejoin="round"/>
<path d="M327.928 47.9988C337.914 38.1455 338.02 22.0633 328.167 12.0781C318.314 2.09297 302.232 1.98607 292.246 11.8394C282.261 21.6926 282.154 37.7749 292.008 47.76C301.861 57.7452 317.943 57.8521 327.928 47.9988Z" stroke="#071146" stroke-width="2" stroke-miterlimit="10" stroke-linecap="round" stroke-linejoin="round"/>
<path d="M309.626 43C309.114 43 308.674 42.7606 308.308 42.4414L297.614 31.4295C296.808 30.6315 296.808 29.275 297.541 28.3972C298.273 27.5195 299.518 27.5195 300.324 28.3174L309.333 37.5738L320.467 20.8964C321.126 19.9388 322.298 19.6994 323.177 20.4176C324.056 21.1357 324.276 22.4125 323.617 23.37L311.165 42.0424C310.798 42.5212 310.286 42.8404 309.773 42.9202C309.773 43 309.7 43 309.626 43Z" fill="#95E196"/>
<path d="M435.6 159.5H157.4C147.7 159.5 139.7 151.6 139.7 141.8V137.4C139.7 127.7 147.6 119.7 157.4 119.7H435.7C445.4 119.7 453.4 127.6 453.4 137.4V141.8C453.3 151.6 445.3 159.5 435.6 159.5Z" fill="white"/>
<path d="M432.1 155.8H153.9C144.2 155.8 136.2 147.9 136.2 138.1V133.7C136.2 124 144.1 116 153.9 116H432.2C441.9 116 449.9 123.9 449.9 133.7V138.1C449.8 147.9 441.8 155.8 432.1 155.8Z" stroke="#071146" stroke-width="2" stroke-miterlimit="10" stroke-linecap="round" stroke-linejoin="round"/>
<path d="M429.136 140.799C432.65 137.285 432.65 131.586 429.136 128.072C425.621 124.557 419.923 124.557 416.408 128.072C412.893 131.586 412.893 137.285 416.408 140.799C419.923 144.314 425.621 144.314 429.136 140.799Z" stroke="#071146" stroke-width="2" stroke-miterlimit="10" stroke-linecap="round" stroke-linejoin="round"/>
<path d="M429.2 140.8L434.8 146.5" stroke="#071146" stroke-width="2" stroke-miterlimit="10" stroke-linecap="round" stroke-linejoin="round"/>
<path d="M231.4 66.7H42.3C35.7 66.7 30.3 61.3 30.3 54.7V51.7C30.3 45.1 35.7 39.7 42.3 39.7H231.4C238 39.7 243.4 45.1 243.4 51.7V54.7C243.4 61.3 238 66.7 231.4 66.7Z" fill="#B6E2DF"/>
<path d="M227.7 62.9H38.6001C32.0001 62.9 26.6001 57.5 26.6001 50.9V47.9C26.6001 41.3 32.0001 35.9 38.6001 35.9H227.7C234.3 35.9 239.7 41.3 239.7 47.9V50.9C239.7 57.5 234.3 62.9 227.7 62.9Z" stroke="#071146" stroke-width="2" stroke-miterlimit="10" stroke-linecap="round" stroke-linejoin="round"/>
<path d="M224.06 51.9571C226.599 49.4187 226.662 45.3665 224.202 42.9062C221.741 40.446 217.689 40.5093 215.151 43.0477C212.612 45.586 212.549 49.6383 215.009 52.0985C217.47 54.5588 221.522 54.4955 224.06 51.9571Z" stroke="white" stroke-width="2" stroke-miterlimit="10" stroke-linecap="round" stroke-linejoin="round"/>
<path d="M224.1 52L228.1 56" stroke="white" stroke-width="2" stroke-miterlimit="10" stroke-linecap="round" stroke-linejoin="round"/>
<path d="M201.2 35.9V62.9" stroke="#071146" stroke-width="2" stroke-miterlimit="10" stroke-linecap="round" stroke-linejoin="round"/>
<path d="M488.4 205.3H299.3C292.7 205.3 287.3 199.9 287.3 193.3V190.3C287.3 183.7 292.7 178.3 299.3 178.3H488.4C495 178.3 500.4 183.7 500.4 190.3V193.3C500.4 199.9 495 205.3 488.4 205.3Z" fill="#B6E2DF"/>
<path d="M484.6 201.4H295.5C288.9 201.4 283.5 196 283.5 189.4V186.4C283.5 179.8 288.9 174.4 295.5 174.4H484.6C491.2 174.4 496.6 179.8 496.6 186.4V189.4C496.6 196 491.2 201.4 484.6 201.4Z" stroke="#071146" stroke-width="2" stroke-miterlimit="10" stroke-linecap="round" stroke-linejoin="round"/>
<path d="M481.077 190.539C483.615 188 483.679 183.948 481.218 181.488C478.758 179.028 474.706 179.091 472.167 181.629C469.629 184.168 469.566 188.22 472.026 190.68C474.486 193.141 478.539 193.077 481.077 190.539Z" stroke="white" stroke-width="2" stroke-miterlimit="10" stroke-linecap="round" stroke-linejoin="round"/>
<path d="M481.1 190.5L485.1 194.5" stroke="white" stroke-width="2" stroke-miterlimit="10" stroke-linecap="round" stroke-linejoin="round"/>
<path d="M458.2 174.4V201.4" stroke="#071146" stroke-width="2" stroke-miterlimit="10" stroke-linecap="round" stroke-linejoin="round"/>
<path d="M542.6 104.8H353.5C346.9 104.8 341.5 99.4 341.5 92.8V89.8C341.5 83.2 346.9 77.8 353.5 77.8H542.6C549.2 77.8 554.6 83.2 554.6 89.8V92.8C554.6 99.4 549.2 104.8 542.6 104.8Z" fill="#B6E2DF"/>
<path d="M538.8 101H349.7C343.1 101 337.7 95.6 337.7 89V86C337.7 79.4 343.1 74 349.7 74H538.8C545.4 74 550.8 79.4 550.8 86V89C550.8 95.6 545.4 101 538.8 101Z" stroke="#071146" stroke-width="2" stroke-miterlimit="10" stroke-linecap="round" stroke-linejoin="round"/>
<path d="M535.15 90.0982C537.688 87.5598 537.752 83.5076 535.291 81.0473C532.831 78.5871 528.779 78.6504 526.24 81.1888C523.702 83.7271 523.639 87.7794 526.099 90.2396C528.559 92.6999 532.612 92.6366 535.15 90.0982Z" stroke="white" stroke-width="2" stroke-miterlimit="10" stroke-linecap="round" stroke-linejoin="round"/>
<path d="M535.2 90.1L539.2 94.1" stroke="white" stroke-width="2" stroke-miterlimit="10" stroke-linecap="round" stroke-linejoin="round"/>
<path d="M512.3 74V101" stroke="#071146" stroke-width="2" stroke-miterlimit="10" stroke-linecap="round" stroke-linejoin="round"/>
<path d="M267.8 242.5H78.7C72.1 242.5 66.7 237.1 66.7 230.5V227.5C66.7 220.9 72.1 215.5 78.7 215.5H267.8C274.4 215.5 279.8 220.9 279.8 227.5V230.5C279.8 237.1 274.4 242.5 267.8 242.5Z" fill="#B6E2DF"/>
<path d="M264 238.7H74.8999C68.2999 238.7 62.8999 233.3 62.8999 226.7V223.7C62.8999 217.1 68.2999 211.7 74.8999 211.7H264C270.6 211.7 276 217.1 276 223.7V226.7C276 233.3 270.6 238.7 264 238.7Z" stroke="#071146" stroke-width="2" stroke-miterlimit="10" stroke-linecap="round" stroke-linejoin="round"/>
<path d="M260.458 227.736C262.997 225.197 263.06 221.145 260.6 218.685C258.139 216.224 254.087 216.288 251.549 218.826C249.01 221.365 248.947 225.417 251.407 227.877C253.868 230.337 257.92 230.274 260.458 227.736Z" stroke="white" stroke-width="2" stroke-miterlimit="10" stroke-linecap="round" stroke-linejoin="round"/>
<path d="M260.5 227.8L264.5 231.8" stroke="white" stroke-width="2" stroke-miterlimit="10" stroke-linecap="round" stroke-linejoin="round"/>
<path d="M237.6 211.7V238.7" stroke="#071146" stroke-width="2" stroke-miterlimit="10" stroke-linecap="round" stroke-linejoin="round"/>
<path d="M531 157.7C530.5 158.2 529.8 158.2 529.2 157.9L529.1 157.8L527.5 156.2L525.2 158.5C524.7 159 523.8 159 523.3 158.5C522.8 158 522.8 157.2 523.2 156.7L523.3 156.6L525.6 154.3L523.7 152.4L520.2 155.9C519.7 156.4 518.8 156.4 518.3 155.9C517.8 155.4 517.8 154.6 518.2 154.1L518.3 154L521.8 150.5L514.7 143.4C511.8 145.6 507.7 145.4 505.1 142.8C502.3 140 502.3 135.3 505.1 132.5C507.9 129.7 512.6 129.7 515.4 132.5C517.8 134.9 518.2 138.6 516.5 141.4L531.2 156.1C531.5 156.3 531.5 157.1 531 157.7ZM513.2 140.6C515 138.8 515 135.9 513.2 134.2C511.4 132.4 508.5 132.4 506.8 134.2C505 136 505 138.9 506.8 140.6C508.6 142.4 511.5 142.4 513.2 140.6Z" fill="white"/>
<path d="M80.6001 144.4C81.2001 145.3 81.1001 146.6 80.3001 147.3L80.1001 147.5L77.0001 149.7L80.0001 154C80.7001 155 80.4001 156.4 79.4001 157.1C78.5001 157.7 77.2001 157.6 76.5001 156.8L76.3001 156.6L73.3001 152.3L69.6001 154.8L74.3001 161.5C75.0001 162.5 74.7001 163.9 73.7001 164.6C72.8001 165.2 71.5001 165.1 70.8001 164.3L70.6001 164.1L65.9001 157.4L52.4001 166.7C55.1001 171.9 53.6001 178.5 48.6001 181.9C43.2001 185.6 35.8001 184.3 32.1001 178.9C28.4001 173.5 29.7001 166.1 35.1001 162.4C39.6001 159.2 45.6001 159.7 49.6001 163.2L77.4001 143.9C78.5001 143.1 79.9001 143.4 80.6001 144.4ZM48.1001 167.8C45.8001 164.4 41.1001 163.6 37.8001 165.9C34.4001 168.2 33.6001 172.9 35.9001 176.2C38.2001 179.5 42.9001 180.4 46.2001 178.1C49.6001 175.8 50.4001 171.2 48.1001 167.8Z" fill="white"/>
<path d="M450.4 48.3C450 48.9 449.2 49 448.7 48.7L448.5 48.6L446.6 47.2L444.7 49.8C444.3 50.4 443.4 50.5 442.8 50.1C442.2 49.7 442.1 48.9 442.4 48.3L442.5 48.1L444.4 45.5L442.2 43.9L439.2 47.9C438.8 48.5 437.9 48.6 437.3 48.2C436.7 47.8 436.6 47 436.9 46.4L437 46.2L440 42.2L431.9 36.2C429.4 38.8 425.3 39.2 422.3 37C419.1 34.6 418.4 30 420.8 26.8C423.2 23.6 427.8 22.9 431 25.3C433.7 27.3 434.6 30.9 433.4 33.9L450.1 46.3C450.7 46.9 450.8 47.7 450.4 48.3ZM430.3 34.1C431.8 32.1 431.4 29.2 429.4 27.7C427.4 26.2 424.5 26.6 423 28.6C421.5 30.6 421.9 33.5 423.9 35C426 36.5 428.8 36.1 430.3 34.1Z" fill="#95E196"/>
<path d="M559.9 20.4C560.3 20.9 560.3 21.7 559.9 22.2L559.8 22.3L558 23.8L560 26.3C560.5 26.9 560.4 27.7 559.8 28.2C559.3 28.6 558.5 28.6 558 28.2L557.9 28.1L555.9 25.6L553.8 27.3L557 31.2C557.5 31.8 557.4 32.6 556.8 33.1C556.3 33.5 555.5 33.5 555 33.1L554.9 33L551.7 29.1L543.9 35.5C545.8 38.6 545.3 42.7 542.4 45C539.3 47.6 534.7 47.1 532.1 44C529.5 40.9 530 36.3 533.1 33.7C535.7 31.5 539.4 31.5 542 33.4L558 20.1C558.5 19.7 559.4 19.8 559.9 20.4ZM541.2 36.5C539.6 34.6 536.7 34.3 534.8 35.9C532.9 37.5 532.6 40.4 534.2 42.3C535.8 44.2 538.7 44.5 540.6 42.9C542.5 41.3 542.8 38.4 541.2 36.5Z" fill="#95E196"/>
<path d="M368.9 224.8C369.3 225.1 369.4 225.6 369.2 226.1L369.1 226.2L368.1 227.6L370 229C370.5 229.3 370.6 230 370.2 230.4C369.9 230.8 369.3 230.9 368.9 230.7L368.8 230.6L366.9 229.2L365.7 230.8L368.7 233C369.2 233.3 369.3 234 368.9 234.4C368.6 234.8 368 234.9 367.6 234.7L367.5 234.6L364.5 232.4L360.1 238.4C362.1 240.2 362.4 243.3 360.8 245.5C359 247.9 355.7 248.5 353.2 246.7C350.8 244.9 350.2 241.6 352 239.1C353.5 237.1 356.1 236.4 358.4 237.2L367.5 224.7C367.8 224.5 368.4 224.4 368.9 224.8ZM358.4 239.7C356.9 238.6 354.8 238.9 353.7 240.4C352.6 241.9 352.9 244 354.4 245.1C355.9 246.2 358 245.9 359.1 244.4C360.3 242.9 359.9 240.8 358.4 239.7Z" fill="white"/>
<path d="M451.5 247.5C451.2 247.9 450.6 248 450.2 247.7L450.1 247.6L448.8 246.5L447.3 248.3C446.9 248.7 446.3 248.8 445.9 248.4C445.5 248.1 445.4 247.5 445.7 247.1L445.8 247L447.3 245.2L445.7 243.9L443.3 246.8C442.9 247.2 442.3 247.3 441.9 246.9C441.5 246.6 441.4 246 441.7 245.6L441.8 245.5L444.2 242.6L438.4 237.9C436.4 239.7 433.4 239.9 431.3 238.1C429 236.2 428.7 232.8 430.6 230.5C432.5 228.2 435.9 227.9 438.2 229.8C440.1 231.4 440.7 234.1 439.7 236.3L451.6 246.1C451.8 246.4 451.8 247 451.5 247.5ZM437.2 236.1C438.4 234.7 438.2 232.5 436.7 231.3C435.3 230.1 433.1 230.3 431.9 231.8C430.7 233.2 430.9 235.4 432.4 236.6C433.9 237.8 436 237.6 437.2 236.1Z" fill="white"/>
<path d="M215.8 94.4C215.5 94.8 214.9 94.9 214.5 94.6L214.4 94.5L213.1 93.4L211.6 95.2C211.2 95.6 210.6 95.7 210.2 95.3C209.8 95 209.7 94.4 210 94L211.5 92.2L209.9 90.9L207.5 93.8C207.1 94.2 206.5 94.3 206.1 93.9C205.7 93.6 205.6 93 205.9 92.6L206 92.5L208.4 89.6L202.6 84.9C200.6 86.7 197.6 86.9 195.5 85.1C193.2 83.2 192.9 79.8 194.8 77.5C196.7 75.2 200.1 74.9 202.4 76.8C204.3 78.4 204.9 81.1 203.9 83.3L215.8 93.1C216.1 93.4 216.1 94 215.8 94.4ZM201.5 83.1C202.7 81.7 202.5 79.5 201 78.3C199.6 77.1 197.4 77.3 196.2 78.8C195 80.2 195.2 82.4 196.7 83.6C198.1 84.7 200.3 84.5 201.5 83.1Z" fill="white"/>
<path d="M77.1001 106.6C77.0001 107.1 76.6001 107.5 76.1001 107.5H76.0001L74.3001 107.3L74.0001 109.7C73.9001 110.3 73.4001 110.6 72.9001 110.6C72.4001 110.5 72.0001 110.1 72.0001 109.6V109.5L72.3001 107.1L70.3001 106.8L69.8001 110.5C69.7001 111.1 69.2001 111.4 68.7001 111.4C68.2001 111.3 67.8001 110.9 67.8001 110.4V110.3L68.3001 106.6L60.9001 105.7C60.2001 108.3 57.7001 110.1 55.0001 109.7C52.0001 109.3 49.9001 106.6 50.3001 103.7C50.7001 100.7 53.4001 98.6 56.3001 99C58.8001 99.3 60.7001 101.3 61.0001 103.7L76.3001 105.6C76.8001 105.5 77.2001 106 77.1001 106.6ZM59.0001 104.6C59.2001 102.7 57.9001 101.1 56.1001 100.8C54.2001 100.6 52.6001 101.9 52.3001 103.7C52.1001 105.6 53.4001 107.2 55.2001 107.5C57.1001 107.8 58.8001 106.5 59.0001 104.6Z" fill="white"/>
<path d="M58.2001 46.5H59L57.2001 52.1H56.3L54.9001 47.8L53.4001 52.1H52.6L50.8 46.5H51.7001L53.1 51L54.6 46.5H55.4001L56.8 50.9L58.2001 46.5Z" fill="#071146"/>
<path d="M66.8001 46.5H67.6001L65.8001 52.1H64.9001L63.5001 47.8L62.0001 52.1H61.2001L59.4001 46.5H60.3001L61.7001 51L63.2001 46.5H64.0001L65.4001 50.9L66.8001 46.5Z" fill="#071146"/>
<path d="M75.4 46.5H76.2L74.4 52.1H73.5L72.1 47.8L70.6 52.1H69.8L68 46.5H68.9L70.3 51L71.8 46.5H72.6L74 51L75.4 46.5Z" fill="#071146"/>
<path d="M76.4 52C76.3 51.9 76.2 51.7 76.2 51.5C76.2 51.3 76.3 51.2 76.4 51C76.5 50.9 76.7 50.8 76.8 50.8C77 50.8 77.1 50.9 77.3 51C77.4 51.1 77.5 51.3 77.5 51.5C77.5 51.7 77.4 51.8 77.3 52C77.2 52.1 77 52.2 76.8 52.2C76.6 52.2 76.5 52.2 76.4 52Z" fill="#071146"/>
<path d="M78.8001 52C78.7001 51.9 78.6001 51.7 78.6001 51.5C78.6001 51.3 78.7001 51.2 78.8001 51C78.9001 50.9 79.1001 50.8 79.2001 50.8C79.4001 50.8 79.5001 50.9 79.7001 51C79.8001 51.1 79.9001 51.3 79.9001 51.5C79.9001 51.7 79.8001 51.8 79.7001 52C79.6001 52.1 79.4001 52.2 79.2001 52.2C79.1001 52.2 78.9001 52.2 78.8001 52Z" fill="#071146"/>
<path d="M81.2 52C81.1 51.9 81 51.7 81 51.5C81 51.3 81.1 51.2 81.2 51C81.3 50.9 81.5 50.8 81.6 50.8C81.8 50.8 81.9 50.9 82.1 51C82.2 51.1 82.3 51.3 82.3 51.5C82.3 51.7 82.2 51.8 82.1 52C82 52.1 81.8 52.2 81.6 52.2C81.5 52.2 81.4 52.2 81.2 52Z" fill="#071146"/>
<path d="M364.1 85.7H364.9L363.1 91.3H362.2L360.8 87L359.3 91.3H358.5L356.7 85.7H357.6L359 90.2L360.5 85.7H361.3L362.7 90.1L364.1 85.7Z" fill="#071146"/>
<path d="M372.7 85.7H373.5L371.7 91.3H370.8L369.4 87L367.9 91.3H367.1L365.3 85.7H366.2L367.6 90.2L369.1 85.7H369.9L371.3 90.1L372.7 85.7Z" fill="#071146"/>
<path d="M381.3 85.7H382.1L380.3 91.3H379.4L378 87L376.5 91.3H375.7L373.9 85.7H374.8L376.2 90.2L377.7 85.7H378.5L379.9 90.1L381.3 85.7Z" fill="#071146"/>
<path d="M382.3 91.2C382.2 91.1 382.1 90.9 382.1 90.7C382.1 90.5 382.2 90.4 382.3 90.2C382.4 90.1 382.6 90 382.7 90C382.9 90 383 90.1 383.2 90.2C383.3 90.3 383.4 90.5 383.4 90.7C383.4 90.9 383.3 91 383.2 91.2C383.1 91.3 382.9 91.4 382.7 91.4C382.6 91.4 382.4 91.4 382.3 91.2Z" fill="#071146"/>
<path d="M384.7 91.2C384.6 91.1 384.5 90.9 384.5 90.7C384.5 90.5 384.6 90.4 384.7 90.2C384.8 90.1 385 90 385.1 90C385.3 90 385.4 90.1 385.6 90.2C385.7 90.3 385.8 90.5 385.8 90.7C385.8 90.9 385.7 91 385.6 91.2C385.5 91.3 385.3 91.4 385.1 91.4C385 91.4 384.9 91.4 384.7 91.2Z" fill="#071146"/>
<path d="M387.2 91.2C387.1 91.1 387 90.9 387 90.7C387 90.5 387.1 90.4 387.2 90.2C387.3 90.1 387.5 90 387.6 90C387.8 90 387.9 90.1 388.1 90.2C388.2 90.3 388.3 90.5 388.3 90.7C388.3 90.9 388.2 91 388.1 91.2C388 91.3 387.8 91.4 387.6 91.4C387.4 91.4 387.3 91.4 387.2 91.2Z" fill="#071146"/>
<path d="M310.8 186.9H311.6L309.8 192.5H309L307.6 188.2L306.1 192.5H305.3L303.5 186.9H304.4L305.8 191.4L307.3 186.9H308.1L309.5 191.3L310.8 186.9Z" fill="#071146"/>
<path d="M319.5 186.9H320.3L318.5 192.5H317.6L316.2 188.2L314.7 192.5H313.9L312.1 186.9H313L314.4 191.4L315.9 186.9H316.7L318.1 191.3L319.5 186.9Z" fill="#071146"/>
<path d="M328.1 186.9H328.9L327.1 192.5H326.2L324.8 188.2L323.3 192.5H322.5L320.7 186.9H321.6L323 191.4L324.5 186.9H325.3L326.7 191.3L328.1 186.9Z" fill="#071146"/>
<path d="M329.1 192.4C329 192.3 328.9 192.1 328.9 191.9C328.9 191.7 329 191.6 329.1 191.4C329.2 191.3 329.4 191.2 329.5 191.2C329.7 191.2 329.8 191.3 330 191.4C330.1 191.5 330.2 191.7 330.2 191.9C330.2 192.1 330.1 192.2 330 192.4C329.9 192.5 329.7 192.6 329.5 192.6C329.3 192.6 329.2 192.6 329.1 192.4Z" fill="#071146"/>
<path d="M331.5 192.4C331.4 192.3 331.3 192.1 331.3 191.9C331.3 191.7 331.4 191.6 331.5 191.4C331.6 191.3 331.8 191.2 331.9 191.2C332.1 191.2 332.2 191.3 332.4 191.4C332.5 191.5 332.6 191.7 332.6 191.9C332.6 192.1 332.5 192.2 332.4 192.4C332.3 192.5 332.1 192.6 331.9 192.6C331.8 192.6 331.6 192.6 331.5 192.4Z" fill="#071146"/>
<path d="M333.9 192.4C333.8 192.3 333.7 192.1 333.7 191.9C333.7 191.7 333.8 191.6 333.9 191.4C334 191.3 334.2 191.2 334.3 191.2C334.5 191.2 334.6 191.3 334.8 191.4C334.9 191.5 335 191.7 335 191.9C335 192.1 334.9 192.2 334.8 192.4C334.7 192.5 334.5 192.6 334.3 192.6C334.2 192.6 334.1 192.6 333.9 192.4Z" fill="#071146"/>
<path d="M90.8 224.2H91.6L89.8 229.8H89L87.6 225.5L86.1 229.8H85.3L83.5 224.2H84.4L85.8 228.7L87.3 224.2H88L89.4 228.6L90.8 224.2Z" fill="#071146"/>
<path d="M99.5001 224.2H100.3L98.5001 229.8H97.6001L96.2001 225.5L94.7001 229.8H93.9001L92.1001 224.2H93.0001L94.4001 228.7L95.9001 224.2H96.7001L98.1001 228.6L99.5001 224.2Z" fill="#071146"/>
<path d="M108.1 224.2H108.9L107.1 229.8H106.2L104.8 225.5L103.3 229.8H102.5L100.7 224.2H101.6L103 228.7L104.5 224.2H105.3L106.7 228.6L108.1 224.2Z" fill="#071146"/>
<path d="M109.1 229.7C109 229.6 108.9 229.4 108.9 229.2C108.9 229 109 228.9 109.1 228.7C109.2 228.6 109.4 228.5 109.5 228.5C109.7 228.5 109.8 228.6 110 228.7C110.1 228.8 110.2 229 110.2 229.2C110.2 229.4 110.1 229.5 110 229.7C109.9 229.8 109.7 229.9 109.5 229.9C109.3 229.9 109.2 229.8 109.1 229.7Z" fill="#071146"/>
<path d="M111.5 229.7C111.4 229.6 111.3 229.4 111.3 229.2C111.3 229 111.4 228.9 111.5 228.7C111.6 228.6 111.8 228.5 111.9 228.5C112.1 228.5 112.2 228.6 112.4 228.7C112.5 228.8 112.6 229 112.6 229.2C112.6 229.4 112.5 229.5 112.4 229.7C112.3 229.8 112.1 229.9 111.9 229.9C111.8 229.9 111.6 229.8 111.5 229.7Z" fill="#071146"/>
<path d="M113.9 229.7C113.8 229.6 113.7 229.4 113.7 229.2C113.7 229 113.8 228.9 113.9 228.7C114 228.6 114.2 228.5 114.3 228.5C114.5 228.5 114.6 228.6 114.8 228.7C114.9 228.8 115 229 115 229.2C115 229.4 114.9 229.5 114.8 229.7C114.7 229.8 114.5 229.9 114.3 229.9C114.2 229.9 114.1 229.8 113.9 229.7Z" fill="#071146"/>
<path d="M173.8 144.4L169.5 138.1L168 139.5V144.3H166.2V125.4H168V137.2L173.3 132.1H175.6L170.7 136.8L175.7 144.2H173.8V144.4Z" fill="#071146"/>
<path d="M185.8 132.6C186.7 133.1 187.4 133.9 187.9 134.8C188.4 135.7 188.7 136.8 188.7 137.9C188.7 138.2 188.7 138.5 188.7 138.7H178.7C178.8 139.9 179.2 141 179.9 141.9C180.6 142.8 181.7 143.2 182.9 143.2C183.9 143.2 184.8 143 185.5 142.6C186.2 142.2 186.7 141.7 187.2 141L188.6 141.9C188 142.8 187.3 143.5 186.3 144C185.4 144.5 184.3 144.8 183 144.8C181.8 144.8 180.8 144.5 179.9 144C179 143.5 178.3 142.7 177.7 141.7C177.2 140.7 176.9 139.6 176.9 138.3C176.9 137.1 177.2 135.9 177.7 134.9C178.2 133.9 178.9 133.1 179.8 132.6C180.7 132 181.7 131.8 182.9 131.8C183.9 131.8 184.9 132.1 185.8 132.6ZM186.9 137.2C186.7 135.9 186.3 135 185.6 134.4C184.9 133.8 184 133.5 182.8 133.5C181.7 133.5 180.7 133.9 180 134.6C179.3 135.3 178.8 136.2 178.6 137.3H186.9V137.2Z" fill="#071146"/>
<path d="M199.6 132.2H201.3L194.7 149.6H192.9L194.8 144.6L189.8 132.2H191.6L195.6 142.3L199.6 132.2Z" fill="#071146"/>
<path d="M217.7 132.2H219.4L215.4 144.4H213.6L210.6 135.1L207.4 144.4H205.6L201.6 132.2H203.5L206.6 141.9L209.8 132.2H211.5L214.6 141.8L217.7 132.2Z" fill="#071146"/>
<path d="M223.3 144C222.4 143.4 221.7 142.7 221.1 141.7C220.6 140.7 220.3 139.6 220.3 138.3C220.3 137 220.6 135.9 221.1 135C221.6 134 222.3 133.3 223.2 132.7C224.1 132.1 225.1 131.9 226.3 131.9C227.5 131.9 228.5 132.2 229.4 132.7C230.3 133.3 231 134 231.6 135C232.2 136 232.4 137.1 232.4 138.4C232.4 139.6 232.1 140.8 231.6 141.8C231.1 142.8 230.4 143.6 229.5 144.1C228.6 144.7 227.6 144.9 226.4 144.9C225.2 144.8 224.2 144.5 223.3 144ZM228.6 142.6C229.3 142.2 229.8 141.6 230.1 140.9C230.5 140.2 230.6 139.3 230.6 138.4C230.6 137.5 230.4 136.6 230.1 135.9C229.7 135.2 229.2 134.6 228.6 134.2C228 133.8 227.2 133.6 226.4 133.6C225.6 133.6 224.9 133.8 224.2 134.2C223.6 134.6 223.1 135.2 222.7 135.9C222.3 136.6 222.2 137.5 222.2 138.4C222.2 139.4 222.4 140.2 222.7 140.9C223.1 141.6 223.6 142.2 224.2 142.6C224.8 143 225.6 143.2 226.4 143.2C227.2 143.2 227.9 143 228.6 142.6Z" fill="#071146"/>
<path d="M242.1 132V133.6C241.7 133.4 241.3 133.3 240.9 133.3C240.2 133.3 239.5 133.5 238.8 133.9C238.2 134.3 237.6 134.9 237.3 135.7C236.9 136.5 236.7 137.4 236.7 138.5V144.3H234.9V132.1H236.7V134.5C237.2 133.6 237.8 132.9 238.5 132.4C239.2 131.9 240 131.6 240.9 131.6C241.3 131.8 241.7 131.9 242.1 132Z" fill="#071146"/>
<path d="M254.8 125.5V144.4H253V142.6C252.5 143.3 251.9 143.8 251.2 144.2C250.5 144.6 249.7 144.8 248.8 144.8C247.6 144.8 246.6 144.5 245.7 144C244.8 143.5 244.1 142.7 243.5 141.7C243 140.7 242.7 139.6 242.7 138.3C242.7 137.1 243 135.9 243.5 135C244 134 244.7 133.3 245.6 132.7C246.5 132.1 247.5 131.9 248.7 131.9C249.6 131.9 250.4 132.1 251.1 132.5C251.8 132.9 252.5 133.4 253 134.2V125.7H254.8V125.5ZM250.9 142.6C251.6 142.2 252.1 141.6 252.4 140.9C252.8 140.2 252.9 139.3 252.9 138.4C252.9 137.5 252.7 136.6 252.4 135.9C252 135.2 251.5 134.6 250.9 134.2C250.3 133.8 249.5 133.6 248.7 133.6C247.9 133.6 247.2 133.8 246.5 134.2C245.9 134.6 245.4 135.2 245 135.9C244.6 136.6 244.5 137.5 244.5 138.4C244.5 139.4 244.7 140.2 245 140.9C245.4 141.6 245.9 142.2 246.5 142.6C247.1 143 247.9 143.2 248.7 143.2C249.6 143.2 250.3 143 250.9 142.6Z" fill="#071146"/>
<path d="M258.1 144.2C257.8 143.9 257.7 143.6 257.7 143.2C257.7 142.8 257.8 142.5 258.1 142.2C258.4 141.9 258.7 141.8 259.1 141.8C259.5 141.8 259.8 141.9 260.1 142.2C260.4 142.5 260.5 142.8 260.5 143.2C260.5 143.6 260.4 143.9 260.1 144.2C259.8 144.5 259.5 144.6 259.1 144.6C258.7 144.6 258.3 144.5 258.1 144.2Z" fill="#071146"/>
<path d="M263.4 144.2C263.1 143.9 263 143.6 263 143.2C263 142.8 263.1 142.5 263.4 142.2C263.7 141.9 264 141.8 264.4 141.8C264.8 141.8 265.1 141.9 265.4 142.2C265.7 142.5 265.8 142.8 265.8 143.2C265.8 143.6 265.7 143.9 265.4 144.2C265.1 144.5 264.8 144.6 264.4 144.6C263.9 144.6 263.6 144.5 263.4 144.2Z" fill="#071146"/>
<path d="M268.6 144.2C268.3 143.9 268.2 143.6 268.2 143.2C268.2 142.8 268.3 142.5 268.6 142.2C268.9 141.9 269.2 141.8 269.6 141.8C270 141.8 270.3 141.9 270.6 142.2C270.9 142.5 271 142.8 271 143.2C271 143.6 270.9 143.9 270.6 144.2C270.3 144.5 270 144.6 269.6 144.6C269.2 144.6 268.9 144.5 268.6 144.2Z" fill="#071146"/>
<path d="M517.262 237.099C527.01 227.011 526.735 210.931 516.647 201.183C506.56 191.435 490.48 191.71 480.732 201.798C470.984 211.885 471.259 227.965 481.346 237.713C491.434 247.462 507.514 247.186 517.262 237.099Z" fill="#FEDB8F"/>
<path d="M518 196.5L521.1 193.3L528 200L524.9 203.2" stroke="#071146" stroke-width="2" stroke-miterlimit="10" stroke-linecap="round" stroke-linejoin="round"/>
<path d="M551.6 172.7L526.5 198.6L522.8 195L547.9 169.1C548.9 168.1 550.5 168.1 551.5 169C552.6 170.1 552.6 171.7 551.6 172.7Z" stroke="#071146" stroke-width="2" stroke-miterlimit="10" stroke-linecap="round" stroke-linejoin="round"/>
<path d="M522.187 240.225C533.278 228.748 532.965 210.452 521.487 199.361C510.01 188.27 491.714 188.583 480.623 200.06C469.532 211.538 469.845 229.834 481.322 240.925C492.8 252.016 511.096 251.703 522.187 240.225Z" stroke="#071146" stroke-width="2" stroke-miterlimit="10" stroke-linecap="round" stroke-linejoin="round"/>
<path d="M519.67 237.793C529.418 227.706 529.143 211.626 519.055 201.878C508.968 192.13 492.888 192.405 483.14 202.492C473.392 212.58 473.667 228.66 483.754 238.408C493.842 248.156 509.922 247.881 519.67 237.793Z" stroke="#071146" stroke-width="2" stroke-miterlimit="10" stroke-linecap="round" stroke-linejoin="round"/>
<path d="M500.5 230.4C500 230.4 499.5 230.2 499.2 229.8L489 219.1C488.2 218.3 488.3 217.1 489.1 216.3C489.9 215.5 491.1 215.6 491.9 216.4L500.5 225.5L512.5 210.7C513.2 209.9 514.4 209.7 515.3 210.4C516.1 211.1 516.3 212.3 515.6 213.2L502.2 229.8C501.8 230.2 501.3 230.5 500.7 230.5C500.6 230.4 500.6 230.4 500.5 230.4Z" fill="#95E196"/>
</g>
<defs>
<clipPath id="clip0">
<rect width="586" height="272" fill="white"/>
</clipPath>
</defs>
</svg>
