<svg width="114" height="95" viewBox="0 0 114 95" fill="none" xmlns="http://www.w3.org/2000/svg">
<g clip-path="url(#clip0)">
<path d="M109.8 5.30005H9.09995C7.49995 5.30005 6.19995 6.60005 6.19995 8.20005V91C6.19995 92.6 7.49995 93.9 9.09995 93.9H109.8C111.4 93.9 112.7 92.6 112.7 91V8.10005C112.7 6.60005 111.4 5.30005 109.8 5.30005Z" fill="white"/>
<path d="M56.7 75.8001C67.1934 75.8001 75.6999 67.2935 75.6999 56.8C75.6999 46.3066 67.1934 37.8 56.7 37.8C46.2065 37.8 37.7 46.3066 37.7 56.8C37.7 67.2935 46.2065 75.8001 56.7 75.8001Z" fill="#95E196"/>
<path d="M107.7 93.9H6C3.2 93.9 1 91.6 1 88.9V6C1 3.2 3.3 1 6 1H107.7C110.5 1 112.7 3.3 112.7 6V88.9C112.7 91.6 110.4 93.9 107.7 93.9Z" stroke="#071146" stroke-width="2" stroke-miterlimit="10" stroke-linecap="round" stroke-linejoin="round"/>
<path d="M1 15.5H112.7" stroke="#071146" stroke-width="2" stroke-miterlimit="10" stroke-linecap="round" stroke-linejoin="round"/>
<path d="M12.6 10.8C13.8703 10.8 14.9 9.77021 14.9 8.49995C14.9 7.2297 13.8703 6.19995 12.6 6.19995C11.3298 6.19995 10.3 7.2297 10.3 8.49995C10.3 9.77021 11.3298 10.8 12.6 10.8Z" stroke="#071146" stroke-width="2" stroke-miterlimit="10" stroke-linecap="round" stroke-linejoin="round"/>
<path d="M25.4001 10.8C26.6704 10.8 27.7001 9.77021 27.7001 8.49995C27.7001 7.2297 26.6704 6.19995 25.4001 6.19995C24.1298 6.19995 23.1001 7.2297 23.1001 8.49995C23.1001 9.77021 24.1298 10.8 25.4001 10.8Z" stroke="#071146" stroke-width="2" stroke-miterlimit="10" stroke-linecap="round" stroke-linejoin="round"/>
<path d="M38.1999 10.8C39.4702 10.8 40.4999 9.77021 40.4999 8.49995C40.4999 7.2297 39.4702 6.19995 38.1999 6.19995C36.9296 6.19995 35.8999 7.2297 35.8999 8.49995C35.8999 9.77021 36.9296 10.8 38.1999 10.8Z" stroke="#071146" stroke-width="2" stroke-miterlimit="10" stroke-linecap="round" stroke-linejoin="round"/>
<path d="M69.3684 71.0527C77.9156 63.0511 78.3579 49.6357 70.3563 41.0886C62.3548 32.5414 48.9394 32.0991 40.3923 40.1007C31.8451 48.1022 31.4028 61.5176 39.4043 70.0647C47.4059 78.6119 60.8213 79.0542 69.3684 71.0527Z" stroke="#071146" stroke-width="2" stroke-miterlimit="10" stroke-linecap="round" stroke-linejoin="round"/>
<path d="M71.4999 68.7L73.6999 71L68.5999 75.8L66.3999 73.5" stroke="#071146" stroke-width="2" stroke-miterlimit="10" stroke-linecap="round" stroke-linejoin="round"/>
<path d="M72.5003 72.2L81.0003 81.3C81.7003 82.1 81.7003 83.2 80.9003 83.9C80.1003 84.6 79.0003 84.6 78.3003 83.8L69.8003 74.7" stroke="#071146" stroke-width="2" stroke-miterlimit="10" stroke-linecap="round" stroke-linejoin="round"/>
<path d="M13.6001 28.6H99.8001" stroke="#071146" stroke-width="2" stroke-miterlimit="10" stroke-linecap="round" stroke-linejoin="round"/>
<path d="M75.7002 40.8H99.8002" stroke="#071146" stroke-width="2" stroke-miterlimit="10" stroke-linecap="round" stroke-linejoin="round"/>
<path d="M13.6001 40.8H33.7001" stroke="#071146" stroke-width="2" stroke-miterlimit="10" stroke-linecap="round" stroke-linejoin="round"/>
<path d="M84.1001 76.8H99.8001" stroke="#071146" stroke-width="2" stroke-miterlimit="10" stroke-linecap="round" stroke-linejoin="round"/>
<path d="M13.6001 76.8H33.7001" stroke="#071146" stroke-width="2" stroke-miterlimit="10" stroke-linecap="round" stroke-linejoin="round"/>
<path d="M80.8999 64.6H99.7999" stroke="#071146" stroke-width="2" stroke-miterlimit="10" stroke-linecap="round" stroke-linejoin="round"/>
<path d="M13.6001 64.6H28.7001" stroke="#071146" stroke-width="2" stroke-miterlimit="10" stroke-linecap="round" stroke-linejoin="round"/>
<path d="M80.8999 52.7H99.7999" stroke="#071146" stroke-width="2" stroke-miterlimit="10" stroke-linecap="round" stroke-linejoin="round"/>
<path d="M13.6001 52.7H28.7001" stroke="#071146" stroke-width="2" stroke-miterlimit="10" stroke-linecap="round" stroke-linejoin="round"/>
<path d="M54.8001 54.9C57.672 54.9 60.0001 52.5719 60.0001 49.7C60.0001 46.8281 57.672 44.5 54.8001 44.5C51.9282 44.5 49.6001 46.8281 49.6001 49.7C49.6001 52.5719 51.9282 54.9 54.8001 54.9Z" stroke="#071146" stroke-width="2" stroke-miterlimit="10" stroke-linecap="round" stroke-linejoin="round"/>
<path d="M54.8 68.7C59.1 68.7 62.6 65.2001 62.6 60.9001V59.7001C62.6 58.9001 62 58.3 61.2 58.3H48.4C47.6 58.3 47 58.9001 47 59.7001V60.9001C47 65.1001 50.5 68.7 54.8 68.7Z" stroke="#071146" stroke-width="2" stroke-miterlimit="10" stroke-linecap="round" stroke-linejoin="round"/>
</g>
<defs>
<clipPath id="clip0">
<rect width="113.7" height="94.9" fill="white"/>
</clipPath>
</defs>
</svg>
