<svg width="114" height="96" viewBox="0 0 114 96" fill="none" xmlns="http://www.w3.org/2000/svg">
<g clip-path="url(#clip0)">
<path d="M60.5 95.9C84.3587 95.9 103.7 76.5587 103.7 52.7C103.7 28.8413 84.3587 9.5 60.5 9.5C36.6413 9.5 17.3 28.8413 17.3 52.7C17.3 76.5587 36.6413 95.9 60.5 95.9Z" fill="white"/>
<path d="M56.7 28.6C55.7 28.6 54.8 28.4 54 28.1C53.2 27.8 52.5 27.3 51.9 26.7C51.3 26.1 50.8 25.4 50.5 24.6C50.2 23.8 50 22.9 50 21.9C50 20.9 50.2 20 50.5 19.2C50.8 18.4 51.3 17.7 51.9 17.1C52.5 16.5 53.2 16 54 15.7C54.8 15.4 55.7 15.2 56.7 15.2C57.7 15.2 58.6 15.4 59.4 15.7C60.2 16 60.9 16.5 61.5 17.1C62.1 17.7 62.6 18.4 62.9 19.2C63.2 20 63.4 20.9 63.4 21.9C63.4 22.7 63.3 23.4 63.1 24C62.9 24.6 62.6 25.1 62.2 25.5C61.8 25.9 61.4 26 60.9 26C60.5 26 60.1 25.9 59.9 25.6C59.6 25.3 59.5 25 59.5 24.6V24.2C59.3 24.5 59.1 24.7 58.8 24.9C58.5 25.1 58.2 25.3 57.8 25.4C57.4 25.5 57.1 25.6 56.7 25.6C56 25.6 55.4 25.4 54.9 25.1C54.4 24.8 53.9 24.4 53.6 23.8C53.3 23.3 53.1 22.6 53.1 22C53.1 21.3 53.3 20.7 53.6 20.1C53.9 19.6 54.3 19.1 54.9 18.8C55.4 18.5 56.1 18.3 56.7 18.3C57.4 18.3 58 18.5 58.5 18.8C59 19.1 59.5 19.5 59.8 20.1C60.1 20.6 60.3 21.3 60.3 22V24.4C60.3 24.7 60.4 25 60.5 25.1C60.6 25.2 60.8 25.3 61 25.3C61.3 25.3 61.6 25.2 61.9 24.9C62.2 24.6 62.4 24.2 62.5 23.7C62.6 23.2 62.7 22.6 62.7 22C62.7 21.1 62.6 20.3 62.3 19.6C62 18.9 61.6 18.2 61.1 17.7C60.6 17.2 59.9 16.8 59.2 16.5C58.5 16.2 57.7 16.1 56.8 16.1C55.9 16.1 55.1 16.2 54.4 16.5C53.7 16.8 53 17.2 52.5 17.7C52 18.2 51.6 18.9 51.3 19.6C51 20.3 50.9 21.1 50.9 22C50.9 22.9 51 23.7 51.3 24.4C51.6 25.1 52 25.8 52.5 26.3C53 26.8 53.7 27.2 54.4 27.5C55.1 27.8 55.9 27.9 56.8 27.9C57.2 27.9 57.6 27.9 58.1 27.8C58.6 27.7 58.9 27.6 59.2 27.4C59.4 27.3 59.5 27.3 59.6 27.3C59.7 27.3 59.8 27.5 59.8 27.6C59.8 27.7 59.7 27.9 59.4 28.1C59.1 28.3 58.8 28.4 58.3 28.5C57.8 28.6 57.3 28.6 56.7 28.6ZM56.7 24.7C57.2 24.7 57.7 24.6 58.1 24.3C58.5 24.1 58.8 23.7 59.1 23.3C59.3 22.9 59.5 22.4 59.5 21.9C59.5 21.4 59.4 20.9 59.1 20.5C58.9 20.1 58.5 19.8 58.1 19.5C57.7 19.3 57.2 19.1 56.7 19.1C56.2 19.1 55.7 19.2 55.3 19.5C54.9 19.7 54.6 20.1 54.3 20.5C54.1 20.9 53.9 21.4 53.9 21.9C53.9 22.4 54 22.9 54.3 23.3C54.5 23.7 54.9 24 55.3 24.3C55.7 24.6 56.1 24.7 56.7 24.7Z" fill="#FCAA90" stroke="#FCAA90" stroke-width="0.5" stroke-miterlimit="10"/>
<path d="M56.7 86.1C55.7 86.1 54.8 85.9 54 85.6C53.2 85.3 52.5 84.8 51.9 84.2C51.3 83.6 50.8 82.9 50.5 82.1C50.2 81.3 50 80.4 50 79.4C50 78.4 50.2 77.5 50.5 76.7C50.8 75.9 51.3 75.2 51.9 74.6C52.5 74 53.2 73.5 54 73.2C54.8 72.9 55.7 72.7 56.7 72.7C57.7 72.7 58.6 72.9 59.4 73.2C60.2 73.5 60.9 74 61.5 74.6C62.1 75.2 62.6 75.9 62.9 76.7C63.2 77.5 63.4 78.4 63.4 79.4C63.4 80.2 63.3 80.9 63.1 81.5C62.9 82.1 62.6 82.6 62.2 83C61.8 83.4 61.4 83.5 60.9 83.5C60.5 83.5 60.1 83.4 59.9 83.1C59.6 82.8 59.5 82.5 59.5 82.1V81.7C59.3 82 59.1 82.2 58.8 82.4C58.5 82.6 58.2 82.8 57.8 82.9C57.4 83 57.1 83.1 56.7 83.1C56 83.1 55.4 82.9 54.9 82.6C54.4 82.3 53.9 81.9 53.6 81.3C53.3 80.8 53.1 80.1 53.1 79.5C53.1 78.8 53.3 78.2 53.6 77.6C53.9 77.1 54.3 76.6 54.9 76.3C55.4 76 56.1 75.8 56.7 75.8C57.4 75.8 58 76 58.5 76.3C59 76.6 59.5 77 59.8 77.6C60.1 78.1 60.3 78.8 60.3 79.5V81.9C60.3 82.2 60.4 82.5 60.5 82.6C60.6 82.7 60.8 82.8 61 82.8C61.3 82.8 61.6 82.7 61.9 82.4C62.2 82.1 62.4 81.7 62.5 81.2C62.6 80.7 62.7 80.1 62.7 79.5C62.7 78.6 62.6 77.8 62.3 77.1C62 76.4 61.6 75.7 61.1 75.2C60.6 74.7 59.9 74.3 59.2 74C58.5 73.7 57.7 73.6 56.8 73.6C55.9 73.6 55.1 73.7 54.4 74C53.7 74.3 53 74.7 52.5 75.2C52 75.7 51.6 76.4 51.3 77.1C51 77.8 50.9 78.6 50.9 79.5C50.9 80.4 51 81.2 51.3 81.9C51.6 82.6 52 83.3 52.5 83.8C53 84.3 53.7 84.7 54.4 85C55.1 85.3 55.9 85.4 56.8 85.4C57.2 85.4 57.6 85.4 58.1 85.3C58.6 85.2 58.9 85.1 59.2 84.9C59.4 84.8 59.5 84.8 59.6 84.8C59.7 84.8 59.8 85 59.8 85.1C59.8 85.2 59.7 85.4 59.4 85.6C59.1 85.8 58.8 85.9 58.3 86C57.8 86 57.3 86.1 56.7 86.1ZM56.7 82.1C57.2 82.1 57.7 82 58.1 81.7C58.5 81.5 58.8 81.1 59.1 80.7C59.3 80.3 59.5 79.8 59.5 79.3C59.5 78.8 59.4 78.3 59.1 77.9C58.9 77.5 58.5 77.2 58.1 76.9C57.7 76.7 57.2 76.5 56.7 76.5C56.2 76.5 55.7 76.6 55.3 76.9C54.9 77.1 54.6 77.5 54.3 77.9C54.1 78.3 53.9 78.8 53.9 79.3C53.9 79.8 54 80.3 54.3 80.7C54.5 81.1 54.9 81.4 55.3 81.7C55.7 82 56.1 82.1 56.7 82.1Z" fill="#FCAA90" stroke="#FCAA90" stroke-width="0.5" stroke-miterlimit="10"/>
<path d="M87.2 59.4C86.2 59.4 85.3 59.2 84.5 58.9C83.7 58.6 83 58.1 82.4 57.5C81.8 56.9 81.3 56.2 81 55.4C80.7 54.6 80.5 53.7 80.5 52.7C80.5 51.7 80.7 50.8 81 50C81.3 49.2 81.8 48.5 82.4 47.9C83 47.3 83.7 46.8 84.5 46.5C85.3 46.2 86.2 46 87.2 46C88.2 46 89.1 46.2 89.9 46.5C90.7 46.8 91.4 47.3 92 47.9C92.6 48.5 93.1 49.2 93.4 50C93.7 50.8 93.9 51.7 93.9 52.7C93.9 53.5 93.8 54.2 93.6 54.8C93.4 55.4 93.1 55.9 92.7 56.3C92.3 56.7 91.9 56.8 91.4 56.8C91 56.8 90.6 56.7 90.4 56.4C90.1 56.1 90 55.8 90 55.4V55C89.8 55.3 89.6 55.5 89.3 55.7C89 55.9 88.7 56.1 88.3 56.2C87.9 56.3 87.6 56.4 87.2 56.4C86.5 56.4 85.9 56.2 85.4 55.9C84.9 55.6 84.4 55.2 84.1 54.6C83.8 54.1 83.6 53.4 83.6 52.8C83.6 52.1 83.8 51.5 84.1 50.9C84.4 50.4 84.8 49.9 85.4 49.6C85.9 49.3 86.6 49.1 87.2 49.1C87.9 49.1 88.5 49.3 89 49.6C89.5 49.9 90 50.3 90.3 50.9C90.6 51.4 90.8 52.1 90.8 52.8V55.2C90.8 55.5 90.9 55.8 91 55.9C91.1 56 91.3 56.1 91.5 56.1C91.8 56.1 92.1 56 92.4 55.7C92.7 55.4 92.9 55 93 54.5C93.1 54 93.2 53.4 93.2 52.8C93.2 51.9 93.1 51.1 92.8 50.4C92.5 49.7 92.1 49 91.6 48.5C91.1 48 90.4 47.6 89.7 47.3C89 47 88.2 46.9 87.3 46.9C86.4 46.9 85.6 47 84.9 47.3C84.2 47.6 83.5 48 83 48.5C82.5 49 82.1 49.7 81.8 50.4C81.5 51.1 81.4 51.9 81.4 52.8C81.4 53.7 81.5 54.5 81.8 55.2C82.1 55.9 82.5 56.6 83 57.1C83.5 57.6 84.2 58 84.9 58.3C85.6 58.6 86.4 58.7 87.3 58.7C87.7 58.7 88.1 58.7 88.6 58.6C89.1 58.5 89.4 58.4 89.7 58.2C89.9 58.1 90 58.1 90.1 58.1C90.2 58.1 90.3 58.3 90.3 58.4C90.3 58.5 90.2 58.7 89.9 58.9C89.6 59.1 89.3 59.2 88.8 59.3C88.3 59.4 87.8 59.4 87.2 59.4ZM87.2 55.5C87.7 55.5 88.2 55.4 88.6 55.1C89 54.8 89.3 54.5 89.6 54.1C89.8 53.7 90 53.2 90 52.7C90 52.2 89.9 51.7 89.6 51.3C89.4 50.9 89 50.6 88.6 50.3C88.2 50.1 87.7 49.9 87.2 49.9C86.7 49.9 86.2 50 85.8 50.3C85.4 50.5 85.1 50.9 84.8 51.3C84.6 51.7 84.4 52.2 84.4 52.7C84.4 53.2 84.5 53.7 84.8 54.1C85 54.5 85.4 54.8 85.8 55.1C86.2 55.4 86.7 55.5 87.2 55.5Z" fill="#FCAA90" stroke="#FCAA90" stroke-width="0.5" stroke-miterlimit="10"/>
<path d="M27 59.4C26 59.4 25.1 59.2 24.3 58.9C23.5 58.6 22.8001 58.1 22.2001 57.5C21.6001 56.9 21.1 56.2 20.8 55.4C20.5 54.6 20.3 53.7 20.3 52.7C20.3 51.7 20.5 50.8 20.8 50C21.1 49.2 21.6001 48.5 22.2001 47.9C22.8001 47.3 23.5 46.8 24.3 46.5C25.1 46.2 26 46 27 46C28 46 28.9001 46.2 29.7001 46.5C30.5001 46.8 31.2 47.3 31.8 47.9C32.4 48.5 32.9001 49.2 33.2001 50C33.5001 50.8 33.7001 51.7 33.7001 52.7C33.7001 53.5 33.6001 54.2 33.4001 54.8C33.2001 55.4 32.9 55.9 32.5 56.3C32.1 56.7 31.7001 56.8 31.2001 56.8C30.8001 56.8 30.4001 56.7 30.2001 56.4C29.9001 56.1 29.8 55.8 29.8 55.4V55C29.6 55.3 29.4001 55.5 29.1 55.7C28.8 55.9 28.5 56.1 28.1 56.2C27.7 56.3 27.4 56.4 27 56.4C26.3 56.4 25.7001 56.2 25.2001 55.9C24.7001 55.6 24.2 55.2 23.9 54.6C23.6 54.1 23.4 53.4 23.4 52.8C23.4 52.1 23.6 51.5 23.9 50.9C24.2 50.4 24.6001 49.9 25.2001 49.6C25.7001 49.3 26.4 49.1 27 49.1C27.7 49.1 28.3 49.3 28.8 49.6C29.3 49.9 29.8 50.3 30.1 50.9C30.4001 51.4 30.6 52.1 30.6 52.8V55.2C30.6 55.5 30.7 55.8 30.8 55.9C30.9 56 31.1 56.1 31.3 56.1C31.6 56.1 31.9001 56 32.2001 55.7C32.5001 55.4 32.7 55 32.8 54.5C32.9 54 33 53.4 33 52.8C33 51.9 32.9 51.1 32.6 50.4C32.3 49.7 31.9 49 31.4 48.5C30.9 48 30.2 47.6 29.5 47.3C28.8 47 28.0001 46.9 27.1 46.9C26.2 46.9 25.4001 47 24.7001 47.3C24.0001 47.6 23.3 48 22.8 48.5C22.3 49 21.9 49.7 21.6 50.4C21.3001 51.1 21.2001 51.9 21.2001 52.8C21.2001 53.7 21.3001 54.5 21.6 55.2C21.9 55.9 22.3 56.6 22.8 57.1C23.3 57.6 24.0001 58 24.7001 58.3C25.4001 58.6 26.2 58.7 27.1 58.7C27.5001 58.7 27.9 58.7 28.4 58.6C28.9 58.5 29.2 58.4 29.5 58.2C29.7 58.1 29.8 58.1 29.9 58.1C30 58.1 30.1 58.3 30.1 58.4C30.1 58.5 30.0001 58.7 29.7001 58.9C29.4001 59.1 29.1 59.2 28.6 59.3C28.2 59.4 27.6 59.4 27 59.4ZM27 55.5C27.5 55.5 28 55.4 28.4 55.1C28.8 54.8 29.1 54.5 29.4 54.1C29.6 53.7 29.8 53.2 29.8 52.7C29.8 52.2 29.7 51.7 29.4 51.3C29.2 50.9 28.8 50.6 28.4 50.3C28 50.1 27.5 49.9 27 49.9C26.5 49.9 26.0001 50 25.6 50.3C25.2 50.5 24.9001 50.9 24.6 51.3C24.4001 51.7 24.2001 52.2 24.2001 52.7C24.2001 53.2 24.3 53.7 24.6 54.1C24.8 54.5 25.2 54.8 25.6 55.1C26.0001 55.4 26.5 55.5 27 55.5Z" fill="#FCAA90" stroke="#FCAA90" stroke-width="0.5" stroke-miterlimit="10"/>
<path d="M56.7 93.9C80.5587 93.9 99.9 74.5587 99.9 50.7C99.9 26.8413 80.5587 7.5 56.7 7.5C32.8413 7.5 13.5 26.8413 13.5 50.7C13.5 74.5587 32.8413 93.9 56.7 93.9Z" stroke="#071146" stroke-width="2" stroke-miterlimit="10" stroke-linecap="round" stroke-linejoin="round"/>
<path d="M13.6 85.9C13 85.1 12.4 84.3 11.8 83.5" stroke="#071146" stroke-width="2" stroke-linecap="round" stroke-linejoin="round"/>
<path d="M8.3 78.3C3.6 70.1 1 60.6 1 50.4C1.1 35.6 6.9 22.1 16.4 12.2" stroke="#071146" stroke-width="2" stroke-linecap="round" stroke-linejoin="round" stroke-dasharray="6.21 6.21"/>
<path d="M18.7 10C19.4 9.3 20.2 8.7 20.9 8" stroke="#071146" stroke-width="2" stroke-linecap="round" stroke-linejoin="round"/>
<path d="M34.8999 1H77.3999" stroke="#071146" stroke-width="2" stroke-miterlimit="10" stroke-linecap="round" stroke-linejoin="round"/>
<path d="M56.7 7.4V1" stroke="#071146" stroke-width="2" stroke-miterlimit="10" stroke-linecap="round" stroke-linejoin="round"/>
<path d="M101.3 0.300049L82.5 19.1H96.3L82.9 43.6L113.3 12.5H98.4L101.3 0.300049Z" fill="#FCAA90"/>
<path d="M100.5 1L81.6001 19.8H95.5001L82.1001 44.3L112.5 13.2H97.6001L100.5 1Z" stroke="#071146" stroke-width="2" stroke-miterlimit="10" stroke-linecap="round" stroke-linejoin="round"/>
<path d="M56.7 32.3V52.7001H73" stroke="#071146" stroke-width="2" stroke-miterlimit="10" stroke-linecap="round" stroke-linejoin="round"/>
<path d="M37.8 22.6L41.3 28.2" stroke="#071146" stroke-width="2" stroke-miterlimit="10" stroke-linecap="round" stroke-linejoin="round"/>
<path d="M27.6001 34L33.5001 37.9" stroke="#071146" stroke-width="2" stroke-miterlimit="10" stroke-linecap="round" stroke-linejoin="round"/>
<path d="M37.8 81.1L41.3 75.5" stroke="#071146" stroke-width="2" stroke-miterlimit="10" stroke-linecap="round" stroke-linejoin="round"/>
<path d="M27.6001 69.8L33.5001 65.9" stroke="#071146" stroke-width="2" stroke-miterlimit="10" stroke-linecap="round" stroke-linejoin="round"/>
<path d="M76.8999 22.6L73.3999 28.2" stroke="#071146" stroke-width="2" stroke-miterlimit="10" stroke-linecap="round" stroke-linejoin="round"/>
<path d="M76.8999 81.1L73.3999 75.5" stroke="#071146" stroke-width="2" stroke-miterlimit="10" stroke-linecap="round" stroke-linejoin="round"/>
<path d="M87.1 69.8L81.2 65.9" stroke="#071146" stroke-width="2" stroke-miterlimit="10" stroke-linecap="round" stroke-linejoin="round"/>
</g>
<defs>
<clipPath id="clip0">
<rect width="113.5" height="95.9" fill="white"/>
</clipPath>
</defs>
</svg>
