<svg width="114" height="95" viewBox="0 0 114 95" fill="none" xmlns="http://www.w3.org/2000/svg">
<g clip-path="url(#clip0)">
<path d="M62.46 93.85C88.1081 93.85 108.9 73.0581 108.9 47.41C108.9 21.7619 88.1081 0.969971 62.46 0.969971C36.8119 0.969971 16.02 21.7619 16.02 47.41C16.02 73.0581 36.8119 93.85 62.46 93.85Z" fill="#B6E2DF"/>
<path d="M56.8101 93.88C82.4582 93.88 103.25 73.0881 103.25 47.44C103.25 21.7919 82.4582 1 56.8101 1C31.162 1 10.3701 21.7919 10.3701 47.44C10.3701 73.0881 31.162 93.88 56.8101 93.88Z" stroke="#071146" stroke-width="2" stroke-linecap="round" stroke-linejoin="round"/>
<path d="M56.8099 93.87C35.8099 85.59 30.4399 62.95 30.4399 47.43C30.4399 29.3 36.9999 8.23 56.8099 1" stroke="#071146" stroke-width="2" stroke-linecap="round" stroke-linejoin="round"/>
<path d="M57.6599 1C78.6799 9.28 83.9999 31.92 83.9999 47.44C83.9999 65.57 77.3999 86.64 57.6299 93.88" stroke="#071146" stroke-width="2" stroke-linecap="round" stroke-linejoin="round"/>
<path d="M56.8101 1V93.87" stroke="#071146" stroke-width="2" stroke-linecap="round" stroke-linejoin="round"/>
<path d="M10.3701 47.4399H103.24" stroke="#071146" stroke-width="2" stroke-linecap="round" stroke-linejoin="round"/>
<path d="M109 23.99H64.2902C61.7331 23.99 59.6602 26.0629 59.6602 28.62V90.2C59.6602 92.7571 61.7331 94.83 64.2902 94.83H109C111.557 94.83 113.63 92.7571 113.63 90.2V28.62C113.63 26.0629 111.557 23.99 109 23.99Z" fill="white"/>
<path d="M106.15 21.89H61.4401C58.883 21.89 56.8101 23.9629 56.8101 26.52V88.1C56.8101 90.6571 58.883 92.73 61.4401 92.73H106.15C108.707 92.73 110.78 90.6571 110.78 88.1V26.52C110.78 23.9629 108.707 21.89 106.15 21.89Z" stroke="#071146" stroke-width="2" stroke-linecap="round" stroke-linejoin="round"/>
<path d="M98.0599 31.8199H102.74C103.4 31.8226 104.031 32.0858 104.498 32.5522C104.964 33.0186 105.227 33.6504 105.23 34.3099V36.0999C105.227 36.7595 104.964 37.3913 104.498 37.8577C104.031 38.3241 103.4 38.5873 102.74 38.5899H97.9399L98.0599 31.8199Z" fill="#FCAA90"/>
<path d="M102.86 31.8199H66.8401C65.4649 31.8199 64.3501 32.9348 64.3501 34.3099V36.0999C64.3501 37.4751 65.4649 38.5899 66.8401 38.5899H102.86C104.235 38.5899 105.35 37.4751 105.35 36.0999V34.3099C105.35 32.9348 104.235 31.8199 102.86 31.8199Z" stroke="#071146" stroke-width="2" stroke-linecap="round" stroke-linejoin="round"/>
<path d="M97.4399 31.8199V38.5899" stroke="#071146" stroke-width="2" stroke-linecap="round" stroke-linejoin="round"/>
<path d="M73.0701 48.22H66.7001C66.2085 48.22 65.8101 48.6184 65.8101 49.11V55.48C65.8101 55.9715 66.2085 56.37 66.7001 56.37H73.0701C73.5616 56.37 73.9601 55.9715 73.9601 55.48V49.11C73.9601 48.6184 73.5616 48.22 73.0701 48.22Z" stroke="#071146" stroke-width="2" stroke-linecap="round" stroke-linejoin="round"/>
<path d="M79.7982 57.0736C79.6083 57.0736 79.4442 57.0045 79.3061 56.8664C79.1766 56.7282 79.1118 56.5599 79.1118 56.3613C79.1118 56.1714 79.1766 56.0074 79.3061 55.8692C79.4442 55.7311 79.6083 55.662 79.7982 55.662C79.9968 55.662 80.1651 55.7311 80.3032 55.8692C80.4414 56.0074 80.5104 56.1757 80.5104 56.3743C80.5104 56.5642 80.4414 56.7282 80.3032 56.8664C80.1651 57.0045 79.9968 57.0736 79.7982 57.0736ZM84.8244 50.7022C85.2474 50.7022 85.6359 50.7885 85.9899 50.9612C86.3525 51.1338 86.6374 51.3885 86.8446 51.7252C87.0604 52.0619 87.1684 52.4591 87.1684 52.9166V56.97H86.2878V53.3051C86.2878 52.1051 85.7525 51.5051 84.682 51.5051C84.0604 51.5051 83.5942 51.7252 83.2834 52.1655C82.9726 52.6058 82.8172 53.1972 82.8172 53.9397V56.97H81.9366V50.9094H82.8172V51.9195C83.0244 51.531 83.2963 51.2331 83.633 51.0259C83.9783 50.8101 84.3755 50.7022 84.8244 50.7022ZM91.508 50.7022C92.0519 50.7022 92.544 50.836 92.9843 51.1036C93.4246 51.3713 93.77 51.7382 94.0203 52.2044C94.2707 52.6619 94.3959 53.1756 94.3959 53.7454C94.3959 53.9095 94.3916 54.0346 94.3829 54.121H89.3972C89.4317 54.7426 89.6346 55.2735 90.0058 55.7138C90.3771 56.1541 90.8821 56.3743 91.521 56.3743C92.039 56.3743 92.4663 56.2793 92.803 56.0894C93.1484 55.8908 93.4246 55.6189 93.6318 55.2735L94.3311 55.7397C94.0462 56.1887 93.6707 56.5426 93.2045 56.8016C92.7383 57.052 92.1857 57.1772 91.5469 57.1772C90.9598 57.1772 90.4375 57.039 89.9799 56.7628C89.5224 56.4865 89.1641 56.1023 88.9051 55.6102C88.6461 55.1181 88.5166 54.5613 88.5166 53.9397C88.5166 53.3181 88.6418 52.7612 88.8921 52.2691C89.1511 51.777 89.5051 51.3928 89.954 51.1166C90.4116 50.8403 90.9296 50.7022 91.508 50.7022ZM93.5153 53.3958C93.4289 52.7655 93.2174 52.295 92.8807 51.9842C92.544 51.6648 92.0865 51.5051 91.508 51.5051C90.9469 51.5051 90.485 51.6864 90.1224 52.049C89.7684 52.4029 89.5439 52.8519 89.449 53.3958H93.5153ZM96.0197 56.97V51.7123H94.9837V50.9094H96.0197V48.9021H96.9003V50.9094H98.2989V51.7123H96.9003V56.97H96.0197Z" fill="#071146"/>
<path d="M73.0701 61.1599H66.7001C66.2085 61.1599 65.8101 61.5584 65.8101 62.0499V68.4199C65.8101 68.9114 66.2085 69.3099 66.7001 69.3099H73.0701C73.5616 69.3099 73.9601 68.9114 73.9601 68.4199V62.0499C73.9601 61.5584 73.5616 61.1599 73.0701 61.1599Z" stroke="#071146" stroke-width="2" stroke-linecap="round" stroke-linejoin="round"/>
<path d="M79.7982 70.0135C79.6083 70.0135 79.4442 69.9444 79.3061 69.8063C79.1766 69.6682 79.1118 69.4998 79.1118 69.3013C79.1118 69.1113 79.1766 68.9473 79.3061 68.8092C79.4442 68.671 79.6083 68.602 79.7982 68.602C79.9968 68.602 80.1651 68.671 80.3032 68.8092C80.4414 68.9473 80.5104 69.1156 80.5104 69.3142C80.5104 69.5041 80.4414 69.6682 80.3032 69.8063C80.1651 69.9444 79.9968 70.0135 79.7982 70.0135ZM84.5784 70.1171C83.9999 70.1171 83.4819 69.979 83.0244 69.7027C82.5668 69.4264 82.2085 69.0423 81.9495 68.5502C81.6905 68.0494 81.561 67.4883 81.561 66.8667C81.561 66.2451 81.6862 65.6925 81.9366 65.2091C82.1956 64.717 82.5495 64.3328 82.9985 64.0565C83.456 63.7802 83.974 63.6421 84.5525 63.6421C85.1309 63.6421 85.6489 63.7802 86.1065 64.0565C86.564 64.3328 86.9223 64.717 87.1813 65.2091C87.4403 65.7012 87.5698 66.258 87.5698 66.8796C87.5698 67.5012 87.4403 68.0581 87.1813 68.5502C86.9309 69.0423 86.577 69.4264 86.1194 69.7027C85.6705 69.979 85.1568 70.1171 84.5784 70.1171ZM84.5525 69.3142C84.9669 69.3142 85.3338 69.2106 85.6532 69.0034C85.9813 68.7962 86.236 68.507 86.4173 68.1358C86.5986 67.7645 86.6892 67.3458 86.6892 66.8796C86.6892 66.4134 86.5986 65.9947 86.4173 65.6235C86.236 65.2522 85.9813 64.963 85.6532 64.7558C85.3338 64.5486 84.9669 64.445 84.5525 64.445C84.1467 64.445 83.7841 64.5486 83.4647 64.7558C83.1452 64.963 82.8949 65.2522 82.7136 65.6235C82.5323 65.9861 82.4416 66.4005 82.4416 66.8667C82.4416 67.3415 82.5323 67.7645 82.7136 68.1358C82.8949 68.507 83.1452 68.7962 83.4647 69.0034C83.7841 69.2106 84.1467 69.3142 84.5525 69.3142ZM91.7947 63.6421C92.0019 63.6421 92.2005 63.6723 92.3904 63.7328V64.5357C92.2091 64.4493 92.0106 64.4062 91.7947 64.4062C91.4235 64.4062 91.0782 64.5098 90.7587 64.717C90.4393 64.9242 90.1803 65.2263 89.9817 65.6235C89.7918 66.012 89.6968 66.4738 89.6968 67.0091V69.9099H88.8162V63.8493H89.6968V65.0666C89.9299 64.6177 90.2235 64.268 90.5774 64.0177C90.94 63.7673 91.3458 63.6421 91.7947 63.6421ZM98.8378 63.8493V69.6768C98.8378 70.2207 98.7256 70.7042 98.5011 71.1272C98.2767 71.5589 97.9615 71.8956 97.5558 72.1373C97.15 72.379 96.6881 72.4999 96.1701 72.4999H93.6578V71.697H96.1701C96.6968 71.697 97.1241 71.5071 97.4522 71.1272C97.7889 70.7473 97.9572 70.2639 97.9572 69.6768V69.0164C97.7069 69.3617 97.4004 69.6336 97.0378 69.8322C96.6752 70.0221 96.278 70.1171 95.8464 70.1171C95.2679 70.1171 94.7499 69.979 94.2924 69.7027C93.8348 69.4264 93.4765 69.0423 93.2175 68.5502C92.9585 68.0581 92.829 67.4969 92.829 66.8667C92.829 66.2451 92.9542 65.6925 93.2046 65.2091C93.4636 64.717 93.8175 64.3328 94.2665 64.0565C94.724 63.7802 95.242 63.6421 95.8205 63.6421C96.2608 63.6421 96.6622 63.7414 97.0248 63.94C97.3961 64.1299 97.7069 64.4018 97.9572 64.7558V63.8493H98.8378ZM95.8205 69.3142C96.2349 69.3142 96.6018 69.2106 96.9212 69.0034C97.2493 68.7962 97.504 68.507 97.6853 68.1358C97.8666 67.7645 97.9572 67.3458 97.9572 66.8796C97.9572 66.4134 97.8666 65.9947 97.6853 65.6235C97.504 65.2522 97.2493 64.963 96.9212 64.7558C96.6018 64.5486 96.2349 64.445 95.8205 64.445C95.4147 64.445 95.0521 64.5486 94.7327 64.7558C94.4132 64.963 94.1629 65.2522 93.9816 65.6235C93.8003 65.9861 93.7096 66.4005 93.7096 66.8667C93.7096 67.3415 93.8003 67.7645 93.9816 68.1358C94.1629 68.507 94.4132 68.7962 94.7327 69.0034C95.0521 69.2106 95.4147 69.3142 95.8205 69.3142Z" fill="#071146"/>
<path d="M73.0701 74.1H66.7001C66.2085 74.1 65.8101 74.4984 65.8101 74.99V81.36C65.8101 81.8515 66.2085 82.25 66.7001 82.25H73.0701C73.5616 82.25 73.9601 81.8515 73.9601 81.36V74.99C73.9601 74.4984 73.5616 74.1 73.0701 74.1Z" stroke="#071146" stroke-width="2" stroke-linecap="round" stroke-linejoin="round"/>
<path d="M79.7982 82.9536C79.6083 82.9536 79.4442 82.8845 79.3061 82.7464C79.1766 82.6082 79.1118 82.4399 79.1118 82.2413C79.1118 82.0514 79.1766 81.8874 79.3061 81.7492C79.4442 81.6111 79.6083 81.542 79.7982 81.542C79.9968 81.542 80.1651 81.6111 80.3032 81.7492C80.4414 81.8874 80.5104 82.0557 80.5104 82.2543C80.5104 82.4442 80.4414 82.6082 80.3032 82.7464C80.1651 82.8845 79.9968 82.9536 79.7982 82.9536ZM84.5654 83.0572C83.9783 83.0572 83.456 82.919 82.9985 82.6428C82.5409 82.3665 82.1826 81.9823 81.9236 81.4902C81.6646 80.9981 81.5351 80.4413 81.5351 79.8197C81.5351 79.1981 81.6603 78.6412 81.9107 78.1491C82.1697 77.657 82.5279 77.2728 82.9855 76.9966C83.4431 76.7203 83.9611 76.5822 84.5395 76.5822C85.0316 76.5822 85.459 76.6901 85.8216 76.9059C86.1928 77.1131 86.5295 77.411 86.8317 77.7995L86.1842 78.3045C85.7611 77.6916 85.2129 77.3851 84.5395 77.3851C84.1337 77.3851 83.7668 77.4887 83.4388 77.6959C83.1193 77.9031 82.869 78.1923 82.6877 78.5635C82.5064 78.9348 82.4157 79.3535 82.4157 79.8197C82.4157 80.2859 82.5064 80.7046 82.6877 81.0758C82.869 81.4471 83.1193 81.7363 83.4388 81.9435C83.7668 82.1507 84.1337 82.2543 84.5395 82.2543C84.9539 82.2543 85.2949 82.1852 85.5626 82.0471C85.8302 81.9003 86.0719 81.6888 86.2878 81.4125L86.9741 81.8917C86.6892 82.2456 86.3352 82.5305 85.9122 82.7464C85.4978 82.9536 85.0489 83.0572 84.5654 83.0572ZM90.7498 83.0572C90.1714 83.0572 89.6534 82.919 89.1958 82.6428C88.7383 82.3665 88.38 81.9823 88.121 81.4902C87.862 80.9895 87.7325 80.4283 87.7325 79.8067C87.7325 79.1851 87.8577 78.6326 88.108 78.1491C88.367 77.657 88.721 77.2728 89.1699 76.9966C89.6275 76.7203 90.1455 76.5822 90.7239 76.5822C91.3024 76.5822 91.8204 76.7203 92.2779 76.9966C92.7355 77.2728 93.0938 77.657 93.3528 78.1491C93.6118 78.6412 93.7413 79.1981 93.7413 79.8197C93.7413 80.4413 93.6118 80.9981 93.3528 81.4902C93.1024 81.9823 92.7485 82.3665 92.2909 82.6428C91.842 82.919 91.3283 83.0572 90.7498 83.0572ZM90.7239 82.2543C91.1383 82.2543 91.5053 82.1507 91.8247 81.9435C92.1528 81.7363 92.4074 81.4471 92.5887 81.0758C92.77 80.7046 92.8607 80.2859 92.8607 79.8197C92.8607 79.3535 92.77 78.9348 92.5887 78.5635C92.4074 78.1923 92.1528 77.9031 91.8247 77.6959C91.5053 77.4887 91.1383 77.3851 90.7239 77.3851C90.3182 77.3851 89.9556 77.4887 89.6361 77.6959C89.3167 77.9031 89.0663 78.1923 88.885 78.5635C88.7037 78.9261 88.6131 79.3405 88.6131 79.8067C88.6131 80.2816 88.7037 80.7046 88.885 81.0758C89.0663 81.4471 89.3167 81.7363 89.6361 81.9435C89.9556 82.1507 90.3182 82.2543 90.7239 82.2543ZM101.437 76.5822C101.998 76.5822 102.464 76.7807 102.835 77.1779C103.207 77.5664 103.392 78.106 103.392 78.7966V82.85H102.512V79.1851C102.512 78.5463 102.391 78.0887 102.149 77.8124C101.907 77.5275 101.592 77.3851 101.204 77.3851C100.729 77.3851 100.358 77.5707 100.09 77.9419C99.831 78.3045 99.6799 78.8009 99.6368 79.4312V82.85H98.7562V79.1851C98.7562 78.5463 98.6353 78.0887 98.3936 77.8124C98.1518 77.5275 97.8367 77.3851 97.4482 77.3851C96.9216 77.3851 96.5245 77.6052 96.2568 78.0455C95.9978 78.4858 95.8683 79.0772 95.8683 79.8197V82.85H94.9877V76.7894H95.8683V77.7347C96.0669 77.3635 96.3173 77.0786 96.6194 76.88C96.9302 76.6815 97.2842 76.5822 97.6813 76.5822C98.1216 76.5822 98.5058 76.703 98.8339 76.9448C99.1619 77.1779 99.3907 77.5146 99.5202 77.9549C99.7102 77.5232 99.9692 77.1865 100.297 76.9448C100.625 76.703 101.005 76.5822 101.437 76.5822Z" fill="#071146"/>
<path d="M19.9402 6.22994L31.2402 26.0599C31.3835 26.3152 31.4484 26.607 31.4269 26.899C31.4054 27.1909 31.2983 27.4701 31.1191 27.7016C30.9399 27.933 30.6965 28.1066 30.4192 28.2006C30.142 28.2945 29.8432 28.3048 29.5602 28.2299L7.56017 22.3199C7.26112 22.2387 6.99486 22.0662 6.79844 21.8265C6.60203 21.5868 6.48524 21.2918 6.46433 20.9826C6.44343 20.6734 6.51945 20.3654 6.6818 20.1014C6.84416 19.8375 7.08479 19.6307 7.37017 19.5099L15.1602 16.2699C15.4002 16.169 15.6096 16.007 15.7675 15.8C15.9254 15.5929 16.0263 15.3481 16.0602 15.0899L17.1702 6.75994C17.2135 6.45207 17.3521 6.16548 17.5664 5.9403C17.7808 5.71512 18.0602 5.56264 18.3656 5.50421C18.671 5.44578 18.987 5.48434 19.2693 5.61448C19.5517 5.74462 19.7862 5.95982 19.9402 6.22994Z" fill="white"/>
<path d="M15.43 1L30.69 27.76L1 19.8L13.63 14.55L15.43 1Z" stroke="#071146" stroke-width="2" stroke-linecap="round" stroke-linejoin="round"/>
</g>
<defs>
<clipPath id="clip0">
<rect width="113.63" height="94.87" fill="white"/>
</clipPath>
</defs>
</svg>
