<svg width="323" height="314" viewBox="0 0 323 314" fill="none" xmlns="http://www.w3.org/2000/svg">
<g clip-path="url(#clip0)">
<path d="M259.9 115.1C252.9 108.2 247.3 99.9 239.6 93.8C231.9 87.7 221 84.1 212.2 88.5C205.5 91.9 201.6 99.3 201 106.8C200.4 114.3 202.6 121.7 205.8 128.4C213.8 145.3 228.3 159.4 246.1 165.4C242.7 163.2 243.9 157.5 247.2 155.3C250.5 153 254.8 153.1 258.8 153C262.8 152.9 267.2 152.3 269.9 149.3C272.5 146.4 272.5 142.1 273.6 138.4C275.3 132.8 279.5 129 284.5 126.4C275.1 126.9 266.5 121.6 259.9 115.1Z" fill="white"/>
<path d="M252.9 189.2L249.6 191C248.4 191.7 246.8 191.2 246.1 190L237.8 174.9C237.1 173.7 237.6 172.1 238.8 171.4L242.1 169.6C243.3 168.9 244.9 169.4 245.6 170.6L253.9 185.7C254.6 187 254.1 188.5 252.9 189.2Z" fill="#B1DEF5"/>
<path d="M79.0001 189.6L82.2001 191.5C83.4001 192.2 85.0001 191.8 85.7001 190.6L94.7001 175.9C95.4001 174.7 95.0001 173.1 93.8001 172.4L90.6001 170.5C89.4001 169.8 87.8001 170.2 87.1001 171.4L78.1001 186.1C77.4001 187.3 77.8001 188.8 79.0001 189.6Z" fill="#B1DEF5"/>
<path d="M175.6 130.9C173.1 128.3 169.5 126.9 165.9 127.1C162.3 127.3 158.8 129.1 156.7 132" stroke="#071146" stroke-width="2" stroke-miterlimit="10"/>
<path d="M204.8 132.3C195.8 149.6 181.9 160.6 166.4 160.6C139.2 160.6 117.2 126.8 117.2 85.1C117.2 76.9 118.1 68.9 119.7 61.5" stroke="#071146" stroke-width="2" stroke-miterlimit="10"/>
<path d="M212.3 53.3C215.1 62.8 215.6 74 215.6 85.1" stroke="#071146" stroke-width="2" stroke-miterlimit="10"/>
<path d="M143.6 95.6C152.437 95.6 159.6 88.4365 159.6 79.6C159.6 70.7634 152.437 63.6 143.6 63.6C134.763 63.6 127.6 70.7634 127.6 79.6C127.6 88.4365 134.763 95.6 143.6 95.6Z" stroke="#071146" stroke-width="2" stroke-miterlimit="10"/>
<path d="M189.2 95.6C198.037 95.6 205.2 88.4365 205.2 79.6C205.2 70.7634 198.037 63.6 189.2 63.6C180.363 63.6 173.2 70.7634 173.2 79.6C173.2 88.4365 180.363 95.6 189.2 95.6Z" stroke="#071146" stroke-width="2" stroke-miterlimit="10"/>
<path d="M158.8 80.2C159.4 79.9 159.9 79.4 160.4 79.1C162 78 164 77.6 165.9 77.5C167.3 77.4 168.6 77.4 169.9 77.8C171.2 78.1 172.5 78.8 173.3 79.9" stroke="#071146" stroke-width="2" stroke-miterlimit="10"/>
<path d="M205.4 76.8C206.6 75.3 208 74 209.5 72.8C210.7 71.9 212 71.1 213.5 70.9C216.4 70.5 219.3 72.8 219.8 75.7C220.4 78.6 218.8 81.6 216.4 83.2" stroke="#071146" stroke-width="2" stroke-miterlimit="10"/>
<path d="M127.8 75.9C124.9 74.1 121.6 73 118.2 72.7C117.7 72.7 117.2 72.6 116.7 72.8C115.9 73 115.3 73.6 114.9 74.3C113.9 75.8 113.3 77.6 113.6 79.4C113.9 81.2 115.2 82.8 116.9 83.2" stroke="#071146" stroke-width="2" stroke-miterlimit="10"/>
<path d="M184 30.1C184.2 35 188 39.1 192.3 42.2C199.7 47.5 208.9 50.7 218.3 51.3C220.3 47.1 228.8 5.90001 186.8 11.2C185.7 11.3 184.5 11.6 183.4 11.3C182.4 11 181.7 10.2 181 9.60001C173 2.20001 159.7 1.28746e-05 149.3 4.30001C143.3 6.80001 120.6 29.1 115.1 56C113.4 64.1 117.7 59.7 124.6 58.8C139.3 56.9 153.4 52 165.7 44.5C169.2 42.4 184.1 31.8 184 30.1Z" fill="#B1DEF5"/>
<path d="M119.7 61.3C122.9 60.7 126.1 59.8 129.3 58.8C139 55.7 148.3 51.3 156.9 45.9C158.5 44.9 173.2 33.5 179.3 27.8C179.8 29.8 180.6 31.1 182 32.7C190.2 41.9 200.7 49.1 212.3 53.4C216.4 45.5 216.9 36.6 215.5 27.9C213.6 16 200 8.49998 188 7.49998C185.3 7.29998 182.3 7.49998 180.1 8.99998C172.5 5.89998 163.9 2.29998 155.8 1.29998C147.6 0.299979 138.8 1.79998 132.5 7.09998C129.8 9.39998 127.7 12.2 125.8 15.2C116.6 29.5 112.9 45.7 108.7 62.2C112.4 62.4 116.1 62 119.7 61.3Z" stroke="#071146" stroke-width="2" stroke-miterlimit="10"/>
<path d="M127.8 135.7C78.5001 178.5 60.7001 241.5 61.0001 301.5" stroke="#071146" stroke-width="2" stroke-miterlimit="10" stroke-linecap="round" stroke-linejoin="round"/>
<path d="M202.9 135.7C251.4 177.7 269.4 239.3 269.7 298.4" stroke="#071146" stroke-width="2" stroke-miterlimit="10" stroke-linecap="round" stroke-linejoin="round"/>
<path d="M104.2 172.2C103.5 176.8 103.1 181.5 103.3 186.2" stroke="#B1DEF5" stroke-width="2" stroke-miterlimit="10" stroke-linecap="round" stroke-linejoin="round"/>
<path d="M117.7 172.2C117 176.8 116.6 181.5 116.8 186.2" stroke="#B1DEF5" stroke-width="2" stroke-miterlimit="10" stroke-linecap="round" stroke-linejoin="round"/>
<path d="M131.2 172.2C130.5 176.8 130.1 181.5 130.3 186.2" stroke="#B1DEF5" stroke-width="2" stroke-miterlimit="10" stroke-linecap="round" stroke-linejoin="round"/>
<path d="M144.7 172.2C144 176.8 143.6 181.5 143.8 186.2" stroke="#B1DEF5" stroke-width="2" stroke-miterlimit="10" stroke-linecap="round" stroke-linejoin="round"/>
<path d="M158.2 172.2C157.5 176.8 157.1 181.5 157.3 186.2" stroke="#B1DEF5" stroke-width="2" stroke-miterlimit="10" stroke-linecap="round" stroke-linejoin="round"/>
<path d="M171.8 172.2C171.1 176.8 170.7 181.5 170.9 186.2" stroke="#B1DEF5" stroke-width="2" stroke-miterlimit="10" stroke-linecap="round" stroke-linejoin="round"/>
<path d="M185.3 172.2C184.6 176.8 184.2 181.5 184.4 186.2" stroke="#B1DEF5" stroke-width="2" stroke-miterlimit="10" stroke-linecap="round" stroke-linejoin="round"/>
<path d="M198.8 172.2C198.1 176.8 197.7 181.5 197.9 186.2" stroke="#B1DEF5" stroke-width="2" stroke-miterlimit="10" stroke-linecap="round" stroke-linejoin="round"/>
<path d="M212.3 172.2C211.6 176.8 211.2 181.5 211.4 186.2" stroke="#B1DEF5" stroke-width="2" stroke-miterlimit="10" stroke-linecap="round" stroke-linejoin="round"/>
<path d="M225.8 172.2C225.1 176.8 224.7 181.5 224.9 186.2" stroke="#B1DEF5" stroke-width="2" stroke-miterlimit="10" stroke-linecap="round" stroke-linejoin="round"/>
<path d="M95.9999 201.2C95.2999 205.8 94.8999 210.5 95.0999 215.2" stroke="#B1DEF5" stroke-width="2" stroke-miterlimit="10" stroke-linecap="round" stroke-linejoin="round"/>
<path d="M109.5 201.2C108.8 205.8 108.4 210.5 108.6 215.2" stroke="#B1DEF5" stroke-width="2" stroke-miterlimit="10" stroke-linecap="round" stroke-linejoin="round"/>
<path d="M123 201.2C122.3 205.8 121.9 210.5 122.1 215.2" stroke="#B1DEF5" stroke-width="2" stroke-miterlimit="10" stroke-linecap="round" stroke-linejoin="round"/>
<path d="M136.5 201.2C135.8 205.8 135.4 210.5 135.6 215.2" stroke="#B1DEF5" stroke-width="2" stroke-miterlimit="10" stroke-linecap="round" stroke-linejoin="round"/>
<path d="M150.1 201.2C149.4 205.8 149 210.5 149.2 215.2" stroke="#B1DEF5" stroke-width="2" stroke-miterlimit="10" stroke-linecap="round" stroke-linejoin="round"/>
<path d="M163.6 201.2C162.9 205.8 162.5 210.5 162.7 215.2" stroke="#B1DEF5" stroke-width="2" stroke-miterlimit="10" stroke-linecap="round" stroke-linejoin="round"/>
<path d="M177.1 201.2C176.4 205.8 176 210.5 176.2 215.2" stroke="#B1DEF5" stroke-width="2" stroke-miterlimit="10" stroke-linecap="round" stroke-linejoin="round"/>
<path d="M190.6 201.2C189.9 205.8 189.5 210.5 189.7 215.2" stroke="#B1DEF5" stroke-width="2" stroke-miterlimit="10" stroke-linecap="round" stroke-linejoin="round"/>
<path d="M204.1 201.2C203.4 205.8 203 210.5 203.2 215.2" stroke="#B1DEF5" stroke-width="2" stroke-miterlimit="10" stroke-linecap="round" stroke-linejoin="round"/>
<path d="M217.7 201.2C217 205.8 216.6 210.5 216.8 215.2" stroke="#B1DEF5" stroke-width="2" stroke-miterlimit="10" stroke-linecap="round" stroke-linejoin="round"/>
<path d="M231.4 201.2C230.7 205.8 230.3 210.5 230.5 215.2" stroke="#B1DEF5" stroke-width="2" stroke-miterlimit="10" stroke-linecap="round" stroke-linejoin="round"/>
<path d="M95.9999 259.3C95.2999 263.9 94.8999 268.6 95.0999 273.3" stroke="#B1DEF5" stroke-width="2" stroke-miterlimit="10" stroke-linecap="round" stroke-linejoin="round"/>
<path d="M103.351 287C102.651 291.6 102.251 296.3 102.451 301" stroke="#B1DEF5" stroke-width="2" stroke-miterlimit="10" stroke-linecap="round" stroke-linejoin="round"/>
<path d="M82.6 259.3C81.9 263.9 81.5 268.6 81.7 273.3" stroke="#B1DEF5" stroke-width="2" stroke-miterlimit="10" stroke-linecap="round" stroke-linejoin="round"/>
<path d="M89.9515 287C89.2515 291.6 88.8515 296.3 89.0515 301" stroke="#B1DEF5" stroke-width="2" stroke-miterlimit="10" stroke-linecap="round" stroke-linejoin="round"/>
<path d="M109.5 259.3C108.8 263.9 108.4 268.6 108.6 273.3" stroke="#B1DEF5" stroke-width="2" stroke-miterlimit="10" stroke-linecap="round" stroke-linejoin="round"/>
<path d="M116.851 287C116.151 291.6 115.751 296.3 115.951 301" stroke="#B1DEF5" stroke-width="2" stroke-miterlimit="10" stroke-linecap="round" stroke-linejoin="round"/>
<path d="M123 259.3C122.3 263.9 121.9 268.6 122.1 273.3" stroke="#B1DEF5" stroke-width="2" stroke-miterlimit="10" stroke-linecap="round" stroke-linejoin="round"/>
<path d="M130.351 287C129.651 291.6 129.251 296.3 129.451 301" stroke="#B1DEF5" stroke-width="2" stroke-miterlimit="10" stroke-linecap="round" stroke-linejoin="round"/>
<path d="M136.5 259.3C135.8 263.9 135.4 268.6 135.6 273.3" stroke="#B1DEF5" stroke-width="2" stroke-miterlimit="10" stroke-linecap="round" stroke-linejoin="round"/>
<path d="M143.852 287C143.152 291.6 142.752 296.3 142.952 301" stroke="#B1DEF5" stroke-width="2" stroke-miterlimit="10" stroke-linecap="round" stroke-linejoin="round"/>
<path d="M150.1 259.3C149.4 263.9 149 268.6 149.2 273.3" stroke="#B1DEF5" stroke-width="2" stroke-miterlimit="10" stroke-linecap="round" stroke-linejoin="round"/>
<path d="M157.451 287C156.751 291.6 156.351 296.3 156.551 301" stroke="#B1DEF5" stroke-width="2" stroke-miterlimit="10" stroke-linecap="round" stroke-linejoin="round"/>
<path d="M163.6 259.3C162.9 263.9 162.5 268.6 162.7 273.3" stroke="#B1DEF5" stroke-width="2" stroke-miterlimit="10" stroke-linecap="round" stroke-linejoin="round"/>
<path d="M170.951 287C170.251 291.6 169.851 296.3 170.051 301" stroke="#B1DEF5" stroke-width="2" stroke-miterlimit="10" stroke-linecap="round" stroke-linejoin="round"/>
<path d="M177.1 259.3C176.4 263.9 176 268.6 176.2 273.3" stroke="#B1DEF5" stroke-width="2" stroke-miterlimit="10" stroke-linecap="round" stroke-linejoin="round"/>
<path d="M184.451 287C183.751 291.6 183.351 296.3 183.551 301" stroke="#B1DEF5" stroke-width="2" stroke-miterlimit="10" stroke-linecap="round" stroke-linejoin="round"/>
<path d="M190.6 259.3C189.9 263.9 189.5 268.6 189.7 273.3" stroke="#B1DEF5" stroke-width="2" stroke-miterlimit="10" stroke-linecap="round" stroke-linejoin="round"/>
<path d="M197.951 287C197.251 291.6 196.851 296.3 197.051 301" stroke="#B1DEF5" stroke-width="2" stroke-miterlimit="10" stroke-linecap="round" stroke-linejoin="round"/>
<path d="M204.1 259.3C203.4 263.9 203 268.6 203.2 273.3" stroke="#B1DEF5" stroke-width="2" stroke-miterlimit="10" stroke-linecap="round" stroke-linejoin="round"/>
<path d="M211.451 287C210.751 291.6 210.351 296.3 210.551 301" stroke="#B1DEF5" stroke-width="2" stroke-miterlimit="10" stroke-linecap="round" stroke-linejoin="round"/>
<path d="M217.7 259.3C217 263.9 216.6 268.6 216.8 273.3" stroke="#B1DEF5" stroke-width="2" stroke-miterlimit="10" stroke-linecap="round" stroke-linejoin="round"/>
<path d="M225.051 287C224.351 291.6 223.951 296.3 224.151 301" stroke="#B1DEF5" stroke-width="2" stroke-miterlimit="10" stroke-linecap="round" stroke-linejoin="round"/>
<path d="M231.4 259.3C230.7 263.9 230.3 268.6 230.5 273.3" stroke="#B1DEF5" stroke-width="2" stroke-miterlimit="10" stroke-linecap="round" stroke-linejoin="round"/>
<path d="M239 287C238.264 290.614 237.844 294.307 238.054 298" stroke="#B1DEF5" stroke-width="2" stroke-miterlimit="10" stroke-linecap="round" stroke-linejoin="round"/>
<path d="M244.9 259.3C244.2 263.9 243.8 268.6 244 273.3" stroke="#B1DEF5" stroke-width="2" stroke-miterlimit="10" stroke-linecap="round" stroke-linejoin="round"/>
<path d="M252 287C251.264 290.614 250.844 294.307 251.054 298" stroke="#B1DEF5" stroke-width="2" stroke-miterlimit="10" stroke-linecap="round" stroke-linejoin="round"/>
<path d="M104.2 230.3C103.5 234.9 103.1 239.6 103.3 244.3" stroke="#B1DEF5" stroke-width="2" stroke-miterlimit="10" stroke-linecap="round" stroke-linejoin="round"/>
<path d="M117.7 230.3C117 234.9 116.6 239.6 116.8 244.3" stroke="#B1DEF5" stroke-width="2" stroke-miterlimit="10" stroke-linecap="round" stroke-linejoin="round"/>
<path d="M76.3 230.3C75.6 234.9 75.2 239.6 75.4 244.3" stroke="#B1DEF5" stroke-width="2" stroke-miterlimit="10" stroke-linecap="round" stroke-linejoin="round"/>
<path d="M89.8 230.3C89.1 234.9 88.7 239.6 88.9 244.3" stroke="#B1DEF5" stroke-width="2" stroke-miterlimit="10" stroke-linecap="round" stroke-linejoin="round"/>
<path d="M238.1 230.3C237.4 234.9 237 239.6 237.2 244.3" stroke="#B1DEF5" stroke-width="2" stroke-miterlimit="10" stroke-linecap="round" stroke-linejoin="round"/>
<path d="M251.6 230.3C250.9 234.9 250.5 239.6 250.7 244.3" stroke="#B1DEF5" stroke-width="2" stroke-miterlimit="10" stroke-linecap="round" stroke-linejoin="round"/>
<path d="M131.2 230.3C130.5 234.9 130.1 239.6 130.3 244.3" stroke="#B1DEF5" stroke-width="2" stroke-miterlimit="10" stroke-linecap="round" stroke-linejoin="round"/>
<path d="M144.7 230.3C144 234.9 143.6 239.6 143.8 244.3" stroke="#B1DEF5" stroke-width="2" stroke-miterlimit="10" stroke-linecap="round" stroke-linejoin="round"/>
<path d="M158.2 230.3C157.5 234.9 157.1 239.6 157.3 244.3" stroke="#B1DEF5" stroke-width="2" stroke-miterlimit="10" stroke-linecap="round" stroke-linejoin="round"/>
<path d="M171.8 230.3C171.1 234.9 170.7 239.6 170.9 244.3" stroke="#B1DEF5" stroke-width="2" stroke-miterlimit="10" stroke-linecap="round" stroke-linejoin="round"/>
<path d="M185.3 230.3C184.6 234.9 184.2 239.6 184.4 244.3" stroke="#B1DEF5" stroke-width="2" stroke-miterlimit="10" stroke-linecap="round" stroke-linejoin="round"/>
<path d="M198.8 230.3C198.1 234.9 197.7 239.6 197.9 244.3" stroke="#B1DEF5" stroke-width="2" stroke-miterlimit="10" stroke-linecap="round" stroke-linejoin="round"/>
<path d="M212.3 230.3C211.6 234.9 211.2 239.6 211.4 244.3" stroke="#B1DEF5" stroke-width="2" stroke-miterlimit="10" stroke-linecap="round" stroke-linejoin="round"/>
<path d="M225.8 230.3C225.1 234.9 224.7 239.6 224.9 244.3" stroke="#B1DEF5" stroke-width="2" stroke-miterlimit="10" stroke-linecap="round" stroke-linejoin="round"/>
<path d="M116.2 166.8C125.8 178.3 137.6 187.9 150.7 194.9C154.4 188.8 159.2 183.4 164.7 179C167.7 183.3 170.6 187.6 173.6 192C174.1 192.7 174.6 193.4 175.3 193.8C176.7 194.4 178.2 193.6 179.5 192.8C189.8 186.5 199.4 179.1 208.2 170.8" stroke="#B1DEF5" stroke-width="2" stroke-miterlimit="10" stroke-linecap="round" stroke-linejoin="round"/>
<path d="M116.2 163.4C125.8 174.9 137.6 184.5 150.7 191.5C154.4 185.4 159.2 180 164.7 175.6C167.7 179.9 170.6 184.2 173.6 188.6C174.1 189.3 174.6 190 175.3 190.4C176.7 191 178.2 190.2 179.5 189.4C189.8 183.1 199.4 175.7 208.2 167.4" stroke="#071146" stroke-width="2" stroke-miterlimit="10" stroke-linecap="round" stroke-linejoin="round"/>
<path d="M194.9 216.1C204.9 219.8 215.9 219.3 225.6 214.9" stroke="#071146" stroke-width="2" stroke-miterlimit="10" stroke-linecap="round" stroke-linejoin="round"/>
<path d="M210.6 230.7C212.091 230.7 213.3 229.491 213.3 228C213.3 226.509 212.091 225.3 210.6 225.3C209.109 225.3 207.9 226.509 207.9 228C207.9 229.491 209.109 230.7 210.6 230.7Z" stroke="#071146" stroke-width="2" stroke-miterlimit="10" stroke-linecap="round" stroke-linejoin="round"/>
<path d="M138 111.3C137.6 112.9 137.8 115 139.3 115.9C139.8 116.2 140.4 116.4 141.1 116.5C141.4 116.6 143.7 116.3 144.1 114.1C144.7 110.7 143.3 107.1 142.8 105.7C142.3 104.4 142 102.7 141.2 104.5C140.6 106.1 138.4 109.7 138 111.3Z" stroke="#071146" stroke-width="2" stroke-miterlimit="10" stroke-linecap="round" stroke-linejoin="round"/>
<path d="M256.6 114.5C249.6 107.6 244 99.3 236.3 93.2C228.6 87.1 217.7 83.5 208.9 87.9C202.2 91.3 198.3 98.7 197.7 106.2C197.1 113.7 199.3 121.1 202.5 127.8C210.5 144.7 225 158.8 242.8 164.8C239.4 162.6 240.6 156.9 243.9 154.7C247.2 152.5 251.5 152.5 255.5 152.4C259.5 152.3 263.9 151.7 266.6 148.7C269.2 145.8 269.2 141.5 270.3 137.8C272 132.2 276.2 128.4 281.2 125.8C271.8 126.3 263.1 121 256.6 114.5Z" stroke="#071146" stroke-width="2" stroke-miterlimit="10" stroke-linecap="round" stroke-linejoin="round"/>
<path d="M225.4 102.8C231.3 104.4 237 107.6 240.5 112.6C248.8 124.1 254.6 131.4 265.6 143.8C280.5 160.5 305.6 164.9 319 194.4C324 205.4 320.1 219.4 312.1 228.4C309.2 231.7 305.5 234.4 301.2 235.2C296 236.2 290.5 234.3 286.2 231.3C281.9 228.2 278.5 224.1 275.1 219.9C272.2 216.3 257.4 182.5 248.8 178.5" stroke="#071146" stroke-width="2" stroke-miterlimit="10"/>
<path d="M36.2 310.4C58.8 300.9 84.2999 298.3 108.4 303C118.5 305 128.4 308.2 138.6 309.9C180.1 316.7 221.6 297.3 263.6 298.3C268.2 298.4 272.9 298.8 277.4 299.8C284.9 301.5 291.9 304.9 298.9 308.3" stroke="#071146" stroke-width="2" stroke-miterlimit="10" stroke-linecap="round" stroke-linejoin="round"/>
<path d="M252 189.2L248.7 191C247.5 191.7 245.9 191.2 245.2 190L236.9 174.9C236.2 173.7 236.7 172.1 237.9 171.4L241.2 169.6C242.4 168.9 244 169.4 244.7 170.6L253 185.7C253.7 187 253.2 188.5 252 189.2Z" stroke="#071146" stroke-width="2" stroke-miterlimit="10"/>
<path d="M77.9 188.9L81.1 190.8C82.3 191.5 83.9 191.1 84.6 189.9L93.6 175.2C94.3 174 93.9 172.4 92.7 171.7L89.5 169.8C88.3 169.1 86.7 169.5 86 170.7L77 185.4C76.3 186.6 76.7 188.2 77.9 188.9Z" stroke="#071146" stroke-width="2" stroke-miterlimit="10"/>
<path d="M82.1 175.8C72.1 172.1 61.5 169.3 50.9 169.4C40.2 169.4 29.3 172.4 21 179.2C9.89995 188.2 4.69995 202.6 2.39995 216.7C1.39995 223.1 0.799953 229.6 1.09995 236.1C1.39995 243.5 2.79995 250.9 4.29995 258.2C8.09995 276.5 12.7 294.6 18.1 312.5" stroke="#071146" stroke-width="2" stroke-miterlimit="10" stroke-linecap="round" stroke-linejoin="round"/>
<path d="M14.4 298.1C15.7 298 17 298.2 18.1 298.7C18.9 299.1 19.6 299.6 20.1 300.3C20.6 301 20.6 302 20.2 302.8C19.9 303.2 19.5 303.5 19.1 303.8C18.2 304.4 17.3 304.9 16.2 305" stroke="#071146" stroke-width="2" stroke-miterlimit="10" stroke-linecap="round" stroke-linejoin="round"/>
<path d="M13.5 297.1C14.8 296.9 16.2 296.7 17.5 296.8C18.3 296.8 19.1 296.9 19.8 297.2C20.8 297.6 21.6 298.4 22.3 299.2C22.6 299.6 22.9 299.9 23.1 300.3C23.6 301.3 23.5 302.5 23 303.5C22.5 304.5 21.4 305.1 20.4 305.2" stroke="#071146" stroke-width="2" stroke-miterlimit="10" stroke-linecap="round" stroke-linejoin="round"/>
</g>
<defs>
<clipPath id="clip0">
<rect width="322.3" height="313.5" fill="white"/>
</clipPath>
</defs>
</svg>
