<svg width="60" height="60" viewBox="0 0 60 60" fill="none" xmlns="http://www.w3.org/2000/svg">
<g clip-path="url(#clip0)">
<path d="M26.02 45.6604C36.8614 45.6604 45.65 36.8717 45.65 26.0304C45.65 15.189 36.8614 6.40039 26.02 6.40039C15.1787 6.40039 6.39 15.189 6.39 26.0304C6.39 36.8717 15.1787 45.6604 26.02 45.6604Z" fill="#B3C1F4"/>
<path d="M23.85 46.2C36.1936 46.2 46.2 36.1936 46.2 23.85C46.2 11.5064 36.1936 1.5 23.85 1.5C11.5064 1.5 1.5 11.5064 1.5 23.85C1.5 36.1936 11.5064 46.2 23.85 46.2Z" stroke="#071146" stroke-width="3" stroke-linecap="round" stroke-linejoin="round"/>
<path d="M23.85 39.5402C32.5154 39.5402 39.54 32.5155 39.54 23.8502C39.54 15.1848 32.5154 8.16016 23.85 8.16016C15.1847 8.16016 8.16 15.1848 8.16 23.8502C8.16 32.5155 15.1847 39.5402 23.85 39.5402Z" stroke="#071146" stroke-width="3" stroke-linecap="round" stroke-linejoin="round"/>
<path d="M42 36.8896L56.83 51.7296C57.5017 52.4043 57.8788 53.3176 57.8788 54.2696C57.8788 55.2217 57.5017 56.135 56.83 56.8097V56.8097C56.1553 57.4814 55.242 57.8585 54.29 57.8585C53.3379 57.8585 52.4247 57.4814 51.75 56.8097L37.15 42.2096" stroke="#071146" stroke-width="3" stroke-linecap="round" stroke-linejoin="round"/>
</g>
<defs>
<clipPath id="clip0">
<rect width="59.38" height="59.35" fill="white"/>
</clipPath>
</defs>
</svg>
