<svg width="57" height="59" viewBox="0 0 57 59" fill="none" xmlns="http://www.w3.org/2000/svg">
<g clip-path="url(#clip0)">
<path d="M28.24 46.4502C38.4628 46.4502 46.75 38.163 46.75 27.9402C46.75 17.7174 38.4628 9.43018 28.24 9.43018C18.0172 9.43018 9.73001 17.7174 9.73001 27.9402C9.73001 38.163 18.0172 46.4502 28.24 46.4502Z" fill="white"/>
<path d="M1.5 40.0902C5.16667 38.5302 8.89333 37.1269 12.68 35.8802C14.139 35.3001 15.7004 35.0212 17.27 35.0602C18.2502 35.1693 19.2042 35.4467 20.09 35.8802C22.63 37.0502 24.79 38.9302 27.31 40.1702C29.4043 41.1818 31.6778 41.7697 34 41.9002C34.9305 41.8882 35.8576 42.0163 36.75 42.2802C37.1914 42.4174 37.5838 42.6791 37.88 43.0339C38.1763 43.3887 38.3638 43.8215 38.42 44.2802C38.3944 44.7159 38.2455 45.1352 37.9905 45.4894C37.7355 45.8435 37.385 46.1178 36.98 46.2802C36.1708 46.5905 35.3054 46.7268 34.44 46.6802C29.7191 46.7196 25.0194 46.0453 20.5 44.6802" stroke="#071146" stroke-width="3" stroke-linecap="round" stroke-linejoin="round"/>
<path d="M7.12 53.36L10.44 51.22C11.1291 50.7014 11.925 50.3427 12.77 50.17C13.7986 50.1317 14.8183 50.3737 15.72 50.87C18.5067 52.11 21.2367 53.4633 23.91 54.93C25.3759 55.8816 27.0186 56.5278 28.74 56.83C31.24 57.08 33.62 55.83 35.74 54.5C39.83 52.04 43.8 49.4 47.74 46.76C50.32 45.04 52.99 43.24 54.62 40.6C54.9278 40.1826 55.0958 39.6786 55.1 39.16C55.02 38.16 53.88 37.57 52.87 37.5C51.3524 37.5039 49.86 37.8891 48.53 38.62C45.0702 40.2167 41.7774 42.1529 38.7 44.4" stroke="#071146" stroke-width="3" stroke-linecap="round" stroke-linejoin="round"/>
<path d="M35.71 41.75L41.91 37.75C43.1795 36.793 44.6442 36.1272 46.2 35.8C46.9858 35.6455 47.8005 35.7501 48.5218 36.0981C49.243 36.4461 49.8319 37.0187 50.2 37.73" stroke="#071146" stroke-width="3" stroke-linecap="round" stroke-linejoin="round"/>
<path d="M29.66 40.7701L38.41 36.4601C39.2294 35.9952 40.1223 35.6739 41.05 35.5101C41.5149 35.4343 41.9914 35.4771 42.4354 35.6344C42.8794 35.7917 43.2765 36.0585 43.59 36.4101C43.59 36.4601 43.67 36.5401 43.59 36.6001C43.51 36.6601 43.44 36.6001 43.49 36.5401" stroke="#071146" stroke-width="3" stroke-linecap="round" stroke-linejoin="round"/>
<path d="M28.33 31.96C30.2409 31.96 31.79 30.4109 31.79 28.5C31.79 26.5891 30.2409 25.04 28.33 25.04C26.4191 25.04 24.87 26.5891 24.87 28.5C24.87 30.4109 26.4191 31.96 28.33 31.96Z" stroke="#071146" stroke-width="3" stroke-linecap="round" stroke-linejoin="round"/>
<path d="M38 22.6502C36.9778 20.9627 35.5312 19.5725 33.8044 18.6181C32.0776 17.6638 30.1308 17.1786 28.1581 17.211C26.1854 17.2434 24.2556 17.7921 22.561 18.8026C20.8664 19.8131 19.4663 21.2501 18.5 22.9702" stroke="#071146" stroke-width="3" stroke-linecap="round" stroke-linejoin="round"/>
<path d="M45.26 19.3903C43.4727 16.4543 40.9487 14.0368 37.9384 12.3776C34.9282 10.7184 31.5364 9.87527 28.0996 9.93187C24.6629 9.98848 21.3006 10.9428 18.3467 12.7003C15.3927 14.4577 12.9497 16.9571 11.26 19.9503" stroke="#071146" stroke-width="3" stroke-linecap="round" stroke-linejoin="round"/>
<path d="M55.17 16.4702C52.3546 11.8277 48.3721 8.00365 43.619 5.37899C38.866 2.75432 33.5084 1.4206 28.0795 1.51062C22.6507 1.60065 17.3402 3.11128 12.6769 5.8921C8.01347 8.67291 4.15994 12.6269 1.5 17.3602" stroke="#071146" stroke-width="3" stroke-linecap="round" stroke-linejoin="round"/>
</g>
<defs>
<clipPath id="clip0">
<rect width="56.67" height="58.36" fill="white"/>
</clipPath>
</defs>
</svg>
