<svg width="57" height="59" viewBox="0 0 57 59" fill="none" xmlns="http://www.w3.org/2000/svg">
<g clip-path="url(#clip0)">
<path d="M48.88 6.16016H12.48C9.19944 6.16016 6.54001 8.81959 6.54001 12.1002V50.9202C6.54001 54.2007 9.19944 56.8602 12.48 56.8602H48.88C52.1606 56.8602 54.82 54.2007 54.82 50.9202V12.1002C54.82 8.81959 52.1606 6.16016 48.88 6.16016Z" fill="#FEDB8F"/>
<path d="M48.62 1.5H8.05C4.43254 1.5 1.5 4.43254 1.5 8.05V50.31C1.5 53.9275 4.43254 56.86 8.05 56.86H48.62C52.2375 56.86 55.17 53.9275 55.17 50.31V8.05C55.17 4.43254 52.2375 1.5 48.62 1.5Z" stroke="#071146" stroke-width="3" stroke-linecap="round" stroke-linejoin="round"/>
<path d="M37.45 29.66C41.0951 29.66 44.05 26.705 44.05 23.06C44.05 19.4149 41.0951 16.46 37.45 16.46C33.8049 16.46 30.85 19.4149 30.85 23.06C30.85 26.705 33.8049 29.66 37.45 29.66Z" stroke="#071146" stroke-width="3" stroke-linecap="round" stroke-linejoin="round"/>
<path d="M47.34 44.37C47.2583 41.8027 46.1811 39.368 44.3362 37.5808C42.4913 35.7937 40.0236 34.7944 37.455 34.7944C34.8865 34.7944 32.4187 35.7937 30.5738 37.5808C28.7289 39.368 27.6517 41.8027 27.57 44.37H47.34Z" stroke="#071146" stroke-width="3" stroke-linecap="round" stroke-linejoin="round"/>
<path d="M6.54001 1.5V56.86" stroke="#071146" stroke-width="3" stroke-linecap="round" stroke-linejoin="round"/>
<path d="M18.51 16.46H15.59C15.0764 16.46 14.66 16.8763 14.66 17.39V20.31C14.66 20.8236 15.0764 21.24 15.59 21.24H18.51C19.0236 21.24 19.44 20.8236 19.44 20.31V17.39C19.44 16.8763 19.0236 16.46 18.51 16.46Z" stroke="#071146" stroke-width="3" stroke-linecap="round" stroke-linejoin="round"/>
<path d="M18.51 28.02H15.59C15.0764 28.02 14.66 28.4364 14.66 28.95V31.87C14.66 32.3836 15.0764 32.8 15.59 32.8H18.51C19.0236 32.8 19.44 32.3836 19.44 31.87V28.95C19.44 28.4364 19.0236 28.02 18.51 28.02Z" stroke="#071146" stroke-width="3" stroke-linecap="round" stroke-linejoin="round"/>
<path d="M18.51 39.5898H15.59C15.0764 39.5898 14.66 40.0062 14.66 40.5198V43.4398C14.66 43.9535 15.0764 44.3698 15.59 44.3698H18.51C19.0236 44.3698 19.44 43.9535 19.44 43.4398V40.5198C19.44 40.0062 19.0236 39.5898 18.51 39.5898Z" stroke="#071146" stroke-width="3" stroke-linecap="round" stroke-linejoin="round"/>
</g>
<defs>
<clipPath id="clip0">
<rect width="56.67" height="58.36" fill="white"/>
</clipPath>
</defs>
</svg>
