<svg width="57" height="57" viewBox="0 0 57 57" fill="none" xmlns="http://www.w3.org/2000/svg">
<g clip-path="url(#clip0)">
<path d="M5.51 25.0697L11.15 28.5297C11.2789 28.5907 11.3914 28.6815 11.4783 28.7945C11.5653 28.9075 11.6241 29.0395 11.65 29.1797L16.1 51.9397C16.1316 52.1191 16.2169 52.2846 16.3445 52.4144C16.4722 52.5443 16.6362 52.6324 16.815 52.667C16.9937 52.7017 17.1788 52.6813 17.3458 52.6086C17.5127 52.5359 17.6536 52.4142 17.75 52.2597L22.86 44.0697C22.9329 43.9527 23.0318 43.854 23.1489 43.7812C23.266 43.7085 23.3983 43.6636 23.5355 43.6501C23.6728 43.6365 23.8112 43.6547 23.9403 43.7032C24.0694 43.7517 24.1856 43.8292 24.28 43.9297L36.28 56.5897C36.383 56.6977 36.5112 56.7784 36.653 56.8245C36.7949 56.8707 36.9461 56.8808 37.0928 56.854C37.2396 56.8272 37.3774 56.7644 37.4939 56.6711C37.6103 56.5779 37.7018 56.4571 37.76 56.3197L54.71 3.16974C54.7726 3.00826 54.7873 2.83214 54.7523 2.66252C54.7173 2.49289 54.6341 2.33697 54.5127 2.21345C54.3913 2.08993 54.2369 2.00407 54.0679 1.96616C53.8989 1.92825 53.7225 1.93991 53.56 1.99973L5.56 23.4397C5.40275 23.5074 5.26806 23.6185 5.17174 23.7601C5.07543 23.9016 5.02148 24.0677 5.01623 24.2388C5.01098 24.4099 5.05465 24.579 5.14211 24.7262C5.22957 24.8734 5.35719 24.9925 5.51 25.0697Z" fill="#95E196"/>
<path d="M2 22.75L11 27C11.1289 27.061 11.2414 27.1517 11.3283 27.2647C11.4153 27.3777 11.4741 27.5098 11.5 27.65L14.33 43.17C14.3616 43.3493 14.4469 43.5148 14.5745 43.6447C14.7022 43.7745 14.8662 43.8626 15.045 43.8973C15.2237 43.9319 15.4088 43.9116 15.5758 43.8388C15.7427 43.7661 15.8836 43.6445 15.98 43.49L21.09 35.3C21.1629 35.1829 21.2618 35.0842 21.3789 35.0115C21.496 34.9387 21.6283 34.8938 21.7655 34.8803C21.9028 34.8668 22.0413 34.885 22.1703 34.9334C22.2994 34.9819 22.4156 35.0594 22.51 35.16L34.51 47.82C34.6128 47.9302 34.7416 48.0129 34.8847 48.0604C35.0277 48.1078 35.1804 48.1186 35.3287 48.0918C35.477 48.0649 35.6162 48.0012 35.7335 47.9065C35.8508 47.8119 35.9424 47.6893 36 47.55L55.09 2.75997C55.1613 2.59709 55.1828 2.41674 55.1517 2.24168C55.1206 2.06661 55.0384 1.90468 54.9153 1.77631C54.7923 1.64794 54.634 1.55888 54.4604 1.52038C54.2869 1.48188 54.1058 1.49565 53.94 1.55997L2.08 21.09C1.91277 21.1503 1.76715 21.2587 1.6615 21.4017C1.55584 21.5447 1.49489 21.7157 1.48633 21.8933C1.47778 22.0708 1.522 22.247 1.61341 22.3994C1.70483 22.5519 1.83935 22.6739 2 22.75V22.75Z" stroke="#071146" stroke-width="3" stroke-linecap="round" stroke-linejoin="round"/>
<path d="M21.7 34.31L50.56 6.05996C50.7213 5.90683 50.8201 5.69942 50.8375 5.47772C50.8549 5.25601 50.7896 5.03572 50.6542 4.85932C50.5188 4.68291 50.3229 4.56288 50.1042 4.52238C49.8855 4.48188 49.6596 4.52376 49.47 4.63996L11.41 27.21" stroke="#071146" stroke-width="3" stroke-linecap="round" stroke-linejoin="round"/>
</g>
<defs>
<clipPath id="clip0">
<rect width="56.67" height="56.86" fill="white"/>
</clipPath>
</defs>
</svg>
