<svg width="69" height="63" viewBox="0 0 69 63" fill="none" xmlns="http://www.w3.org/2000/svg">
<path d="M38.9425 62.812C55.5428 62.812 69 49.4446 69 32.9551C69 16.4655 55.5428 3.09814 38.9425 3.09814C22.3422 3.09814 8.88494 16.4655 8.88494 32.9551C8.88494 49.4446 22.3422 62.812 38.9425 62.812Z" fill="#FEDB8F"/>
<path d="M51.4192 43.6587C48.3945 43.6587 45.4644 42.532 43.1959 40.4664C40.8329 38.3069 39.4151 35.3025 39.226 32.1102L42.8178 31.9224C42.9123 34.2697 43.9521 36.3353 45.6534 37.9314C47.2603 39.4336 49.4342 40.2786 51.7027 40.1847C53.9712 40.0908 56.0507 39.1519 57.563 37.5558C58.8863 36.1475 59.737 33.8002 59.8315 31.5469L63.4233 31.6408C63.3288 34.833 62.1 37.9314 60.2096 39.997C58.0356 42.3442 55.011 43.6586 51.7973 43.7525C51.7027 43.6586 51.5137 43.6587 51.4192 43.6587Z" fill="#0052CC"/>
<path d="M31.5699 43.2831C29.3959 43.2831 27.5055 42.8137 25.8041 41.7809C24.1027 40.7481 22.6849 39.4337 21.7397 37.7436C20.7 36.0536 20.2274 34.0819 20.2274 31.9225C20.2274 29.763 20.7 27.7913 21.6452 26.1013C22.5904 24.4113 23.8192 23.003 25.426 22.0641C27.0329 21.0313 28.8288 20.5618 30.8137 20.5618C32.4205 20.5618 33.9329 20.9374 35.3507 21.5946C36.7685 22.2518 37.9027 23.1907 38.8479 24.3174V13.2384C38.8479 12.5812 39.037 12.1117 39.4151 11.7362C39.7932 11.3606 40.3603 11.1729 40.9274 11.1729C41.589 11.1729 42.0616 11.3606 42.4397 11.7362C42.8178 12.1117 43.0069 12.5812 43.0069 13.2384V31.9225C43.0069 34.0819 42.5343 36.0536 41.4945 37.7436C40.4548 39.4337 39.1315 40.842 37.4301 41.7809C35.6342 42.8137 33.6493 43.2831 31.5699 43.2831ZM31.5699 39.6214C32.9877 39.6214 34.2164 39.2459 35.3507 38.5886C36.4849 37.9314 37.3356 36.9925 37.9027 35.8658C38.5644 34.6453 38.8479 33.4247 38.8479 31.9225C38.8479 30.4202 38.5644 29.1058 37.9027 27.9791C37.2411 26.8524 36.3904 25.9135 35.3507 25.2563C34.2164 24.5991 32.9877 24.2235 31.5699 24.2235C30.1521 24.2235 28.9233 24.5991 27.8836 25.2563C26.7493 25.9135 25.8986 26.8524 25.237 27.9791C24.5753 29.1058 24.2918 30.4202 24.2918 31.9225C24.2918 33.3308 24.5753 34.6453 25.237 35.8658C25.8986 37.0864 26.7493 37.9314 27.8836 38.5886C28.9233 39.2459 30.1521 39.6214 31.5699 39.6214Z" fill="#0052CC"/>
<path d="M31.6644 63C14.1781 63 0 48.8227 0 31.4531C0 14.0835 14.1781 0 31.6644 0C49.1507 0 63.3288 14.0835 63.3288 31.4531C63.3288 32.392 62.5726 33.237 61.5329 33.237C60.5877 33.237 59.737 32.4858 59.737 31.4531C59.8315 16.0551 47.2603 3.56781 31.6644 3.56781C16.0685 3.56781 3.59178 16.0551 3.59178 31.4531C3.59178 46.851 16.2575 59.4322 31.7589 59.4322C38.3753 59.4322 44.7082 57.1788 49.7178 52.9538C50.474 52.2966 51.6082 52.3905 52.2699 53.1416C52.9315 53.8927 52.837 55.0194 52.0808 55.6766C46.3151 60.3711 39.1315 63 31.6644 63Z" fill="#0052CC"/>
</svg>
