<svg width="68" height="61" viewBox="0 0 68 61" fill="none" xmlns="http://www.w3.org/2000/svg">
<path d="M38.7784 60.8182C54.917 60.8182 68 47.8751 68 31.9091C68 15.943 54.917 3 38.7784 3C22.6397 3 9.55676 15.943 9.55676 31.9091C9.55676 47.8751 22.6397 60.8182 38.7784 60.8182Z" fill="#B6E2D8"/>
<path d="M30.7838 61C13.7838 61 0 47.2727 0 30.4545C0 26.6364 0.735135 22.9091 2.11351 19.3636C2.48108 18.4545 3.49189 18.0909 4.31892 18.3636C5.23784 18.7273 5.6973 19.7273 5.32973 20.5455C4.13514 23.6364 3.49189 27 3.49189 30.3636C3.49189 45.2727 15.8054 57.4545 30.8757 57.4545C45.9459 57.4545 58.1676 45.4545 58.1676 30.4545C58.1676 15.4545 45.9459 3.45455 30.7838 3.45455C26.9243 3.45455 23.1568 4.27273 19.6649 5.81818C18.7459 6.18182 17.7351 5.81818 17.3676 4.90909C17 4 17.3676 3 18.2865 2.63636C22.2378 0.909091 26.4649 0 30.7838 0C47.7838 0 61.6595 13.6364 61.6595 30.4545C61.6595 47.2727 47.7838 61 30.7838 61Z" fill="#0052CC"/>
<path d="M18.2865 41.8183C17.7351 41.8183 17.1838 41.6365 16.8162 41.2728C16.4487 40.9092 16.2649 40.3637 16.2649 39.8183V22.091C16.2649 21.4546 16.4487 21.0001 16.8162 20.6365C17.1838 20.2728 17.7351 20.091 18.2865 20.091C18.9297 20.091 19.3892 20.2728 19.7568 20.6365C20.1243 21.0001 20.3081 21.4546 20.3081 22.091V39.7274C20.3081 40.2728 20.1243 40.8183 19.7568 41.1819C19.3892 41.6365 18.9297 41.8183 18.2865 41.8183ZM31.7027 41.8183C31.1514 41.8183 30.6 41.6365 30.2324 41.2728C29.8649 40.9092 29.6811 40.3637 29.6811 39.8183V28.4546C29.6811 26.8183 29.2216 25.5455 28.3946 24.7274C27.5676 23.9092 26.4649 23.5455 25.1784 23.5455C23.8 23.5455 22.6054 24.0001 21.6865 25.0001C20.7676 25.9092 20.3081 27.1819 20.3081 28.6365H17.827C17.827 26.9092 18.1946 25.3637 18.8378 24.091C19.573 22.8183 20.4919 21.7274 21.6865 21.0001C22.8811 20.2728 24.3514 19.9092 25.9135 19.9092C27.4757 19.9092 28.7622 20.2728 29.9568 20.9092C31.1514 21.5455 32.0703 22.5455 32.7135 23.8183C33.3568 25.091 33.7243 26.6365 33.7243 28.4546V39.8183C33.7243 40.3637 33.5405 40.9092 33.173 41.2728C32.8054 41.6365 32.2541 41.8183 31.7027 41.8183ZM45.027 41.8183C44.4757 41.8183 43.9243 41.6365 43.5568 41.2728C43.1892 40.9092 43.0054 40.3637 43.0054 39.8183V28.4546C43.0054 26.8183 42.546 25.5455 41.7189 24.7274C40.8919 23.9092 39.7892 23.5455 38.5027 23.5455C37.1243 23.5455 35.9297 24.0001 35.1027 25.0001C34.1838 25.9092 33.7243 27.1819 33.7243 28.6365H30.4162C30.4162 26.9092 30.7838 25.3637 31.5189 24.091C32.2541 22.8183 33.3568 21.7274 34.6432 21.0001C36.0216 20.2728 37.4919 19.9092 39.2378 19.9092C40.8 19.9092 42.0865 20.2728 43.2811 20.9092C44.4757 21.5455 45.3946 22.5455 46.0378 23.8183C46.6811 25.091 47.0487 26.6365 47.0487 28.4546V39.8183C47.0487 40.3637 46.8649 40.9092 46.4973 41.2728C46.1297 41.6365 45.6703 41.8183 45.027 41.8183Z" fill="#0052CC"/>
<path d="M18.3784 24.2729C17.3676 24.2729 16.3568 23.5457 16.2649 22.5457C15.8973 19.5457 13.2324 17.3638 10.2 17.7275C7.90271 18.0002 5.97298 19.182 5.23785 21.0911C4.87028 22.0911 4.04325 22.7275 3.03244 22.3638C2.02163 22.0002 1.56217 20.9093 2.02163 19.9093C3.30812 16.6366 6.24866 14.2729 9.74055 13.8184C12.3135 13.5457 14.7946 14.182 16.8162 15.8184C18.8378 17.3638 20.1243 19.6366 20.4 22.182C20.4919 23.2729 19.7568 24.2729 18.6541 24.3638C18.4703 24.2729 18.3784 24.2729 18.3784 24.2729Z" fill="#0052CC"/>
</svg>
