<svg width="59" height="59" viewBox="0 0 59 59" fill="none" xmlns="http://www.w3.org/2000/svg">
<g clip-path="url(#clip0)">
<path d="M30.87 47.8398C39.8667 47.8398 47.16 40.5465 47.16 31.5498C47.16 22.553 39.8667 15.2598 30.87 15.2598C21.8733 15.2598 14.58 22.553 14.58 31.5498C14.58 40.5465 21.8733 47.8398 30.87 47.8398Z" fill="#B3C1F4"/>
<path d="M55.16 33C55.5817 32.9321 55.9685 32.7248 56.2586 32.4112C56.5486 32.0975 56.7252 31.6958 56.76 31.27C56.82 30.57 56.86 29.86 56.86 29.15C56.86 28.44 56.86 27.73 56.76 27.03C56.7252 26.6042 56.5486 26.2025 56.2586 25.8888C55.9685 25.5752 55.5817 25.3679 55.16 25.3L52.26 24.85C51.8913 24.7865 51.5487 24.6177 51.2737 24.364C50.9987 24.1103 50.8029 23.7824 50.71 23.42V23.42C50.6099 23.0623 50.6152 22.6834 50.7252 22.3286C50.8352 21.9739 51.0452 21.6584 51.33 21.42L53.63 19.57C53.9594 19.31 54.1918 18.9467 54.2898 18.5385C54.3877 18.1304 54.3455 17.7012 54.17 17.32C53.5457 16.0184 52.8202 14.7679 52 13.58C51.7593 13.2203 51.4041 12.9524 50.9921 12.8199C50.58 12.6874 50.1353 12.698 49.73 12.85L47 13.92C46.6481 14.0504 46.2658 14.0754 45.9 13.9919C45.5341 13.9085 45.2005 13.7201 44.94 13.45V13.45C44.6699 13.1895 44.4815 12.8559 44.3981 12.49C44.3146 12.1242 44.3396 11.7419 44.47 11.39L45.5 8.61C45.652 8.20473 45.6626 7.75999 45.5301 7.34794C45.3976 6.93589 45.1297 6.5807 44.77 6.34C43.6035 5.53337 42.3765 4.81791 41.1 4.2C40.7188 4.02445 40.2896 3.98226 39.8815 4.08021C39.4733 4.17816 39.11 4.41055 38.85 4.74L37 7C36.7616 7.28483 36.4461 7.49483 36.0914 7.6048C35.7366 7.71478 35.3577 7.72005 35 7.62C34.6269 7.54292 34.2847 7.35767 34.0161 7.08736C33.7476 6.81705 33.5646 6.47365 33.49 6.1L33 3.2C32.9335 2.78286 32.7305 2.39955 32.4229 2.11005C32.1153 1.82054 31.7204 1.64117 31.3 1.6C30.6 1.54 29.89 1.5 29.18 1.5C28.47 1.5 27.76 1.5 27.06 1.6C26.6342 1.63482 26.2325 1.81137 25.9188 2.10141C25.6052 2.39146 25.3979 2.77826 25.33 3.2L24.88 6.1C24.8165 6.46875 24.6477 6.81127 24.394 7.08628C24.1403 7.36129 23.8124 7.55706 23.45 7.65V7.65C23.0923 7.75005 22.7134 7.74478 22.3586 7.6348C22.0039 7.52483 21.6884 7.31483 21.45 7.03L19.6 4.73C19.34 4.40055 18.9767 4.16816 18.5686 4.07021C18.1604 3.97226 17.7312 4.01445 17.35 4.19C16.07 4.80735 14.8396 5.52282 13.67 6.33C13.3103 6.5707 13.0424 6.92589 12.9099 7.33794C12.7774 7.74999 12.788 8.19473 12.94 8.6L14 11.36C14.1304 11.7119 14.1554 12.0942 14.0719 12.46C13.9885 12.8259 13.8001 13.1595 13.53 13.42V13.42C13.2695 13.6901 12.9359 13.8785 12.57 13.9619C12.2042 14.0454 11.8219 14.0204 11.47 13.89L8.61 12.86C8.20473 12.708 7.75999 12.6974 7.34794 12.8299C6.93589 12.9624 6.5807 13.2303 6.34 13.59C5.5333 14.7564 4.81784 15.9834 4.2 17.26C4.02445 17.6412 3.98226 18.0704 4.08021 18.4785C4.17816 18.8867 4.41055 19.25 4.74 19.51L7 21.37C7.28483 21.6084 7.49483 21.9239 7.6048 22.2786C7.71478 22.6334 7.72005 23.0123 7.62 23.37V23.37C7.54117 23.7413 7.35515 24.0813 7.08497 24.348C6.81479 24.6146 6.47232 24.7961 6.1 24.87L3.2 25.32C2.77826 25.3879 2.39146 25.5952 2.10141 25.9088C1.81137 26.2225 1.63482 26.6242 1.6 27.05C1.54 27.75 1.5 28.46 1.5 29.17C1.5 29.88 1.5 30.59 1.6 31.29C1.63907 31.7122 1.8175 32.1094 2.10719 32.419C2.39687 32.7286 2.78134 32.933 3.2 33L6.1 33.45C6.46875 33.5135 6.81127 33.6823 7.08628 33.936C7.36129 34.1897 7.55706 34.5176 7.65 34.88V34.88C7.77272 35.2573 7.77616 35.6633 7.65984 36.0427C7.54353 36.422 7.31313 36.7563 7 37L4.7 38.86C4.37958 39.1247 4.15648 39.4886 4.06593 39.8943C3.97539 40.2999 4.02256 40.7242 4.2 41.1C4.81742 42.38 5.53289 43.6103 6.34 44.78C6.5807 45.1397 6.93589 45.4076 7.34794 45.5401C7.75999 45.6726 8.20473 45.662 8.61 45.51L11.37 44.45C11.7219 44.3196 12.1042 44.2946 12.47 44.3781C12.8359 44.4615 13.1695 44.6499 13.43 44.92V44.92C13.7075 45.1799 13.902 45.516 13.9891 45.886C14.0763 46.256 14.0523 46.6436 13.92 47L12.86 49.76C12.7145 50.1603 12.7063 50.5977 12.8367 51.0032C12.967 51.4087 13.2285 51.7594 13.58 52C14.7497 52.8071 15.98 53.5225 17.26 54.14C17.6412 54.3155 18.0704 54.3577 18.4785 54.2598C18.8867 54.1618 19.25 53.9294 19.51 53.6L21.36 51.3C21.5984 51.0152 21.9139 50.8052 22.2686 50.6952C22.6234 50.5852 23.0023 50.5799 23.36 50.68V50.68C23.7224 50.7729 24.0503 50.9687 24.304 51.2437C24.5577 51.5187 24.7265 51.8613 24.79 52.23L25.24 55.13C25.3079 55.5517 25.5152 55.9385 25.8288 56.2286C26.1425 56.5186 26.5442 56.6952 26.97 56.73C27.67 56.79 28.38 56.83 29.09 56.83C29.8 56.83 30.51 56.83 31.21 56.73C31.642 56.7096 32.0544 56.5433 32.3796 56.258C32.7047 55.9728 32.9235 55.5857 33 55.16L33.45 52.26C33.5135 51.8913 33.6823 51.5487 33.936 51.2737C34.1897 50.9987 34.5176 50.8029 34.88 50.71V50.71C35.2377 50.6099 35.6166 50.6152 35.9714 50.7252C36.3261 50.8352 36.6416 51.0452 36.88 51.33L38.73 53.63C38.99 53.9594 39.3533 54.1918 39.7615 54.2898C40.1696 54.3877 40.5988 54.3455 40.98 54.17C42.2987 53.548 43.566 52.8224 44.77 52C45.1297 51.7593 45.3976 51.4041 45.5301 50.9921C45.6626 50.58 45.652 50.1353 45.5 49.73L44.44 47C44.3096 46.6481 44.2846 46.2658 44.3681 45.9C44.4515 45.5341 44.6399 45.2005 44.91 44.94C45.1696 44.6589 45.5068 44.4612 45.879 44.3722C46.2511 44.2832 46.6413 44.3068 47 44.44L49.76 45.5C50.1614 45.6445 50.5995 45.6511 51.0051 45.519C51.4107 45.3868 51.7608 45.1232 52 44.77C52.807 43.6003 53.5225 42.37 54.14 41.09C54.3155 40.7088 54.3577 40.2796 54.2598 39.8714C54.1618 39.4633 53.9294 39.1 53.6 38.84L51.32 37C51.0352 36.7616 50.8252 36.4461 50.7152 36.0914C50.6052 35.7366 50.5999 35.3577 50.7 35V35C50.7929 34.6376 50.9887 34.3097 51.2637 34.056C51.5387 33.8023 51.8813 33.6335 52.25 33.57L55.16 33Z" stroke="#071146" stroke-width="3" stroke-linecap="round" stroke-linejoin="round"/>
<path d="M29.18 12.8896C25.9581 12.8896 22.8086 13.845 20.1298 15.635C17.4509 17.425 15.3629 19.9691 14.13 22.9457C12.897 25.9223 12.5744 29.1977 13.203 32.3577C13.8316 35.5176 15.383 38.4202 17.6612 40.6984C19.9394 42.9766 22.842 44.5281 26.002 45.1566C29.1619 45.7852 32.4373 45.4626 35.4139 44.2296C38.3905 42.9967 40.9347 40.9088 42.7246 38.2299C44.5146 35.551 45.47 32.4015 45.47 29.1796C45.47 24.8593 43.7537 20.7158 40.6988 17.6609C37.6438 14.6059 33.5004 12.8896 29.18 12.8896V12.8896ZM29.18 39.3097C27.1765 39.3097 25.2179 38.7155 23.5521 37.6024C21.8862 36.4893 20.5878 34.9072 19.8211 33.0562C19.0544 31.2052 18.8538 29.1684 19.2446 27.2034C19.6355 25.2384 20.6003 23.4334 22.017 22.0167C23.4337 20.5999 25.2387 19.6352 27.2037 19.2443C29.1688 18.8534 31.2056 19.054 33.0566 19.8207C34.9076 20.5875 36.4897 21.8859 37.6028 23.5517C38.7159 25.2176 39.31 27.1761 39.31 29.1796C39.31 31.8663 38.2427 34.4429 36.343 36.3426C34.4432 38.2424 31.8666 39.3097 29.18 39.3097V39.3097Z" stroke="#071146" stroke-width="3" stroke-linecap="round" stroke-linejoin="round"/>
</g>
<defs>
<clipPath id="clip0">
<rect width="58.36" height="58.36" fill="white"/>
</clipPath>
</defs>
</svg>
