<svg width="67" height="61" viewBox="0 0 67 61" fill="none" xmlns="http://www.w3.org/2000/svg">
<path d="M37.8137 60.5477C53.9329 60.5477 67 47.6622 67 31.7672C67 15.8722 53.9329 2.98682 37.8137 2.98682C21.6946 2.98682 8.6274 15.8722 8.6274 31.7672C8.6274 47.6622 21.6946 60.5477 37.8137 60.5477Z" fill="#FCAA90"/>
<path d="M30.4712 41.7224C28.4521 41.7224 26.7082 41.2699 25.148 40.3648C23.5877 39.4598 22.3945 38.1022 21.4767 36.4731C20.5589 34.844 20.1918 32.9435 20.1918 30.7713C20.1918 28.5992 20.6507 26.6987 21.5685 25.0696C22.4863 23.4405 23.863 22.1734 25.5151 21.1779C27.1671 20.2728 29.0945 19.8203 31.2055 19.8203C33.3164 19.8203 35.2438 20.2728 36.8959 21.1779C38.5479 22.0829 39.8329 23.4405 40.8425 25.0696C41.7603 26.6987 42.311 28.5992 42.311 30.7713H39.9247C39.9247 32.9435 39.5575 34.7535 38.7315 36.4731C37.9055 38.1022 36.8041 39.3693 35.4274 40.3648C33.9589 41.2699 32.3069 41.7224 30.4712 41.7224ZM31.2055 50.5013C29.2781 50.5013 27.5343 50.1393 25.8822 49.4153C24.2301 48.6912 22.8534 47.6052 21.6603 46.1571C21.2932 45.7046 21.2014 45.2521 21.2932 44.7995C21.3849 44.347 21.6603 43.985 22.1192 43.623C22.5781 43.3515 23.1288 43.1705 23.5877 43.3515C24.1384 43.442 24.5055 43.7135 24.8726 44.166C25.6069 45.0711 26.5247 45.7951 27.626 46.2476C28.7274 46.7906 29.9206 46.9716 31.389 46.9716C32.674 46.9716 33.8671 46.7001 34.9685 46.0666C36.0699 45.4331 36.8959 44.528 37.5384 43.3515C38.1808 42.1749 38.4562 40.7268 38.4562 39.0073V33.396L39.7411 29.9568L42.311 30.7713V39.2788C42.311 41.3604 41.8521 43.261 40.9342 44.9805C40.0164 46.7001 38.7315 48.0577 36.9877 49.0532C35.3356 50.0488 33.4082 50.5013 31.2055 50.5013ZM31.2973 38.1927C32.674 38.1927 33.9589 37.9212 34.9685 37.2877C36.0699 36.6541 36.8959 35.7491 37.4466 34.663C38.089 33.577 38.3644 32.3099 38.3644 30.8619C38.3644 29.4138 38.089 28.1467 37.4466 26.9702C36.8041 25.8841 35.9781 24.9791 34.9685 24.3455C33.8671 23.712 32.674 23.4405 31.2973 23.4405C29.9206 23.4405 28.6356 23.8025 27.626 24.3455C26.5247 24.9791 25.6986 25.8841 25.148 26.9702C24.5055 28.0562 24.2301 29.4138 24.2301 30.8619C24.2301 32.3099 24.5055 33.577 25.148 34.663C25.7904 35.7491 26.6164 36.6541 27.626 37.2877C28.6356 37.8307 29.9206 38.1927 31.2973 38.1927Z" fill="#0052CC"/>
<path d="M30.9301 61C13.8589 61 0 47.3338 0 30.5C0 13.6662 13.8589 0 30.9301 0C35.2438 0 39.374 0.81454 43.3205 2.53412C44.2384 2.89614 44.6055 3.89169 44.2384 4.79674C43.8712 5.70178 42.8616 6.0638 41.9438 5.70178C38.4562 4.25371 34.7849 3.43917 30.9301 3.43917C15.7863 3.43917 3.48767 15.5668 3.48767 30.5C3.48767 45.4332 15.7863 57.5608 30.9301 57.5608C46.074 57.5608 58.3726 45.4332 58.3726 30.5C58.3726 28.6899 58.189 26.7893 57.8219 25.0697C57.6384 24.1647 58.189 23.2596 59.1986 23.0786C60.1164 22.8976 61.0342 23.5312 61.2178 24.4362C61.6767 26.4273 61.8603 28.5089 61.8603 30.5905C61.8603 47.3338 47.9096 61 30.9301 61Z" fill="#0052CC"/>
<path d="M42.2192 26.0651L38.7315 25.9746C38.7315 24.7981 38.9151 23.712 39.374 22.626L42.6781 23.712C42.4027 24.5266 42.311 25.3411 42.2192 26.0651Z" fill="#0052CC"/>
<path d="M57.8219 25.0698C57.4548 23.0787 56.3534 21.2686 54.7014 20.0015C53.0493 18.825 50.9384 18.2819 48.9192 18.6439C46.074 19.0965 43.6877 21.0876 42.7699 23.8027L39.374 22.6261C40.7507 18.7345 44.1466 15.9288 48.2767 15.2048C54.426 14.2092 60.2082 18.3724 61.2178 24.4362L57.8219 25.0698Z" fill="#0052CC"/>
<path d="M42.3109 25.5225H38.8233V34.3919H42.3109V25.5225Z" fill="#0052CC"/>
</svg>
