<svg width="68" height="62" viewBox="0 0 68 62" fill="none" xmlns="http://www.w3.org/2000/svg">
<path d="M38.3781 61.6314C54.7378 61.6314 68 48.5153 68 32.3357C68 16.1562 54.7378 3.04004 38.3781 3.04004C22.0184 3.04004 8.75617 16.1562 8.75617 32.3357C8.75617 48.5153 22.0184 61.6314 38.3781 61.6314Z" fill="#B1DEF5"/>
<path d="M26.2685 27.8213C25.7096 27.8213 25.2438 27.6371 24.8712 27.3607C24.4986 26.9922 24.3123 26.6237 24.3123 26.1631C24.3123 25.6103 24.4986 25.2418 24.8712 24.8733C25.2438 24.5048 25.7096 24.4127 26.2685 24.4127H36.3288C36.8877 24.4127 37.3534 24.597 37.726 24.8733C38.0986 25.1497 38.2849 25.6103 38.2849 26.1631C38.2849 26.6237 38.0986 27.0843 37.726 27.3607C37.3534 27.6371 36.8877 27.8213 36.3288 27.8213H26.2685ZM30.0877 45.5093C29.5288 45.5093 29.1562 45.325 28.6904 44.9565C28.3178 44.588 28.0383 44.1274 28.0383 43.4825V23.6757C28.0383 21.7411 28.4109 20.0828 29.1562 18.6088C29.9014 17.227 31.0192 16.1215 32.4164 15.2923C33.8137 14.4632 35.3973 14.0947 37.1671 14.0947C37.726 14.0947 38.2849 14.279 38.6575 14.6475C39.0301 15.016 39.2164 15.4766 39.2164 15.9372C39.2164 16.49 39.0301 16.8585 38.6575 17.227C38.2849 17.5955 37.726 17.7797 37.1671 17.7797C36.1425 17.7797 35.3041 17.964 34.5589 18.4246C33.8137 18.8852 33.2548 19.5301 32.789 20.3592C32.3233 21.1883 32.137 22.1096 32.137 23.2151V43.4825C32.137 44.1274 31.9507 44.588 31.5781 44.9565C31.2986 45.325 30.7397 45.5093 30.0877 45.5093Z" fill="#0052CC"/>
<path d="M30.0877 62C13.2274 61.3551 0 47.7206 0 31.0461C0 13.9108 14.0658 0 31.3918 0C48.7178 0 62.7836 13.9108 62.7836 31.0461C62.7836 42.3774 56.5425 52.8796 46.389 58.315C45.5507 58.7756 44.4329 58.4993 43.9671 57.578C43.5014 56.7489 43.7808 55.6434 44.7123 55.1828C53.6548 50.3001 59.2438 41.0877 59.2438 30.9539C59.2438 15.7533 46.7616 3.40862 31.3918 3.40862C16.0219 3.50074 3.53973 15.8455 3.53973 31.0461C3.53973 45.8782 15.2767 57.9465 30.1808 58.5914C31.1123 58.5914 31.9507 59.4205 31.8575 60.4339C31.8575 61.263 31.0192 62 30.0877 62Z" fill="#0052CC"/>
<path d="M30.0877 61.9999C28.9699 61.9999 28.0383 61.0786 28.0383 59.9731V43.4828C28.0383 42.3773 28.9699 41.4561 30.0877 41.4561C31.2055 41.4561 32.137 42.3773 32.137 43.4828V59.881C32.2301 61.0786 31.2986 61.9999 30.0877 61.9999Z" fill="#0052CC"/>
</svg>
