<svg width="69" height="63" viewBox="0 0 69 63" fill="none" xmlns="http://www.w3.org/2000/svg">
<path d="M38.9425 62.812C55.5428 62.812 69 49.4446 69 32.9551C69 16.4655 55.5428 3.09814 38.9425 3.09814C22.3422 3.09814 8.88494 16.4655 8.88494 32.9551C8.88494 49.4446 22.3422 62.812 38.9425 62.812Z" fill="#95E196"/>
<path d="M32.6096 43.2833C30.3411 43.2833 28.2616 42.8139 26.5603 41.875C24.7644 40.9361 23.4411 39.5277 22.4014 37.8377C21.3616 36.1477 20.7945 34.176 20.7945 31.9227C20.7945 29.6693 21.2671 27.6976 22.2123 26.0076C23.1575 24.3176 24.4808 23.0031 26.1822 21.9704C27.8836 21.0315 29.774 20.562 31.9479 20.562C34.1219 20.562 35.9178 21.0315 37.4301 21.9704C38.9425 22.9093 40.1712 24.2237 40.9274 25.8198C41.7781 27.5099 42.1562 29.3876 42.1562 31.5471C42.1562 32.1104 41.9671 32.486 41.589 32.8616C41.211 33.2371 40.7384 33.331 40.2658 33.331H23.7247V30.0449H40.2658L38.5644 31.1716C38.5644 29.7632 38.2808 28.5426 37.7137 27.5099C37.1466 26.4771 36.4849 25.5382 35.4452 24.9748C34.5 24.3176 33.2712 24.0359 31.9479 24.0359C30.3411 24.0359 29.0178 24.4115 27.8836 25.0687C26.7493 25.7259 25.8986 26.6648 25.3315 27.8854C24.8589 29.106 24.5753 30.4204 24.5753 31.9227C24.5753 33.4249 24.9534 34.7394 25.6151 35.9599C26.2767 37.1805 27.2219 38.0255 28.4507 38.7766C29.6795 39.4338 31.0027 39.8094 32.6096 39.8094C33.4603 39.8094 34.311 39.6216 35.2562 39.34C36.1069 39.0583 36.863 38.6827 37.4301 38.2133C37.8082 37.9316 38.2808 37.7438 38.7534 37.7438C39.226 37.7438 39.6986 37.8377 39.9822 38.2133C40.4548 38.5888 40.7384 39.0583 40.7384 39.5277C40.7384 39.9972 40.5493 40.4666 40.0767 40.8422C39.1315 41.5933 37.9973 42.1566 36.5795 42.6261C35.1616 43.0017 33.8384 43.2833 32.6096 43.2833Z" fill="#0052CC"/>
<path d="M31.6644 63C14.1781 63 0 48.8227 0 31.4531C0 14.0835 14.1781 0 31.6644 0C49.1507 0 63.4233 14.0835 63.4233 31.4531C63.4233 32.392 62.6671 33.237 61.6274 33.237C60.6822 33.237 59.8315 32.4858 59.8315 31.4531C59.8315 16.0551 47.2603 3.56781 31.6644 3.56781C16.163 3.56781 3.59178 16.0551 3.59178 31.4531C3.59178 46.851 16.2575 59.4322 31.7589 59.4322C38.3753 59.4322 44.7082 57.1788 49.7178 52.9538C50.474 52.2966 51.6082 52.3905 52.2699 53.1416C52.9315 53.8927 52.837 55.0194 52.0808 55.6766C46.3151 60.3711 39.1315 63 31.6644 63Z" fill="#0052CC"/>
<path d="M50.474 56.897L48.3945 53.9864C50.0014 52.8597 52.5534 50.5125 52.5534 46.9446C52.5534 42.6257 49.0562 39.1518 44.7082 39.1518C42.8178 39.1518 41.0219 39.809 39.6041 41.0296L37.3356 38.3068C39.4151 36.5229 42.0616 35.584 44.7082 35.584C51.0411 35.584 56.1452 40.654 56.1452 46.9446C56.1452 50.7941 54.1603 54.268 50.474 56.897Z" fill="#0052CC"/>
</svg>
