<svg width="57" height="59" viewBox="0 0 57 59" fill="none" xmlns="http://www.w3.org/2000/svg">
<g clip-path="url(#clip0)">
<path d="M30.67 4.52979C30.67 4.52979 25 11.3898 19.53 13.4498C15.2845 14.8516 10.8588 15.633 6.39 15.7698C6.39 15.7698 4.24 24.8898 9.32 39.8698C13.9 53.3698 30.67 56.4498 30.67 56.4498" fill="white"/>
<path d="M30.67 4.52979C30.67 4.52979 36 10.0698 41.5 12.1298C47.35 14.3098 54.5 12.6498 54.5 12.6498C55.9034 21.7911 55.0451 31.1371 52 39.8698C47.44 53.3698 30.67 56.4498 30.67 56.4498" fill="white"/>
<path d="M18.58 28.31L27.75 36.91L38.08 24.46" stroke="#071146" stroke-width="3" stroke-linecap="round" stroke-linejoin="round"/>
<path d="M28.33 1.5C28.33 1.5 22.51 7.4 16.47 9.59C10.07 11.92 2.21 10.15 2.21 10.15C2.21 10.15 -0.600004 23.2 5 39.18C10 53.57 28.37 56.86 28.37 56.86" stroke="#071146" stroke-width="3" stroke-linecap="round" stroke-linejoin="round"/>
<path d="M28.33 1.5C28.33 1.5 34.15 7.4 40.19 9.59C46.59 11.92 54.45 10.15 54.45 10.15C54.45 10.15 57.27 23.2 51.7 39.15C46.7 53.54 28.33 56.83 28.33 56.83" stroke="#071146" stroke-width="3" stroke-linecap="round" stroke-linejoin="round"/>
</g>
<defs>
<clipPath id="clip0">
<rect width="56.67" height="58.36" fill="white"/>
</clipPath>
</defs>
</svg>
