<svg width="57" height="59" viewBox="0 0 57 59" fill="none" xmlns="http://www.w3.org/2000/svg">
<g clip-path="url(#clip0)">
<path d="M51.4 38.5298H5.27C3.18789 38.5298 1.5 40.2177 1.5 42.2998V53.0898C1.5 55.1719 3.18789 56.8598 5.27 56.8598H51.4C53.4821 56.8598 55.17 55.1719 55.17 53.0898V42.2998C55.17 40.2177 53.4821 38.5298 51.4 38.5298Z" stroke="#071146" stroke-width="3" stroke-linecap="round" stroke-linejoin="round"/>
<path d="M51.4 20.02H5.27C3.18789 20.02 1.5 21.7079 1.5 23.79V34.58C1.5 36.6621 3.18789 38.35 5.27 38.35H51.4C53.4821 38.35 55.17 36.6621 55.17 34.58V23.79C55.17 21.7079 53.4821 20.02 51.4 20.02Z" stroke="#071146" stroke-width="3" stroke-linecap="round" stroke-linejoin="round"/>
<path d="M51.4 1.5H5.27C3.18789 1.5 1.5 3.18789 1.5 5.27V16.06C1.5 18.1421 3.18789 19.83 5.27 19.83H51.4C53.4821 19.83 55.17 18.1421 55.17 16.06V5.27C55.17 3.18789 53.4821 1.5 51.4 1.5Z" stroke="#071146" stroke-width="3" stroke-linecap="round" stroke-linejoin="round"/>
<path d="M28.33 45.0998C37.1224 45.0998 44.25 37.9721 44.25 29.1798C44.25 20.3874 37.1224 13.2598 28.33 13.2598C19.5376 13.2598 12.41 20.3874 12.41 29.1798C12.41 37.9721 19.5376 45.0998 28.33 45.0998Z" fill="#B1DEF5" stroke="#071146" stroke-width="3" stroke-linecap="round" stroke-linejoin="round"/>
<path d="M30.54 25.26L28.33 20.77C30.0309 20.77 31.6937 21.2744 33.1079 22.2194C34.5222 23.1644 35.6245 24.5075 36.2754 26.0789C36.9263 27.6504 37.0966 29.3796 36.7648 31.0478C36.4329 32.716 35.6139 34.2484 34.4111 35.4511C33.2084 36.6539 31.676 37.4729 30.0078 37.8048C28.3396 38.1366 26.6104 37.9663 25.0389 37.3154C23.4675 36.6645 22.1244 35.5622 21.1794 34.1479C20.2344 32.7337 19.73 31.0709 19.73 29.37" stroke="#071146" stroke-width="3" stroke-linecap="round" stroke-linejoin="round"/>
<path d="M28.33 20.7698L32.67 18.2598" stroke="#071146" stroke-width="3" stroke-linecap="round" stroke-linejoin="round"/>
</g>
<defs>
<clipPath id="clip0">
<rect width="56.67" height="58.36" fill="white"/>
</clipPath>
</defs>
</svg>
