<svg width="67" height="63" viewBox="0 0 67 63" fill="none" xmlns="http://www.w3.org/2000/svg">
<path d="M37.8137 62.812C53.9329 62.812 67 49.4446 67 32.9551C67 16.4655 53.9329 3.09814 37.8137 3.09814C21.6946 3.09814 8.62743 16.4655 8.62743 32.9551C8.62743 49.4446 21.6946 62.812 37.8137 62.812Z" fill="#B3C1F4"/>
<path d="M31.2972 43.2833C29.1863 43.2833 27.2589 42.8139 25.6068 41.7811C23.9548 40.7483 22.6699 39.4338 21.6603 37.7438C20.7425 36.0538 20.1918 34.0821 20.1918 31.9227C20.1918 29.6693 20.6507 27.6976 21.5685 26.0076C22.4863 24.3176 23.7712 22.9093 25.4233 21.9704C27.0753 21.0315 28.9109 20.562 31.0219 20.562C32.5822 20.562 34.0507 20.8437 35.3356 21.5009C36.6205 22.1581 37.8137 23.0031 38.8233 24.2237C39.1904 24.6932 39.374 25.0687 39.1904 25.5382C39.0986 26.0076 38.8233 26.3832 38.2726 26.7587C37.9055 27.0404 37.4466 27.1343 36.9877 27.0404C36.5288 26.9465 36.1616 26.6648 35.7027 26.2893C34.4178 24.8809 32.7657 24.1298 30.8383 24.1298C29.4616 24.1298 28.2685 24.4115 27.2589 25.0687C26.2493 25.7259 25.4233 26.571 24.7808 27.7915C24.2301 28.9182 23.863 30.3265 23.863 31.8288C23.863 33.331 24.1383 34.6455 24.7808 35.7721C25.4233 36.8988 26.2493 37.8377 27.2589 38.4949C28.2685 39.1522 29.5534 39.5277 31.0219 39.5277C31.9397 39.5277 32.7657 39.4338 33.5 39.1522C34.2342 38.9644 34.8767 38.5888 35.4274 38.0255C35.8863 37.6499 36.2534 37.4622 36.7123 37.4622C37.1712 37.4622 37.5383 37.5561 37.9055 37.8377C38.3644 38.2133 38.6397 38.6827 38.6397 39.1522C38.7315 39.6216 38.5479 40.0911 38.1808 40.4666C36.5288 42.3444 34.1425 43.2833 31.2972 43.2833Z" fill="#0052CC"/>
<path d="M30.7466 63C13.7671 63 0 48.8227 0 31.4531C0 14.0835 13.7671 0 30.7466 0C47.726 0 61.5849 14.0835 61.5849 31.4531C61.5849 32.392 60.8507 33.237 59.8411 33.237C58.9233 33.237 58.0973 32.4858 58.0973 31.4531C58.0973 16.0551 45.8904 3.56781 30.7466 3.56781C15.6945 3.56781 3.48767 16.0551 3.48767 31.4531C3.48767 46.851 15.7863 59.4322 30.8384 59.4322C37.263 59.4322 43.4123 57.1788 48.2767 52.9538C49.011 52.2966 50.1123 52.3905 50.7548 53.1416C51.3973 53.8927 51.3055 55.0194 50.5712 55.6766C44.9726 60.3711 37.9973 63 30.7466 63Z" fill="#0052CC"/>
<path d="M48.9192 56.897L46.9 53.9864C48.4603 52.8598 51.0301 50.4186 51.0301 46.7569C51.0301 42.3441 47.5425 38.7763 43.2288 38.7763C41.3932 38.7763 39.5575 39.4335 38.1808 40.6541L35.9781 37.9313C37.9973 36.1474 40.6589 35.2085 43.3206 35.2085C49.5617 35.2085 54.6096 40.3724 54.6096 46.7569C54.6096 50.7003 52.5904 54.2681 48.9192 56.897Z" fill="#0052CC"/>
</svg>
